G04 #@! TF.GenerationSoftware,KiCad,Pcbnew,(5.0.0)*
G04 #@! TF.CreationDate,2019-02-03T16:55:31-08:00*
G04 #@! TF.ProjectId,mlab100_Conn_PCB_1.5,6D6C61623130305F436F6E6E5F504342,rev?*
G04 #@! TF.SameCoordinates,Original*
G04 #@! TF.FileFunction,Legend,Top*
G04 #@! TF.FilePolarity,Positive*
%FSLAX46Y46*%
G04 Gerber Fmt 4.6, Leading zero omitted, Abs format (unit mm)*
G04 Created by KiCad (PCBNEW (5.0.0)) date 02/03/19 16:55:31*
%MOMM*%
%LPD*%
G01*
G04 APERTURE LIST*
%ADD10C,0.250000*%
%ADD11C,0.120000*%
G04 APERTURE END LIST*
D10*
X9171428Y-12598571D02*
X9171428Y-11098571D01*
X9671428Y-12170000D01*
X10171428Y-11098571D01*
X10171428Y-12598571D01*
X10885714Y-12598571D02*
X10885714Y-11598571D01*
X10885714Y-11098571D02*
X10814285Y-11170000D01*
X10885714Y-11241428D01*
X10957142Y-11170000D01*
X10885714Y-11098571D01*
X10885714Y-11241428D01*
X12242857Y-12527142D02*
X12099999Y-12598571D01*
X11814285Y-12598571D01*
X11671428Y-12527142D01*
X11599999Y-12455714D01*
X11528571Y-12312857D01*
X11528571Y-11884285D01*
X11599999Y-11741428D01*
X11671428Y-11670000D01*
X11814285Y-11598571D01*
X12099999Y-11598571D01*
X12242857Y-11670000D01*
X12885714Y-12598571D02*
X12885714Y-11598571D01*
X12885714Y-11884285D02*
X12957142Y-11741428D01*
X13028571Y-11670000D01*
X13171428Y-11598571D01*
X13314285Y-11598571D01*
X14028571Y-12598571D02*
X13885714Y-12527142D01*
X13814285Y-12455714D01*
X13742857Y-12312857D01*
X13742857Y-11884285D01*
X13814285Y-11741428D01*
X13885714Y-11670000D01*
X14028571Y-11598571D01*
X14242857Y-11598571D01*
X14385714Y-11670000D01*
X14457142Y-11741428D01*
X14528571Y-11884285D01*
X14528571Y-12312857D01*
X14457142Y-12455714D01*
X14385714Y-12527142D01*
X14242857Y-12598571D01*
X14028571Y-12598571D01*
X15671428Y-11812857D02*
X15885714Y-11884285D01*
X15957142Y-11955714D01*
X16028571Y-12098571D01*
X16028571Y-12312857D01*
X15957142Y-12455714D01*
X15885714Y-12527142D01*
X15742857Y-12598571D01*
X15171428Y-12598571D01*
X15171428Y-11098571D01*
X15671428Y-11098571D01*
X15814285Y-11170000D01*
X15885714Y-11241428D01*
X15957142Y-11384285D01*
X15957142Y-11527142D01*
X15885714Y-11670000D01*
X15814285Y-11741428D01*
X15671428Y-11812857D01*
X15171428Y-11812857D01*
X16671428Y-12598571D02*
X16671428Y-11598571D01*
X16671428Y-11098571D02*
X16599999Y-11170000D01*
X16671428Y-11241428D01*
X16742857Y-11170000D01*
X16671428Y-11098571D01*
X16671428Y-11241428D01*
X17599999Y-12598571D02*
X17457142Y-12527142D01*
X17385714Y-12455714D01*
X17314285Y-12312857D01*
X17314285Y-11884285D01*
X17385714Y-11741428D01*
X17457142Y-11670000D01*
X17599999Y-11598571D01*
X17814285Y-11598571D01*
X17957142Y-11670000D01*
X18028571Y-11741428D01*
X18099999Y-11884285D01*
X18099999Y-12312857D01*
X18028571Y-12455714D01*
X17957142Y-12527142D01*
X17814285Y-12598571D01*
X17599999Y-12598571D01*
X18528571Y-11598571D02*
X19099999Y-11598571D01*
X18742857Y-11098571D02*
X18742857Y-12384285D01*
X18814285Y-12527142D01*
X18957142Y-12598571D01*
X19099999Y-12598571D01*
X20242857Y-12598571D02*
X20242857Y-11812857D01*
X20171428Y-11670000D01*
X20028571Y-11598571D01*
X19742857Y-11598571D01*
X19599999Y-11670000D01*
X20242857Y-12527142D02*
X20099999Y-12598571D01*
X19742857Y-12598571D01*
X19599999Y-12527142D01*
X19528571Y-12384285D01*
X19528571Y-12241428D01*
X19599999Y-12098571D01*
X19742857Y-12027142D01*
X20099999Y-12027142D01*
X20242857Y-11955714D01*
X22814285Y-12598571D02*
X22099999Y-12598571D01*
X22099999Y-11098571D01*
X23957142Y-12598571D02*
X23957142Y-11812857D01*
X23885714Y-11670000D01*
X23742857Y-11598571D01*
X23457142Y-11598571D01*
X23314285Y-11670000D01*
X23957142Y-12527142D02*
X23814285Y-12598571D01*
X23457142Y-12598571D01*
X23314285Y-12527142D01*
X23242857Y-12384285D01*
X23242857Y-12241428D01*
X23314285Y-12098571D01*
X23457142Y-12027142D01*
X23814285Y-12027142D01*
X23957142Y-11955714D01*
X24671428Y-12598571D02*
X24671428Y-11098571D01*
X24671428Y-11670000D02*
X24814285Y-11598571D01*
X25099999Y-11598571D01*
X25242857Y-11670000D01*
X25314285Y-11741428D01*
X25385714Y-11884285D01*
X25385714Y-12312857D01*
X25314285Y-12455714D01*
X25242857Y-12527142D01*
X25099999Y-12598571D01*
X24814285Y-12598571D01*
X24671428Y-12527142D01*
X25957142Y-12527142D02*
X26099999Y-12598571D01*
X26385714Y-12598571D01*
X26528571Y-12527142D01*
X26599999Y-12384285D01*
X26599999Y-12312857D01*
X26528571Y-12170000D01*
X26385714Y-12098571D01*
X26171428Y-12098571D01*
X26028571Y-12027142D01*
X25957142Y-11884285D01*
X25957142Y-11812857D01*
X26028571Y-11670000D01*
X26171428Y-11598571D01*
X26385714Y-11598571D01*
X26528571Y-11670000D01*
X28385714Y-12598571D02*
X28385714Y-11098571D01*
X29099999Y-11598571D02*
X29099999Y-12598571D01*
X29099999Y-11741428D02*
X29171428Y-11670000D01*
X29314285Y-11598571D01*
X29528571Y-11598571D01*
X29671428Y-11670000D01*
X29742857Y-11812857D01*
X29742857Y-12598571D01*
X31099999Y-12527142D02*
X30957142Y-12598571D01*
X30671428Y-12598571D01*
X30528571Y-12527142D01*
X30457142Y-12455714D01*
X30385714Y-12312857D01*
X30385714Y-11884285D01*
X30457142Y-11741428D01*
X30528571Y-11670000D01*
X30671428Y-11598571D01*
X30957142Y-11598571D01*
X31099999Y-11670000D01*
X11385714Y-14578571D02*
X11385714Y-13078571D01*
X11885714Y-14150000D01*
X12385714Y-13078571D01*
X12385714Y-14578571D01*
X13599999Y-13792857D02*
X13814285Y-13864285D01*
X13885714Y-13935714D01*
X13957142Y-14078571D01*
X13957142Y-14292857D01*
X13885714Y-14435714D01*
X13814285Y-14507142D01*
X13671428Y-14578571D01*
X13099999Y-14578571D01*
X13099999Y-13078571D01*
X13599999Y-13078571D01*
X13742857Y-13150000D01*
X13814285Y-13221428D01*
X13885714Y-13364285D01*
X13885714Y-13507142D01*
X13814285Y-13650000D01*
X13742857Y-13721428D01*
X13599999Y-13792857D01*
X13099999Y-13792857D01*
X14814285Y-14578571D02*
X14671428Y-14507142D01*
X14599999Y-14364285D01*
X14599999Y-13078571D01*
X16028571Y-14578571D02*
X16028571Y-13792857D01*
X15957142Y-13650000D01*
X15814285Y-13578571D01*
X15528571Y-13578571D01*
X15385714Y-13650000D01*
X16028571Y-14507142D02*
X15885714Y-14578571D01*
X15528571Y-14578571D01*
X15385714Y-14507142D01*
X15314285Y-14364285D01*
X15314285Y-14221428D01*
X15385714Y-14078571D01*
X15528571Y-14007142D01*
X15885714Y-14007142D01*
X16028571Y-13935714D01*
X16742857Y-14578571D02*
X16742857Y-13078571D01*
X16742857Y-13650000D02*
X16885714Y-13578571D01*
X17171428Y-13578571D01*
X17314285Y-13650000D01*
X17385714Y-13721428D01*
X17457142Y-13864285D01*
X17457142Y-14292857D01*
X17385714Y-14435714D01*
X17314285Y-14507142D01*
X17171428Y-14578571D01*
X16885714Y-14578571D01*
X16742857Y-14507142D01*
X18885714Y-14578571D02*
X18028571Y-14578571D01*
X18457142Y-14578571D02*
X18457142Y-13078571D01*
X18314285Y-13292857D01*
X18171428Y-13435714D01*
X18028571Y-13507142D01*
X19814285Y-13078571D02*
X19957142Y-13078571D01*
X20100000Y-13150000D01*
X20171428Y-13221428D01*
X20242857Y-13364285D01*
X20314285Y-13650000D01*
X20314285Y-14007142D01*
X20242857Y-14292857D01*
X20171428Y-14435714D01*
X20100000Y-14507142D01*
X19957142Y-14578571D01*
X19814285Y-14578571D01*
X19671428Y-14507142D01*
X19600000Y-14435714D01*
X19528571Y-14292857D01*
X19457142Y-14007142D01*
X19457142Y-13650000D01*
X19528571Y-13364285D01*
X19600000Y-13221428D01*
X19671428Y-13150000D01*
X19814285Y-13078571D01*
X21242857Y-13078571D02*
X21385714Y-13078571D01*
X21528571Y-13150000D01*
X21600000Y-13221428D01*
X21671428Y-13364285D01*
X21742857Y-13650000D01*
X21742857Y-14007142D01*
X21671428Y-14292857D01*
X21600000Y-14435714D01*
X21528571Y-14507142D01*
X21385714Y-14578571D01*
X21242857Y-14578571D01*
X21100000Y-14507142D01*
X21028571Y-14435714D01*
X20957142Y-14292857D01*
X20885714Y-14007142D01*
X20885714Y-13650000D01*
X20957142Y-13364285D01*
X21028571Y-13221428D01*
X21100000Y-13150000D01*
X21242857Y-13078571D01*
X24457142Y-13078571D02*
X24957142Y-14578571D01*
X25457142Y-13078571D01*
X26742857Y-14578571D02*
X25885714Y-14578571D01*
X26314285Y-14578571D02*
X26314285Y-13078571D01*
X26171428Y-13292857D01*
X26028571Y-13435714D01*
X25885714Y-13507142D01*
X27385714Y-14435714D02*
X27457142Y-14507142D01*
X27385714Y-14578571D01*
X27314285Y-14507142D01*
X27385714Y-14435714D01*
X27385714Y-14578571D01*
X28814285Y-13078571D02*
X28100000Y-13078571D01*
X28028571Y-13792857D01*
X28100000Y-13721428D01*
X28242857Y-13650000D01*
X28600000Y-13650000D01*
X28742857Y-13721428D01*
X28814285Y-13792857D01*
X28885714Y-13935714D01*
X28885714Y-14292857D01*
X28814285Y-14435714D01*
X28742857Y-14507142D01*
X28600000Y-14578571D01*
X28242857Y-14578571D01*
X28100000Y-14507142D01*
X28028571Y-14435714D01*
D11*
G04 #@! TO.C,RV1*
X37055000Y-16499000D02*
X38665000Y-18111000D01*
X37196000Y-16359000D02*
X38806000Y-17970000D01*
X34310000Y-15905000D02*
X39261000Y-15905000D01*
X34310000Y-25555000D02*
X39261000Y-25555000D01*
X39261000Y-25555000D02*
X39261000Y-15905000D01*
X34310000Y-25555000D02*
X34310000Y-15905000D01*
X39084052Y-17214879D02*
G75*
G02X37690000Y-18364000I-1154052J-20121D01*
G01*
X36775704Y-17275309D02*
G75*
G02X39085000Y-17235000I1154296J40309D01*
G01*
G04 #@! TO.C,RV2*
X8720004Y-8021067D02*
G75*
G02X7530445Y-6041311I-612058J979496D01*
G01*
X7513495Y-6052194D02*
G75*
G02X9205688Y-6684917I594451J-989377D01*
G01*
X17123277Y-6016583D02*
X8766132Y-10841583D01*
X14647777Y-1728891D02*
X6290632Y-6553891D01*
X17123277Y-6016583D02*
X14647777Y-1728891D01*
X8766132Y-10841583D02*
X6290632Y-6553891D01*
X7716307Y-8115234D02*
X8306475Y-5915433D01*
X7908051Y-8167343D02*
X8499084Y-5967042D01*
G04 #@! TO.C,D13*
X17540000Y-19185000D02*
X17540000Y-22275000D01*
X22600000Y-20730000D02*
G75*
G03X22600000Y-20730000I-2500000J0D01*
G01*
X23090000Y-20729538D02*
G75*
G02X17540000Y-22274830I-2990000J-462D01*
G01*
X23090000Y-20730462D02*
G75*
G03X17540000Y-19185170I-2990000J462D01*
G01*
G04 #@! TO.C,D14*
X17540000Y-16391000D02*
X17540000Y-19481000D01*
X22600000Y-17936000D02*
G75*
G03X22600000Y-17936000I-2500000J0D01*
G01*
X23090000Y-17935538D02*
G75*
G02X17540000Y-19480830I-2990000J-462D01*
G01*
X23090000Y-17936462D02*
G75*
G03X17540000Y-16391170I-2990000J462D01*
G01*
G04 #@! TO.C,J11*
X8696814Y-30316814D02*
X7545000Y-30981814D01*
X8031814Y-29165000D02*
X8696814Y-30316814D01*
X7396814Y-28065148D02*
X5093186Y-29395148D01*
X5093186Y-29395148D02*
X3793186Y-27143482D01*
X7396814Y-28065148D02*
X6096814Y-25813482D01*
X6096814Y-25813482D02*
X3793186Y-27143482D01*
G04 #@! TO.C,J12*
X34103186Y-25813186D02*
X35255000Y-26478186D01*
X33438186Y-26965000D02*
X34103186Y-25813186D01*
X32803186Y-28064852D02*
X35106814Y-29394852D01*
X35106814Y-29394852D02*
X33806814Y-31646518D01*
X32803186Y-28064852D02*
X31503186Y-30316518D01*
X31503186Y-30316518D02*
X33806814Y-31646518D01*
G04 #@! TO.C,J13*
X22700000Y-6060000D02*
X22700000Y-3400000D01*
X20100000Y-6060000D02*
X22700000Y-6060000D01*
X20100000Y-3400000D02*
X22700000Y-3400000D01*
X20100000Y-6060000D02*
X20100000Y-3400000D01*
X18830000Y-6060000D02*
X17500000Y-6060000D01*
X17500000Y-6060000D02*
X17500000Y-4730000D01*
G04 #@! TD*
M02*
