M48
;DRILL file {KiCad (5.0.0)} date 02/03/19 16:55:46
;FORMAT={-:-/ absolute / inch / decimal}
FMAT,2
INCH,TZ
T1C0.0157
T2C0.0256
T3C0.0315
T4C0.0354
T5C0.0394
T6C0.1457
%
G90
G05
M72
T1
X0.0933Y-1.0185
X0.1063Y-0.5483
X0.1406Y-1.1638
X0.261Y-0.9717
X0.3224Y-1.0827
X0.3339Y-0.565
X0.3346Y-0.974
X0.4058Y-1.3027
X0.4213Y-0.3634
X0.4262Y-0.4648
X0.461Y-0.6909
X0.4917Y-1.0496
X0.5189Y-0.7508
X0.5394Y-0.8988
X0.5394Y-0.9894
X0.5413Y-0.9431
X0.5591Y-0.6929
X0.5673Y-1.3465
X0.6024Y-0.2453
X0.6413Y-0.9431
X0.6413Y-1.1419
X0.6528Y-1.4614
X0.6539Y-0.7185
X0.6571Y-0.4839
X0.663Y-0.8339
X0.6744Y-1.0504
X0.7055Y-0.6382
X0.7315Y-1.2988
X0.7413Y-0.9431
X0.7496Y-0.6104
X0.7622Y-0.572
X0.772Y-0.3862
X0.7768Y-0.3202
X0.785Y-1.3311
X0.7854Y-0.4472
X0.8374Y-1.0425
X0.8441Y-1.3311
X0.9177Y-0.5087
X0.9185Y-0.6315
X0.9295Y-1.5306
X0.9739Y-0.6734
X0.9819Y-1.1748
X0.9874Y-0.8429
X0.9882Y-0.735
X1.0089Y-0.6351
X1.0197Y-0.5972
X1.0252Y-0.7835
X1.1102Y-1.1358
X1.1181Y-0.5783
X1.1634Y-0.7602
X1.21Y-0.5356
X1.2106Y-0.7114
X1.2435Y-0.5094
X1.2689Y-0.7587
X1.3264Y-0.3472
X1.3689Y-0.6327
X1.4079Y-0.7646
X1.4126Y-0.6035
X1.4126Y-1.1472
T2
X0.2059Y-0.5358
X0.2309Y-0.4925
X0.2492Y-0.5608
X0.2559Y-0.4492
X0.2742Y-0.5175
X0.2992Y-0.4742
X0.7413Y-1.413
X0.7413Y-1.463
X0.7913Y-1.413
X0.7913Y-1.463
X0.8413Y-1.413
X0.8413Y-1.463
X1.2835Y-0.4742
X1.3085Y-0.5175
X1.3268Y-0.4492
X1.3335Y-0.5608
X1.3518Y-0.4925
X1.3768Y-0.5358
T3
X1.448Y-0.7161
X1.448Y-0.8161
X1.448Y-0.9161
X0.3744Y-0.2976
X0.461Y-0.2476
X0.5476Y-0.1976
T4
X0.7413Y-0.8161
X0.8413Y-0.8161
X0.7413Y-0.7061
X0.8413Y-0.7061
T5
X1.3118Y-1.1744
X1.3618Y-1.0878
X0.7413Y-0.1862
X0.8413Y-0.1862
X0.2209Y-1.0878
X0.2709Y-1.1744
T6
X1.1063Y-0.2705
X0.1614Y-0.8161
X1.1063Y-1.3618
T0
M30
