G04 #@! TF.GenerationSoftware,KiCad,Pcbnew,(5.0.0)*
G04 #@! TF.CreationDate,2019-02-03T16:55:31-08:00*
G04 #@! TF.ProjectId,mlab100_Conn_PCB_1.5,6D6C61623130305F436F6E6E5F504342,rev?*
G04 #@! TF.SameCoordinates,Original*
G04 #@! TF.FileFunction,Soldermask,Top*
G04 #@! TF.FilePolarity,Negative*
%FSLAX46Y46*%
G04 Gerber Fmt 4.6, Leading zero omitted, Abs format (unit mm)*
G04 Created by KiCad (PCBNEW (5.0.0)) date 02/03/19 16:55:31*
%MOMM*%
%LPD*%
G01*
G04 APERTURE LIST*
%ADD10C,1.400000*%
%ADD11C,1.400000*%
%ADD12C,0.100000*%
%ADD13C,1.840000*%
%ADD14C,2.200000*%
%ADD15R,2.200000X2.200000*%
%ADD16O,1.400000X1.400000*%
%ADD17R,1.400000X1.400000*%
%ADD18C,2.100000*%
%ADD19C,2.100000*%
%ADD20R,2.100000X2.100000*%
%ADD21O,2.100000X2.100000*%
%ADD22C,7.800000*%
G04 APERTURE END LIST*
D10*
G04 #@! TO.C,J10*
X33870148Y-14244705D03*
D11*
X33870148Y-14244705D02*
X33870148Y-14244705D01*
D10*
X34970000Y-13609705D03*
D11*
X34970000Y-13609705D02*
X34970000Y-13609705D01*
D10*
X33235148Y-13144852D03*
D11*
X33235148Y-13144852D02*
X33235148Y-13144852D01*
D10*
X34335000Y-12509852D03*
D11*
X34335000Y-12509852D02*
X34335000Y-12509852D01*
D10*
X32600148Y-12045000D03*
D11*
X32600148Y-12045000D02*
X32600148Y-12045000D01*
D10*
X33700000Y-11410000D03*
D12*
G36*
X33956218Y-10453782D02*
X34656218Y-11666218D01*
X33443782Y-12366218D01*
X32743782Y-11153782D01*
X33956218Y-10453782D01*
X33956218Y-10453782D01*
G37*
G04 #@! TD*
D13*
G04 #@! TO.C,RV1*
X36780000Y-23270000D03*
X36780000Y-20730000D03*
X36780000Y-18190000D03*
G04 #@! TD*
G04 #@! TO.C,RV2*
X9510000Y-7560000D03*
X11709705Y-6290000D03*
X13909409Y-5020000D03*
G04 #@! TD*
D14*
G04 #@! TO.C,D13*
X21370000Y-20730000D03*
D15*
X18830000Y-20730000D03*
G04 #@! TD*
D14*
G04 #@! TO.C,D14*
X21370000Y-17936000D03*
D15*
X18830000Y-17936000D03*
G04 #@! TD*
D16*
G04 #@! TO.C,J8*
X18830000Y-35890000D03*
X18830000Y-37160000D03*
X20100000Y-35890000D03*
X20100000Y-37160000D03*
X21370000Y-35890000D03*
D17*
X21370000Y-37160000D03*
G04 #@! TD*
D10*
G04 #@! TO.C,J9*
X5230000Y-13610000D03*
D12*
G36*
X4273782Y-13866218D02*
X4973782Y-12653782D01*
X6186218Y-13353782D01*
X5486218Y-14566218D01*
X4273782Y-13866218D01*
X4273782Y-13866218D01*
G37*
D10*
X6329852Y-14245000D03*
D11*
X6329852Y-14245000D02*
X6329852Y-14245000D01*
D10*
X5865000Y-12510148D03*
D11*
X5865000Y-12510148D02*
X5865000Y-12510148D01*
D10*
X6964852Y-13145148D03*
D11*
X6964852Y-13145148D02*
X6964852Y-13145148D01*
D10*
X6500000Y-11410295D03*
D11*
X6500000Y-11410295D02*
X6500000Y-11410295D01*
D10*
X7599852Y-12045295D03*
D11*
X7599852Y-12045295D02*
X7599852Y-12045295D01*
G04 #@! TD*
D18*
G04 #@! TO.C,J11*
X5610000Y-27630295D03*
D19*
X5610000Y-27630295D02*
X5610000Y-27630295D01*
D18*
X6880000Y-29830000D03*
D12*
G36*
X7264327Y-28395673D02*
X8314327Y-30214327D01*
X6495673Y-31264327D01*
X5445673Y-29445673D01*
X7264327Y-28395673D01*
X7264327Y-28395673D01*
G37*
G04 #@! TD*
D18*
G04 #@! TO.C,J12*
X33320000Y-29829705D03*
D19*
X33320000Y-29829705D02*
X33320000Y-29829705D01*
D18*
X34590000Y-27630000D03*
D12*
G36*
X33155673Y-28014327D02*
X34205673Y-26195673D01*
X36024327Y-27245673D01*
X34974327Y-29064327D01*
X33155673Y-28014327D01*
X33155673Y-28014327D01*
G37*
G04 #@! TD*
D20*
G04 #@! TO.C,J13*
X18830000Y-4730000D03*
D21*
X21370000Y-4730000D03*
G04 #@! TD*
D22*
G04 #@! TO.C,MH8*
X28100000Y-34590000D03*
G04 #@! TD*
G04 #@! TO.C,MH9*
X4100000Y-20730000D03*
G04 #@! TD*
G04 #@! TO.C,MH10*
X28100000Y-6870000D03*
G04 #@! TD*
M02*
