G04 #@! TF.GenerationSoftware,KiCad,Pcbnew,(5.0.0)*
G04 #@! TF.CreationDate,2019-02-03T16:55:31-08:00*
G04 #@! TF.ProjectId,mlab100_Conn_PCB_1.5,6D6C61623130305F436F6E6E5F504342,rev?*
G04 #@! TF.SameCoordinates,Original*
G04 #@! TF.FileFunction,Copper,L1,Top,Signal*
G04 #@! TF.FilePolarity,Positive*
%FSLAX46Y46*%
G04 Gerber Fmt 4.6, Leading zero omitted, Abs format (unit mm)*
G04 Created by KiCad (PCBNEW (5.0.0)) date 02/03/19 16:55:31*
%MOMM*%
%LPD*%
G01*
G04 APERTURE LIST*
G04 #@! TA.AperFunction,ComponentPad*
%ADD10C,1.000000*%
G04 #@! TD*
G04 #@! TA.AperFunction,Conductor*
%ADD11C,1.000000*%
G04 #@! TD*
G04 #@! TA.AperFunction,Conductor*
%ADD12C,0.100000*%
G04 #@! TD*
G04 #@! TA.AperFunction,ComponentPad*
%ADD13C,1.440000*%
G04 #@! TD*
G04 #@! TA.AperFunction,ComponentPad*
%ADD14C,1.800000*%
G04 #@! TD*
G04 #@! TA.AperFunction,ComponentPad*
%ADD15R,1.800000X1.800000*%
G04 #@! TD*
G04 #@! TA.AperFunction,ComponentPad*
%ADD16O,1.000000X1.000000*%
G04 #@! TD*
G04 #@! TA.AperFunction,ComponentPad*
%ADD17R,1.000000X1.000000*%
G04 #@! TD*
G04 #@! TA.AperFunction,ComponentPad*
%ADD18C,1.700000*%
G04 #@! TD*
G04 #@! TA.AperFunction,Conductor*
%ADD19C,1.700000*%
G04 #@! TD*
G04 #@! TA.AperFunction,ComponentPad*
%ADD20R,1.700000X1.700000*%
G04 #@! TD*
G04 #@! TA.AperFunction,ComponentPad*
%ADD21O,1.700000X1.700000*%
G04 #@! TD*
G04 #@! TA.AperFunction,ComponentPad*
%ADD22C,7.400000*%
G04 #@! TD*
G04 #@! TA.AperFunction,ViaPad*
%ADD23C,0.800000*%
G04 #@! TD*
G04 #@! TA.AperFunction,Conductor*
%ADD24C,0.350000*%
G04 #@! TD*
G04 #@! TA.AperFunction,Conductor*
%ADD25C,2.000000*%
G04 #@! TD*
G04 #@! TA.AperFunction,Conductor*
%ADD26C,0.750000*%
G04 #@! TD*
G04 #@! TA.AperFunction,Conductor*
%ADD27C,0.900000*%
G04 #@! TD*
G04 #@! TA.AperFunction,Conductor*
%ADD28C,0.500000*%
G04 #@! TD*
G04 #@! TA.AperFunction,Conductor*
%ADD29C,0.200000*%
G04 #@! TD*
G04 #@! TA.AperFunction,Conductor*
%ADD30C,0.150000*%
G04 #@! TD*
G04 APERTURE END LIST*
D10*
G04 #@! TO.P,J10,6*
G04 #@! TO.N,GND_O*
X33870148Y-14244705D03*
D11*
G04 #@! TD*
G04 #@! TO.N,GND_O*
G04 #@! TO.C,J10*
X33870148Y-14244705D02*
X33870148Y-14244705D01*
D10*
G04 #@! TO.P,J10,5*
G04 #@! TO.N,GND_O*
X34970000Y-13609705D03*
D11*
G04 #@! TD*
G04 #@! TO.N,GND_O*
G04 #@! TO.C,J10*
X34970000Y-13609705D02*
X34970000Y-13609705D01*
D10*
G04 #@! TO.P,J10,4*
G04 #@! TO.N,Temp1wDaisy*
X33235148Y-13144852D03*
D11*
G04 #@! TD*
G04 #@! TO.N,Temp1wDaisy*
G04 #@! TO.C,J10*
X33235148Y-13144852D02*
X33235148Y-13144852D01*
D10*
G04 #@! TO.P,J10,3*
G04 #@! TO.N,LED470nm*
X34335000Y-12509852D03*
D11*
G04 #@! TD*
G04 #@! TO.N,LED470nm*
G04 #@! TO.C,J10*
X34335000Y-12509852D02*
X34335000Y-12509852D01*
D10*
G04 #@! TO.P,J10,2*
G04 #@! TO.N,3V3_O*
X32600148Y-12045000D03*
D11*
G04 #@! TD*
G04 #@! TO.N,3V3_O*
G04 #@! TO.C,J10*
X32600148Y-12045000D02*
X32600148Y-12045000D01*
D10*
G04 #@! TO.P,J10,1*
G04 #@! TO.N,12V_O*
X33700000Y-11410000D03*
D12*
G04 #@! TD*
G04 #@! TO.N,12V_O*
G04 #@! TO.C,J10*
G36*
X33883013Y-10726987D02*
X34383013Y-11593013D01*
X33516987Y-12093013D01*
X33016987Y-11226987D01*
X33883013Y-10726987D01*
X33883013Y-10726987D01*
G37*
D13*
G04 #@! TO.P,RV1,3*
G04 #@! TO.N,Net-(R10-Pad1)*
X36780000Y-23270000D03*
G04 #@! TO.P,RV1,2*
X36780000Y-20730000D03*
G04 #@! TO.P,RV1,1*
G04 #@! TO.N,/AnalogConnPCB/sheet5C67EBE6/Aout*
X36780000Y-18190000D03*
G04 #@! TD*
G04 #@! TO.P,RV2,1*
G04 #@! TO.N,/AnalogConnPCB/sheet5C67EBE6/Bout*
X9510000Y-7560000D03*
G04 #@! TO.P,RV2,2*
G04 #@! TO.N,Net-(R11-Pad1)*
X11709705Y-6290000D03*
G04 #@! TO.P,RV2,3*
X13909409Y-5020000D03*
G04 #@! TD*
D14*
G04 #@! TO.P,D13,2*
G04 #@! TO.N,GNDA*
X21370000Y-20730000D03*
D15*
G04 #@! TO.P,D13,1*
G04 #@! TO.N,/AnalogConnPCB/sheet5C67EBE6/A+*
X18830000Y-20730000D03*
G04 #@! TD*
D14*
G04 #@! TO.P,D14,2*
G04 #@! TO.N,GNDA*
X21370000Y-17936000D03*
D15*
G04 #@! TO.P,D14,1*
G04 #@! TO.N,/AnalogConnPCB/sheet5C67EBE6/B+*
X18830000Y-17936000D03*
G04 #@! TD*
D16*
G04 #@! TO.P,J8,6*
G04 #@! TO.N,GND_O*
X18830000Y-35890000D03*
G04 #@! TO.P,J8,5*
X18830000Y-37160000D03*
G04 #@! TO.P,J8,4*
G04 #@! TO.N,Temp1wDaisy*
X20100000Y-35890000D03*
G04 #@! TO.P,J8,3*
G04 #@! TO.N,LED470nm*
X20100000Y-37160000D03*
G04 #@! TO.P,J8,2*
G04 #@! TO.N,3V3_O*
X21370000Y-35890000D03*
D17*
G04 #@! TO.P,J8,1*
G04 #@! TO.N,12V_O*
X21370000Y-37160000D03*
G04 #@! TD*
D10*
G04 #@! TO.P,J9,1*
G04 #@! TO.N,12V_O*
X5230000Y-13610000D03*
D12*
G04 #@! TD*
G04 #@! TO.N,12V_O*
G04 #@! TO.C,J9*
G36*
X4546987Y-13793013D02*
X5046987Y-12926987D01*
X5913013Y-13426987D01*
X5413013Y-14293013D01*
X4546987Y-13793013D01*
X4546987Y-13793013D01*
G37*
D10*
G04 #@! TO.P,J9,2*
G04 #@! TO.N,3V3_O*
X6329852Y-14245000D03*
D11*
G04 #@! TD*
G04 #@! TO.N,3V3_O*
G04 #@! TO.C,J9*
X6329852Y-14245000D02*
X6329852Y-14245000D01*
D10*
G04 #@! TO.P,J9,3*
G04 #@! TO.N,LED470nm*
X5865000Y-12510148D03*
D11*
G04 #@! TD*
G04 #@! TO.N,LED470nm*
G04 #@! TO.C,J9*
X5865000Y-12510148D02*
X5865000Y-12510148D01*
D10*
G04 #@! TO.P,J9,4*
G04 #@! TO.N,Temp1wDaisy*
X6964852Y-13145148D03*
D11*
G04 #@! TD*
G04 #@! TO.N,Temp1wDaisy*
G04 #@! TO.C,J9*
X6964852Y-13145148D02*
X6964852Y-13145148D01*
D10*
G04 #@! TO.P,J9,5*
G04 #@! TO.N,GND_O*
X6500000Y-11410295D03*
D11*
G04 #@! TD*
G04 #@! TO.N,GND_O*
G04 #@! TO.C,J9*
X6500000Y-11410295D02*
X6500000Y-11410295D01*
D10*
G04 #@! TO.P,J9,6*
G04 #@! TO.N,GND_O*
X7599852Y-12045295D03*
D11*
G04 #@! TD*
G04 #@! TO.N,GND_O*
G04 #@! TO.C,J9*
X7599852Y-12045295D02*
X7599852Y-12045295D01*
D18*
G04 #@! TO.P,J11,2*
G04 #@! TO.N,12V_O*
X5610000Y-27630295D03*
D19*
G04 #@! TD*
G04 #@! TO.N,12V_O*
G04 #@! TO.C,J11*
X5610000Y-27630295D02*
X5610000Y-27630295D01*
D18*
G04 #@! TO.P,J11,1*
G04 #@! TO.N,Heater-*
X6880000Y-29830000D03*
D12*
G04 #@! TD*
G04 #@! TO.N,Heater-*
G04 #@! TO.C,J11*
G36*
X7191122Y-28668878D02*
X8041122Y-30141122D01*
X6568878Y-30991122D01*
X5718878Y-29518878D01*
X7191122Y-28668878D01*
X7191122Y-28668878D01*
G37*
D18*
G04 #@! TO.P,J12,2*
G04 #@! TO.N,12V_O*
X33320000Y-29829705D03*
D19*
G04 #@! TD*
G04 #@! TO.N,12V_O*
G04 #@! TO.C,J12*
X33320000Y-29829705D02*
X33320000Y-29829705D01*
D18*
G04 #@! TO.P,J12,1*
G04 #@! TO.N,Heater-*
X34590000Y-27630000D03*
D12*
G04 #@! TD*
G04 #@! TO.N,Heater-*
G04 #@! TO.C,J12*
G36*
X33428878Y-27941122D02*
X34278878Y-26468878D01*
X35751122Y-27318878D01*
X34901122Y-28791122D01*
X33428878Y-27941122D01*
X33428878Y-27941122D01*
G37*
D20*
G04 #@! TO.P,J13,1*
G04 #@! TO.N,Heater-*
X18830000Y-4730000D03*
D21*
G04 #@! TO.P,J13,2*
G04 #@! TO.N,12V_O*
X21370000Y-4730000D03*
G04 #@! TD*
D22*
G04 #@! TO.P,MH8,1*
G04 #@! TO.N,N/C*
X28100000Y-34590000D03*
G04 #@! TD*
G04 #@! TO.P,MH9,1*
G04 #@! TO.N,N/C*
X4100000Y-20730000D03*
G04 #@! TD*
G04 #@! TO.P,MH10,1*
G04 #@! TO.N,N/C*
X28100000Y-6870000D03*
G04 #@! TD*
D23*
G04 #@! TO.N,GNDA*
X15300000Y-6230000D03*
X10700000Y-9230000D03*
X17920000Y-16210000D03*
X26040000Y-19900000D03*
X16610000Y-18250000D03*
X16840000Y-21180000D03*
X19950000Y-11360000D03*
X16690000Y-12290000D03*
X25100000Y-18670000D03*
X19610000Y-9810000D03*
X19730815Y-8132912D03*
X23310000Y-12920000D03*
X25626073Y-16131762D03*
G04 #@! TO.N,+3.3VA*
X19360000Y-14530000D03*
X25900000Y-15170000D03*
G04 #@! TO.N,12V_O*
X13700000Y-25130000D03*
X13700000Y-22830000D03*
X13750000Y-23955000D03*
X8500001Y-24740294D03*
X33690000Y-8820000D03*
X2699999Y-13925955D03*
X23610000Y-38877072D03*
G04 #@! TO.N,GND_O*
X14410000Y-34200000D03*
X12490000Y-26660000D03*
X21270000Y-26480000D03*
X25080000Y-21410000D03*
X14200000Y-17600000D03*
X8480000Y-14350000D03*
X30750000Y-18070000D03*
X32230000Y-19270000D03*
X29550000Y-19310000D03*
X28400000Y-14690000D03*
X17130000Y-26680000D03*
X18580000Y-32990000D03*
X8190000Y-27500000D03*
X6630000Y-24680000D03*
X3570000Y-29560000D03*
X2370000Y-25870000D03*
X13180000Y-19070000D03*
X11710000Y-17550000D03*
X35880000Y-29140000D03*
X35760000Y-19420000D03*
X34770000Y-16070000D03*
X35880000Y-15330000D03*
X28200000Y-28850000D03*
X24940000Y-29840000D03*
X10307544Y-33089836D03*
G04 #@! TO.N,/AnalogConnPCB/3V3ACtrl*
X18830000Y-23955000D03*
X24738000Y-17104000D03*
G04 #@! TO.N,Temp1wDaisy*
X19940000Y-33810000D03*
X31585137Y-12940000D03*
X16290000Y-29005000D03*
G04 #@! TO.N,3V3_O*
X16290000Y-23955000D03*
X21440000Y-33810000D03*
G04 #@! TO.N,LED470nm*
X10825000Y-11805000D03*
X16580000Y-37120000D03*
X30732995Y-13603334D03*
G04 #@! TO.N,/AnalogConnPCB/SPI_CS_ADC*
X23330000Y-16040000D03*
X19039024Y-15505054D03*
G04 #@! TD*
D24*
G04 #@! TO.N,+3.3VA*
X19925685Y-14530000D02*
X20405685Y-15010000D01*
X19360000Y-14530000D02*
X19925685Y-14530000D01*
X25740000Y-15010000D02*
X25900000Y-15170000D01*
X20405685Y-15010000D02*
X25740000Y-15010000D01*
D11*
G04 #@! TO.N,Heater-*
X34815238Y-10385238D02*
X34456977Y-10026977D01*
X34496977Y-10026977D02*
X34737559Y-10267559D01*
X34456977Y-10026977D02*
X34496977Y-10026977D01*
X34526977Y-10026977D02*
X34679299Y-10179299D01*
X34496977Y-10026977D02*
X34526977Y-10026977D01*
X36950329Y-14405986D02*
X37040000Y-14681965D01*
X34496977Y-10026977D02*
X34496977Y-10350987D01*
X34496977Y-10350987D02*
X35366781Y-11220791D01*
X35366781Y-11220791D02*
X35550336Y-11498865D01*
X35550336Y-11498865D02*
X36315610Y-12920982D01*
X22190011Y-7844013D02*
X19075998Y-4730000D01*
X22190011Y-9169083D02*
X22190011Y-7844013D01*
X19075998Y-4730000D02*
X18830000Y-4730000D01*
X25490940Y-12470012D02*
X22190011Y-9169083D01*
X30437058Y-12470012D02*
X25490940Y-12470012D01*
X32880093Y-10026977D02*
X30437058Y-12470012D01*
X34456977Y-10026977D02*
X32880093Y-10026977D01*
X36315610Y-12920982D02*
X36950329Y-14405986D01*
X37040000Y-15828398D02*
X37040000Y-14681965D01*
X34590000Y-18278398D02*
X37040000Y-15828398D01*
X34590000Y-27630000D02*
X34590000Y-18278398D01*
X6880000Y-32712933D02*
X6880000Y-29830000D01*
X11571333Y-36578929D02*
X10184975Y-35750619D01*
X16095059Y-38276713D02*
X14538333Y-37847084D01*
X22409990Y-38380012D02*
X17869201Y-38380012D01*
X25521996Y-27630000D02*
X22499991Y-30652005D01*
X17869201Y-38380012D02*
X17684130Y-38565083D01*
X34590000Y-27630000D02*
X25521996Y-27630000D01*
X14538333Y-37847084D02*
X13026345Y-37279626D01*
X22499991Y-30652005D02*
X22499991Y-33257061D01*
X9207533Y-35040466D02*
X6880000Y-32712933D01*
X22499991Y-33257061D02*
X22570002Y-33327072D01*
X17684130Y-38565083D02*
X16095059Y-38276713D01*
X22570002Y-33327072D02*
X22570002Y-38220000D01*
X10184975Y-35750619D02*
X9207533Y-35040466D01*
X13026345Y-37279626D02*
X11571333Y-36578929D01*
X22570002Y-38220000D02*
X22409990Y-38380012D01*
G04 #@! TO.N,12V_O*
X19972081Y-2130000D02*
X21370000Y-3527919D01*
X14167139Y-2470487D02*
X15400868Y-2130000D01*
X11002106Y-3823286D02*
X12554247Y-3075815D01*
X9523234Y-4706870D02*
X11002106Y-3823286D01*
X5610000Y-27630295D02*
X8500001Y-24740294D01*
X21370000Y-3527919D02*
X21370000Y-4730000D01*
X15400868Y-2130000D02*
X19972081Y-2130000D01*
X12554247Y-3075815D02*
X14167139Y-2470487D01*
X36848042Y-30081958D02*
X36400000Y-30530000D01*
X36250296Y-30679704D02*
X36848042Y-30081958D01*
X34169999Y-30679704D02*
X36250296Y-30679704D01*
X33320000Y-29829705D02*
X34169999Y-30679704D01*
X8500001Y-24740294D02*
X8500001Y-24130000D01*
D25*
X13700000Y-22830000D02*
X13700000Y-25130000D01*
D11*
X9522852Y-4707148D02*
X8425787Y-5504212D01*
X8425787Y-5504212D02*
X9523234Y-4706870D01*
X38607300Y-15622307D02*
X38990647Y-17301865D01*
X39200000Y-22612624D02*
X38990646Y-24158135D01*
X39200000Y-18847377D02*
X39200000Y-22612624D01*
X38074946Y-27476108D02*
X37397869Y-29060207D01*
X38990646Y-24158135D02*
X38607299Y-25837694D01*
X37397869Y-29060207D02*
X36848042Y-30081958D01*
X38074947Y-13983893D02*
X38607300Y-15622307D01*
X38607299Y-25837694D02*
X38074946Y-27476108D01*
X38990647Y-17301865D02*
X39200000Y-18847377D01*
X35040000Y-8820000D02*
X35504344Y-9284344D01*
X21370000Y-4730000D02*
X23699999Y-7059999D01*
X35504344Y-9284344D02*
X35632469Y-9445008D01*
X35632469Y-9445008D02*
X36581519Y-10882758D01*
X37857709Y-13475641D02*
X37860000Y-13481001D01*
X36581519Y-10882758D02*
X37397870Y-12399793D01*
X23699999Y-7059999D02*
X23699999Y-8982001D01*
X32390000Y-8820000D02*
X35040000Y-8820000D01*
X29939999Y-11270001D02*
X32390000Y-8820000D01*
X25987999Y-11270001D02*
X29939999Y-11270001D01*
X37397870Y-12399793D02*
X37857709Y-13475641D01*
X23699999Y-8982001D02*
X25987999Y-11270001D01*
X33320000Y-29829705D02*
X32959706Y-30189999D01*
X32959706Y-30189999D02*
X26197071Y-30189999D01*
X23610000Y-38877072D02*
X23770011Y-38717061D01*
X23610000Y-38900000D02*
X23610000Y-38877072D01*
X26197071Y-30189999D02*
X26197071Y-30262929D01*
X26197071Y-30262929D02*
X23700000Y-32760000D01*
D26*
X23700000Y-38810000D02*
X23610000Y-38900000D01*
D11*
X2874572Y-12265174D02*
X3618482Y-10882757D01*
X4567531Y-9445008D02*
X4892542Y-9037457D01*
X4892542Y-9037457D02*
X8425787Y-5504212D01*
X3618482Y-10882757D02*
X4567531Y-9445008D01*
X2802132Y-12399791D02*
X2874572Y-12265174D01*
X2699999Y-13925955D02*
X2699999Y-12638741D01*
X2699999Y-12638741D02*
X2802132Y-12399791D01*
D25*
X13750000Y-23955000D02*
X13575000Y-24130000D01*
X13575000Y-24130000D02*
X11075000Y-24130000D01*
X11075000Y-24130000D02*
X8500001Y-24130000D01*
D27*
X23700000Y-32760000D02*
X23720012Y-32780012D01*
X23720012Y-32780012D02*
X23720012Y-38789988D01*
X23720012Y-38789988D02*
X23700000Y-38810000D01*
D11*
X5244055Y-16470011D02*
X2699999Y-13925955D01*
X8500001Y-18617999D02*
X6352013Y-16470011D01*
X8500001Y-24130000D02*
X8500001Y-18617999D01*
X6352013Y-16470011D02*
X5244055Y-16470011D01*
X18792734Y-39869719D02*
X17522885Y-39755431D01*
X23610000Y-38900000D02*
X22880000Y-39630000D01*
X22880000Y-39630000D02*
X19032453Y-39630000D01*
X5460008Y-32990011D02*
X5442940Y-32990011D01*
X12554245Y-38384184D02*
X11002105Y-37636713D01*
X5442940Y-32990011D02*
X4959757Y-32506828D01*
X17522885Y-39755431D02*
X16308889Y-39535125D01*
X4959757Y-32506828D02*
X4739989Y-32231247D01*
X4739989Y-32231247D02*
X4739989Y-28500306D01*
X11002105Y-37636713D02*
X9523233Y-36753128D01*
X4760001Y-28480294D02*
X5610000Y-27630295D01*
X4739989Y-28500306D02*
X4760001Y-28480294D01*
X8425780Y-35955783D02*
X5460008Y-32990011D01*
X16308889Y-39535125D02*
X16308884Y-39535127D01*
X14167137Y-38989512D02*
X12554245Y-38384184D01*
X15827773Y-39447818D02*
X14167137Y-38989512D01*
X16308884Y-39535127D02*
X15827773Y-39447818D01*
X19032453Y-39630000D02*
X18792734Y-39869719D01*
X9523233Y-36753128D02*
X8425780Y-35955783D01*
D28*
G04 #@! TO.N,GND_O*
X25930000Y-28850000D02*
X24940000Y-29840000D01*
X28200000Y-28850000D02*
X25930000Y-28850000D01*
D29*
G04 #@! TO.N,/AnalogConnPCB/3V3ACtrl*
X24738000Y-17204000D02*
X23360000Y-18582000D01*
X24738000Y-17104000D02*
X24738000Y-17204000D01*
X19530000Y-23955000D02*
X18830000Y-23955000D01*
X19921002Y-23955000D02*
X19530000Y-23955000D01*
X23360000Y-20516002D02*
X19921002Y-23955000D01*
X23360000Y-18582000D02*
X23360000Y-20516002D01*
G04 #@! TO.N,Temp1wDaisy*
X16161427Y-34539989D02*
X19210011Y-34539989D01*
X13832873Y-35392669D02*
X14905999Y-35795418D01*
X19210011Y-34539989D02*
X19940000Y-33810000D01*
X12745010Y-34868783D02*
X13832873Y-35392669D01*
X16250030Y-26186255D02*
X15605651Y-26830632D01*
X16250030Y-26179970D02*
X16250030Y-26186255D01*
X7464851Y-13645147D02*
X7464851Y-14659191D01*
X7464851Y-14659191D02*
X13085630Y-20279970D01*
X17020000Y-25410000D02*
X16250030Y-26179970D01*
X13085630Y-20279970D02*
X14756255Y-20279970D01*
X12745010Y-29691273D02*
X12745010Y-34868783D01*
X6964852Y-13145148D02*
X7464851Y-13645147D01*
X14756255Y-20279970D02*
X17020000Y-22543715D01*
X14905999Y-35795418D02*
X16161427Y-34539989D01*
X17020000Y-22543715D02*
X17020000Y-25410000D01*
X14635000Y-28050000D02*
X14386283Y-28050000D01*
X15590000Y-29005000D02*
X14635000Y-28050000D01*
X16290000Y-29005000D02*
X15590000Y-29005000D01*
X14386283Y-28050000D02*
X12745010Y-29691273D01*
X14635000Y-27801283D02*
X14706283Y-27730000D01*
X14635000Y-28050000D02*
X14635000Y-27801283D01*
X15605651Y-26830632D02*
X14706283Y-27730000D01*
X14706283Y-27730000D02*
X14386283Y-28050000D01*
X31585137Y-15135137D02*
X31585137Y-13505685D01*
X31585137Y-13505685D02*
X31585137Y-12940000D01*
X19940000Y-33810000D02*
X19940000Y-31302778D01*
X33230000Y-16780000D02*
X31585137Y-15135137D01*
X33230000Y-25530000D02*
X33230000Y-16780000D01*
X24982778Y-26260000D02*
X32500000Y-26260000D01*
X19940000Y-31302778D02*
X24982778Y-26260000D01*
X32500000Y-26260000D02*
X33230000Y-25530000D01*
D24*
G04 #@! TO.N,3V3_O*
X14559500Y-20754980D02*
X12888876Y-20754980D01*
X15825018Y-22020498D02*
X14559500Y-20754980D01*
X15825018Y-23955000D02*
X15825018Y-22020498D01*
X6829851Y-14744999D02*
X6329852Y-14245000D01*
X6878895Y-14744999D02*
X6829851Y-14744999D01*
X12888876Y-20754980D02*
X6878895Y-14744999D01*
X16290000Y-23955000D02*
X15825018Y-23955000D01*
X15025537Y-36347644D02*
X16358182Y-35014999D01*
X13645994Y-35829894D02*
X15025537Y-36347644D01*
X12388829Y-35224476D02*
X13645994Y-35829894D01*
X12270000Y-35105647D02*
X12388829Y-35224476D01*
X15825018Y-25914982D02*
X15775020Y-25964980D01*
X15825018Y-23955000D02*
X15825018Y-25914982D01*
X16358182Y-35014999D02*
X20494999Y-35014999D01*
X15775020Y-25964980D02*
X15775020Y-25989500D01*
X15775020Y-25989500D02*
X15408896Y-26355623D01*
X20494999Y-35014999D02*
X21370000Y-35890000D01*
X15408896Y-26355623D02*
X12270000Y-29494519D01*
X12270000Y-29494519D02*
X12270000Y-35105647D01*
X21620000Y-33889998D02*
X21620000Y-30294544D01*
X25174544Y-26740000D02*
X32720000Y-26740000D01*
X32720000Y-26740000D02*
X33710000Y-25750000D01*
X33710000Y-25750000D02*
X33710000Y-16560000D01*
X33710000Y-16560000D02*
X32360147Y-15210147D01*
X32360147Y-15210147D02*
X32360147Y-12285001D01*
X32360147Y-12285001D02*
X32600148Y-12045000D01*
X21620000Y-30294544D02*
X25174544Y-26740000D01*
X21440000Y-34069998D02*
X21210000Y-34299998D01*
X21440000Y-33810000D02*
X21440000Y-34069998D01*
X20494999Y-35014999D02*
X21210000Y-34299998D01*
X21210000Y-34299998D02*
X21620000Y-33889998D01*
D28*
G04 #@! TO.N,LED470nm*
X10825000Y-11655000D02*
X8339999Y-9169999D01*
X10825000Y-11805000D02*
X10825000Y-11655000D01*
X6310001Y-9169999D02*
X5066657Y-10413343D01*
X8339999Y-9169999D02*
X6310001Y-9169999D01*
X5066657Y-10413343D02*
X4434833Y-11370517D01*
X5074465Y-12010149D02*
X4434833Y-11370517D01*
X5365001Y-12010149D02*
X5074465Y-12010149D01*
X5865000Y-12510148D02*
X5365001Y-12010149D01*
X15150010Y-24605612D02*
X15200008Y-24555614D01*
X15150010Y-25730613D02*
X15150010Y-24605612D01*
X11629491Y-29251132D02*
X15150010Y-25730613D01*
X13400100Y-36405186D02*
X12021971Y-35741514D01*
X14832200Y-36942661D02*
X13400100Y-36405186D01*
X5637563Y-15520001D02*
X3650010Y-13532448D01*
X11629491Y-29251132D02*
X11629491Y-35349034D01*
X11629491Y-35349034D02*
X12021971Y-35741514D01*
X15200008Y-24555614D02*
X15200008Y-22279385D01*
X15200008Y-22279385D02*
X14300613Y-21379990D01*
X16306672Y-37349589D02*
X14832200Y-36942661D01*
X16580000Y-37120000D02*
X16350411Y-37349589D01*
X16350411Y-37349589D02*
X16306672Y-37349589D01*
X14300613Y-21379990D02*
X12629990Y-21379990D01*
X12629990Y-21379990D02*
X9474492Y-18224492D01*
X9474492Y-18224492D02*
X9450011Y-18224492D01*
X9450011Y-18224492D02*
X6745520Y-15520001D01*
X6745520Y-15520001D02*
X5637563Y-15520001D01*
X3650010Y-13532448D02*
X3650010Y-12833254D01*
X3650010Y-12833254D02*
X3658926Y-12812395D01*
X3658926Y-12812395D02*
X4434833Y-11370517D01*
X8339999Y-9169999D02*
X8339999Y-6998399D01*
X9281945Y-6056453D02*
X10047117Y-5500523D01*
X25263334Y-13603334D02*
X30167310Y-13603334D01*
X21240000Y-8237520D02*
X21240000Y-9580000D01*
X14221011Y-3600000D02*
X16671011Y-6050000D01*
X21240000Y-9580000D02*
X25263334Y-13603334D01*
X13861255Y-3600000D02*
X14221011Y-3600000D01*
X19052480Y-6050000D02*
X21240000Y-8237520D01*
X30167310Y-13603334D02*
X30732995Y-13603334D01*
X8339999Y-6998399D02*
X9281945Y-6056453D01*
X10047117Y-5500523D02*
X11452744Y-4660701D01*
X11452744Y-4660701D02*
X12928001Y-3950255D01*
X12928001Y-3950255D02*
X13861255Y-3600000D01*
X16671011Y-6050000D02*
X19052480Y-6050000D01*
D29*
G04 #@! TO.N,/AnalogConnPCB/SPI_CS_ADC*
X19604709Y-15505054D02*
X19039024Y-15505054D01*
X22795054Y-15505054D02*
X19604709Y-15505054D01*
X23330000Y-16040000D02*
X22795054Y-15505054D01*
G04 #@! TD*
D30*
G04 #@! TO.N,GNDA*
G36*
X12914409Y-4822082D02*
X12914409Y-5217918D01*
X13065889Y-5583622D01*
X13345787Y-5863520D01*
X13711491Y-6015000D01*
X14107327Y-6015000D01*
X14473031Y-5863520D01*
X14752929Y-5583622D01*
X14904409Y-5217918D01*
X14904409Y-5025859D01*
X15758181Y-5879632D01*
X15970568Y-6202798D01*
X15972207Y-6204811D01*
X15973807Y-6207199D01*
X15974094Y-6207624D01*
X16017978Y-6272169D01*
X16028971Y-6284964D01*
X16053889Y-6300308D01*
X16082782Y-6304948D01*
X16169990Y-6301711D01*
X16182789Y-6304240D01*
X16263216Y-6384667D01*
X16292507Y-6428504D01*
X16418752Y-6512858D01*
X16466166Y-6544539D01*
X16671010Y-6585285D01*
X16722716Y-6575000D01*
X18835019Y-6575000D01*
X20715000Y-8454982D01*
X20715001Y-9528289D01*
X20704715Y-9580000D01*
X20745461Y-9784844D01*
X20754577Y-9798487D01*
X20861497Y-9958504D01*
X20905334Y-9987795D01*
X24855541Y-13938004D01*
X24884830Y-13981838D01*
X24928664Y-14011127D01*
X25058489Y-14097873D01*
X25263334Y-14138619D01*
X25315040Y-14128334D01*
X27167476Y-14128334D01*
X27188047Y-21986551D01*
X25455508Y-21985074D01*
X25462357Y-21982237D01*
X25652237Y-21792357D01*
X25755000Y-21544266D01*
X25755000Y-21275734D01*
X25652237Y-21027643D01*
X25462357Y-20837763D01*
X25214266Y-20735000D01*
X24945734Y-20735000D01*
X24697643Y-20837763D01*
X24507763Y-21027643D01*
X24405000Y-21275734D01*
X24405000Y-21544266D01*
X24507763Y-21792357D01*
X24697643Y-21982237D01*
X24702944Y-21984433D01*
X22423842Y-21982490D01*
X23599052Y-20807280D01*
X23630359Y-20786361D01*
X23651328Y-20754980D01*
X23713241Y-20662320D01*
X23713242Y-20662319D01*
X23735000Y-20552933D01*
X23735000Y-20552928D01*
X23742345Y-20516002D01*
X23735000Y-20479076D01*
X23735000Y-18737329D01*
X24693330Y-17779000D01*
X24872266Y-17779000D01*
X25120357Y-17676237D01*
X25310237Y-17486357D01*
X25413000Y-17238266D01*
X25413000Y-16969734D01*
X25310237Y-16721643D01*
X25120357Y-16531763D01*
X24872266Y-16429000D01*
X24603734Y-16429000D01*
X24355643Y-16531763D01*
X24165763Y-16721643D01*
X24063000Y-16969734D01*
X24063000Y-17238266D01*
X24095337Y-17316334D01*
X23120951Y-18290720D01*
X23089641Y-18311641D01*
X23062948Y-18351590D01*
X23011000Y-18429336D01*
X23006758Y-18435684D01*
X22985000Y-18545070D01*
X22985000Y-18545074D01*
X22977655Y-18582000D01*
X22985000Y-18618927D01*
X22985001Y-20360671D01*
X22839850Y-20505822D01*
X22824934Y-20318329D01*
X22689888Y-19992301D01*
X22454368Y-19898776D01*
X21623144Y-20730000D01*
X21637287Y-20744143D01*
X21384143Y-20997287D01*
X21370000Y-20983144D01*
X20538776Y-21814368D01*
X20604921Y-21980939D01*
X16984468Y-21977853D01*
X15724264Y-20717649D01*
X15725684Y-19830000D01*
X17649613Y-19830000D01*
X17649613Y-21630000D01*
X17670956Y-21737299D01*
X17731736Y-21828264D01*
X17822701Y-21889044D01*
X17930000Y-21910387D01*
X19730000Y-21910387D01*
X19837299Y-21889044D01*
X19928264Y-21828264D01*
X19989044Y-21737299D01*
X20010387Y-21630000D01*
X20010387Y-21371795D01*
X20050112Y-21467699D01*
X20285632Y-21561224D01*
X21116856Y-20730000D01*
X20285632Y-19898776D01*
X20050112Y-19992301D01*
X20010387Y-20114917D01*
X20010387Y-19830000D01*
X19989044Y-19722701D01*
X19928264Y-19631736D01*
X19837299Y-19570956D01*
X19730000Y-19549613D01*
X17930000Y-19549613D01*
X17822701Y-19570956D01*
X17731736Y-19631736D01*
X17670956Y-19722701D01*
X17649613Y-19830000D01*
X15725684Y-19830000D01*
X15730154Y-17036000D01*
X17649613Y-17036000D01*
X17649613Y-18836000D01*
X17670956Y-18943299D01*
X17731736Y-19034264D01*
X17822701Y-19095044D01*
X17930000Y-19116387D01*
X19730000Y-19116387D01*
X19837299Y-19095044D01*
X19928264Y-19034264D01*
X19937548Y-19020368D01*
X20538776Y-19020368D01*
X20632301Y-19255888D01*
X20841221Y-19323574D01*
X20632301Y-19410112D01*
X20538776Y-19645632D01*
X21370000Y-20476856D01*
X22201224Y-19645632D01*
X22107699Y-19410112D01*
X21898779Y-19342426D01*
X22107699Y-19255888D01*
X22201224Y-19020368D01*
X21370000Y-18189144D01*
X20538776Y-19020368D01*
X19937548Y-19020368D01*
X19989044Y-18943299D01*
X20010387Y-18836000D01*
X20010387Y-18577795D01*
X20050112Y-18673699D01*
X20285632Y-18767224D01*
X21116856Y-17936000D01*
X21623144Y-17936000D01*
X22454368Y-18767224D01*
X22689888Y-18673699D01*
X22871723Y-18112445D01*
X22824934Y-17524329D01*
X22689888Y-17198301D01*
X22454368Y-17104776D01*
X21623144Y-17936000D01*
X21116856Y-17936000D01*
X20285632Y-17104776D01*
X20050112Y-17198301D01*
X20010387Y-17320917D01*
X20010387Y-17036000D01*
X19989044Y-16928701D01*
X19937549Y-16851632D01*
X20538776Y-16851632D01*
X21370000Y-17682856D01*
X22201224Y-16851632D01*
X22107699Y-16616112D01*
X21546445Y-16434277D01*
X20958329Y-16481066D01*
X20632301Y-16616112D01*
X20538776Y-16851632D01*
X19937549Y-16851632D01*
X19928264Y-16837736D01*
X19837299Y-16776956D01*
X19730000Y-16755613D01*
X17930000Y-16755613D01*
X17822701Y-16776956D01*
X17731736Y-16837736D01*
X17670956Y-16928701D01*
X17649613Y-17036000D01*
X15730154Y-17036000D01*
X15732818Y-15370788D01*
X18364024Y-15370788D01*
X18364024Y-15639320D01*
X18466787Y-15887411D01*
X18656667Y-16077291D01*
X18904758Y-16180054D01*
X19173290Y-16180054D01*
X19421381Y-16077291D01*
X19611261Y-15887411D01*
X19614308Y-15880054D01*
X22639725Y-15880054D01*
X22658047Y-15898377D01*
X22655000Y-15905734D01*
X22655000Y-16174266D01*
X22757763Y-16422357D01*
X22947643Y-16612237D01*
X23195734Y-16715000D01*
X23464266Y-16715000D01*
X23712357Y-16612237D01*
X23902237Y-16422357D01*
X24005000Y-16174266D01*
X24005000Y-15905734D01*
X23902237Y-15657643D01*
X23712357Y-15467763D01*
X23693616Y-15460000D01*
X25289507Y-15460000D01*
X25327763Y-15552357D01*
X25517643Y-15742237D01*
X25765734Y-15845000D01*
X26034266Y-15845000D01*
X26282357Y-15742237D01*
X26472237Y-15552357D01*
X26575000Y-15304266D01*
X26575000Y-15035734D01*
X26472237Y-14787643D01*
X26282357Y-14597763D01*
X26034266Y-14495000D01*
X25765734Y-14495000D01*
X25608811Y-14560000D01*
X20592081Y-14560000D01*
X20275225Y-14243145D01*
X20250117Y-14205568D01*
X20101266Y-14106109D01*
X19970006Y-14080000D01*
X19970005Y-14080000D01*
X19925685Y-14071184D01*
X19881365Y-14080000D01*
X19864594Y-14080000D01*
X19742357Y-13957763D01*
X19494266Y-13855000D01*
X19225734Y-13855000D01*
X18977643Y-13957763D01*
X18787763Y-14147643D01*
X18685000Y-14395734D01*
X18685000Y-14664266D01*
X18775798Y-14883471D01*
X18656667Y-14932817D01*
X18466787Y-15122697D01*
X18364024Y-15370788D01*
X15732818Y-15370788D01*
X15741540Y-9920120D01*
X15735781Y-9891178D01*
X15719481Y-9866875D01*
X15718957Y-9866526D01*
X15716614Y-9863032D01*
X15692256Y-9846814D01*
X15663545Y-9841152D01*
X15588271Y-9841275D01*
X15585357Y-9826633D01*
X15569057Y-9802330D01*
X15568533Y-9801981D01*
X15566190Y-9798487D01*
X15541832Y-9782269D01*
X15513121Y-9776607D01*
X9698600Y-9786139D01*
X9389213Y-9476751D01*
X8864999Y-8577214D01*
X8864999Y-8322141D01*
X8946378Y-8403520D01*
X9312082Y-8555000D01*
X9707918Y-8555000D01*
X10073622Y-8403520D01*
X10353520Y-8123622D01*
X10505000Y-7757918D01*
X10505000Y-7362082D01*
X10353520Y-6996378D01*
X10073622Y-6716480D01*
X9707918Y-6565000D01*
X9515860Y-6565000D01*
X9623963Y-6456897D01*
X10336637Y-5939110D01*
X11123701Y-5468862D01*
X10866185Y-5726378D01*
X10714705Y-6092082D01*
X10714705Y-6487918D01*
X10866185Y-6853622D01*
X11146083Y-7133520D01*
X11511787Y-7285000D01*
X11907623Y-7285000D01*
X12273327Y-7133520D01*
X12553225Y-6853622D01*
X12704705Y-6487918D01*
X12704705Y-6092082D01*
X12553225Y-5726378D01*
X12273327Y-5446480D01*
X11907623Y-5295000D01*
X11511787Y-5295000D01*
X11195246Y-5426116D01*
X11701774Y-5123480D01*
X13060622Y-4469095D01*
X12914409Y-4822082D01*
X12914409Y-4822082D01*
G37*
X12914409Y-4822082D02*
X12914409Y-5217918D01*
X13065889Y-5583622D01*
X13345787Y-5863520D01*
X13711491Y-6015000D01*
X14107327Y-6015000D01*
X14473031Y-5863520D01*
X14752929Y-5583622D01*
X14904409Y-5217918D01*
X14904409Y-5025859D01*
X15758181Y-5879632D01*
X15970568Y-6202798D01*
X15972207Y-6204811D01*
X15973807Y-6207199D01*
X15974094Y-6207624D01*
X16017978Y-6272169D01*
X16028971Y-6284964D01*
X16053889Y-6300308D01*
X16082782Y-6304948D01*
X16169990Y-6301711D01*
X16182789Y-6304240D01*
X16263216Y-6384667D01*
X16292507Y-6428504D01*
X16418752Y-6512858D01*
X16466166Y-6544539D01*
X16671010Y-6585285D01*
X16722716Y-6575000D01*
X18835019Y-6575000D01*
X20715000Y-8454982D01*
X20715001Y-9528289D01*
X20704715Y-9580000D01*
X20745461Y-9784844D01*
X20754577Y-9798487D01*
X20861497Y-9958504D01*
X20905334Y-9987795D01*
X24855541Y-13938004D01*
X24884830Y-13981838D01*
X24928664Y-14011127D01*
X25058489Y-14097873D01*
X25263334Y-14138619D01*
X25315040Y-14128334D01*
X27167476Y-14128334D01*
X27188047Y-21986551D01*
X25455508Y-21985074D01*
X25462357Y-21982237D01*
X25652237Y-21792357D01*
X25755000Y-21544266D01*
X25755000Y-21275734D01*
X25652237Y-21027643D01*
X25462357Y-20837763D01*
X25214266Y-20735000D01*
X24945734Y-20735000D01*
X24697643Y-20837763D01*
X24507763Y-21027643D01*
X24405000Y-21275734D01*
X24405000Y-21544266D01*
X24507763Y-21792357D01*
X24697643Y-21982237D01*
X24702944Y-21984433D01*
X22423842Y-21982490D01*
X23599052Y-20807280D01*
X23630359Y-20786361D01*
X23651328Y-20754980D01*
X23713241Y-20662320D01*
X23713242Y-20662319D01*
X23735000Y-20552933D01*
X23735000Y-20552928D01*
X23742345Y-20516002D01*
X23735000Y-20479076D01*
X23735000Y-18737329D01*
X24693330Y-17779000D01*
X24872266Y-17779000D01*
X25120357Y-17676237D01*
X25310237Y-17486357D01*
X25413000Y-17238266D01*
X25413000Y-16969734D01*
X25310237Y-16721643D01*
X25120357Y-16531763D01*
X24872266Y-16429000D01*
X24603734Y-16429000D01*
X24355643Y-16531763D01*
X24165763Y-16721643D01*
X24063000Y-16969734D01*
X24063000Y-17238266D01*
X24095337Y-17316334D01*
X23120951Y-18290720D01*
X23089641Y-18311641D01*
X23062948Y-18351590D01*
X23011000Y-18429336D01*
X23006758Y-18435684D01*
X22985000Y-18545070D01*
X22985000Y-18545074D01*
X22977655Y-18582000D01*
X22985000Y-18618927D01*
X22985001Y-20360671D01*
X22839850Y-20505822D01*
X22824934Y-20318329D01*
X22689888Y-19992301D01*
X22454368Y-19898776D01*
X21623144Y-20730000D01*
X21637287Y-20744143D01*
X21384143Y-20997287D01*
X21370000Y-20983144D01*
X20538776Y-21814368D01*
X20604921Y-21980939D01*
X16984468Y-21977853D01*
X15724264Y-20717649D01*
X15725684Y-19830000D01*
X17649613Y-19830000D01*
X17649613Y-21630000D01*
X17670956Y-21737299D01*
X17731736Y-21828264D01*
X17822701Y-21889044D01*
X17930000Y-21910387D01*
X19730000Y-21910387D01*
X19837299Y-21889044D01*
X19928264Y-21828264D01*
X19989044Y-21737299D01*
X20010387Y-21630000D01*
X20010387Y-21371795D01*
X20050112Y-21467699D01*
X20285632Y-21561224D01*
X21116856Y-20730000D01*
X20285632Y-19898776D01*
X20050112Y-19992301D01*
X20010387Y-20114917D01*
X20010387Y-19830000D01*
X19989044Y-19722701D01*
X19928264Y-19631736D01*
X19837299Y-19570956D01*
X19730000Y-19549613D01*
X17930000Y-19549613D01*
X17822701Y-19570956D01*
X17731736Y-19631736D01*
X17670956Y-19722701D01*
X17649613Y-19830000D01*
X15725684Y-19830000D01*
X15730154Y-17036000D01*
X17649613Y-17036000D01*
X17649613Y-18836000D01*
X17670956Y-18943299D01*
X17731736Y-19034264D01*
X17822701Y-19095044D01*
X17930000Y-19116387D01*
X19730000Y-19116387D01*
X19837299Y-19095044D01*
X19928264Y-19034264D01*
X19937548Y-19020368D01*
X20538776Y-19020368D01*
X20632301Y-19255888D01*
X20841221Y-19323574D01*
X20632301Y-19410112D01*
X20538776Y-19645632D01*
X21370000Y-20476856D01*
X22201224Y-19645632D01*
X22107699Y-19410112D01*
X21898779Y-19342426D01*
X22107699Y-19255888D01*
X22201224Y-19020368D01*
X21370000Y-18189144D01*
X20538776Y-19020368D01*
X19937548Y-19020368D01*
X19989044Y-18943299D01*
X20010387Y-18836000D01*
X20010387Y-18577795D01*
X20050112Y-18673699D01*
X20285632Y-18767224D01*
X21116856Y-17936000D01*
X21623144Y-17936000D01*
X22454368Y-18767224D01*
X22689888Y-18673699D01*
X22871723Y-18112445D01*
X22824934Y-17524329D01*
X22689888Y-17198301D01*
X22454368Y-17104776D01*
X21623144Y-17936000D01*
X21116856Y-17936000D01*
X20285632Y-17104776D01*
X20050112Y-17198301D01*
X20010387Y-17320917D01*
X20010387Y-17036000D01*
X19989044Y-16928701D01*
X19937549Y-16851632D01*
X20538776Y-16851632D01*
X21370000Y-17682856D01*
X22201224Y-16851632D01*
X22107699Y-16616112D01*
X21546445Y-16434277D01*
X20958329Y-16481066D01*
X20632301Y-16616112D01*
X20538776Y-16851632D01*
X19937549Y-16851632D01*
X19928264Y-16837736D01*
X19837299Y-16776956D01*
X19730000Y-16755613D01*
X17930000Y-16755613D01*
X17822701Y-16776956D01*
X17731736Y-16837736D01*
X17670956Y-16928701D01*
X17649613Y-17036000D01*
X15730154Y-17036000D01*
X15732818Y-15370788D01*
X18364024Y-15370788D01*
X18364024Y-15639320D01*
X18466787Y-15887411D01*
X18656667Y-16077291D01*
X18904758Y-16180054D01*
X19173290Y-16180054D01*
X19421381Y-16077291D01*
X19611261Y-15887411D01*
X19614308Y-15880054D01*
X22639725Y-15880054D01*
X22658047Y-15898377D01*
X22655000Y-15905734D01*
X22655000Y-16174266D01*
X22757763Y-16422357D01*
X22947643Y-16612237D01*
X23195734Y-16715000D01*
X23464266Y-16715000D01*
X23712357Y-16612237D01*
X23902237Y-16422357D01*
X24005000Y-16174266D01*
X24005000Y-15905734D01*
X23902237Y-15657643D01*
X23712357Y-15467763D01*
X23693616Y-15460000D01*
X25289507Y-15460000D01*
X25327763Y-15552357D01*
X25517643Y-15742237D01*
X25765734Y-15845000D01*
X26034266Y-15845000D01*
X26282357Y-15742237D01*
X26472237Y-15552357D01*
X26575000Y-15304266D01*
X26575000Y-15035734D01*
X26472237Y-14787643D01*
X26282357Y-14597763D01*
X26034266Y-14495000D01*
X25765734Y-14495000D01*
X25608811Y-14560000D01*
X20592081Y-14560000D01*
X20275225Y-14243145D01*
X20250117Y-14205568D01*
X20101266Y-14106109D01*
X19970006Y-14080000D01*
X19970005Y-14080000D01*
X19925685Y-14071184D01*
X19881365Y-14080000D01*
X19864594Y-14080000D01*
X19742357Y-13957763D01*
X19494266Y-13855000D01*
X19225734Y-13855000D01*
X18977643Y-13957763D01*
X18787763Y-14147643D01*
X18685000Y-14395734D01*
X18685000Y-14664266D01*
X18775798Y-14883471D01*
X18656667Y-14932817D01*
X18466787Y-15122697D01*
X18364024Y-15370788D01*
X15732818Y-15370788D01*
X15741540Y-9920120D01*
X15735781Y-9891178D01*
X15719481Y-9866875D01*
X15718957Y-9866526D01*
X15716614Y-9863032D01*
X15692256Y-9846814D01*
X15663545Y-9841152D01*
X15588271Y-9841275D01*
X15585357Y-9826633D01*
X15569057Y-9802330D01*
X15568533Y-9801981D01*
X15566190Y-9798487D01*
X15541832Y-9782269D01*
X15513121Y-9776607D01*
X9698600Y-9786139D01*
X9389213Y-9476751D01*
X8864999Y-8577214D01*
X8864999Y-8322141D01*
X8946378Y-8403520D01*
X9312082Y-8555000D01*
X9707918Y-8555000D01*
X10073622Y-8403520D01*
X10353520Y-8123622D01*
X10505000Y-7757918D01*
X10505000Y-7362082D01*
X10353520Y-6996378D01*
X10073622Y-6716480D01*
X9707918Y-6565000D01*
X9515860Y-6565000D01*
X9623963Y-6456897D01*
X10336637Y-5939110D01*
X11123701Y-5468862D01*
X10866185Y-5726378D01*
X10714705Y-6092082D01*
X10714705Y-6487918D01*
X10866185Y-6853622D01*
X11146083Y-7133520D01*
X11511787Y-7285000D01*
X11907623Y-7285000D01*
X12273327Y-7133520D01*
X12553225Y-6853622D01*
X12704705Y-6487918D01*
X12704705Y-6092082D01*
X12553225Y-5726378D01*
X12273327Y-5446480D01*
X11907623Y-5295000D01*
X11511787Y-5295000D01*
X11195246Y-5426116D01*
X11701774Y-5123480D01*
X13060622Y-4469095D01*
X12914409Y-4822082D01*
G04 #@! TO.N,GND_O*
G36*
X17803028Y-35546112D02*
X17907626Y-35711000D01*
X18651000Y-35711000D01*
X18651000Y-35691000D01*
X19009000Y-35691000D01*
X19009000Y-35711000D01*
X19029000Y-35711000D01*
X19029000Y-36069000D01*
X19009000Y-36069000D01*
X19009000Y-36981000D01*
X19029000Y-36981000D01*
X19029000Y-37339000D01*
X19009000Y-37339000D01*
X19009000Y-37359000D01*
X18651000Y-37359000D01*
X18651000Y-37339000D01*
X17907626Y-37339000D01*
X17803028Y-37503888D01*
X17853913Y-37592870D01*
X17792871Y-37605012D01*
X17566811Y-37649978D01*
X17441867Y-37733463D01*
X17001115Y-37653479D01*
X17152237Y-37502357D01*
X17255000Y-37254266D01*
X17255000Y-36985734D01*
X17152237Y-36737643D01*
X16962357Y-36547763D01*
X16714266Y-36445000D01*
X16445734Y-36445000D01*
X16197643Y-36547763D01*
X16019655Y-36725751D01*
X15442978Y-36566599D01*
X15775689Y-36233888D01*
X17803028Y-36233888D01*
X17969503Y-36525000D01*
X17803028Y-36816112D01*
X17907626Y-36981000D01*
X18651000Y-36981000D01*
X18651000Y-36069000D01*
X17907626Y-36069000D01*
X17803028Y-36233888D01*
X15775689Y-36233888D01*
X16544578Y-35464999D01*
X17849413Y-35464999D01*
X17803028Y-35546112D01*
X17803028Y-35546112D01*
G37*
X17803028Y-35546112D02*
X17907626Y-35711000D01*
X18651000Y-35711000D01*
X18651000Y-35691000D01*
X19009000Y-35691000D01*
X19009000Y-35711000D01*
X19029000Y-35711000D01*
X19029000Y-36069000D01*
X19009000Y-36069000D01*
X19009000Y-36981000D01*
X19029000Y-36981000D01*
X19029000Y-37339000D01*
X19009000Y-37339000D01*
X19009000Y-37359000D01*
X18651000Y-37359000D01*
X18651000Y-37339000D01*
X17907626Y-37339000D01*
X17803028Y-37503888D01*
X17853913Y-37592870D01*
X17792871Y-37605012D01*
X17566811Y-37649978D01*
X17441867Y-37733463D01*
X17001115Y-37653479D01*
X17152237Y-37502357D01*
X17255000Y-37254266D01*
X17255000Y-36985734D01*
X17152237Y-36737643D01*
X16962357Y-36547763D01*
X16714266Y-36445000D01*
X16445734Y-36445000D01*
X16197643Y-36547763D01*
X16019655Y-36725751D01*
X15442978Y-36566599D01*
X15775689Y-36233888D01*
X17803028Y-36233888D01*
X17969503Y-36525000D01*
X17803028Y-36816112D01*
X17907626Y-36981000D01*
X18651000Y-36981000D01*
X18651000Y-36069000D01*
X17907626Y-36069000D01*
X17803028Y-36233888D01*
X15775689Y-36233888D01*
X16544578Y-35464999D01*
X17849413Y-35464999D01*
X17803028Y-35546112D01*
G36*
X12498978Y-25627480D02*
X12780778Y-26049223D01*
X13202521Y-26331023D01*
X13700000Y-26429978D01*
X13710215Y-26427946D01*
X11294827Y-28843335D01*
X11250987Y-28872628D01*
X11162540Y-29005000D01*
X11134952Y-29046288D01*
X11094206Y-29251132D01*
X11104491Y-29302838D01*
X11104492Y-35297323D01*
X11094206Y-35349034D01*
X11103695Y-35396737D01*
X10612359Y-35103178D01*
X9712416Y-34449333D01*
X7655000Y-32391918D01*
X7655000Y-30687812D01*
X8181315Y-30383944D01*
X8263568Y-30311811D01*
X8311955Y-30213692D01*
X8319110Y-30104524D01*
X8283944Y-30000929D01*
X7433944Y-28528685D01*
X7361811Y-28446432D01*
X7263692Y-28398045D01*
X7154524Y-28390890D01*
X7050929Y-28426056D01*
X5578685Y-29276056D01*
X5514989Y-29331915D01*
X5514989Y-28821321D01*
X5581015Y-28755295D01*
X5720803Y-28755295D01*
X6048953Y-28690022D01*
X6421080Y-28441375D01*
X6669727Y-28069248D01*
X6757040Y-27630295D01*
X6748574Y-27587736D01*
X8931311Y-25405000D01*
X12454724Y-25405000D01*
X12498978Y-25627480D01*
X12498978Y-25627480D01*
G37*
X12498978Y-25627480D02*
X12780778Y-26049223D01*
X13202521Y-26331023D01*
X13700000Y-26429978D01*
X13710215Y-26427946D01*
X11294827Y-28843335D01*
X11250987Y-28872628D01*
X11162540Y-29005000D01*
X11134952Y-29046288D01*
X11094206Y-29251132D01*
X11104491Y-29302838D01*
X11104492Y-35297323D01*
X11094206Y-35349034D01*
X11103695Y-35396737D01*
X10612359Y-35103178D01*
X9712416Y-34449333D01*
X7655000Y-32391918D01*
X7655000Y-30687812D01*
X8181315Y-30383944D01*
X8263568Y-30311811D01*
X8311955Y-30213692D01*
X8319110Y-30104524D01*
X8283944Y-30000929D01*
X7433944Y-28528685D01*
X7361811Y-28446432D01*
X7263692Y-28398045D01*
X7154524Y-28390890D01*
X7050929Y-28426056D01*
X5578685Y-29276056D01*
X5514989Y-29331915D01*
X5514989Y-28821321D01*
X5581015Y-28755295D01*
X5720803Y-28755295D01*
X6048953Y-28690022D01*
X6421080Y-28441375D01*
X6669727Y-28069248D01*
X6757040Y-27630295D01*
X6748574Y-27587736D01*
X8931311Y-25405000D01*
X12454724Y-25405000D01*
X12498978Y-25627480D01*
G36*
X31210137Y-15098210D02*
X31202792Y-15135137D01*
X31210137Y-15172063D01*
X31210137Y-15172067D01*
X31231895Y-15281453D01*
X31231896Y-15281454D01*
X31231896Y-15281455D01*
X31254415Y-15315157D01*
X31314778Y-15405496D01*
X31346088Y-15426417D01*
X32855001Y-16935331D01*
X32855000Y-25374670D01*
X32344671Y-25885000D01*
X25019704Y-25885000D01*
X24982777Y-25877655D01*
X24945851Y-25885000D01*
X24945847Y-25885000D01*
X24836461Y-25906758D01*
X24836460Y-25906759D01*
X24836459Y-25906759D01*
X24743727Y-25968721D01*
X24743726Y-25968722D01*
X24712419Y-25989641D01*
X24691500Y-26020948D01*
X19700949Y-31011500D01*
X19669642Y-31032419D01*
X19648723Y-31063726D01*
X19648721Y-31063728D01*
X19586759Y-31156460D01*
X19557655Y-31302778D01*
X19565001Y-31339709D01*
X19565000Y-33234716D01*
X19557643Y-33237763D01*
X19367763Y-33427643D01*
X19265000Y-33675734D01*
X19265000Y-33944266D01*
X19268047Y-33951623D01*
X19054682Y-34164989D01*
X16198352Y-34164989D01*
X16161426Y-34157644D01*
X16124500Y-34164989D01*
X16124496Y-34164989D01*
X16015110Y-34186747D01*
X16015109Y-34186748D01*
X16015108Y-34186748D01*
X15922375Y-34248710D01*
X15922372Y-34248713D01*
X15891068Y-34269630D01*
X15870151Y-34300934D01*
X14811628Y-35359460D01*
X13980415Y-35047503D01*
X13120010Y-34633155D01*
X13120010Y-29846602D01*
X14510642Y-28455971D01*
X15298722Y-29244052D01*
X15319641Y-29275359D01*
X15350948Y-29296278D01*
X15350949Y-29296279D01*
X15443681Y-29358241D01*
X15443682Y-29358241D01*
X15443683Y-29358242D01*
X15553069Y-29380000D01*
X15553073Y-29380000D01*
X15590000Y-29387345D01*
X15626926Y-29380000D01*
X15714716Y-29380000D01*
X15717763Y-29387357D01*
X15907643Y-29577237D01*
X16155734Y-29680000D01*
X16424266Y-29680000D01*
X16672357Y-29577237D01*
X16862237Y-29387357D01*
X16965000Y-29139266D01*
X16965000Y-28870734D01*
X16862237Y-28622643D01*
X16672357Y-28432763D01*
X16424266Y-28330000D01*
X16155734Y-28330000D01*
X15907643Y-28432763D01*
X15727868Y-28612538D01*
X15040971Y-27925641D01*
X15896929Y-27069684D01*
X15896931Y-27069682D01*
X16489082Y-26477533D01*
X16520389Y-26456614D01*
X16541308Y-26425307D01*
X16553966Y-26406363D01*
X17259052Y-25701278D01*
X17290359Y-25680359D01*
X17316961Y-25640548D01*
X17373241Y-25556319D01*
X17373241Y-25556318D01*
X17373242Y-25556317D01*
X17395000Y-25446931D01*
X17395000Y-25446927D01*
X17402345Y-25410001D01*
X17395000Y-25373074D01*
X17395000Y-22580641D01*
X17402345Y-22543715D01*
X17395000Y-22506789D01*
X17395000Y-22506784D01*
X17393823Y-22500864D01*
X20833133Y-22512539D01*
X19765673Y-23580000D01*
X19405284Y-23580000D01*
X19402237Y-23572643D01*
X19212357Y-23382763D01*
X18964266Y-23280000D01*
X18695734Y-23280000D01*
X18447643Y-23382763D01*
X18257763Y-23572643D01*
X18155000Y-23820734D01*
X18155000Y-24089266D01*
X18257763Y-24337357D01*
X18447643Y-24527237D01*
X18695734Y-24630000D01*
X18964266Y-24630000D01*
X19212357Y-24527237D01*
X19402237Y-24337357D01*
X19405284Y-24330000D01*
X19884076Y-24330000D01*
X19921002Y-24337345D01*
X19957928Y-24330000D01*
X19957933Y-24330000D01*
X20067319Y-24308242D01*
X20191361Y-24225359D01*
X20212282Y-24194049D01*
X21890204Y-22516128D01*
X27449745Y-22535000D01*
X27470874Y-22532037D01*
X27496852Y-22518565D01*
X27746852Y-22318565D01*
X27769201Y-22288918D01*
X27775000Y-22260234D01*
X27800397Y-14128334D01*
X30303401Y-14128334D01*
X30350638Y-14175571D01*
X30598729Y-14278334D01*
X30867261Y-14278334D01*
X31115352Y-14175571D01*
X31210138Y-14080785D01*
X31210137Y-15098210D01*
X31210137Y-15098210D01*
G37*
X31210137Y-15098210D02*
X31202792Y-15135137D01*
X31210137Y-15172063D01*
X31210137Y-15172067D01*
X31231895Y-15281453D01*
X31231896Y-15281454D01*
X31231896Y-15281455D01*
X31254415Y-15315157D01*
X31314778Y-15405496D01*
X31346088Y-15426417D01*
X32855001Y-16935331D01*
X32855000Y-25374670D01*
X32344671Y-25885000D01*
X25019704Y-25885000D01*
X24982777Y-25877655D01*
X24945851Y-25885000D01*
X24945847Y-25885000D01*
X24836461Y-25906758D01*
X24836460Y-25906759D01*
X24836459Y-25906759D01*
X24743727Y-25968721D01*
X24743726Y-25968722D01*
X24712419Y-25989641D01*
X24691500Y-26020948D01*
X19700949Y-31011500D01*
X19669642Y-31032419D01*
X19648723Y-31063726D01*
X19648721Y-31063728D01*
X19586759Y-31156460D01*
X19557655Y-31302778D01*
X19565001Y-31339709D01*
X19565000Y-33234716D01*
X19557643Y-33237763D01*
X19367763Y-33427643D01*
X19265000Y-33675734D01*
X19265000Y-33944266D01*
X19268047Y-33951623D01*
X19054682Y-34164989D01*
X16198352Y-34164989D01*
X16161426Y-34157644D01*
X16124500Y-34164989D01*
X16124496Y-34164989D01*
X16015110Y-34186747D01*
X16015109Y-34186748D01*
X16015108Y-34186748D01*
X15922375Y-34248710D01*
X15922372Y-34248713D01*
X15891068Y-34269630D01*
X15870151Y-34300934D01*
X14811628Y-35359460D01*
X13980415Y-35047503D01*
X13120010Y-34633155D01*
X13120010Y-29846602D01*
X14510642Y-28455971D01*
X15298722Y-29244052D01*
X15319641Y-29275359D01*
X15350948Y-29296278D01*
X15350949Y-29296279D01*
X15443681Y-29358241D01*
X15443682Y-29358241D01*
X15443683Y-29358242D01*
X15553069Y-29380000D01*
X15553073Y-29380000D01*
X15590000Y-29387345D01*
X15626926Y-29380000D01*
X15714716Y-29380000D01*
X15717763Y-29387357D01*
X15907643Y-29577237D01*
X16155734Y-29680000D01*
X16424266Y-29680000D01*
X16672357Y-29577237D01*
X16862237Y-29387357D01*
X16965000Y-29139266D01*
X16965000Y-28870734D01*
X16862237Y-28622643D01*
X16672357Y-28432763D01*
X16424266Y-28330000D01*
X16155734Y-28330000D01*
X15907643Y-28432763D01*
X15727868Y-28612538D01*
X15040971Y-27925641D01*
X15896929Y-27069684D01*
X15896931Y-27069682D01*
X16489082Y-26477533D01*
X16520389Y-26456614D01*
X16541308Y-26425307D01*
X16553966Y-26406363D01*
X17259052Y-25701278D01*
X17290359Y-25680359D01*
X17316961Y-25640548D01*
X17373241Y-25556319D01*
X17373241Y-25556318D01*
X17373242Y-25556317D01*
X17395000Y-25446931D01*
X17395000Y-25446927D01*
X17402345Y-25410001D01*
X17395000Y-25373074D01*
X17395000Y-22580641D01*
X17402345Y-22543715D01*
X17395000Y-22506789D01*
X17395000Y-22506784D01*
X17393823Y-22500864D01*
X20833133Y-22512539D01*
X19765673Y-23580000D01*
X19405284Y-23580000D01*
X19402237Y-23572643D01*
X19212357Y-23382763D01*
X18964266Y-23280000D01*
X18695734Y-23280000D01*
X18447643Y-23382763D01*
X18257763Y-23572643D01*
X18155000Y-23820734D01*
X18155000Y-24089266D01*
X18257763Y-24337357D01*
X18447643Y-24527237D01*
X18695734Y-24630000D01*
X18964266Y-24630000D01*
X19212357Y-24527237D01*
X19402237Y-24337357D01*
X19405284Y-24330000D01*
X19884076Y-24330000D01*
X19921002Y-24337345D01*
X19957928Y-24330000D01*
X19957933Y-24330000D01*
X20067319Y-24308242D01*
X20191361Y-24225359D01*
X20212282Y-24194049D01*
X21890204Y-22516128D01*
X27449745Y-22535000D01*
X27470874Y-22532037D01*
X27496852Y-22518565D01*
X27746852Y-22318565D01*
X27769201Y-22288918D01*
X27775000Y-22260234D01*
X27800397Y-14128334D01*
X30303401Y-14128334D01*
X30350638Y-14175571D01*
X30598729Y-14278334D01*
X30867261Y-14278334D01*
X31115352Y-14175571D01*
X31210138Y-14080785D01*
X31210137Y-15098210D01*
G36*
X37859475Y-15828688D02*
X38227333Y-17440383D01*
X38425000Y-18899627D01*
X38425001Y-22560365D01*
X38227332Y-24019617D01*
X37859474Y-25631313D01*
X37348631Y-27203524D01*
X36698914Y-28723610D01*
X36219531Y-29614454D01*
X35929281Y-29904704D01*
X34491015Y-29904704D01*
X34458575Y-29872264D01*
X34467040Y-29829705D01*
X34379727Y-29390752D01*
X34131080Y-29018625D01*
X33758953Y-28769978D01*
X33430803Y-28704705D01*
X33209197Y-28704705D01*
X32881047Y-28769978D01*
X32508920Y-29018625D01*
X32260273Y-29390752D01*
X32255450Y-29414999D01*
X26273401Y-29414999D01*
X26197071Y-29399816D01*
X26120741Y-29414999D01*
X25894681Y-29459965D01*
X25638327Y-29631255D01*
X25467037Y-29887609D01*
X25464718Y-29899266D01*
X23274991Y-32088994D01*
X23274991Y-30973020D01*
X25843011Y-28405000D01*
X33671565Y-28405000D01*
X34760929Y-29033944D01*
X34864524Y-29069110D01*
X34973692Y-29061955D01*
X35071811Y-29013568D01*
X35143944Y-28931315D01*
X35993944Y-27459071D01*
X36029110Y-27355476D01*
X36021955Y-27246308D01*
X35973568Y-27148189D01*
X35891315Y-27076056D01*
X35365000Y-26772188D01*
X35365000Y-23072082D01*
X35785000Y-23072082D01*
X35785000Y-23467918D01*
X35936480Y-23833622D01*
X36216378Y-24113520D01*
X36582082Y-24265000D01*
X36977918Y-24265000D01*
X37343622Y-24113520D01*
X37623520Y-23833622D01*
X37775000Y-23467918D01*
X37775000Y-23072082D01*
X37623520Y-22706378D01*
X37343622Y-22426480D01*
X36977918Y-22275000D01*
X36582082Y-22275000D01*
X36216378Y-22426480D01*
X35936480Y-22706378D01*
X35785000Y-23072082D01*
X35365000Y-23072082D01*
X35365000Y-20532082D01*
X35785000Y-20532082D01*
X35785000Y-20927918D01*
X35936480Y-21293622D01*
X36216378Y-21573520D01*
X36582082Y-21725000D01*
X36977918Y-21725000D01*
X37343622Y-21573520D01*
X37623520Y-21293622D01*
X37775000Y-20927918D01*
X37775000Y-20532082D01*
X37623520Y-20166378D01*
X37343622Y-19886480D01*
X36977918Y-19735000D01*
X36582082Y-19735000D01*
X36216378Y-19886480D01*
X35936480Y-20166378D01*
X35785000Y-20532082D01*
X35365000Y-20532082D01*
X35365000Y-18599413D01*
X35785000Y-18179413D01*
X35785000Y-18387918D01*
X35936480Y-18753622D01*
X36216378Y-19033520D01*
X36582082Y-19185000D01*
X36977918Y-19185000D01*
X37343622Y-19033520D01*
X37623520Y-18753622D01*
X37775000Y-18387918D01*
X37775000Y-17992082D01*
X37623520Y-17626378D01*
X37343622Y-17346480D01*
X36977918Y-17195000D01*
X36769414Y-17195000D01*
X37534035Y-16430379D01*
X37598744Y-16387142D01*
X37770034Y-16130788D01*
X37815000Y-15904728D01*
X37815000Y-15904727D01*
X37830183Y-15828399D01*
X37815000Y-15752070D01*
X37815000Y-15691808D01*
X37859475Y-15828688D01*
X37859475Y-15828688D01*
G37*
X37859475Y-15828688D02*
X38227333Y-17440383D01*
X38425000Y-18899627D01*
X38425001Y-22560365D01*
X38227332Y-24019617D01*
X37859474Y-25631313D01*
X37348631Y-27203524D01*
X36698914Y-28723610D01*
X36219531Y-29614454D01*
X35929281Y-29904704D01*
X34491015Y-29904704D01*
X34458575Y-29872264D01*
X34467040Y-29829705D01*
X34379727Y-29390752D01*
X34131080Y-29018625D01*
X33758953Y-28769978D01*
X33430803Y-28704705D01*
X33209197Y-28704705D01*
X32881047Y-28769978D01*
X32508920Y-29018625D01*
X32260273Y-29390752D01*
X32255450Y-29414999D01*
X26273401Y-29414999D01*
X26197071Y-29399816D01*
X26120741Y-29414999D01*
X25894681Y-29459965D01*
X25638327Y-29631255D01*
X25467037Y-29887609D01*
X25464718Y-29899266D01*
X23274991Y-32088994D01*
X23274991Y-30973020D01*
X25843011Y-28405000D01*
X33671565Y-28405000D01*
X34760929Y-29033944D01*
X34864524Y-29069110D01*
X34973692Y-29061955D01*
X35071811Y-29013568D01*
X35143944Y-28931315D01*
X35993944Y-27459071D01*
X36029110Y-27355476D01*
X36021955Y-27246308D01*
X35973568Y-27148189D01*
X35891315Y-27076056D01*
X35365000Y-26772188D01*
X35365000Y-23072082D01*
X35785000Y-23072082D01*
X35785000Y-23467918D01*
X35936480Y-23833622D01*
X36216378Y-24113520D01*
X36582082Y-24265000D01*
X36977918Y-24265000D01*
X37343622Y-24113520D01*
X37623520Y-23833622D01*
X37775000Y-23467918D01*
X37775000Y-23072082D01*
X37623520Y-22706378D01*
X37343622Y-22426480D01*
X36977918Y-22275000D01*
X36582082Y-22275000D01*
X36216378Y-22426480D01*
X35936480Y-22706378D01*
X35785000Y-23072082D01*
X35365000Y-23072082D01*
X35365000Y-20532082D01*
X35785000Y-20532082D01*
X35785000Y-20927918D01*
X35936480Y-21293622D01*
X36216378Y-21573520D01*
X36582082Y-21725000D01*
X36977918Y-21725000D01*
X37343622Y-21573520D01*
X37623520Y-21293622D01*
X37775000Y-20927918D01*
X37775000Y-20532082D01*
X37623520Y-20166378D01*
X37343622Y-19886480D01*
X36977918Y-19735000D01*
X36582082Y-19735000D01*
X36216378Y-19886480D01*
X35936480Y-20166378D01*
X35785000Y-20532082D01*
X35365000Y-20532082D01*
X35365000Y-18599413D01*
X35785000Y-18179413D01*
X35785000Y-18387918D01*
X35936480Y-18753622D01*
X36216378Y-19033520D01*
X36582082Y-19185000D01*
X36977918Y-19185000D01*
X37343622Y-19033520D01*
X37623520Y-18753622D01*
X37775000Y-18387918D01*
X37775000Y-17992082D01*
X37623520Y-17626378D01*
X37343622Y-17346480D01*
X36977918Y-17195000D01*
X36769414Y-17195000D01*
X37534035Y-16430379D01*
X37598744Y-16387142D01*
X37770034Y-16130788D01*
X37815000Y-15904728D01*
X37815000Y-15904727D01*
X37830183Y-15828399D01*
X37815000Y-15752070D01*
X37815000Y-15691808D01*
X37859475Y-15828688D01*
G36*
X7725001Y-23114410D02*
X7580778Y-23210777D01*
X7298978Y-23632520D01*
X7200023Y-24130000D01*
X7298978Y-24627480D01*
X7386225Y-24758054D01*
X5638985Y-26505295D01*
X5499197Y-26505295D01*
X5171047Y-26570568D01*
X4798920Y-26819215D01*
X4550273Y-27191342D01*
X4462960Y-27630295D01*
X4471426Y-27672854D01*
X4245955Y-27898325D01*
X4181246Y-27941562D01*
X4138009Y-28006271D01*
X4138008Y-28006272D01*
X4009955Y-28197917D01*
X3949806Y-28500306D01*
X3964990Y-28576641D01*
X3964989Y-31890042D01*
X3868544Y-31760886D01*
X2952220Y-30274332D01*
X2171670Y-28712207D01*
X1533075Y-27086879D01*
X1041490Y-25411219D01*
X700807Y-23698494D01*
X586089Y-22633844D01*
X730158Y-22981657D01*
X1848343Y-24099842D01*
X3309323Y-24705000D01*
X4890677Y-24705000D01*
X6351657Y-24099842D01*
X7469842Y-22981657D01*
X7725001Y-22365648D01*
X7725001Y-23114410D01*
X7725001Y-23114410D01*
G37*
X7725001Y-23114410D02*
X7580778Y-23210777D01*
X7298978Y-23632520D01*
X7200023Y-24130000D01*
X7298978Y-24627480D01*
X7386225Y-24758054D01*
X5638985Y-26505295D01*
X5499197Y-26505295D01*
X5171047Y-26570568D01*
X4798920Y-26819215D01*
X4550273Y-27191342D01*
X4462960Y-27630295D01*
X4471426Y-27672854D01*
X4245955Y-27898325D01*
X4181246Y-27941562D01*
X4138009Y-28006271D01*
X4138008Y-28006272D01*
X4009955Y-28197917D01*
X3949806Y-28500306D01*
X3964990Y-28576641D01*
X3964989Y-31890042D01*
X3868544Y-31760886D01*
X2952220Y-30274332D01*
X2171670Y-28712207D01*
X1533075Y-27086879D01*
X1041490Y-25411219D01*
X700807Y-23698494D01*
X586089Y-22633844D01*
X730158Y-22981657D01*
X1848343Y-24099842D01*
X3309323Y-24705000D01*
X4890677Y-24705000D01*
X6351657Y-24099842D01*
X7469842Y-22981657D01*
X7725001Y-22365648D01*
X7725001Y-23114410D01*
G36*
X12914409Y-4822082D02*
X12914409Y-5217918D01*
X13065889Y-5583622D01*
X13345787Y-5863520D01*
X13711491Y-6015000D01*
X14107327Y-6015000D01*
X14473031Y-5863520D01*
X14752929Y-5583622D01*
X14904409Y-5217918D01*
X14904409Y-5025859D01*
X15433549Y-5555000D01*
X15165734Y-5555000D01*
X14917643Y-5657763D01*
X14727763Y-5847643D01*
X14625000Y-6095734D01*
X14625000Y-6364266D01*
X14727763Y-6612357D01*
X14917643Y-6802237D01*
X15165734Y-6905000D01*
X15434266Y-6905000D01*
X15682357Y-6802237D01*
X15872237Y-6612357D01*
X15975000Y-6364266D01*
X15975000Y-6208957D01*
X16017978Y-6272169D01*
X16028971Y-6284964D01*
X16053889Y-6300308D01*
X16082782Y-6304948D01*
X16169990Y-6301711D01*
X16182789Y-6304240D01*
X16263216Y-6384667D01*
X16292507Y-6428504D01*
X16418752Y-6512858D01*
X16466166Y-6544539D01*
X16671010Y-6585285D01*
X16722716Y-6575000D01*
X18835019Y-6575000D01*
X19717931Y-7457912D01*
X19596549Y-7457912D01*
X19348458Y-7560675D01*
X19158578Y-7750555D01*
X19055815Y-7998646D01*
X19055815Y-8267178D01*
X19158578Y-8515269D01*
X19348458Y-8705149D01*
X19596549Y-8807912D01*
X19865081Y-8807912D01*
X20113172Y-8705149D01*
X20303052Y-8515269D01*
X20405815Y-8267178D01*
X20405815Y-8145797D01*
X20715000Y-8454982D01*
X20715001Y-9528289D01*
X20704715Y-9580000D01*
X20745461Y-9784844D01*
X20750406Y-9792244D01*
X20861497Y-9958504D01*
X20905334Y-9987795D01*
X23166403Y-12248865D01*
X22927643Y-12347763D01*
X22737763Y-12537643D01*
X22635000Y-12785734D01*
X22635000Y-13054266D01*
X22737763Y-13302357D01*
X22927643Y-13492237D01*
X23175734Y-13595000D01*
X23444266Y-13595000D01*
X23692357Y-13492237D01*
X23882237Y-13302357D01*
X23981135Y-13063597D01*
X24855541Y-13938004D01*
X24884830Y-13981838D01*
X24928664Y-14011127D01*
X25058489Y-14097873D01*
X25263334Y-14138619D01*
X25315040Y-14128334D01*
X27167476Y-14128334D01*
X27188047Y-21986551D01*
X22423842Y-21982490D01*
X23599052Y-20807280D01*
X23630359Y-20786361D01*
X23651328Y-20754980D01*
X23713241Y-20662320D01*
X23713242Y-20662319D01*
X23735000Y-20552933D01*
X23735000Y-20552928D01*
X23742345Y-20516002D01*
X23735000Y-20479076D01*
X23735000Y-19765734D01*
X25365000Y-19765734D01*
X25365000Y-20034266D01*
X25467763Y-20282357D01*
X25657643Y-20472237D01*
X25905734Y-20575000D01*
X26174266Y-20575000D01*
X26422357Y-20472237D01*
X26612237Y-20282357D01*
X26715000Y-20034266D01*
X26715000Y-19765734D01*
X26612237Y-19517643D01*
X26422357Y-19327763D01*
X26174266Y-19225000D01*
X25905734Y-19225000D01*
X25657643Y-19327763D01*
X25467763Y-19517643D01*
X25365000Y-19765734D01*
X23735000Y-19765734D01*
X23735000Y-18737329D01*
X23936595Y-18535734D01*
X24425000Y-18535734D01*
X24425000Y-18804266D01*
X24527763Y-19052357D01*
X24717643Y-19242237D01*
X24965734Y-19345000D01*
X25234266Y-19345000D01*
X25482357Y-19242237D01*
X25672237Y-19052357D01*
X25775000Y-18804266D01*
X25775000Y-18535734D01*
X25672237Y-18287643D01*
X25482357Y-18097763D01*
X25234266Y-17995000D01*
X24965734Y-17995000D01*
X24717643Y-18097763D01*
X24527763Y-18287643D01*
X24425000Y-18535734D01*
X23936595Y-18535734D01*
X24693330Y-17779000D01*
X24872266Y-17779000D01*
X25120357Y-17676237D01*
X25310237Y-17486357D01*
X25413000Y-17238266D01*
X25413000Y-16969734D01*
X25315192Y-16733605D01*
X25491807Y-16806762D01*
X25760339Y-16806762D01*
X26008430Y-16703999D01*
X26198310Y-16514119D01*
X26301073Y-16266028D01*
X26301073Y-15997496D01*
X26208084Y-15773002D01*
X26282357Y-15742237D01*
X26472237Y-15552357D01*
X26575000Y-15304266D01*
X26575000Y-15035734D01*
X26472237Y-14787643D01*
X26282357Y-14597763D01*
X26034266Y-14495000D01*
X25765734Y-14495000D01*
X25608811Y-14560000D01*
X20592081Y-14560000D01*
X20275225Y-14243145D01*
X20250117Y-14205568D01*
X20101266Y-14106109D01*
X19970006Y-14080000D01*
X19970005Y-14080000D01*
X19925685Y-14071184D01*
X19881365Y-14080000D01*
X19864594Y-14080000D01*
X19742357Y-13957763D01*
X19494266Y-13855000D01*
X19225734Y-13855000D01*
X18977643Y-13957763D01*
X18787763Y-14147643D01*
X18685000Y-14395734D01*
X18685000Y-14664266D01*
X18775798Y-14883471D01*
X18656667Y-14932817D01*
X18466787Y-15122697D01*
X18364024Y-15370788D01*
X18364024Y-15639320D01*
X18406528Y-15741934D01*
X18302357Y-15637763D01*
X18054266Y-15535000D01*
X17785734Y-15535000D01*
X17537643Y-15637763D01*
X17347763Y-15827643D01*
X17245000Y-16075734D01*
X17245000Y-16344266D01*
X17347763Y-16592357D01*
X17537643Y-16782237D01*
X17718707Y-16857236D01*
X17670956Y-16928701D01*
X17649613Y-17036000D01*
X17649613Y-18836000D01*
X17670956Y-18943299D01*
X17731736Y-19034264D01*
X17822701Y-19095044D01*
X17930000Y-19116387D01*
X19730000Y-19116387D01*
X19837299Y-19095044D01*
X19928264Y-19034264D01*
X19989044Y-18943299D01*
X20010387Y-18836000D01*
X20010387Y-17702278D01*
X20195000Y-17702278D01*
X20195000Y-18169722D01*
X20373883Y-18601584D01*
X20704416Y-18932117D01*
X21136278Y-19111000D01*
X21603722Y-19111000D01*
X22035584Y-18932117D01*
X22366117Y-18601584D01*
X22545000Y-18169722D01*
X22545000Y-17702278D01*
X22366117Y-17270416D01*
X22035584Y-16939883D01*
X21603722Y-16761000D01*
X21136278Y-16761000D01*
X20704416Y-16939883D01*
X20373883Y-17270416D01*
X20195000Y-17702278D01*
X20010387Y-17702278D01*
X20010387Y-17036000D01*
X19989044Y-16928701D01*
X19928264Y-16837736D01*
X19837299Y-16776956D01*
X19730000Y-16755613D01*
X18328981Y-16755613D01*
X18492237Y-16592357D01*
X18595000Y-16344266D01*
X18595000Y-16075734D01*
X18552496Y-15973120D01*
X18656667Y-16077291D01*
X18904758Y-16180054D01*
X19173290Y-16180054D01*
X19421381Y-16077291D01*
X19611261Y-15887411D01*
X19614308Y-15880054D01*
X22639725Y-15880054D01*
X22658047Y-15898377D01*
X22655000Y-15905734D01*
X22655000Y-16174266D01*
X22757763Y-16422357D01*
X22947643Y-16612237D01*
X23195734Y-16715000D01*
X23464266Y-16715000D01*
X23712357Y-16612237D01*
X23902237Y-16422357D01*
X24005000Y-16174266D01*
X24005000Y-15905734D01*
X23902237Y-15657643D01*
X23712357Y-15467763D01*
X23693616Y-15460000D01*
X25289507Y-15460000D01*
X25317989Y-15528760D01*
X25243716Y-15559525D01*
X25053836Y-15749405D01*
X24951073Y-15997496D01*
X24951073Y-16266028D01*
X25048881Y-16502157D01*
X24872266Y-16429000D01*
X24603734Y-16429000D01*
X24355643Y-16531763D01*
X24165763Y-16721643D01*
X24063000Y-16969734D01*
X24063000Y-17238266D01*
X24095337Y-17316334D01*
X23120951Y-18290720D01*
X23089641Y-18311641D01*
X23068721Y-18342950D01*
X23011000Y-18429336D01*
X23006758Y-18435684D01*
X22985000Y-18545070D01*
X22985000Y-18545074D01*
X22977655Y-18582000D01*
X22985000Y-18618927D01*
X22985001Y-20360671D01*
X22545000Y-20800672D01*
X22545000Y-20496278D01*
X22366117Y-20064416D01*
X22035584Y-19733883D01*
X21603722Y-19555000D01*
X21136278Y-19555000D01*
X20704416Y-19733883D01*
X20373883Y-20064416D01*
X20195000Y-20496278D01*
X20195000Y-20963722D01*
X20373883Y-21395584D01*
X20704416Y-21726117D01*
X21136278Y-21905000D01*
X21440672Y-21905000D01*
X21364086Y-21981586D01*
X16984468Y-21977853D01*
X16861615Y-21855000D01*
X16974266Y-21855000D01*
X17222357Y-21752237D01*
X17412237Y-21562357D01*
X17515000Y-21314266D01*
X17515000Y-21045734D01*
X17412237Y-20797643D01*
X17222357Y-20607763D01*
X16974266Y-20505000D01*
X16705734Y-20505000D01*
X16457643Y-20607763D01*
X16267763Y-20797643D01*
X16165000Y-21045734D01*
X16165000Y-21158385D01*
X15724264Y-20717649D01*
X15725684Y-19830000D01*
X17649613Y-19830000D01*
X17649613Y-21630000D01*
X17670956Y-21737299D01*
X17731736Y-21828264D01*
X17822701Y-21889044D01*
X17930000Y-21910387D01*
X19730000Y-21910387D01*
X19837299Y-21889044D01*
X19928264Y-21828264D01*
X19989044Y-21737299D01*
X20010387Y-21630000D01*
X20010387Y-19830000D01*
X19989044Y-19722701D01*
X19928264Y-19631736D01*
X19837299Y-19570956D01*
X19730000Y-19549613D01*
X17930000Y-19549613D01*
X17822701Y-19570956D01*
X17731736Y-19631736D01*
X17670956Y-19722701D01*
X17649613Y-19830000D01*
X15725684Y-19830000D01*
X15728427Y-18115734D01*
X15935000Y-18115734D01*
X15935000Y-18384266D01*
X16037763Y-18632357D01*
X16227643Y-18822237D01*
X16475734Y-18925000D01*
X16744266Y-18925000D01*
X16992357Y-18822237D01*
X17182237Y-18632357D01*
X17285000Y-18384266D01*
X17285000Y-18115734D01*
X17182237Y-17867643D01*
X16992357Y-17677763D01*
X16744266Y-17575000D01*
X16475734Y-17575000D01*
X16227643Y-17677763D01*
X16037763Y-17867643D01*
X15935000Y-18115734D01*
X15728427Y-18115734D01*
X15737963Y-12155734D01*
X16015000Y-12155734D01*
X16015000Y-12424266D01*
X16117763Y-12672357D01*
X16307643Y-12862237D01*
X16555734Y-12965000D01*
X16824266Y-12965000D01*
X17072357Y-12862237D01*
X17262237Y-12672357D01*
X17365000Y-12424266D01*
X17365000Y-12155734D01*
X17262237Y-11907643D01*
X17072357Y-11717763D01*
X16824266Y-11615000D01*
X16555734Y-11615000D01*
X16307643Y-11717763D01*
X16117763Y-11907643D01*
X16015000Y-12155734D01*
X15737963Y-12155734D01*
X15739451Y-11225734D01*
X19275000Y-11225734D01*
X19275000Y-11494266D01*
X19377763Y-11742357D01*
X19567643Y-11932237D01*
X19815734Y-12035000D01*
X20084266Y-12035000D01*
X20332357Y-11932237D01*
X20522237Y-11742357D01*
X20625000Y-11494266D01*
X20625000Y-11225734D01*
X20522237Y-10977643D01*
X20332357Y-10787763D01*
X20084266Y-10685000D01*
X19815734Y-10685000D01*
X19567643Y-10787763D01*
X19377763Y-10977643D01*
X19275000Y-11225734D01*
X15739451Y-11225734D01*
X15741540Y-9920120D01*
X15735781Y-9891178D01*
X15719481Y-9866875D01*
X15718957Y-9866526D01*
X15716614Y-9863032D01*
X15692256Y-9846814D01*
X15663545Y-9841152D01*
X15588271Y-9841275D01*
X15585357Y-9826633D01*
X15569057Y-9802330D01*
X15568533Y-9801981D01*
X15566190Y-9798487D01*
X15541832Y-9782269D01*
X15513121Y-9776607D01*
X11100754Y-9783840D01*
X11208860Y-9675734D01*
X18935000Y-9675734D01*
X18935000Y-9944266D01*
X19037763Y-10192357D01*
X19227643Y-10382237D01*
X19475734Y-10485000D01*
X19744266Y-10485000D01*
X19992357Y-10382237D01*
X20182237Y-10192357D01*
X20285000Y-9944266D01*
X20285000Y-9675734D01*
X20182237Y-9427643D01*
X19992357Y-9237763D01*
X19744266Y-9135000D01*
X19475734Y-9135000D01*
X19227643Y-9237763D01*
X19037763Y-9427643D01*
X18935000Y-9675734D01*
X11208860Y-9675734D01*
X11272237Y-9612357D01*
X11375000Y-9364266D01*
X11375000Y-9095734D01*
X11272237Y-8847643D01*
X11082357Y-8657763D01*
X10834266Y-8555000D01*
X10565734Y-8555000D01*
X10317643Y-8657763D01*
X10127763Y-8847643D01*
X10025000Y-9095734D01*
X10025000Y-9364266D01*
X10127763Y-9612357D01*
X10300558Y-9785152D01*
X9698600Y-9786139D01*
X9389213Y-9476751D01*
X8864999Y-8577214D01*
X8864999Y-8322141D01*
X8946378Y-8403520D01*
X9312082Y-8555000D01*
X9707918Y-8555000D01*
X10073622Y-8403520D01*
X10353520Y-8123622D01*
X10505000Y-7757918D01*
X10505000Y-7362082D01*
X10353520Y-6996378D01*
X10073622Y-6716480D01*
X9707918Y-6565000D01*
X9515860Y-6565000D01*
X9623963Y-6456897D01*
X10336637Y-5939110D01*
X11123701Y-5468862D01*
X10866185Y-5726378D01*
X10714705Y-6092082D01*
X10714705Y-6487918D01*
X10866185Y-6853622D01*
X11146083Y-7133520D01*
X11511787Y-7285000D01*
X11907623Y-7285000D01*
X12273327Y-7133520D01*
X12553225Y-6853622D01*
X12704705Y-6487918D01*
X12704705Y-6092082D01*
X12553225Y-5726378D01*
X12273327Y-5446480D01*
X11907623Y-5295000D01*
X11511787Y-5295000D01*
X11195246Y-5426116D01*
X11701774Y-5123480D01*
X13060622Y-4469095D01*
X12914409Y-4822082D01*
X12914409Y-4822082D01*
G37*
X12914409Y-4822082D02*
X12914409Y-5217918D01*
X13065889Y-5583622D01*
X13345787Y-5863520D01*
X13711491Y-6015000D01*
X14107327Y-6015000D01*
X14473031Y-5863520D01*
X14752929Y-5583622D01*
X14904409Y-5217918D01*
X14904409Y-5025859D01*
X15433549Y-5555000D01*
X15165734Y-5555000D01*
X14917643Y-5657763D01*
X14727763Y-5847643D01*
X14625000Y-6095734D01*
X14625000Y-6364266D01*
X14727763Y-6612357D01*
X14917643Y-6802237D01*
X15165734Y-6905000D01*
X15434266Y-6905000D01*
X15682357Y-6802237D01*
X15872237Y-6612357D01*
X15975000Y-6364266D01*
X15975000Y-6208957D01*
X16017978Y-6272169D01*
X16028971Y-6284964D01*
X16053889Y-6300308D01*
X16082782Y-6304948D01*
X16169990Y-6301711D01*
X16182789Y-6304240D01*
X16263216Y-6384667D01*
X16292507Y-6428504D01*
X16418752Y-6512858D01*
X16466166Y-6544539D01*
X16671010Y-6585285D01*
X16722716Y-6575000D01*
X18835019Y-6575000D01*
X19717931Y-7457912D01*
X19596549Y-7457912D01*
X19348458Y-7560675D01*
X19158578Y-7750555D01*
X19055815Y-7998646D01*
X19055815Y-8267178D01*
X19158578Y-8515269D01*
X19348458Y-8705149D01*
X19596549Y-8807912D01*
X19865081Y-8807912D01*
X20113172Y-8705149D01*
X20303052Y-8515269D01*
X20405815Y-8267178D01*
X20405815Y-8145797D01*
X20715000Y-8454982D01*
X20715001Y-9528289D01*
X20704715Y-9580000D01*
X20745461Y-9784844D01*
X20750406Y-9792244D01*
X20861497Y-9958504D01*
X20905334Y-9987795D01*
X23166403Y-12248865D01*
X22927643Y-12347763D01*
X22737763Y-12537643D01*
X22635000Y-12785734D01*
X22635000Y-13054266D01*
X22737763Y-13302357D01*
X22927643Y-13492237D01*
X23175734Y-13595000D01*
X23444266Y-13595000D01*
X23692357Y-13492237D01*
X23882237Y-13302357D01*
X23981135Y-13063597D01*
X24855541Y-13938004D01*
X24884830Y-13981838D01*
X24928664Y-14011127D01*
X25058489Y-14097873D01*
X25263334Y-14138619D01*
X25315040Y-14128334D01*
X27167476Y-14128334D01*
X27188047Y-21986551D01*
X22423842Y-21982490D01*
X23599052Y-20807280D01*
X23630359Y-20786361D01*
X23651328Y-20754980D01*
X23713241Y-20662320D01*
X23713242Y-20662319D01*
X23735000Y-20552933D01*
X23735000Y-20552928D01*
X23742345Y-20516002D01*
X23735000Y-20479076D01*
X23735000Y-19765734D01*
X25365000Y-19765734D01*
X25365000Y-20034266D01*
X25467763Y-20282357D01*
X25657643Y-20472237D01*
X25905734Y-20575000D01*
X26174266Y-20575000D01*
X26422357Y-20472237D01*
X26612237Y-20282357D01*
X26715000Y-20034266D01*
X26715000Y-19765734D01*
X26612237Y-19517643D01*
X26422357Y-19327763D01*
X26174266Y-19225000D01*
X25905734Y-19225000D01*
X25657643Y-19327763D01*
X25467763Y-19517643D01*
X25365000Y-19765734D01*
X23735000Y-19765734D01*
X23735000Y-18737329D01*
X23936595Y-18535734D01*
X24425000Y-18535734D01*
X24425000Y-18804266D01*
X24527763Y-19052357D01*
X24717643Y-19242237D01*
X24965734Y-19345000D01*
X25234266Y-19345000D01*
X25482357Y-19242237D01*
X25672237Y-19052357D01*
X25775000Y-18804266D01*
X25775000Y-18535734D01*
X25672237Y-18287643D01*
X25482357Y-18097763D01*
X25234266Y-17995000D01*
X24965734Y-17995000D01*
X24717643Y-18097763D01*
X24527763Y-18287643D01*
X24425000Y-18535734D01*
X23936595Y-18535734D01*
X24693330Y-17779000D01*
X24872266Y-17779000D01*
X25120357Y-17676237D01*
X25310237Y-17486357D01*
X25413000Y-17238266D01*
X25413000Y-16969734D01*
X25315192Y-16733605D01*
X25491807Y-16806762D01*
X25760339Y-16806762D01*
X26008430Y-16703999D01*
X26198310Y-16514119D01*
X26301073Y-16266028D01*
X26301073Y-15997496D01*
X26208084Y-15773002D01*
X26282357Y-15742237D01*
X26472237Y-15552357D01*
X26575000Y-15304266D01*
X26575000Y-15035734D01*
X26472237Y-14787643D01*
X26282357Y-14597763D01*
X26034266Y-14495000D01*
X25765734Y-14495000D01*
X25608811Y-14560000D01*
X20592081Y-14560000D01*
X20275225Y-14243145D01*
X20250117Y-14205568D01*
X20101266Y-14106109D01*
X19970006Y-14080000D01*
X19970005Y-14080000D01*
X19925685Y-14071184D01*
X19881365Y-14080000D01*
X19864594Y-14080000D01*
X19742357Y-13957763D01*
X19494266Y-13855000D01*
X19225734Y-13855000D01*
X18977643Y-13957763D01*
X18787763Y-14147643D01*
X18685000Y-14395734D01*
X18685000Y-14664266D01*
X18775798Y-14883471D01*
X18656667Y-14932817D01*
X18466787Y-15122697D01*
X18364024Y-15370788D01*
X18364024Y-15639320D01*
X18406528Y-15741934D01*
X18302357Y-15637763D01*
X18054266Y-15535000D01*
X17785734Y-15535000D01*
X17537643Y-15637763D01*
X17347763Y-15827643D01*
X17245000Y-16075734D01*
X17245000Y-16344266D01*
X17347763Y-16592357D01*
X17537643Y-16782237D01*
X17718707Y-16857236D01*
X17670956Y-16928701D01*
X17649613Y-17036000D01*
X17649613Y-18836000D01*
X17670956Y-18943299D01*
X17731736Y-19034264D01*
X17822701Y-19095044D01*
X17930000Y-19116387D01*
X19730000Y-19116387D01*
X19837299Y-19095044D01*
X19928264Y-19034264D01*
X19989044Y-18943299D01*
X20010387Y-18836000D01*
X20010387Y-17702278D01*
X20195000Y-17702278D01*
X20195000Y-18169722D01*
X20373883Y-18601584D01*
X20704416Y-18932117D01*
X21136278Y-19111000D01*
X21603722Y-19111000D01*
X22035584Y-18932117D01*
X22366117Y-18601584D01*
X22545000Y-18169722D01*
X22545000Y-17702278D01*
X22366117Y-17270416D01*
X22035584Y-16939883D01*
X21603722Y-16761000D01*
X21136278Y-16761000D01*
X20704416Y-16939883D01*
X20373883Y-17270416D01*
X20195000Y-17702278D01*
X20010387Y-17702278D01*
X20010387Y-17036000D01*
X19989044Y-16928701D01*
X19928264Y-16837736D01*
X19837299Y-16776956D01*
X19730000Y-16755613D01*
X18328981Y-16755613D01*
X18492237Y-16592357D01*
X18595000Y-16344266D01*
X18595000Y-16075734D01*
X18552496Y-15973120D01*
X18656667Y-16077291D01*
X18904758Y-16180054D01*
X19173290Y-16180054D01*
X19421381Y-16077291D01*
X19611261Y-15887411D01*
X19614308Y-15880054D01*
X22639725Y-15880054D01*
X22658047Y-15898377D01*
X22655000Y-15905734D01*
X22655000Y-16174266D01*
X22757763Y-16422357D01*
X22947643Y-16612237D01*
X23195734Y-16715000D01*
X23464266Y-16715000D01*
X23712357Y-16612237D01*
X23902237Y-16422357D01*
X24005000Y-16174266D01*
X24005000Y-15905734D01*
X23902237Y-15657643D01*
X23712357Y-15467763D01*
X23693616Y-15460000D01*
X25289507Y-15460000D01*
X25317989Y-15528760D01*
X25243716Y-15559525D01*
X25053836Y-15749405D01*
X24951073Y-15997496D01*
X24951073Y-16266028D01*
X25048881Y-16502157D01*
X24872266Y-16429000D01*
X24603734Y-16429000D01*
X24355643Y-16531763D01*
X24165763Y-16721643D01*
X24063000Y-16969734D01*
X24063000Y-17238266D01*
X24095337Y-17316334D01*
X23120951Y-18290720D01*
X23089641Y-18311641D01*
X23068721Y-18342950D01*
X23011000Y-18429336D01*
X23006758Y-18435684D01*
X22985000Y-18545070D01*
X22985000Y-18545074D01*
X22977655Y-18582000D01*
X22985000Y-18618927D01*
X22985001Y-20360671D01*
X22545000Y-20800672D01*
X22545000Y-20496278D01*
X22366117Y-20064416D01*
X22035584Y-19733883D01*
X21603722Y-19555000D01*
X21136278Y-19555000D01*
X20704416Y-19733883D01*
X20373883Y-20064416D01*
X20195000Y-20496278D01*
X20195000Y-20963722D01*
X20373883Y-21395584D01*
X20704416Y-21726117D01*
X21136278Y-21905000D01*
X21440672Y-21905000D01*
X21364086Y-21981586D01*
X16984468Y-21977853D01*
X16861615Y-21855000D01*
X16974266Y-21855000D01*
X17222357Y-21752237D01*
X17412237Y-21562357D01*
X17515000Y-21314266D01*
X17515000Y-21045734D01*
X17412237Y-20797643D01*
X17222357Y-20607763D01*
X16974266Y-20505000D01*
X16705734Y-20505000D01*
X16457643Y-20607763D01*
X16267763Y-20797643D01*
X16165000Y-21045734D01*
X16165000Y-21158385D01*
X15724264Y-20717649D01*
X15725684Y-19830000D01*
X17649613Y-19830000D01*
X17649613Y-21630000D01*
X17670956Y-21737299D01*
X17731736Y-21828264D01*
X17822701Y-21889044D01*
X17930000Y-21910387D01*
X19730000Y-21910387D01*
X19837299Y-21889044D01*
X19928264Y-21828264D01*
X19989044Y-21737299D01*
X20010387Y-21630000D01*
X20010387Y-19830000D01*
X19989044Y-19722701D01*
X19928264Y-19631736D01*
X19837299Y-19570956D01*
X19730000Y-19549613D01*
X17930000Y-19549613D01*
X17822701Y-19570956D01*
X17731736Y-19631736D01*
X17670956Y-19722701D01*
X17649613Y-19830000D01*
X15725684Y-19830000D01*
X15728427Y-18115734D01*
X15935000Y-18115734D01*
X15935000Y-18384266D01*
X16037763Y-18632357D01*
X16227643Y-18822237D01*
X16475734Y-18925000D01*
X16744266Y-18925000D01*
X16992357Y-18822237D01*
X17182237Y-18632357D01*
X17285000Y-18384266D01*
X17285000Y-18115734D01*
X17182237Y-17867643D01*
X16992357Y-17677763D01*
X16744266Y-17575000D01*
X16475734Y-17575000D01*
X16227643Y-17677763D01*
X16037763Y-17867643D01*
X15935000Y-18115734D01*
X15728427Y-18115734D01*
X15737963Y-12155734D01*
X16015000Y-12155734D01*
X16015000Y-12424266D01*
X16117763Y-12672357D01*
X16307643Y-12862237D01*
X16555734Y-12965000D01*
X16824266Y-12965000D01*
X17072357Y-12862237D01*
X17262237Y-12672357D01*
X17365000Y-12424266D01*
X17365000Y-12155734D01*
X17262237Y-11907643D01*
X17072357Y-11717763D01*
X16824266Y-11615000D01*
X16555734Y-11615000D01*
X16307643Y-11717763D01*
X16117763Y-11907643D01*
X16015000Y-12155734D01*
X15737963Y-12155734D01*
X15739451Y-11225734D01*
X19275000Y-11225734D01*
X19275000Y-11494266D01*
X19377763Y-11742357D01*
X19567643Y-11932237D01*
X19815734Y-12035000D01*
X20084266Y-12035000D01*
X20332357Y-11932237D01*
X20522237Y-11742357D01*
X20625000Y-11494266D01*
X20625000Y-11225734D01*
X20522237Y-10977643D01*
X20332357Y-10787763D01*
X20084266Y-10685000D01*
X19815734Y-10685000D01*
X19567643Y-10787763D01*
X19377763Y-10977643D01*
X19275000Y-11225734D01*
X15739451Y-11225734D01*
X15741540Y-9920120D01*
X15735781Y-9891178D01*
X15719481Y-9866875D01*
X15718957Y-9866526D01*
X15716614Y-9863032D01*
X15692256Y-9846814D01*
X15663545Y-9841152D01*
X15588271Y-9841275D01*
X15585357Y-9826633D01*
X15569057Y-9802330D01*
X15568533Y-9801981D01*
X15566190Y-9798487D01*
X15541832Y-9782269D01*
X15513121Y-9776607D01*
X11100754Y-9783840D01*
X11208860Y-9675734D01*
X18935000Y-9675734D01*
X18935000Y-9944266D01*
X19037763Y-10192357D01*
X19227643Y-10382237D01*
X19475734Y-10485000D01*
X19744266Y-10485000D01*
X19992357Y-10382237D01*
X20182237Y-10192357D01*
X20285000Y-9944266D01*
X20285000Y-9675734D01*
X20182237Y-9427643D01*
X19992357Y-9237763D01*
X19744266Y-9135000D01*
X19475734Y-9135000D01*
X19227643Y-9237763D01*
X19037763Y-9427643D01*
X18935000Y-9675734D01*
X11208860Y-9675734D01*
X11272237Y-9612357D01*
X11375000Y-9364266D01*
X11375000Y-9095734D01*
X11272237Y-8847643D01*
X11082357Y-8657763D01*
X10834266Y-8555000D01*
X10565734Y-8555000D01*
X10317643Y-8657763D01*
X10127763Y-8847643D01*
X10025000Y-9095734D01*
X10025000Y-9364266D01*
X10127763Y-9612357D01*
X10300558Y-9785152D01*
X9698600Y-9786139D01*
X9389213Y-9476751D01*
X8864999Y-8577214D01*
X8864999Y-8322141D01*
X8946378Y-8403520D01*
X9312082Y-8555000D01*
X9707918Y-8555000D01*
X10073622Y-8403520D01*
X10353520Y-8123622D01*
X10505000Y-7757918D01*
X10505000Y-7362082D01*
X10353520Y-6996378D01*
X10073622Y-6716480D01*
X9707918Y-6565000D01*
X9515860Y-6565000D01*
X9623963Y-6456897D01*
X10336637Y-5939110D01*
X11123701Y-5468862D01*
X10866185Y-5726378D01*
X10714705Y-6092082D01*
X10714705Y-6487918D01*
X10866185Y-6853622D01*
X11146083Y-7133520D01*
X11511787Y-7285000D01*
X11907623Y-7285000D01*
X12273327Y-7133520D01*
X12553225Y-6853622D01*
X12704705Y-6487918D01*
X12704705Y-6092082D01*
X12553225Y-5726378D01*
X12273327Y-5446480D01*
X11907623Y-5295000D01*
X11511787Y-5295000D01*
X11195246Y-5426116D01*
X11701774Y-5123480D01*
X13060622Y-4469095D01*
X12914409Y-4822082D01*
G36*
X10150000Y-11722462D02*
X10150000Y-11939266D01*
X10252763Y-12187357D01*
X10442643Y-12377237D01*
X10690734Y-12480000D01*
X10959266Y-12480000D01*
X11207357Y-12377237D01*
X11397237Y-12187357D01*
X11500000Y-11939266D01*
X11500000Y-11670734D01*
X11397237Y-11422643D01*
X11207357Y-11232763D01*
X11101291Y-11188829D01*
X10330891Y-10418429D01*
X15057885Y-10386544D01*
X15034038Y-20020721D01*
X15026614Y-20009611D01*
X14902572Y-19926728D01*
X14793186Y-19904970D01*
X14793181Y-19904970D01*
X14756255Y-19897625D01*
X14719329Y-19904970D01*
X13240960Y-19904970D01*
X7839851Y-14503862D01*
X7839851Y-13682072D01*
X7847196Y-13645146D01*
X7839851Y-13608220D01*
X7839851Y-13608216D01*
X7818093Y-13498830D01*
X7800255Y-13472133D01*
X7756129Y-13406095D01*
X7735210Y-13374788D01*
X7712390Y-13359540D01*
X7755035Y-13145148D01*
X7747670Y-13108123D01*
X7806751Y-13108367D01*
X8197822Y-12948269D01*
X8317277Y-12856585D01*
X8307094Y-12660313D01*
X7665371Y-12289814D01*
X7655371Y-12307134D01*
X7345333Y-12128134D01*
X7355333Y-12110814D01*
X7207242Y-12025314D01*
X7207242Y-12025313D01*
X7128370Y-11979776D01*
X7844371Y-11979776D01*
X8486094Y-12350275D01*
X8661162Y-12260958D01*
X8680835Y-12111665D01*
X8623949Y-11692939D01*
X8411154Y-11327855D01*
X8216058Y-11335996D01*
X7844371Y-11979776D01*
X7128370Y-11979776D01*
X6565519Y-11654814D01*
X6555519Y-11672134D01*
X6245481Y-11493134D01*
X6255481Y-11475814D01*
X6028517Y-11344776D01*
X6744519Y-11344776D01*
X6892610Y-11430276D01*
X6892610Y-11430277D01*
X7534333Y-11800776D01*
X7906020Y-11156996D01*
X7815522Y-10983967D01*
X7480175Y-10982583D01*
X7311302Y-10692855D01*
X7116206Y-10700996D01*
X6744519Y-11344776D01*
X6028517Y-11344776D01*
X5613758Y-11105315D01*
X5438690Y-11194632D01*
X5419017Y-11343925D01*
X5438800Y-11489544D01*
X5416707Y-11485149D01*
X5365001Y-11474864D01*
X5313295Y-11485149D01*
X5291927Y-11485149D01*
X5108986Y-11302209D01*
X5475502Y-10746959D01*
X5623456Y-10599005D01*
X5782575Y-10599005D01*
X5792758Y-10795277D01*
X6434481Y-11165776D01*
X6806168Y-10521996D01*
X6715670Y-10348967D01*
X6293101Y-10347223D01*
X5902030Y-10507321D01*
X5782575Y-10599005D01*
X5623456Y-10599005D01*
X6527463Y-9694999D01*
X8122538Y-9694999D01*
X10150000Y-11722462D01*
X10150000Y-11722462D01*
G37*
X10150000Y-11722462D02*
X10150000Y-11939266D01*
X10252763Y-12187357D01*
X10442643Y-12377237D01*
X10690734Y-12480000D01*
X10959266Y-12480000D01*
X11207357Y-12377237D01*
X11397237Y-12187357D01*
X11500000Y-11939266D01*
X11500000Y-11670734D01*
X11397237Y-11422643D01*
X11207357Y-11232763D01*
X11101291Y-11188829D01*
X10330891Y-10418429D01*
X15057885Y-10386544D01*
X15034038Y-20020721D01*
X15026614Y-20009611D01*
X14902572Y-19926728D01*
X14793186Y-19904970D01*
X14793181Y-19904970D01*
X14756255Y-19897625D01*
X14719329Y-19904970D01*
X13240960Y-19904970D01*
X7839851Y-14503862D01*
X7839851Y-13682072D01*
X7847196Y-13645146D01*
X7839851Y-13608220D01*
X7839851Y-13608216D01*
X7818093Y-13498830D01*
X7800255Y-13472133D01*
X7756129Y-13406095D01*
X7735210Y-13374788D01*
X7712390Y-13359540D01*
X7755035Y-13145148D01*
X7747670Y-13108123D01*
X7806751Y-13108367D01*
X8197822Y-12948269D01*
X8317277Y-12856585D01*
X8307094Y-12660313D01*
X7665371Y-12289814D01*
X7655371Y-12307134D01*
X7345333Y-12128134D01*
X7355333Y-12110814D01*
X7207242Y-12025314D01*
X7207242Y-12025313D01*
X7128370Y-11979776D01*
X7844371Y-11979776D01*
X8486094Y-12350275D01*
X8661162Y-12260958D01*
X8680835Y-12111665D01*
X8623949Y-11692939D01*
X8411154Y-11327855D01*
X8216058Y-11335996D01*
X7844371Y-11979776D01*
X7128370Y-11979776D01*
X6565519Y-11654814D01*
X6555519Y-11672134D01*
X6245481Y-11493134D01*
X6255481Y-11475814D01*
X6028517Y-11344776D01*
X6744519Y-11344776D01*
X6892610Y-11430276D01*
X6892610Y-11430277D01*
X7534333Y-11800776D01*
X7906020Y-11156996D01*
X7815522Y-10983967D01*
X7480175Y-10982583D01*
X7311302Y-10692855D01*
X7116206Y-10700996D01*
X6744519Y-11344776D01*
X6028517Y-11344776D01*
X5613758Y-11105315D01*
X5438690Y-11194632D01*
X5419017Y-11343925D01*
X5438800Y-11489544D01*
X5416707Y-11485149D01*
X5365001Y-11474864D01*
X5313295Y-11485149D01*
X5291927Y-11485149D01*
X5108986Y-11302209D01*
X5475502Y-10746959D01*
X5623456Y-10599005D01*
X5782575Y-10599005D01*
X5792758Y-10795277D01*
X6434481Y-11165776D01*
X6806168Y-10521996D01*
X6715670Y-10348967D01*
X6293101Y-10347223D01*
X5902030Y-10507321D01*
X5782575Y-10599005D01*
X5623456Y-10599005D01*
X6527463Y-9694999D01*
X8122538Y-9694999D01*
X10150000Y-11722462D01*
G36*
X35035519Y-13365186D02*
X35052839Y-13355186D01*
X35231839Y-13665224D01*
X35214519Y-13675224D01*
X35586206Y-14319004D01*
X35781302Y-14327145D01*
X35950058Y-14037616D01*
X36224015Y-14678571D01*
X36265001Y-14804713D01*
X36265000Y-15507382D01*
X34160000Y-17612383D01*
X34160000Y-16604316D01*
X34168815Y-16559999D01*
X34160000Y-16515683D01*
X34160000Y-16515679D01*
X34133891Y-16384419D01*
X34034432Y-16235568D01*
X33996857Y-16210462D01*
X32842390Y-15055995D01*
X33152723Y-15055995D01*
X33272178Y-15147679D01*
X33663249Y-15307777D01*
X34085818Y-15306033D01*
X34176316Y-15133004D01*
X33804629Y-14489224D01*
X33162906Y-14859723D01*
X33152723Y-15055995D01*
X32842390Y-15055995D01*
X32810147Y-15023752D01*
X32810147Y-14461036D01*
X32983906Y-14549685D01*
X33398664Y-14310224D01*
X34114667Y-14310224D01*
X34486354Y-14954004D01*
X34681450Y-14962145D01*
X34850323Y-14672417D01*
X35185670Y-14671033D01*
X35276168Y-14498004D01*
X34904481Y-13854224D01*
X34262758Y-14224723D01*
X34262758Y-14224724D01*
X34114667Y-14310224D01*
X33398664Y-14310224D01*
X33625629Y-14179186D01*
X33615629Y-14161866D01*
X33925667Y-13982866D01*
X33935667Y-14000186D01*
X34577390Y-13629687D01*
X34577390Y-13629686D01*
X34725481Y-13544186D01*
X34715481Y-13526866D01*
X35025519Y-13347866D01*
X35035519Y-13365186D01*
X35035519Y-13365186D01*
G37*
X35035519Y-13365186D02*
X35052839Y-13355186D01*
X35231839Y-13665224D01*
X35214519Y-13675224D01*
X35586206Y-14319004D01*
X35781302Y-14327145D01*
X35950058Y-14037616D01*
X36224015Y-14678571D01*
X36265001Y-14804713D01*
X36265000Y-15507382D01*
X34160000Y-17612383D01*
X34160000Y-16604316D01*
X34168815Y-16559999D01*
X34160000Y-16515683D01*
X34160000Y-16515679D01*
X34133891Y-16384419D01*
X34034432Y-16235568D01*
X33996857Y-16210462D01*
X32842390Y-15055995D01*
X33152723Y-15055995D01*
X33272178Y-15147679D01*
X33663249Y-15307777D01*
X34085818Y-15306033D01*
X34176316Y-15133004D01*
X33804629Y-14489224D01*
X33162906Y-14859723D01*
X33152723Y-15055995D01*
X32842390Y-15055995D01*
X32810147Y-15023752D01*
X32810147Y-14461036D01*
X32983906Y-14549685D01*
X33398664Y-14310224D01*
X34114667Y-14310224D01*
X34486354Y-14954004D01*
X34681450Y-14962145D01*
X34850323Y-14672417D01*
X35185670Y-14671033D01*
X35276168Y-14498004D01*
X34904481Y-13854224D01*
X34262758Y-14224723D01*
X34262758Y-14224724D01*
X34114667Y-14310224D01*
X33398664Y-14310224D01*
X33625629Y-14179186D01*
X33615629Y-14161866D01*
X33925667Y-13982866D01*
X33935667Y-14000186D01*
X34577390Y-13629687D01*
X34577390Y-13629686D01*
X34725481Y-13544186D01*
X34715481Y-13526866D01*
X35025519Y-13347866D01*
X35035519Y-13365186D01*
G04 #@! TD*
M02*
