G04 #@! TF.GenerationSoftware,KiCad,Pcbnew,(5.0.0)*
G04 #@! TF.CreationDate,2019-02-03T16:55:31-08:00*
G04 #@! TF.ProjectId,mlab100_Conn_PCB_1.5,6D6C61623130305F436F6E6E5F504342,rev?*
G04 #@! TF.SameCoordinates,Original*
G04 #@! TF.FileFunction,Paste,Bot*
G04 #@! TF.FilePolarity,Positive*
%FSLAX46Y46*%
G04 Gerber Fmt 4.6, Leading zero omitted, Abs format (unit mm)*
G04 Created by KiCad (PCBNEW (5.0.0)) date 02/03/19 16:55:31*
%MOMM*%
%LPD*%
G01*
G04 APERTURE LIST*
%ADD10R,0.750000X0.800000*%
%ADD11R,1.400000X0.450000*%
%ADD12R,0.800000X1.000000*%
%ADD13R,0.600000X1.000000*%
%ADD14R,1.143000X0.508000*%
%ADD15R,1.000000X3.150000*%
%ADD16R,1.200000X2.200000*%
%ADD17R,2.750000X3.050000*%
%ADD18R,0.650000X1.060000*%
%ADD19R,1.060000X0.650000*%
%ADD20R,0.900000X0.500000*%
%ADD21R,0.500000X0.900000*%
%ADD22R,0.800000X0.750000*%
G04 APERTURE END LIST*
D10*
G04 #@! TO.C,C9*
X38720000Y-18910000D03*
X38720000Y-17410000D03*
G04 #@! TD*
D11*
G04 #@! TO.C,IC4*
X17560000Y-15085000D03*
X17560000Y-14435000D03*
X17560000Y-13785000D03*
X17560000Y-13135000D03*
X21960000Y-13135000D03*
X21960000Y-13785000D03*
X21960000Y-14435000D03*
X21960000Y-15085000D03*
G04 #@! TD*
D12*
G04 #@! TO.C,IC3*
X26638000Y-17104000D03*
D13*
X25688000Y-17104000D03*
D12*
X24738000Y-17104000D03*
X24738000Y-14704000D03*
X26638000Y-14704000D03*
G04 #@! TD*
D14*
G04 #@! TO.C,U3*
X23021000Y-7395000D03*
X23021000Y-8665000D03*
X23021000Y-9935000D03*
X23021000Y-11205000D03*
X16671000Y-11205000D03*
X16671000Y-9935000D03*
X16671000Y-8665000D03*
X16671000Y-7395000D03*
G04 #@! TD*
D15*
G04 #@! TO.C,J3*
X26450000Y-29005000D03*
X26450000Y-23955000D03*
X23910000Y-29005000D03*
X23910000Y-23955000D03*
X21370000Y-29005000D03*
X21370000Y-23955000D03*
X18830000Y-29005000D03*
X18830000Y-23955000D03*
X16290000Y-29005000D03*
X16290000Y-23955000D03*
X13750000Y-29005000D03*
X13750000Y-23955000D03*
G04 #@! TD*
D16*
G04 #@! TO.C,Q1*
X28570000Y-17030000D03*
X33130000Y-17030000D03*
D17*
X32375000Y-25005000D03*
X29325000Y-21655000D03*
X29325000Y-25005000D03*
X32375000Y-21655000D03*
G04 #@! TD*
G04 #@! TO.C,Q3*
X10825000Y-15155000D03*
X13875000Y-11805000D03*
X13875000Y-15155000D03*
X10825000Y-11805000D03*
D16*
X10070000Y-19780000D03*
X14630000Y-19780000D03*
G04 #@! TD*
D18*
G04 #@! TO.C,IC1*
X31110000Y-29790000D03*
X30160000Y-29790000D03*
X29210000Y-29790000D03*
X29210000Y-27590000D03*
X31110000Y-27590000D03*
X30160000Y-27590000D03*
G04 #@! TD*
D19*
G04 #@! TO.C,IC2*
X11200000Y-22980000D03*
X11200000Y-23930000D03*
X11200000Y-22030000D03*
X9000000Y-22030000D03*
X9000000Y-22980000D03*
X9000000Y-23930000D03*
G04 #@! TD*
D20*
G04 #@! TO.C,R10*
X37370000Y-14910000D03*
X37370000Y-16410000D03*
G04 #@! TD*
G04 #@! TO.C,R11*
X12226000Y-7788000D03*
X12226000Y-9288000D03*
G04 #@! TD*
D21*
G04 #@! TO.C,R12*
X34700000Y-32450000D03*
X33200000Y-32450000D03*
G04 #@! TD*
D20*
G04 #@! TO.C,R13*
X9940000Y-26130000D03*
X9940000Y-27630000D03*
G04 #@! TD*
D21*
G04 #@! TO.C,R14*
X21440000Y-33810000D03*
X19940000Y-33810000D03*
G04 #@! TD*
G04 #@! TO.C,R15*
X30100000Y-16380000D03*
X31600000Y-16380000D03*
G04 #@! TD*
G04 #@! TO.C,R16*
X13100000Y-20430000D03*
X11600000Y-20430000D03*
G04 #@! TD*
D10*
G04 #@! TO.C,C10*
X14512000Y-9022000D03*
X14512000Y-7522000D03*
G04 #@! TD*
D22*
G04 #@! TO.C,C1*
X26600000Y-18670000D03*
X25100000Y-18670000D03*
G04 #@! TD*
G04 #@! TO.C,C2*
X26184000Y-13364000D03*
X24684000Y-13364000D03*
G04 #@! TD*
G04 #@! TO.C,C5*
X24684000Y-12094000D03*
X26184000Y-12094000D03*
G04 #@! TD*
D20*
G04 #@! TO.C,JP1*
X25080000Y-19910000D03*
X25080000Y-21410000D03*
G04 #@! TD*
M02*
