M48
;DRILL file {KiCad (5.0.0)} date 02/03/19 17:17:26
;FORMAT={-:-/ absolute / inch / decimal}
FMAT,2
INCH,TZ
T1C0.0157
T2C0.0236
T3C0.0256
T4C0.0354
%
G90
G05
M72
T1
X1.8531Y-0.1138
X1.8531Y-0.3791
X1.8531Y-0.6449
T2
X0.061Y-0.6449
X0.111Y-0.5949
X0.111Y-0.6949
X0.061Y-0.1138
X0.111Y-0.0638
X0.111Y-0.1638
X0.061Y-0.3791
X0.111Y-0.3291
X0.111Y-0.4291
T3
X2.1382Y-0.0638
X2.1382Y-0.1138
X2.1382Y-0.1638
X2.1882Y-0.0638
X2.1882Y-0.1138
X2.1882Y-0.1638
X2.1382Y-0.3291
X2.1382Y-0.3791
X2.1382Y-0.4291
X2.1882Y-0.3291
X2.1882Y-0.3791
X2.1882Y-0.4291
X2.1382Y-0.5949
X2.1382Y-0.6449
X2.1382Y-0.6949
X2.1882Y-0.5949
X2.1882Y-0.6449
X2.1882Y-0.6949
T4
X0.5634Y-0.6449
X0.6634Y-0.6449
X0.8189Y-0.1138
X0.9189Y-0.1138
X0.563Y-0.1138
X0.663Y-0.1138
X0.3071Y-0.6449
X0.4071Y-0.6449
X0.5634Y-0.3791
X0.6634Y-0.3791
X0.8189Y-0.3791
X0.9189Y-0.3791
X0.8189Y-0.6449
X0.9189Y-0.6449
X0.3071Y-0.3791
X0.4071Y-0.3791
X0.3071Y-0.1138
X0.4071Y-0.1138
T0
M30
