G04 #@! TF.GenerationSoftware,KiCad,Pcbnew,(5.0.0)*
G04 #@! TF.CreationDate,2019-02-03T17:17:29-08:00*
G04 #@! TF.ProjectId,mlab100_LEDPCB_1.5,6D6C61623130305F4C45445043425F31,rev?*
G04 #@! TF.SameCoordinates,Original*
G04 #@! TF.FileFunction,Profile,NP*
%FSLAX46Y46*%
G04 Gerber Fmt 4.6, Leading zero omitted, Abs format (unit mm)*
G04 Created by KiCad (PCBNEW (5.0.0)) date 02/03/19 17:17:29*
%MOMM*%
%LPD*%
G01*
G04 APERTURE LIST*
%ADD10C,0.200000*%
G04 APERTURE END LIST*
D10*
X4880000Y-13505000D02*
X30410000Y-13505000D01*
X56230000Y-13505000D02*
X58220000Y-13505000D01*
X31420000Y-13505000D02*
X55210000Y-13505000D01*
X2830000Y-13505000D02*
X3870000Y-13505000D01*
X4880000Y-12505000D02*
X30410000Y-12505000D01*
X31420000Y-12505000D02*
X55210000Y-12505000D01*
X2830000Y-12505000D02*
X3870000Y-12505000D01*
X56230000Y-12505000D02*
X58220000Y-12505000D01*
X56230000Y-6755000D02*
X58220000Y-6755000D01*
X4880000Y-6755000D02*
X30410000Y-6755000D01*
X31420000Y-6755000D02*
X55210000Y-6755000D01*
X2830000Y-6755000D02*
X3870000Y-6755000D01*
X56230000Y-5770000D02*
X58220000Y-5770000D01*
X31420000Y-5770000D02*
X55210000Y-5770000D01*
X4880000Y-5770000D02*
X30410000Y-5770000D01*
X2830000Y-5770000D02*
X3870000Y-5770000D01*
X3870000Y-6750000D02*
X3870000Y-5740000D01*
X30410000Y-6760000D02*
X30410000Y-5750000D01*
X56220000Y-6760000D02*
X56220000Y-5760000D01*
X55210000Y-6760000D02*
X55210000Y-5750000D01*
X31420000Y-6760000D02*
X31420000Y-5760000D01*
X4880000Y-6750000D02*
X4880000Y-5750000D01*
X31420000Y-13500000D02*
X31420000Y-12500000D01*
X30410000Y-13500000D02*
X30410000Y-12490000D01*
X55210000Y-13510000D02*
X55210000Y-12500000D01*
X56220000Y-13510000D02*
X56220000Y-12510000D01*
X4880000Y-13510000D02*
X4880000Y-12510000D01*
X3870000Y-13510000D02*
X3870000Y-12500000D01*
X2820000Y-19255000D02*
G75*
G02X2820000Y-13505000I0J2875000D01*
G01*
X2820000Y-19255000D02*
X58220000Y-19255000D01*
X58220000Y-19255000D02*
X58220000Y-13505000D01*
X58220000Y-12505000D02*
X58220000Y-6755000D01*
X2820000Y-12505000D02*
G75*
G02X2820000Y-6755000I0J2875000D01*
G01*
X58220000Y-5765000D02*
X58220000Y-15000D01*
X2820000Y-15000D02*
X58220000Y-15000D01*
X2820000Y-5765000D02*
G75*
G02X2820000Y-15000I0J2875000D01*
G01*
M02*
