G04 #@! TF.GenerationSoftware,KiCad,Pcbnew,(5.0.0)*
G04 #@! TF.CreationDate,2019-02-03T17:17:29-08:00*
G04 #@! TF.ProjectId,mlab100_LEDPCB_1.5,6D6C61623130305F4C45445043425F31,rev?*
G04 #@! TF.SameCoordinates,Original*
G04 #@! TF.FileFunction,Copper,L1,Top,Signal*
G04 #@! TF.FilePolarity,Positive*
%FSLAX46Y46*%
G04 Gerber Fmt 4.6, Leading zero omitted, Abs format (unit mm)*
G04 Created by KiCad (PCBNEW (5.0.0)) date 02/03/19 17:17:29*
%MOMM*%
%LPD*%
G01*
G04 APERTURE LIST*
G04 #@! TA.AperFunction,ComponentPad*
%ADD10R,1.800000X1.800000*%
G04 #@! TD*
G04 #@! TA.AperFunction,ComponentPad*
%ADD11C,1.800000*%
G04 #@! TD*
G04 #@! TA.AperFunction,ComponentPad*
%ADD12O,1.000000X1.000000*%
G04 #@! TD*
G04 #@! TA.AperFunction,ComponentPad*
%ADD13R,1.000000X1.000000*%
G04 #@! TD*
G04 #@! TA.AperFunction,ComponentPad*
%ADD14C,1.000000*%
G04 #@! TD*
G04 #@! TA.AperFunction,SMDPad,CuDef*
%ADD15R,2.000000X2.500000*%
G04 #@! TD*
G04 #@! TA.AperFunction,ViaPad*
%ADD16C,0.800000*%
G04 #@! TD*
G04 #@! TA.AperFunction,Conductor*
%ADD17C,0.350000*%
G04 #@! TD*
G04 #@! TA.AperFunction,Conductor*
%ADD18C,0.200000*%
G04 #@! TD*
G04 #@! TA.AperFunction,Conductor*
%ADD19C,0.254000*%
G04 #@! TD*
G04 APERTURE END LIST*
D10*
G04 #@! TO.P,D4,1*
G04 #@! TO.N,Net-(D4-Pad1)*
X20800000Y-16380000D03*
D11*
G04 #@! TO.P,D4,2*
G04 #@! TO.N,Net-(D2-Pad1)*
X23340000Y-16380000D03*
G04 #@! TD*
D10*
G04 #@! TO.P,D1,1*
G04 #@! TO.N,Net-(D1-Pad1)*
X7800000Y-16380000D03*
D11*
G04 #@! TO.P,D1,2*
G04 #@! TO.N,/LEDBoard1/12V*
X10340000Y-16380000D03*
G04 #@! TD*
G04 #@! TO.P,D5,2*
G04 #@! TO.N,/LEDBoard2/12V*
X10340000Y-9630000D03*
D10*
G04 #@! TO.P,D5,1*
G04 #@! TO.N,Net-(D5-Pad1)*
X7800000Y-9630000D03*
G04 #@! TD*
D11*
G04 #@! TO.P,D2,2*
G04 #@! TO.N,Net-(D1-Pad1)*
X16850000Y-16380000D03*
D10*
G04 #@! TO.P,D2,1*
G04 #@! TO.N,Net-(D2-Pad1)*
X14310000Y-16380000D03*
G04 #@! TD*
D11*
G04 #@! TO.P,D8,2*
G04 #@! TO.N,Net-(D5-Pad1)*
X16850000Y-9630000D03*
D10*
G04 #@! TO.P,D8,1*
G04 #@! TO.N,Net-(D8-Pad1)*
X14310000Y-9630000D03*
G04 #@! TD*
G04 #@! TO.P,D9,1*
G04 #@! TO.N,Net-(D9-Pad1)*
X20800000Y-9630000D03*
D11*
G04 #@! TO.P,D9,2*
G04 #@! TO.N,Net-(D8-Pad1)*
X23340000Y-9630000D03*
G04 #@! TD*
G04 #@! TO.P,D10,2*
G04 #@! TO.N,/LEDBoard3/12V*
X10340000Y-2890000D03*
D10*
G04 #@! TO.P,D10,1*
G04 #@! TO.N,Net-(D10-Pad1)*
X7800000Y-2890000D03*
G04 #@! TD*
G04 #@! TO.P,D11,1*
G04 #@! TO.N,Net-(D11-Pad1)*
X14300000Y-2890000D03*
D11*
G04 #@! TO.P,D11,2*
G04 #@! TO.N,Net-(D10-Pad1)*
X16840000Y-2890000D03*
G04 #@! TD*
D10*
G04 #@! TO.P,D12,1*
G04 #@! TO.N,Net-(D12-Pad1)*
X20800000Y-2890000D03*
D11*
G04 #@! TO.P,D12,2*
G04 #@! TO.N,Net-(D11-Pad1)*
X23340000Y-2890000D03*
G04 #@! TD*
D12*
G04 #@! TO.P,J14,6*
G04 #@! TO.N,/LEDBoard1/12V*
X55580000Y-17650000D03*
G04 #@! TO.P,J14,5*
G04 #@! TO.N,/LEDBoard1/3V3*
X54310000Y-17650000D03*
G04 #@! TO.P,J14,4*
G04 #@! TO.N,/LEDBoard1/LED*
X55580000Y-16380000D03*
G04 #@! TO.P,J14,3*
G04 #@! TO.N,/LEDBoard1/Temp1w*
X54310000Y-16380000D03*
G04 #@! TO.P,J14,2*
G04 #@! TO.N,/LEDBoard1/GND*
X55580000Y-15110000D03*
D13*
G04 #@! TO.P,J14,1*
X54310000Y-15110000D03*
G04 #@! TD*
G04 #@! TO.P,J15,1*
G04 #@! TO.N,/LEDBoard2/GND*
X54310000Y-8360000D03*
D12*
G04 #@! TO.P,J15,2*
X55580000Y-8360000D03*
G04 #@! TO.P,J15,3*
G04 #@! TO.N,/LEDBoard2/Temp1w*
X54310000Y-9630000D03*
G04 #@! TO.P,J15,4*
G04 #@! TO.N,/LEDBoard2/LED*
X55580000Y-9630000D03*
G04 #@! TO.P,J15,5*
G04 #@! TO.N,/LEDBoard2/3V3*
X54310000Y-10900000D03*
G04 #@! TO.P,J15,6*
G04 #@! TO.N,/LEDBoard2/12V*
X55580000Y-10900000D03*
G04 #@! TD*
G04 #@! TO.P,J16,6*
G04 #@! TO.N,/LEDBoard3/12V*
X55580000Y-4160000D03*
G04 #@! TO.P,J16,5*
G04 #@! TO.N,/LEDBoard3/3V3*
X54310000Y-4160000D03*
G04 #@! TO.P,J16,4*
G04 #@! TO.N,/LEDBoard3/LED*
X55580000Y-2890000D03*
G04 #@! TO.P,J16,3*
G04 #@! TO.N,/LEDBoard3/Temp1w*
X54310000Y-2890000D03*
G04 #@! TO.P,J16,2*
G04 #@! TO.N,/LEDBoard3/GND*
X55580000Y-1620000D03*
D13*
G04 #@! TO.P,J16,1*
X54310000Y-1620000D03*
G04 #@! TD*
G04 #@! TO.P,U4,1*
G04 #@! TO.N,/LEDBoard1/GND*
X2820000Y-17650000D03*
D14*
G04 #@! TO.P,U4,3*
G04 #@! TO.N,/LEDBoard1/3V3*
X2820000Y-15110000D03*
G04 #@! TO.P,U4,2*
G04 #@! TO.N,/LEDBoard1/Temp1w*
X1550000Y-16380000D03*
G04 #@! TD*
G04 #@! TO.P,U5,2*
G04 #@! TO.N,/LEDBoard2/Temp1w*
X1550000Y-9630000D03*
G04 #@! TO.P,U5,3*
G04 #@! TO.N,/LEDBoard2/3V3*
X2820000Y-8360000D03*
D13*
G04 #@! TO.P,U5,1*
G04 #@! TO.N,/LEDBoard2/GND*
X2820000Y-10900000D03*
G04 #@! TD*
G04 #@! TO.P,U6,1*
G04 #@! TO.N,/LEDBoard3/GND*
X2820000Y-4160000D03*
D14*
G04 #@! TO.P,U6,3*
G04 #@! TO.N,/LEDBoard3/3V3*
X2820000Y-1620000D03*
G04 #@! TO.P,U6,2*
G04 #@! TO.N,/LEDBoard3/Temp1w*
X1550000Y-2890000D03*
G04 #@! TD*
D15*
G04 #@! TO.P,R1,2*
G04 #@! TO.N,/LEDBoard1/LED*
X44820000Y-16380000D03*
G04 #@! TO.P,R1,1*
G04 #@! TO.N,Net-(D4-Pad1)*
X40820000Y-16380000D03*
G04 #@! TD*
G04 #@! TO.P,R2,1*
G04 #@! TO.N,Net-(D9-Pad1)*
X40820000Y-9630000D03*
G04 #@! TO.P,R2,2*
G04 #@! TO.N,/LEDBoard2/LED*
X44820000Y-9630000D03*
G04 #@! TD*
G04 #@! TO.P,R3,2*
G04 #@! TO.N,/LEDBoard3/LED*
X44820000Y-2890000D03*
G04 #@! TO.P,R3,1*
G04 #@! TO.N,Net-(D12-Pad1)*
X40820000Y-2890000D03*
G04 #@! TD*
D16*
G04 #@! TO.N,/LEDBoard1/LED*
X47070000Y-16380000D03*
G04 #@! TO.N,/LEDBoard2/LED*
X47070000Y-9630000D03*
G04 #@! TO.N,/LEDBoard3/LED*
X47070000Y-2890000D03*
G04 #@! TD*
D17*
G04 #@! TO.N,Net-(D1-Pad1)*
X7800000Y-15130000D02*
X7825001Y-15104999D01*
X15564999Y-15104999D02*
X15940001Y-15480001D01*
X15940001Y-15480001D02*
X16840000Y-16380000D01*
X7825001Y-15104999D02*
X15564999Y-15104999D01*
X7800000Y-16380000D02*
X7800000Y-15130000D01*
G04 #@! TO.N,Net-(D2-Pad1)*
X14300000Y-16380000D02*
X14300000Y-17630000D01*
X22064999Y-17655001D02*
X22440001Y-17279999D01*
X22440001Y-17279999D02*
X23340000Y-16380000D01*
X14325001Y-17655001D02*
X22064999Y-17655001D01*
X14300000Y-17630000D02*
X14325001Y-17655001D01*
G04 #@! TO.N,/LEDBoard1/12V*
X10340000Y-17652792D02*
X11467208Y-18780000D01*
X12300000Y-18780000D02*
X12290000Y-18770000D01*
X11467208Y-18780000D02*
X12300000Y-18780000D01*
X10340000Y-16380000D02*
X10340000Y-17652792D01*
X55580000Y-17650000D02*
X55580000Y-18357106D01*
X55580000Y-18357106D02*
X55157106Y-18780000D01*
X55157106Y-18780000D02*
X12300000Y-18780000D01*
G04 #@! TO.N,Net-(D4-Pad1)*
X25920000Y-16380000D02*
X40320000Y-16380000D01*
X20825001Y-15104999D02*
X24644999Y-15104999D01*
X20800000Y-15130000D02*
X20825001Y-15104999D01*
X20800000Y-16380000D02*
X20800000Y-15130000D01*
X24644999Y-15104999D02*
X25920000Y-16380000D01*
G04 #@! TO.N,/LEDBoard2/12V*
X55580000Y-10900000D02*
X55580000Y-11607106D01*
X11467208Y-12030000D02*
X12300000Y-12030000D01*
X55580000Y-11607106D02*
X55157106Y-12030000D01*
X55157106Y-12030000D02*
X12300000Y-12030000D01*
X10340000Y-10902792D02*
X11467208Y-12030000D01*
X10340000Y-9630000D02*
X10340000Y-10902792D01*
X12300000Y-12030000D02*
X12290000Y-12020000D01*
G04 #@! TO.N,Net-(D5-Pad1)*
X15564999Y-8354999D02*
X15940001Y-8730001D01*
X7800000Y-8380000D02*
X7825001Y-8354999D01*
X15940001Y-8730001D02*
X16840000Y-9630000D01*
X7800000Y-9630000D02*
X7800000Y-8380000D01*
X7825001Y-8354999D02*
X15564999Y-8354999D01*
G04 #@! TO.N,Net-(D8-Pad1)*
X22064999Y-10905001D02*
X22440001Y-10529999D01*
X14300000Y-9630000D02*
X14300000Y-10880000D01*
X14300000Y-10880000D02*
X14325001Y-10905001D01*
X22440001Y-10529999D02*
X23340000Y-9630000D01*
X14325001Y-10905001D02*
X22064999Y-10905001D01*
G04 #@! TO.N,Net-(D9-Pad1)*
X20800000Y-9630000D02*
X20800000Y-8380000D01*
X25920000Y-9630000D02*
X40320000Y-9630000D01*
X24644999Y-8354999D02*
X25920000Y-9630000D01*
X20825001Y-8354999D02*
X24644999Y-8354999D01*
X20800000Y-8380000D02*
X20825001Y-8354999D01*
G04 #@! TO.N,/LEDBoard3/12V*
X55580000Y-4867106D02*
X55157106Y-5290000D01*
X55580000Y-4160000D02*
X55580000Y-4867106D01*
X55157106Y-5290000D02*
X12300000Y-5290000D01*
X12300000Y-5290000D02*
X12290000Y-5280000D01*
X11467208Y-5290000D02*
X12300000Y-5290000D01*
X10340000Y-4162792D02*
X11467208Y-5290000D01*
X10340000Y-2890000D02*
X10340000Y-4162792D01*
G04 #@! TO.N,Net-(D10-Pad1)*
X15940001Y-1990001D02*
X16840000Y-2890000D01*
X15564999Y-1614999D02*
X15940001Y-1990001D01*
X7825001Y-1614999D02*
X15564999Y-1614999D01*
X7800000Y-1640000D02*
X7825001Y-1614999D01*
X7800000Y-2890000D02*
X7800000Y-1640000D01*
G04 #@! TO.N,Net-(D11-Pad1)*
X22440001Y-3789999D02*
X23340000Y-2890000D01*
X22064999Y-4165001D02*
X22440001Y-3789999D01*
X14325001Y-4165001D02*
X22064999Y-4165001D01*
X14300000Y-4140000D02*
X14325001Y-4165001D01*
X14300000Y-2890000D02*
X14300000Y-4140000D01*
G04 #@! TO.N,Net-(D12-Pad1)*
X20825001Y-1614999D02*
X24644999Y-1614999D01*
X20800000Y-2890000D02*
X20800000Y-1640000D01*
X20800000Y-1640000D02*
X20825001Y-1614999D01*
X25920000Y-2890000D02*
X40320000Y-2890000D01*
X24644999Y-1614999D02*
X25920000Y-2890000D01*
G04 #@! TO.N,/LEDBoard1/LED*
X44820000Y-16380000D02*
X47070000Y-16380000D01*
G04 #@! TO.N,/LEDBoard2/LED*
X44820000Y-9630000D02*
X47070000Y-9630000D01*
G04 #@! TO.N,/LEDBoard3/LED*
X44820000Y-2890000D02*
X47070000Y-2890000D01*
G04 #@! TO.N,/LEDBoard1/3V3*
X2820000Y-15110000D02*
X3527106Y-15110000D01*
X53240000Y-17650000D02*
X54310000Y-17650000D01*
X4157106Y-14480000D02*
X50070000Y-14480000D01*
X50070000Y-14480000D02*
X53240000Y-17650000D01*
X3527106Y-15110000D02*
X4157106Y-14480000D01*
D18*
G04 #@! TO.N,/LEDBoard1/Temp1w*
X50330000Y-13910000D02*
X28400000Y-13910000D01*
X52800000Y-16380000D02*
X50330000Y-13910000D01*
X2880000Y-13910000D02*
X28040000Y-13910000D01*
X1550000Y-15195998D02*
X2815998Y-13930000D01*
X2815998Y-13930000D02*
X2860000Y-13930000D01*
X2860000Y-13930000D02*
X2880000Y-13910000D01*
X54310000Y-16380000D02*
X53602894Y-16380000D01*
X53602894Y-16380000D02*
X52800000Y-16380000D01*
X28400000Y-13910000D02*
X28070000Y-13910000D01*
X1550000Y-16380000D02*
X1550000Y-15195998D01*
X28040000Y-13910000D02*
X28400000Y-13910000D01*
G04 #@! TO.N,/LEDBoard2/Temp1w*
X52800000Y-9630000D02*
X50330000Y-7160000D01*
X53602894Y-9630000D02*
X52800000Y-9630000D01*
X2815998Y-7180000D02*
X2860000Y-7180000D01*
X1550000Y-9630000D02*
X1550000Y-8445998D01*
X1550000Y-8445998D02*
X2815998Y-7180000D01*
X2860000Y-7180000D02*
X2880000Y-7160000D01*
X28400000Y-7160000D02*
X28070000Y-7160000D01*
X2880000Y-7160000D02*
X28040000Y-7160000D01*
X50330000Y-7160000D02*
X28400000Y-7160000D01*
X28040000Y-7160000D02*
X28400000Y-7160000D01*
X54310000Y-9630000D02*
X53602894Y-9630000D01*
D17*
G04 #@! TO.N,/LEDBoard2/3V3*
X2820000Y-8360000D02*
X3527106Y-8360000D01*
X3527106Y-8360000D02*
X4157106Y-7730000D01*
X53240000Y-10900000D02*
X54310000Y-10900000D01*
X4157106Y-7730000D02*
X50070000Y-7730000D01*
X50070000Y-7730000D02*
X53240000Y-10900000D01*
G04 #@! TO.N,/LEDBoard3/3V3*
X3527106Y-1620000D02*
X4157106Y-990000D01*
X2820000Y-1620000D02*
X3527106Y-1620000D01*
X4157106Y-990000D02*
X50070000Y-990000D01*
X53240000Y-4160000D02*
X54310000Y-4160000D01*
X50070000Y-990000D02*
X53240000Y-4160000D01*
D18*
G04 #@! TO.N,/LEDBoard3/Temp1w*
X54310000Y-2890000D02*
X53602894Y-2890000D01*
X53602894Y-2890000D02*
X52800000Y-2890000D01*
X52800000Y-2890000D02*
X50330000Y-420000D01*
X1550000Y-1705998D02*
X2815998Y-440000D01*
X1550000Y-2890000D02*
X1550000Y-1705998D01*
X2815998Y-440000D02*
X2860000Y-440000D01*
X2860000Y-440000D02*
X2880000Y-420000D01*
X2880000Y-420000D02*
X28040000Y-420000D01*
X28040000Y-420000D02*
X28400000Y-420000D01*
X50330000Y-420000D02*
X28400000Y-420000D01*
X28400000Y-420000D02*
X28070000Y-420000D01*
G04 #@! TD*
D19*
G04 #@! TO.N,/LEDBoard3/GND*
G36*
X6252560Y-1990000D02*
X6252560Y-3790000D01*
X6301843Y-4037765D01*
X6442191Y-4247809D01*
X6652235Y-4388157D01*
X6900000Y-4437440D01*
X8700000Y-4437440D01*
X8947765Y-4388157D01*
X9157809Y-4247809D01*
X9298157Y-4037765D01*
X9301275Y-4022092D01*
X9470493Y-4191310D01*
X9524232Y-4213570D01*
X9562424Y-4405569D01*
X9576998Y-4478838D01*
X9756024Y-4746769D01*
X9823654Y-4791958D01*
X10066696Y-5035000D01*
X5052934Y-5035000D01*
X4880000Y-5000601D01*
X4593218Y-5057646D01*
X4382484Y-5198454D01*
X4156783Y-5047646D01*
X3870351Y-4990671D01*
X3955000Y-4786310D01*
X3955000Y-4445750D01*
X3796250Y-4287000D01*
X2947000Y-4287000D01*
X2947000Y-4307000D01*
X2693000Y-4307000D01*
X2693000Y-4287000D01*
X1843750Y-4287000D01*
X1685000Y-4445750D01*
X1685000Y-4681664D01*
X1450490Y-4527913D01*
X1110421Y-4168928D01*
X932594Y-3862778D01*
X1324234Y-4025000D01*
X1775766Y-4025000D01*
X1818181Y-4007431D01*
X1843750Y-4033000D01*
X2693000Y-4033000D01*
X2693000Y-3183750D01*
X2947000Y-3183750D01*
X2947000Y-4033000D01*
X3796250Y-4033000D01*
X3955000Y-3874250D01*
X3955000Y-3533690D01*
X3858327Y-3300301D01*
X3679698Y-3121673D01*
X3446309Y-3025000D01*
X3105750Y-3025000D01*
X2947000Y-3183750D01*
X2693000Y-3183750D01*
X2667431Y-3158181D01*
X2685000Y-3115766D01*
X2685000Y-2755000D01*
X3045766Y-2755000D01*
X3462926Y-2582207D01*
X3617182Y-2427951D01*
X3843152Y-2383003D01*
X4111083Y-2203977D01*
X4156274Y-2136345D01*
X4492619Y-1800000D01*
X6290353Y-1800000D01*
X6252560Y-1990000D01*
X6252560Y-1990000D01*
G37*
X6252560Y-1990000D02*
X6252560Y-3790000D01*
X6301843Y-4037765D01*
X6442191Y-4247809D01*
X6652235Y-4388157D01*
X6900000Y-4437440D01*
X8700000Y-4437440D01*
X8947765Y-4388157D01*
X9157809Y-4247809D01*
X9298157Y-4037765D01*
X9301275Y-4022092D01*
X9470493Y-4191310D01*
X9524232Y-4213570D01*
X9562424Y-4405569D01*
X9576998Y-4478838D01*
X9756024Y-4746769D01*
X9823654Y-4791958D01*
X10066696Y-5035000D01*
X5052934Y-5035000D01*
X4880000Y-5000601D01*
X4593218Y-5057646D01*
X4382484Y-5198454D01*
X4156783Y-5047646D01*
X3870351Y-4990671D01*
X3955000Y-4786310D01*
X3955000Y-4445750D01*
X3796250Y-4287000D01*
X2947000Y-4287000D01*
X2947000Y-4307000D01*
X2693000Y-4307000D01*
X2693000Y-4287000D01*
X1843750Y-4287000D01*
X1685000Y-4445750D01*
X1685000Y-4681664D01*
X1450490Y-4527913D01*
X1110421Y-4168928D01*
X932594Y-3862778D01*
X1324234Y-4025000D01*
X1775766Y-4025000D01*
X1818181Y-4007431D01*
X1843750Y-4033000D01*
X2693000Y-4033000D01*
X2693000Y-3183750D01*
X2947000Y-3183750D01*
X2947000Y-4033000D01*
X3796250Y-4033000D01*
X3955000Y-3874250D01*
X3955000Y-3533690D01*
X3858327Y-3300301D01*
X3679698Y-3121673D01*
X3446309Y-3025000D01*
X3105750Y-3025000D01*
X2947000Y-3183750D01*
X2693000Y-3183750D01*
X2667431Y-3158181D01*
X2685000Y-3115766D01*
X2685000Y-2755000D01*
X3045766Y-2755000D01*
X3462926Y-2582207D01*
X3617182Y-2427951D01*
X3843152Y-2383003D01*
X4111083Y-2203977D01*
X4156274Y-2136345D01*
X4492619Y-1800000D01*
X6290353Y-1800000D01*
X6252560Y-1990000D01*
G36*
X53271673Y-760301D02*
X53175000Y-993690D01*
X53175000Y-1334250D01*
X53333750Y-1493000D01*
X54183000Y-1493000D01*
X54183000Y-1473000D01*
X54437000Y-1473000D01*
X54437000Y-1493000D01*
X55453000Y-1493000D01*
X55453000Y-1473000D01*
X55707000Y-1473000D01*
X55707000Y-1493000D01*
X56547954Y-1493000D01*
X56674119Y-1318126D01*
X56567127Y-1059791D01*
X56299482Y-750000D01*
X57485001Y-750000D01*
X57485000Y-5035000D01*
X56372472Y-5035000D01*
X56381524Y-4989491D01*
X56398289Y-4978289D01*
X56649146Y-4602855D01*
X56737235Y-4160000D01*
X56649146Y-3717145D01*
X56520759Y-3525000D01*
X56649146Y-3332855D01*
X56737235Y-2890000D01*
X56649146Y-2447145D01*
X56512801Y-2243090D01*
X56567127Y-2180209D01*
X56674119Y-1921874D01*
X56547954Y-1747000D01*
X55707000Y-1747000D01*
X55707000Y-1758027D01*
X55691783Y-1755000D01*
X55468217Y-1755000D01*
X55453000Y-1758027D01*
X55453000Y-1747000D01*
X54437000Y-1747000D01*
X54437000Y-1758027D01*
X54421783Y-1755000D01*
X54198217Y-1755000D01*
X54183000Y-1758027D01*
X54183000Y-1747000D01*
X53333750Y-1747000D01*
X53175000Y-1905750D01*
X53175000Y-2155000D01*
X53104447Y-2155000D01*
X51699446Y-750000D01*
X53281974Y-750000D01*
X53271673Y-760301D01*
X53271673Y-760301D01*
G37*
X53271673Y-760301D02*
X53175000Y-993690D01*
X53175000Y-1334250D01*
X53333750Y-1493000D01*
X54183000Y-1493000D01*
X54183000Y-1473000D01*
X54437000Y-1473000D01*
X54437000Y-1493000D01*
X55453000Y-1493000D01*
X55453000Y-1473000D01*
X55707000Y-1473000D01*
X55707000Y-1493000D01*
X56547954Y-1493000D01*
X56674119Y-1318126D01*
X56567127Y-1059791D01*
X56299482Y-750000D01*
X57485001Y-750000D01*
X57485000Y-5035000D01*
X56372472Y-5035000D01*
X56381524Y-4989491D01*
X56398289Y-4978289D01*
X56649146Y-4602855D01*
X56737235Y-4160000D01*
X56649146Y-3717145D01*
X56520759Y-3525000D01*
X56649146Y-3332855D01*
X56737235Y-2890000D01*
X56649146Y-2447145D01*
X56512801Y-2243090D01*
X56567127Y-2180209D01*
X56674119Y-1921874D01*
X56547954Y-1747000D01*
X55707000Y-1747000D01*
X55707000Y-1758027D01*
X55691783Y-1755000D01*
X55468217Y-1755000D01*
X55453000Y-1758027D01*
X55453000Y-1747000D01*
X54437000Y-1747000D01*
X54437000Y-1758027D01*
X54421783Y-1755000D01*
X54198217Y-1755000D01*
X54183000Y-1758027D01*
X54183000Y-1747000D01*
X53333750Y-1747000D01*
X53175000Y-1905750D01*
X53175000Y-2155000D01*
X53104447Y-2155000D01*
X51699446Y-750000D01*
X53281974Y-750000D01*
X53271673Y-760301D01*
G04 #@! TO.N,/LEDBoard2/GND*
G36*
X6252560Y-8730000D02*
X6252560Y-10530000D01*
X6301843Y-10777765D01*
X6442191Y-10987809D01*
X6652235Y-11128157D01*
X6900000Y-11177440D01*
X8700000Y-11177440D01*
X8947765Y-11128157D01*
X9157809Y-10987809D01*
X9298157Y-10777765D01*
X9301275Y-10762092D01*
X9470493Y-10931310D01*
X9524232Y-10953570D01*
X9562424Y-11145569D01*
X9576998Y-11218838D01*
X9756024Y-11486769D01*
X9823654Y-11531958D01*
X10061696Y-11770000D01*
X4927252Y-11770000D01*
X4880000Y-11760601D01*
X4832748Y-11770000D01*
X4807612Y-11770000D01*
X4593217Y-11812646D01*
X4378742Y-11955954D01*
X4156783Y-11807646D01*
X3870000Y-11750601D01*
X3861386Y-11752314D01*
X3955000Y-11526310D01*
X3955000Y-11185750D01*
X3796250Y-11027000D01*
X2947000Y-11027000D01*
X2947000Y-11047000D01*
X2693000Y-11047000D01*
X2693000Y-11027000D01*
X1843750Y-11027000D01*
X1685000Y-11185750D01*
X1685000Y-11421664D01*
X1450490Y-11267913D01*
X1110421Y-10908928D01*
X932594Y-10602778D01*
X1324234Y-10765000D01*
X1775766Y-10765000D01*
X1818181Y-10747431D01*
X1843750Y-10773000D01*
X2693000Y-10773000D01*
X2693000Y-9923750D01*
X2947000Y-9923750D01*
X2947000Y-10773000D01*
X3796250Y-10773000D01*
X3955000Y-10614250D01*
X3955000Y-10273690D01*
X3858327Y-10040301D01*
X3679698Y-9861673D01*
X3446309Y-9765000D01*
X3105750Y-9765000D01*
X2947000Y-9923750D01*
X2693000Y-9923750D01*
X2667431Y-9898181D01*
X2685000Y-9855766D01*
X2685000Y-9495000D01*
X3045766Y-9495000D01*
X3462926Y-9322207D01*
X3617182Y-9167951D01*
X3843152Y-9123003D01*
X4111083Y-8943977D01*
X4156274Y-8876345D01*
X4492619Y-8540000D01*
X6290353Y-8540000D01*
X6252560Y-8730000D01*
X6252560Y-8730000D01*
G37*
X6252560Y-8730000D02*
X6252560Y-10530000D01*
X6301843Y-10777765D01*
X6442191Y-10987809D01*
X6652235Y-11128157D01*
X6900000Y-11177440D01*
X8700000Y-11177440D01*
X8947765Y-11128157D01*
X9157809Y-10987809D01*
X9298157Y-10777765D01*
X9301275Y-10762092D01*
X9470493Y-10931310D01*
X9524232Y-10953570D01*
X9562424Y-11145569D01*
X9576998Y-11218838D01*
X9756024Y-11486769D01*
X9823654Y-11531958D01*
X10061696Y-11770000D01*
X4927252Y-11770000D01*
X4880000Y-11760601D01*
X4832748Y-11770000D01*
X4807612Y-11770000D01*
X4593217Y-11812646D01*
X4378742Y-11955954D01*
X4156783Y-11807646D01*
X3870000Y-11750601D01*
X3861386Y-11752314D01*
X3955000Y-11526310D01*
X3955000Y-11185750D01*
X3796250Y-11027000D01*
X2947000Y-11027000D01*
X2947000Y-11047000D01*
X2693000Y-11047000D01*
X2693000Y-11027000D01*
X1843750Y-11027000D01*
X1685000Y-11185750D01*
X1685000Y-11421664D01*
X1450490Y-11267913D01*
X1110421Y-10908928D01*
X932594Y-10602778D01*
X1324234Y-10765000D01*
X1775766Y-10765000D01*
X1818181Y-10747431D01*
X1843750Y-10773000D01*
X2693000Y-10773000D01*
X2693000Y-9923750D01*
X2947000Y-9923750D01*
X2947000Y-10773000D01*
X3796250Y-10773000D01*
X3955000Y-10614250D01*
X3955000Y-10273690D01*
X3858327Y-10040301D01*
X3679698Y-9861673D01*
X3446309Y-9765000D01*
X3105750Y-9765000D01*
X2947000Y-9923750D01*
X2693000Y-9923750D01*
X2667431Y-9898181D01*
X2685000Y-9855766D01*
X2685000Y-9495000D01*
X3045766Y-9495000D01*
X3462926Y-9322207D01*
X3617182Y-9167951D01*
X3843152Y-9123003D01*
X4111083Y-8943977D01*
X4156274Y-8876345D01*
X4492619Y-8540000D01*
X6290353Y-8540000D01*
X6252560Y-8730000D01*
G36*
X53271673Y-7500301D02*
X53175000Y-7733690D01*
X53175000Y-8074250D01*
X53333750Y-8233000D01*
X54183000Y-8233000D01*
X54183000Y-8213000D01*
X54437000Y-8213000D01*
X54437000Y-8233000D01*
X55453000Y-8233000D01*
X55453000Y-8213000D01*
X55707000Y-8213000D01*
X55707000Y-8233000D01*
X56547954Y-8233000D01*
X56674119Y-8058126D01*
X56567127Y-7799791D01*
X56302128Y-7493063D01*
X56317524Y-7490000D01*
X57485001Y-7490000D01*
X57485000Y-11770000D01*
X56373467Y-11770000D01*
X56381524Y-11729491D01*
X56398289Y-11718289D01*
X56649146Y-11342855D01*
X56737235Y-10900000D01*
X56649146Y-10457145D01*
X56520759Y-10265000D01*
X56649146Y-10072855D01*
X56737235Y-9630000D01*
X56649146Y-9187145D01*
X56512801Y-8983090D01*
X56567127Y-8920209D01*
X56674119Y-8661874D01*
X56547954Y-8487000D01*
X55707000Y-8487000D01*
X55707000Y-8498027D01*
X55691783Y-8495000D01*
X55468217Y-8495000D01*
X55453000Y-8498027D01*
X55453000Y-8487000D01*
X54437000Y-8487000D01*
X54437000Y-8498027D01*
X54421783Y-8495000D01*
X54198217Y-8495000D01*
X54183000Y-8498027D01*
X54183000Y-8487000D01*
X53333750Y-8487000D01*
X53175000Y-8645750D01*
X53175000Y-8895000D01*
X53104447Y-8895000D01*
X51699446Y-7490000D01*
X53281974Y-7490000D01*
X53271673Y-7500301D01*
X53271673Y-7500301D01*
G37*
X53271673Y-7500301D02*
X53175000Y-7733690D01*
X53175000Y-8074250D01*
X53333750Y-8233000D01*
X54183000Y-8233000D01*
X54183000Y-8213000D01*
X54437000Y-8213000D01*
X54437000Y-8233000D01*
X55453000Y-8233000D01*
X55453000Y-8213000D01*
X55707000Y-8213000D01*
X55707000Y-8233000D01*
X56547954Y-8233000D01*
X56674119Y-8058126D01*
X56567127Y-7799791D01*
X56302128Y-7493063D01*
X56317524Y-7490000D01*
X57485001Y-7490000D01*
X57485000Y-11770000D01*
X56373467Y-11770000D01*
X56381524Y-11729491D01*
X56398289Y-11718289D01*
X56649146Y-11342855D01*
X56737235Y-10900000D01*
X56649146Y-10457145D01*
X56520759Y-10265000D01*
X56649146Y-10072855D01*
X56737235Y-9630000D01*
X56649146Y-9187145D01*
X56512801Y-8983090D01*
X56567127Y-8920209D01*
X56674119Y-8661874D01*
X56547954Y-8487000D01*
X55707000Y-8487000D01*
X55707000Y-8498027D01*
X55691783Y-8495000D01*
X55468217Y-8495000D01*
X55453000Y-8498027D01*
X55453000Y-8487000D01*
X54437000Y-8487000D01*
X54437000Y-8498027D01*
X54421783Y-8495000D01*
X54198217Y-8495000D01*
X54183000Y-8498027D01*
X54183000Y-8487000D01*
X53333750Y-8487000D01*
X53175000Y-8645750D01*
X53175000Y-8895000D01*
X53104447Y-8895000D01*
X51699446Y-7490000D01*
X53281974Y-7490000D01*
X53271673Y-7500301D01*
G04 #@! TO.N,/LEDBoard1/GND*
G36*
X6252560Y-15480000D02*
X6252560Y-17280000D01*
X6301843Y-17527765D01*
X6442191Y-17737809D01*
X6652235Y-17878157D01*
X6900000Y-17927440D01*
X8700000Y-17927440D01*
X8947765Y-17878157D01*
X9157809Y-17737809D01*
X9298157Y-17527765D01*
X9301275Y-17512092D01*
X9470493Y-17681310D01*
X9524232Y-17703570D01*
X9562424Y-17895569D01*
X9576998Y-17968838D01*
X9756024Y-18236769D01*
X9823654Y-18281958D01*
X10061696Y-18520000D01*
X3848026Y-18520000D01*
X3858327Y-18509699D01*
X3955000Y-18276310D01*
X3955000Y-17935750D01*
X3796250Y-17777000D01*
X2947000Y-17777000D01*
X2947000Y-17797000D01*
X2693000Y-17797000D01*
X2693000Y-17777000D01*
X1843750Y-17777000D01*
X1685000Y-17935750D01*
X1685000Y-18171664D01*
X1450490Y-18017913D01*
X1110421Y-17658928D01*
X932594Y-17352778D01*
X1324234Y-17515000D01*
X1775766Y-17515000D01*
X1818181Y-17497431D01*
X1843750Y-17523000D01*
X2693000Y-17523000D01*
X2693000Y-16673750D01*
X2947000Y-16673750D01*
X2947000Y-17523000D01*
X3796250Y-17523000D01*
X3955000Y-17364250D01*
X3955000Y-17023690D01*
X3858327Y-16790301D01*
X3679698Y-16611673D01*
X3446309Y-16515000D01*
X3105750Y-16515000D01*
X2947000Y-16673750D01*
X2693000Y-16673750D01*
X2667431Y-16648181D01*
X2685000Y-16605766D01*
X2685000Y-16245000D01*
X3045766Y-16245000D01*
X3462926Y-16072207D01*
X3617182Y-15917951D01*
X3843152Y-15873003D01*
X4111083Y-15693977D01*
X4156274Y-15626345D01*
X4492619Y-15290000D01*
X6290353Y-15290000D01*
X6252560Y-15480000D01*
X6252560Y-15480000D01*
G37*
X6252560Y-15480000D02*
X6252560Y-17280000D01*
X6301843Y-17527765D01*
X6442191Y-17737809D01*
X6652235Y-17878157D01*
X6900000Y-17927440D01*
X8700000Y-17927440D01*
X8947765Y-17878157D01*
X9157809Y-17737809D01*
X9298157Y-17527765D01*
X9301275Y-17512092D01*
X9470493Y-17681310D01*
X9524232Y-17703570D01*
X9562424Y-17895569D01*
X9576998Y-17968838D01*
X9756024Y-18236769D01*
X9823654Y-18281958D01*
X10061696Y-18520000D01*
X3848026Y-18520000D01*
X3858327Y-18509699D01*
X3955000Y-18276310D01*
X3955000Y-17935750D01*
X3796250Y-17777000D01*
X2947000Y-17777000D01*
X2947000Y-17797000D01*
X2693000Y-17797000D01*
X2693000Y-17777000D01*
X1843750Y-17777000D01*
X1685000Y-17935750D01*
X1685000Y-18171664D01*
X1450490Y-18017913D01*
X1110421Y-17658928D01*
X932594Y-17352778D01*
X1324234Y-17515000D01*
X1775766Y-17515000D01*
X1818181Y-17497431D01*
X1843750Y-17523000D01*
X2693000Y-17523000D01*
X2693000Y-16673750D01*
X2947000Y-16673750D01*
X2947000Y-17523000D01*
X3796250Y-17523000D01*
X3955000Y-17364250D01*
X3955000Y-17023690D01*
X3858327Y-16790301D01*
X3679698Y-16611673D01*
X3446309Y-16515000D01*
X3105750Y-16515000D01*
X2947000Y-16673750D01*
X2693000Y-16673750D01*
X2667431Y-16648181D01*
X2685000Y-16605766D01*
X2685000Y-16245000D01*
X3045766Y-16245000D01*
X3462926Y-16072207D01*
X3617182Y-15917951D01*
X3843152Y-15873003D01*
X4111083Y-15693977D01*
X4156274Y-15626345D01*
X4492619Y-15290000D01*
X6290353Y-15290000D01*
X6252560Y-15480000D01*
G36*
X53271673Y-14250301D02*
X53175000Y-14483690D01*
X53175000Y-14824250D01*
X53333750Y-14983000D01*
X54183000Y-14983000D01*
X54183000Y-14963000D01*
X54437000Y-14963000D01*
X54437000Y-14983000D01*
X55453000Y-14983000D01*
X55453000Y-14963000D01*
X55707000Y-14963000D01*
X55707000Y-14983000D01*
X56547954Y-14983000D01*
X56674119Y-14808126D01*
X56567127Y-14549791D01*
X56302128Y-14243063D01*
X56317524Y-14240000D01*
X57485001Y-14240000D01*
X57485000Y-18520000D01*
X56373467Y-18520000D01*
X56381524Y-18479491D01*
X56398289Y-18468289D01*
X56649146Y-18092855D01*
X56737235Y-17650000D01*
X56649146Y-17207145D01*
X56520759Y-17015000D01*
X56649146Y-16822855D01*
X56737235Y-16380000D01*
X56649146Y-15937145D01*
X56512801Y-15733090D01*
X56567127Y-15670209D01*
X56674119Y-15411874D01*
X56547954Y-15237000D01*
X55707000Y-15237000D01*
X55707000Y-15248027D01*
X55691783Y-15245000D01*
X55468217Y-15245000D01*
X55453000Y-15248027D01*
X55453000Y-15237000D01*
X54437000Y-15237000D01*
X54437000Y-15248027D01*
X54421783Y-15245000D01*
X54198217Y-15245000D01*
X54183000Y-15248027D01*
X54183000Y-15237000D01*
X53333750Y-15237000D01*
X53175000Y-15395750D01*
X53175000Y-15645000D01*
X53104447Y-15645000D01*
X51699446Y-14240000D01*
X53281974Y-14240000D01*
X53271673Y-14250301D01*
X53271673Y-14250301D01*
G37*
X53271673Y-14250301D02*
X53175000Y-14483690D01*
X53175000Y-14824250D01*
X53333750Y-14983000D01*
X54183000Y-14983000D01*
X54183000Y-14963000D01*
X54437000Y-14963000D01*
X54437000Y-14983000D01*
X55453000Y-14983000D01*
X55453000Y-14963000D01*
X55707000Y-14963000D01*
X55707000Y-14983000D01*
X56547954Y-14983000D01*
X56674119Y-14808126D01*
X56567127Y-14549791D01*
X56302128Y-14243063D01*
X56317524Y-14240000D01*
X57485001Y-14240000D01*
X57485000Y-18520000D01*
X56373467Y-18520000D01*
X56381524Y-18479491D01*
X56398289Y-18468289D01*
X56649146Y-18092855D01*
X56737235Y-17650000D01*
X56649146Y-17207145D01*
X56520759Y-17015000D01*
X56649146Y-16822855D01*
X56737235Y-16380000D01*
X56649146Y-15937145D01*
X56512801Y-15733090D01*
X56567127Y-15670209D01*
X56674119Y-15411874D01*
X56547954Y-15237000D01*
X55707000Y-15237000D01*
X55707000Y-15248027D01*
X55691783Y-15245000D01*
X55468217Y-15245000D01*
X55453000Y-15248027D01*
X55453000Y-15237000D01*
X54437000Y-15237000D01*
X54437000Y-15248027D01*
X54421783Y-15245000D01*
X54198217Y-15245000D01*
X54183000Y-15248027D01*
X54183000Y-15237000D01*
X53333750Y-15237000D01*
X53175000Y-15395750D01*
X53175000Y-15645000D01*
X53104447Y-15645000D01*
X51699446Y-14240000D01*
X53281974Y-14240000D01*
X53271673Y-14250301D01*
G04 #@! TD*
M02*
