G04 #@! TF.GenerationSoftware,KiCad,Pcbnew,(5.0.0)*
G04 #@! TF.CreationDate,2019-02-03T17:17:29-08:00*
G04 #@! TF.ProjectId,mlab100_LEDPCB_1.5,6D6C61623130305F4C45445043425F31,rev?*
G04 #@! TF.SameCoordinates,Original*
G04 #@! TF.FileFunction,Legend,Top*
G04 #@! TF.FilePolarity,Positive*
%FSLAX46Y46*%
G04 Gerber Fmt 4.6, Leading zero omitted, Abs format (unit mm)*
G04 Created by KiCad (PCBNEW (5.0.0)) date 02/03/19 17:17:29*
%MOMM*%
%LPD*%
G01*
G04 APERTURE LIST*
%ADD10C,0.120000*%
G04 APERTURE END LIST*
D10*
G04 #@! TO.C,D4*
X25060000Y-16380462D02*
G75*
G03X19510000Y-14835170I-2990000J462D01*
G01*
X25060000Y-16379538D02*
G75*
G02X19510000Y-17924830I-2990000J-462D01*
G01*
X24570000Y-16380000D02*
G75*
G03X24570000Y-16380000I-2500000J0D01*
G01*
X19510000Y-14835000D02*
X19510000Y-17925000D01*
G04 #@! TO.C,D1*
X12060000Y-16380462D02*
G75*
G03X6510000Y-14835170I-2990000J462D01*
G01*
X12060000Y-16379538D02*
G75*
G02X6510000Y-17924830I-2990000J-462D01*
G01*
X11570000Y-16380000D02*
G75*
G03X11570000Y-16380000I-2500000J0D01*
G01*
X6510000Y-14835000D02*
X6510000Y-17925000D01*
G04 #@! TO.C,D5*
X6510000Y-8085000D02*
X6510000Y-11175000D01*
X11570000Y-9630000D02*
G75*
G03X11570000Y-9630000I-2500000J0D01*
G01*
X12060000Y-9629538D02*
G75*
G02X6510000Y-11174830I-2990000J-462D01*
G01*
X12060000Y-9630462D02*
G75*
G03X6510000Y-8085170I-2990000J462D01*
G01*
G04 #@! TO.C,D2*
X13020000Y-14835000D02*
X13020000Y-17925000D01*
X18080000Y-16380000D02*
G75*
G03X18080000Y-16380000I-2500000J0D01*
G01*
X18570000Y-16379538D02*
G75*
G02X13020000Y-17924830I-2990000J-462D01*
G01*
X18570000Y-16380462D02*
G75*
G03X13020000Y-14835170I-2990000J462D01*
G01*
G04 #@! TO.C,D8*
X13020000Y-8085000D02*
X13020000Y-11175000D01*
X18080000Y-9630000D02*
G75*
G03X18080000Y-9630000I-2500000J0D01*
G01*
X18570000Y-9629538D02*
G75*
G02X13020000Y-11174830I-2990000J-462D01*
G01*
X18570000Y-9630462D02*
G75*
G03X13020000Y-8085170I-2990000J462D01*
G01*
G04 #@! TO.C,D9*
X25060000Y-9630462D02*
G75*
G03X19510000Y-8085170I-2990000J462D01*
G01*
X25060000Y-9629538D02*
G75*
G02X19510000Y-11174830I-2990000J-462D01*
G01*
X24570000Y-9630000D02*
G75*
G03X24570000Y-9630000I-2500000J0D01*
G01*
X19510000Y-8085000D02*
X19510000Y-11175000D01*
G04 #@! TO.C,D10*
X6510000Y-1345000D02*
X6510000Y-4435000D01*
X11570000Y-2890000D02*
G75*
G03X11570000Y-2890000I-2500000J0D01*
G01*
X12060000Y-2889538D02*
G75*
G02X6510000Y-4434830I-2990000J-462D01*
G01*
X12060000Y-2890462D02*
G75*
G03X6510000Y-1345170I-2990000J462D01*
G01*
G04 #@! TO.C,D11*
X18560000Y-2890462D02*
G75*
G03X13010000Y-1345170I-2990000J462D01*
G01*
X18560000Y-2889538D02*
G75*
G02X13010000Y-4434830I-2990000J-462D01*
G01*
X18070000Y-2890000D02*
G75*
G03X18070000Y-2890000I-2500000J0D01*
G01*
X13010000Y-1345000D02*
X13010000Y-4435000D01*
G04 #@! TO.C,D12*
X25060000Y-2890462D02*
G75*
G03X19510000Y-1345170I-2990000J462D01*
G01*
X25060000Y-2889538D02*
G75*
G02X19510000Y-4434830I-2990000J-462D01*
G01*
X24570000Y-2890000D02*
G75*
G03X24570000Y-2890000I-2500000J0D01*
G01*
X19510000Y-1345000D02*
X19510000Y-4435000D01*
G04 #@! TO.C,J14*
X53550000Y-14350000D02*
X54310000Y-14350000D01*
X53550000Y-15110000D02*
X53550000Y-14350000D01*
X61140000Y-17910000D02*
X57140000Y-17910000D01*
X61140000Y-17390000D02*
X61140000Y-17910000D01*
X57140000Y-17390000D02*
X61140000Y-17390000D01*
X56020000Y-16999677D02*
X56020000Y-17030323D01*
X56020000Y-17015000D02*
X57140000Y-17015000D01*
X61140000Y-16640000D02*
X57140000Y-16640000D01*
X61140000Y-16120000D02*
X61140000Y-16640000D01*
X57140000Y-16120000D02*
X61140000Y-16120000D01*
X56020000Y-15729677D02*
X56020000Y-15760323D01*
X56020000Y-15745000D02*
X57140000Y-15745000D01*
X57140000Y-15270000D02*
X61140000Y-15270000D01*
X57140000Y-15150000D02*
X61140000Y-15150000D01*
X57140000Y-15030000D02*
X61140000Y-15030000D01*
X57140000Y-14910000D02*
X61140000Y-14910000D01*
X61140000Y-15370000D02*
X57140000Y-15370000D01*
X61140000Y-14850000D02*
X61140000Y-15370000D01*
X57140000Y-14850000D02*
X61140000Y-14850000D01*
X56020000Y-18345000D02*
X56020000Y-18269677D01*
X57140000Y-18345000D02*
X56020000Y-18345000D01*
X57140000Y-14415000D02*
X57140000Y-18345000D01*
X56020000Y-14415000D02*
X57140000Y-14415000D01*
X56020000Y-14490323D02*
X56020000Y-14415000D01*
G04 #@! TO.C,J15*
X56020000Y-7740323D02*
X56020000Y-7665000D01*
X56020000Y-7665000D02*
X57140000Y-7665000D01*
X57140000Y-7665000D02*
X57140000Y-11595000D01*
X57140000Y-11595000D02*
X56020000Y-11595000D01*
X56020000Y-11595000D02*
X56020000Y-11519677D01*
X57140000Y-8100000D02*
X61140000Y-8100000D01*
X61140000Y-8100000D02*
X61140000Y-8620000D01*
X61140000Y-8620000D02*
X57140000Y-8620000D01*
X57140000Y-8160000D02*
X61140000Y-8160000D01*
X57140000Y-8280000D02*
X61140000Y-8280000D01*
X57140000Y-8400000D02*
X61140000Y-8400000D01*
X57140000Y-8520000D02*
X61140000Y-8520000D01*
X56020000Y-8995000D02*
X57140000Y-8995000D01*
X56020000Y-8979677D02*
X56020000Y-9010323D01*
X57140000Y-9370000D02*
X61140000Y-9370000D01*
X61140000Y-9370000D02*
X61140000Y-9890000D01*
X61140000Y-9890000D02*
X57140000Y-9890000D01*
X56020000Y-10265000D02*
X57140000Y-10265000D01*
X56020000Y-10249677D02*
X56020000Y-10280323D01*
X57140000Y-10640000D02*
X61140000Y-10640000D01*
X61140000Y-10640000D02*
X61140000Y-11160000D01*
X61140000Y-11160000D02*
X57140000Y-11160000D01*
X53550000Y-8360000D02*
X53550000Y-7600000D01*
X53550000Y-7600000D02*
X54310000Y-7600000D01*
G04 #@! TO.C,J16*
X53550000Y-860000D02*
X54310000Y-860000D01*
X53550000Y-1620000D02*
X53550000Y-860000D01*
X61140000Y-4420000D02*
X57140000Y-4420000D01*
X61140000Y-3900000D02*
X61140000Y-4420000D01*
X57140000Y-3900000D02*
X61140000Y-3900000D01*
X56020000Y-3509677D02*
X56020000Y-3540323D01*
X56020000Y-3525000D02*
X57140000Y-3525000D01*
X61140000Y-3150000D02*
X57140000Y-3150000D01*
X61140000Y-2630000D02*
X61140000Y-3150000D01*
X57140000Y-2630000D02*
X61140000Y-2630000D01*
X56020000Y-2239677D02*
X56020000Y-2270323D01*
X56020000Y-2255000D02*
X57140000Y-2255000D01*
X57140000Y-1780000D02*
X61140000Y-1780000D01*
X57140000Y-1660000D02*
X61140000Y-1660000D01*
X57140000Y-1540000D02*
X61140000Y-1540000D01*
X57140000Y-1420000D02*
X61140000Y-1420000D01*
X61140000Y-1880000D02*
X57140000Y-1880000D01*
X61140000Y-1360000D02*
X61140000Y-1880000D01*
X57140000Y-1360000D02*
X61140000Y-1360000D01*
X56020000Y-4855000D02*
X56020000Y-4779677D01*
X57140000Y-4855000D02*
X56020000Y-4855000D01*
X57140000Y-925000D02*
X57140000Y-4855000D01*
X56020000Y-925000D02*
X57140000Y-925000D01*
X56020000Y-1000323D02*
X56020000Y-925000D01*
G04 #@! TO.C,U4*
X4658478Y-14541522D02*
G75*
G03X220000Y-16380000I-1838478J-1838478D01*
G01*
X4658478Y-18218478D02*
G75*
G02X220000Y-16380000I-1838478J1838478D01*
G01*
X4670000Y-18180000D02*
X4670000Y-14580000D01*
G04 #@! TO.C,U5*
X4670000Y-11430000D02*
X4670000Y-7830000D01*
X4658478Y-11468478D02*
G75*
G02X220000Y-9630000I-1838478J1838478D01*
G01*
X4658478Y-7791522D02*
G75*
G03X220000Y-9630000I-1838478J-1838478D01*
G01*
G04 #@! TO.C,U6*
X4658478Y-1051522D02*
G75*
G03X220000Y-2890000I-1838478J-1838478D01*
G01*
X4658478Y-4728478D02*
G75*
G02X220000Y-2890000I-1838478J1838478D01*
G01*
X4670000Y-4690000D02*
X4670000Y-1090000D01*
G04 #@! TO.C,R1*
X41820000Y-14900000D02*
X43820000Y-14900000D01*
X43820000Y-17860000D02*
X41820000Y-17860000D01*
G04 #@! TO.C,R2*
X43820000Y-11110000D02*
X41820000Y-11110000D01*
X41820000Y-8150000D02*
X43820000Y-8150000D01*
G04 #@! TO.C,R3*
X41820000Y-1410000D02*
X43820000Y-1410000D01*
X43820000Y-4370000D02*
X41820000Y-4370000D01*
G04 #@! TD*
M02*
