G04 #@! TF.GenerationSoftware,KiCad,Pcbnew,(5.0.0)*
G04 #@! TF.CreationDate,2019-02-03T17:17:29-08:00*
G04 #@! TF.ProjectId,mlab100_LEDPCB_1.5,6D6C61623130305F4C45445043425F31,rev?*
G04 #@! TF.SameCoordinates,Original*
G04 #@! TF.FileFunction,Copper,L2,Bot,Signal*
G04 #@! TF.FilePolarity,Positive*
%FSLAX46Y46*%
G04 Gerber Fmt 4.6, Leading zero omitted, Abs format (unit mm)*
G04 Created by KiCad (PCBNEW (5.0.0)) date 02/03/19 17:17:29*
%MOMM*%
%LPD*%
G01*
G04 APERTURE LIST*
G04 #@! TA.AperFunction,ComponentPad*
%ADD10R,1.800000X1.800000*%
G04 #@! TD*
G04 #@! TA.AperFunction,ComponentPad*
%ADD11C,1.800000*%
G04 #@! TD*
G04 #@! TA.AperFunction,ComponentPad*
%ADD12O,1.000000X1.000000*%
G04 #@! TD*
G04 #@! TA.AperFunction,ComponentPad*
%ADD13R,1.000000X1.000000*%
G04 #@! TD*
G04 #@! TA.AperFunction,ComponentPad*
%ADD14C,1.000000*%
G04 #@! TD*
G04 #@! TA.AperFunction,ViaPad*
%ADD15C,0.800000*%
G04 #@! TD*
G04 #@! TA.AperFunction,Conductor*
%ADD16C,0.350000*%
G04 #@! TD*
G04 #@! TA.AperFunction,Conductor*
%ADD17C,0.254000*%
G04 #@! TD*
G04 APERTURE END LIST*
D10*
G04 #@! TO.P,D4,1*
G04 #@! TO.N,Net-(D4-Pad1)*
X20800000Y-16380000D03*
D11*
G04 #@! TO.P,D4,2*
G04 #@! TO.N,Net-(D2-Pad1)*
X23340000Y-16380000D03*
G04 #@! TD*
D10*
G04 #@! TO.P,D1,1*
G04 #@! TO.N,Net-(D1-Pad1)*
X7800000Y-16380000D03*
D11*
G04 #@! TO.P,D1,2*
G04 #@! TO.N,/LEDBoard1/12V*
X10340000Y-16380000D03*
G04 #@! TD*
G04 #@! TO.P,D5,2*
G04 #@! TO.N,/LEDBoard2/12V*
X10340000Y-9630000D03*
D10*
G04 #@! TO.P,D5,1*
G04 #@! TO.N,Net-(D5-Pad1)*
X7800000Y-9630000D03*
G04 #@! TD*
D11*
G04 #@! TO.P,D2,2*
G04 #@! TO.N,Net-(D1-Pad1)*
X16850000Y-16380000D03*
D10*
G04 #@! TO.P,D2,1*
G04 #@! TO.N,Net-(D2-Pad1)*
X14310000Y-16380000D03*
G04 #@! TD*
D11*
G04 #@! TO.P,D8,2*
G04 #@! TO.N,Net-(D5-Pad1)*
X16850000Y-9630000D03*
D10*
G04 #@! TO.P,D8,1*
G04 #@! TO.N,Net-(D8-Pad1)*
X14310000Y-9630000D03*
G04 #@! TD*
G04 #@! TO.P,D9,1*
G04 #@! TO.N,Net-(D9-Pad1)*
X20800000Y-9630000D03*
D11*
G04 #@! TO.P,D9,2*
G04 #@! TO.N,Net-(D8-Pad1)*
X23340000Y-9630000D03*
G04 #@! TD*
G04 #@! TO.P,D10,2*
G04 #@! TO.N,/LEDBoard3/12V*
X10340000Y-2890000D03*
D10*
G04 #@! TO.P,D10,1*
G04 #@! TO.N,Net-(D10-Pad1)*
X7800000Y-2890000D03*
G04 #@! TD*
G04 #@! TO.P,D11,1*
G04 #@! TO.N,Net-(D11-Pad1)*
X14300000Y-2890000D03*
D11*
G04 #@! TO.P,D11,2*
G04 #@! TO.N,Net-(D10-Pad1)*
X16840000Y-2890000D03*
G04 #@! TD*
D10*
G04 #@! TO.P,D12,1*
G04 #@! TO.N,Net-(D12-Pad1)*
X20800000Y-2890000D03*
D11*
G04 #@! TO.P,D12,2*
G04 #@! TO.N,Net-(D11-Pad1)*
X23340000Y-2890000D03*
G04 #@! TD*
D12*
G04 #@! TO.P,J14,6*
G04 #@! TO.N,/LEDBoard1/12V*
X55580000Y-17650000D03*
G04 #@! TO.P,J14,5*
G04 #@! TO.N,/LEDBoard1/3V3*
X54310000Y-17650000D03*
G04 #@! TO.P,J14,4*
G04 #@! TO.N,/LEDBoard1/LED*
X55580000Y-16380000D03*
G04 #@! TO.P,J14,3*
G04 #@! TO.N,/LEDBoard1/Temp1w*
X54310000Y-16380000D03*
G04 #@! TO.P,J14,2*
G04 #@! TO.N,/LEDBoard1/GND*
X55580000Y-15110000D03*
D13*
G04 #@! TO.P,J14,1*
X54310000Y-15110000D03*
G04 #@! TD*
G04 #@! TO.P,J15,1*
G04 #@! TO.N,/LEDBoard2/GND*
X54310000Y-8360000D03*
D12*
G04 #@! TO.P,J15,2*
X55580000Y-8360000D03*
G04 #@! TO.P,J15,3*
G04 #@! TO.N,/LEDBoard2/Temp1w*
X54310000Y-9630000D03*
G04 #@! TO.P,J15,4*
G04 #@! TO.N,/LEDBoard2/LED*
X55580000Y-9630000D03*
G04 #@! TO.P,J15,5*
G04 #@! TO.N,/LEDBoard2/3V3*
X54310000Y-10900000D03*
G04 #@! TO.P,J15,6*
G04 #@! TO.N,/LEDBoard2/12V*
X55580000Y-10900000D03*
G04 #@! TD*
G04 #@! TO.P,J16,6*
G04 #@! TO.N,/LEDBoard3/12V*
X55580000Y-4160000D03*
G04 #@! TO.P,J16,5*
G04 #@! TO.N,/LEDBoard3/3V3*
X54310000Y-4160000D03*
G04 #@! TO.P,J16,4*
G04 #@! TO.N,/LEDBoard3/LED*
X55580000Y-2890000D03*
G04 #@! TO.P,J16,3*
G04 #@! TO.N,/LEDBoard3/Temp1w*
X54310000Y-2890000D03*
G04 #@! TO.P,J16,2*
G04 #@! TO.N,/LEDBoard3/GND*
X55580000Y-1620000D03*
D13*
G04 #@! TO.P,J16,1*
X54310000Y-1620000D03*
G04 #@! TD*
G04 #@! TO.P,U4,1*
G04 #@! TO.N,/LEDBoard1/GND*
X2820000Y-17650000D03*
D14*
G04 #@! TO.P,U4,3*
G04 #@! TO.N,/LEDBoard1/3V3*
X2820000Y-15110000D03*
G04 #@! TO.P,U4,2*
G04 #@! TO.N,/LEDBoard1/Temp1w*
X1550000Y-16380000D03*
G04 #@! TD*
G04 #@! TO.P,U5,2*
G04 #@! TO.N,/LEDBoard2/Temp1w*
X1550000Y-9630000D03*
G04 #@! TO.P,U5,3*
G04 #@! TO.N,/LEDBoard2/3V3*
X2820000Y-8360000D03*
D13*
G04 #@! TO.P,U5,1*
G04 #@! TO.N,/LEDBoard2/GND*
X2820000Y-10900000D03*
G04 #@! TD*
G04 #@! TO.P,U6,1*
G04 #@! TO.N,/LEDBoard3/GND*
X2820000Y-4160000D03*
D14*
G04 #@! TO.P,U6,3*
G04 #@! TO.N,/LEDBoard3/3V3*
X2820000Y-1620000D03*
G04 #@! TO.P,U6,2*
G04 #@! TO.N,/LEDBoard3/Temp1w*
X1550000Y-2890000D03*
G04 #@! TD*
D15*
G04 #@! TO.N,/LEDBoard1/LED*
X47070000Y-16380000D03*
G04 #@! TO.N,/LEDBoard2/LED*
X47070000Y-9630000D03*
G04 #@! TO.N,/LEDBoard3/LED*
X47070000Y-2890000D03*
G04 #@! TD*
D16*
G04 #@! TO.N,/LEDBoard1/LED*
X49215001Y-14234999D02*
X49570000Y-14234999D01*
X55580000Y-16380000D02*
X56455001Y-15504999D01*
X56455001Y-15504999D02*
X56455001Y-14615001D01*
X47070000Y-16380000D02*
X49215001Y-14234999D01*
X56455001Y-14615001D02*
X56074999Y-14234999D01*
X56074999Y-14234999D02*
X49570000Y-14234999D01*
G04 #@! TO.N,/LEDBoard2/LED*
X47070000Y-9630000D02*
X49215001Y-7484999D01*
X56074999Y-7484999D02*
X49570000Y-7484999D01*
X49215001Y-7484999D02*
X49570000Y-7484999D01*
X55580000Y-9630000D02*
X56455001Y-8754999D01*
X56455001Y-8754999D02*
X56455001Y-7865001D01*
X56455001Y-7865001D02*
X56074999Y-7484999D01*
G04 #@! TO.N,/LEDBoard3/LED*
X56455001Y-2014999D02*
X56455001Y-1125001D01*
X55580000Y-2890000D02*
X56455001Y-2014999D01*
X56455001Y-1125001D02*
X56074999Y-744999D01*
X49215001Y-744999D02*
X49570000Y-744999D01*
X47070000Y-2890000D02*
X49215001Y-744999D01*
X56074999Y-744999D02*
X49570000Y-744999D01*
G04 #@! TD*
D17*
G04 #@! TO.N,/LEDBoard3/GND*
G36*
X46959488Y-1855000D02*
X46864126Y-1855000D01*
X46483720Y-2012569D01*
X46192569Y-2303720D01*
X46035000Y-2684126D01*
X46035000Y-3095874D01*
X46192569Y-3476280D01*
X46483720Y-3767431D01*
X46864126Y-3925000D01*
X47275874Y-3925000D01*
X47656280Y-3767431D01*
X47947431Y-3476280D01*
X48105000Y-3095874D01*
X48105000Y-3000512D01*
X49550514Y-1554999D01*
X55645002Y-1554999D01*
X55645001Y-1679486D01*
X55569487Y-1755000D01*
X55468217Y-1755000D01*
X55453000Y-1758027D01*
X55453000Y-1747000D01*
X54437000Y-1747000D01*
X54437000Y-1758027D01*
X54421783Y-1755000D01*
X54198217Y-1755000D01*
X54183000Y-1758027D01*
X54183000Y-1747000D01*
X53333750Y-1747000D01*
X53175000Y-1905750D01*
X53175000Y-2246310D01*
X53251555Y-2431130D01*
X53240854Y-2447145D01*
X53152765Y-2890000D01*
X53240854Y-3332855D01*
X53369241Y-3525000D01*
X53240854Y-3717145D01*
X53152765Y-4160000D01*
X53240854Y-4602855D01*
X53491711Y-4978289D01*
X53576585Y-5035000D01*
X31542661Y-5035000D01*
X31420000Y-5010601D01*
X31133218Y-5067646D01*
X30922484Y-5208454D01*
X30696783Y-5057646D01*
X30410000Y-5000601D01*
X30237066Y-5035000D01*
X5052934Y-5035000D01*
X4880000Y-5000601D01*
X4593218Y-5057646D01*
X4382484Y-5198454D01*
X4156783Y-5047646D01*
X3870351Y-4990671D01*
X3955000Y-4786310D01*
X3955000Y-4445750D01*
X3796250Y-4287000D01*
X2947000Y-4287000D01*
X2947000Y-4307000D01*
X2693000Y-4307000D01*
X2693000Y-4287000D01*
X1843750Y-4287000D01*
X1685000Y-4445750D01*
X1685000Y-4681664D01*
X1450490Y-4527913D01*
X1110421Y-4168928D01*
X932594Y-3862778D01*
X1324234Y-4025000D01*
X1775766Y-4025000D01*
X1818181Y-4007431D01*
X1843750Y-4033000D01*
X2693000Y-4033000D01*
X2693000Y-3183750D01*
X2947000Y-3183750D01*
X2947000Y-4033000D01*
X3796250Y-4033000D01*
X3955000Y-3874250D01*
X3955000Y-3533690D01*
X3858327Y-3300301D01*
X3679698Y-3121673D01*
X3446309Y-3025000D01*
X3105750Y-3025000D01*
X2947000Y-3183750D01*
X2693000Y-3183750D01*
X2667431Y-3158181D01*
X2685000Y-3115766D01*
X2685000Y-2755000D01*
X3045766Y-2755000D01*
X3462926Y-2582207D01*
X3782207Y-2262926D01*
X3895256Y-1990000D01*
X6252560Y-1990000D01*
X6252560Y-3790000D01*
X6301843Y-4037765D01*
X6442191Y-4247809D01*
X6652235Y-4388157D01*
X6900000Y-4437440D01*
X8700000Y-4437440D01*
X8947765Y-4388157D01*
X9157809Y-4247809D01*
X9298157Y-4037765D01*
X9301275Y-4022092D01*
X9470493Y-4191310D01*
X10034670Y-4425000D01*
X10645330Y-4425000D01*
X11209507Y-4191310D01*
X11641310Y-3759507D01*
X11875000Y-3195330D01*
X11875000Y-2584670D01*
X11641310Y-2020493D01*
X11610817Y-1990000D01*
X12752560Y-1990000D01*
X12752560Y-3790000D01*
X12801843Y-4037765D01*
X12942191Y-4247809D01*
X13152235Y-4388157D01*
X13400000Y-4437440D01*
X15200000Y-4437440D01*
X15447765Y-4388157D01*
X15657809Y-4247809D01*
X15798157Y-4037765D01*
X15801275Y-4022092D01*
X15970493Y-4191310D01*
X16534670Y-4425000D01*
X17145330Y-4425000D01*
X17709507Y-4191310D01*
X18141310Y-3759507D01*
X18375000Y-3195330D01*
X18375000Y-2584670D01*
X18141310Y-2020493D01*
X18110817Y-1990000D01*
X19252560Y-1990000D01*
X19252560Y-3790000D01*
X19301843Y-4037765D01*
X19442191Y-4247809D01*
X19652235Y-4388157D01*
X19900000Y-4437440D01*
X21700000Y-4437440D01*
X21947765Y-4388157D01*
X22157809Y-4247809D01*
X22298157Y-4037765D01*
X22301275Y-4022092D01*
X22470493Y-4191310D01*
X23034670Y-4425000D01*
X23645330Y-4425000D01*
X24209507Y-4191310D01*
X24641310Y-3759507D01*
X24875000Y-3195330D01*
X24875000Y-2584670D01*
X24641310Y-2020493D01*
X24209507Y-1588690D01*
X23645330Y-1355000D01*
X23034670Y-1355000D01*
X22470493Y-1588690D01*
X22301275Y-1757908D01*
X22298157Y-1742235D01*
X22157809Y-1532191D01*
X21947765Y-1391843D01*
X21700000Y-1342560D01*
X19900000Y-1342560D01*
X19652235Y-1391843D01*
X19442191Y-1532191D01*
X19301843Y-1742235D01*
X19252560Y-1990000D01*
X18110817Y-1990000D01*
X17709507Y-1588690D01*
X17145330Y-1355000D01*
X16534670Y-1355000D01*
X15970493Y-1588690D01*
X15801275Y-1757908D01*
X15798157Y-1742235D01*
X15657809Y-1532191D01*
X15447765Y-1391843D01*
X15200000Y-1342560D01*
X13400000Y-1342560D01*
X13152235Y-1391843D01*
X12942191Y-1532191D01*
X12801843Y-1742235D01*
X12752560Y-1990000D01*
X11610817Y-1990000D01*
X11209507Y-1588690D01*
X10645330Y-1355000D01*
X10034670Y-1355000D01*
X9470493Y-1588690D01*
X9301275Y-1757908D01*
X9298157Y-1742235D01*
X9157809Y-1532191D01*
X8947765Y-1391843D01*
X8700000Y-1342560D01*
X6900000Y-1342560D01*
X6652235Y-1391843D01*
X6442191Y-1532191D01*
X6301843Y-1742235D01*
X6252560Y-1990000D01*
X3895256Y-1990000D01*
X3955000Y-1845766D01*
X3955000Y-1394234D01*
X3782207Y-977074D01*
X3555133Y-750000D01*
X48064487Y-750000D01*
X46959488Y-1855000D01*
X46959488Y-1855000D01*
G37*
X46959488Y-1855000D02*
X46864126Y-1855000D01*
X46483720Y-2012569D01*
X46192569Y-2303720D01*
X46035000Y-2684126D01*
X46035000Y-3095874D01*
X46192569Y-3476280D01*
X46483720Y-3767431D01*
X46864126Y-3925000D01*
X47275874Y-3925000D01*
X47656280Y-3767431D01*
X47947431Y-3476280D01*
X48105000Y-3095874D01*
X48105000Y-3000512D01*
X49550514Y-1554999D01*
X55645002Y-1554999D01*
X55645001Y-1679486D01*
X55569487Y-1755000D01*
X55468217Y-1755000D01*
X55453000Y-1758027D01*
X55453000Y-1747000D01*
X54437000Y-1747000D01*
X54437000Y-1758027D01*
X54421783Y-1755000D01*
X54198217Y-1755000D01*
X54183000Y-1758027D01*
X54183000Y-1747000D01*
X53333750Y-1747000D01*
X53175000Y-1905750D01*
X53175000Y-2246310D01*
X53251555Y-2431130D01*
X53240854Y-2447145D01*
X53152765Y-2890000D01*
X53240854Y-3332855D01*
X53369241Y-3525000D01*
X53240854Y-3717145D01*
X53152765Y-4160000D01*
X53240854Y-4602855D01*
X53491711Y-4978289D01*
X53576585Y-5035000D01*
X31542661Y-5035000D01*
X31420000Y-5010601D01*
X31133218Y-5067646D01*
X30922484Y-5208454D01*
X30696783Y-5057646D01*
X30410000Y-5000601D01*
X30237066Y-5035000D01*
X5052934Y-5035000D01*
X4880000Y-5000601D01*
X4593218Y-5057646D01*
X4382484Y-5198454D01*
X4156783Y-5047646D01*
X3870351Y-4990671D01*
X3955000Y-4786310D01*
X3955000Y-4445750D01*
X3796250Y-4287000D01*
X2947000Y-4287000D01*
X2947000Y-4307000D01*
X2693000Y-4307000D01*
X2693000Y-4287000D01*
X1843750Y-4287000D01*
X1685000Y-4445750D01*
X1685000Y-4681664D01*
X1450490Y-4527913D01*
X1110421Y-4168928D01*
X932594Y-3862778D01*
X1324234Y-4025000D01*
X1775766Y-4025000D01*
X1818181Y-4007431D01*
X1843750Y-4033000D01*
X2693000Y-4033000D01*
X2693000Y-3183750D01*
X2947000Y-3183750D01*
X2947000Y-4033000D01*
X3796250Y-4033000D01*
X3955000Y-3874250D01*
X3955000Y-3533690D01*
X3858327Y-3300301D01*
X3679698Y-3121673D01*
X3446309Y-3025000D01*
X3105750Y-3025000D01*
X2947000Y-3183750D01*
X2693000Y-3183750D01*
X2667431Y-3158181D01*
X2685000Y-3115766D01*
X2685000Y-2755000D01*
X3045766Y-2755000D01*
X3462926Y-2582207D01*
X3782207Y-2262926D01*
X3895256Y-1990000D01*
X6252560Y-1990000D01*
X6252560Y-3790000D01*
X6301843Y-4037765D01*
X6442191Y-4247809D01*
X6652235Y-4388157D01*
X6900000Y-4437440D01*
X8700000Y-4437440D01*
X8947765Y-4388157D01*
X9157809Y-4247809D01*
X9298157Y-4037765D01*
X9301275Y-4022092D01*
X9470493Y-4191310D01*
X10034670Y-4425000D01*
X10645330Y-4425000D01*
X11209507Y-4191310D01*
X11641310Y-3759507D01*
X11875000Y-3195330D01*
X11875000Y-2584670D01*
X11641310Y-2020493D01*
X11610817Y-1990000D01*
X12752560Y-1990000D01*
X12752560Y-3790000D01*
X12801843Y-4037765D01*
X12942191Y-4247809D01*
X13152235Y-4388157D01*
X13400000Y-4437440D01*
X15200000Y-4437440D01*
X15447765Y-4388157D01*
X15657809Y-4247809D01*
X15798157Y-4037765D01*
X15801275Y-4022092D01*
X15970493Y-4191310D01*
X16534670Y-4425000D01*
X17145330Y-4425000D01*
X17709507Y-4191310D01*
X18141310Y-3759507D01*
X18375000Y-3195330D01*
X18375000Y-2584670D01*
X18141310Y-2020493D01*
X18110817Y-1990000D01*
X19252560Y-1990000D01*
X19252560Y-3790000D01*
X19301843Y-4037765D01*
X19442191Y-4247809D01*
X19652235Y-4388157D01*
X19900000Y-4437440D01*
X21700000Y-4437440D01*
X21947765Y-4388157D01*
X22157809Y-4247809D01*
X22298157Y-4037765D01*
X22301275Y-4022092D01*
X22470493Y-4191310D01*
X23034670Y-4425000D01*
X23645330Y-4425000D01*
X24209507Y-4191310D01*
X24641310Y-3759507D01*
X24875000Y-3195330D01*
X24875000Y-2584670D01*
X24641310Y-2020493D01*
X24209507Y-1588690D01*
X23645330Y-1355000D01*
X23034670Y-1355000D01*
X22470493Y-1588690D01*
X22301275Y-1757908D01*
X22298157Y-1742235D01*
X22157809Y-1532191D01*
X21947765Y-1391843D01*
X21700000Y-1342560D01*
X19900000Y-1342560D01*
X19652235Y-1391843D01*
X19442191Y-1532191D01*
X19301843Y-1742235D01*
X19252560Y-1990000D01*
X18110817Y-1990000D01*
X17709507Y-1588690D01*
X17145330Y-1355000D01*
X16534670Y-1355000D01*
X15970493Y-1588690D01*
X15801275Y-1757908D01*
X15798157Y-1742235D01*
X15657809Y-1532191D01*
X15447765Y-1391843D01*
X15200000Y-1342560D01*
X13400000Y-1342560D01*
X13152235Y-1391843D01*
X12942191Y-1532191D01*
X12801843Y-1742235D01*
X12752560Y-1990000D01*
X11610817Y-1990000D01*
X11209507Y-1588690D01*
X10645330Y-1355000D01*
X10034670Y-1355000D01*
X9470493Y-1588690D01*
X9301275Y-1757908D01*
X9298157Y-1742235D01*
X9157809Y-1532191D01*
X8947765Y-1391843D01*
X8700000Y-1342560D01*
X6900000Y-1342560D01*
X6652235Y-1391843D01*
X6442191Y-1532191D01*
X6301843Y-1742235D01*
X6252560Y-1990000D01*
X3895256Y-1990000D01*
X3955000Y-1845766D01*
X3955000Y-1394234D01*
X3782207Y-977074D01*
X3555133Y-750000D01*
X48064487Y-750000D01*
X46959488Y-1855000D01*
G04 #@! TO.N,/LEDBoard2/GND*
G36*
X4593217Y-7447354D02*
X4807612Y-7490000D01*
X4832748Y-7490000D01*
X4880000Y-7499399D01*
X4927252Y-7490000D01*
X30312475Y-7490000D01*
X30410000Y-7509399D01*
X30696782Y-7452354D01*
X30915000Y-7306546D01*
X31133217Y-7452354D01*
X31420000Y-7509399D01*
X31517524Y-7490000D01*
X48064487Y-7490000D01*
X46959488Y-8595000D01*
X46864126Y-8595000D01*
X46483720Y-8752569D01*
X46192569Y-9043720D01*
X46035000Y-9424126D01*
X46035000Y-9835874D01*
X46192569Y-10216280D01*
X46483720Y-10507431D01*
X46864126Y-10665000D01*
X47275874Y-10665000D01*
X47656280Y-10507431D01*
X47947431Y-10216280D01*
X48105000Y-9835874D01*
X48105000Y-9740512D01*
X49550514Y-8294999D01*
X55645002Y-8294999D01*
X55645001Y-8419486D01*
X55569487Y-8495000D01*
X55468217Y-8495000D01*
X55453000Y-8498027D01*
X55453000Y-8487000D01*
X54437000Y-8487000D01*
X54437000Y-8498027D01*
X54421783Y-8495000D01*
X54198217Y-8495000D01*
X54183000Y-8498027D01*
X54183000Y-8487000D01*
X53333750Y-8487000D01*
X53175000Y-8645750D01*
X53175000Y-8986310D01*
X53251555Y-9171130D01*
X53240854Y-9187145D01*
X53152765Y-9630000D01*
X53240854Y-10072855D01*
X53369241Y-10265000D01*
X53240854Y-10457145D01*
X53152765Y-10900000D01*
X53240854Y-11342855D01*
X53491711Y-11718289D01*
X53569102Y-11770000D01*
X31517525Y-11770000D01*
X31420000Y-11750601D01*
X31133218Y-11807646D01*
X30922484Y-11948454D01*
X30696783Y-11797646D01*
X30410000Y-11740601D01*
X30262203Y-11770000D01*
X4927252Y-11770000D01*
X4880000Y-11760601D01*
X4832748Y-11770000D01*
X4807612Y-11770000D01*
X4593217Y-11812646D01*
X4378742Y-11955954D01*
X4156783Y-11807646D01*
X3870000Y-11750601D01*
X3861386Y-11752314D01*
X3955000Y-11526310D01*
X3955000Y-11185750D01*
X3796250Y-11027000D01*
X2947000Y-11027000D01*
X2947000Y-11047000D01*
X2693000Y-11047000D01*
X2693000Y-11027000D01*
X1843750Y-11027000D01*
X1685000Y-11185750D01*
X1685000Y-11421664D01*
X1450490Y-11267913D01*
X1110421Y-10908928D01*
X932594Y-10602778D01*
X1324234Y-10765000D01*
X1775766Y-10765000D01*
X1818181Y-10747431D01*
X1843750Y-10773000D01*
X2693000Y-10773000D01*
X2693000Y-9923750D01*
X2947000Y-9923750D01*
X2947000Y-10773000D01*
X3796250Y-10773000D01*
X3955000Y-10614250D01*
X3955000Y-10273690D01*
X3858327Y-10040301D01*
X3679698Y-9861673D01*
X3446309Y-9765000D01*
X3105750Y-9765000D01*
X2947000Y-9923750D01*
X2693000Y-9923750D01*
X2667431Y-9898181D01*
X2685000Y-9855766D01*
X2685000Y-9495000D01*
X3045766Y-9495000D01*
X3462926Y-9322207D01*
X3782207Y-9002926D01*
X3895256Y-8730000D01*
X6252560Y-8730000D01*
X6252560Y-10530000D01*
X6301843Y-10777765D01*
X6442191Y-10987809D01*
X6652235Y-11128157D01*
X6900000Y-11177440D01*
X8700000Y-11177440D01*
X8947765Y-11128157D01*
X9157809Y-10987809D01*
X9298157Y-10777765D01*
X9301275Y-10762092D01*
X9470493Y-10931310D01*
X10034670Y-11165000D01*
X10645330Y-11165000D01*
X11209507Y-10931310D01*
X11641310Y-10499507D01*
X11875000Y-9935330D01*
X11875000Y-9324670D01*
X11641310Y-8760493D01*
X11610817Y-8730000D01*
X12762560Y-8730000D01*
X12762560Y-10530000D01*
X12811843Y-10777765D01*
X12952191Y-10987809D01*
X13162235Y-11128157D01*
X13410000Y-11177440D01*
X15210000Y-11177440D01*
X15457765Y-11128157D01*
X15667809Y-10987809D01*
X15808157Y-10777765D01*
X15811275Y-10762092D01*
X15980493Y-10931310D01*
X16544670Y-11165000D01*
X17155330Y-11165000D01*
X17719507Y-10931310D01*
X18151310Y-10499507D01*
X18385000Y-9935330D01*
X18385000Y-9324670D01*
X18151310Y-8760493D01*
X18120817Y-8730000D01*
X19252560Y-8730000D01*
X19252560Y-10530000D01*
X19301843Y-10777765D01*
X19442191Y-10987809D01*
X19652235Y-11128157D01*
X19900000Y-11177440D01*
X21700000Y-11177440D01*
X21947765Y-11128157D01*
X22157809Y-10987809D01*
X22298157Y-10777765D01*
X22301275Y-10762092D01*
X22470493Y-10931310D01*
X23034670Y-11165000D01*
X23645330Y-11165000D01*
X24209507Y-10931310D01*
X24641310Y-10499507D01*
X24875000Y-9935330D01*
X24875000Y-9324670D01*
X24641310Y-8760493D01*
X24209507Y-8328690D01*
X23645330Y-8095000D01*
X23034670Y-8095000D01*
X22470493Y-8328690D01*
X22301275Y-8497908D01*
X22298157Y-8482235D01*
X22157809Y-8272191D01*
X21947765Y-8131843D01*
X21700000Y-8082560D01*
X19900000Y-8082560D01*
X19652235Y-8131843D01*
X19442191Y-8272191D01*
X19301843Y-8482235D01*
X19252560Y-8730000D01*
X18120817Y-8730000D01*
X17719507Y-8328690D01*
X17155330Y-8095000D01*
X16544670Y-8095000D01*
X15980493Y-8328690D01*
X15811275Y-8497908D01*
X15808157Y-8482235D01*
X15667809Y-8272191D01*
X15457765Y-8131843D01*
X15210000Y-8082560D01*
X13410000Y-8082560D01*
X13162235Y-8131843D01*
X12952191Y-8272191D01*
X12811843Y-8482235D01*
X12762560Y-8730000D01*
X11610817Y-8730000D01*
X11209507Y-8328690D01*
X10645330Y-8095000D01*
X10034670Y-8095000D01*
X9470493Y-8328690D01*
X9301275Y-8497908D01*
X9298157Y-8482235D01*
X9157809Y-8272191D01*
X8947765Y-8131843D01*
X8700000Y-8082560D01*
X6900000Y-8082560D01*
X6652235Y-8131843D01*
X6442191Y-8272191D01*
X6301843Y-8482235D01*
X6252560Y-8730000D01*
X3895256Y-8730000D01*
X3955000Y-8585766D01*
X3955000Y-8134234D01*
X3782207Y-7717074D01*
X3555133Y-7490000D01*
X3822748Y-7490000D01*
X3870000Y-7499399D01*
X3917252Y-7490000D01*
X3942388Y-7490000D01*
X4156783Y-7447354D01*
X4375000Y-7301546D01*
X4593217Y-7447354D01*
X4593217Y-7447354D01*
G37*
X4593217Y-7447354D02*
X4807612Y-7490000D01*
X4832748Y-7490000D01*
X4880000Y-7499399D01*
X4927252Y-7490000D01*
X30312475Y-7490000D01*
X30410000Y-7509399D01*
X30696782Y-7452354D01*
X30915000Y-7306546D01*
X31133217Y-7452354D01*
X31420000Y-7509399D01*
X31517524Y-7490000D01*
X48064487Y-7490000D01*
X46959488Y-8595000D01*
X46864126Y-8595000D01*
X46483720Y-8752569D01*
X46192569Y-9043720D01*
X46035000Y-9424126D01*
X46035000Y-9835874D01*
X46192569Y-10216280D01*
X46483720Y-10507431D01*
X46864126Y-10665000D01*
X47275874Y-10665000D01*
X47656280Y-10507431D01*
X47947431Y-10216280D01*
X48105000Y-9835874D01*
X48105000Y-9740512D01*
X49550514Y-8294999D01*
X55645002Y-8294999D01*
X55645001Y-8419486D01*
X55569487Y-8495000D01*
X55468217Y-8495000D01*
X55453000Y-8498027D01*
X55453000Y-8487000D01*
X54437000Y-8487000D01*
X54437000Y-8498027D01*
X54421783Y-8495000D01*
X54198217Y-8495000D01*
X54183000Y-8498027D01*
X54183000Y-8487000D01*
X53333750Y-8487000D01*
X53175000Y-8645750D01*
X53175000Y-8986310D01*
X53251555Y-9171130D01*
X53240854Y-9187145D01*
X53152765Y-9630000D01*
X53240854Y-10072855D01*
X53369241Y-10265000D01*
X53240854Y-10457145D01*
X53152765Y-10900000D01*
X53240854Y-11342855D01*
X53491711Y-11718289D01*
X53569102Y-11770000D01*
X31517525Y-11770000D01*
X31420000Y-11750601D01*
X31133218Y-11807646D01*
X30922484Y-11948454D01*
X30696783Y-11797646D01*
X30410000Y-11740601D01*
X30262203Y-11770000D01*
X4927252Y-11770000D01*
X4880000Y-11760601D01*
X4832748Y-11770000D01*
X4807612Y-11770000D01*
X4593217Y-11812646D01*
X4378742Y-11955954D01*
X4156783Y-11807646D01*
X3870000Y-11750601D01*
X3861386Y-11752314D01*
X3955000Y-11526310D01*
X3955000Y-11185750D01*
X3796250Y-11027000D01*
X2947000Y-11027000D01*
X2947000Y-11047000D01*
X2693000Y-11047000D01*
X2693000Y-11027000D01*
X1843750Y-11027000D01*
X1685000Y-11185750D01*
X1685000Y-11421664D01*
X1450490Y-11267913D01*
X1110421Y-10908928D01*
X932594Y-10602778D01*
X1324234Y-10765000D01*
X1775766Y-10765000D01*
X1818181Y-10747431D01*
X1843750Y-10773000D01*
X2693000Y-10773000D01*
X2693000Y-9923750D01*
X2947000Y-9923750D01*
X2947000Y-10773000D01*
X3796250Y-10773000D01*
X3955000Y-10614250D01*
X3955000Y-10273690D01*
X3858327Y-10040301D01*
X3679698Y-9861673D01*
X3446309Y-9765000D01*
X3105750Y-9765000D01*
X2947000Y-9923750D01*
X2693000Y-9923750D01*
X2667431Y-9898181D01*
X2685000Y-9855766D01*
X2685000Y-9495000D01*
X3045766Y-9495000D01*
X3462926Y-9322207D01*
X3782207Y-9002926D01*
X3895256Y-8730000D01*
X6252560Y-8730000D01*
X6252560Y-10530000D01*
X6301843Y-10777765D01*
X6442191Y-10987809D01*
X6652235Y-11128157D01*
X6900000Y-11177440D01*
X8700000Y-11177440D01*
X8947765Y-11128157D01*
X9157809Y-10987809D01*
X9298157Y-10777765D01*
X9301275Y-10762092D01*
X9470493Y-10931310D01*
X10034670Y-11165000D01*
X10645330Y-11165000D01*
X11209507Y-10931310D01*
X11641310Y-10499507D01*
X11875000Y-9935330D01*
X11875000Y-9324670D01*
X11641310Y-8760493D01*
X11610817Y-8730000D01*
X12762560Y-8730000D01*
X12762560Y-10530000D01*
X12811843Y-10777765D01*
X12952191Y-10987809D01*
X13162235Y-11128157D01*
X13410000Y-11177440D01*
X15210000Y-11177440D01*
X15457765Y-11128157D01*
X15667809Y-10987809D01*
X15808157Y-10777765D01*
X15811275Y-10762092D01*
X15980493Y-10931310D01*
X16544670Y-11165000D01*
X17155330Y-11165000D01*
X17719507Y-10931310D01*
X18151310Y-10499507D01*
X18385000Y-9935330D01*
X18385000Y-9324670D01*
X18151310Y-8760493D01*
X18120817Y-8730000D01*
X19252560Y-8730000D01*
X19252560Y-10530000D01*
X19301843Y-10777765D01*
X19442191Y-10987809D01*
X19652235Y-11128157D01*
X19900000Y-11177440D01*
X21700000Y-11177440D01*
X21947765Y-11128157D01*
X22157809Y-10987809D01*
X22298157Y-10777765D01*
X22301275Y-10762092D01*
X22470493Y-10931310D01*
X23034670Y-11165000D01*
X23645330Y-11165000D01*
X24209507Y-10931310D01*
X24641310Y-10499507D01*
X24875000Y-9935330D01*
X24875000Y-9324670D01*
X24641310Y-8760493D01*
X24209507Y-8328690D01*
X23645330Y-8095000D01*
X23034670Y-8095000D01*
X22470493Y-8328690D01*
X22301275Y-8497908D01*
X22298157Y-8482235D01*
X22157809Y-8272191D01*
X21947765Y-8131843D01*
X21700000Y-8082560D01*
X19900000Y-8082560D01*
X19652235Y-8131843D01*
X19442191Y-8272191D01*
X19301843Y-8482235D01*
X19252560Y-8730000D01*
X18120817Y-8730000D01*
X17719507Y-8328690D01*
X17155330Y-8095000D01*
X16544670Y-8095000D01*
X15980493Y-8328690D01*
X15811275Y-8497908D01*
X15808157Y-8482235D01*
X15667809Y-8272191D01*
X15457765Y-8131843D01*
X15210000Y-8082560D01*
X13410000Y-8082560D01*
X13162235Y-8131843D01*
X12952191Y-8272191D01*
X12811843Y-8482235D01*
X12762560Y-8730000D01*
X11610817Y-8730000D01*
X11209507Y-8328690D01*
X10645330Y-8095000D01*
X10034670Y-8095000D01*
X9470493Y-8328690D01*
X9301275Y-8497908D01*
X9298157Y-8482235D01*
X9157809Y-8272191D01*
X8947765Y-8131843D01*
X8700000Y-8082560D01*
X6900000Y-8082560D01*
X6652235Y-8131843D01*
X6442191Y-8272191D01*
X6301843Y-8482235D01*
X6252560Y-8730000D01*
X3895256Y-8730000D01*
X3955000Y-8585766D01*
X3955000Y-8134234D01*
X3782207Y-7717074D01*
X3555133Y-7490000D01*
X3822748Y-7490000D01*
X3870000Y-7499399D01*
X3917252Y-7490000D01*
X3942388Y-7490000D01*
X4156783Y-7447354D01*
X4375000Y-7301546D01*
X4593217Y-7447354D01*
G04 #@! TO.N,/LEDBoard1/GND*
G36*
X31133217Y-14197354D02*
X31347612Y-14240000D01*
X31372748Y-14240000D01*
X31420000Y-14249399D01*
X31467252Y-14240000D01*
X48064487Y-14240000D01*
X46959488Y-15345000D01*
X46864126Y-15345000D01*
X46483720Y-15502569D01*
X46192569Y-15793720D01*
X46035000Y-16174126D01*
X46035000Y-16585874D01*
X46192569Y-16966280D01*
X46483720Y-17257431D01*
X46864126Y-17415000D01*
X47275874Y-17415000D01*
X47656280Y-17257431D01*
X47947431Y-16966280D01*
X48105000Y-16585874D01*
X48105000Y-16490512D01*
X49550514Y-15044999D01*
X55645002Y-15044999D01*
X55645001Y-15169486D01*
X55569487Y-15245000D01*
X55468217Y-15245000D01*
X55453000Y-15248027D01*
X55453000Y-15237000D01*
X54437000Y-15237000D01*
X54437000Y-15248027D01*
X54421783Y-15245000D01*
X54198217Y-15245000D01*
X54183000Y-15248027D01*
X54183000Y-15237000D01*
X53333750Y-15237000D01*
X53175000Y-15395750D01*
X53175000Y-15736310D01*
X53251555Y-15921130D01*
X53240854Y-15937145D01*
X53152765Y-16380000D01*
X53240854Y-16822855D01*
X53369241Y-17015000D01*
X53240854Y-17207145D01*
X53152765Y-17650000D01*
X53240854Y-18092855D01*
X53491711Y-18468289D01*
X53569102Y-18520000D01*
X3848026Y-18520000D01*
X3858327Y-18509699D01*
X3955000Y-18276310D01*
X3955000Y-17935750D01*
X3796250Y-17777000D01*
X2947000Y-17777000D01*
X2947000Y-17797000D01*
X2693000Y-17797000D01*
X2693000Y-17777000D01*
X1843750Y-17777000D01*
X1685000Y-17935750D01*
X1685000Y-18171664D01*
X1450490Y-18017913D01*
X1110421Y-17658928D01*
X932594Y-17352778D01*
X1324234Y-17515000D01*
X1775766Y-17515000D01*
X1818181Y-17497431D01*
X1843750Y-17523000D01*
X2693000Y-17523000D01*
X2693000Y-16673750D01*
X2947000Y-16673750D01*
X2947000Y-17523000D01*
X3796250Y-17523000D01*
X3955000Y-17364250D01*
X3955000Y-17023690D01*
X3858327Y-16790301D01*
X3679698Y-16611673D01*
X3446309Y-16515000D01*
X3105750Y-16515000D01*
X2947000Y-16673750D01*
X2693000Y-16673750D01*
X2667431Y-16648181D01*
X2685000Y-16605766D01*
X2685000Y-16245000D01*
X3045766Y-16245000D01*
X3462926Y-16072207D01*
X3782207Y-15752926D01*
X3895256Y-15480000D01*
X6252560Y-15480000D01*
X6252560Y-17280000D01*
X6301843Y-17527765D01*
X6442191Y-17737809D01*
X6652235Y-17878157D01*
X6900000Y-17927440D01*
X8700000Y-17927440D01*
X8947765Y-17878157D01*
X9157809Y-17737809D01*
X9298157Y-17527765D01*
X9301275Y-17512092D01*
X9470493Y-17681310D01*
X10034670Y-17915000D01*
X10645330Y-17915000D01*
X11209507Y-17681310D01*
X11641310Y-17249507D01*
X11875000Y-16685330D01*
X11875000Y-16074670D01*
X11641310Y-15510493D01*
X11610817Y-15480000D01*
X12762560Y-15480000D01*
X12762560Y-17280000D01*
X12811843Y-17527765D01*
X12952191Y-17737809D01*
X13162235Y-17878157D01*
X13410000Y-17927440D01*
X15210000Y-17927440D01*
X15457765Y-17878157D01*
X15667809Y-17737809D01*
X15808157Y-17527765D01*
X15811275Y-17512092D01*
X15980493Y-17681310D01*
X16544670Y-17915000D01*
X17155330Y-17915000D01*
X17719507Y-17681310D01*
X18151310Y-17249507D01*
X18385000Y-16685330D01*
X18385000Y-16074670D01*
X18151310Y-15510493D01*
X18120817Y-15480000D01*
X19252560Y-15480000D01*
X19252560Y-17280000D01*
X19301843Y-17527765D01*
X19442191Y-17737809D01*
X19652235Y-17878157D01*
X19900000Y-17927440D01*
X21700000Y-17927440D01*
X21947765Y-17878157D01*
X22157809Y-17737809D01*
X22298157Y-17527765D01*
X22301275Y-17512092D01*
X22470493Y-17681310D01*
X23034670Y-17915000D01*
X23645330Y-17915000D01*
X24209507Y-17681310D01*
X24641310Y-17249507D01*
X24875000Y-16685330D01*
X24875000Y-16074670D01*
X24641310Y-15510493D01*
X24209507Y-15078690D01*
X23645330Y-14845000D01*
X23034670Y-14845000D01*
X22470493Y-15078690D01*
X22301275Y-15247908D01*
X22298157Y-15232235D01*
X22157809Y-15022191D01*
X21947765Y-14881843D01*
X21700000Y-14832560D01*
X19900000Y-14832560D01*
X19652235Y-14881843D01*
X19442191Y-15022191D01*
X19301843Y-15232235D01*
X19252560Y-15480000D01*
X18120817Y-15480000D01*
X17719507Y-15078690D01*
X17155330Y-14845000D01*
X16544670Y-14845000D01*
X15980493Y-15078690D01*
X15811275Y-15247908D01*
X15808157Y-15232235D01*
X15667809Y-15022191D01*
X15457765Y-14881843D01*
X15210000Y-14832560D01*
X13410000Y-14832560D01*
X13162235Y-14881843D01*
X12952191Y-15022191D01*
X12811843Y-15232235D01*
X12762560Y-15480000D01*
X11610817Y-15480000D01*
X11209507Y-15078690D01*
X10645330Y-14845000D01*
X10034670Y-14845000D01*
X9470493Y-15078690D01*
X9301275Y-15247908D01*
X9298157Y-15232235D01*
X9157809Y-15022191D01*
X8947765Y-14881843D01*
X8700000Y-14832560D01*
X6900000Y-14832560D01*
X6652235Y-14881843D01*
X6442191Y-15022191D01*
X6301843Y-15232235D01*
X6252560Y-15480000D01*
X3895256Y-15480000D01*
X3955000Y-15335766D01*
X3955000Y-14884234D01*
X3782207Y-14467074D01*
X3555133Y-14240000D01*
X3772475Y-14240000D01*
X3870000Y-14259399D01*
X4156782Y-14202354D01*
X4375000Y-14056546D01*
X4593217Y-14202354D01*
X4880000Y-14259399D01*
X4977524Y-14240000D01*
X30362748Y-14240000D01*
X30410000Y-14249399D01*
X30457252Y-14240000D01*
X30482388Y-14240000D01*
X30696783Y-14197354D01*
X30915000Y-14051546D01*
X31133217Y-14197354D01*
X31133217Y-14197354D01*
G37*
X31133217Y-14197354D02*
X31347612Y-14240000D01*
X31372748Y-14240000D01*
X31420000Y-14249399D01*
X31467252Y-14240000D01*
X48064487Y-14240000D01*
X46959488Y-15345000D01*
X46864126Y-15345000D01*
X46483720Y-15502569D01*
X46192569Y-15793720D01*
X46035000Y-16174126D01*
X46035000Y-16585874D01*
X46192569Y-16966280D01*
X46483720Y-17257431D01*
X46864126Y-17415000D01*
X47275874Y-17415000D01*
X47656280Y-17257431D01*
X47947431Y-16966280D01*
X48105000Y-16585874D01*
X48105000Y-16490512D01*
X49550514Y-15044999D01*
X55645002Y-15044999D01*
X55645001Y-15169486D01*
X55569487Y-15245000D01*
X55468217Y-15245000D01*
X55453000Y-15248027D01*
X55453000Y-15237000D01*
X54437000Y-15237000D01*
X54437000Y-15248027D01*
X54421783Y-15245000D01*
X54198217Y-15245000D01*
X54183000Y-15248027D01*
X54183000Y-15237000D01*
X53333750Y-15237000D01*
X53175000Y-15395750D01*
X53175000Y-15736310D01*
X53251555Y-15921130D01*
X53240854Y-15937145D01*
X53152765Y-16380000D01*
X53240854Y-16822855D01*
X53369241Y-17015000D01*
X53240854Y-17207145D01*
X53152765Y-17650000D01*
X53240854Y-18092855D01*
X53491711Y-18468289D01*
X53569102Y-18520000D01*
X3848026Y-18520000D01*
X3858327Y-18509699D01*
X3955000Y-18276310D01*
X3955000Y-17935750D01*
X3796250Y-17777000D01*
X2947000Y-17777000D01*
X2947000Y-17797000D01*
X2693000Y-17797000D01*
X2693000Y-17777000D01*
X1843750Y-17777000D01*
X1685000Y-17935750D01*
X1685000Y-18171664D01*
X1450490Y-18017913D01*
X1110421Y-17658928D01*
X932594Y-17352778D01*
X1324234Y-17515000D01*
X1775766Y-17515000D01*
X1818181Y-17497431D01*
X1843750Y-17523000D01*
X2693000Y-17523000D01*
X2693000Y-16673750D01*
X2947000Y-16673750D01*
X2947000Y-17523000D01*
X3796250Y-17523000D01*
X3955000Y-17364250D01*
X3955000Y-17023690D01*
X3858327Y-16790301D01*
X3679698Y-16611673D01*
X3446309Y-16515000D01*
X3105750Y-16515000D01*
X2947000Y-16673750D01*
X2693000Y-16673750D01*
X2667431Y-16648181D01*
X2685000Y-16605766D01*
X2685000Y-16245000D01*
X3045766Y-16245000D01*
X3462926Y-16072207D01*
X3782207Y-15752926D01*
X3895256Y-15480000D01*
X6252560Y-15480000D01*
X6252560Y-17280000D01*
X6301843Y-17527765D01*
X6442191Y-17737809D01*
X6652235Y-17878157D01*
X6900000Y-17927440D01*
X8700000Y-17927440D01*
X8947765Y-17878157D01*
X9157809Y-17737809D01*
X9298157Y-17527765D01*
X9301275Y-17512092D01*
X9470493Y-17681310D01*
X10034670Y-17915000D01*
X10645330Y-17915000D01*
X11209507Y-17681310D01*
X11641310Y-17249507D01*
X11875000Y-16685330D01*
X11875000Y-16074670D01*
X11641310Y-15510493D01*
X11610817Y-15480000D01*
X12762560Y-15480000D01*
X12762560Y-17280000D01*
X12811843Y-17527765D01*
X12952191Y-17737809D01*
X13162235Y-17878157D01*
X13410000Y-17927440D01*
X15210000Y-17927440D01*
X15457765Y-17878157D01*
X15667809Y-17737809D01*
X15808157Y-17527765D01*
X15811275Y-17512092D01*
X15980493Y-17681310D01*
X16544670Y-17915000D01*
X17155330Y-17915000D01*
X17719507Y-17681310D01*
X18151310Y-17249507D01*
X18385000Y-16685330D01*
X18385000Y-16074670D01*
X18151310Y-15510493D01*
X18120817Y-15480000D01*
X19252560Y-15480000D01*
X19252560Y-17280000D01*
X19301843Y-17527765D01*
X19442191Y-17737809D01*
X19652235Y-17878157D01*
X19900000Y-17927440D01*
X21700000Y-17927440D01*
X21947765Y-17878157D01*
X22157809Y-17737809D01*
X22298157Y-17527765D01*
X22301275Y-17512092D01*
X22470493Y-17681310D01*
X23034670Y-17915000D01*
X23645330Y-17915000D01*
X24209507Y-17681310D01*
X24641310Y-17249507D01*
X24875000Y-16685330D01*
X24875000Y-16074670D01*
X24641310Y-15510493D01*
X24209507Y-15078690D01*
X23645330Y-14845000D01*
X23034670Y-14845000D01*
X22470493Y-15078690D01*
X22301275Y-15247908D01*
X22298157Y-15232235D01*
X22157809Y-15022191D01*
X21947765Y-14881843D01*
X21700000Y-14832560D01*
X19900000Y-14832560D01*
X19652235Y-14881843D01*
X19442191Y-15022191D01*
X19301843Y-15232235D01*
X19252560Y-15480000D01*
X18120817Y-15480000D01*
X17719507Y-15078690D01*
X17155330Y-14845000D01*
X16544670Y-14845000D01*
X15980493Y-15078690D01*
X15811275Y-15247908D01*
X15808157Y-15232235D01*
X15667809Y-15022191D01*
X15457765Y-14881843D01*
X15210000Y-14832560D01*
X13410000Y-14832560D01*
X13162235Y-14881843D01*
X12952191Y-15022191D01*
X12811843Y-15232235D01*
X12762560Y-15480000D01*
X11610817Y-15480000D01*
X11209507Y-15078690D01*
X10645330Y-14845000D01*
X10034670Y-14845000D01*
X9470493Y-15078690D01*
X9301275Y-15247908D01*
X9298157Y-15232235D01*
X9157809Y-15022191D01*
X8947765Y-14881843D01*
X8700000Y-14832560D01*
X6900000Y-14832560D01*
X6652235Y-14881843D01*
X6442191Y-15022191D01*
X6301843Y-15232235D01*
X6252560Y-15480000D01*
X3895256Y-15480000D01*
X3955000Y-15335766D01*
X3955000Y-14884234D01*
X3782207Y-14467074D01*
X3555133Y-14240000D01*
X3772475Y-14240000D01*
X3870000Y-14259399D01*
X4156782Y-14202354D01*
X4375000Y-14056546D01*
X4593217Y-14202354D01*
X4880000Y-14259399D01*
X4977524Y-14240000D01*
X30362748Y-14240000D01*
X30410000Y-14249399D01*
X30457252Y-14240000D01*
X30482388Y-14240000D01*
X30696783Y-14197354D01*
X30915000Y-14051546D01*
X31133217Y-14197354D01*
G04 #@! TD*
M02*
