G04 #@! TF.GenerationSoftware,KiCad,Pcbnew,(5.0.0)*
G04 #@! TF.CreationDate,2019-02-03T17:17:29-08:00*
G04 #@! TF.ProjectId,mlab100_LEDPCB_1.5,6D6C61623130305F4C45445043425F31,rev?*
G04 #@! TF.SameCoordinates,Original*
G04 #@! TF.FileFunction,Legend,Bot*
G04 #@! TF.FilePolarity,Positive*
%FSLAX46Y46*%
G04 Gerber Fmt 4.6, Leading zero omitted, Abs format (unit mm)*
G04 Created by KiCad (PCBNEW (5.0.0)) date 02/03/19 17:17:29*
%MOMM*%
%LPD*%
G01*
G04 APERTURE LIST*
%ADD10C,0.250000*%
G04 APERTURE END LIST*
D10*
X26711428Y-10181428D02*
X26711428Y-11681428D01*
X27211428Y-10609999D01*
X27711428Y-11681428D01*
X27711428Y-10181428D01*
X28425714Y-10181428D02*
X28425714Y-11181428D01*
X28425714Y-11681428D02*
X28354285Y-11609999D01*
X28425714Y-11538571D01*
X28497142Y-11609999D01*
X28425714Y-11681428D01*
X28425714Y-11538571D01*
X29782857Y-10252857D02*
X29640000Y-10181428D01*
X29354285Y-10181428D01*
X29211428Y-10252857D01*
X29140000Y-10324285D01*
X29068571Y-10467142D01*
X29068571Y-10895714D01*
X29140000Y-11038571D01*
X29211428Y-11109999D01*
X29354285Y-11181428D01*
X29640000Y-11181428D01*
X29782857Y-11109999D01*
X30425714Y-10181428D02*
X30425714Y-11181428D01*
X30425714Y-10895714D02*
X30497142Y-11038571D01*
X30568571Y-11110000D01*
X30711428Y-11181428D01*
X30854285Y-11181428D01*
X31568571Y-10181428D02*
X31425714Y-10252857D01*
X31354285Y-10324285D01*
X31282857Y-10467142D01*
X31282857Y-10895714D01*
X31354285Y-11038571D01*
X31425714Y-11110000D01*
X31568571Y-11181428D01*
X31782857Y-11181428D01*
X31925714Y-11110000D01*
X31997142Y-11038571D01*
X32068571Y-10895714D01*
X32068571Y-10467142D01*
X31997142Y-10324285D01*
X31925714Y-10252857D01*
X31782857Y-10181428D01*
X31568571Y-10181428D01*
X33211428Y-10967142D02*
X33425714Y-10895714D01*
X33497142Y-10824285D01*
X33568571Y-10681428D01*
X33568571Y-10467142D01*
X33497142Y-10324285D01*
X33425714Y-10252857D01*
X33282857Y-10181428D01*
X32711428Y-10181428D01*
X32711428Y-11681428D01*
X33211428Y-11681428D01*
X33354285Y-11610000D01*
X33425714Y-11538571D01*
X33497142Y-11395714D01*
X33497142Y-11252857D01*
X33425714Y-11110000D01*
X33354285Y-11038571D01*
X33211428Y-10967142D01*
X32711428Y-10967142D01*
X34211428Y-10181428D02*
X34211428Y-11181428D01*
X34211428Y-11681428D02*
X34140000Y-11610000D01*
X34211428Y-11538571D01*
X34282857Y-11610000D01*
X34211428Y-11681428D01*
X34211428Y-11538571D01*
X35140000Y-10181428D02*
X34997142Y-10252857D01*
X34925714Y-10324285D01*
X34854285Y-10467142D01*
X34854285Y-10895714D01*
X34925714Y-11038571D01*
X34997142Y-11110000D01*
X35140000Y-11181428D01*
X35354285Y-11181428D01*
X35497142Y-11110000D01*
X35568571Y-11038571D01*
X35640000Y-10895714D01*
X35640000Y-10467142D01*
X35568571Y-10324285D01*
X35497142Y-10252857D01*
X35354285Y-10181428D01*
X35140000Y-10181428D01*
X36068571Y-11181428D02*
X36640000Y-11181428D01*
X36282857Y-11681428D02*
X36282857Y-10395714D01*
X36354285Y-10252857D01*
X36497142Y-10181428D01*
X36640000Y-10181428D01*
X37782857Y-10181428D02*
X37782857Y-10967142D01*
X37711428Y-11110000D01*
X37568571Y-11181428D01*
X37282857Y-11181428D01*
X37139999Y-11110000D01*
X37782857Y-10252857D02*
X37639999Y-10181428D01*
X37282857Y-10181428D01*
X37139999Y-10252857D01*
X37068571Y-10395714D01*
X37068571Y-10538571D01*
X37139999Y-10681428D01*
X37282857Y-10752857D01*
X37639999Y-10752857D01*
X37782857Y-10824285D01*
X40354285Y-10181428D02*
X39639999Y-10181428D01*
X39639999Y-11681428D01*
X41497142Y-10181428D02*
X41497142Y-10967142D01*
X41425714Y-11110000D01*
X41282857Y-11181428D01*
X40997142Y-11181428D01*
X40854285Y-11110000D01*
X41497142Y-10252857D02*
X41354285Y-10181428D01*
X40997142Y-10181428D01*
X40854285Y-10252857D01*
X40782857Y-10395714D01*
X40782857Y-10538571D01*
X40854285Y-10681428D01*
X40997142Y-10752857D01*
X41354285Y-10752857D01*
X41497142Y-10824285D01*
X42211428Y-10181428D02*
X42211428Y-11681428D01*
X42211428Y-11110000D02*
X42354285Y-11181428D01*
X42640000Y-11181428D01*
X42782857Y-11110000D01*
X42854285Y-11038571D01*
X42925714Y-10895714D01*
X42925714Y-10467142D01*
X42854285Y-10324285D01*
X42782857Y-10252857D01*
X42640000Y-10181428D01*
X42354285Y-10181428D01*
X42211428Y-10252857D01*
X43497142Y-10252857D02*
X43640000Y-10181428D01*
X43925714Y-10181428D01*
X44068571Y-10252857D01*
X44140000Y-10395714D01*
X44140000Y-10467142D01*
X44068571Y-10610000D01*
X43925714Y-10681428D01*
X43711428Y-10681428D01*
X43568571Y-10752857D01*
X43497142Y-10895714D01*
X43497142Y-10967142D01*
X43568571Y-11110000D01*
X43711428Y-11181428D01*
X43925714Y-11181428D01*
X44068571Y-11110000D01*
X45925714Y-10181428D02*
X45925714Y-11681428D01*
X46640000Y-11181428D02*
X46640000Y-10181428D01*
X46640000Y-11038571D02*
X46711428Y-11110000D01*
X46854285Y-11181428D01*
X47068571Y-11181428D01*
X47211428Y-11110000D01*
X47282857Y-10967142D01*
X47282857Y-10181428D01*
X48640000Y-10252857D02*
X48497142Y-10181428D01*
X48211428Y-10181428D01*
X48068571Y-10252857D01*
X47997142Y-10324285D01*
X47925714Y-10467142D01*
X47925714Y-10895714D01*
X47997142Y-11038571D01*
X48068571Y-11110000D01*
X48211428Y-11181428D01*
X48497142Y-11181428D01*
X48640000Y-11110000D01*
X28925714Y-8181428D02*
X28925714Y-9681428D01*
X29425714Y-8609999D01*
X29925714Y-9681428D01*
X29925714Y-8181428D01*
X31140000Y-8967142D02*
X31354285Y-8895714D01*
X31425714Y-8824285D01*
X31497142Y-8681428D01*
X31497142Y-8467142D01*
X31425714Y-8324285D01*
X31354285Y-8252857D01*
X31211428Y-8181428D01*
X30640000Y-8181428D01*
X30640000Y-9681428D01*
X31140000Y-9681428D01*
X31282857Y-9610000D01*
X31354285Y-9538571D01*
X31425714Y-9395714D01*
X31425714Y-9252857D01*
X31354285Y-9110000D01*
X31282857Y-9038571D01*
X31140000Y-8967142D01*
X30640000Y-8967142D01*
X32354285Y-8181428D02*
X32211428Y-8252857D01*
X32140000Y-8395714D01*
X32140000Y-9681428D01*
X33568571Y-8181428D02*
X33568571Y-8967142D01*
X33497142Y-9110000D01*
X33354285Y-9181428D01*
X33068571Y-9181428D01*
X32925714Y-9110000D01*
X33568571Y-8252857D02*
X33425714Y-8181428D01*
X33068571Y-8181428D01*
X32925714Y-8252857D01*
X32854285Y-8395714D01*
X32854285Y-8538571D01*
X32925714Y-8681428D01*
X33068571Y-8752857D01*
X33425714Y-8752857D01*
X33568571Y-8824285D01*
X34282857Y-8181428D02*
X34282857Y-9681428D01*
X34282857Y-9110000D02*
X34425714Y-9181428D01*
X34711428Y-9181428D01*
X34854285Y-9110000D01*
X34925714Y-9038571D01*
X34997142Y-8895714D01*
X34997142Y-8467142D01*
X34925714Y-8324285D01*
X34854285Y-8252857D01*
X34711428Y-8181428D01*
X34425714Y-8181428D01*
X34282857Y-8252857D01*
X36425714Y-8181428D02*
X35568571Y-8181428D01*
X35997142Y-8181428D02*
X35997142Y-9681428D01*
X35854285Y-9467142D01*
X35711428Y-9324285D01*
X35568571Y-9252857D01*
X37354285Y-9681428D02*
X37497142Y-9681428D01*
X37640000Y-9610000D01*
X37711428Y-9538571D01*
X37782857Y-9395714D01*
X37854285Y-9110000D01*
X37854285Y-8752857D01*
X37782857Y-8467142D01*
X37711428Y-8324285D01*
X37640000Y-8252857D01*
X37497142Y-8181428D01*
X37354285Y-8181428D01*
X37211428Y-8252857D01*
X37140000Y-8324285D01*
X37068571Y-8467142D01*
X36997142Y-8752857D01*
X36997142Y-9110000D01*
X37068571Y-9395714D01*
X37140000Y-9538571D01*
X37211428Y-9610000D01*
X37354285Y-9681428D01*
X38782857Y-9681428D02*
X38925714Y-9681428D01*
X39068571Y-9610000D01*
X39140000Y-9538571D01*
X39211428Y-9395714D01*
X39282857Y-9110000D01*
X39282857Y-8752857D01*
X39211428Y-8467142D01*
X39140000Y-8324285D01*
X39068571Y-8252857D01*
X38925714Y-8181428D01*
X38782857Y-8181428D01*
X38640000Y-8252857D01*
X38568571Y-8324285D01*
X38497142Y-8467142D01*
X38425714Y-8752857D01*
X38425714Y-9110000D01*
X38497142Y-9395714D01*
X38568571Y-9538571D01*
X38640000Y-9610000D01*
X38782857Y-9681428D01*
X41997142Y-9681428D02*
X42497142Y-8181428D01*
X42997142Y-9681428D01*
X44282857Y-8181428D02*
X43425714Y-8181428D01*
X43854285Y-8181428D02*
X43854285Y-9681428D01*
X43711428Y-9467142D01*
X43568571Y-9324285D01*
X43425714Y-9252857D01*
X44925714Y-8324285D02*
X44997142Y-8252857D01*
X44925714Y-8181428D01*
X44854285Y-8252857D01*
X44925714Y-8324285D01*
X44925714Y-8181428D01*
X46354285Y-9681428D02*
X45640000Y-9681428D01*
X45568571Y-8967142D01*
X45640000Y-9038571D01*
X45782857Y-9110000D01*
X46140000Y-9110000D01*
X46282857Y-9038571D01*
X46354285Y-8967142D01*
X46425714Y-8824285D01*
X46425714Y-8467142D01*
X46354285Y-8324285D01*
X46282857Y-8252857D01*
X46140000Y-8181428D01*
X45782857Y-8181428D01*
X45640000Y-8252857D01*
X45568571Y-8324285D01*
X26721428Y-3461428D02*
X26721428Y-4961428D01*
X27221428Y-3889999D01*
X27721428Y-4961428D01*
X27721428Y-3461428D01*
X28435714Y-3461428D02*
X28435714Y-4461428D01*
X28435714Y-4961428D02*
X28364285Y-4889999D01*
X28435714Y-4818571D01*
X28507142Y-4889999D01*
X28435714Y-4961428D01*
X28435714Y-4818571D01*
X29792857Y-3532857D02*
X29650000Y-3461428D01*
X29364285Y-3461428D01*
X29221428Y-3532857D01*
X29150000Y-3604285D01*
X29078571Y-3747142D01*
X29078571Y-4175714D01*
X29150000Y-4318571D01*
X29221428Y-4389999D01*
X29364285Y-4461428D01*
X29650000Y-4461428D01*
X29792857Y-4389999D01*
X30435714Y-3461428D02*
X30435714Y-4461428D01*
X30435714Y-4175714D02*
X30507142Y-4318571D01*
X30578571Y-4389999D01*
X30721428Y-4461428D01*
X30864285Y-4461428D01*
X31578571Y-3461428D02*
X31435714Y-3532857D01*
X31364285Y-3604285D01*
X31292857Y-3747142D01*
X31292857Y-4175714D01*
X31364285Y-4318571D01*
X31435714Y-4389999D01*
X31578571Y-4461428D01*
X31792857Y-4461428D01*
X31935714Y-4389999D01*
X32007142Y-4318571D01*
X32078571Y-4175714D01*
X32078571Y-3747142D01*
X32007142Y-3604285D01*
X31935714Y-3532857D01*
X31792857Y-3461428D01*
X31578571Y-3461428D01*
X33221428Y-4247142D02*
X33435714Y-4175714D01*
X33507142Y-4104285D01*
X33578571Y-3961428D01*
X33578571Y-3747142D01*
X33507142Y-3604285D01*
X33435714Y-3532857D01*
X33292857Y-3461428D01*
X32721428Y-3461428D01*
X32721428Y-4961428D01*
X33221428Y-4961428D01*
X33364285Y-4889999D01*
X33435714Y-4818571D01*
X33507142Y-4675714D01*
X33507142Y-4532857D01*
X33435714Y-4389999D01*
X33364285Y-4318571D01*
X33221428Y-4247142D01*
X32721428Y-4247142D01*
X34221428Y-3461428D02*
X34221428Y-4461428D01*
X34221428Y-4961428D02*
X34150000Y-4890000D01*
X34221428Y-4818571D01*
X34292857Y-4890000D01*
X34221428Y-4961428D01*
X34221428Y-4818571D01*
X35150000Y-3461428D02*
X35007142Y-3532857D01*
X34935714Y-3604285D01*
X34864285Y-3747142D01*
X34864285Y-4175714D01*
X34935714Y-4318571D01*
X35007142Y-4390000D01*
X35150000Y-4461428D01*
X35364285Y-4461428D01*
X35507142Y-4390000D01*
X35578571Y-4318571D01*
X35650000Y-4175714D01*
X35650000Y-3747142D01*
X35578571Y-3604285D01*
X35507142Y-3532857D01*
X35364285Y-3461428D01*
X35150000Y-3461428D01*
X36078571Y-4461428D02*
X36650000Y-4461428D01*
X36292857Y-4961428D02*
X36292857Y-3675714D01*
X36364285Y-3532857D01*
X36507142Y-3461428D01*
X36650000Y-3461428D01*
X37792857Y-3461428D02*
X37792857Y-4247142D01*
X37721428Y-4390000D01*
X37578571Y-4461428D01*
X37292857Y-4461428D01*
X37149999Y-4390000D01*
X37792857Y-3532857D02*
X37649999Y-3461428D01*
X37292857Y-3461428D01*
X37149999Y-3532857D01*
X37078571Y-3675714D01*
X37078571Y-3818571D01*
X37149999Y-3961428D01*
X37292857Y-4032857D01*
X37649999Y-4032857D01*
X37792857Y-4104285D01*
X40364285Y-3461428D02*
X39649999Y-3461428D01*
X39649999Y-4961428D01*
X41507142Y-3461428D02*
X41507142Y-4247142D01*
X41435714Y-4390000D01*
X41292857Y-4461428D01*
X41007142Y-4461428D01*
X40864285Y-4390000D01*
X41507142Y-3532857D02*
X41364285Y-3461428D01*
X41007142Y-3461428D01*
X40864285Y-3532857D01*
X40792857Y-3675714D01*
X40792857Y-3818571D01*
X40864285Y-3961428D01*
X41007142Y-4032857D01*
X41364285Y-4032857D01*
X41507142Y-4104285D01*
X42221428Y-3461428D02*
X42221428Y-4961428D01*
X42221428Y-4390000D02*
X42364285Y-4461428D01*
X42650000Y-4461428D01*
X42792857Y-4390000D01*
X42864285Y-4318571D01*
X42935714Y-4175714D01*
X42935714Y-3747142D01*
X42864285Y-3604285D01*
X42792857Y-3532857D01*
X42650000Y-3461428D01*
X42364285Y-3461428D01*
X42221428Y-3532857D01*
X43507142Y-3532857D02*
X43650000Y-3461428D01*
X43935714Y-3461428D01*
X44078571Y-3532857D01*
X44150000Y-3675714D01*
X44150000Y-3747142D01*
X44078571Y-3890000D01*
X43935714Y-3961428D01*
X43721428Y-3961428D01*
X43578571Y-4032857D01*
X43507142Y-4175714D01*
X43507142Y-4247142D01*
X43578571Y-4390000D01*
X43721428Y-4461428D01*
X43935714Y-4461428D01*
X44078571Y-4390000D01*
X45935714Y-3461428D02*
X45935714Y-4961428D01*
X46650000Y-4461428D02*
X46650000Y-3461428D01*
X46650000Y-4318571D02*
X46721428Y-4390000D01*
X46864285Y-4461428D01*
X47078571Y-4461428D01*
X47221428Y-4390000D01*
X47292857Y-4247142D01*
X47292857Y-3461428D01*
X48650000Y-3532857D02*
X48507142Y-3461428D01*
X48221428Y-3461428D01*
X48078571Y-3532857D01*
X48007142Y-3604285D01*
X47935714Y-3747142D01*
X47935714Y-4175714D01*
X48007142Y-4318571D01*
X48078571Y-4390000D01*
X48221428Y-4461428D01*
X48507142Y-4461428D01*
X48650000Y-4390000D01*
X28935714Y-1461428D02*
X28935714Y-2961428D01*
X29435714Y-1889999D01*
X29935714Y-2961428D01*
X29935714Y-1461428D01*
X31150000Y-2247142D02*
X31364285Y-2175714D01*
X31435714Y-2104285D01*
X31507142Y-1961428D01*
X31507142Y-1747142D01*
X31435714Y-1604285D01*
X31364285Y-1532857D01*
X31221428Y-1461428D01*
X30650000Y-1461428D01*
X30650000Y-2961428D01*
X31150000Y-2961428D01*
X31292857Y-2889999D01*
X31364285Y-2818571D01*
X31435714Y-2675714D01*
X31435714Y-2532857D01*
X31364285Y-2389999D01*
X31292857Y-2318571D01*
X31150000Y-2247142D01*
X30650000Y-2247142D01*
X32364285Y-1461428D02*
X32221428Y-1532857D01*
X32150000Y-1675714D01*
X32150000Y-2961428D01*
X33578571Y-1461428D02*
X33578571Y-2247142D01*
X33507142Y-2389999D01*
X33364285Y-2461428D01*
X33078571Y-2461428D01*
X32935714Y-2389999D01*
X33578571Y-1532857D02*
X33435714Y-1461428D01*
X33078571Y-1461428D01*
X32935714Y-1532857D01*
X32864285Y-1675714D01*
X32864285Y-1818571D01*
X32935714Y-1961428D01*
X33078571Y-2032857D01*
X33435714Y-2032857D01*
X33578571Y-2104285D01*
X34292857Y-1461428D02*
X34292857Y-2961428D01*
X34292857Y-2389999D02*
X34435714Y-2461428D01*
X34721428Y-2461428D01*
X34864285Y-2389999D01*
X34935714Y-2318571D01*
X35007142Y-2175714D01*
X35007142Y-1747142D01*
X34935714Y-1604285D01*
X34864285Y-1532857D01*
X34721428Y-1461428D01*
X34435714Y-1461428D01*
X34292857Y-1532857D01*
X36435714Y-1461428D02*
X35578571Y-1461428D01*
X36007142Y-1461428D02*
X36007142Y-2961428D01*
X35864285Y-2747142D01*
X35721428Y-2604285D01*
X35578571Y-2532857D01*
X37364285Y-2961428D02*
X37507142Y-2961428D01*
X37650000Y-2890000D01*
X37721428Y-2818571D01*
X37792857Y-2675714D01*
X37864285Y-2390000D01*
X37864285Y-2032857D01*
X37792857Y-1747142D01*
X37721428Y-1604285D01*
X37650000Y-1532857D01*
X37507142Y-1461428D01*
X37364285Y-1461428D01*
X37221428Y-1532857D01*
X37150000Y-1604285D01*
X37078571Y-1747142D01*
X37007142Y-2032857D01*
X37007142Y-2390000D01*
X37078571Y-2675714D01*
X37150000Y-2818571D01*
X37221428Y-2890000D01*
X37364285Y-2961428D01*
X38792857Y-2961428D02*
X38935714Y-2961428D01*
X39078571Y-2890000D01*
X39150000Y-2818571D01*
X39221428Y-2675714D01*
X39292857Y-2390000D01*
X39292857Y-2032857D01*
X39221428Y-1747142D01*
X39150000Y-1604285D01*
X39078571Y-1532857D01*
X38935714Y-1461428D01*
X38792857Y-1461428D01*
X38650000Y-1532857D01*
X38578571Y-1604285D01*
X38507142Y-1747142D01*
X38435714Y-2032857D01*
X38435714Y-2390000D01*
X38507142Y-2675714D01*
X38578571Y-2818571D01*
X38650000Y-2890000D01*
X38792857Y-2961428D01*
X42007142Y-2961428D02*
X42507142Y-1461428D01*
X43007142Y-2961428D01*
X44292857Y-1461428D02*
X43435714Y-1461428D01*
X43864285Y-1461428D02*
X43864285Y-2961428D01*
X43721428Y-2747142D01*
X43578571Y-2604285D01*
X43435714Y-2532857D01*
X44935714Y-1604285D02*
X45007142Y-1532857D01*
X44935714Y-1461428D01*
X44864285Y-1532857D01*
X44935714Y-1604285D01*
X44935714Y-1461428D01*
X46364285Y-2961428D02*
X45650000Y-2961428D01*
X45578571Y-2247142D01*
X45650000Y-2318571D01*
X45792857Y-2390000D01*
X46150000Y-2390000D01*
X46292857Y-2318571D01*
X46364285Y-2247142D01*
X46435714Y-2104285D01*
X46435714Y-1747142D01*
X46364285Y-1604285D01*
X46292857Y-1532857D01*
X46150000Y-1461428D01*
X45792857Y-1461428D01*
X45650000Y-1532857D01*
X45578571Y-1604285D01*
X28935714Y-14901428D02*
X28935714Y-16401428D01*
X29435714Y-15329999D01*
X29935714Y-16401428D01*
X29935714Y-14901428D01*
X31150000Y-15687142D02*
X31364285Y-15615714D01*
X31435714Y-15544285D01*
X31507142Y-15401428D01*
X31507142Y-15187142D01*
X31435714Y-15044285D01*
X31364285Y-14972857D01*
X31221428Y-14901428D01*
X30650000Y-14901428D01*
X30650000Y-16401428D01*
X31150000Y-16401428D01*
X31292857Y-16330000D01*
X31364285Y-16258571D01*
X31435714Y-16115714D01*
X31435714Y-15972857D01*
X31364285Y-15830000D01*
X31292857Y-15758571D01*
X31150000Y-15687142D01*
X30650000Y-15687142D01*
X32364285Y-14901428D02*
X32221428Y-14972857D01*
X32150000Y-15115714D01*
X32150000Y-16401428D01*
X33578571Y-14901428D02*
X33578571Y-15687142D01*
X33507142Y-15830000D01*
X33364285Y-15901428D01*
X33078571Y-15901428D01*
X32935714Y-15830000D01*
X33578571Y-14972857D02*
X33435714Y-14901428D01*
X33078571Y-14901428D01*
X32935714Y-14972857D01*
X32864285Y-15115714D01*
X32864285Y-15258571D01*
X32935714Y-15401428D01*
X33078571Y-15472857D01*
X33435714Y-15472857D01*
X33578571Y-15544285D01*
X34292857Y-14901428D02*
X34292857Y-16401428D01*
X34292857Y-15830000D02*
X34435714Y-15901428D01*
X34721428Y-15901428D01*
X34864285Y-15830000D01*
X34935714Y-15758571D01*
X35007142Y-15615714D01*
X35007142Y-15187142D01*
X34935714Y-15044285D01*
X34864285Y-14972857D01*
X34721428Y-14901428D01*
X34435714Y-14901428D01*
X34292857Y-14972857D01*
X36435714Y-14901428D02*
X35578571Y-14901428D01*
X36007142Y-14901428D02*
X36007142Y-16401428D01*
X35864285Y-16187142D01*
X35721428Y-16044285D01*
X35578571Y-15972857D01*
X37364285Y-16401428D02*
X37507142Y-16401428D01*
X37650000Y-16330000D01*
X37721428Y-16258571D01*
X37792857Y-16115714D01*
X37864285Y-15830000D01*
X37864285Y-15472857D01*
X37792857Y-15187142D01*
X37721428Y-15044285D01*
X37650000Y-14972857D01*
X37507142Y-14901428D01*
X37364285Y-14901428D01*
X37221428Y-14972857D01*
X37150000Y-15044285D01*
X37078571Y-15187142D01*
X37007142Y-15472857D01*
X37007142Y-15830000D01*
X37078571Y-16115714D01*
X37150000Y-16258571D01*
X37221428Y-16330000D01*
X37364285Y-16401428D01*
X38792857Y-16401428D02*
X38935714Y-16401428D01*
X39078571Y-16330000D01*
X39150000Y-16258571D01*
X39221428Y-16115714D01*
X39292857Y-15830000D01*
X39292857Y-15472857D01*
X39221428Y-15187142D01*
X39150000Y-15044285D01*
X39078571Y-14972857D01*
X38935714Y-14901428D01*
X38792857Y-14901428D01*
X38650000Y-14972857D01*
X38578571Y-15044285D01*
X38507142Y-15187142D01*
X38435714Y-15472857D01*
X38435714Y-15830000D01*
X38507142Y-16115714D01*
X38578571Y-16258571D01*
X38650000Y-16330000D01*
X38792857Y-16401428D01*
X42007142Y-16401428D02*
X42507142Y-14901428D01*
X43007142Y-16401428D01*
X44292857Y-14901428D02*
X43435714Y-14901428D01*
X43864285Y-14901428D02*
X43864285Y-16401428D01*
X43721428Y-16187142D01*
X43578571Y-16044285D01*
X43435714Y-15972857D01*
X44935714Y-15044285D02*
X45007142Y-14972857D01*
X44935714Y-14901428D01*
X44864285Y-14972857D01*
X44935714Y-15044285D01*
X44935714Y-14901428D01*
X46364285Y-16401428D02*
X45650000Y-16401428D01*
X45578571Y-15687142D01*
X45650000Y-15758571D01*
X45792857Y-15830000D01*
X46150000Y-15830000D01*
X46292857Y-15758571D01*
X46364285Y-15687142D01*
X46435714Y-15544285D01*
X46435714Y-15187142D01*
X46364285Y-15044285D01*
X46292857Y-14972857D01*
X46150000Y-14901428D01*
X45792857Y-14901428D01*
X45650000Y-14972857D01*
X45578571Y-15044285D01*
X26721428Y-16901428D02*
X26721428Y-18401428D01*
X27221428Y-17330000D01*
X27721428Y-18401428D01*
X27721428Y-16901428D01*
X28435714Y-16901428D02*
X28435714Y-17901428D01*
X28435714Y-18401428D02*
X28364285Y-18330000D01*
X28435714Y-18258571D01*
X28507142Y-18330000D01*
X28435714Y-18401428D01*
X28435714Y-18258571D01*
X29792857Y-16972857D02*
X29650000Y-16901428D01*
X29364285Y-16901428D01*
X29221428Y-16972857D01*
X29150000Y-17044285D01*
X29078571Y-17187142D01*
X29078571Y-17615714D01*
X29150000Y-17758571D01*
X29221428Y-17830000D01*
X29364285Y-17901428D01*
X29650000Y-17901428D01*
X29792857Y-17830000D01*
X30435714Y-16901428D02*
X30435714Y-17901428D01*
X30435714Y-17615714D02*
X30507142Y-17758571D01*
X30578571Y-17830000D01*
X30721428Y-17901428D01*
X30864285Y-17901428D01*
X31578571Y-16901428D02*
X31435714Y-16972857D01*
X31364285Y-17044285D01*
X31292857Y-17187142D01*
X31292857Y-17615714D01*
X31364285Y-17758571D01*
X31435714Y-17830000D01*
X31578571Y-17901428D01*
X31792857Y-17901428D01*
X31935714Y-17830000D01*
X32007142Y-17758571D01*
X32078571Y-17615714D01*
X32078571Y-17187142D01*
X32007142Y-17044285D01*
X31935714Y-16972857D01*
X31792857Y-16901428D01*
X31578571Y-16901428D01*
X33221428Y-17687142D02*
X33435714Y-17615714D01*
X33507142Y-17544285D01*
X33578571Y-17401428D01*
X33578571Y-17187142D01*
X33507142Y-17044285D01*
X33435714Y-16972857D01*
X33292857Y-16901428D01*
X32721428Y-16901428D01*
X32721428Y-18401428D01*
X33221428Y-18401428D01*
X33364285Y-18330000D01*
X33435714Y-18258571D01*
X33507142Y-18115714D01*
X33507142Y-17972857D01*
X33435714Y-17830000D01*
X33364285Y-17758571D01*
X33221428Y-17687142D01*
X32721428Y-17687142D01*
X34221428Y-16901428D02*
X34221428Y-17901428D01*
X34221428Y-18401428D02*
X34150000Y-18330000D01*
X34221428Y-18258571D01*
X34292857Y-18330000D01*
X34221428Y-18401428D01*
X34221428Y-18258571D01*
X35150000Y-16901428D02*
X35007142Y-16972857D01*
X34935714Y-17044285D01*
X34864285Y-17187142D01*
X34864285Y-17615714D01*
X34935714Y-17758571D01*
X35007142Y-17830000D01*
X35150000Y-17901428D01*
X35364285Y-17901428D01*
X35507142Y-17830000D01*
X35578571Y-17758571D01*
X35650000Y-17615714D01*
X35650000Y-17187142D01*
X35578571Y-17044285D01*
X35507142Y-16972857D01*
X35364285Y-16901428D01*
X35150000Y-16901428D01*
X36078571Y-17901428D02*
X36650000Y-17901428D01*
X36292857Y-18401428D02*
X36292857Y-17115714D01*
X36364285Y-16972857D01*
X36507142Y-16901428D01*
X36650000Y-16901428D01*
X37792857Y-16901428D02*
X37792857Y-17687142D01*
X37721428Y-17830000D01*
X37578571Y-17901428D01*
X37292857Y-17901428D01*
X37149999Y-17830000D01*
X37792857Y-16972857D02*
X37649999Y-16901428D01*
X37292857Y-16901428D01*
X37149999Y-16972857D01*
X37078571Y-17115714D01*
X37078571Y-17258571D01*
X37149999Y-17401428D01*
X37292857Y-17472857D01*
X37649999Y-17472857D01*
X37792857Y-17544285D01*
X40364285Y-16901428D02*
X39649999Y-16901428D01*
X39649999Y-18401428D01*
X41507142Y-16901428D02*
X41507142Y-17687142D01*
X41435714Y-17830000D01*
X41292857Y-17901428D01*
X41007142Y-17901428D01*
X40864285Y-17830000D01*
X41507142Y-16972857D02*
X41364285Y-16901428D01*
X41007142Y-16901428D01*
X40864285Y-16972857D01*
X40792857Y-17115714D01*
X40792857Y-17258571D01*
X40864285Y-17401428D01*
X41007142Y-17472857D01*
X41364285Y-17472857D01*
X41507142Y-17544285D01*
X42221428Y-16901428D02*
X42221428Y-18401428D01*
X42221428Y-17830000D02*
X42364285Y-17901428D01*
X42650000Y-17901428D01*
X42792857Y-17830000D01*
X42864285Y-17758571D01*
X42935714Y-17615714D01*
X42935714Y-17187142D01*
X42864285Y-17044285D01*
X42792857Y-16972857D01*
X42650000Y-16901428D01*
X42364285Y-16901428D01*
X42221428Y-16972857D01*
X43507142Y-16972857D02*
X43650000Y-16901428D01*
X43935714Y-16901428D01*
X44078571Y-16972857D01*
X44150000Y-17115714D01*
X44150000Y-17187142D01*
X44078571Y-17330000D01*
X43935714Y-17401428D01*
X43721428Y-17401428D01*
X43578571Y-17472857D01*
X43507142Y-17615714D01*
X43507142Y-17687142D01*
X43578571Y-17830000D01*
X43721428Y-17901428D01*
X43935714Y-17901428D01*
X44078571Y-17830000D01*
X45935714Y-16901428D02*
X45935714Y-18401428D01*
X46650000Y-17901428D02*
X46650000Y-16901428D01*
X46650000Y-17758571D02*
X46721428Y-17830000D01*
X46864285Y-17901428D01*
X47078571Y-17901428D01*
X47221428Y-17830000D01*
X47292857Y-17687142D01*
X47292857Y-16901428D01*
X48650000Y-16972857D02*
X48507142Y-16901428D01*
X48221428Y-16901428D01*
X48078571Y-16972857D01*
X48007142Y-17044285D01*
X47935714Y-17187142D01*
X47935714Y-17615714D01*
X48007142Y-17758571D01*
X48078571Y-17830000D01*
X48221428Y-17901428D01*
X48507142Y-17901428D01*
X48650000Y-17830000D01*
M02*
