G04 #@! TF.GenerationSoftware,KiCad,Pcbnew,(5.0.0)*
G04 #@! TF.CreationDate,2019-02-03T17:17:29-08:00*
G04 #@! TF.ProjectId,mlab100_LEDPCB_1.5,6D6C61623130305F4C45445043425F31,rev?*
G04 #@! TF.SameCoordinates,Original*
G04 #@! TF.FileFunction,Soldermask,Top*
G04 #@! TF.FilePolarity,Negative*
%FSLAX46Y46*%
G04 Gerber Fmt 4.6, Leading zero omitted, Abs format (unit mm)*
G04 Created by KiCad (PCBNEW (5.0.0)) date 02/03/19 17:17:29*
%MOMM*%
%LPD*%
G01*
G04 APERTURE LIST*
%ADD10R,2.200000X2.200000*%
%ADD11C,2.200000*%
%ADD12O,1.400000X1.400000*%
%ADD13R,1.400000X1.400000*%
%ADD14C,1.400000*%
%ADD15R,2.400000X2.900000*%
G04 APERTURE END LIST*
D10*
G04 #@! TO.C,D4*
X20800000Y-16380000D03*
D11*
X23340000Y-16380000D03*
G04 #@! TD*
D10*
G04 #@! TO.C,D1*
X7800000Y-16380000D03*
D11*
X10340000Y-16380000D03*
G04 #@! TD*
G04 #@! TO.C,D5*
X10340000Y-9630000D03*
D10*
X7800000Y-9630000D03*
G04 #@! TD*
D11*
G04 #@! TO.C,D2*
X16850000Y-16380000D03*
D10*
X14310000Y-16380000D03*
G04 #@! TD*
D11*
G04 #@! TO.C,D8*
X16850000Y-9630000D03*
D10*
X14310000Y-9630000D03*
G04 #@! TD*
G04 #@! TO.C,D9*
X20800000Y-9630000D03*
D11*
X23340000Y-9630000D03*
G04 #@! TD*
G04 #@! TO.C,D10*
X10340000Y-2890000D03*
D10*
X7800000Y-2890000D03*
G04 #@! TD*
G04 #@! TO.C,D11*
X14300000Y-2890000D03*
D11*
X16840000Y-2890000D03*
G04 #@! TD*
D10*
G04 #@! TO.C,D12*
X20800000Y-2890000D03*
D11*
X23340000Y-2890000D03*
G04 #@! TD*
D12*
G04 #@! TO.C,J14*
X55580000Y-17650000D03*
X54310000Y-17650000D03*
X55580000Y-16380000D03*
X54310000Y-16380000D03*
X55580000Y-15110000D03*
D13*
X54310000Y-15110000D03*
G04 #@! TD*
G04 #@! TO.C,J15*
X54310000Y-8360000D03*
D12*
X55580000Y-8360000D03*
X54310000Y-9630000D03*
X55580000Y-9630000D03*
X54310000Y-10900000D03*
X55580000Y-10900000D03*
G04 #@! TD*
G04 #@! TO.C,J16*
X55580000Y-4160000D03*
X54310000Y-4160000D03*
X55580000Y-2890000D03*
X54310000Y-2890000D03*
X55580000Y-1620000D03*
D13*
X54310000Y-1620000D03*
G04 #@! TD*
G04 #@! TO.C,U4*
X2820000Y-17650000D03*
D14*
X2820000Y-15110000D03*
X1550000Y-16380000D03*
G04 #@! TD*
G04 #@! TO.C,U5*
X1550000Y-9630000D03*
X2820000Y-8360000D03*
D13*
X2820000Y-10900000D03*
G04 #@! TD*
G04 #@! TO.C,U6*
X2820000Y-4160000D03*
D14*
X2820000Y-1620000D03*
X1550000Y-2890000D03*
G04 #@! TD*
D15*
G04 #@! TO.C,R1*
X44820000Y-16380000D03*
X40820000Y-16380000D03*
G04 #@! TD*
G04 #@! TO.C,R2*
X40820000Y-9630000D03*
X44820000Y-9630000D03*
G04 #@! TD*
G04 #@! TO.C,R3*
X44820000Y-2890000D03*
X40820000Y-2890000D03*
G04 #@! TD*
M02*
