M48
METRIC,TZ
T1C0.400
T2C0.800
T3C0.900
T4C1.000
T5C1.040
%
G90
G05
T1
X2400Y-36100
X3200Y-66200
X3600Y-54000
X4400Y-11400
X4600Y-58700
X5700Y-24700
X8600Y-32800
X9200Y-51100
X9200Y-56100
X9600Y-71000
X10400Y-61900
X11000Y-38200
X11400Y-54100
X12300Y-15500
X13400Y-37300
X13950Y-62400
X14200Y-58700
X15400Y-25300
X16300Y-62947
X17950Y-73000
X20000Y-49700
X20300Y-41100
X20400Y-9200
X21550Y-62550
X22500Y-29700
X24100Y-62900
X25000Y-27700
X25100Y-53000
X25500Y-7400
X25650Y-73000
X25700Y-57700
X28250Y-47250
X29000Y-18400
X29200Y-62500
X29400Y-39800
X29650Y-51250
X31150Y-41850
X31800Y-62900
X33000Y-45150
X35850Y-39750
X36700Y-63100
X37100Y-72100
X37550Y-53000
X38000Y-18500
X39100Y-57700
X41150Y-46150
X41350Y-41800
X43450Y-33050
X44700Y-45100
X45000Y-53300
X45200Y-35050
X45200Y-38200
X45300Y-15900
X45900Y-20400
X46000Y-5200
X46500Y-50100
X48200Y-58300
X48300Y-41800
X49000Y-51000
X49100Y-38200
X49300Y-12800
X49500Y-33150
X50400Y-62700
X50900Y-42900
X52350Y-58800
X52400Y-54700
X52500Y-73850
X53380Y-58900
X53400Y-54700
X54392Y-58887
X54400Y-54700
X55400Y-54700
X55413Y-58882
X55700Y-16600
X55700Y-67000
X55900Y-20700
X56275Y-27800
X56400Y-36100
X56400Y-54700
X56600Y-26000
X56600Y-69800
X56713Y-58787
X57000Y-16500
X57200Y-43900
X57925Y-44700
X58300Y-8100
X58400Y-51550
X58600Y-56900
X58600Y-59000
X58617Y-45422
X59300Y-46200
X59400Y-29500
X59900Y-40600
X59900Y-56900
X59913Y-44587
X60000Y-20300
X60500Y-53100
X60700Y-51700
X60900Y-29400
X61100Y-56900
X61700Y-16700
X62400Y-56900
X62800Y-14100
X62800Y-23100
X62900Y-67500
X63000Y-62600
X63600Y-56800
X64200Y-62600
X65200Y-25800
X65300Y-62500
X65350Y-56900
X65800Y-37200
X66500Y-62500
X66700Y-49100
X67800Y-62400
X68200Y-4300
X69500Y-62100
X69700Y-59500
X70000Y-46100
X70300Y-34300
X71600Y-11600
X71600Y-16700
X71600Y-21900
X71600Y-24400
X71600Y-27000
X73300Y-19300
X73400Y-43100
X73500Y-6700
X73900Y-30000
X74400Y-52000
X74400Y-56900
X77900Y-63800
X79300Y-73700
X79400Y-57000
X80500Y-57000
X81600Y-57000
X83400Y-21200
X83500Y-28700
X83800Y-47100
X83900Y-38600
X84500Y-64400
T2
X34500Y-49400
X37040Y-49400
X39580Y-49400
X23220Y-49400
X25760Y-49400
X28300Y-49400
T3
X3175Y-17600
X3175Y-20140
X20400Y-72900
X22940Y-72900
X16100Y-18850
X18640Y-18850
X16160Y-34600
X18700Y-34600
X28100Y-72900
X30640Y-72900
X16100Y-3175
X18640Y-3175
X12700Y-72900
X15240Y-72900
T4
X85900Y-53200
X85900Y-55740
X85900Y-58280
X85900Y-60820
X64840Y-70200
X67380Y-70200
X69920Y-70200
X72460Y-70200
X75000Y-70200
X30800Y-11100
X30800Y-13640
X30800Y-22800
X30800Y-25340
X30800Y-27880
X57220Y-74200
X59760Y-74200
X62300Y-74200
X64840Y-74200
X67380Y-74200
X69920Y-74200
X72460Y-74200
X75000Y-74200
X53100Y-63300
X55640Y-63300
X58180Y-63300
X67380Y-66200
X69920Y-66200
X72460Y-66200
X75000Y-66200
T5
X53400Y-1440
X53400Y-3980
X53400Y-6520
X53400Y-9060
X53400Y-11600
X53400Y-14140
X53400Y-16680
X53400Y-19220
X53400Y-21760
X53400Y-24300
X53400Y-26840
X53400Y-29380
X53400Y-31920
X53400Y-34460
X53400Y-37000
X53400Y-39540
X53400Y-42080
X53400Y-44620
X53400Y-47160
X78800Y-1440
X78800Y-3980
X78800Y-6520
X78800Y-9060
X78800Y-11600
X78800Y-14140
X78800Y-16680
X78800Y-19220
X78800Y-21760
X78800Y-24300
X78800Y-26840
X78800Y-29380
X78800Y-31920
X78800Y-34460
X78800Y-37000
X78800Y-39540
X78800Y-42080
X78800Y-44620
X78800Y-47160
T4
X43900Y-67000G85X45900Y-67000
G05
X43900Y-73000G85X45900Y-73000
G05
X49600Y-71000G85X49600Y-69000
G05
T0
M30
