M48
INCH,TZ
T1C0.0157
T2C0.0236
T3C0.0256
T4C0.0354
%
G90
G05
T1
X9890Y-6969
X10012Y-1638
X10071Y-4311
X10213Y-6016
X10217Y-705
X10220Y-3358
X11760Y-461
X11760Y-3118
X11760Y-5776
X11827Y-1990
X11827Y-4648
X11827Y-7305
X15000Y-3425
X15028Y-1571
X15039Y-752
X15039Y-4240
X15063Y-6083
X15067Y-6870
X17646Y-1138
X17646Y-3791
X17646Y-6449
X17839Y-390
X17890Y-5720
X17972Y-3063
T2
X610Y-3791
X1110Y-3291
X1110Y-4291
X610Y-1138
X1110Y-638
X1110Y-1638
X610Y-6449
X1110Y-5949
X1110Y-6949
T3
X18988Y-3291
X18988Y-3791
X18988Y-4291
X19488Y-3291
X19488Y-3791
X19488Y-4291
X18988Y-5949
X18988Y-6449
X18988Y-6949
X19488Y-5949
X19488Y-6449
X19488Y-6949
X18988Y-638
X18988Y-1138
X18988Y-1638
X19488Y-638
X19488Y-1138
X19488Y-1638
T4
X3071Y-6449
X4071Y-6449
X5630Y-1138
X6630Y-1138
X5634Y-3791
X6634Y-3791
X3071Y-3791
X4071Y-3791
X5634Y-6449
X6634Y-6449
X8189Y-6449
X9189Y-6449
X8189Y-3791
X9189Y-3791
X3071Y-1138
X4071Y-1138
X8189Y-1138
X9189Y-1138
T0
M30
