G04 #@! TF.GenerationSoftware,KiCad,Pcbnew,(5.0.0)*
G04 #@! TF.CreationDate,2019-02-18T12:30:38-08:00*
G04 #@! TF.ProjectId,mlab100_LEDPCB_1.6,6D6C61623130305F4C45445043425F31,rev?*
G04 #@! TF.SameCoordinates,Original*
G04 #@! TF.FileFunction,Copper,L1,Top,Signal*
G04 #@! TF.FilePolarity,Positive*
%FSLAX46Y46*%
G04 Gerber Fmt 4.6, Leading zero omitted, Abs format (unit mm)*
G04 Created by KiCad (PCBNEW (5.0.0)) date 02/18/19 12:30:38*
%MOMM*%
%LPD*%
G01*
G04 APERTURE LIST*
G04 #@! TA.AperFunction,ComponentPad*
%ADD10R,1.000000X1.000000*%
G04 #@! TD*
G04 #@! TA.AperFunction,ComponentPad*
%ADD11O,1.000000X1.000000*%
G04 #@! TD*
G04 #@! TA.AperFunction,ComponentPad*
%ADD12R,1.800000X1.800000*%
G04 #@! TD*
G04 #@! TA.AperFunction,ComponentPad*
%ADD13C,1.800000*%
G04 #@! TD*
G04 #@! TA.AperFunction,ComponentPad*
%ADD14C,1.000000*%
G04 #@! TD*
G04 #@! TA.AperFunction,SMDPad,CuDef*
%ADD15R,2.000000X2.500000*%
G04 #@! TD*
G04 #@! TA.AperFunction,ViaPad*
%ADD16C,0.800000*%
G04 #@! TD*
G04 #@! TA.AperFunction,Conductor*
%ADD17C,0.350000*%
G04 #@! TD*
G04 #@! TA.AperFunction,Conductor*
%ADD18C,0.200000*%
G04 #@! TD*
G04 APERTURE END LIST*
D10*
G04 #@! TO.P,J15,1*
G04 #@! TO.N,/LEDBoard2/GND*
X48230000Y-8360000D03*
D11*
G04 #@! TO.P,J15,2*
X49500000Y-8360000D03*
G04 #@! TO.P,J15,3*
G04 #@! TO.N,/LEDBoard2/Temp1w*
X48230000Y-9630000D03*
G04 #@! TO.P,J15,4*
G04 #@! TO.N,/LEDBoard2/LED*
X49500000Y-9630000D03*
G04 #@! TO.P,J15,5*
G04 #@! TO.N,/LEDBoard2/3V3*
X48230000Y-10900000D03*
G04 #@! TO.P,J15,6*
G04 #@! TO.N,/LEDBoard2/12V*
X49500000Y-10900000D03*
G04 #@! TD*
D12*
G04 #@! TO.P,D4,1*
G04 #@! TO.N,Net-(D4-Pad1)*
X20800000Y-16380000D03*
D13*
G04 #@! TO.P,D4,2*
G04 #@! TO.N,Net-(D2-Pad1)*
X23340000Y-16380000D03*
G04 #@! TD*
D12*
G04 #@! TO.P,D1,1*
G04 #@! TO.N,Net-(D1-Pad1)*
X7800000Y-16380000D03*
D13*
G04 #@! TO.P,D1,2*
G04 #@! TO.N,/LEDBoard1/12V*
X10340000Y-16380000D03*
G04 #@! TD*
G04 #@! TO.P,D5,2*
G04 #@! TO.N,/LEDBoard2/12V*
X10340000Y-9630000D03*
D12*
G04 #@! TO.P,D5,1*
G04 #@! TO.N,Net-(D5-Pad1)*
X7800000Y-9630000D03*
G04 #@! TD*
D13*
G04 #@! TO.P,D2,2*
G04 #@! TO.N,Net-(D1-Pad1)*
X16850000Y-16380000D03*
D12*
G04 #@! TO.P,D2,1*
G04 #@! TO.N,Net-(D2-Pad1)*
X14310000Y-16380000D03*
G04 #@! TD*
D13*
G04 #@! TO.P,D8,2*
G04 #@! TO.N,Net-(D5-Pad1)*
X16850000Y-9630000D03*
D12*
G04 #@! TO.P,D8,1*
G04 #@! TO.N,Net-(D8-Pad1)*
X14310000Y-9630000D03*
G04 #@! TD*
G04 #@! TO.P,D9,1*
G04 #@! TO.N,Net-(D9-Pad1)*
X20800000Y-9630000D03*
D13*
G04 #@! TO.P,D9,2*
G04 #@! TO.N,Net-(D8-Pad1)*
X23340000Y-9630000D03*
G04 #@! TD*
G04 #@! TO.P,D10,2*
G04 #@! TO.N,/LEDBoard3/12V*
X10340000Y-2890000D03*
D12*
G04 #@! TO.P,D10,1*
G04 #@! TO.N,Net-(D10-Pad1)*
X7800000Y-2890000D03*
G04 #@! TD*
G04 #@! TO.P,D11,1*
G04 #@! TO.N,Net-(D11-Pad1)*
X14300000Y-2890000D03*
D13*
G04 #@! TO.P,D11,2*
G04 #@! TO.N,Net-(D10-Pad1)*
X16840000Y-2890000D03*
G04 #@! TD*
D12*
G04 #@! TO.P,D12,1*
G04 #@! TO.N,Net-(D12-Pad1)*
X20800000Y-2890000D03*
D13*
G04 #@! TO.P,D12,2*
G04 #@! TO.N,Net-(D11-Pad1)*
X23340000Y-2890000D03*
G04 #@! TD*
D11*
G04 #@! TO.P,J14,6*
G04 #@! TO.N,/LEDBoard1/12V*
X49500000Y-17650000D03*
G04 #@! TO.P,J14,5*
G04 #@! TO.N,/LEDBoard1/3V3*
X48230000Y-17650000D03*
G04 #@! TO.P,J14,4*
G04 #@! TO.N,/LEDBoard1/LED*
X49500000Y-16380000D03*
G04 #@! TO.P,J14,3*
G04 #@! TO.N,/LEDBoard1/Temp1w*
X48230000Y-16380000D03*
G04 #@! TO.P,J14,2*
G04 #@! TO.N,/LEDBoard1/GND*
X49500000Y-15110000D03*
D10*
G04 #@! TO.P,J14,1*
X48230000Y-15110000D03*
G04 #@! TD*
D11*
G04 #@! TO.P,J16,6*
G04 #@! TO.N,/LEDBoard3/12V*
X49500000Y-4160000D03*
G04 #@! TO.P,J16,5*
G04 #@! TO.N,/LEDBoard3/3V3*
X48230000Y-4160000D03*
G04 #@! TO.P,J16,4*
G04 #@! TO.N,/LEDBoard3/LED*
X49500000Y-2890000D03*
G04 #@! TO.P,J16,3*
G04 #@! TO.N,/LEDBoard3/Temp1w*
X48230000Y-2890000D03*
G04 #@! TO.P,J16,2*
G04 #@! TO.N,/LEDBoard3/GND*
X49500000Y-1620000D03*
D10*
G04 #@! TO.P,J16,1*
X48230000Y-1620000D03*
G04 #@! TD*
G04 #@! TO.P,U4,1*
G04 #@! TO.N,/LEDBoard1/GND*
X2820000Y-17650000D03*
D14*
G04 #@! TO.P,U4,3*
G04 #@! TO.N,/LEDBoard1/3V3*
X2820000Y-15110000D03*
G04 #@! TO.P,U4,2*
G04 #@! TO.N,/LEDBoard1/Temp1w*
X1550000Y-16380000D03*
G04 #@! TD*
G04 #@! TO.P,U5,2*
G04 #@! TO.N,/LEDBoard2/Temp1w*
X1550000Y-9630000D03*
G04 #@! TO.P,U5,3*
G04 #@! TO.N,/LEDBoard2/3V3*
X2820000Y-8360000D03*
D10*
G04 #@! TO.P,U5,1*
G04 #@! TO.N,/LEDBoard2/GND*
X2820000Y-10900000D03*
G04 #@! TD*
G04 #@! TO.P,U6,1*
G04 #@! TO.N,/LEDBoard3/GND*
X2820000Y-4160000D03*
D14*
G04 #@! TO.P,U6,3*
G04 #@! TO.N,/LEDBoard3/3V3*
X2820000Y-1620000D03*
G04 #@! TO.P,U6,2*
G04 #@! TO.N,/LEDBoard3/Temp1w*
X1550000Y-2890000D03*
G04 #@! TD*
D15*
G04 #@! TO.P,R1,2*
G04 #@! TO.N,/LEDBoard1/LED*
X44820000Y-16380000D03*
G04 #@! TO.P,R1,1*
G04 #@! TO.N,Net-(D4-Pad1)*
X40820000Y-16380000D03*
G04 #@! TD*
G04 #@! TO.P,R2,1*
G04 #@! TO.N,Net-(D9-Pad1)*
X40820000Y-9630000D03*
G04 #@! TO.P,R2,2*
G04 #@! TO.N,/LEDBoard2/LED*
X44820000Y-9630000D03*
G04 #@! TD*
G04 #@! TO.P,R3,2*
G04 #@! TO.N,/LEDBoard3/LED*
X44820000Y-2890000D03*
G04 #@! TO.P,R3,1*
G04 #@! TO.N,Net-(D12-Pad1)*
X40820000Y-2890000D03*
G04 #@! TD*
D16*
G04 #@! TO.N,/LEDBoard1/12V*
X30040000Y-18555000D03*
G04 #@! TO.N,/LEDBoard2/12V*
X30040000Y-11805000D03*
G04 #@! TO.N,/LEDBoard3/12V*
X30040000Y-5055000D03*
G04 #@! TO.N,/LEDBoard1/LED*
X44820000Y-16380000D03*
G04 #@! TO.N,/LEDBoard1/GND*
X38260000Y-15450000D03*
X38270000Y-17450000D03*
X25120000Y-17700000D03*
X25940000Y-15280000D03*
G04 #@! TO.N,/LEDBoard2/GND*
X38100000Y-8700000D03*
X38200000Y-10770000D03*
X25580000Y-10950000D03*
X25960000Y-8530000D03*
G04 #@! TO.N,/LEDBoard2/LED*
X44820000Y-9630000D03*
G04 #@! TO.N,/LEDBoard3/LED*
X44820000Y-2890000D03*
G04 #@! TO.N,/LEDBoard3/GND*
X25950000Y-1790000D03*
X38170000Y-3990000D03*
X38200000Y-1910000D03*
X25430000Y-4160000D03*
G04 #@! TO.N,/LEDBoard1/3V3*
X29870000Y-14670000D03*
G04 #@! TO.N,/LEDBoard2/3V3*
X29870000Y-7920000D03*
G04 #@! TO.N,/LEDBoard3/3V3*
X29870000Y-1170000D03*
G04 #@! TO.N,/LEDBoard1/Temp1w*
X45440000Y-14529998D03*
G04 #@! TO.N,/LEDBoard2/Temp1w*
X45650000Y-7779998D03*
G04 #@! TO.N,/LEDBoard3/Temp1w*
X45310000Y-990000D03*
G04 #@! TD*
D17*
G04 #@! TO.N,Net-(D1-Pad1)*
X7800000Y-15130000D02*
X7825001Y-15104999D01*
X15564999Y-15104999D02*
X15940001Y-15480001D01*
X15940001Y-15480001D02*
X16840000Y-16380000D01*
X7825001Y-15104999D02*
X15564999Y-15104999D01*
X7800000Y-16380000D02*
X7800000Y-15130000D01*
G04 #@! TO.N,Net-(D2-Pad1)*
X14300000Y-16380000D02*
X14300000Y-17630000D01*
X22064999Y-17655001D02*
X22440001Y-17279999D01*
X22440001Y-17279999D02*
X23340000Y-16380000D01*
X14325001Y-17655001D02*
X22064999Y-17655001D01*
X14300000Y-17630000D02*
X14325001Y-17655001D01*
G04 #@! TO.N,/LEDBoard1/12V*
X10340000Y-17652792D02*
X11467208Y-18780000D01*
X12300000Y-18780000D02*
X12290000Y-18770000D01*
X11467208Y-18780000D02*
X12300000Y-18780000D01*
X10340000Y-16380000D02*
X10340000Y-17652792D01*
X48370000Y-18780000D02*
X49500000Y-17650000D01*
X48260000Y-18780000D02*
X48370000Y-18780000D01*
D18*
X29815000Y-18780000D02*
X30040000Y-18555000D01*
X29640000Y-18780000D02*
X29815000Y-18780000D01*
D17*
X48260000Y-18780000D02*
X29640000Y-18780000D01*
X29640000Y-18780000D02*
X12300000Y-18780000D01*
D18*
G04 #@! TO.N,/LEDBoard2/12V*
X29815000Y-12030000D02*
X30040000Y-11805000D01*
X29640000Y-12030000D02*
X29815000Y-12030000D01*
G04 #@! TO.N,/LEDBoard3/12V*
X29640000Y-5280000D02*
X29815000Y-5280000D01*
X29815000Y-5280000D02*
X30040000Y-5055000D01*
D17*
G04 #@! TO.N,Net-(D4-Pad1)*
X25920000Y-16380000D02*
X40320000Y-16380000D01*
X20825001Y-15104999D02*
X24644999Y-15104999D01*
X20800000Y-15130000D02*
X20825001Y-15104999D01*
X20800000Y-16380000D02*
X20800000Y-15130000D01*
X24644999Y-15104999D02*
X25920000Y-16380000D01*
G04 #@! TO.N,/LEDBoard2/12V*
X11467208Y-12030000D02*
X12300000Y-12030000D01*
X10340000Y-10902792D02*
X11467208Y-12030000D01*
X10340000Y-9630000D02*
X10340000Y-10902792D01*
X12300000Y-12030000D02*
X12290000Y-12020000D01*
X48370000Y-12030000D02*
X49500000Y-10900000D01*
X47752000Y-12030000D02*
X48370000Y-12030000D01*
X47752000Y-12030000D02*
X12300000Y-12030000D01*
G04 #@! TO.N,Net-(D5-Pad1)*
X15564999Y-8354999D02*
X15940001Y-8730001D01*
X7800000Y-8380000D02*
X7825001Y-8354999D01*
X15940001Y-8730001D02*
X16840000Y-9630000D01*
X7800000Y-9630000D02*
X7800000Y-8380000D01*
X7825001Y-8354999D02*
X15564999Y-8354999D01*
G04 #@! TO.N,Net-(D8-Pad1)*
X22064999Y-10905001D02*
X22440001Y-10529999D01*
X14300000Y-9630000D02*
X14300000Y-10880000D01*
X14300000Y-10880000D02*
X14325001Y-10905001D01*
X22440001Y-10529999D02*
X23340000Y-9630000D01*
X14325001Y-10905001D02*
X22064999Y-10905001D01*
G04 #@! TO.N,Net-(D9-Pad1)*
X20800000Y-9630000D02*
X20800000Y-8380000D01*
X25920000Y-9630000D02*
X40320000Y-9630000D01*
X24644999Y-8354999D02*
X25920000Y-9630000D01*
X20825001Y-8354999D02*
X24644999Y-8354999D01*
X20800000Y-8380000D02*
X20825001Y-8354999D01*
G04 #@! TO.N,/LEDBoard3/12V*
X12300000Y-5290000D02*
X12290000Y-5280000D01*
X11467208Y-5290000D02*
X12300000Y-5290000D01*
X10340000Y-4162792D02*
X11467208Y-5290000D01*
X10340000Y-2890000D02*
X10340000Y-4162792D01*
X48370000Y-5290000D02*
X49500000Y-4160000D01*
X47760000Y-5290000D02*
X48370000Y-5290000D01*
X47760000Y-5290000D02*
X12300000Y-5290000D01*
G04 #@! TO.N,Net-(D10-Pad1)*
X15940001Y-1990001D02*
X16840000Y-2890000D01*
X15564999Y-1614999D02*
X15940001Y-1990001D01*
X7825001Y-1614999D02*
X15564999Y-1614999D01*
X7800000Y-1640000D02*
X7825001Y-1614999D01*
X7800000Y-2890000D02*
X7800000Y-1640000D01*
G04 #@! TO.N,Net-(D11-Pad1)*
X22440001Y-3789999D02*
X23340000Y-2890000D01*
X22064999Y-4165001D02*
X22440001Y-3789999D01*
X14325001Y-4165001D02*
X22064999Y-4165001D01*
X14300000Y-4140000D02*
X14325001Y-4165001D01*
X14300000Y-2890000D02*
X14300000Y-4140000D01*
G04 #@! TO.N,Net-(D12-Pad1)*
X20825001Y-1614999D02*
X24644999Y-1614999D01*
X20800000Y-2890000D02*
X20800000Y-1640000D01*
X20800000Y-1640000D02*
X20825001Y-1614999D01*
X25920000Y-2890000D02*
X40320000Y-2890000D01*
X24644999Y-1614999D02*
X25920000Y-2890000D01*
G04 #@! TO.N,/LEDBoard1/LED*
X49999999Y-15880001D02*
X49500000Y-16380000D01*
X50375001Y-15504999D02*
X49999999Y-15880001D01*
X50375001Y-14689999D02*
X50375001Y-15504999D01*
X49920001Y-14234999D02*
X50375001Y-14689999D01*
X46965001Y-14234999D02*
X49920001Y-14234999D01*
X44820000Y-16380000D02*
X46965001Y-14234999D01*
G04 #@! TO.N,/LEDBoard2/LED*
X50375001Y-7939999D02*
X50375001Y-8754999D01*
X49920001Y-7484999D02*
X50375001Y-7939999D01*
X47429999Y-7484999D02*
X49920001Y-7484999D01*
X49999999Y-9130001D02*
X49500000Y-9630000D01*
X45284998Y-9630000D02*
X47429999Y-7484999D01*
X50375001Y-8754999D02*
X49999999Y-9130001D01*
X44820000Y-9630000D02*
X45284998Y-9630000D01*
G04 #@! TO.N,/LEDBoard3/LED*
X50375001Y-1199999D02*
X49920001Y-744999D01*
X49500000Y-2890000D02*
X50375001Y-2014999D01*
X50375001Y-2014999D02*
X50375001Y-1199999D01*
X44820000Y-2640000D02*
X44820000Y-2890000D01*
X46715001Y-744999D02*
X44820000Y-2640000D01*
X47420000Y-744999D02*
X46715001Y-744999D01*
X49920001Y-744999D02*
X47420000Y-744999D01*
X47420000Y-744999D02*
X46745001Y-744999D01*
G04 #@! TO.N,/LEDBoard1/3V3*
X2820000Y-15110000D02*
X3527106Y-15110000D01*
X3527106Y-15110000D02*
X4157106Y-14480000D01*
X41845002Y-14480000D02*
X42830000Y-15464998D01*
X41260000Y-14480000D02*
X41845002Y-14480000D01*
X42830000Y-15464998D02*
X42830000Y-17470000D01*
X43509999Y-18149999D02*
X42830000Y-17470000D01*
X47730001Y-18149999D02*
X43509999Y-18149999D01*
X48230000Y-17650000D02*
X47730001Y-18149999D01*
D18*
X29680000Y-14480000D02*
X29560000Y-14480000D01*
X29870000Y-14670000D02*
X29680000Y-14480000D01*
D17*
X4157106Y-14480000D02*
X29560000Y-14480000D01*
X29560000Y-14480000D02*
X41260000Y-14480000D01*
D18*
G04 #@! TO.N,/LEDBoard2/3V3*
X29680000Y-7730000D02*
X29560000Y-7730000D01*
X29870000Y-7920000D02*
X29680000Y-7730000D01*
G04 #@! TO.N,/LEDBoard3/3V3*
X29870000Y-1170000D02*
X29680000Y-980000D01*
X29680000Y-980000D02*
X29560000Y-980000D01*
G04 #@! TO.N,/LEDBoard1/Temp1w*
X2880000Y-13910000D02*
X28040000Y-13910000D01*
X1550000Y-15195998D02*
X2815998Y-13930000D01*
X2815998Y-13930000D02*
X2860000Y-13930000D01*
X2860000Y-13930000D02*
X2880000Y-13910000D01*
X28400000Y-13910000D02*
X28070000Y-13910000D01*
X1550000Y-16380000D02*
X1550000Y-15195998D01*
X28040000Y-13910000D02*
X28400000Y-13910000D01*
X44820002Y-13910000D02*
X45440000Y-14529998D01*
X41560000Y-13910000D02*
X44820002Y-13910000D01*
X41560000Y-13910000D02*
X28400000Y-13910000D01*
G04 #@! TO.N,/LEDBoard2/Temp1w*
X2815998Y-7180000D02*
X2860000Y-7180000D01*
X1550000Y-9630000D02*
X1550000Y-8445998D01*
X1550000Y-8445998D02*
X2815998Y-7180000D01*
X2860000Y-7180000D02*
X2880000Y-7160000D01*
X28400000Y-7160000D02*
X28070000Y-7160000D01*
X2880000Y-7160000D02*
X28040000Y-7160000D01*
X28040000Y-7160000D02*
X28400000Y-7160000D01*
X28400000Y-7160000D02*
X45030002Y-7160000D01*
X45030002Y-7160000D02*
X45650000Y-7779998D01*
D17*
G04 #@! TO.N,/LEDBoard2/3V3*
X2820000Y-8360000D02*
X3527106Y-8360000D01*
X3527106Y-8360000D02*
X4157106Y-7730000D01*
X41845002Y-7730000D02*
X42880000Y-8764998D01*
X40390000Y-7730000D02*
X41845002Y-7730000D01*
X4157106Y-7730000D02*
X40390000Y-7730000D01*
X47730001Y-11399999D02*
X43619999Y-11399999D01*
X48230000Y-10900000D02*
X47730001Y-11399999D01*
X42880000Y-10660000D02*
X42880000Y-8764998D01*
X43619999Y-11399999D02*
X42880000Y-10660000D01*
G04 #@! TO.N,/LEDBoard3/3V3*
X3527106Y-1620000D02*
X4157106Y-990000D01*
X2820000Y-1620000D02*
X3527106Y-1620000D01*
X41845002Y-990000D02*
X42840000Y-1984998D01*
X4157106Y-990000D02*
X41845002Y-990000D01*
X47522894Y-4160000D02*
X48230000Y-4160000D01*
X47167893Y-4515001D02*
X47522894Y-4160000D01*
X43519999Y-4515001D02*
X47167893Y-4515001D01*
X42840000Y-3835002D02*
X43519999Y-4515001D01*
X42840000Y-1984998D02*
X42840000Y-3835002D01*
D18*
G04 #@! TO.N,/LEDBoard3/Temp1w*
X1550000Y-1705998D02*
X2815998Y-440000D01*
X1550000Y-2890000D02*
X1550000Y-1705998D01*
X2815998Y-440000D02*
X2860000Y-440000D01*
X2860000Y-440000D02*
X2880000Y-420000D01*
X2880000Y-420000D02*
X28040000Y-420000D01*
X28040000Y-420000D02*
X28400000Y-420000D01*
X28400000Y-420000D02*
X28070000Y-420000D01*
X44740000Y-420000D02*
X45310000Y-990000D01*
X28400000Y-420000D02*
X44740000Y-420000D01*
G04 #@! TD*
G04 #@! TO.N,/LEDBoard3/GND*
G36*
X1295017Y-1395297D02*
X1261617Y-1417614D01*
X1206106Y-1500693D01*
X1173209Y-1549927D01*
X1142164Y-1705998D01*
X1150001Y-1745396D01*
X1150001Y-2189771D01*
X1096836Y-2211793D01*
X871793Y-2436836D01*
X750000Y-2730870D01*
X750000Y-3049130D01*
X871793Y-3343164D01*
X1096836Y-3568207D01*
X1390870Y-3690000D01*
X1709130Y-3690000D01*
X1712000Y-3688811D01*
X1712000Y-3854000D01*
X1864000Y-4006000D01*
X2666000Y-4006000D01*
X2666000Y-3204000D01*
X2974000Y-3204000D01*
X2974000Y-4006000D01*
X3776000Y-4006000D01*
X3928000Y-3854000D01*
X3928000Y-3539062D01*
X3835438Y-3315596D01*
X3664405Y-3144563D01*
X3440939Y-3052000D01*
X3126000Y-3052000D01*
X2974000Y-3204000D01*
X2666000Y-3204000D01*
X2514000Y-3052000D01*
X2348811Y-3052000D01*
X2350000Y-3049130D01*
X2350000Y-2730870D01*
X2228207Y-2436836D01*
X2003164Y-2211793D01*
X1950000Y-2189772D01*
X1950000Y-1871682D01*
X2026605Y-1795077D01*
X2141793Y-2073164D01*
X2366836Y-2298207D01*
X2660870Y-2420000D01*
X2979130Y-2420000D01*
X3273164Y-2298207D01*
X3476371Y-2095000D01*
X3480332Y-2095000D01*
X3527106Y-2104304D01*
X3573880Y-2095000D01*
X3573885Y-2095000D01*
X3712441Y-2067439D01*
X3869561Y-1962455D01*
X3896061Y-1922796D01*
X4353857Y-1465000D01*
X7350506Y-1465000D01*
X7329829Y-1568952D01*
X7315696Y-1640000D01*
X7324473Y-1684123D01*
X6900000Y-1684123D01*
X6782946Y-1707407D01*
X6683712Y-1773712D01*
X6617407Y-1872946D01*
X6594123Y-1990000D01*
X6594123Y-3790000D01*
X6617407Y-3907054D01*
X6683712Y-4006288D01*
X6782946Y-4072593D01*
X6900000Y-4095877D01*
X8700000Y-4095877D01*
X8817054Y-4072593D01*
X8916288Y-4006288D01*
X8982593Y-3907054D01*
X9005877Y-3790000D01*
X9005877Y-2089999D01*
X9442945Y-2089999D01*
X9322689Y-2210255D01*
X9140000Y-2651305D01*
X9140000Y-3128695D01*
X9322689Y-3569745D01*
X9660255Y-3907311D01*
X9865001Y-3992120D01*
X9865001Y-4116014D01*
X9855696Y-4162792D01*
X9892562Y-4348127D01*
X9968361Y-4461568D01*
X9997546Y-4505247D01*
X10037203Y-4531745D01*
X10875457Y-5370000D01*
X5019939Y-5370000D01*
X4880000Y-5342164D01*
X4805811Y-5356921D01*
X4801902Y-5356240D01*
X4042696Y-5374316D01*
X4026072Y-5363209D01*
X3870000Y-5332164D01*
X3713929Y-5363209D01*
X3703765Y-5370000D01*
X2879155Y-5370000D01*
X2866322Y-5367691D01*
X2251250Y-5295980D01*
X1713012Y-5100610D01*
X1234148Y-4786654D01*
X930391Y-4466000D01*
X1712000Y-4466000D01*
X1712000Y-4780938D01*
X1804562Y-5004404D01*
X1975595Y-5175437D01*
X2199061Y-5268000D01*
X2514000Y-5268000D01*
X2666000Y-5116000D01*
X2666000Y-4314000D01*
X2974000Y-4314000D01*
X2974000Y-5116000D01*
X3126000Y-5268000D01*
X3440939Y-5268000D01*
X3664405Y-5175437D01*
X3835438Y-5004404D01*
X3928000Y-4780938D01*
X3928000Y-4466000D01*
X3776000Y-4314000D01*
X2974000Y-4314000D01*
X2666000Y-4314000D01*
X1864000Y-4314000D01*
X1712000Y-4466000D01*
X930391Y-4466000D01*
X840357Y-4370958D01*
X552761Y-3875826D01*
X386782Y-3327804D01*
X351327Y-2756301D01*
X448296Y-2191971D01*
X672490Y-1665082D01*
X1011882Y-1203901D01*
X1448262Y-833168D01*
X1958228Y-572767D01*
X2169162Y-521152D01*
X1295017Y-1395297D01*
X1295017Y-1395297D01*
G37*
X1295017Y-1395297D02*
X1261617Y-1417614D01*
X1206106Y-1500693D01*
X1173209Y-1549927D01*
X1142164Y-1705998D01*
X1150001Y-1745396D01*
X1150001Y-2189771D01*
X1096836Y-2211793D01*
X871793Y-2436836D01*
X750000Y-2730870D01*
X750000Y-3049130D01*
X871793Y-3343164D01*
X1096836Y-3568207D01*
X1390870Y-3690000D01*
X1709130Y-3690000D01*
X1712000Y-3688811D01*
X1712000Y-3854000D01*
X1864000Y-4006000D01*
X2666000Y-4006000D01*
X2666000Y-3204000D01*
X2974000Y-3204000D01*
X2974000Y-4006000D01*
X3776000Y-4006000D01*
X3928000Y-3854000D01*
X3928000Y-3539062D01*
X3835438Y-3315596D01*
X3664405Y-3144563D01*
X3440939Y-3052000D01*
X3126000Y-3052000D01*
X2974000Y-3204000D01*
X2666000Y-3204000D01*
X2514000Y-3052000D01*
X2348811Y-3052000D01*
X2350000Y-3049130D01*
X2350000Y-2730870D01*
X2228207Y-2436836D01*
X2003164Y-2211793D01*
X1950000Y-2189772D01*
X1950000Y-1871682D01*
X2026605Y-1795077D01*
X2141793Y-2073164D01*
X2366836Y-2298207D01*
X2660870Y-2420000D01*
X2979130Y-2420000D01*
X3273164Y-2298207D01*
X3476371Y-2095000D01*
X3480332Y-2095000D01*
X3527106Y-2104304D01*
X3573880Y-2095000D01*
X3573885Y-2095000D01*
X3712441Y-2067439D01*
X3869561Y-1962455D01*
X3896061Y-1922796D01*
X4353857Y-1465000D01*
X7350506Y-1465000D01*
X7329829Y-1568952D01*
X7315696Y-1640000D01*
X7324473Y-1684123D01*
X6900000Y-1684123D01*
X6782946Y-1707407D01*
X6683712Y-1773712D01*
X6617407Y-1872946D01*
X6594123Y-1990000D01*
X6594123Y-3790000D01*
X6617407Y-3907054D01*
X6683712Y-4006288D01*
X6782946Y-4072593D01*
X6900000Y-4095877D01*
X8700000Y-4095877D01*
X8817054Y-4072593D01*
X8916288Y-4006288D01*
X8982593Y-3907054D01*
X9005877Y-3790000D01*
X9005877Y-2089999D01*
X9442945Y-2089999D01*
X9322689Y-2210255D01*
X9140000Y-2651305D01*
X9140000Y-3128695D01*
X9322689Y-3569745D01*
X9660255Y-3907311D01*
X9865001Y-3992120D01*
X9865001Y-4116014D01*
X9855696Y-4162792D01*
X9892562Y-4348127D01*
X9968361Y-4461568D01*
X9997546Y-4505247D01*
X10037203Y-4531745D01*
X10875457Y-5370000D01*
X5019939Y-5370000D01*
X4880000Y-5342164D01*
X4805811Y-5356921D01*
X4801902Y-5356240D01*
X4042696Y-5374316D01*
X4026072Y-5363209D01*
X3870000Y-5332164D01*
X3713929Y-5363209D01*
X3703765Y-5370000D01*
X2879155Y-5370000D01*
X2866322Y-5367691D01*
X2251250Y-5295980D01*
X1713012Y-5100610D01*
X1234148Y-4786654D01*
X930391Y-4466000D01*
X1712000Y-4466000D01*
X1712000Y-4780938D01*
X1804562Y-5004404D01*
X1975595Y-5175437D01*
X2199061Y-5268000D01*
X2514000Y-5268000D01*
X2666000Y-5116000D01*
X2666000Y-4314000D01*
X2974000Y-4314000D01*
X2974000Y-5116000D01*
X3126000Y-5268000D01*
X3440939Y-5268000D01*
X3664405Y-5175437D01*
X3835438Y-5004404D01*
X3928000Y-4780938D01*
X3928000Y-4466000D01*
X3776000Y-4314000D01*
X2974000Y-4314000D01*
X2666000Y-4314000D01*
X1864000Y-4314000D01*
X1712000Y-4466000D01*
X930391Y-4466000D01*
X840357Y-4370958D01*
X552761Y-3875826D01*
X386782Y-3327804D01*
X351327Y-2756301D01*
X448296Y-2191971D01*
X672490Y-1665082D01*
X1011882Y-1203901D01*
X1448262Y-833168D01*
X1958228Y-572767D01*
X2169162Y-521152D01*
X1295017Y-1395297D01*
G36*
X42365000Y-2181749D02*
X42365001Y-3788224D01*
X42355696Y-3835002D01*
X42365001Y-3881781D01*
X42384472Y-3979666D01*
X42392562Y-4020337D01*
X42424117Y-4067562D01*
X42497546Y-4177457D01*
X42537202Y-4203955D01*
X43148247Y-4815000D01*
X30698264Y-4815000D01*
X30633432Y-4658482D01*
X30436518Y-4461568D01*
X30179239Y-4355000D01*
X29900761Y-4355000D01*
X29643482Y-4461568D01*
X29446568Y-4658482D01*
X29381736Y-4815000D01*
X12387046Y-4815000D01*
X12290000Y-4795696D01*
X12192954Y-4815000D01*
X11663959Y-4815000D01*
X10833439Y-3984481D01*
X11019745Y-3907311D01*
X11357311Y-3569745D01*
X11540000Y-3128695D01*
X11540000Y-2651305D01*
X11357311Y-2210255D01*
X11237055Y-2089999D01*
X13094123Y-2089999D01*
X13094123Y-3790000D01*
X13117407Y-3907054D01*
X13183712Y-4006288D01*
X13282946Y-4072593D01*
X13400000Y-4095877D01*
X13824473Y-4095877D01*
X13815696Y-4140000D01*
X13852562Y-4325335D01*
X13924978Y-4433713D01*
X13957546Y-4482455D01*
X13972531Y-4492468D01*
X13982546Y-4507456D01*
X14139666Y-4612440D01*
X14278222Y-4640001D01*
X14278227Y-4640001D01*
X14325001Y-4649305D01*
X14371775Y-4640001D01*
X22018225Y-4640001D01*
X22064999Y-4649305D01*
X22111773Y-4640001D01*
X22111778Y-4640001D01*
X22250334Y-4612440D01*
X22407454Y-4507456D01*
X22433953Y-4467797D01*
X22808954Y-4092797D01*
X22808956Y-4092794D01*
X22896559Y-4005191D01*
X23101305Y-4090000D01*
X23578695Y-4090000D01*
X24019745Y-3907311D01*
X24357311Y-3569745D01*
X24540000Y-3128695D01*
X24540000Y-2651305D01*
X24357311Y-2210255D01*
X24237055Y-2089999D01*
X24448249Y-2089999D01*
X25551047Y-3192798D01*
X25577545Y-3232455D01*
X25617202Y-3258953D01*
X25643814Y-3276735D01*
X25734665Y-3337439D01*
X25873221Y-3365000D01*
X25873226Y-3365000D01*
X25920000Y-3374304D01*
X25966774Y-3365000D01*
X39514123Y-3365000D01*
X39514123Y-4140000D01*
X39537407Y-4257054D01*
X39603712Y-4356288D01*
X39702946Y-4422593D01*
X39820000Y-4445877D01*
X41820000Y-4445877D01*
X41937054Y-4422593D01*
X42036288Y-4356288D01*
X42102593Y-4257054D01*
X42125877Y-4140000D01*
X42125877Y-1942626D01*
X42365000Y-2181749D01*
X42365000Y-2181749D01*
G37*
X42365000Y-2181749D02*
X42365001Y-3788224D01*
X42355696Y-3835002D01*
X42365001Y-3881781D01*
X42384472Y-3979666D01*
X42392562Y-4020337D01*
X42424117Y-4067562D01*
X42497546Y-4177457D01*
X42537202Y-4203955D01*
X43148247Y-4815000D01*
X30698264Y-4815000D01*
X30633432Y-4658482D01*
X30436518Y-4461568D01*
X30179239Y-4355000D01*
X29900761Y-4355000D01*
X29643482Y-4461568D01*
X29446568Y-4658482D01*
X29381736Y-4815000D01*
X12387046Y-4815000D01*
X12290000Y-4795696D01*
X12192954Y-4815000D01*
X11663959Y-4815000D01*
X10833439Y-3984481D01*
X11019745Y-3907311D01*
X11357311Y-3569745D01*
X11540000Y-3128695D01*
X11540000Y-2651305D01*
X11357311Y-2210255D01*
X11237055Y-2089999D01*
X13094123Y-2089999D01*
X13094123Y-3790000D01*
X13117407Y-3907054D01*
X13183712Y-4006288D01*
X13282946Y-4072593D01*
X13400000Y-4095877D01*
X13824473Y-4095877D01*
X13815696Y-4140000D01*
X13852562Y-4325335D01*
X13924978Y-4433713D01*
X13957546Y-4482455D01*
X13972531Y-4492468D01*
X13982546Y-4507456D01*
X14139666Y-4612440D01*
X14278222Y-4640001D01*
X14278227Y-4640001D01*
X14325001Y-4649305D01*
X14371775Y-4640001D01*
X22018225Y-4640001D01*
X22064999Y-4649305D01*
X22111773Y-4640001D01*
X22111778Y-4640001D01*
X22250334Y-4612440D01*
X22407454Y-4507456D01*
X22433953Y-4467797D01*
X22808954Y-4092797D01*
X22808956Y-4092794D01*
X22896559Y-4005191D01*
X23101305Y-4090000D01*
X23578695Y-4090000D01*
X24019745Y-3907311D01*
X24357311Y-3569745D01*
X24540000Y-3128695D01*
X24540000Y-2651305D01*
X24357311Y-2210255D01*
X24237055Y-2089999D01*
X24448249Y-2089999D01*
X25551047Y-3192798D01*
X25577545Y-3232455D01*
X25617202Y-3258953D01*
X25643814Y-3276735D01*
X25734665Y-3337439D01*
X25873221Y-3365000D01*
X25873226Y-3365000D01*
X25920000Y-3374304D01*
X25966774Y-3365000D01*
X39514123Y-3365000D01*
X39514123Y-4140000D01*
X39537407Y-4257054D01*
X39603712Y-4356288D01*
X39702946Y-4422593D01*
X39820000Y-4445877D01*
X41820000Y-4445877D01*
X41937054Y-4422593D01*
X42036288Y-4356288D01*
X42102593Y-4257054D01*
X42125877Y-4140000D01*
X42125877Y-1942626D01*
X42365000Y-2181749D01*
G36*
X47122000Y-1314000D02*
X47274000Y-1466000D01*
X48076000Y-1466000D01*
X48076000Y-1446000D01*
X48384000Y-1446000D01*
X48384000Y-1466000D01*
X49346000Y-1466000D01*
X49346000Y-1446000D01*
X49654000Y-1446000D01*
X49654000Y-1466000D01*
X49674000Y-1466000D01*
X49674000Y-1774000D01*
X49654000Y-1774000D01*
X49654000Y-1794000D01*
X49346000Y-1794000D01*
X49346000Y-1774000D01*
X48384000Y-1774000D01*
X48384000Y-1794000D01*
X48076000Y-1794000D01*
X48076000Y-1774000D01*
X47274000Y-1774000D01*
X47122000Y-1926000D01*
X47122000Y-2240938D01*
X47214562Y-2464404D01*
X47385595Y-2635437D01*
X47458922Y-2665810D01*
X47414328Y-2890000D01*
X47476417Y-3202144D01*
X47653233Y-3466767D01*
X47740385Y-3525000D01*
X47653233Y-3583233D01*
X47585234Y-3685000D01*
X47569667Y-3685000D01*
X47522893Y-3675696D01*
X47476119Y-3685000D01*
X47476115Y-3685000D01*
X47337559Y-3712561D01*
X47306021Y-3733634D01*
X47220095Y-3791047D01*
X47220093Y-3791049D01*
X47180439Y-3817545D01*
X47153943Y-3857200D01*
X46971142Y-4040001D01*
X46125877Y-4040001D01*
X46125877Y-2005874D01*
X46911753Y-1219999D01*
X47122000Y-1219999D01*
X47122000Y-1314000D01*
X47122000Y-1314000D01*
G37*
X47122000Y-1314000D02*
X47274000Y-1466000D01*
X48076000Y-1466000D01*
X48076000Y-1446000D01*
X48384000Y-1446000D01*
X48384000Y-1466000D01*
X49346000Y-1466000D01*
X49346000Y-1446000D01*
X49654000Y-1446000D01*
X49654000Y-1466000D01*
X49674000Y-1466000D01*
X49674000Y-1774000D01*
X49654000Y-1774000D01*
X49654000Y-1794000D01*
X49346000Y-1794000D01*
X49346000Y-1774000D01*
X48384000Y-1774000D01*
X48384000Y-1794000D01*
X48076000Y-1794000D01*
X48076000Y-1774000D01*
X47274000Y-1774000D01*
X47122000Y-1926000D01*
X47122000Y-2240938D01*
X47214562Y-2464404D01*
X47385595Y-2635437D01*
X47458922Y-2665810D01*
X47414328Y-2890000D01*
X47476417Y-3202144D01*
X47653233Y-3466767D01*
X47740385Y-3525000D01*
X47653233Y-3583233D01*
X47585234Y-3685000D01*
X47569667Y-3685000D01*
X47522893Y-3675696D01*
X47476119Y-3685000D01*
X47476115Y-3685000D01*
X47337559Y-3712561D01*
X47306021Y-3733634D01*
X47220095Y-3791047D01*
X47220093Y-3791049D01*
X47180439Y-3817545D01*
X47153943Y-3857200D01*
X46971142Y-4040001D01*
X46125877Y-4040001D01*
X46125877Y-2005874D01*
X46911753Y-1219999D01*
X47122000Y-1219999D01*
X47122000Y-1314000D01*
G36*
X29276568Y-1566518D02*
X29473482Y-1763432D01*
X29730761Y-1870000D01*
X30009239Y-1870000D01*
X30266518Y-1763432D01*
X30463432Y-1566518D01*
X30505482Y-1465000D01*
X39576125Y-1465000D01*
X39537407Y-1522946D01*
X39514123Y-1640000D01*
X39514123Y-2415000D01*
X26116751Y-2415000D01*
X25166750Y-1465000D01*
X29234518Y-1465000D01*
X29276568Y-1566518D01*
X29276568Y-1566518D01*
G37*
X29276568Y-1566518D02*
X29473482Y-1763432D01*
X29730761Y-1870000D01*
X30009239Y-1870000D01*
X30266518Y-1763432D01*
X30463432Y-1566518D01*
X30505482Y-1465000D01*
X39576125Y-1465000D01*
X39537407Y-1522946D01*
X39514123Y-1640000D01*
X39514123Y-2415000D01*
X26116751Y-2415000D01*
X25166750Y-1465000D01*
X29234518Y-1465000D01*
X29276568Y-1566518D01*
G04 #@! TO.N,/LEDBoard2/GND*
G36*
X1295017Y-8135297D02*
X1261617Y-8157614D01*
X1202763Y-8245697D01*
X1173209Y-8289927D01*
X1142164Y-8445998D01*
X1150001Y-8485396D01*
X1150001Y-8929771D01*
X1096836Y-8951793D01*
X871793Y-9176836D01*
X750000Y-9470870D01*
X750000Y-9789130D01*
X871793Y-10083164D01*
X1096836Y-10308207D01*
X1390870Y-10430000D01*
X1709130Y-10430000D01*
X1712000Y-10428811D01*
X1712000Y-10594000D01*
X1864000Y-10746000D01*
X2666000Y-10746000D01*
X2666000Y-9944000D01*
X2974000Y-9944000D01*
X2974000Y-10746000D01*
X3776000Y-10746000D01*
X3928000Y-10594000D01*
X3928000Y-10279062D01*
X3835438Y-10055596D01*
X3664405Y-9884563D01*
X3440939Y-9792000D01*
X3126000Y-9792000D01*
X2974000Y-9944000D01*
X2666000Y-9944000D01*
X2514000Y-9792000D01*
X2348811Y-9792000D01*
X2350000Y-9789130D01*
X2350000Y-9470870D01*
X2228207Y-9176836D01*
X2003164Y-8951793D01*
X1950000Y-8929772D01*
X1950000Y-8611682D01*
X2026605Y-8535077D01*
X2141793Y-8813164D01*
X2366836Y-9038207D01*
X2660870Y-9160000D01*
X2979130Y-9160000D01*
X3273164Y-9038207D01*
X3476371Y-8835000D01*
X3480332Y-8835000D01*
X3527106Y-8844304D01*
X3573880Y-8835000D01*
X3573885Y-8835000D01*
X3712441Y-8807439D01*
X3869561Y-8702455D01*
X3896061Y-8662796D01*
X4353857Y-8205000D01*
X7350506Y-8205000D01*
X7328324Y-8316518D01*
X7315696Y-8380000D01*
X7324473Y-8424123D01*
X6900000Y-8424123D01*
X6782946Y-8447407D01*
X6683712Y-8513712D01*
X6617407Y-8612946D01*
X6594123Y-8730000D01*
X6594123Y-10530000D01*
X6617407Y-10647054D01*
X6683712Y-10746288D01*
X6782946Y-10812593D01*
X6900000Y-10835877D01*
X8700000Y-10835877D01*
X8817054Y-10812593D01*
X8916288Y-10746288D01*
X8982593Y-10647054D01*
X9005877Y-10530000D01*
X9005877Y-8829999D01*
X9442945Y-8829999D01*
X9322689Y-8950255D01*
X9140000Y-9391305D01*
X9140000Y-9868695D01*
X9322689Y-10309745D01*
X9660255Y-10647311D01*
X9865001Y-10732120D01*
X9865001Y-10856014D01*
X9855696Y-10902792D01*
X9865001Y-10949571D01*
X9877877Y-11014303D01*
X9892562Y-11088127D01*
X9964360Y-11195580D01*
X9997546Y-11245247D01*
X10037203Y-11271745D01*
X10870457Y-12105000D01*
X4894257Y-12105000D01*
X4880000Y-12102164D01*
X4865743Y-12105000D01*
X4840606Y-12105000D01*
X4833855Y-12106343D01*
X4797620Y-12100028D01*
X4004472Y-12118912D01*
X3870000Y-12092164D01*
X3805470Y-12105000D01*
X2843241Y-12105000D01*
X2251250Y-12035980D01*
X1713012Y-11840610D01*
X1234148Y-11526654D01*
X930391Y-11206000D01*
X1712000Y-11206000D01*
X1712000Y-11520938D01*
X1804562Y-11744404D01*
X1975595Y-11915437D01*
X2199061Y-12008000D01*
X2514000Y-12008000D01*
X2666000Y-11856000D01*
X2666000Y-11054000D01*
X2974000Y-11054000D01*
X2974000Y-11856000D01*
X3126000Y-12008000D01*
X3440939Y-12008000D01*
X3664405Y-11915437D01*
X3835438Y-11744404D01*
X3928000Y-11520938D01*
X3928000Y-11206000D01*
X3776000Y-11054000D01*
X2974000Y-11054000D01*
X2666000Y-11054000D01*
X1864000Y-11054000D01*
X1712000Y-11206000D01*
X930391Y-11206000D01*
X840357Y-11110958D01*
X552761Y-10615826D01*
X386782Y-10067804D01*
X351327Y-9496301D01*
X448296Y-8931971D01*
X672490Y-8405082D01*
X1011882Y-7943901D01*
X1448262Y-7573168D01*
X1958228Y-7312767D01*
X2169162Y-7261152D01*
X1295017Y-8135297D01*
X1295017Y-8135297D01*
G37*
X1295017Y-8135297D02*
X1261617Y-8157614D01*
X1202763Y-8245697D01*
X1173209Y-8289927D01*
X1142164Y-8445998D01*
X1150001Y-8485396D01*
X1150001Y-8929771D01*
X1096836Y-8951793D01*
X871793Y-9176836D01*
X750000Y-9470870D01*
X750000Y-9789130D01*
X871793Y-10083164D01*
X1096836Y-10308207D01*
X1390870Y-10430000D01*
X1709130Y-10430000D01*
X1712000Y-10428811D01*
X1712000Y-10594000D01*
X1864000Y-10746000D01*
X2666000Y-10746000D01*
X2666000Y-9944000D01*
X2974000Y-9944000D01*
X2974000Y-10746000D01*
X3776000Y-10746000D01*
X3928000Y-10594000D01*
X3928000Y-10279062D01*
X3835438Y-10055596D01*
X3664405Y-9884563D01*
X3440939Y-9792000D01*
X3126000Y-9792000D01*
X2974000Y-9944000D01*
X2666000Y-9944000D01*
X2514000Y-9792000D01*
X2348811Y-9792000D01*
X2350000Y-9789130D01*
X2350000Y-9470870D01*
X2228207Y-9176836D01*
X2003164Y-8951793D01*
X1950000Y-8929772D01*
X1950000Y-8611682D01*
X2026605Y-8535077D01*
X2141793Y-8813164D01*
X2366836Y-9038207D01*
X2660870Y-9160000D01*
X2979130Y-9160000D01*
X3273164Y-9038207D01*
X3476371Y-8835000D01*
X3480332Y-8835000D01*
X3527106Y-8844304D01*
X3573880Y-8835000D01*
X3573885Y-8835000D01*
X3712441Y-8807439D01*
X3869561Y-8702455D01*
X3896061Y-8662796D01*
X4353857Y-8205000D01*
X7350506Y-8205000D01*
X7328324Y-8316518D01*
X7315696Y-8380000D01*
X7324473Y-8424123D01*
X6900000Y-8424123D01*
X6782946Y-8447407D01*
X6683712Y-8513712D01*
X6617407Y-8612946D01*
X6594123Y-8730000D01*
X6594123Y-10530000D01*
X6617407Y-10647054D01*
X6683712Y-10746288D01*
X6782946Y-10812593D01*
X6900000Y-10835877D01*
X8700000Y-10835877D01*
X8817054Y-10812593D01*
X8916288Y-10746288D01*
X8982593Y-10647054D01*
X9005877Y-10530000D01*
X9005877Y-8829999D01*
X9442945Y-8829999D01*
X9322689Y-8950255D01*
X9140000Y-9391305D01*
X9140000Y-9868695D01*
X9322689Y-10309745D01*
X9660255Y-10647311D01*
X9865001Y-10732120D01*
X9865001Y-10856014D01*
X9855696Y-10902792D01*
X9865001Y-10949571D01*
X9877877Y-11014303D01*
X9892562Y-11088127D01*
X9964360Y-11195580D01*
X9997546Y-11245247D01*
X10037203Y-11271745D01*
X10870457Y-12105000D01*
X4894257Y-12105000D01*
X4880000Y-12102164D01*
X4865743Y-12105000D01*
X4840606Y-12105000D01*
X4833855Y-12106343D01*
X4797620Y-12100028D01*
X4004472Y-12118912D01*
X3870000Y-12092164D01*
X3805470Y-12105000D01*
X2843241Y-12105000D01*
X2251250Y-12035980D01*
X1713012Y-11840610D01*
X1234148Y-11526654D01*
X930391Y-11206000D01*
X1712000Y-11206000D01*
X1712000Y-11520938D01*
X1804562Y-11744404D01*
X1975595Y-11915437D01*
X2199061Y-12008000D01*
X2514000Y-12008000D01*
X2666000Y-11856000D01*
X2666000Y-11054000D01*
X2974000Y-11054000D01*
X2974000Y-11856000D01*
X3126000Y-12008000D01*
X3440939Y-12008000D01*
X3664405Y-11915437D01*
X3835438Y-11744404D01*
X3928000Y-11520938D01*
X3928000Y-11206000D01*
X3776000Y-11054000D01*
X2974000Y-11054000D01*
X2666000Y-11054000D01*
X1864000Y-11054000D01*
X1712000Y-11206000D01*
X930391Y-11206000D01*
X840357Y-11110958D01*
X552761Y-10615826D01*
X386782Y-10067804D01*
X351327Y-9496301D01*
X448296Y-8931971D01*
X672490Y-8405082D01*
X1011882Y-7943901D01*
X1448262Y-7573168D01*
X1958228Y-7312767D01*
X2169162Y-7261152D01*
X1295017Y-8135297D01*
G36*
X42405001Y-8961751D02*
X42405000Y-10613226D01*
X42395696Y-10660000D01*
X42405000Y-10706774D01*
X42405000Y-10706778D01*
X42432561Y-10845334D01*
X42537545Y-11002455D01*
X42577204Y-11028955D01*
X43103249Y-11555000D01*
X30694121Y-11555000D01*
X30633432Y-11408482D01*
X30436518Y-11211568D01*
X30179239Y-11105000D01*
X29900761Y-11105000D01*
X29643482Y-11211568D01*
X29446568Y-11408482D01*
X29385879Y-11555000D01*
X12387046Y-11555000D01*
X12290000Y-11535696D01*
X12192954Y-11555000D01*
X11663959Y-11555000D01*
X10833439Y-10724481D01*
X11019745Y-10647311D01*
X11357311Y-10309745D01*
X11540000Y-9868695D01*
X11540000Y-9391305D01*
X11357311Y-8950255D01*
X11237055Y-8829999D01*
X13104123Y-8829999D01*
X13104123Y-10530000D01*
X13127407Y-10647054D01*
X13193712Y-10746288D01*
X13292946Y-10812593D01*
X13410000Y-10835877D01*
X13824473Y-10835877D01*
X13815696Y-10880000D01*
X13852562Y-11065335D01*
X13924978Y-11173713D01*
X13957546Y-11222455D01*
X13972531Y-11232468D01*
X13982546Y-11247456D01*
X14139666Y-11352440D01*
X14278222Y-11380001D01*
X14278227Y-11380001D01*
X14325001Y-11389305D01*
X14371775Y-11380001D01*
X22018225Y-11380001D01*
X22064999Y-11389305D01*
X22111773Y-11380001D01*
X22111778Y-11380001D01*
X22250334Y-11352440D01*
X22407454Y-11247456D01*
X22433953Y-11207797D01*
X22808954Y-10832797D01*
X22808956Y-10832794D01*
X22896559Y-10745191D01*
X23101305Y-10830000D01*
X23578695Y-10830000D01*
X24019745Y-10647311D01*
X24357311Y-10309745D01*
X24540000Y-9868695D01*
X24540000Y-9391305D01*
X24357311Y-8950255D01*
X24237055Y-8829999D01*
X24448249Y-8829999D01*
X25551047Y-9932798D01*
X25577545Y-9972455D01*
X25617202Y-9998953D01*
X25643814Y-10016735D01*
X25734665Y-10077439D01*
X25873221Y-10105000D01*
X25873226Y-10105000D01*
X25920000Y-10114304D01*
X25966774Y-10105000D01*
X39514123Y-10105000D01*
X39514123Y-10880000D01*
X39537407Y-10997054D01*
X39603712Y-11096288D01*
X39702946Y-11162593D01*
X39820000Y-11185877D01*
X41820000Y-11185877D01*
X41937054Y-11162593D01*
X42036288Y-11096288D01*
X42102593Y-10997054D01*
X42125877Y-10880000D01*
X42125877Y-8682626D01*
X42405001Y-8961751D01*
X42405001Y-8961751D01*
G37*
X42405001Y-8961751D02*
X42405000Y-10613226D01*
X42395696Y-10660000D01*
X42405000Y-10706774D01*
X42405000Y-10706778D01*
X42432561Y-10845334D01*
X42537545Y-11002455D01*
X42577204Y-11028955D01*
X43103249Y-11555000D01*
X30694121Y-11555000D01*
X30633432Y-11408482D01*
X30436518Y-11211568D01*
X30179239Y-11105000D01*
X29900761Y-11105000D01*
X29643482Y-11211568D01*
X29446568Y-11408482D01*
X29385879Y-11555000D01*
X12387046Y-11555000D01*
X12290000Y-11535696D01*
X12192954Y-11555000D01*
X11663959Y-11555000D01*
X10833439Y-10724481D01*
X11019745Y-10647311D01*
X11357311Y-10309745D01*
X11540000Y-9868695D01*
X11540000Y-9391305D01*
X11357311Y-8950255D01*
X11237055Y-8829999D01*
X13104123Y-8829999D01*
X13104123Y-10530000D01*
X13127407Y-10647054D01*
X13193712Y-10746288D01*
X13292946Y-10812593D01*
X13410000Y-10835877D01*
X13824473Y-10835877D01*
X13815696Y-10880000D01*
X13852562Y-11065335D01*
X13924978Y-11173713D01*
X13957546Y-11222455D01*
X13972531Y-11232468D01*
X13982546Y-11247456D01*
X14139666Y-11352440D01*
X14278222Y-11380001D01*
X14278227Y-11380001D01*
X14325001Y-11389305D01*
X14371775Y-11380001D01*
X22018225Y-11380001D01*
X22064999Y-11389305D01*
X22111773Y-11380001D01*
X22111778Y-11380001D01*
X22250334Y-11352440D01*
X22407454Y-11247456D01*
X22433953Y-11207797D01*
X22808954Y-10832797D01*
X22808956Y-10832794D01*
X22896559Y-10745191D01*
X23101305Y-10830000D01*
X23578695Y-10830000D01*
X24019745Y-10647311D01*
X24357311Y-10309745D01*
X24540000Y-9868695D01*
X24540000Y-9391305D01*
X24357311Y-8950255D01*
X24237055Y-8829999D01*
X24448249Y-8829999D01*
X25551047Y-9932798D01*
X25577545Y-9972455D01*
X25617202Y-9998953D01*
X25643814Y-10016735D01*
X25734665Y-10077439D01*
X25873221Y-10105000D01*
X25873226Y-10105000D01*
X25920000Y-10114304D01*
X25966774Y-10105000D01*
X39514123Y-10105000D01*
X39514123Y-10880000D01*
X39537407Y-10997054D01*
X39603712Y-11096288D01*
X39702946Y-11162593D01*
X39820000Y-11185877D01*
X41820000Y-11185877D01*
X41937054Y-11162593D01*
X42036288Y-11096288D01*
X42102593Y-10997054D01*
X42125877Y-10880000D01*
X42125877Y-8682626D01*
X42405001Y-8961751D01*
G36*
X29276568Y-8316518D02*
X29473482Y-8513432D01*
X29730761Y-8620000D01*
X30009239Y-8620000D01*
X30266518Y-8513432D01*
X30463432Y-8316518D01*
X30509624Y-8205000D01*
X39576125Y-8205000D01*
X39537407Y-8262946D01*
X39514123Y-8380000D01*
X39514123Y-9155000D01*
X26116751Y-9155000D01*
X25166750Y-8205000D01*
X29230376Y-8205000D01*
X29276568Y-8316518D01*
X29276568Y-8316518D01*
G37*
X29276568Y-8316518D02*
X29473482Y-8513432D01*
X29730761Y-8620000D01*
X30009239Y-8620000D01*
X30266518Y-8513432D01*
X30463432Y-8316518D01*
X30509624Y-8205000D01*
X39576125Y-8205000D01*
X39537407Y-8262946D01*
X39514123Y-8380000D01*
X39514123Y-9155000D01*
X26116751Y-9155000D01*
X25166750Y-8205000D01*
X29230376Y-8205000D01*
X29276568Y-8316518D01*
G36*
X48384000Y-8206000D02*
X49346000Y-8206000D01*
X49346000Y-8186000D01*
X49654000Y-8186000D01*
X49654000Y-8206000D01*
X49674000Y-8206000D01*
X49674000Y-8514000D01*
X49654000Y-8514000D01*
X49654000Y-8534000D01*
X49346000Y-8534000D01*
X49346000Y-8514000D01*
X48384000Y-8514000D01*
X48384000Y-8534000D01*
X48076000Y-8534000D01*
X48076000Y-8514000D01*
X48056000Y-8514000D01*
X48056000Y-8206000D01*
X48076000Y-8206000D01*
X48076000Y-8186000D01*
X48384000Y-8186000D01*
X48384000Y-8206000D01*
X48384000Y-8206000D01*
G37*
X48384000Y-8206000D02*
X49346000Y-8206000D01*
X49346000Y-8186000D01*
X49654000Y-8186000D01*
X49654000Y-8206000D01*
X49674000Y-8206000D01*
X49674000Y-8514000D01*
X49654000Y-8514000D01*
X49654000Y-8534000D01*
X49346000Y-8534000D01*
X49346000Y-8514000D01*
X48384000Y-8514000D01*
X48384000Y-8534000D01*
X48076000Y-8534000D01*
X48076000Y-8514000D01*
X48056000Y-8514000D01*
X48056000Y-8206000D01*
X48076000Y-8206000D01*
X48076000Y-8186000D01*
X48384000Y-8186000D01*
X48384000Y-8206000D01*
G04 #@! TO.N,/LEDBoard1/GND*
G36*
X1295017Y-14885297D02*
X1261617Y-14907614D01*
X1202763Y-14995697D01*
X1173209Y-15039927D01*
X1142164Y-15195998D01*
X1150001Y-15235396D01*
X1150001Y-15679771D01*
X1096836Y-15701793D01*
X871793Y-15926836D01*
X750000Y-16220870D01*
X750000Y-16539130D01*
X871793Y-16833164D01*
X1096836Y-17058207D01*
X1390870Y-17180000D01*
X1709130Y-17180000D01*
X1712000Y-17178811D01*
X1712000Y-17344000D01*
X1864000Y-17496000D01*
X2666000Y-17496000D01*
X2666000Y-16694000D01*
X2974000Y-16694000D01*
X2974000Y-17496000D01*
X3776000Y-17496000D01*
X3928000Y-17344000D01*
X3928000Y-17029062D01*
X3835438Y-16805596D01*
X3664405Y-16634563D01*
X3440939Y-16542000D01*
X3126000Y-16542000D01*
X2974000Y-16694000D01*
X2666000Y-16694000D01*
X2514000Y-16542000D01*
X2348811Y-16542000D01*
X2350000Y-16539130D01*
X2350000Y-16220870D01*
X2228207Y-15926836D01*
X2003164Y-15701793D01*
X1950000Y-15679772D01*
X1950000Y-15361682D01*
X2026605Y-15285077D01*
X2141793Y-15563164D01*
X2366836Y-15788207D01*
X2660870Y-15910000D01*
X2979130Y-15910000D01*
X3273164Y-15788207D01*
X3476371Y-15585000D01*
X3480332Y-15585000D01*
X3527106Y-15594304D01*
X3573880Y-15585000D01*
X3573885Y-15585000D01*
X3712441Y-15557439D01*
X3869561Y-15452455D01*
X3896061Y-15412796D01*
X4353857Y-14955000D01*
X7350506Y-14955000D01*
X7328324Y-15066518D01*
X7315696Y-15130000D01*
X7324473Y-15174123D01*
X6900000Y-15174123D01*
X6782946Y-15197407D01*
X6683712Y-15263712D01*
X6617407Y-15362946D01*
X6594123Y-15480000D01*
X6594123Y-17280000D01*
X6617407Y-17397054D01*
X6683712Y-17496288D01*
X6782946Y-17562593D01*
X6900000Y-17585877D01*
X8700000Y-17585877D01*
X8817054Y-17562593D01*
X8916288Y-17496288D01*
X8982593Y-17397054D01*
X9005877Y-17280000D01*
X9005877Y-15579999D01*
X9442945Y-15579999D01*
X9322689Y-15700255D01*
X9140000Y-16141305D01*
X9140000Y-16618695D01*
X9322689Y-17059745D01*
X9660255Y-17397311D01*
X9865001Y-17482120D01*
X9865001Y-17606014D01*
X9855696Y-17652792D01*
X9892562Y-17838127D01*
X9964360Y-17945580D01*
X9997546Y-17995247D01*
X10037203Y-18021745D01*
X10870457Y-18855000D01*
X2843241Y-18855000D01*
X2251250Y-18785980D01*
X1713012Y-18590610D01*
X1234148Y-18276654D01*
X930391Y-17956000D01*
X1712000Y-17956000D01*
X1712000Y-18270938D01*
X1804562Y-18494404D01*
X1975595Y-18665437D01*
X2199061Y-18758000D01*
X2514000Y-18758000D01*
X2666000Y-18606000D01*
X2666000Y-17804000D01*
X2974000Y-17804000D01*
X2974000Y-18606000D01*
X3126000Y-18758000D01*
X3440939Y-18758000D01*
X3664405Y-18665437D01*
X3835438Y-18494404D01*
X3928000Y-18270938D01*
X3928000Y-17956000D01*
X3776000Y-17804000D01*
X2974000Y-17804000D01*
X2666000Y-17804000D01*
X1864000Y-17804000D01*
X1712000Y-17956000D01*
X930391Y-17956000D01*
X840357Y-17860958D01*
X552761Y-17365826D01*
X386782Y-16817804D01*
X351327Y-16246301D01*
X448296Y-15681971D01*
X672490Y-15155082D01*
X1011882Y-14693901D01*
X1448262Y-14323168D01*
X1958228Y-14062767D01*
X2169162Y-14011152D01*
X1295017Y-14885297D01*
X1295017Y-14885297D01*
G37*
X1295017Y-14885297D02*
X1261617Y-14907614D01*
X1202763Y-14995697D01*
X1173209Y-15039927D01*
X1142164Y-15195998D01*
X1150001Y-15235396D01*
X1150001Y-15679771D01*
X1096836Y-15701793D01*
X871793Y-15926836D01*
X750000Y-16220870D01*
X750000Y-16539130D01*
X871793Y-16833164D01*
X1096836Y-17058207D01*
X1390870Y-17180000D01*
X1709130Y-17180000D01*
X1712000Y-17178811D01*
X1712000Y-17344000D01*
X1864000Y-17496000D01*
X2666000Y-17496000D01*
X2666000Y-16694000D01*
X2974000Y-16694000D01*
X2974000Y-17496000D01*
X3776000Y-17496000D01*
X3928000Y-17344000D01*
X3928000Y-17029062D01*
X3835438Y-16805596D01*
X3664405Y-16634563D01*
X3440939Y-16542000D01*
X3126000Y-16542000D01*
X2974000Y-16694000D01*
X2666000Y-16694000D01*
X2514000Y-16542000D01*
X2348811Y-16542000D01*
X2350000Y-16539130D01*
X2350000Y-16220870D01*
X2228207Y-15926836D01*
X2003164Y-15701793D01*
X1950000Y-15679772D01*
X1950000Y-15361682D01*
X2026605Y-15285077D01*
X2141793Y-15563164D01*
X2366836Y-15788207D01*
X2660870Y-15910000D01*
X2979130Y-15910000D01*
X3273164Y-15788207D01*
X3476371Y-15585000D01*
X3480332Y-15585000D01*
X3527106Y-15594304D01*
X3573880Y-15585000D01*
X3573885Y-15585000D01*
X3712441Y-15557439D01*
X3869561Y-15452455D01*
X3896061Y-15412796D01*
X4353857Y-14955000D01*
X7350506Y-14955000D01*
X7328324Y-15066518D01*
X7315696Y-15130000D01*
X7324473Y-15174123D01*
X6900000Y-15174123D01*
X6782946Y-15197407D01*
X6683712Y-15263712D01*
X6617407Y-15362946D01*
X6594123Y-15480000D01*
X6594123Y-17280000D01*
X6617407Y-17397054D01*
X6683712Y-17496288D01*
X6782946Y-17562593D01*
X6900000Y-17585877D01*
X8700000Y-17585877D01*
X8817054Y-17562593D01*
X8916288Y-17496288D01*
X8982593Y-17397054D01*
X9005877Y-17280000D01*
X9005877Y-15579999D01*
X9442945Y-15579999D01*
X9322689Y-15700255D01*
X9140000Y-16141305D01*
X9140000Y-16618695D01*
X9322689Y-17059745D01*
X9660255Y-17397311D01*
X9865001Y-17482120D01*
X9865001Y-17606014D01*
X9855696Y-17652792D01*
X9892562Y-17838127D01*
X9964360Y-17945580D01*
X9997546Y-17995247D01*
X10037203Y-18021745D01*
X10870457Y-18855000D01*
X2843241Y-18855000D01*
X2251250Y-18785980D01*
X1713012Y-18590610D01*
X1234148Y-18276654D01*
X930391Y-17956000D01*
X1712000Y-17956000D01*
X1712000Y-18270938D01*
X1804562Y-18494404D01*
X1975595Y-18665437D01*
X2199061Y-18758000D01*
X2514000Y-18758000D01*
X2666000Y-18606000D01*
X2666000Y-17804000D01*
X2974000Y-17804000D01*
X2974000Y-18606000D01*
X3126000Y-18758000D01*
X3440939Y-18758000D01*
X3664405Y-18665437D01*
X3835438Y-18494404D01*
X3928000Y-18270938D01*
X3928000Y-17956000D01*
X3776000Y-17804000D01*
X2974000Y-17804000D01*
X2666000Y-17804000D01*
X1864000Y-17804000D01*
X1712000Y-17956000D01*
X930391Y-17956000D01*
X840357Y-17860958D01*
X552761Y-17365826D01*
X386782Y-16817804D01*
X351327Y-16246301D01*
X448296Y-15681971D01*
X672490Y-15155082D01*
X1011882Y-14693901D01*
X1448262Y-14323168D01*
X1958228Y-14062767D01*
X2169162Y-14011152D01*
X1295017Y-14885297D01*
G36*
X42355000Y-15661749D02*
X42355001Y-17423222D01*
X42345696Y-17470000D01*
X42382562Y-17655335D01*
X42457628Y-17767679D01*
X42487546Y-17812455D01*
X42527202Y-17838953D01*
X42993249Y-18305000D01*
X30694121Y-18305000D01*
X30633432Y-18158482D01*
X30436518Y-17961568D01*
X30179239Y-17855000D01*
X29900761Y-17855000D01*
X29643482Y-17961568D01*
X29446568Y-18158482D01*
X29385879Y-18305000D01*
X12387046Y-18305000D01*
X12290000Y-18285696D01*
X12192954Y-18305000D01*
X11663959Y-18305000D01*
X10833439Y-17474481D01*
X11019745Y-17397311D01*
X11357311Y-17059745D01*
X11540000Y-16618695D01*
X11540000Y-16141305D01*
X11357311Y-15700255D01*
X11237055Y-15579999D01*
X13104123Y-15579999D01*
X13104123Y-17280000D01*
X13127407Y-17397054D01*
X13193712Y-17496288D01*
X13292946Y-17562593D01*
X13410000Y-17585877D01*
X13824473Y-17585877D01*
X13815696Y-17630000D01*
X13852562Y-17815335D01*
X13924978Y-17923713D01*
X13957546Y-17972455D01*
X13972531Y-17982468D01*
X13982546Y-17997456D01*
X14139666Y-18102440D01*
X14278222Y-18130001D01*
X14278227Y-18130001D01*
X14325001Y-18139305D01*
X14371775Y-18130001D01*
X22018225Y-18130001D01*
X22064999Y-18139305D01*
X22111773Y-18130001D01*
X22111778Y-18130001D01*
X22250334Y-18102440D01*
X22407454Y-17997456D01*
X22433953Y-17957797D01*
X22808954Y-17582797D01*
X22808956Y-17582794D01*
X22896559Y-17495191D01*
X23101305Y-17580000D01*
X23578695Y-17580000D01*
X24019745Y-17397311D01*
X24357311Y-17059745D01*
X24540000Y-16618695D01*
X24540000Y-16141305D01*
X24357311Y-15700255D01*
X24237055Y-15579999D01*
X24448249Y-15579999D01*
X25551047Y-16682798D01*
X25577545Y-16722455D01*
X25617202Y-16748953D01*
X25643814Y-16766735D01*
X25734665Y-16827439D01*
X25873221Y-16855000D01*
X25873226Y-16855000D01*
X25920000Y-16864304D01*
X25966774Y-16855000D01*
X39514123Y-16855000D01*
X39514123Y-17630000D01*
X39537407Y-17747054D01*
X39603712Y-17846288D01*
X39702946Y-17912593D01*
X39820000Y-17935877D01*
X41820000Y-17935877D01*
X41937054Y-17912593D01*
X42036288Y-17846288D01*
X42102593Y-17747054D01*
X42125877Y-17630000D01*
X42125877Y-15432626D01*
X42355000Y-15661749D01*
X42355000Y-15661749D01*
G37*
X42355000Y-15661749D02*
X42355001Y-17423222D01*
X42345696Y-17470000D01*
X42382562Y-17655335D01*
X42457628Y-17767679D01*
X42487546Y-17812455D01*
X42527202Y-17838953D01*
X42993249Y-18305000D01*
X30694121Y-18305000D01*
X30633432Y-18158482D01*
X30436518Y-17961568D01*
X30179239Y-17855000D01*
X29900761Y-17855000D01*
X29643482Y-17961568D01*
X29446568Y-18158482D01*
X29385879Y-18305000D01*
X12387046Y-18305000D01*
X12290000Y-18285696D01*
X12192954Y-18305000D01*
X11663959Y-18305000D01*
X10833439Y-17474481D01*
X11019745Y-17397311D01*
X11357311Y-17059745D01*
X11540000Y-16618695D01*
X11540000Y-16141305D01*
X11357311Y-15700255D01*
X11237055Y-15579999D01*
X13104123Y-15579999D01*
X13104123Y-17280000D01*
X13127407Y-17397054D01*
X13193712Y-17496288D01*
X13292946Y-17562593D01*
X13410000Y-17585877D01*
X13824473Y-17585877D01*
X13815696Y-17630000D01*
X13852562Y-17815335D01*
X13924978Y-17923713D01*
X13957546Y-17972455D01*
X13972531Y-17982468D01*
X13982546Y-17997456D01*
X14139666Y-18102440D01*
X14278222Y-18130001D01*
X14278227Y-18130001D01*
X14325001Y-18139305D01*
X14371775Y-18130001D01*
X22018225Y-18130001D01*
X22064999Y-18139305D01*
X22111773Y-18130001D01*
X22111778Y-18130001D01*
X22250334Y-18102440D01*
X22407454Y-17997456D01*
X22433953Y-17957797D01*
X22808954Y-17582797D01*
X22808956Y-17582794D01*
X22896559Y-17495191D01*
X23101305Y-17580000D01*
X23578695Y-17580000D01*
X24019745Y-17397311D01*
X24357311Y-17059745D01*
X24540000Y-16618695D01*
X24540000Y-16141305D01*
X24357311Y-15700255D01*
X24237055Y-15579999D01*
X24448249Y-15579999D01*
X25551047Y-16682798D01*
X25577545Y-16722455D01*
X25617202Y-16748953D01*
X25643814Y-16766735D01*
X25734665Y-16827439D01*
X25873221Y-16855000D01*
X25873226Y-16855000D01*
X25920000Y-16864304D01*
X25966774Y-16855000D01*
X39514123Y-16855000D01*
X39514123Y-17630000D01*
X39537407Y-17747054D01*
X39603712Y-17846288D01*
X39702946Y-17912593D01*
X39820000Y-17935877D01*
X41820000Y-17935877D01*
X41937054Y-17912593D01*
X42036288Y-17846288D01*
X42102593Y-17747054D01*
X42125877Y-17630000D01*
X42125877Y-15432626D01*
X42355000Y-15661749D01*
G36*
X47122000Y-14804000D02*
X47274000Y-14956000D01*
X48076000Y-14956000D01*
X48076000Y-14936000D01*
X48384000Y-14936000D01*
X48384000Y-14956000D01*
X49346000Y-14956000D01*
X49346000Y-14936000D01*
X49654000Y-14936000D01*
X49654000Y-14956000D01*
X49674000Y-14956000D01*
X49674000Y-15264000D01*
X49654000Y-15264000D01*
X49654000Y-15284000D01*
X49346000Y-15284000D01*
X49346000Y-15264000D01*
X48384000Y-15264000D01*
X48384000Y-15284000D01*
X48076000Y-15284000D01*
X48076000Y-15264000D01*
X47274000Y-15264000D01*
X47122000Y-15416000D01*
X47122000Y-15730938D01*
X47214562Y-15954404D01*
X47385595Y-16125437D01*
X47458922Y-16155810D01*
X47414328Y-16380000D01*
X47476417Y-16692144D01*
X47653233Y-16956767D01*
X47740385Y-17015000D01*
X47653233Y-17073233D01*
X47476417Y-17337856D01*
X47414328Y-17650000D01*
X47419301Y-17674999D01*
X46116926Y-17674999D01*
X46125877Y-17630000D01*
X46125877Y-15745873D01*
X47122000Y-14749751D01*
X47122000Y-14804000D01*
X47122000Y-14804000D01*
G37*
X47122000Y-14804000D02*
X47274000Y-14956000D01*
X48076000Y-14956000D01*
X48076000Y-14936000D01*
X48384000Y-14936000D01*
X48384000Y-14956000D01*
X49346000Y-14956000D01*
X49346000Y-14936000D01*
X49654000Y-14936000D01*
X49654000Y-14956000D01*
X49674000Y-14956000D01*
X49674000Y-15264000D01*
X49654000Y-15264000D01*
X49654000Y-15284000D01*
X49346000Y-15284000D01*
X49346000Y-15264000D01*
X48384000Y-15264000D01*
X48384000Y-15284000D01*
X48076000Y-15284000D01*
X48076000Y-15264000D01*
X47274000Y-15264000D01*
X47122000Y-15416000D01*
X47122000Y-15730938D01*
X47214562Y-15954404D01*
X47385595Y-16125437D01*
X47458922Y-16155810D01*
X47414328Y-16380000D01*
X47476417Y-16692144D01*
X47653233Y-16956767D01*
X47740385Y-17015000D01*
X47653233Y-17073233D01*
X47476417Y-17337856D01*
X47414328Y-17650000D01*
X47419301Y-17674999D01*
X46116926Y-17674999D01*
X46125877Y-17630000D01*
X46125877Y-15745873D01*
X47122000Y-14749751D01*
X47122000Y-14804000D01*
G36*
X29276568Y-15066518D02*
X29473482Y-15263432D01*
X29730761Y-15370000D01*
X30009239Y-15370000D01*
X30266518Y-15263432D01*
X30463432Y-15066518D01*
X30509624Y-14955000D01*
X39576125Y-14955000D01*
X39537407Y-15012946D01*
X39514123Y-15130000D01*
X39514123Y-15905000D01*
X26116751Y-15905000D01*
X25166750Y-14955000D01*
X29230376Y-14955000D01*
X29276568Y-15066518D01*
X29276568Y-15066518D01*
G37*
X29276568Y-15066518D02*
X29473482Y-15263432D01*
X29730761Y-15370000D01*
X30009239Y-15370000D01*
X30266518Y-15263432D01*
X30463432Y-15066518D01*
X30509624Y-14955000D01*
X39576125Y-14955000D01*
X39537407Y-15012946D01*
X39514123Y-15130000D01*
X39514123Y-15905000D01*
X26116751Y-15905000D01*
X25166750Y-14955000D01*
X29230376Y-14955000D01*
X29276568Y-15066518D01*
G04 #@! TD*
M02*
