G04 #@! TF.GenerationSoftware,KiCad,Pcbnew,(5.0.0)*
G04 #@! TF.CreationDate,2019-01-08T13:52:07-08:00*
G04 #@! TF.ProjectId,TestPlatformBoard,54657374506C6174666F726D426F6172,rev?*
G04 #@! TF.SameCoordinates,Original*
G04 #@! TF.FileFunction,Paste,Top*
G04 #@! TF.FilePolarity,Positive*
%FSLAX46Y46*%
G04 Gerber Fmt 4.6, Leading zero omitted, Abs format (unit mm)*
G04 Created by KiCad (PCBNEW (5.0.0)) date 01/08/19 13:52:07*
%MOMM*%
%LPD*%
G01*
G04 APERTURE LIST*
%ADD10R,1.500000X1.300000*%
%ADD11R,0.800000X1.900000*%
%ADD12R,1.250000X1.500000*%
%ADD13R,1.300000X1.500000*%
%ADD14R,1.400000X0.450000*%
%ADD15R,1.525000X0.650000*%
%ADD16R,0.800000X1.000000*%
%ADD17R,0.600000X1.000000*%
%ADD18R,1.200000X2.200000*%
%ADD19R,2.750000X3.050000*%
%ADD20R,1.500000X1.250000*%
%ADD21R,1.700000X2.000000*%
%ADD22R,1.143000X0.508000*%
%ADD23R,3.050000X2.750000*%
%ADD24R,2.200000X1.200000*%
G04 APERTURE END LIST*
D10*
G04 #@! TO.C,R4*
X76350000Y-27000000D03*
X73650000Y-27000000D03*
G04 #@! TD*
D11*
G04 #@! TO.C,Q1*
X12350000Y-56300000D03*
X14250000Y-56300000D03*
X13300000Y-53300000D03*
G04 #@! TD*
D12*
G04 #@! TO.C,C9*
X36800000Y-44350000D03*
X36800000Y-41850000D03*
G04 #@! TD*
G04 #@! TO.C,C10*
X26200000Y-42000000D03*
X26200000Y-44500000D03*
G04 #@! TD*
D10*
G04 #@! TO.C,R1*
X76350000Y-16700000D03*
X73650000Y-16700000D03*
G04 #@! TD*
D13*
G04 #@! TO.C,R5*
X27400000Y-68150000D03*
X27400000Y-65450000D03*
G04 #@! TD*
D10*
G04 #@! TO.C,R6*
X73650000Y-21800000D03*
X76350000Y-21800000D03*
G04 #@! TD*
G04 #@! TO.C,R2*
X76350000Y-11600000D03*
X73650000Y-11600000D03*
G04 #@! TD*
G04 #@! TO.C,R8*
X73650000Y-24300000D03*
X76350000Y-24300000D03*
G04 #@! TD*
D13*
G04 #@! TO.C,R7*
X12100000Y-68150000D03*
X12100000Y-65450000D03*
G04 #@! TD*
D10*
G04 #@! TO.C,R3*
X73780000Y-32170000D03*
X76480000Y-32170000D03*
G04 #@! TD*
D14*
G04 #@! TO.C,IC4*
X44300000Y-30200000D03*
X44300000Y-30850000D03*
X44300000Y-31500000D03*
X44300000Y-32150000D03*
X48700000Y-32150000D03*
X48700000Y-31500000D03*
X48700000Y-30850000D03*
X48700000Y-30200000D03*
G04 #@! TD*
D15*
G04 #@! TO.C,IC5*
X43988000Y-22295000D03*
X43988000Y-23565000D03*
X43988000Y-24835000D03*
X43988000Y-26105000D03*
X49412000Y-26105000D03*
X49412000Y-24835000D03*
X49412000Y-23565000D03*
X49412000Y-22295000D03*
G04 #@! TD*
D16*
G04 #@! TO.C,IC3*
X47350000Y-42900000D03*
D17*
X48300000Y-42900000D03*
D16*
X49250000Y-42900000D03*
X49250000Y-40500000D03*
X47350000Y-40500000D03*
G04 #@! TD*
D18*
G04 #@! TO.C,IC1*
X15680000Y-41300000D03*
X11120000Y-41300000D03*
D19*
X11875000Y-49275000D03*
X14925000Y-45925000D03*
X14925000Y-49275000D03*
X11875000Y-45925000D03*
G04 #@! TD*
G04 #@! TO.C,IC2*
X3875000Y-45925000D03*
X6925000Y-49275000D03*
X6925000Y-45925000D03*
X3875000Y-49275000D03*
D18*
X3120000Y-41300000D03*
X7680000Y-41300000D03*
G04 #@! TD*
D12*
G04 #@! TO.C,C8*
X45300000Y-42950000D03*
X45300000Y-40450000D03*
G04 #@! TD*
D20*
G04 #@! TO.C,C6*
X45250000Y-34100000D03*
X47750000Y-34100000D03*
G04 #@! TD*
G04 #@! TO.C,C7*
X47700000Y-36100000D03*
X45200000Y-36100000D03*
G04 #@! TD*
G04 #@! TO.C,C5*
X49050000Y-45700000D03*
X46550000Y-45700000D03*
G04 #@! TD*
D10*
G04 #@! TO.C,JP1*
X46400000Y-47800000D03*
X49100000Y-47800000D03*
G04 #@! TD*
D11*
G04 #@! TO.C,Q6*
X23100000Y-68300000D03*
X22150000Y-65300000D03*
X24050000Y-65300000D03*
G04 #@! TD*
G04 #@! TO.C,Q2*
X30800000Y-68300000D03*
X29850000Y-65300000D03*
X31750000Y-65300000D03*
G04 #@! TD*
G04 #@! TO.C,Q5*
X4450000Y-56100000D03*
X6350000Y-56100000D03*
X5400000Y-53100000D03*
G04 #@! TD*
G04 #@! TO.C,Q4*
X15400000Y-68300000D03*
X14450000Y-65300000D03*
X16350000Y-65300000D03*
G04 #@! TD*
D20*
G04 #@! TO.C,C1*
X27350000Y-53100000D03*
X29850000Y-53100000D03*
G04 #@! TD*
D12*
G04 #@! TO.C,C4*
X45600000Y-57600000D03*
X45600000Y-60100000D03*
G04 #@! TD*
D20*
G04 #@! TO.C,C2*
X32950000Y-53100000D03*
X35450000Y-53100000D03*
G04 #@! TD*
D12*
G04 #@! TO.C,C3*
X48200000Y-60200000D03*
X48200000Y-57700000D03*
G04 #@! TD*
D21*
G04 #@! TO.C,R11*
X23800000Y-40300000D03*
X23800000Y-44300000D03*
G04 #@! TD*
D13*
G04 #@! TO.C,R9*
X19800000Y-68150000D03*
X19800000Y-65450000D03*
G04 #@! TD*
D21*
G04 #@! TO.C,R10*
X39200000Y-44100000D03*
X39200000Y-40100000D03*
G04 #@! TD*
D22*
G04 #@! TO.C,U3*
X34675000Y-45305000D03*
X34675000Y-44035000D03*
X34675000Y-42765000D03*
X34675000Y-41495000D03*
X28325000Y-41495000D03*
X28325000Y-42765000D03*
X28325000Y-44035000D03*
X28325000Y-45305000D03*
G04 #@! TD*
D11*
G04 #@! TO.C,Q3*
X37970000Y-1990000D03*
X38920000Y-4990000D03*
X37020000Y-4990000D03*
G04 #@! TD*
D23*
G04 #@! TO.C,Q7*
X45840001Y-5830001D03*
X49190001Y-2780001D03*
X45840001Y-2780001D03*
X49190001Y-5830001D03*
D24*
X41215001Y-6585001D03*
X41215001Y-2025001D03*
G04 #@! TD*
D13*
G04 #@! TO.C,R14*
X31950000Y-2810000D03*
X31950000Y-5510000D03*
G04 #@! TD*
G04 #@! TO.C,R15*
X34930000Y-2440000D03*
X34930000Y-5140000D03*
G04 #@! TD*
M02*
