M48
INCH,TZ
T1C0.0157
T2C0.0315
T3C0.0354
T4C0.0374
T5C0.0394
T6C0.0409
%
G90
G05
T1
X945Y-14213
X1260Y-26063
X1417Y-21260
X1732Y-4488
X1811Y-23110
X2244Y-9724
X3386Y-12913
X3622Y-20118
X3622Y-22087
X3780Y-27953
X4094Y-24370
X4331Y-15039
X4488Y-21299
X4843Y-6102
X5276Y-14685
X5492Y-24567
X5591Y-23110
X6063Y-9961
X6417Y-24782
X7067Y-28740
X7874Y-19567
X7961Y-17929
X8031Y-3622
X8071Y-16177
X8484Y-24626
X8909Y-11051
X9437Y-20988
X9488Y-24764
X9531Y-14626
X9843Y-10906
X9988Y-6630
X10039Y-2913
X10098Y-28740
X10118Y-22717
X11122Y-18602
X11417Y-7244
X11496Y-24606
X11673Y-20177
X12264Y-16476
X12520Y-24764
X12811Y-14571
X12894Y-19646
X12898Y-16043
X12992Y-17776
X13232Y-4701
X14079Y-12787
X14449Y-24843
X14575Y-1965
X14606Y-28386
X14961Y-7283
X15280Y-21028
X15394Y-22717
X16201Y-18169
X16268Y-13118
X16280Y-16457
X16335Y-1850
X16362Y-4744
X16482Y-9778
X16764Y-3224
X17106Y-13012
X17394Y-3524
X17598Y-17756
X17835Y-6260
X17858Y-15083
X18071Y-8031
X18110Y-2047
X18307Y-19724
X18976Y-22953
X19012Y-16421
X19134Y-5925
X19291Y-20079
X19409Y-5039
X19488Y-13051
X19843Y-24685
X20039Y-16890
X20079Y-17717
X20283Y-3087
X20520Y-5067
X20669Y-29075
X21929Y-6535
X21929Y-26378
X22008Y-8150
X22197Y-9295
X22205Y-14213
X22283Y-27480
X22441Y-6496
X22520Y-17283
X22626Y-12406
X22800Y-10300
X22805Y-17598
X22953Y-3189
X22998Y-10915
X23078Y-17883
X23307Y-10295
X23346Y-18189
X23583Y-15984
X23588Y-17554
X23600Y-11789
X23622Y-7992
X23898Y-20354
X24002Y-11600
X24070Y-22948
X24291Y-6575
X24398Y-22610
X24683Y-22330
X24724Y-5551
X24724Y-9094
X24764Y-26575
X25032Y-22512
X25492Y-25098
X25669Y-10157
X25891Y-25093
X25906Y-14646
X26292Y-25095
X26298Y-24686
X26579Y-24378
X26850Y-1693
X27559Y-18150
X27677Y-13504
X28189Y-4567
X28189Y-6575
X28189Y-8622
X28189Y-9606
X28189Y-10630
X28858Y-7598
X28898Y-16969
X28937Y-2638
X29094Y-11811
X30669Y-25118
X31220Y-29016
X31260Y-22441
X31693Y-22441
X32126Y-22441
X32677Y-20669
X32835Y-8346
X32874Y-11299
X32992Y-18543
X33031Y-15197
X33268Y-25354
X34449Y-24606
T2
X13583Y-19449
X14583Y-19449
X15583Y-19449
X9142Y-19449
X10142Y-19449
X11142Y-19449
T3
X5016Y-28701
X6016Y-28701
X1250Y-6929
X1250Y-7929
X11071Y-28701
X12071Y-28701
X6339Y-1250
X7339Y-1250
X8031Y-28701
X9031Y-28701
X6362Y-13622
X7362Y-13622
X6339Y-7421
X7339Y-7421
T4
X17992Y-20866
T5
X22528Y-29213
X23528Y-29213
X24528Y-29213
X25528Y-29213
X26528Y-29213
X27528Y-29213
X28528Y-29213
X29528Y-29213
X33819Y-20945
X33819Y-21945
X33819Y-22945
X33819Y-23945
X12126Y-4370
X12126Y-5370
X26528Y-26063
X27528Y-26063
X28528Y-26063
X29528Y-26063
X25528Y-27638
X26528Y-27638
X27528Y-27638
X28528Y-27638
X29528Y-27638
X20906Y-24921
X21906Y-24921
X22906Y-24921
X12126Y-8976
X12126Y-9976
X12126Y-10976
T6
X21024Y-567
X21024Y-1567
X21024Y-2567
X21024Y-3567
X21024Y-4567
X21024Y-5567
X21024Y-6567
X21024Y-7567
X21024Y-8567
X21024Y-9567
X21024Y-10567
X21024Y-11567
X21024Y-12567
X21024Y-13567
X21024Y-14567
X21024Y-15567
X21024Y-16567
X21024Y-17567
X21024Y-18567
X31024Y-567
X31024Y-1567
X31024Y-2567
X31024Y-3567
X31024Y-4567
X31024Y-5567
X31024Y-6567
X31024Y-7567
X31024Y-8567
X31024Y-9567
X31024Y-10567
X31024Y-11567
X31024Y-12567
X31024Y-13567
X31024Y-14567
X31024Y-15567
X31024Y-16567
X31024Y-17567
X31024Y-18567
T5
X17283Y-26378G85X18071Y-26378
G05
X17283Y-28740G85X18071Y-28740
G05
X19528Y-27953G85X19528Y-27165
G05
T0
M30
