G04 #@! TF.GenerationSoftware,KiCad,Pcbnew,(5.0.0)*
G04 #@! TF.CreationDate,2019-02-18T13:23:37-08:00*
G04 #@! TF.ProjectId,mlab100_Conn_PCB_1.6,6D6C61623130305F436F6E6E5F504342,rev?*
G04 #@! TF.SameCoordinates,Original*
G04 #@! TF.FileFunction,Legend,Top*
G04 #@! TF.FilePolarity,Positive*
%FSLAX46Y46*%
G04 Gerber Fmt 4.6, Leading zero omitted, Abs format (unit mm)*
G04 Created by KiCad (PCBNEW (5.0.0)) date 02/18/19 13:23:37*
%MOMM*%
%LPD*%
G01*
G04 APERTURE LIST*
%ADD10C,0.150000*%
%ADD11C,0.120000*%
G04 APERTURE END LIST*
D10*
X6454566Y-32846578D02*
X6879566Y-32110457D01*
X6821368Y-32777925D01*
X7370314Y-32393790D01*
X6945314Y-33129912D01*
X7295848Y-33332293D02*
X7579181Y-32841545D01*
X7720848Y-32596171D02*
X7665556Y-32610986D01*
X7680372Y-32666278D01*
X7735663Y-32651463D01*
X7720848Y-32596171D01*
X7680372Y-32666278D01*
X7982101Y-33681763D02*
X7891756Y-33676340D01*
X7751542Y-33595388D01*
X7701673Y-33519858D01*
X7686858Y-33464567D01*
X7692281Y-33374222D01*
X7813709Y-33163901D01*
X7889239Y-33114033D01*
X7944531Y-33099217D01*
X8034875Y-33104640D01*
X8175089Y-33185592D01*
X8224958Y-33261122D01*
X8277343Y-33898959D02*
X8560677Y-33408212D01*
X8479724Y-33548425D02*
X8555254Y-33498556D01*
X8610545Y-33483741D01*
X8700890Y-33489164D01*
X8770997Y-33529640D01*
X8838198Y-34222769D02*
X8788329Y-34147239D01*
X8773514Y-34091948D01*
X8778937Y-34001603D01*
X8900365Y-33791282D01*
X8975895Y-33741414D01*
X9031186Y-33726598D01*
X9121531Y-33732021D01*
X9226691Y-33792735D01*
X9276560Y-33868265D01*
X9291375Y-33923556D01*
X9285953Y-34013901D01*
X9164524Y-34224222D01*
X9088994Y-34274091D01*
X9033703Y-34288906D01*
X8943358Y-34283483D01*
X8838198Y-34222769D01*
X9867045Y-34302657D02*
X9951967Y-34398425D01*
X9966783Y-34453717D01*
X9961360Y-34544062D01*
X9900646Y-34649222D01*
X9825116Y-34699091D01*
X9769825Y-34713906D01*
X9679480Y-34708483D01*
X9399052Y-34546578D01*
X9824052Y-33810457D01*
X10069426Y-33952123D01*
X10119295Y-34027653D01*
X10134110Y-34082944D01*
X10128687Y-34173289D01*
X10088211Y-34243396D01*
X10012682Y-34293265D01*
X9957390Y-34308080D01*
X9867045Y-34302657D01*
X9621671Y-34160991D01*
X10135174Y-34971578D02*
X10418507Y-34480831D01*
X10560174Y-34235457D02*
X10504882Y-34250272D01*
X10519698Y-34305564D01*
X10574989Y-34290748D01*
X10560174Y-34235457D01*
X10519698Y-34305564D01*
X10590868Y-35234674D02*
X10541000Y-35159144D01*
X10526184Y-35103852D01*
X10531607Y-35013508D01*
X10653036Y-34803187D01*
X10728565Y-34753318D01*
X10783857Y-34738503D01*
X10874202Y-34743926D01*
X10979362Y-34804640D01*
X11029231Y-34880170D01*
X11044046Y-34935461D01*
X11038623Y-35025806D01*
X10917195Y-35236127D01*
X10841665Y-35285995D01*
X10786373Y-35300811D01*
X10696029Y-35295388D01*
X10590868Y-35234674D01*
X11329896Y-35007021D02*
X11610323Y-35168926D01*
X11576723Y-34822361D02*
X11212437Y-35453323D01*
X11207014Y-35543668D01*
X11256883Y-35619197D01*
X11326990Y-35659674D01*
X11887844Y-35983483D02*
X12110463Y-35597896D01*
X12115886Y-35507551D01*
X12066018Y-35432021D01*
X11925804Y-35351069D01*
X11835459Y-35345646D01*
X11908083Y-35948430D02*
X11817738Y-35943007D01*
X11642471Y-35841816D01*
X11592602Y-35766287D01*
X11598025Y-35675942D01*
X11638501Y-35605835D01*
X11714030Y-35555966D01*
X11804375Y-35561389D01*
X11979642Y-35662580D01*
X12069987Y-35668002D01*
X13149767Y-36712055D02*
X12799233Y-36509674D01*
X13224233Y-35773552D01*
X13710622Y-37035864D02*
X13933241Y-36650277D01*
X13938664Y-36559932D01*
X13888795Y-36484402D01*
X13748581Y-36403450D01*
X13658236Y-36398027D01*
X13730860Y-37000811D02*
X13640515Y-36995388D01*
X13465248Y-36894197D01*
X13415379Y-36818668D01*
X13420802Y-36728323D01*
X13461278Y-36658216D01*
X13536808Y-36608347D01*
X13627153Y-36613770D01*
X13802420Y-36714961D01*
X13892765Y-36720383D01*
X14061156Y-37238245D02*
X14486156Y-36502123D01*
X14324251Y-36782551D02*
X14414596Y-36787973D01*
X14554810Y-36868926D01*
X14604678Y-36944455D01*
X14619494Y-36999747D01*
X14614071Y-37090092D01*
X14492642Y-37300412D01*
X14417113Y-37350281D01*
X14361821Y-37365096D01*
X14271476Y-37359674D01*
X14131263Y-37278721D01*
X14081394Y-37203192D01*
X14712355Y-37567477D02*
X14762224Y-37643007D01*
X14902438Y-37723959D01*
X14992783Y-37729382D01*
X15068312Y-37679513D01*
X15088550Y-37644460D01*
X15093973Y-37554115D01*
X15044104Y-37478585D01*
X14938944Y-37417871D01*
X14889075Y-37342342D01*
X14894498Y-37251997D01*
X14914736Y-37216943D01*
X14990266Y-37167074D01*
X15080611Y-37172497D01*
X15185771Y-37233212D01*
X15235640Y-37308741D01*
X15883933Y-38290626D02*
X16308933Y-37554504D01*
X16517800Y-38002259D02*
X16234467Y-38493007D01*
X16477324Y-38072366D02*
X16532616Y-38057551D01*
X16622961Y-38062973D01*
X16728121Y-38123688D01*
X16777990Y-38199217D01*
X16772567Y-38289562D01*
X16549948Y-38675150D01*
X17236201Y-39024620D02*
X17145856Y-39019197D01*
X17005642Y-38938245D01*
X16955773Y-38862715D01*
X16940958Y-38807424D01*
X16946381Y-38717079D01*
X17067809Y-38506759D01*
X17143339Y-38456890D01*
X17198631Y-38442074D01*
X17288975Y-38447497D01*
X17429189Y-38528450D01*
X17479058Y-38603979D01*
X6801222Y-34583959D02*
X7226222Y-33847838D01*
X7168024Y-34515305D01*
X7716969Y-34131171D01*
X7291969Y-34867293D01*
X8110496Y-34825753D02*
X8195419Y-34921520D01*
X8210234Y-34976812D01*
X8204811Y-35067157D01*
X8144097Y-35172317D01*
X8068567Y-35222186D01*
X8013276Y-35237001D01*
X7922931Y-35231578D01*
X7642503Y-35069674D01*
X8067503Y-34333552D01*
X8312877Y-34475219D01*
X8362746Y-34550748D01*
X8377561Y-34606040D01*
X8372139Y-34696385D01*
X8331662Y-34766491D01*
X8256133Y-34816360D01*
X8200841Y-34831176D01*
X8110496Y-34825753D01*
X7865123Y-34684086D01*
X8483785Y-35555388D02*
X8433917Y-35479858D01*
X8439339Y-35389513D01*
X8803625Y-34758552D01*
X9079693Y-35899435D02*
X9302312Y-35513848D01*
X9307735Y-35423503D01*
X9257866Y-35347973D01*
X9117653Y-35267021D01*
X9027308Y-35261598D01*
X9099931Y-35864382D02*
X9009586Y-35858959D01*
X8834319Y-35757769D01*
X8784451Y-35682239D01*
X8789873Y-35591894D01*
X8830350Y-35521787D01*
X8905879Y-35471919D01*
X8996224Y-35477342D01*
X9171491Y-35578532D01*
X9261836Y-35583955D01*
X9430227Y-36101816D02*
X9855227Y-35365695D01*
X9693323Y-35646122D02*
X9783668Y-35651545D01*
X9923881Y-35732497D01*
X9973750Y-35808027D01*
X9988565Y-35863318D01*
X9983142Y-35953663D01*
X9861714Y-36163984D01*
X9786184Y-36213852D01*
X9730893Y-36228668D01*
X9640548Y-36223245D01*
X9500334Y-36142293D01*
X9450465Y-36066763D01*
X10481830Y-36708959D02*
X10061189Y-36466102D01*
X10271509Y-36587531D02*
X10696509Y-35851409D01*
X10565688Y-35916093D01*
X10455105Y-35945724D01*
X10364760Y-35940301D01*
X11362524Y-36235933D02*
X11432631Y-36276409D01*
X11482500Y-36351939D01*
X11497315Y-36407230D01*
X11491892Y-36497575D01*
X11445993Y-36658027D01*
X11344803Y-36833294D01*
X11228797Y-36953269D01*
X11153267Y-37003138D01*
X11097976Y-37017953D01*
X11007631Y-37012531D01*
X10937524Y-36972055D01*
X10887655Y-36896525D01*
X10872840Y-36841233D01*
X10878263Y-36750888D01*
X10924162Y-36590437D01*
X11025352Y-36415170D01*
X11141358Y-36295194D01*
X11216888Y-36245325D01*
X11272179Y-36230510D01*
X11362524Y-36235933D01*
X12063592Y-36640695D02*
X12133699Y-36681171D01*
X12183568Y-36756701D01*
X12198383Y-36811992D01*
X12192960Y-36902337D01*
X12147061Y-37062789D01*
X12045871Y-37238056D01*
X11929865Y-37358031D01*
X11854335Y-37407900D01*
X11799044Y-37422715D01*
X11708699Y-37417293D01*
X11638592Y-37376816D01*
X11588723Y-37301287D01*
X11573908Y-37245995D01*
X11579331Y-37155650D01*
X11625230Y-36995199D01*
X11726420Y-36819932D01*
X11842426Y-36699956D01*
X11917956Y-36650087D01*
X11973247Y-36635272D01*
X12063592Y-36640695D01*
X13640996Y-37551409D02*
X13461369Y-38429197D01*
X14131743Y-37834742D01*
X14337705Y-38935150D02*
X13917064Y-38692293D01*
X14127384Y-38813721D02*
X14552384Y-38077600D01*
X14421563Y-38142284D01*
X14310980Y-38171914D01*
X14220635Y-38166491D01*
X14693662Y-39047186D02*
X14708477Y-39102477D01*
X14653185Y-39117293D01*
X14638370Y-39062001D01*
X14693662Y-39047186D01*
X14653185Y-39117293D01*
X15744200Y-38765695D02*
X15603986Y-38684742D01*
X15513642Y-38679320D01*
X15458350Y-38694135D01*
X15327529Y-38758819D01*
X15211523Y-38878795D01*
X15049618Y-39159222D01*
X15044196Y-39249567D01*
X15059011Y-39304858D01*
X15108880Y-39380388D01*
X15249093Y-39461340D01*
X15339438Y-39466763D01*
X15394730Y-39451948D01*
X15470259Y-39402079D01*
X15571450Y-39226812D01*
X15576873Y-39136467D01*
X15562057Y-39081176D01*
X15512189Y-39005646D01*
X15371975Y-38924694D01*
X15281630Y-38919271D01*
X15226338Y-38934086D01*
X15150809Y-38983955D01*
D11*
G04 #@! TO.C,RV1*
X37055000Y-16499000D02*
X38665000Y-18111000D01*
X37196000Y-16359000D02*
X38806000Y-17970000D01*
X34310000Y-15905000D02*
X39261000Y-15905000D01*
X34310000Y-25555000D02*
X39261000Y-25555000D01*
X39261000Y-25555000D02*
X39261000Y-15905000D01*
X34310000Y-25555000D02*
X34310000Y-15905000D01*
X39084052Y-17214879D02*
G75*
G02X37690000Y-18364000I-1154052J-20121D01*
G01*
X36775704Y-17275309D02*
G75*
G02X39085000Y-17235000I1154296J40309D01*
G01*
G04 #@! TO.C,RV2*
X8720004Y-8021067D02*
G75*
G02X7530445Y-6041311I-612058J979496D01*
G01*
X7513495Y-6052194D02*
G75*
G02X9205688Y-6684917I594451J-989377D01*
G01*
X17123277Y-6016583D02*
X8766132Y-10841583D01*
X14647777Y-1728891D02*
X6290632Y-6553891D01*
X17123277Y-6016583D02*
X14647777Y-1728891D01*
X8766132Y-10841583D02*
X6290632Y-6553891D01*
X7716307Y-8115234D02*
X8306475Y-5915433D01*
X7908051Y-8167343D02*
X8499084Y-5967042D01*
G04 #@! TO.C,D13*
X17540000Y-19185000D02*
X17540000Y-22275000D01*
X22600000Y-20730000D02*
G75*
G03X22600000Y-20730000I-2500000J0D01*
G01*
X23090000Y-20729538D02*
G75*
G02X17540000Y-22274830I-2990000J-462D01*
G01*
X23090000Y-20730462D02*
G75*
G03X17540000Y-19185170I-2990000J462D01*
G01*
G04 #@! TO.C,D14*
X17540000Y-16391000D02*
X17540000Y-19481000D01*
X22600000Y-17936000D02*
G75*
G03X22600000Y-17936000I-2500000J0D01*
G01*
X23090000Y-17935538D02*
G75*
G02X17540000Y-19480830I-2990000J-462D01*
G01*
X23090000Y-17936462D02*
G75*
G03X17540000Y-16391170I-2990000J462D01*
G01*
G04 #@! TO.C,J11*
X8696814Y-30316814D02*
X7545000Y-30981814D01*
X8031814Y-29165000D02*
X8696814Y-30316814D01*
X7396814Y-28065148D02*
X5093186Y-29395148D01*
X5093186Y-29395148D02*
X3793186Y-27143482D01*
X7396814Y-28065148D02*
X6096814Y-25813482D01*
X6096814Y-25813482D02*
X3793186Y-27143482D01*
G04 #@! TO.C,J12*
X34103186Y-25813186D02*
X35255000Y-26478186D01*
X33438186Y-26965000D02*
X34103186Y-25813186D01*
X32803186Y-28064852D02*
X35106814Y-29394852D01*
X35106814Y-29394852D02*
X33806814Y-31646518D01*
X32803186Y-28064852D02*
X31503186Y-30316518D01*
X31503186Y-30316518D02*
X33806814Y-31646518D01*
G04 #@! TO.C,J13*
X22700000Y-6060000D02*
X22700000Y-3400000D01*
X20100000Y-6060000D02*
X22700000Y-6060000D01*
X20100000Y-3400000D02*
X22700000Y-3400000D01*
X20100000Y-6060000D02*
X20100000Y-3400000D01*
X18830000Y-6060000D02*
X17500000Y-6060000D01*
X17500000Y-6060000D02*
X17500000Y-4730000D01*
G04 #@! TD*
M02*
