G04 #@! TF.GenerationSoftware,KiCad,Pcbnew,(5.0.0)*
G04 #@! TF.CreationDate,2019-02-18T13:23:37-08:00*
G04 #@! TF.ProjectId,mlab100_Conn_PCB_1.6,6D6C61623130305F436F6E6E5F504342,rev?*
G04 #@! TF.SameCoordinates,Original*
G04 #@! TF.FileFunction,Legend,Bot*
G04 #@! TF.FilePolarity,Positive*
%FSLAX46Y46*%
G04 Gerber Fmt 4.6, Leading zero omitted, Abs format (unit mm)*
G04 Created by KiCad (PCBNEW (5.0.0)) date 02/18/19 13:23:37*
%MOMM*%
%LPD*%
G01*
G04 APERTURE LIST*
%ADD10C,0.200000*%
%ADD11C,0.150000*%
%ADD12C,0.120000*%
%ADD13C,0.254000*%
G04 APERTURE END LIST*
D10*
X11500000Y-36750000D02*
X12000000Y-36750000D01*
X11500000Y-35250000D02*
X12000000Y-35250000D01*
X11500000Y-33750000D02*
X12000000Y-33750000D01*
X11500000Y-32250000D02*
X12000000Y-32250000D01*
X11500000Y-30750000D02*
X12000000Y-30750000D01*
X11500000Y-35250000D02*
X7750000Y-35250000D01*
X11500000Y-33750000D02*
X11500000Y-35250000D01*
X7750000Y-33750000D02*
X11500000Y-33750000D01*
X7750000Y-32250000D02*
X7750000Y-33750000D01*
X7750000Y-36750000D02*
X7750000Y-32250000D01*
X11500000Y-36750000D02*
X7750000Y-36750000D01*
X11500000Y-30750000D02*
X11500000Y-36750000D01*
X7750000Y-30750000D02*
X11500000Y-30750000D01*
X7750000Y-32250000D02*
X7750000Y-30750000D01*
X11500000Y-32250000D02*
X7750000Y-32250000D01*
D11*
X11250000Y-31007142D02*
X10692857Y-31007142D01*
X10992857Y-31350000D01*
X10864285Y-31350000D01*
X10778571Y-31392857D01*
X10735714Y-31435714D01*
X10692857Y-31521428D01*
X10692857Y-31735714D01*
X10735714Y-31821428D01*
X10778571Y-31864285D01*
X10864285Y-31907142D01*
X11121428Y-31907142D01*
X11207142Y-31864285D01*
X11250000Y-31821428D01*
X10435714Y-31007142D02*
X10135714Y-31907142D01*
X9835714Y-31007142D01*
X9621428Y-31007142D02*
X9064285Y-31007142D01*
X9364285Y-31350000D01*
X9235714Y-31350000D01*
X9150000Y-31392857D01*
X9107142Y-31435714D01*
X9064285Y-31521428D01*
X9064285Y-31735714D01*
X9107142Y-31821428D01*
X9150000Y-31864285D01*
X9235714Y-31907142D01*
X9492857Y-31907142D01*
X9578571Y-31864285D01*
X9621428Y-31821428D01*
X8721428Y-31650000D02*
X8292857Y-31650000D01*
X8807142Y-31907142D02*
X8507142Y-31007142D01*
X8207142Y-31907142D01*
X10864285Y-32507142D02*
X10307142Y-32507142D01*
X10607142Y-32850000D01*
X10478571Y-32850000D01*
X10392857Y-32892857D01*
X10350000Y-32935714D01*
X10307142Y-33021428D01*
X10307142Y-33235714D01*
X10350000Y-33321428D01*
X10392857Y-33364285D01*
X10478571Y-33407142D01*
X10735714Y-33407142D01*
X10821428Y-33364285D01*
X10864285Y-33321428D01*
X10050000Y-32507142D02*
X9750000Y-33407142D01*
X9450000Y-32507142D01*
X9235714Y-32507142D02*
X8678571Y-32507142D01*
X8978571Y-32850000D01*
X8850000Y-32850000D01*
X8764285Y-32892857D01*
X8721428Y-32935714D01*
X8678571Y-33021428D01*
X8678571Y-33235714D01*
X8721428Y-33321428D01*
X8764285Y-33364285D01*
X8850000Y-33407142D01*
X9107142Y-33407142D01*
X9192857Y-33364285D01*
X9235714Y-33321428D01*
X9921428Y-34007142D02*
X10350000Y-34007142D01*
X10392857Y-34435714D01*
X10350000Y-34392857D01*
X10264285Y-34350000D01*
X10050000Y-34350000D01*
X9964285Y-34392857D01*
X9921428Y-34435714D01*
X9878571Y-34521428D01*
X9878571Y-34735714D01*
X9921428Y-34821428D01*
X9964285Y-34864285D01*
X10050000Y-34907142D01*
X10264285Y-34907142D01*
X10350000Y-34864285D01*
X10392857Y-34821428D01*
X9621428Y-34007142D02*
X9321428Y-34907142D01*
X9021428Y-34007142D01*
X10307142Y-36407142D02*
X10821428Y-36407142D01*
X10564285Y-36407142D02*
X10564285Y-35507142D01*
X10650000Y-35635714D01*
X10735714Y-35721428D01*
X10821428Y-35764285D01*
X9964285Y-35592857D02*
X9921428Y-35550000D01*
X9835714Y-35507142D01*
X9621428Y-35507142D01*
X9535714Y-35550000D01*
X9492857Y-35592857D01*
X9450000Y-35678571D01*
X9450000Y-35764285D01*
X9492857Y-35892857D01*
X10007142Y-36407142D01*
X9450000Y-36407142D01*
X9192857Y-35507142D02*
X8892857Y-36407142D01*
X8592857Y-35507142D01*
D12*
G04 #@! TO.C,J10*
X34298609Y-10186821D02*
X33320000Y-10751821D01*
X34678609Y-10845000D02*
X34298609Y-10186821D01*
X31986319Y-11596877D02*
X31274039Y-12008112D01*
X32694321Y-11188112D02*
X32518977Y-11289347D01*
X32760085Y-11302020D02*
X32694321Y-11188112D01*
X33395085Y-12401872D02*
X33323556Y-12277980D01*
X33592020Y-12349915D02*
X33468128Y-12421444D01*
X35058609Y-11503179D02*
X34567980Y-11786444D01*
X31274039Y-12008112D02*
X33239039Y-15411592D01*
X35058609Y-11503179D02*
X36296109Y-13646592D01*
X35051171Y-14365357D02*
X34483977Y-14692827D01*
X33951319Y-15000357D02*
X33239039Y-15411592D01*
X36296109Y-13646592D02*
X35583829Y-14057827D01*
G04 #@! TO.C,C9*
X39320000Y-18510000D02*
X39320000Y-17810000D01*
X38120000Y-17810000D02*
X38120000Y-18510000D01*
D10*
G04 #@! TO.C,IC4*
X18610000Y-15610000D02*
X20910000Y-15610000D01*
X20910000Y-15610000D02*
X20910000Y-12610000D01*
X20910000Y-12610000D02*
X18610000Y-12610000D01*
X18610000Y-12610000D02*
X18610000Y-15610000D01*
X16860000Y-15660000D02*
X18260000Y-15660000D01*
G04 #@! TO.C,IC3*
X27138000Y-15341000D02*
X27138000Y-16464000D01*
X24238000Y-15341000D02*
X24238000Y-16464000D01*
X26038000Y-15105000D02*
X25338000Y-15105000D01*
D13*
X26728300Y-17916000D02*
G75*
G03X26728300Y-17916000I-59300J0D01*
G01*
D11*
G04 #@! TO.C,U3*
X20354000Y-7268000D02*
X20354000Y-6760000D01*
X19084000Y-7268000D02*
X20354000Y-7268000D01*
X19084000Y-6760000D02*
X19084000Y-7268000D01*
X22132000Y-6760000D02*
X17560000Y-6760000D01*
X22132000Y-11840000D02*
X22132000Y-6760000D01*
X17560000Y-11840000D02*
X22132000Y-11840000D01*
X17560000Y-6760000D02*
X17560000Y-11840000D01*
D12*
G04 #@! TO.C,J3*
X24670000Y-29080000D02*
X25690000Y-29080000D01*
X24670000Y-23880000D02*
X25690000Y-23880000D01*
X22130000Y-29080000D02*
X23150000Y-29080000D01*
X22130000Y-23880000D02*
X23150000Y-23880000D01*
X19590000Y-29080000D02*
X20610000Y-29080000D01*
X19590000Y-23880000D02*
X20610000Y-23880000D01*
X17050000Y-29080000D02*
X18070000Y-29080000D01*
X17050000Y-23880000D02*
X18070000Y-23880000D01*
X14510000Y-29080000D02*
X15530000Y-29080000D01*
X14510000Y-23880000D02*
X15530000Y-23880000D01*
X27210000Y-29080000D02*
X27780000Y-29080000D01*
X27210000Y-23880000D02*
X27780000Y-23880000D01*
X12420000Y-29080000D02*
X12990000Y-29080000D01*
X12420000Y-23880000D02*
X12990000Y-23880000D01*
X12990000Y-22440000D02*
X12990000Y-23880000D01*
X27780000Y-23880000D02*
X27780000Y-29080000D01*
X12420000Y-23880000D02*
X12420000Y-29080000D01*
G04 #@! TO.C,J8*
X22130000Y-38290000D02*
X22130000Y-37160000D01*
X21370000Y-38290000D02*
X22130000Y-38290000D01*
X22065000Y-35582470D02*
X22065000Y-34760000D01*
X22065000Y-36400000D02*
X22065000Y-36197530D01*
X21933471Y-36400000D02*
X22065000Y-36400000D01*
X20663471Y-36400000D02*
X20806529Y-36400000D01*
X20610000Y-36596529D02*
X20610000Y-36453471D01*
X20610000Y-38290000D02*
X20610000Y-37723471D01*
X22065000Y-34760000D02*
X18135000Y-34760000D01*
X20610000Y-38290000D02*
X18135000Y-38290000D01*
X18135000Y-36852470D02*
X18135000Y-36197530D01*
X18135000Y-35582470D02*
X18135000Y-34760000D01*
X18135000Y-38290000D02*
X18135000Y-37467530D01*
G04 #@! TO.C,J9*
X5868891Y-10243408D02*
X6581171Y-10654643D01*
X8213681Y-11597173D02*
X8925961Y-12008408D01*
X7113829Y-10962173D02*
X7681023Y-11289643D01*
X4631391Y-12386821D02*
X5868891Y-10243408D01*
X6960961Y-15411888D02*
X8925961Y-12008408D01*
X4631391Y-12386821D02*
X5122020Y-12670085D01*
X6097980Y-13233556D02*
X6221872Y-13305085D01*
X6241444Y-13378128D02*
X6169915Y-13502020D01*
X5606444Y-14477980D02*
X5540679Y-14591888D01*
X5540679Y-14591888D02*
X5716023Y-14693124D01*
X6248681Y-15000653D02*
X6960961Y-15411888D01*
X4251391Y-13045000D02*
X3871391Y-13703179D01*
X3871391Y-13703179D02*
X4850000Y-14268179D01*
G04 #@! TO.C,Q1*
X27400000Y-20260000D02*
X27400000Y-18760000D01*
X27400000Y-18760000D02*
X27670000Y-18760000D01*
X27670000Y-18760000D02*
X27670000Y-15930000D01*
X34300000Y-20260000D02*
X34300000Y-18760000D01*
X34300000Y-18760000D02*
X34030000Y-18760000D01*
X34030000Y-18760000D02*
X34030000Y-17660000D01*
G04 #@! TO.C,Q3*
X9170000Y-18050000D02*
X9170000Y-19150000D01*
X8900000Y-18050000D02*
X9170000Y-18050000D01*
X8900000Y-16550000D02*
X8900000Y-18050000D01*
X15530000Y-18050000D02*
X15530000Y-20880000D01*
X15800000Y-18050000D02*
X15530000Y-18050000D01*
X15800000Y-16550000D02*
X15800000Y-18050000D01*
G04 #@! TO.C,IC1*
X28550000Y-29590000D02*
X28550000Y-27790000D01*
X31770000Y-27790000D02*
X31770000Y-30240000D01*
G04 #@! TO.C,IC2*
X11000000Y-24590000D02*
X8550000Y-24590000D01*
X9200000Y-21370000D02*
X11000000Y-21370000D01*
G04 #@! TO.C,R10*
X38050000Y-16160000D02*
X38050000Y-15160000D01*
X36690000Y-15160000D02*
X36690000Y-16160000D01*
G04 #@! TO.C,R11*
X12906000Y-9038000D02*
X12906000Y-8038000D01*
X11546000Y-8038000D02*
X11546000Y-9038000D01*
G04 #@! TO.C,R12*
X33450000Y-33130000D02*
X34450000Y-33130000D01*
X34450000Y-31770000D02*
X33450000Y-31770000D01*
G04 #@! TO.C,R13*
X10620000Y-27380000D02*
X10620000Y-26380000D01*
X9260000Y-26380000D02*
X9260000Y-27380000D01*
G04 #@! TO.C,R14*
X20190000Y-34490000D02*
X21190000Y-34490000D01*
X21190000Y-33130000D02*
X20190000Y-33130000D01*
G04 #@! TO.C,R15*
X31350000Y-15700000D02*
X30350000Y-15700000D01*
X30350000Y-17060000D02*
X31350000Y-17060000D01*
G04 #@! TO.C,R16*
X11850000Y-21110000D02*
X12850000Y-21110000D01*
X12850000Y-19750000D02*
X11850000Y-19750000D01*
G04 #@! TO.C,C10*
X15112000Y-8622000D02*
X15112000Y-7922000D01*
X13912000Y-7922000D02*
X13912000Y-8622000D01*
G04 #@! TO.C,C1*
X26200000Y-18070000D02*
X25500000Y-18070000D01*
X25500000Y-19270000D02*
X26200000Y-19270000D01*
G04 #@! TO.C,C2*
X25784000Y-12764000D02*
X25084000Y-12764000D01*
X25084000Y-13964000D02*
X25784000Y-13964000D01*
G04 #@! TO.C,C5*
X25084000Y-12694000D02*
X25784000Y-12694000D01*
X25784000Y-11494000D02*
X25084000Y-11494000D01*
G04 #@! TO.C,JP1*
X25760000Y-21160000D02*
X25760000Y-20160000D01*
X24400000Y-20160000D02*
X24400000Y-21160000D01*
G04 #@! TO.C,D1*
X14550000Y-31000000D02*
X12450000Y-31000000D01*
X14550000Y-32000000D02*
X12450000Y-32000000D01*
X14550000Y-31000000D02*
X14550000Y-32000000D01*
G04 #@! TO.C,D2*
X14550000Y-32500000D02*
X14550000Y-33500000D01*
X14550000Y-33500000D02*
X12450000Y-33500000D01*
X14550000Y-32500000D02*
X12450000Y-32500000D01*
G04 #@! TO.C,D3*
X14550000Y-34000000D02*
X12450000Y-34000000D01*
X14550000Y-35000000D02*
X12450000Y-35000000D01*
X14550000Y-34000000D02*
X14550000Y-35000000D01*
G04 #@! TO.C,D4*
X14550000Y-35500000D02*
X14550000Y-36500000D01*
X14550000Y-36500000D02*
X12450000Y-36500000D01*
X14550000Y-35500000D02*
X12450000Y-35500000D01*
G04 #@! TO.C,R1*
X15750000Y-32180000D02*
X16750000Y-32180000D01*
X16750000Y-30820000D02*
X15750000Y-30820000D01*
G04 #@! TO.C,R2*
X16750000Y-33820000D02*
X15750000Y-33820000D01*
X15750000Y-35180000D02*
X16750000Y-35180000D01*
G04 #@! TO.C,R3*
X15750000Y-36680000D02*
X16750000Y-36680000D01*
X16750000Y-35320000D02*
X15750000Y-35320000D01*
G04 #@! TO.C,R4*
X16750000Y-32320000D02*
X15750000Y-32320000D01*
X15750000Y-33680000D02*
X16750000Y-33680000D01*
G04 #@! TO.C,C9*
D11*
X38987142Y-20683333D02*
X39034761Y-20635714D01*
X39082380Y-20492857D01*
X39082380Y-20397619D01*
X39034761Y-20254761D01*
X38939523Y-20159523D01*
X38844285Y-20111904D01*
X38653809Y-20064285D01*
X38510952Y-20064285D01*
X38320476Y-20111904D01*
X38225238Y-20159523D01*
X38130000Y-20254761D01*
X38082380Y-20397619D01*
X38082380Y-20492857D01*
X38130000Y-20635714D01*
X38177619Y-20683333D01*
X39082380Y-21159523D02*
X39082380Y-21350000D01*
X39034761Y-21445238D01*
X38987142Y-21492857D01*
X38844285Y-21588095D01*
X38653809Y-21635714D01*
X38272857Y-21635714D01*
X38177619Y-21588095D01*
X38130000Y-21540476D01*
X38082380Y-21445238D01*
X38082380Y-21254761D01*
X38130000Y-21159523D01*
X38177619Y-21111904D01*
X38272857Y-21064285D01*
X38510952Y-21064285D01*
X38606190Y-21111904D01*
X38653809Y-21159523D01*
X38701428Y-21254761D01*
X38701428Y-21445238D01*
X38653809Y-21540476D01*
X38606190Y-21588095D01*
X38510952Y-21635714D01*
G04 #@! TO.C,IC4*
X23686190Y-16782380D02*
X23686190Y-15782380D01*
X22638571Y-16687142D02*
X22686190Y-16734761D01*
X22829047Y-16782380D01*
X22924285Y-16782380D01*
X23067142Y-16734761D01*
X23162380Y-16639523D01*
X23210000Y-16544285D01*
X23257619Y-16353809D01*
X23257619Y-16210952D01*
X23210000Y-16020476D01*
X23162380Y-15925238D01*
X23067142Y-15830000D01*
X22924285Y-15782380D01*
X22829047Y-15782380D01*
X22686190Y-15830000D01*
X22638571Y-15877619D01*
X21781428Y-16115714D02*
X21781428Y-16782380D01*
X22019523Y-15734761D02*
X22257619Y-16449047D01*
X21638571Y-16449047D01*
G04 #@! TO.C,IC3*
D13*
X30199761Y-15414523D02*
X30199761Y-14144523D01*
X28869285Y-15293571D02*
X28929761Y-15354047D01*
X29111190Y-15414523D01*
X29232142Y-15414523D01*
X29413571Y-15354047D01*
X29534523Y-15233095D01*
X29595000Y-15112142D01*
X29655476Y-14870238D01*
X29655476Y-14688809D01*
X29595000Y-14446904D01*
X29534523Y-14325952D01*
X29413571Y-14205000D01*
X29232142Y-14144523D01*
X29111190Y-14144523D01*
X28929761Y-14205000D01*
X28869285Y-14265476D01*
X28445952Y-14144523D02*
X27659761Y-14144523D01*
X28083095Y-14628333D01*
X27901666Y-14628333D01*
X27780714Y-14688809D01*
X27720238Y-14749285D01*
X27659761Y-14870238D01*
X27659761Y-15172619D01*
X27720238Y-15293571D01*
X27780714Y-15354047D01*
X27901666Y-15414523D01*
X28264523Y-15414523D01*
X28385476Y-15354047D01*
X28445952Y-15293571D01*
G04 #@! TO.C,U3*
D11*
X20611904Y-8832380D02*
X20611904Y-9641904D01*
X20564285Y-9737142D01*
X20516666Y-9784761D01*
X20421428Y-9832380D01*
X20230952Y-9832380D01*
X20135714Y-9784761D01*
X20088095Y-9737142D01*
X20040476Y-9641904D01*
X20040476Y-8832380D01*
X19659523Y-8832380D02*
X19040476Y-8832380D01*
X19373809Y-9213333D01*
X19230952Y-9213333D01*
X19135714Y-9260952D01*
X19088095Y-9308571D01*
X19040476Y-9403809D01*
X19040476Y-9641904D01*
X19088095Y-9737142D01*
X19135714Y-9784761D01*
X19230952Y-9832380D01*
X19516666Y-9832380D01*
X19611904Y-9784761D01*
X19659523Y-9737142D01*
G04 #@! TO.C,Q1*
X27077619Y-20954761D02*
X27030000Y-20859523D01*
X26934761Y-20764285D01*
X26791904Y-20621428D01*
X26744285Y-20526190D01*
X26744285Y-20430952D01*
X26982380Y-20478571D02*
X26934761Y-20383333D01*
X26839523Y-20288095D01*
X26649047Y-20240476D01*
X26315714Y-20240476D01*
X26125238Y-20288095D01*
X26030000Y-20383333D01*
X25982380Y-20478571D01*
X25982380Y-20669047D01*
X26030000Y-20764285D01*
X26125238Y-20859523D01*
X26315714Y-20907142D01*
X26649047Y-20907142D01*
X26839523Y-20859523D01*
X26934761Y-20764285D01*
X26982380Y-20669047D01*
X26982380Y-20478571D01*
X26982380Y-21859523D02*
X26982380Y-21288095D01*
X26982380Y-21573809D02*
X25982380Y-21573809D01*
X26125238Y-21478571D01*
X26220476Y-21383333D01*
X26268095Y-21288095D01*
G04 #@! TO.C,Q3*
X16887619Y-18944761D02*
X16840000Y-18849523D01*
X16744761Y-18754285D01*
X16601904Y-18611428D01*
X16554285Y-18516190D01*
X16554285Y-18420952D01*
X16792380Y-18468571D02*
X16744761Y-18373333D01*
X16649523Y-18278095D01*
X16459047Y-18230476D01*
X16125714Y-18230476D01*
X15935238Y-18278095D01*
X15840000Y-18373333D01*
X15792380Y-18468571D01*
X15792380Y-18659047D01*
X15840000Y-18754285D01*
X15935238Y-18849523D01*
X16125714Y-18897142D01*
X16459047Y-18897142D01*
X16649523Y-18849523D01*
X16744761Y-18754285D01*
X16792380Y-18659047D01*
X16792380Y-18468571D01*
X15792380Y-19230476D02*
X15792380Y-19849523D01*
X16173333Y-19516190D01*
X16173333Y-19659047D01*
X16220952Y-19754285D01*
X16268571Y-19801904D01*
X16363809Y-19849523D01*
X16601904Y-19849523D01*
X16697142Y-19801904D01*
X16744761Y-19754285D01*
X16792380Y-19659047D01*
X16792380Y-19373333D01*
X16744761Y-19278095D01*
X16697142Y-19230476D01*
G04 #@! TO.C,IC1*
X31800389Y-32490152D02*
X32507496Y-31783045D01*
X31126954Y-31682030D02*
X31126954Y-31749374D01*
X31194297Y-31884061D01*
X31261641Y-31951404D01*
X31396328Y-32018748D01*
X31531015Y-32018748D01*
X31632030Y-31985076D01*
X31800389Y-31884061D01*
X31901404Y-31783045D01*
X32002419Y-31614687D01*
X32036091Y-31513671D01*
X32036091Y-31378984D01*
X31968748Y-31244297D01*
X31901404Y-31176954D01*
X31766717Y-31109610D01*
X31699374Y-31109610D01*
X30386175Y-31075938D02*
X30790236Y-31480000D01*
X30588206Y-31277969D02*
X31295312Y-30570862D01*
X31261641Y-30739221D01*
X31261641Y-30873908D01*
X31295312Y-30974923D01*
G04 #@! TO.C,IC2*
X8886190Y-26002380D02*
X8886190Y-25002380D01*
X7838571Y-25907142D02*
X7886190Y-25954761D01*
X8029047Y-26002380D01*
X8124285Y-26002380D01*
X8267142Y-25954761D01*
X8362380Y-25859523D01*
X8410000Y-25764285D01*
X8457619Y-25573809D01*
X8457619Y-25430952D01*
X8410000Y-25240476D01*
X8362380Y-25145238D01*
X8267142Y-25050000D01*
X8124285Y-25002380D01*
X8029047Y-25002380D01*
X7886190Y-25050000D01*
X7838571Y-25097619D01*
X7457619Y-25097619D02*
X7410000Y-25050000D01*
X7314761Y-25002380D01*
X7076666Y-25002380D01*
X6981428Y-25050000D01*
X6933809Y-25097619D01*
X6886190Y-25192857D01*
X6886190Y-25288095D01*
X6933809Y-25430952D01*
X7505238Y-26002380D01*
X6886190Y-26002380D01*
G04 #@! TO.C,R10*
X37812380Y-12327142D02*
X37336190Y-11993809D01*
X37812380Y-11755714D02*
X36812380Y-11755714D01*
X36812380Y-12136666D01*
X36860000Y-12231904D01*
X36907619Y-12279523D01*
X37002857Y-12327142D01*
X37145714Y-12327142D01*
X37240952Y-12279523D01*
X37288571Y-12231904D01*
X37336190Y-12136666D01*
X37336190Y-11755714D01*
X37812380Y-13279523D02*
X37812380Y-12708095D01*
X37812380Y-12993809D02*
X36812380Y-12993809D01*
X36955238Y-12898571D01*
X37050476Y-12803333D01*
X37098095Y-12708095D01*
X36812380Y-13898571D02*
X36812380Y-13993809D01*
X36860000Y-14089047D01*
X36907619Y-14136666D01*
X37002857Y-14184285D01*
X37193333Y-14231904D01*
X37431428Y-14231904D01*
X37621904Y-14184285D01*
X37717142Y-14136666D01*
X37764761Y-14089047D01*
X37812380Y-13993809D01*
X37812380Y-13898571D01*
X37764761Y-13803333D01*
X37717142Y-13755714D01*
X37621904Y-13708095D01*
X37431428Y-13660476D01*
X37193333Y-13660476D01*
X37002857Y-13708095D01*
X36907619Y-13755714D01*
X36860000Y-13803333D01*
X36812380Y-13898571D01*
G04 #@! TO.C,R11*
X10562857Y-9622380D02*
X10896190Y-9146190D01*
X11134285Y-9622380D02*
X11134285Y-8622380D01*
X10753333Y-8622380D01*
X10658095Y-8670000D01*
X10610476Y-8717619D01*
X10562857Y-8812857D01*
X10562857Y-8955714D01*
X10610476Y-9050952D01*
X10658095Y-9098571D01*
X10753333Y-9146190D01*
X11134285Y-9146190D01*
X9610476Y-9622380D02*
X10181904Y-9622380D01*
X9896190Y-9622380D02*
X9896190Y-8622380D01*
X9991428Y-8765238D01*
X10086666Y-8860476D01*
X10181904Y-8908095D01*
X8658095Y-9622380D02*
X9229523Y-9622380D01*
X8943809Y-9622380D02*
X8943809Y-8622380D01*
X9039047Y-8765238D01*
X9134285Y-8860476D01*
X9229523Y-8908095D01*
G04 #@! TO.C,R12*
X34062857Y-34292380D02*
X34396190Y-33816190D01*
X34634285Y-34292380D02*
X34634285Y-33292380D01*
X34253333Y-33292380D01*
X34158095Y-33340000D01*
X34110476Y-33387619D01*
X34062857Y-33482857D01*
X34062857Y-33625714D01*
X34110476Y-33720952D01*
X34158095Y-33768571D01*
X34253333Y-33816190D01*
X34634285Y-33816190D01*
X33110476Y-34292380D02*
X33681904Y-34292380D01*
X33396190Y-34292380D02*
X33396190Y-33292380D01*
X33491428Y-33435238D01*
X33586666Y-33530476D01*
X33681904Y-33578095D01*
X32729523Y-33387619D02*
X32681904Y-33340000D01*
X32586666Y-33292380D01*
X32348571Y-33292380D01*
X32253333Y-33340000D01*
X32205714Y-33387619D01*
X32158095Y-33482857D01*
X32158095Y-33578095D01*
X32205714Y-33720952D01*
X32777142Y-34292380D01*
X32158095Y-34292380D01*
G04 #@! TO.C,R13*
X11872380Y-26297142D02*
X11396190Y-25963809D01*
X11872380Y-25725714D02*
X10872380Y-25725714D01*
X10872380Y-26106666D01*
X10920000Y-26201904D01*
X10967619Y-26249523D01*
X11062857Y-26297142D01*
X11205714Y-26297142D01*
X11300952Y-26249523D01*
X11348571Y-26201904D01*
X11396190Y-26106666D01*
X11396190Y-25725714D01*
X11872380Y-27249523D02*
X11872380Y-26678095D01*
X11872380Y-26963809D02*
X10872380Y-26963809D01*
X11015238Y-26868571D01*
X11110476Y-26773333D01*
X11158095Y-26678095D01*
X10872380Y-27582857D02*
X10872380Y-28201904D01*
X11253333Y-27868571D01*
X11253333Y-28011428D01*
X11300952Y-28106666D01*
X11348571Y-28154285D01*
X11443809Y-28201904D01*
X11681904Y-28201904D01*
X11777142Y-28154285D01*
X11824761Y-28106666D01*
X11872380Y-28011428D01*
X11872380Y-27725714D01*
X11824761Y-27630476D01*
X11777142Y-27582857D01*
G04 #@! TO.C,R14*
X21912857Y-32832380D02*
X22246190Y-32356190D01*
X22484285Y-32832380D02*
X22484285Y-31832380D01*
X22103333Y-31832380D01*
X22008095Y-31880000D01*
X21960476Y-31927619D01*
X21912857Y-32022857D01*
X21912857Y-32165714D01*
X21960476Y-32260952D01*
X22008095Y-32308571D01*
X22103333Y-32356190D01*
X22484285Y-32356190D01*
X20960476Y-32832380D02*
X21531904Y-32832380D01*
X21246190Y-32832380D02*
X21246190Y-31832380D01*
X21341428Y-31975238D01*
X21436666Y-32070476D01*
X21531904Y-32118095D01*
X20103333Y-32165714D02*
X20103333Y-32832380D01*
X20341428Y-31784761D02*
X20579523Y-32499047D01*
X19960476Y-32499047D01*
G04 #@! TO.C,R15*
X31512857Y-18412380D02*
X31846190Y-17936190D01*
X32084285Y-18412380D02*
X32084285Y-17412380D01*
X31703333Y-17412380D01*
X31608095Y-17460000D01*
X31560476Y-17507619D01*
X31512857Y-17602857D01*
X31512857Y-17745714D01*
X31560476Y-17840952D01*
X31608095Y-17888571D01*
X31703333Y-17936190D01*
X32084285Y-17936190D01*
X30560476Y-18412380D02*
X31131904Y-18412380D01*
X30846190Y-18412380D02*
X30846190Y-17412380D01*
X30941428Y-17555238D01*
X31036666Y-17650476D01*
X31131904Y-17698095D01*
X29655714Y-17412380D02*
X30131904Y-17412380D01*
X30179523Y-17888571D01*
X30131904Y-17840952D01*
X30036666Y-17793333D01*
X29798571Y-17793333D01*
X29703333Y-17840952D01*
X29655714Y-17888571D01*
X29608095Y-17983809D01*
X29608095Y-18221904D01*
X29655714Y-18317142D01*
X29703333Y-18364761D01*
X29798571Y-18412380D01*
X30036666Y-18412380D01*
X30131904Y-18364761D01*
X30179523Y-18317142D01*
G04 #@! TO.C,R16*
X13032857Y-19432380D02*
X13366190Y-18956190D01*
X13604285Y-19432380D02*
X13604285Y-18432380D01*
X13223333Y-18432380D01*
X13128095Y-18480000D01*
X13080476Y-18527619D01*
X13032857Y-18622857D01*
X13032857Y-18765714D01*
X13080476Y-18860952D01*
X13128095Y-18908571D01*
X13223333Y-18956190D01*
X13604285Y-18956190D01*
X12080476Y-19432380D02*
X12651904Y-19432380D01*
X12366190Y-19432380D02*
X12366190Y-18432380D01*
X12461428Y-18575238D01*
X12556666Y-18670476D01*
X12651904Y-18718095D01*
X11223333Y-18432380D02*
X11413809Y-18432380D01*
X11509047Y-18480000D01*
X11556666Y-18527619D01*
X11651904Y-18670476D01*
X11699523Y-18860952D01*
X11699523Y-19241904D01*
X11651904Y-19337142D01*
X11604285Y-19384761D01*
X11509047Y-19432380D01*
X11318571Y-19432380D01*
X11223333Y-19384761D01*
X11175714Y-19337142D01*
X11128095Y-19241904D01*
X11128095Y-19003809D01*
X11175714Y-18908571D01*
X11223333Y-18860952D01*
X11318571Y-18813333D01*
X11509047Y-18813333D01*
X11604285Y-18860952D01*
X11651904Y-18908571D01*
X11699523Y-19003809D01*
G04 #@! TO.C,C10*
X16107142Y-4807142D02*
X16154761Y-4759523D01*
X16202380Y-4616666D01*
X16202380Y-4521428D01*
X16154761Y-4378571D01*
X16059523Y-4283333D01*
X15964285Y-4235714D01*
X15773809Y-4188095D01*
X15630952Y-4188095D01*
X15440476Y-4235714D01*
X15345238Y-4283333D01*
X15250000Y-4378571D01*
X15202380Y-4521428D01*
X15202380Y-4616666D01*
X15250000Y-4759523D01*
X15297619Y-4807142D01*
X16202380Y-5759523D02*
X16202380Y-5188095D01*
X16202380Y-5473809D02*
X15202380Y-5473809D01*
X15345238Y-5378571D01*
X15440476Y-5283333D01*
X15488095Y-5188095D01*
X15202380Y-6378571D02*
X15202380Y-6473809D01*
X15250000Y-6569047D01*
X15297619Y-6616666D01*
X15392857Y-6664285D01*
X15583333Y-6711904D01*
X15821428Y-6711904D01*
X16011904Y-6664285D01*
X16107142Y-6616666D01*
X16154761Y-6569047D01*
X16202380Y-6473809D01*
X16202380Y-6378571D01*
X16154761Y-6283333D01*
X16107142Y-6235714D01*
X16011904Y-6188095D01*
X15821428Y-6140476D01*
X15583333Y-6140476D01*
X15392857Y-6188095D01*
X15297619Y-6235714D01*
X15250000Y-6283333D01*
X15202380Y-6378571D01*
G04 #@! TO.C,C1*
X26016666Y-17527142D02*
X26064285Y-17574761D01*
X26207142Y-17622380D01*
X26302380Y-17622380D01*
X26445238Y-17574761D01*
X26540476Y-17479523D01*
X26588095Y-17384285D01*
X26635714Y-17193809D01*
X26635714Y-17050952D01*
X26588095Y-16860476D01*
X26540476Y-16765238D01*
X26445238Y-16670000D01*
X26302380Y-16622380D01*
X26207142Y-16622380D01*
X26064285Y-16670000D01*
X26016666Y-16717619D01*
X25064285Y-17622380D02*
X25635714Y-17622380D01*
X25350000Y-17622380D02*
X25350000Y-16622380D01*
X25445238Y-16765238D01*
X25540476Y-16860476D01*
X25635714Y-16908095D01*
G04 #@! TO.C,C2*
X28136666Y-13657142D02*
X28184285Y-13704761D01*
X28327142Y-13752380D01*
X28422380Y-13752380D01*
X28565238Y-13704761D01*
X28660476Y-13609523D01*
X28708095Y-13514285D01*
X28755714Y-13323809D01*
X28755714Y-13180952D01*
X28708095Y-12990476D01*
X28660476Y-12895238D01*
X28565238Y-12800000D01*
X28422380Y-12752380D01*
X28327142Y-12752380D01*
X28184285Y-12800000D01*
X28136666Y-12847619D01*
X27755714Y-12847619D02*
X27708095Y-12800000D01*
X27612857Y-12752380D01*
X27374761Y-12752380D01*
X27279523Y-12800000D01*
X27231904Y-12847619D01*
X27184285Y-12942857D01*
X27184285Y-13038095D01*
X27231904Y-13180952D01*
X27803333Y-13752380D01*
X27184285Y-13752380D01*
G04 #@! TO.C,C5*
X24986666Y-10997142D02*
X25034285Y-11044761D01*
X25177142Y-11092380D01*
X25272380Y-11092380D01*
X25415238Y-11044761D01*
X25510476Y-10949523D01*
X25558095Y-10854285D01*
X25605714Y-10663809D01*
X25605714Y-10520952D01*
X25558095Y-10330476D01*
X25510476Y-10235238D01*
X25415238Y-10140000D01*
X25272380Y-10092380D01*
X25177142Y-10092380D01*
X25034285Y-10140000D01*
X24986666Y-10187619D01*
X24081904Y-10092380D02*
X24558095Y-10092380D01*
X24605714Y-10568571D01*
X24558095Y-10520952D01*
X24462857Y-10473333D01*
X24224761Y-10473333D01*
X24129523Y-10520952D01*
X24081904Y-10568571D01*
X24034285Y-10663809D01*
X24034285Y-10901904D01*
X24081904Y-10997142D01*
X24129523Y-11044761D01*
X24224761Y-11092380D01*
X24462857Y-11092380D01*
X24558095Y-11044761D01*
X24605714Y-10997142D01*
G04 #@! TO.C,R1*
X18546666Y-31952380D02*
X18880000Y-31476190D01*
X19118095Y-31952380D02*
X19118095Y-30952380D01*
X18737142Y-30952380D01*
X18641904Y-31000000D01*
X18594285Y-31047619D01*
X18546666Y-31142857D01*
X18546666Y-31285714D01*
X18594285Y-31380952D01*
X18641904Y-31428571D01*
X18737142Y-31476190D01*
X19118095Y-31476190D01*
X17594285Y-31952380D02*
X18165714Y-31952380D01*
X17880000Y-31952380D02*
X17880000Y-30952380D01*
X17975238Y-31095238D01*
X18070476Y-31190476D01*
X18165714Y-31238095D01*
G04 #@! TO.C,R2*
X18656666Y-34602380D02*
X18990000Y-34126190D01*
X19228095Y-34602380D02*
X19228095Y-33602380D01*
X18847142Y-33602380D01*
X18751904Y-33650000D01*
X18704285Y-33697619D01*
X18656666Y-33792857D01*
X18656666Y-33935714D01*
X18704285Y-34030952D01*
X18751904Y-34078571D01*
X18847142Y-34126190D01*
X19228095Y-34126190D01*
X18275714Y-33697619D02*
X18228095Y-33650000D01*
X18132857Y-33602380D01*
X17894761Y-33602380D01*
X17799523Y-33650000D01*
X17751904Y-33697619D01*
X17704285Y-33792857D01*
X17704285Y-33888095D01*
X17751904Y-34030952D01*
X18323333Y-34602380D01*
X17704285Y-34602380D01*
G04 #@! TO.C,R3*
X16316666Y-38662380D02*
X16650000Y-38186190D01*
X16888095Y-38662380D02*
X16888095Y-37662380D01*
X16507142Y-37662380D01*
X16411904Y-37710000D01*
X16364285Y-37757619D01*
X16316666Y-37852857D01*
X16316666Y-37995714D01*
X16364285Y-38090952D01*
X16411904Y-38138571D01*
X16507142Y-38186190D01*
X16888095Y-38186190D01*
X15983333Y-37662380D02*
X15364285Y-37662380D01*
X15697619Y-38043333D01*
X15554761Y-38043333D01*
X15459523Y-38090952D01*
X15411904Y-38138571D01*
X15364285Y-38233809D01*
X15364285Y-38471904D01*
X15411904Y-38567142D01*
X15459523Y-38614761D01*
X15554761Y-38662380D01*
X15840476Y-38662380D01*
X15935714Y-38614761D01*
X15983333Y-38567142D01*
G04 #@! TO.C,R4*
X18616666Y-33452380D02*
X18950000Y-32976190D01*
X19188095Y-33452380D02*
X19188095Y-32452380D01*
X18807142Y-32452380D01*
X18711904Y-32500000D01*
X18664285Y-32547619D01*
X18616666Y-32642857D01*
X18616666Y-32785714D01*
X18664285Y-32880952D01*
X18711904Y-32928571D01*
X18807142Y-32976190D01*
X19188095Y-32976190D01*
X17759523Y-32785714D02*
X17759523Y-33452380D01*
X17997619Y-32404761D02*
X18235714Y-33119047D01*
X17616666Y-33119047D01*
G04 #@! TD*
M02*
