M48
INCH,TZ
T1C0.0157
T2C0.0256
T3C0.0315
T4C0.0354
T5C0.0394
T6C0.1457
%
G90
G05
T1
X933Y-10185
X1063Y-5483
X1406Y-11638
X2610Y-9717
X3224Y-10827
X3339Y-5650
X3346Y-9740
X4058Y-13027
X4213Y-3634
X4262Y-4648
X4610Y-6909
X4724Y-15007
X4917Y-10496
X5059Y-12992
X5189Y-7508
X5394Y-8988
X5394Y-9894
X5413Y-9431
X5591Y-6929
X5945Y-11850
X6024Y-2453
X6413Y-9431
X6413Y-11419
X6571Y-4839
X6630Y-8339
X6650Y-7657
X6681Y-12988
X6701Y-14185
X6724Y-6972
X6864Y-14744
X7055Y-6382
X7280Y-12409
X7413Y-9431
X7461Y-10425
X7496Y-6104
X7622Y-5720
X7720Y-3862
X7768Y-3202
X7850Y-13311
X7854Y-4472
X8441Y-13311
X9177Y-5087
X9185Y-6315
X9295Y-15306
X9378Y-10378
X9739Y-6734
X9792Y-11746
X9882Y-7350
X9886Y-7831
X9917Y-9008
X10089Y-6351
X10197Y-5972
X11102Y-11358
X11181Y-5783
X11634Y-7602
X12100Y-5356
X12106Y-7114
X12435Y-5094
X12689Y-7587
X13264Y-3472
X13689Y-6327
X14079Y-7646
X14126Y-6035
X14126Y-11472
T2
X7413Y-14130
X7413Y-14630
X7913Y-14130
X7913Y-14630
X8413Y-14130
X8413Y-14630
X12835Y-4742
X13085Y-5175
X13268Y-4492
X13335Y-5608
X13518Y-4925
X13768Y-5358
X2059Y-5358
X2309Y-4925
X2492Y-5608
X2559Y-4492
X2742Y-5175
X2992Y-4742
T3
X3744Y-2976
X4610Y-2476
X5476Y-1976
X14480Y-7161
X14480Y-8161
X14480Y-9161
T4
X7413Y-8161
X8413Y-8161
X7413Y-7061
X8413Y-7061
T5
X7413Y-1862
X8413Y-1862
X2209Y-10878
X2709Y-11744
X13118Y-11744
X13618Y-10878
T6
X1614Y-8161
X11063Y-13618
X11063Y-2705
T0
M30
