G04 #@! TF.GenerationSoftware,KiCad,Pcbnew,(5.0.0)*
G04 #@! TF.CreationDate,2019-02-18T13:23:37-08:00*
G04 #@! TF.ProjectId,mlab100_Conn_PCB_1.6,6D6C61623130305F436F6E6E5F504342,rev?*
G04 #@! TF.SameCoordinates,Original*
G04 #@! TF.FileFunction,Copper,L2,Bot,Signal*
G04 #@! TF.FilePolarity,Positive*
%FSLAX46Y46*%
G04 Gerber Fmt 4.6, Leading zero omitted, Abs format (unit mm)*
G04 Created by KiCad (PCBNEW (5.0.0)) date 02/18/19 13:23:37*
%MOMM*%
%LPD*%
G01*
G04 APERTURE LIST*
G04 #@! TA.AperFunction,ComponentPad*
%ADD10C,1.000000*%
G04 #@! TD*
G04 #@! TA.AperFunction,Conductor*
%ADD11C,1.000000*%
G04 #@! TD*
G04 #@! TA.AperFunction,Conductor*
%ADD12C,0.100000*%
G04 #@! TD*
G04 #@! TA.AperFunction,SMDPad,CuDef*
%ADD13R,0.750000X0.800000*%
G04 #@! TD*
G04 #@! TA.AperFunction,ComponentPad*
%ADD14C,1.440000*%
G04 #@! TD*
G04 #@! TA.AperFunction,SMDPad,CuDef*
%ADD15R,1.400000X0.450000*%
G04 #@! TD*
G04 #@! TA.AperFunction,SMDPad,CuDef*
%ADD16R,0.800000X1.000000*%
G04 #@! TD*
G04 #@! TA.AperFunction,SMDPad,CuDef*
%ADD17R,0.600000X1.000000*%
G04 #@! TD*
G04 #@! TA.AperFunction,SMDPad,CuDef*
%ADD18R,1.143000X0.508000*%
G04 #@! TD*
G04 #@! TA.AperFunction,ComponentPad*
%ADD19C,1.800000*%
G04 #@! TD*
G04 #@! TA.AperFunction,ComponentPad*
%ADD20R,1.800000X1.800000*%
G04 #@! TD*
G04 #@! TA.AperFunction,SMDPad,CuDef*
%ADD21R,1.000000X3.150000*%
G04 #@! TD*
G04 #@! TA.AperFunction,ComponentPad*
%ADD22O,1.000000X1.000000*%
G04 #@! TD*
G04 #@! TA.AperFunction,ComponentPad*
%ADD23R,1.000000X1.000000*%
G04 #@! TD*
G04 #@! TA.AperFunction,ComponentPad*
%ADD24C,1.700000*%
G04 #@! TD*
G04 #@! TA.AperFunction,Conductor*
%ADD25C,1.700000*%
G04 #@! TD*
G04 #@! TA.AperFunction,ComponentPad*
%ADD26R,1.700000X1.700000*%
G04 #@! TD*
G04 #@! TA.AperFunction,ComponentPad*
%ADD27O,1.700000X1.700000*%
G04 #@! TD*
G04 #@! TA.AperFunction,SMDPad,CuDef*
%ADD28R,1.200000X2.200000*%
G04 #@! TD*
G04 #@! TA.AperFunction,SMDPad,CuDef*
%ADD29R,5.800000X6.400000*%
G04 #@! TD*
G04 #@! TA.AperFunction,SMDPad,CuDef*
%ADD30R,2.750000X3.050000*%
G04 #@! TD*
G04 #@! TA.AperFunction,SMDPad,CuDef*
%ADD31R,0.650000X1.060000*%
G04 #@! TD*
G04 #@! TA.AperFunction,SMDPad,CuDef*
%ADD32R,1.060000X0.650000*%
G04 #@! TD*
G04 #@! TA.AperFunction,ComponentPad*
%ADD33C,7.400000*%
G04 #@! TD*
G04 #@! TA.AperFunction,SMDPad,CuDef*
%ADD34R,0.900000X0.500000*%
G04 #@! TD*
G04 #@! TA.AperFunction,SMDPad,CuDef*
%ADD35R,0.500000X0.900000*%
G04 #@! TD*
G04 #@! TA.AperFunction,SMDPad,CuDef*
%ADD36R,0.800000X0.750000*%
G04 #@! TD*
G04 #@! TA.AperFunction,SMDPad,CuDef*
%ADD37R,0.800000X0.800000*%
G04 #@! TD*
G04 #@! TA.AperFunction,ViaPad*
%ADD38C,0.800000*%
G04 #@! TD*
G04 #@! TA.AperFunction,Conductor*
%ADD39C,0.350000*%
G04 #@! TD*
G04 #@! TA.AperFunction,Conductor*
%ADD40C,0.250000*%
G04 #@! TD*
G04 #@! TA.AperFunction,Conductor*
%ADD41C,1.500000*%
G04 #@! TD*
G04 #@! TA.AperFunction,Conductor*
%ADD42C,0.500000*%
G04 #@! TD*
G04 #@! TA.AperFunction,Conductor*
%ADD43C,0.200000*%
G04 #@! TD*
G04 #@! TA.AperFunction,Conductor*
%ADD44C,2.000000*%
G04 #@! TD*
G04 #@! TA.AperFunction,Conductor*
%ADD45C,0.150000*%
G04 #@! TD*
G04 APERTURE END LIST*
D10*
G04 #@! TO.P,J10,6*
G04 #@! TO.N,GND_O*
X33870148Y-14244705D03*
D11*
G04 #@! TD*
G04 #@! TO.N,GND_O*
G04 #@! TO.C,J10*
X33870148Y-14244705D02*
X33870148Y-14244705D01*
D10*
G04 #@! TO.P,J10,5*
G04 #@! TO.N,GND_O*
X34970000Y-13609705D03*
D11*
G04 #@! TD*
G04 #@! TO.N,GND_O*
G04 #@! TO.C,J10*
X34970000Y-13609705D02*
X34970000Y-13609705D01*
D10*
G04 #@! TO.P,J10,4*
G04 #@! TO.N,Temp1wDaisy*
X33235148Y-13144852D03*
D11*
G04 #@! TD*
G04 #@! TO.N,Temp1wDaisy*
G04 #@! TO.C,J10*
X33235148Y-13144852D02*
X33235148Y-13144852D01*
D10*
G04 #@! TO.P,J10,3*
G04 #@! TO.N,LED470nm*
X34335000Y-12509852D03*
D11*
G04 #@! TD*
G04 #@! TO.N,LED470nm*
G04 #@! TO.C,J10*
X34335000Y-12509852D02*
X34335000Y-12509852D01*
D10*
G04 #@! TO.P,J10,2*
G04 #@! TO.N,3V3_O*
X32600148Y-12045000D03*
D11*
G04 #@! TD*
G04 #@! TO.N,3V3_O*
G04 #@! TO.C,J10*
X32600148Y-12045000D02*
X32600148Y-12045000D01*
D10*
G04 #@! TO.P,J10,1*
G04 #@! TO.N,12V_O*
X33700000Y-11410000D03*
D12*
G04 #@! TD*
G04 #@! TO.N,12V_O*
G04 #@! TO.C,J10*
G36*
X33883013Y-10726987D02*
X34383013Y-11593013D01*
X33516987Y-12093013D01*
X33016987Y-11226987D01*
X33883013Y-10726987D01*
X33883013Y-10726987D01*
G37*
D13*
G04 #@! TO.P,C9,1*
G04 #@! TO.N,/AnalogConnPCB/sheet5C67EBE6/Aout*
X38720000Y-18910000D03*
G04 #@! TO.P,C9,2*
G04 #@! TO.N,/AnalogConnPCB/sheet5C67EBE6/A+*
X38720000Y-17410000D03*
G04 #@! TD*
D14*
G04 #@! TO.P,RV1,3*
G04 #@! TO.N,Net-(R10-Pad1)*
X36780000Y-23270000D03*
G04 #@! TO.P,RV1,2*
X36780000Y-20730000D03*
G04 #@! TO.P,RV1,1*
G04 #@! TO.N,/AnalogConnPCB/sheet5C67EBE6/Aout*
X36780000Y-18190000D03*
G04 #@! TD*
D15*
G04 #@! TO.P,IC4,1*
G04 #@! TO.N,/AnalogConnPCB/SPI_CS_ADC*
X17560000Y-15085000D03*
G04 #@! TO.P,IC4,2*
G04 #@! TO.N,+3.3VA*
X17560000Y-14435000D03*
G04 #@! TO.P,IC4,3*
G04 #@! TO.N,GNDA*
X17560000Y-13785000D03*
G04 #@! TO.P,IC4,4*
G04 #@! TO.N,/AnalogConnPCB/sheet5C67EBE6/Bout*
X17560000Y-13135000D03*
G04 #@! TO.P,IC4,5*
G04 #@! TO.N,/AnalogConnPCB/sheet5C67EBE6/Aout*
X21960000Y-13135000D03*
G04 #@! TO.P,IC4,6*
G04 #@! TO.N,/AnalogConnPCB/SPI_MOSI*
X21960000Y-13785000D03*
G04 #@! TO.P,IC4,7*
G04 #@! TO.N,/AnalogConnPCB/SPI_MISO*
X21960000Y-14435000D03*
G04 #@! TO.P,IC4,8*
G04 #@! TO.N,/AnalogConnPCB/SPI_SCL*
X21960000Y-15085000D03*
G04 #@! TD*
D16*
G04 #@! TO.P,IC3,1*
G04 #@! TO.N,/AnalogConnPCB/5V*
X26638000Y-17104000D03*
D17*
G04 #@! TO.P,IC3,2*
G04 #@! TO.N,GNDA*
X25688000Y-17104000D03*
D16*
G04 #@! TO.P,IC3,3*
G04 #@! TO.N,/AnalogConnPCB/3V3ACtrl*
X24738000Y-17104000D03*
G04 #@! TO.P,IC3,4*
G04 #@! TO.N,N/C*
X24738000Y-14704000D03*
G04 #@! TO.P,IC3,5*
G04 #@! TO.N,+3.3VA*
X26638000Y-14704000D03*
G04 #@! TD*
D18*
G04 #@! TO.P,U3,1*
G04 #@! TO.N,/AnalogConnPCB/sheet5C67EBE6/Aout*
X23021000Y-7395000D03*
G04 #@! TO.P,U3,2*
G04 #@! TO.N,/AnalogConnPCB/sheet5C67EBE6/A+*
X23021000Y-8665000D03*
G04 #@! TO.P,U3,3*
G04 #@! TO.N,GNDA*
X23021000Y-9935000D03*
G04 #@! TO.P,U3,4*
X23021000Y-11205000D03*
G04 #@! TO.P,U3,5*
X16671000Y-11205000D03*
G04 #@! TO.P,U3,6*
G04 #@! TO.N,/AnalogConnPCB/sheet5C67EBE6/B+*
X16671000Y-9935000D03*
G04 #@! TO.P,U3,7*
G04 #@! TO.N,/AnalogConnPCB/sheet5C67EBE6/Bout*
X16671000Y-8665000D03*
G04 #@! TO.P,U3,8*
G04 #@! TO.N,+3.3VA*
X16671000Y-7395000D03*
G04 #@! TD*
D14*
G04 #@! TO.P,RV2,1*
G04 #@! TO.N,/AnalogConnPCB/sheet5C67EBE6/Bout*
X9510000Y-7560000D03*
G04 #@! TO.P,RV2,2*
G04 #@! TO.N,Net-(R11-Pad1)*
X11709705Y-6290000D03*
G04 #@! TO.P,RV2,3*
X13909409Y-5020000D03*
G04 #@! TD*
D19*
G04 #@! TO.P,D13,2*
G04 #@! TO.N,GNDA*
X21370000Y-20730000D03*
D20*
G04 #@! TO.P,D13,1*
G04 #@! TO.N,/AnalogConnPCB/sheet5C67EBE6/A+*
X18830000Y-20730000D03*
G04 #@! TD*
D19*
G04 #@! TO.P,D14,2*
G04 #@! TO.N,GNDA*
X21370000Y-17936000D03*
D20*
G04 #@! TO.P,D14,1*
G04 #@! TO.N,/AnalogConnPCB/sheet5C67EBE6/B+*
X18830000Y-17936000D03*
G04 #@! TD*
D21*
G04 #@! TO.P,J3,12*
G04 #@! TO.N,/AnalogConnPCB/HeaterCtrl*
X26450000Y-29005000D03*
G04 #@! TO.P,J3,11*
G04 #@! TO.N,/AnalogConnPCB/5V*
X26450000Y-23955000D03*
G04 #@! TO.P,J3,10*
G04 #@! TO.N,GND_O*
X23910000Y-29005000D03*
G04 #@! TO.P,J3,9*
G04 #@! TO.N,/AnalogConnPCB/SPI_CS_ADC*
X23910000Y-23955000D03*
G04 #@! TO.P,J3,8*
G04 #@! TO.N,/AnalogConnPCB/SPI_MISO*
X21370000Y-29005000D03*
G04 #@! TO.P,J3,7*
G04 #@! TO.N,/AnalogConnPCB/SPI_MOSI*
X21370000Y-23955000D03*
G04 #@! TO.P,J3,6*
G04 #@! TO.N,/AnalogConnPCB/SPI_SCL*
X18830000Y-29005000D03*
G04 #@! TO.P,J3,5*
G04 #@! TO.N,/AnalogConnPCB/3V3ACtrl*
X18830000Y-23955000D03*
G04 #@! TO.P,J3,4*
G04 #@! TO.N,Temp1wDaisy*
X16290000Y-29005000D03*
G04 #@! TO.P,J3,3*
G04 #@! TO.N,3V3_O*
X16290000Y-23955000D03*
G04 #@! TO.P,J3,2*
G04 #@! TO.N,/AnalogConnPCB/470nmCtrl*
X13750000Y-29005000D03*
G04 #@! TO.P,J3,1*
G04 #@! TO.N,12V_O*
X13750000Y-23955000D03*
G04 #@! TD*
D22*
G04 #@! TO.P,J8,6*
G04 #@! TO.N,GND_O*
X18830000Y-35890000D03*
G04 #@! TO.P,J8,5*
X18830000Y-37160000D03*
G04 #@! TO.P,J8,4*
G04 #@! TO.N,Temp1wDaisy*
X20100000Y-35890000D03*
G04 #@! TO.P,J8,3*
G04 #@! TO.N,LED470nm*
X20100000Y-37160000D03*
G04 #@! TO.P,J8,2*
G04 #@! TO.N,3V3_O*
X21370000Y-35890000D03*
D23*
G04 #@! TO.P,J8,1*
G04 #@! TO.N,12V_O*
X21370000Y-37160000D03*
G04 #@! TD*
D10*
G04 #@! TO.P,J9,1*
G04 #@! TO.N,12V_O*
X5230000Y-13610000D03*
D12*
G04 #@! TD*
G04 #@! TO.N,12V_O*
G04 #@! TO.C,J9*
G36*
X4546987Y-13793013D02*
X5046987Y-12926987D01*
X5913013Y-13426987D01*
X5413013Y-14293013D01*
X4546987Y-13793013D01*
X4546987Y-13793013D01*
G37*
D10*
G04 #@! TO.P,J9,2*
G04 #@! TO.N,3V3_O*
X6329852Y-14245000D03*
D11*
G04 #@! TD*
G04 #@! TO.N,3V3_O*
G04 #@! TO.C,J9*
X6329852Y-14245000D02*
X6329852Y-14245000D01*
D10*
G04 #@! TO.P,J9,3*
G04 #@! TO.N,LED470nm*
X5865000Y-12510148D03*
D11*
G04 #@! TD*
G04 #@! TO.N,LED470nm*
G04 #@! TO.C,J9*
X5865000Y-12510148D02*
X5865000Y-12510148D01*
D10*
G04 #@! TO.P,J9,4*
G04 #@! TO.N,Temp1wDaisy*
X6964852Y-13145148D03*
D11*
G04 #@! TD*
G04 #@! TO.N,Temp1wDaisy*
G04 #@! TO.C,J9*
X6964852Y-13145148D02*
X6964852Y-13145148D01*
D10*
G04 #@! TO.P,J9,5*
G04 #@! TO.N,GND_O*
X6500000Y-11410295D03*
D11*
G04 #@! TD*
G04 #@! TO.N,GND_O*
G04 #@! TO.C,J9*
X6500000Y-11410295D02*
X6500000Y-11410295D01*
D10*
G04 #@! TO.P,J9,6*
G04 #@! TO.N,GND_O*
X7599852Y-12045295D03*
D11*
G04 #@! TD*
G04 #@! TO.N,GND_O*
G04 #@! TO.C,J9*
X7599852Y-12045295D02*
X7599852Y-12045295D01*
D24*
G04 #@! TO.P,J11,2*
G04 #@! TO.N,12V_O*
X5610000Y-27630295D03*
D25*
G04 #@! TD*
G04 #@! TO.N,12V_O*
G04 #@! TO.C,J11*
X5610000Y-27630295D02*
X5610000Y-27630295D01*
D24*
G04 #@! TO.P,J11,1*
G04 #@! TO.N,Heater-*
X6880000Y-29830000D03*
D12*
G04 #@! TD*
G04 #@! TO.N,Heater-*
G04 #@! TO.C,J11*
G36*
X7191122Y-28668878D02*
X8041122Y-30141122D01*
X6568878Y-30991122D01*
X5718878Y-29518878D01*
X7191122Y-28668878D01*
X7191122Y-28668878D01*
G37*
D24*
G04 #@! TO.P,J12,2*
G04 #@! TO.N,12V_O*
X33320000Y-29829705D03*
D25*
G04 #@! TD*
G04 #@! TO.N,12V_O*
G04 #@! TO.C,J12*
X33320000Y-29829705D02*
X33320000Y-29829705D01*
D24*
G04 #@! TO.P,J12,1*
G04 #@! TO.N,Heater-*
X34590000Y-27630000D03*
D12*
G04 #@! TD*
G04 #@! TO.N,Heater-*
G04 #@! TO.C,J12*
G36*
X33428878Y-27941122D02*
X34278878Y-26468878D01*
X35751122Y-27318878D01*
X34901122Y-28791122D01*
X33428878Y-27941122D01*
X33428878Y-27941122D01*
G37*
D26*
G04 #@! TO.P,J13,1*
G04 #@! TO.N,Heater-*
X18830000Y-4730000D03*
D27*
G04 #@! TO.P,J13,2*
G04 #@! TO.N,12V_O*
X21370000Y-4730000D03*
G04 #@! TD*
D28*
G04 #@! TO.P,Q1,1*
G04 #@! TO.N,Net-(IC1-Pad4)*
X28570000Y-17030000D03*
G04 #@! TO.P,Q1,3*
G04 #@! TO.N,GND_O*
X33130000Y-17030000D03*
D29*
G04 #@! TO.P,Q1,2*
G04 #@! TO.N,Heater-*
X30850000Y-23330000D03*
D30*
X32375000Y-25005000D03*
X29325000Y-21655000D03*
X29325000Y-25005000D03*
X32375000Y-21655000D03*
G04 #@! TD*
G04 #@! TO.P,Q3,2*
G04 #@! TO.N,LED470nm*
X10825000Y-15155000D03*
X13875000Y-11805000D03*
X13875000Y-15155000D03*
X10825000Y-11805000D03*
D29*
X12350000Y-13480000D03*
D28*
G04 #@! TO.P,Q3,3*
G04 #@! TO.N,GND_O*
X10070000Y-19780000D03*
G04 #@! TO.P,Q3,1*
G04 #@! TO.N,Net-(IC2-Pad4)*
X14630000Y-19780000D03*
G04 #@! TD*
D31*
G04 #@! TO.P,IC1,1*
G04 #@! TO.N,12V_O*
X31110000Y-29790000D03*
G04 #@! TO.P,IC1,2*
G04 #@! TO.N,Net-(IC1-Pad2)*
X30160000Y-29790000D03*
G04 #@! TO.P,IC1,3*
G04 #@! TO.N,GND_O*
X29210000Y-29790000D03*
G04 #@! TO.P,IC1,4*
G04 #@! TO.N,Net-(IC1-Pad4)*
X29210000Y-27590000D03*
G04 #@! TO.P,IC1,6*
X31110000Y-27590000D03*
G04 #@! TO.P,IC1,5*
G04 #@! TO.N,N/C*
X30160000Y-27590000D03*
G04 #@! TD*
D32*
G04 #@! TO.P,IC2,5*
G04 #@! TO.N,N/C*
X11200000Y-22980000D03*
G04 #@! TO.P,IC2,6*
G04 #@! TO.N,Net-(IC2-Pad4)*
X11200000Y-23930000D03*
G04 #@! TO.P,IC2,4*
X11200000Y-22030000D03*
G04 #@! TO.P,IC2,3*
G04 #@! TO.N,GND_O*
X9000000Y-22030000D03*
G04 #@! TO.P,IC2,2*
G04 #@! TO.N,Net-(IC2-Pad2)*
X9000000Y-22980000D03*
G04 #@! TO.P,IC2,1*
G04 #@! TO.N,12V_O*
X9000000Y-23930000D03*
G04 #@! TD*
D33*
G04 #@! TO.P,MH8,1*
G04 #@! TO.N,N/C*
X28100000Y-34590000D03*
G04 #@! TD*
G04 #@! TO.P,MH9,1*
G04 #@! TO.N,N/C*
X4100000Y-20730000D03*
G04 #@! TD*
G04 #@! TO.P,MH10,1*
G04 #@! TO.N,N/C*
X28100000Y-6870000D03*
G04 #@! TD*
D34*
G04 #@! TO.P,R10,2*
G04 #@! TO.N,/AnalogConnPCB/sheet5C67EBE6/A+*
X37370000Y-14910000D03*
G04 #@! TO.P,R10,1*
G04 #@! TO.N,Net-(R10-Pad1)*
X37370000Y-16410000D03*
G04 #@! TD*
G04 #@! TO.P,R11,1*
G04 #@! TO.N,Net-(R11-Pad1)*
X12226000Y-7788000D03*
G04 #@! TO.P,R11,2*
G04 #@! TO.N,/AnalogConnPCB/sheet5C67EBE6/B+*
X12226000Y-9288000D03*
G04 #@! TD*
D35*
G04 #@! TO.P,R12,2*
G04 #@! TO.N,Net-(IC1-Pad2)*
X34700000Y-32450000D03*
G04 #@! TO.P,R12,1*
G04 #@! TO.N,/AnalogConnPCB/HeaterCtrl*
X33200000Y-32450000D03*
G04 #@! TD*
D34*
G04 #@! TO.P,R13,2*
G04 #@! TO.N,Net-(IC2-Pad2)*
X9940000Y-26130000D03*
G04 #@! TO.P,R13,1*
G04 #@! TO.N,/AnalogConnPCB/470nmCtrl*
X9940000Y-27630000D03*
G04 #@! TD*
D35*
G04 #@! TO.P,R14,2*
G04 #@! TO.N,3V3_O*
X21440000Y-33810000D03*
G04 #@! TO.P,R14,1*
G04 #@! TO.N,Temp1wDaisy*
X19940000Y-33810000D03*
G04 #@! TD*
G04 #@! TO.P,R15,1*
G04 #@! TO.N,Net-(IC1-Pad4)*
X30100000Y-16380000D03*
G04 #@! TO.P,R15,2*
G04 #@! TO.N,GND_O*
X31600000Y-16380000D03*
G04 #@! TD*
G04 #@! TO.P,R16,1*
G04 #@! TO.N,Net-(IC2-Pad4)*
X13100000Y-20430000D03*
G04 #@! TO.P,R16,2*
G04 #@! TO.N,GND_O*
X11600000Y-20430000D03*
G04 #@! TD*
D13*
G04 #@! TO.P,C10,2*
G04 #@! TO.N,/AnalogConnPCB/sheet5C67EBE6/B+*
X14512000Y-9022000D03*
G04 #@! TO.P,C10,1*
G04 #@! TO.N,/AnalogConnPCB/sheet5C67EBE6/Bout*
X14512000Y-7522000D03*
G04 #@! TD*
D36*
G04 #@! TO.P,C1,1*
G04 #@! TO.N,/AnalogConnPCB/5V*
X26600000Y-18670000D03*
G04 #@! TO.P,C1,2*
G04 #@! TO.N,GNDA*
X25100000Y-18670000D03*
G04 #@! TD*
G04 #@! TO.P,C2,1*
G04 #@! TO.N,+3.3VA*
X26184000Y-13364000D03*
G04 #@! TO.P,C2,2*
G04 #@! TO.N,GNDA*
X24684000Y-13364000D03*
G04 #@! TD*
G04 #@! TO.P,C5,2*
G04 #@! TO.N,GNDA*
X24684000Y-12094000D03*
G04 #@! TO.P,C5,1*
G04 #@! TO.N,+3.3VA*
X26184000Y-12094000D03*
G04 #@! TD*
D34*
G04 #@! TO.P,JP1,2*
G04 #@! TO.N,GNDA*
X25080000Y-19910000D03*
G04 #@! TO.P,JP1,1*
G04 #@! TO.N,GND_O*
X25080000Y-21410000D03*
G04 #@! TD*
D37*
G04 #@! TO.P,D1,1*
G04 #@! TO.N,Net-(D1-Pad1)*
X14050000Y-31500000D03*
G04 #@! TO.P,D1,2*
G04 #@! TO.N,+3.3VA*
X12450000Y-31500000D03*
G04 #@! TD*
G04 #@! TO.P,D2,2*
G04 #@! TO.N,3V3_O*
X12450000Y-33000000D03*
G04 #@! TO.P,D2,1*
G04 #@! TO.N,Net-(D2-Pad1)*
X14050000Y-33000000D03*
G04 #@! TD*
G04 #@! TO.P,D3,1*
G04 #@! TO.N,Net-(D3-Pad1)*
X14050000Y-34500000D03*
G04 #@! TO.P,D3,2*
G04 #@! TO.N,/AnalogConnPCB/5V*
X12450000Y-34500000D03*
G04 #@! TD*
G04 #@! TO.P,D4,2*
G04 #@! TO.N,12V_O*
X12450000Y-36000000D03*
G04 #@! TO.P,D4,1*
G04 #@! TO.N,Net-(D4-Pad1)*
X14050000Y-36000000D03*
G04 #@! TD*
D35*
G04 #@! TO.P,R1,2*
G04 #@! TO.N,GNDA*
X17000000Y-31500000D03*
G04 #@! TO.P,R1,1*
G04 #@! TO.N,Net-(D1-Pad1)*
X15500000Y-31500000D03*
G04 #@! TD*
G04 #@! TO.P,R2,1*
G04 #@! TO.N,Net-(D3-Pad1)*
X15500000Y-34500000D03*
G04 #@! TO.P,R2,2*
G04 #@! TO.N,GND_O*
X17000000Y-34500000D03*
G04 #@! TD*
G04 #@! TO.P,R3,2*
G04 #@! TO.N,GND_O*
X17000000Y-36000000D03*
G04 #@! TO.P,R3,1*
G04 #@! TO.N,Net-(D4-Pad1)*
X15500000Y-36000000D03*
G04 #@! TD*
G04 #@! TO.P,R4,1*
G04 #@! TO.N,Net-(D2-Pad1)*
X15500000Y-33000000D03*
G04 #@! TO.P,R4,2*
G04 #@! TO.N,GND_O*
X17000000Y-33000000D03*
G04 #@! TD*
D38*
G04 #@! TO.N,GND_O*
X16970000Y-32990000D03*
G04 #@! TO.N,GNDA*
X15300000Y-6230000D03*
X10700000Y-9230000D03*
X17920000Y-16210000D03*
X25110000Y-19890000D03*
X16840000Y-21180000D03*
X19950000Y-11360000D03*
X16690000Y-12290000D03*
X25100000Y-18670000D03*
X19610000Y-9810000D03*
X19730815Y-8132912D03*
X23310000Y-12920000D03*
X25626073Y-16131762D03*
X16890000Y-19450000D03*
G04 #@! TO.N,+3.3VA*
X19360000Y-14530000D03*
X25900000Y-15170000D03*
X17080000Y-17710000D03*
G04 #@! TO.N,12V_O*
X13700000Y-25130000D03*
X13700000Y-22830000D03*
X13750000Y-23955000D03*
X8500001Y-24740294D03*
X33690000Y-8820000D03*
X2699999Y-13925955D03*
X23610000Y-38877072D03*
X12000000Y-38117273D03*
G04 #@! TO.N,GND_O*
X12490000Y-26660000D03*
X18950000Y-26480000D03*
X14200000Y-17600000D03*
X8480000Y-14350000D03*
X30750000Y-18070000D03*
X32230000Y-19270000D03*
X29550000Y-19310000D03*
X28400000Y-14690000D03*
X8190000Y-27500000D03*
X6630000Y-24680000D03*
X3570000Y-29560000D03*
X2370000Y-25870000D03*
X13180000Y-19070000D03*
X11710000Y-17550000D03*
X35880000Y-29140000D03*
X35760000Y-19420000D03*
X34770000Y-16070000D03*
X35880000Y-15330000D03*
X28200000Y-28850000D03*
X10307544Y-33089836D03*
X24872925Y-29834710D03*
X23820000Y-26360000D03*
X25190000Y-22880000D03*
X17020000Y-36030000D03*
X15100000Y-30100000D03*
X18490000Y-31520000D03*
G04 #@! TO.N,/AnalogConnPCB/3V3ACtrl*
X18830000Y-23955000D03*
X24738000Y-17104000D03*
G04 #@! TO.N,Temp1wDaisy*
X19940000Y-33810000D03*
X31585137Y-12940000D03*
X16290000Y-29005000D03*
G04 #@! TO.N,3V3_O*
X16290000Y-23955000D03*
X21440000Y-33810000D03*
X12850000Y-33000000D03*
G04 #@! TO.N,LED470nm*
X10825000Y-11805000D03*
X30732995Y-13603334D03*
X17434217Y-37450011D03*
G04 #@! TO.N,/AnalogConnPCB/SPI_CS_ADC*
X23330000Y-16040000D03*
X19039024Y-15505054D03*
G04 #@! TD*
D39*
G04 #@! TO.N,GNDA*
X25688000Y-18082000D02*
X25688000Y-17104000D01*
X25100000Y-19890000D02*
X25080000Y-19910000D01*
X25100000Y-18670000D02*
X25100000Y-19890000D01*
X25100000Y-18670000D02*
X25688000Y-18082000D01*
X25688000Y-17104000D02*
X25688000Y-16193689D01*
X25688000Y-16193689D02*
X25626073Y-16131762D01*
D40*
X17000000Y-31300000D02*
X17140000Y-31160000D01*
X17000000Y-31500000D02*
X17000000Y-31300000D01*
X16840000Y-21745685D02*
X16840000Y-21180000D01*
X17140000Y-22045685D02*
X16840000Y-21745685D01*
X17140000Y-31160000D02*
X17140000Y-22045685D01*
D41*
X21370000Y-20730000D02*
X21370000Y-17936000D01*
D42*
G04 #@! TO.N,+3.3VA*
X26184000Y-12094000D02*
X26184000Y-13364000D01*
X26184000Y-14250000D02*
X26638000Y-14704000D01*
X26184000Y-13364000D02*
X26184000Y-14250000D01*
D39*
X18635001Y-14409999D02*
X18635001Y-12505001D01*
X17560000Y-14435000D02*
X18610000Y-14435000D01*
X18610000Y-14435000D02*
X18635001Y-14409999D01*
X18635001Y-12505001D02*
X18050000Y-11920000D01*
X16988500Y-7395000D02*
X16671000Y-7395000D01*
X18050000Y-8456500D02*
X16988500Y-7395000D01*
X18050000Y-11920000D02*
X18050000Y-8456500D01*
X18635001Y-14409999D02*
X19239999Y-14409999D01*
X19239999Y-14409999D02*
X19360000Y-14530000D01*
X26172000Y-15170000D02*
X26638000Y-14704000D01*
X25900000Y-15170000D02*
X26172000Y-15170000D01*
D43*
X10630001Y-26680001D02*
X12760000Y-24550002D01*
X9649997Y-26680001D02*
X10630001Y-26680001D01*
X9189999Y-27139999D02*
X9649997Y-26680001D01*
X9189999Y-28839999D02*
X9189999Y-27139999D01*
X12450000Y-31500000D02*
X11850000Y-31500000D01*
X11850000Y-31500000D02*
X9189999Y-28839999D01*
X12760000Y-22329998D02*
X13609998Y-21480000D01*
X12760000Y-24550002D02*
X12760000Y-22329998D01*
X15530001Y-21120001D02*
X15530001Y-19259999D01*
X15170002Y-21480000D02*
X15530001Y-21120001D01*
X13609998Y-21480000D02*
X15170002Y-21480000D01*
X15530001Y-19259999D02*
X17080000Y-17710000D01*
D44*
G04 #@! TO.N,Heater-*
X30850000Y-23890000D02*
X34590000Y-27630000D01*
X30850000Y-23330000D02*
X30850000Y-23890000D01*
D43*
G04 #@! TO.N,Net-(R10-Pad1)*
X36780000Y-23270000D02*
X36780000Y-20730000D01*
X39395001Y-18269999D02*
X39315002Y-18190000D01*
X39395001Y-19550001D02*
X39395001Y-18269999D01*
X36780000Y-20730000D02*
X38215002Y-20730000D01*
X38215002Y-20730000D02*
X39395001Y-19550001D01*
X37370000Y-16860000D02*
X37370000Y-16410000D01*
X38044999Y-17534999D02*
X37370000Y-16860000D01*
X38044999Y-18050001D02*
X38044999Y-17534999D01*
X38184998Y-18190000D02*
X38044999Y-18050001D01*
X39315002Y-18190000D02*
X38184998Y-18190000D01*
G04 #@! TO.N,Net-(R11-Pad1)*
X11709705Y-7271705D02*
X12226000Y-7788000D01*
X11709705Y-6290000D02*
X11709705Y-7271705D01*
X12979705Y-5020000D02*
X13909409Y-5020000D01*
X11709705Y-6290000D02*
X12979705Y-5020000D01*
D39*
G04 #@! TO.N,/AnalogConnPCB/5V*
X26638000Y-18632000D02*
X26600000Y-18670000D01*
X26638000Y-17104000D02*
X26638000Y-18632000D01*
X26450000Y-23955000D02*
X26450000Y-22480000D01*
X26450000Y-22480000D02*
X26864990Y-22065010D01*
X26600000Y-18670000D02*
X26600000Y-19040000D01*
X26864990Y-19304990D02*
X26864990Y-19840000D01*
X26600000Y-19040000D02*
X26864990Y-19304990D01*
X26864990Y-22065010D02*
X26864990Y-19840000D01*
X26864990Y-19840000D02*
X26864990Y-19554990D01*
D43*
X13349999Y-34799999D02*
X13349999Y-36640001D01*
X12450000Y-34500000D02*
X13050000Y-34500000D01*
X13050000Y-34500000D02*
X13349999Y-34799999D01*
X13349999Y-36640001D02*
X13439998Y-36730000D01*
X13439998Y-36730000D02*
X13539998Y-36830000D01*
X13439998Y-36730000D02*
X13459999Y-36750001D01*
X25572935Y-26607065D02*
X26450000Y-25730000D01*
X13459999Y-36750001D02*
X17490001Y-36750001D01*
X17490001Y-36750001D02*
X17720001Y-36520001D01*
X25572935Y-30997065D02*
X25572935Y-26607065D01*
X26450000Y-25730000D02*
X26450000Y-23955000D01*
X19740000Y-32830000D02*
X23740000Y-32830000D01*
X23740000Y-32830000D02*
X25572935Y-30997065D01*
X17720001Y-34849999D02*
X19740000Y-32830000D01*
X17720001Y-36520001D02*
X17720001Y-34849999D01*
G04 #@! TO.N,/AnalogConnPCB/sheet5C67EBE6/Aout*
X22703500Y-7395000D02*
X23021000Y-7395000D01*
X21960000Y-8138500D02*
X22703500Y-7395000D01*
X21960000Y-13135000D02*
X21960000Y-8600000D01*
X21960000Y-8600000D02*
X21960000Y-8138500D01*
X38145000Y-18910000D02*
X38720000Y-18910000D01*
X37499999Y-18909999D02*
X38145000Y-18910000D01*
X36780000Y-18190000D02*
X37499999Y-18909999D01*
X36960000Y-14160000D02*
X36619999Y-14500001D01*
X36619999Y-14500001D02*
X36619999Y-17011766D01*
X36960000Y-11586120D02*
X36960000Y-14160000D01*
X36619999Y-17011766D02*
X36780000Y-17171767D01*
X35666343Y-9496343D02*
X36581511Y-10882764D01*
X36581511Y-10882764D02*
X36960000Y-11586120D01*
X34289998Y-8119998D02*
X35666343Y-9496343D01*
X21960000Y-8600000D02*
X21960000Y-8969502D01*
X33360002Y-8119998D02*
X34289998Y-8119998D01*
X21960000Y-8969502D02*
X22371497Y-9380999D01*
X36780000Y-17171767D02*
X36780000Y-18190000D01*
X22371497Y-9380999D02*
X23810999Y-9380999D01*
X23810999Y-9380999D02*
X25710000Y-11280000D01*
X25710000Y-11280000D02*
X30200000Y-11280000D01*
X30200000Y-11280000D02*
X33360002Y-8119998D01*
G04 #@! TO.N,/AnalogConnPCB/sheet5C67EBE6/A+*
X19930000Y-20730000D02*
X20150000Y-20510000D01*
X18830000Y-20730000D02*
X19930000Y-20730000D01*
X20150000Y-20510000D02*
X20150000Y-14230000D01*
X20150000Y-14230000D02*
X20950000Y-13430000D01*
X20950000Y-13430000D02*
X20950000Y-12750000D01*
X20950000Y-12750000D02*
X21559990Y-12140010D01*
X21559990Y-7490508D02*
X22220498Y-6830000D01*
X21559990Y-12140010D02*
X21559990Y-7490508D01*
X23338500Y-8665000D02*
X23021000Y-8665000D01*
X23892501Y-8110999D02*
X23338500Y-8665000D01*
X23892501Y-6900999D02*
X23892501Y-8110999D01*
X23821502Y-6830000D02*
X23892501Y-6900999D01*
X22220498Y-6830000D02*
X23821502Y-6830000D01*
X23021000Y-8665000D02*
X23792500Y-8665000D01*
X23792500Y-8665000D02*
X23910000Y-8782500D01*
X23910000Y-8782500D02*
X23910000Y-8910000D01*
X23910000Y-8910000D02*
X25870001Y-10870001D01*
X30039999Y-10870001D02*
X33200000Y-7710000D01*
X25870001Y-10870001D02*
X30039999Y-10870001D01*
X37370000Y-11559725D02*
X37370000Y-14460000D01*
X37370000Y-14460000D02*
X37370000Y-14910000D01*
X37380762Y-11523886D02*
X37370000Y-11559725D01*
X36925246Y-10677393D02*
X37380762Y-11523886D01*
X35956394Y-9209645D02*
X36925246Y-10677393D01*
X33200000Y-7710000D02*
X34456749Y-7710000D01*
X34456749Y-7710000D02*
X35956394Y-9209645D01*
X38720000Y-17450000D02*
X38720000Y-17410000D01*
X38720000Y-16060000D02*
X38720000Y-17450000D01*
X37370000Y-14910000D02*
X37570000Y-14910000D01*
X37570000Y-14910000D02*
X38720000Y-16060000D01*
G04 #@! TO.N,/AnalogConnPCB/sheet5C67EBE6/B+*
X14246000Y-9288000D02*
X14512000Y-9022000D01*
X12226000Y-9288000D02*
X14246000Y-9288000D01*
X14512000Y-9047000D02*
X14512000Y-9022000D01*
X15400000Y-9935000D02*
X14512000Y-9047000D01*
X16671000Y-9935000D02*
X15400000Y-9935000D01*
X15799499Y-16005499D02*
X15799499Y-10489001D01*
X18830000Y-17936000D02*
X17863998Y-16969998D01*
X17863998Y-16969998D02*
X16763998Y-16969998D01*
X16353500Y-9935000D02*
X16671000Y-9935000D01*
X16763998Y-16969998D02*
X15799499Y-16005499D01*
X15799499Y-10489001D02*
X16353500Y-9935000D01*
G04 #@! TO.N,/AnalogConnPCB/sheet5C67EBE6/Bout*
X14512000Y-7547000D02*
X14512000Y-7522000D01*
X15630000Y-8665000D02*
X14512000Y-7547000D01*
X16671000Y-8665000D02*
X15630000Y-8665000D01*
X16988500Y-8665000D02*
X16671000Y-8665000D01*
X17560000Y-9236500D02*
X16988500Y-8665000D01*
X17560000Y-13135000D02*
X17560000Y-9236500D01*
X13937000Y-7522000D02*
X14512000Y-7522000D01*
X13120999Y-8338001D02*
X13937000Y-7522000D01*
X10288001Y-8338001D02*
X13120999Y-8338001D01*
X9510000Y-7560000D02*
X10288001Y-8338001D01*
D42*
G04 #@! TO.N,12V_O*
X9000000Y-23930000D02*
X9000000Y-24240295D01*
X9000000Y-24240295D02*
X8500001Y-24740294D01*
X33700000Y-8830000D02*
X33690000Y-8820000D01*
X33700000Y-11410000D02*
X33700000Y-8830000D01*
X5230000Y-13610000D02*
X3015954Y-13610000D01*
X3015954Y-13610000D02*
X2699999Y-13925955D01*
X21370000Y-37160000D02*
X21892928Y-37160000D01*
X21892928Y-37160000D02*
X23610000Y-38877072D01*
X33280295Y-29790000D02*
X33320000Y-29829705D01*
X31110000Y-29790000D02*
X33280295Y-29790000D01*
D43*
X12450000Y-37667273D02*
X12000000Y-38117273D01*
X12450000Y-36000000D02*
X12450000Y-37667273D01*
D42*
G04 #@! TO.N,GND_O*
X32250000Y-17030000D02*
X31600000Y-16380000D01*
X33130000Y-17030000D02*
X32250000Y-17030000D01*
D39*
X23910000Y-27080000D02*
X24640000Y-26350000D01*
X23910000Y-29005000D02*
X23910000Y-27080000D01*
X24640000Y-26350000D02*
X24820000Y-26170000D01*
D42*
X9000000Y-20850000D02*
X10070000Y-19780000D01*
X9000000Y-22030000D02*
X9000000Y-20850000D01*
X9000000Y-21205000D02*
X8540000Y-20745000D01*
X10720000Y-20430000D02*
X10070000Y-19780000D01*
X11600000Y-20430000D02*
X10720000Y-20430000D01*
X7349999Y-24000001D02*
X6950000Y-24400000D01*
X8019999Y-23330001D02*
X7349999Y-24000001D01*
X8019999Y-22294999D02*
X8019999Y-23330001D01*
X11600000Y-20430000D02*
X9884998Y-20430000D01*
X8540000Y-21774998D02*
X8464998Y-21850000D01*
X8540000Y-20745000D02*
X8540000Y-21774998D01*
X9884998Y-20430000D02*
X8464998Y-21850000D01*
X8464998Y-21850000D02*
X8019999Y-22294999D01*
X8019999Y-22294999D02*
X8019999Y-22100001D01*
X8019999Y-22100001D02*
X8240000Y-21880000D01*
X8240000Y-21880000D02*
X8240000Y-21250000D01*
X9000000Y-21205000D02*
X9000000Y-22030000D01*
X9185000Y-21020000D02*
X9000000Y-21205000D01*
X9700000Y-21020000D02*
X9185000Y-21020000D01*
X12960000Y-19070000D02*
X13180000Y-19070000D01*
X11600000Y-20430000D02*
X12960000Y-19070000D01*
X28270000Y-28850000D02*
X29210000Y-29790000D01*
X28200000Y-28850000D02*
X28270000Y-28850000D01*
X23910000Y-29005000D02*
X24043215Y-29005000D01*
X24472926Y-29434711D02*
X24872925Y-29834710D01*
X24043215Y-29005000D02*
X24472926Y-29434711D01*
D40*
X25080000Y-21910000D02*
X25110000Y-21940000D01*
X25080000Y-21410000D02*
X25080000Y-21910000D01*
X25080000Y-21910000D02*
X25080000Y-22650000D01*
X25080000Y-22650000D02*
X25200000Y-22770000D01*
D11*
X25190000Y-21520000D02*
X25190000Y-22880000D01*
X25080000Y-21410000D02*
X25190000Y-21520000D01*
D43*
G04 #@! TO.N,Net-(IC1-Pad2)*
X31550001Y-28959999D02*
X30260001Y-28959999D01*
X30260001Y-28959999D02*
X30160000Y-29060000D01*
X33741510Y-28620000D02*
X31890000Y-28620000D01*
X31890000Y-28620000D02*
X31550001Y-28959999D01*
X34700000Y-32450000D02*
X34700000Y-31800000D01*
X34700000Y-31800000D02*
X34760000Y-31740000D01*
X34760000Y-31740000D02*
X34760000Y-29400000D01*
X34760000Y-29400000D02*
X34290008Y-28930008D01*
X30160000Y-29060000D02*
X30160000Y-29790000D01*
X34290008Y-28930008D02*
X34051518Y-28930008D01*
X34051518Y-28930008D02*
X33741510Y-28620000D01*
D39*
G04 #@! TO.N,Net-(IC2-Pad2)*
X9940000Y-25530000D02*
X9940000Y-26130000D01*
X9940000Y-23040000D02*
X9940000Y-25530000D01*
X9880000Y-22980000D02*
X9940000Y-23040000D01*
X9000000Y-22980000D02*
X9880000Y-22980000D01*
D43*
G04 #@! TO.N,/AnalogConnPCB/SPI_MOSI*
X20559988Y-15715690D02*
X20559988Y-14454310D01*
X21884311Y-16730011D02*
X21574309Y-16730011D01*
X21370000Y-22750000D02*
X21970000Y-22150000D01*
X21370000Y-23955000D02*
X21370000Y-22750000D01*
X20559988Y-14454310D02*
X21229298Y-13785000D01*
X21970000Y-22150000D02*
X21980000Y-22150000D01*
X21980000Y-22150000D02*
X22570001Y-21559999D01*
X21229298Y-13785000D02*
X21960000Y-13785000D01*
X22570001Y-21559999D02*
X22570001Y-17415701D01*
X21574309Y-16730011D02*
X20559988Y-15715690D01*
X22570001Y-17415701D02*
X21884311Y-16730011D01*
G04 #@! TO.N,/AnalogConnPCB/SPI_MISO*
X21370000Y-28620000D02*
X21970000Y-28020000D01*
X21370000Y-29005000D02*
X21370000Y-28620000D01*
X21970000Y-28020000D02*
X21880000Y-28110000D01*
X21960000Y-14435000D02*
X21144998Y-14435000D01*
X22049999Y-16330000D02*
X22970011Y-17250012D01*
X20959999Y-14619999D02*
X20959999Y-15550001D01*
X22690000Y-27300000D02*
X21970000Y-28020000D01*
X22690000Y-22070000D02*
X22690000Y-27300000D01*
X22970012Y-21789988D02*
X22690000Y-22070000D01*
X21739998Y-16330000D02*
X22049999Y-16330000D01*
X20959999Y-15550001D02*
X21739998Y-16330000D01*
X21144998Y-14435000D02*
X20959999Y-14619999D01*
X22970011Y-17250012D02*
X22970012Y-21789988D01*
G04 #@! TO.N,/AnalogConnPCB/SPI_SCL*
X23370023Y-17084324D02*
X23370023Y-21955677D01*
X21960000Y-15674301D02*
X23370023Y-17084324D01*
X23370023Y-21955677D02*
X23100000Y-22225700D01*
X23100000Y-30460000D02*
X22679999Y-30880001D01*
X22679999Y-30880001D02*
X19630001Y-30880001D01*
X18830000Y-30080000D02*
X18830000Y-29005000D01*
X19630001Y-30880001D02*
X18830000Y-30080000D01*
X21960000Y-15085000D02*
X21960000Y-15674301D01*
X23100000Y-22225700D02*
X23100000Y-30460000D01*
G04 #@! TO.N,Temp1wDaisy*
X20100000Y-33970000D02*
X19940000Y-33810000D01*
X20100000Y-35890000D02*
X20100000Y-33970000D01*
X31789989Y-13144852D02*
X31585137Y-12940000D01*
X33235148Y-13144852D02*
X31789989Y-13144852D01*
D39*
G04 #@! TO.N,/AnalogConnPCB/470nmCtrl*
X9940000Y-28230000D02*
X9940000Y-27630000D01*
X10715000Y-29005000D02*
X9940000Y-28230000D01*
X13750000Y-29005000D02*
X10715000Y-29005000D01*
D43*
G04 #@! TO.N,/AnalogConnPCB/HeaterCtrl*
X27029998Y-29005000D02*
X26450000Y-29005000D01*
X28644999Y-30620001D02*
X27029998Y-29005000D01*
X30920001Y-30620001D02*
X28644999Y-30620001D01*
X32750000Y-32450000D02*
X30920001Y-30620001D01*
X33200000Y-32450000D02*
X32750000Y-32450000D01*
G04 #@! TO.N,3V3_O*
X12850000Y-33000000D02*
X12450000Y-33000000D01*
D42*
G04 #@! TO.N,LED470nm*
X12350000Y-13480000D02*
X12350000Y-13330000D01*
X12350000Y-13330000D02*
X10825000Y-11805000D01*
X34791001Y-15194706D02*
X32324367Y-15194706D01*
X35276149Y-12509852D02*
X35920001Y-13153704D01*
X32324367Y-15194706D02*
X31132994Y-14003333D01*
X35920001Y-13153704D02*
X35920001Y-14065706D01*
X34335000Y-12509852D02*
X35276149Y-12509852D01*
X31132994Y-14003333D02*
X30732995Y-13603334D01*
X35920001Y-14065706D02*
X34791001Y-15194706D01*
X17530011Y-37450011D02*
X17434217Y-37450011D01*
X19857105Y-38110001D02*
X18094207Y-38110001D01*
X20100000Y-37160000D02*
X20100000Y-37867106D01*
X20100000Y-37867106D02*
X19857105Y-38110001D01*
X18094207Y-38110001D02*
X17834216Y-37850010D01*
X17834216Y-37850010D02*
X17434217Y-37450011D01*
X17550000Y-37470000D02*
X17530011Y-37450011D01*
G04 #@! TO.N,Net-(IC1-Pad4)*
X29450000Y-17030000D02*
X30100000Y-16380000D01*
X28570000Y-17030000D02*
X29450000Y-17030000D01*
D43*
X31110000Y-28320000D02*
X31110000Y-27590000D01*
X31009999Y-28420001D02*
X31110000Y-28320000D01*
X29310001Y-28420001D02*
X31009999Y-28420001D01*
X29210000Y-28320000D02*
X29310001Y-28420001D01*
X29210000Y-27590000D02*
X29210000Y-28320000D01*
D42*
X27490000Y-26706812D02*
X27490000Y-19710000D01*
X28570000Y-18630000D02*
X28570000Y-17030000D01*
X28373188Y-27590000D02*
X27490000Y-26706812D01*
X29210000Y-27590000D02*
X28373188Y-27590000D01*
X27490000Y-19710000D02*
X28570000Y-18630000D01*
G04 #@! TO.N,Net-(IC2-Pad4)*
X11915002Y-22030000D02*
X11200000Y-22030000D01*
X12180001Y-22294999D02*
X11915002Y-22030000D01*
X12180001Y-23665001D02*
X12180001Y-22294999D01*
X11915002Y-23930000D02*
X12180001Y-23665001D01*
X11200000Y-23930000D02*
X11915002Y-23930000D01*
X13750000Y-19780000D02*
X13100000Y-20430000D01*
X14630000Y-19780000D02*
X13750000Y-19780000D01*
X11500000Y-22030000D02*
X11200000Y-22030000D01*
X13100000Y-20430000D02*
X11500000Y-22030000D01*
D43*
G04 #@! TO.N,/AnalogConnPCB/SPI_CS_ADC*
X23330000Y-16040000D02*
X23780000Y-16490000D01*
X23780000Y-16490000D02*
X23780000Y-21670000D01*
X23910000Y-21800000D02*
X23910000Y-23955000D01*
X23780000Y-21670000D02*
X23910000Y-21800000D01*
X18618970Y-15085000D02*
X18639025Y-15105055D01*
X17560000Y-15085000D02*
X18618970Y-15085000D01*
X18639025Y-15105055D02*
X19039024Y-15505054D01*
G04 #@! TO.N,Net-(D1-Pad1)*
X14050000Y-31500000D02*
X15500000Y-31500000D01*
G04 #@! TO.N,Net-(D2-Pad1)*
X14050000Y-33000000D02*
X15500000Y-33000000D01*
G04 #@! TO.N,Net-(D3-Pad1)*
X14050000Y-34500000D02*
X15500000Y-34500000D01*
G04 #@! TO.N,Net-(D4-Pad1)*
X14050000Y-36000000D02*
X15500000Y-36000000D01*
G04 #@! TD*
D45*
G04 #@! TO.N,GNDA*
G36*
X25279000Y-18491000D02*
X25299000Y-18491000D01*
X25299000Y-18849000D01*
X25279000Y-18849000D01*
X25279000Y-19202750D01*
X25259000Y-19222750D01*
X25259000Y-19785000D01*
X25967250Y-19785000D01*
X26113000Y-19639250D01*
X26113000Y-19544034D01*
X26024244Y-19329757D01*
X26016353Y-19321866D01*
X26038685Y-19267952D01*
X26092701Y-19304044D01*
X26200000Y-19325387D01*
X26249480Y-19325387D01*
X26275569Y-19364432D01*
X26313143Y-19389538D01*
X26414990Y-19491385D01*
X26414990Y-19884320D01*
X26414991Y-19884325D01*
X26414990Y-21878614D01*
X26307804Y-21985801D01*
X25965000Y-21985508D01*
X25965000Y-21596324D01*
X25980182Y-21519999D01*
X25965000Y-21443674D01*
X25965000Y-21443670D01*
X25920034Y-21217610D01*
X25748744Y-20961256D01*
X25684031Y-20918016D01*
X25574034Y-20808019D01*
X25476726Y-20743000D01*
X25645966Y-20743000D01*
X25860243Y-20654244D01*
X26024244Y-20490243D01*
X26113000Y-20275966D01*
X26113000Y-20180750D01*
X25967250Y-20035000D01*
X25259000Y-20035000D01*
X25259000Y-20109000D01*
X24901000Y-20109000D01*
X24901000Y-20035000D01*
X24881000Y-20035000D01*
X24881000Y-19785000D01*
X24901000Y-19785000D01*
X24901000Y-19502250D01*
X24921000Y-19482250D01*
X24921000Y-18849000D01*
X24901000Y-18849000D01*
X24901000Y-18491000D01*
X24921000Y-18491000D01*
X24921000Y-18471000D01*
X25279000Y-18471000D01*
X25279000Y-18491000D01*
X25279000Y-18491000D01*
G37*
X25279000Y-18491000D02*
X25299000Y-18491000D01*
X25299000Y-18849000D01*
X25279000Y-18849000D01*
X25279000Y-19202750D01*
X25259000Y-19222750D01*
X25259000Y-19785000D01*
X25967250Y-19785000D01*
X26113000Y-19639250D01*
X26113000Y-19544034D01*
X26024244Y-19329757D01*
X26016353Y-19321866D01*
X26038685Y-19267952D01*
X26092701Y-19304044D01*
X26200000Y-19325387D01*
X26249480Y-19325387D01*
X26275569Y-19364432D01*
X26313143Y-19389538D01*
X26414990Y-19491385D01*
X26414990Y-19884320D01*
X26414991Y-19884325D01*
X26414990Y-21878614D01*
X26307804Y-21985801D01*
X25965000Y-21985508D01*
X25965000Y-21596324D01*
X25980182Y-21519999D01*
X25965000Y-21443674D01*
X25965000Y-21443670D01*
X25920034Y-21217610D01*
X25748744Y-20961256D01*
X25684031Y-20918016D01*
X25574034Y-20808019D01*
X25476726Y-20743000D01*
X25645966Y-20743000D01*
X25860243Y-20654244D01*
X26024244Y-20490243D01*
X26113000Y-20275966D01*
X26113000Y-20180750D01*
X25967250Y-20035000D01*
X25259000Y-20035000D01*
X25259000Y-20109000D01*
X24901000Y-20109000D01*
X24901000Y-20035000D01*
X24881000Y-20035000D01*
X24881000Y-19785000D01*
X24901000Y-19785000D01*
X24901000Y-19502250D01*
X24921000Y-19482250D01*
X24921000Y-18849000D01*
X24901000Y-18849000D01*
X24901000Y-18491000D01*
X24921000Y-18491000D01*
X24921000Y-18471000D01*
X25279000Y-18471000D01*
X25279000Y-18491000D01*
G36*
X17649613Y-18836000D02*
X17670956Y-18943299D01*
X17731736Y-19034264D01*
X17822701Y-19095044D01*
X17930000Y-19116387D01*
X19730000Y-19116387D01*
X19775000Y-19107436D01*
X19775000Y-19558564D01*
X19730000Y-19549613D01*
X17930000Y-19549613D01*
X17822701Y-19570956D01*
X17731736Y-19631736D01*
X17670956Y-19722701D01*
X17649613Y-19830000D01*
X17649613Y-21630000D01*
X17670956Y-21737299D01*
X17731736Y-21828264D01*
X17822701Y-21889044D01*
X17930000Y-21910387D01*
X19730000Y-21910387D01*
X19837299Y-21889044D01*
X19928264Y-21828264D01*
X19989044Y-21737299D01*
X20010387Y-21630000D01*
X20010387Y-21371795D01*
X20050112Y-21467699D01*
X20285632Y-21561224D01*
X21116856Y-20730000D01*
X21102714Y-20715858D01*
X21355858Y-20462714D01*
X21370000Y-20476856D01*
X21384143Y-20462714D01*
X21637287Y-20715858D01*
X21623144Y-20730000D01*
X21637287Y-20744143D01*
X21384143Y-20997287D01*
X21370000Y-20983144D01*
X20538776Y-21814368D01*
X20604921Y-21980939D01*
X15722249Y-21976777D01*
X15723080Y-21457252D01*
X15769054Y-21411278D01*
X15800360Y-21390360D01*
X15838231Y-21333683D01*
X15883242Y-21266320D01*
X15883242Y-21266319D01*
X15883243Y-21266318D01*
X15905001Y-21156932D01*
X15905001Y-21156928D01*
X15912346Y-21120002D01*
X15905001Y-21083076D01*
X15905001Y-19415328D01*
X16938377Y-18381953D01*
X16945734Y-18385000D01*
X17214266Y-18385000D01*
X17462357Y-18282237D01*
X17649613Y-18094981D01*
X17649613Y-18836000D01*
X17649613Y-18836000D01*
G37*
X17649613Y-18836000D02*
X17670956Y-18943299D01*
X17731736Y-19034264D01*
X17822701Y-19095044D01*
X17930000Y-19116387D01*
X19730000Y-19116387D01*
X19775000Y-19107436D01*
X19775000Y-19558564D01*
X19730000Y-19549613D01*
X17930000Y-19549613D01*
X17822701Y-19570956D01*
X17731736Y-19631736D01*
X17670956Y-19722701D01*
X17649613Y-19830000D01*
X17649613Y-21630000D01*
X17670956Y-21737299D01*
X17731736Y-21828264D01*
X17822701Y-21889044D01*
X17930000Y-21910387D01*
X19730000Y-21910387D01*
X19837299Y-21889044D01*
X19928264Y-21828264D01*
X19989044Y-21737299D01*
X20010387Y-21630000D01*
X20010387Y-21371795D01*
X20050112Y-21467699D01*
X20285632Y-21561224D01*
X21116856Y-20730000D01*
X21102714Y-20715858D01*
X21355858Y-20462714D01*
X21370000Y-20476856D01*
X21384143Y-20462714D01*
X21637287Y-20715858D01*
X21623144Y-20730000D01*
X21637287Y-20744143D01*
X21384143Y-20997287D01*
X21370000Y-20983144D01*
X20538776Y-21814368D01*
X20604921Y-21980939D01*
X15722249Y-21976777D01*
X15723080Y-21457252D01*
X15769054Y-21411278D01*
X15800360Y-21390360D01*
X15838231Y-21333683D01*
X15883242Y-21266320D01*
X15883242Y-21266319D01*
X15883243Y-21266318D01*
X15905001Y-21156932D01*
X15905001Y-21156928D01*
X15912346Y-21120002D01*
X15905001Y-21083076D01*
X15905001Y-19415328D01*
X16938377Y-18381953D01*
X16945734Y-18385000D01*
X17214266Y-18385000D01*
X17462357Y-18282237D01*
X17649613Y-18094981D01*
X17649613Y-18836000D01*
G36*
X21637287Y-17921858D02*
X21623144Y-17936000D01*
X21637287Y-17950143D01*
X21384143Y-18203287D01*
X21370000Y-18189144D01*
X21355858Y-18203287D01*
X21102714Y-17950143D01*
X21116856Y-17936000D01*
X21102714Y-17921858D01*
X21355858Y-17668714D01*
X21370000Y-17682856D01*
X21384143Y-17668714D01*
X21637287Y-17921858D01*
X21637287Y-17921858D01*
G37*
X21637287Y-17921858D02*
X21623144Y-17936000D01*
X21637287Y-17950143D01*
X21384143Y-18203287D01*
X21370000Y-18189144D01*
X21355858Y-18203287D01*
X21102714Y-17950143D01*
X21116856Y-17936000D01*
X21102714Y-17921858D01*
X21355858Y-17668714D01*
X21370000Y-17682856D01*
X21384143Y-17668714D01*
X21637287Y-17921858D01*
G36*
X23200000Y-9808000D02*
X23220000Y-9808000D01*
X23220000Y-10062000D01*
X23200000Y-10062000D01*
X23200000Y-11078000D01*
X23220000Y-11078000D01*
X23220000Y-11332000D01*
X23200000Y-11332000D01*
X23200000Y-11896250D01*
X23345750Y-12042000D01*
X23708466Y-12042000D01*
X23922743Y-11953244D01*
X23960987Y-11915000D01*
X24505000Y-11915000D01*
X24505000Y-11281750D01*
X24359250Y-11136000D01*
X24175500Y-11136000D01*
X24175500Y-11025998D01*
X24081752Y-11025998D01*
X24175500Y-10932250D01*
X24175500Y-10835034D01*
X24086744Y-10620757D01*
X24035987Y-10570000D01*
X24086744Y-10519243D01*
X24175500Y-10304966D01*
X24175500Y-10275829D01*
X25035670Y-11136000D01*
X25008750Y-11136000D01*
X24863000Y-11281750D01*
X24863000Y-11915000D01*
X24883000Y-11915000D01*
X24883000Y-12273000D01*
X24863000Y-12273000D01*
X24863000Y-13185000D01*
X24883000Y-13185000D01*
X24883000Y-13543000D01*
X24863000Y-13543000D01*
X24863000Y-13563000D01*
X24505000Y-13563000D01*
X24505000Y-13543000D01*
X23846750Y-13543000D01*
X23701000Y-13688750D01*
X23701000Y-13854966D01*
X23789756Y-14069243D01*
X23953757Y-14233244D01*
X24057613Y-14276262D01*
X24057613Y-15204000D01*
X24078956Y-15311299D01*
X24139736Y-15402264D01*
X24230701Y-15463044D01*
X24338000Y-15484387D01*
X25138000Y-15484387D01*
X25245299Y-15463044D01*
X25280912Y-15439249D01*
X25327763Y-15552357D01*
X25517643Y-15742237D01*
X25765734Y-15845000D01*
X26034266Y-15845000D01*
X26282357Y-15742237D01*
X26472237Y-15552357D01*
X26496153Y-15494618D01*
X26496432Y-15494432D01*
X26503144Y-15484387D01*
X27038000Y-15484387D01*
X27145299Y-15463044D01*
X27170925Y-15445922D01*
X27173327Y-16363684D01*
X27145299Y-16344956D01*
X27038000Y-16323613D01*
X26502895Y-16323613D01*
X26482244Y-16273757D01*
X26318243Y-16109756D01*
X26103966Y-16021000D01*
X25983750Y-16021000D01*
X25838000Y-16166750D01*
X25838000Y-16925000D01*
X25887000Y-16925000D01*
X25887000Y-17283000D01*
X25838000Y-17283000D01*
X25838000Y-17303000D01*
X25538000Y-17303000D01*
X25538000Y-17283000D01*
X25489000Y-17283000D01*
X25489000Y-16925000D01*
X25538000Y-16925000D01*
X25538000Y-16166750D01*
X25392250Y-16021000D01*
X25272034Y-16021000D01*
X25057757Y-16109756D01*
X24893756Y-16273757D01*
X24873105Y-16323613D01*
X24338000Y-16323613D01*
X24230701Y-16344956D01*
X24144899Y-16402286D01*
X24133242Y-16343683D01*
X24133241Y-16343681D01*
X24071279Y-16250949D01*
X24071278Y-16250948D01*
X24050359Y-16219641D01*
X24019053Y-16198723D01*
X24001953Y-16181623D01*
X24005000Y-16174266D01*
X24005000Y-15905734D01*
X23902237Y-15657643D01*
X23712357Y-15467763D01*
X23464266Y-15365000D01*
X23195734Y-15365000D01*
X22947643Y-15467763D01*
X22757763Y-15657643D01*
X22674554Y-15858526D01*
X22406415Y-15590387D01*
X22660000Y-15590387D01*
X22767299Y-15569044D01*
X22858264Y-15508264D01*
X22919044Y-15417299D01*
X22940387Y-15310000D01*
X22940387Y-14860000D01*
X22920496Y-14760000D01*
X22940387Y-14660000D01*
X22940387Y-14210000D01*
X22920496Y-14110000D01*
X22940387Y-14010000D01*
X22940387Y-13560000D01*
X22920496Y-13460000D01*
X22940387Y-13360000D01*
X22940387Y-12910000D01*
X22919044Y-12802701D01*
X22858264Y-12711736D01*
X22767299Y-12650956D01*
X22660000Y-12629613D01*
X22335000Y-12629613D01*
X22335000Y-12418750D01*
X23701000Y-12418750D01*
X23701000Y-12584966D01*
X23760661Y-12729000D01*
X23701000Y-12873034D01*
X23701000Y-13039250D01*
X23846750Y-13185000D01*
X24505000Y-13185000D01*
X24505000Y-12273000D01*
X23846750Y-12273000D01*
X23701000Y-12418750D01*
X22335000Y-12418750D01*
X22335000Y-12042000D01*
X22696250Y-12042000D01*
X22842000Y-11896250D01*
X22842000Y-11332000D01*
X22822000Y-11332000D01*
X22822000Y-11078000D01*
X22842000Y-11078000D01*
X22842000Y-10062000D01*
X22822000Y-10062000D01*
X22822000Y-9808000D01*
X22842000Y-9808000D01*
X22842000Y-9755999D01*
X23200000Y-9755999D01*
X23200000Y-9808000D01*
X23200000Y-9808000D01*
G37*
X23200000Y-9808000D02*
X23220000Y-9808000D01*
X23220000Y-10062000D01*
X23200000Y-10062000D01*
X23200000Y-11078000D01*
X23220000Y-11078000D01*
X23220000Y-11332000D01*
X23200000Y-11332000D01*
X23200000Y-11896250D01*
X23345750Y-12042000D01*
X23708466Y-12042000D01*
X23922743Y-11953244D01*
X23960987Y-11915000D01*
X24505000Y-11915000D01*
X24505000Y-11281750D01*
X24359250Y-11136000D01*
X24175500Y-11136000D01*
X24175500Y-11025998D01*
X24081752Y-11025998D01*
X24175500Y-10932250D01*
X24175500Y-10835034D01*
X24086744Y-10620757D01*
X24035987Y-10570000D01*
X24086744Y-10519243D01*
X24175500Y-10304966D01*
X24175500Y-10275829D01*
X25035670Y-11136000D01*
X25008750Y-11136000D01*
X24863000Y-11281750D01*
X24863000Y-11915000D01*
X24883000Y-11915000D01*
X24883000Y-12273000D01*
X24863000Y-12273000D01*
X24863000Y-13185000D01*
X24883000Y-13185000D01*
X24883000Y-13543000D01*
X24863000Y-13543000D01*
X24863000Y-13563000D01*
X24505000Y-13563000D01*
X24505000Y-13543000D01*
X23846750Y-13543000D01*
X23701000Y-13688750D01*
X23701000Y-13854966D01*
X23789756Y-14069243D01*
X23953757Y-14233244D01*
X24057613Y-14276262D01*
X24057613Y-15204000D01*
X24078956Y-15311299D01*
X24139736Y-15402264D01*
X24230701Y-15463044D01*
X24338000Y-15484387D01*
X25138000Y-15484387D01*
X25245299Y-15463044D01*
X25280912Y-15439249D01*
X25327763Y-15552357D01*
X25517643Y-15742237D01*
X25765734Y-15845000D01*
X26034266Y-15845000D01*
X26282357Y-15742237D01*
X26472237Y-15552357D01*
X26496153Y-15494618D01*
X26496432Y-15494432D01*
X26503144Y-15484387D01*
X27038000Y-15484387D01*
X27145299Y-15463044D01*
X27170925Y-15445922D01*
X27173327Y-16363684D01*
X27145299Y-16344956D01*
X27038000Y-16323613D01*
X26502895Y-16323613D01*
X26482244Y-16273757D01*
X26318243Y-16109756D01*
X26103966Y-16021000D01*
X25983750Y-16021000D01*
X25838000Y-16166750D01*
X25838000Y-16925000D01*
X25887000Y-16925000D01*
X25887000Y-17283000D01*
X25838000Y-17283000D01*
X25838000Y-17303000D01*
X25538000Y-17303000D01*
X25538000Y-17283000D01*
X25489000Y-17283000D01*
X25489000Y-16925000D01*
X25538000Y-16925000D01*
X25538000Y-16166750D01*
X25392250Y-16021000D01*
X25272034Y-16021000D01*
X25057757Y-16109756D01*
X24893756Y-16273757D01*
X24873105Y-16323613D01*
X24338000Y-16323613D01*
X24230701Y-16344956D01*
X24144899Y-16402286D01*
X24133242Y-16343683D01*
X24133241Y-16343681D01*
X24071279Y-16250949D01*
X24071278Y-16250948D01*
X24050359Y-16219641D01*
X24019053Y-16198723D01*
X24001953Y-16181623D01*
X24005000Y-16174266D01*
X24005000Y-15905734D01*
X23902237Y-15657643D01*
X23712357Y-15467763D01*
X23464266Y-15365000D01*
X23195734Y-15365000D01*
X22947643Y-15467763D01*
X22757763Y-15657643D01*
X22674554Y-15858526D01*
X22406415Y-15590387D01*
X22660000Y-15590387D01*
X22767299Y-15569044D01*
X22858264Y-15508264D01*
X22919044Y-15417299D01*
X22940387Y-15310000D01*
X22940387Y-14860000D01*
X22920496Y-14760000D01*
X22940387Y-14660000D01*
X22940387Y-14210000D01*
X22920496Y-14110000D01*
X22940387Y-14010000D01*
X22940387Y-13560000D01*
X22920496Y-13460000D01*
X22940387Y-13360000D01*
X22940387Y-12910000D01*
X22919044Y-12802701D01*
X22858264Y-12711736D01*
X22767299Y-12650956D01*
X22660000Y-12629613D01*
X22335000Y-12629613D01*
X22335000Y-12418750D01*
X23701000Y-12418750D01*
X23701000Y-12584966D01*
X23760661Y-12729000D01*
X23701000Y-12873034D01*
X23701000Y-13039250D01*
X23846750Y-13185000D01*
X24505000Y-13185000D01*
X24505000Y-12273000D01*
X23846750Y-12273000D01*
X23701000Y-12418750D01*
X22335000Y-12418750D01*
X22335000Y-12042000D01*
X22696250Y-12042000D01*
X22842000Y-11896250D01*
X22842000Y-11332000D01*
X22822000Y-11332000D01*
X22822000Y-11078000D01*
X22842000Y-11078000D01*
X22842000Y-10062000D01*
X22822000Y-10062000D01*
X22822000Y-9808000D01*
X22842000Y-9808000D01*
X22842000Y-9755999D01*
X23200000Y-9755999D01*
X23200000Y-9808000D01*
G36*
X16850000Y-11078000D02*
X16870000Y-11078000D01*
X16870000Y-11332000D01*
X16850000Y-11332000D01*
X16850000Y-11896250D01*
X16995750Y-12042000D01*
X17185000Y-12042000D01*
X17185000Y-12629613D01*
X16860000Y-12629613D01*
X16752701Y-12650956D01*
X16661736Y-12711736D01*
X16600956Y-12802701D01*
X16579613Y-12910000D01*
X16579613Y-13045105D01*
X16529757Y-13065756D01*
X16365756Y-13229757D01*
X16277000Y-13444034D01*
X16277000Y-13526750D01*
X16422750Y-13672500D01*
X17381000Y-13672500D01*
X17381000Y-13640387D01*
X17739000Y-13640387D01*
X17739000Y-13672500D01*
X17759000Y-13672500D01*
X17759000Y-13897500D01*
X17739000Y-13897500D01*
X17739000Y-13929613D01*
X17381000Y-13929613D01*
X17381000Y-13897500D01*
X16422750Y-13897500D01*
X16277000Y-14043250D01*
X16277000Y-14125966D01*
X16365756Y-14340243D01*
X16529757Y-14504244D01*
X16579613Y-14524895D01*
X16579613Y-14660000D01*
X16599504Y-14760000D01*
X16579613Y-14860000D01*
X16579613Y-15310000D01*
X16600956Y-15417299D01*
X16661736Y-15508264D01*
X16752701Y-15569044D01*
X16860000Y-15590387D01*
X18260000Y-15590387D01*
X18364024Y-15569695D01*
X18364024Y-15639320D01*
X18466787Y-15887411D01*
X18656667Y-16077291D01*
X18904758Y-16180054D01*
X19173290Y-16180054D01*
X19421381Y-16077291D01*
X19611261Y-15887411D01*
X19714024Y-15639320D01*
X19714024Y-15370788D01*
X19623226Y-15151583D01*
X19742357Y-15102237D01*
X19775001Y-15069593D01*
X19775001Y-16764564D01*
X19730000Y-16755613D01*
X18179942Y-16755613D01*
X18155278Y-16730948D01*
X18134357Y-16699639D01*
X18010315Y-16616756D01*
X17900929Y-16594998D01*
X17900924Y-16594998D01*
X17863998Y-16587653D01*
X17827072Y-16594998D01*
X16919328Y-16594998D01*
X16174499Y-15850170D01*
X16174499Y-12042000D01*
X16346250Y-12042000D01*
X16492000Y-11896250D01*
X16492000Y-11332000D01*
X16472000Y-11332000D01*
X16472000Y-11078000D01*
X16492000Y-11078000D01*
X16492000Y-11006000D01*
X16850000Y-11006000D01*
X16850000Y-11078000D01*
X16850000Y-11078000D01*
G37*
X16850000Y-11078000D02*
X16870000Y-11078000D01*
X16870000Y-11332000D01*
X16850000Y-11332000D01*
X16850000Y-11896250D01*
X16995750Y-12042000D01*
X17185000Y-12042000D01*
X17185000Y-12629613D01*
X16860000Y-12629613D01*
X16752701Y-12650956D01*
X16661736Y-12711736D01*
X16600956Y-12802701D01*
X16579613Y-12910000D01*
X16579613Y-13045105D01*
X16529757Y-13065756D01*
X16365756Y-13229757D01*
X16277000Y-13444034D01*
X16277000Y-13526750D01*
X16422750Y-13672500D01*
X17381000Y-13672500D01*
X17381000Y-13640387D01*
X17739000Y-13640387D01*
X17739000Y-13672500D01*
X17759000Y-13672500D01*
X17759000Y-13897500D01*
X17739000Y-13897500D01*
X17739000Y-13929613D01*
X17381000Y-13929613D01*
X17381000Y-13897500D01*
X16422750Y-13897500D01*
X16277000Y-14043250D01*
X16277000Y-14125966D01*
X16365756Y-14340243D01*
X16529757Y-14504244D01*
X16579613Y-14524895D01*
X16579613Y-14660000D01*
X16599504Y-14760000D01*
X16579613Y-14860000D01*
X16579613Y-15310000D01*
X16600956Y-15417299D01*
X16661736Y-15508264D01*
X16752701Y-15569044D01*
X16860000Y-15590387D01*
X18260000Y-15590387D01*
X18364024Y-15569695D01*
X18364024Y-15639320D01*
X18466787Y-15887411D01*
X18656667Y-16077291D01*
X18904758Y-16180054D01*
X19173290Y-16180054D01*
X19421381Y-16077291D01*
X19611261Y-15887411D01*
X19714024Y-15639320D01*
X19714024Y-15370788D01*
X19623226Y-15151583D01*
X19742357Y-15102237D01*
X19775001Y-15069593D01*
X19775001Y-16764564D01*
X19730000Y-16755613D01*
X18179942Y-16755613D01*
X18155278Y-16730948D01*
X18134357Y-16699639D01*
X18010315Y-16616756D01*
X17900929Y-16594998D01*
X17900924Y-16594998D01*
X17863998Y-16587653D01*
X17827072Y-16594998D01*
X16919328Y-16594998D01*
X16174499Y-15850170D01*
X16174499Y-12042000D01*
X16346250Y-12042000D01*
X16492000Y-11896250D01*
X16492000Y-11332000D01*
X16472000Y-11332000D01*
X16472000Y-11078000D01*
X16492000Y-11078000D01*
X16492000Y-11006000D01*
X16850000Y-11006000D01*
X16850000Y-11078000D01*
G36*
X14500654Y-3966190D02*
X15970568Y-6202798D01*
X15972207Y-6204811D01*
X15973807Y-6207199D01*
X15974094Y-6207624D01*
X16017978Y-6272169D01*
X16028971Y-6284964D01*
X16053889Y-6300308D01*
X16082782Y-6304948D01*
X16094922Y-6304497D01*
X16100000Y-6305000D01*
X23792571Y-6305000D01*
X24125000Y-6371486D01*
X24125000Y-6603169D01*
X24112782Y-6590951D01*
X24091861Y-6559641D01*
X23967819Y-6476758D01*
X23858433Y-6455000D01*
X23858428Y-6455000D01*
X23821502Y-6447655D01*
X23784576Y-6455000D01*
X22257423Y-6455000D01*
X22220497Y-6447655D01*
X22183571Y-6455000D01*
X22183567Y-6455000D01*
X22074181Y-6476758D01*
X22074180Y-6476759D01*
X22074179Y-6476759D01*
X21981446Y-6538722D01*
X21950139Y-6559641D01*
X21929220Y-6590948D01*
X21320938Y-7199231D01*
X21289632Y-7220149D01*
X21268713Y-7251456D01*
X21268711Y-7251458D01*
X21206749Y-7344190D01*
X21177645Y-7490508D01*
X21184991Y-7527439D01*
X21184990Y-11984680D01*
X20710948Y-12458723D01*
X20679642Y-12479641D01*
X20658723Y-12510948D01*
X20658721Y-12510950D01*
X20596759Y-12603682D01*
X20567655Y-12750000D01*
X20575001Y-12786931D01*
X20575000Y-13274670D01*
X19910948Y-13938723D01*
X19879642Y-13959641D01*
X19858723Y-13990948D01*
X19858721Y-13990950D01*
X19825405Y-14040811D01*
X19742357Y-13957763D01*
X19494266Y-13855000D01*
X19225734Y-13855000D01*
X19085001Y-13913294D01*
X19085001Y-12549317D01*
X19093816Y-12505000D01*
X19085001Y-12460684D01*
X19085001Y-12460680D01*
X19058892Y-12329420D01*
X18959433Y-12180569D01*
X18921858Y-12155462D01*
X18500000Y-11733605D01*
X18500000Y-8500820D01*
X18508816Y-8456500D01*
X18499765Y-8411000D01*
X18473891Y-8280919D01*
X18374432Y-8132068D01*
X18336857Y-8106961D01*
X17522887Y-7292992D01*
X17522887Y-7141000D01*
X17501544Y-7033701D01*
X17440764Y-6942736D01*
X17349799Y-6881956D01*
X17242500Y-6860613D01*
X16099500Y-6860613D01*
X15992201Y-6881956D01*
X15901236Y-6942736D01*
X15840456Y-7033701D01*
X15819113Y-7141000D01*
X15819113Y-7649000D01*
X15840456Y-7756299D01*
X15901236Y-7847264D01*
X15992201Y-7908044D01*
X16099500Y-7929387D01*
X16886492Y-7929387D01*
X17087718Y-8130613D01*
X16099500Y-8130613D01*
X15992201Y-8151956D01*
X15901236Y-8212736D01*
X15849611Y-8290000D01*
X15785330Y-8290000D01*
X15167387Y-7672058D01*
X15167387Y-7122000D01*
X15146044Y-7014701D01*
X15085264Y-6923736D01*
X14994299Y-6862956D01*
X14887000Y-6841613D01*
X14137000Y-6841613D01*
X14029701Y-6862956D01*
X13938736Y-6923736D01*
X13877956Y-7014701D01*
X13856613Y-7122000D01*
X13856613Y-7155644D01*
X13790683Y-7168758D01*
X13755483Y-7192278D01*
X13697949Y-7230721D01*
X13697948Y-7230722D01*
X13666641Y-7251641D01*
X13645722Y-7282948D01*
X12965670Y-7963001D01*
X12956387Y-7963001D01*
X12956387Y-7538000D01*
X12935044Y-7430701D01*
X12874264Y-7339736D01*
X12783299Y-7278956D01*
X12676000Y-7257613D01*
X12225942Y-7257613D01*
X12152074Y-7183745D01*
X12273327Y-7133520D01*
X12553225Y-6853622D01*
X12704705Y-6487918D01*
X12704705Y-6092082D01*
X12626575Y-5903460D01*
X13030895Y-5499140D01*
X13065889Y-5583622D01*
X13345787Y-5863520D01*
X13711491Y-6015000D01*
X14107327Y-6015000D01*
X14473031Y-5863520D01*
X14752929Y-5583622D01*
X14904409Y-5217918D01*
X14904409Y-4822082D01*
X14752929Y-4456378D01*
X14473031Y-4176480D01*
X14107327Y-4025000D01*
X13711491Y-4025000D01*
X13345787Y-4176480D01*
X13065889Y-4456378D01*
X12989957Y-4639694D01*
X12979704Y-4637655D01*
X12942778Y-4645000D01*
X12942774Y-4645000D01*
X12833388Y-4666758D01*
X12833387Y-4666759D01*
X12833386Y-4666759D01*
X12740653Y-4728721D01*
X12740650Y-4728724D01*
X12709346Y-4749641D01*
X12688429Y-4780945D01*
X12096245Y-5373130D01*
X11907623Y-5295000D01*
X11511787Y-5295000D01*
X11146083Y-5446480D01*
X10866185Y-5726378D01*
X10714705Y-6092082D01*
X10714705Y-6487918D01*
X10866185Y-6853622D01*
X11146083Y-7133520D01*
X11334706Y-7211650D01*
X11334706Y-7234774D01*
X11327360Y-7271705D01*
X11356464Y-7418023D01*
X11418426Y-7510755D01*
X11418428Y-7510757D01*
X11439347Y-7542064D01*
X11470653Y-7562982D01*
X11495613Y-7587942D01*
X11495613Y-7963001D01*
X10443331Y-7963001D01*
X10426870Y-7946540D01*
X10505000Y-7757918D01*
X10505000Y-7362082D01*
X10353520Y-6996378D01*
X10073622Y-6716480D01*
X9707918Y-6565000D01*
X9312082Y-6565000D01*
X8946378Y-6716480D01*
X8666480Y-6996378D01*
X8515000Y-7362082D01*
X8515000Y-7757918D01*
X8666480Y-8123622D01*
X8946378Y-8403520D01*
X9312082Y-8555000D01*
X9707918Y-8555000D01*
X9896540Y-8476870D01*
X9996723Y-8577053D01*
X10017642Y-8608360D01*
X10048949Y-8629279D01*
X10048950Y-8629280D01*
X10101893Y-8664655D01*
X10141684Y-8691243D01*
X10251070Y-8713001D01*
X10251075Y-8713001D01*
X10288001Y-8720346D01*
X10324927Y-8713001D01*
X13084073Y-8713001D01*
X13120999Y-8720346D01*
X13157925Y-8713001D01*
X13157930Y-8713001D01*
X13267316Y-8691243D01*
X13391358Y-8608360D01*
X13412278Y-8577051D01*
X13910830Y-8078499D01*
X13938736Y-8120264D01*
X14029701Y-8181044D01*
X14137000Y-8202387D01*
X14637058Y-8202387D01*
X14776284Y-8341613D01*
X14137000Y-8341613D01*
X14029701Y-8362956D01*
X13938736Y-8423736D01*
X13877956Y-8514701D01*
X13856613Y-8622000D01*
X13856613Y-8913000D01*
X12923217Y-8913000D01*
X12874264Y-8839736D01*
X12783299Y-8778956D01*
X12676000Y-8757613D01*
X11776000Y-8757613D01*
X11668701Y-8778956D01*
X11577736Y-8839736D01*
X11516956Y-8930701D01*
X11495613Y-9038000D01*
X11495613Y-9538000D01*
X11516956Y-9645299D01*
X11577736Y-9736264D01*
X11647598Y-9782944D01*
X9569634Y-9786350D01*
X7978292Y-7055646D01*
X13030870Y-3962460D01*
X14077357Y-3331245D01*
X14500654Y-3966190D01*
X14500654Y-3966190D01*
G37*
X14500654Y-3966190D02*
X15970568Y-6202798D01*
X15972207Y-6204811D01*
X15973807Y-6207199D01*
X15974094Y-6207624D01*
X16017978Y-6272169D01*
X16028971Y-6284964D01*
X16053889Y-6300308D01*
X16082782Y-6304948D01*
X16094922Y-6304497D01*
X16100000Y-6305000D01*
X23792571Y-6305000D01*
X24125000Y-6371486D01*
X24125000Y-6603169D01*
X24112782Y-6590951D01*
X24091861Y-6559641D01*
X23967819Y-6476758D01*
X23858433Y-6455000D01*
X23858428Y-6455000D01*
X23821502Y-6447655D01*
X23784576Y-6455000D01*
X22257423Y-6455000D01*
X22220497Y-6447655D01*
X22183571Y-6455000D01*
X22183567Y-6455000D01*
X22074181Y-6476758D01*
X22074180Y-6476759D01*
X22074179Y-6476759D01*
X21981446Y-6538722D01*
X21950139Y-6559641D01*
X21929220Y-6590948D01*
X21320938Y-7199231D01*
X21289632Y-7220149D01*
X21268713Y-7251456D01*
X21268711Y-7251458D01*
X21206749Y-7344190D01*
X21177645Y-7490508D01*
X21184991Y-7527439D01*
X21184990Y-11984680D01*
X20710948Y-12458723D01*
X20679642Y-12479641D01*
X20658723Y-12510948D01*
X20658721Y-12510950D01*
X20596759Y-12603682D01*
X20567655Y-12750000D01*
X20575001Y-12786931D01*
X20575000Y-13274670D01*
X19910948Y-13938723D01*
X19879642Y-13959641D01*
X19858723Y-13990948D01*
X19858721Y-13990950D01*
X19825405Y-14040811D01*
X19742357Y-13957763D01*
X19494266Y-13855000D01*
X19225734Y-13855000D01*
X19085001Y-13913294D01*
X19085001Y-12549317D01*
X19093816Y-12505000D01*
X19085001Y-12460684D01*
X19085001Y-12460680D01*
X19058892Y-12329420D01*
X18959433Y-12180569D01*
X18921858Y-12155462D01*
X18500000Y-11733605D01*
X18500000Y-8500820D01*
X18508816Y-8456500D01*
X18499765Y-8411000D01*
X18473891Y-8280919D01*
X18374432Y-8132068D01*
X18336857Y-8106961D01*
X17522887Y-7292992D01*
X17522887Y-7141000D01*
X17501544Y-7033701D01*
X17440764Y-6942736D01*
X17349799Y-6881956D01*
X17242500Y-6860613D01*
X16099500Y-6860613D01*
X15992201Y-6881956D01*
X15901236Y-6942736D01*
X15840456Y-7033701D01*
X15819113Y-7141000D01*
X15819113Y-7649000D01*
X15840456Y-7756299D01*
X15901236Y-7847264D01*
X15992201Y-7908044D01*
X16099500Y-7929387D01*
X16886492Y-7929387D01*
X17087718Y-8130613D01*
X16099500Y-8130613D01*
X15992201Y-8151956D01*
X15901236Y-8212736D01*
X15849611Y-8290000D01*
X15785330Y-8290000D01*
X15167387Y-7672058D01*
X15167387Y-7122000D01*
X15146044Y-7014701D01*
X15085264Y-6923736D01*
X14994299Y-6862956D01*
X14887000Y-6841613D01*
X14137000Y-6841613D01*
X14029701Y-6862956D01*
X13938736Y-6923736D01*
X13877956Y-7014701D01*
X13856613Y-7122000D01*
X13856613Y-7155644D01*
X13790683Y-7168758D01*
X13755483Y-7192278D01*
X13697949Y-7230721D01*
X13697948Y-7230722D01*
X13666641Y-7251641D01*
X13645722Y-7282948D01*
X12965670Y-7963001D01*
X12956387Y-7963001D01*
X12956387Y-7538000D01*
X12935044Y-7430701D01*
X12874264Y-7339736D01*
X12783299Y-7278956D01*
X12676000Y-7257613D01*
X12225942Y-7257613D01*
X12152074Y-7183745D01*
X12273327Y-7133520D01*
X12553225Y-6853622D01*
X12704705Y-6487918D01*
X12704705Y-6092082D01*
X12626575Y-5903460D01*
X13030895Y-5499140D01*
X13065889Y-5583622D01*
X13345787Y-5863520D01*
X13711491Y-6015000D01*
X14107327Y-6015000D01*
X14473031Y-5863520D01*
X14752929Y-5583622D01*
X14904409Y-5217918D01*
X14904409Y-4822082D01*
X14752929Y-4456378D01*
X14473031Y-4176480D01*
X14107327Y-4025000D01*
X13711491Y-4025000D01*
X13345787Y-4176480D01*
X13065889Y-4456378D01*
X12989957Y-4639694D01*
X12979704Y-4637655D01*
X12942778Y-4645000D01*
X12942774Y-4645000D01*
X12833388Y-4666758D01*
X12833387Y-4666759D01*
X12833386Y-4666759D01*
X12740653Y-4728721D01*
X12740650Y-4728724D01*
X12709346Y-4749641D01*
X12688429Y-4780945D01*
X12096245Y-5373130D01*
X11907623Y-5295000D01*
X11511787Y-5295000D01*
X11146083Y-5446480D01*
X10866185Y-5726378D01*
X10714705Y-6092082D01*
X10714705Y-6487918D01*
X10866185Y-6853622D01*
X11146083Y-7133520D01*
X11334706Y-7211650D01*
X11334706Y-7234774D01*
X11327360Y-7271705D01*
X11356464Y-7418023D01*
X11418426Y-7510755D01*
X11418428Y-7510757D01*
X11439347Y-7542064D01*
X11470653Y-7562982D01*
X11495613Y-7587942D01*
X11495613Y-7963001D01*
X10443331Y-7963001D01*
X10426870Y-7946540D01*
X10505000Y-7757918D01*
X10505000Y-7362082D01*
X10353520Y-6996378D01*
X10073622Y-6716480D01*
X9707918Y-6565000D01*
X9312082Y-6565000D01*
X8946378Y-6716480D01*
X8666480Y-6996378D01*
X8515000Y-7362082D01*
X8515000Y-7757918D01*
X8666480Y-8123622D01*
X8946378Y-8403520D01*
X9312082Y-8555000D01*
X9707918Y-8555000D01*
X9896540Y-8476870D01*
X9996723Y-8577053D01*
X10017642Y-8608360D01*
X10048949Y-8629279D01*
X10048950Y-8629280D01*
X10101893Y-8664655D01*
X10141684Y-8691243D01*
X10251070Y-8713001D01*
X10251075Y-8713001D01*
X10288001Y-8720346D01*
X10324927Y-8713001D01*
X13084073Y-8713001D01*
X13120999Y-8720346D01*
X13157925Y-8713001D01*
X13157930Y-8713001D01*
X13267316Y-8691243D01*
X13391358Y-8608360D01*
X13412278Y-8577051D01*
X13910830Y-8078499D01*
X13938736Y-8120264D01*
X14029701Y-8181044D01*
X14137000Y-8202387D01*
X14637058Y-8202387D01*
X14776284Y-8341613D01*
X14137000Y-8341613D01*
X14029701Y-8362956D01*
X13938736Y-8423736D01*
X13877956Y-8514701D01*
X13856613Y-8622000D01*
X13856613Y-8913000D01*
X12923217Y-8913000D01*
X12874264Y-8839736D01*
X12783299Y-8778956D01*
X12676000Y-8757613D01*
X11776000Y-8757613D01*
X11668701Y-8778956D01*
X11577736Y-8839736D01*
X11516956Y-8930701D01*
X11495613Y-9038000D01*
X11495613Y-9538000D01*
X11516956Y-9645299D01*
X11577736Y-9736264D01*
X11647598Y-9782944D01*
X9569634Y-9786350D01*
X7978292Y-7055646D01*
X13030870Y-3962460D01*
X14077357Y-3331245D01*
X14500654Y-3966190D01*
G04 #@! TO.N,GND_O*
G36*
X21229694Y-1137542D02*
X22966879Y-1315530D01*
X24681365Y-1647240D01*
X26359576Y-2130045D01*
X27988225Y-2760122D01*
X28261731Y-2895000D01*
X27309323Y-2895000D01*
X25848343Y-3500158D01*
X24730158Y-4618343D01*
X24291730Y-5676801D01*
X21970016Y-5682108D01*
X22181080Y-5541080D01*
X22429727Y-5168953D01*
X22517040Y-4730000D01*
X22429727Y-4291047D01*
X22181080Y-3918920D01*
X21808953Y-3670273D01*
X21480803Y-3605000D01*
X21259197Y-3605000D01*
X20931047Y-3670273D01*
X20558920Y-3918920D01*
X20310273Y-4291047D01*
X20222960Y-4730000D01*
X20310273Y-5168953D01*
X20558920Y-5541080D01*
X20774075Y-5684842D01*
X19939153Y-5686750D01*
X19960387Y-5580000D01*
X19960387Y-3880000D01*
X19939044Y-3772701D01*
X19878264Y-3681736D01*
X19787299Y-3620956D01*
X19680000Y-3599613D01*
X17980000Y-3599613D01*
X17872701Y-3620956D01*
X17781736Y-3681736D01*
X17720956Y-3772701D01*
X17699613Y-3880000D01*
X17699613Y-5580000D01*
X17720956Y-5687299D01*
X17723972Y-5691813D01*
X16370999Y-5694906D01*
X14423182Y-2649588D01*
X14413033Y-2636967D01*
X14361639Y-2585573D01*
X14337082Y-2536459D01*
X14326659Y-2520860D01*
X14303541Y-2502918D01*
X14275317Y-2495189D01*
X14246283Y-2498849D01*
X14186283Y-2518849D01*
X14174268Y-2524059D01*
X14112849Y-2557341D01*
X14112800Y-2557338D01*
X14085173Y-2566988D01*
X7075173Y-6696988D01*
X7053189Y-6716680D01*
X7040568Y-6743082D01*
X7039011Y-6772304D01*
X7048755Y-6799897D01*
X7200606Y-7055646D01*
X9138755Y-10319897D01*
X9141187Y-10323005D01*
X9141626Y-10323744D01*
X9153442Y-10338844D01*
X9169613Y-10349492D01*
X9169613Y-16680000D01*
X9190956Y-16787299D01*
X9251736Y-16878264D01*
X9342701Y-16939044D01*
X9450000Y-16960387D01*
X15041613Y-16960387D01*
X15038051Y-18399613D01*
X14030000Y-18399613D01*
X13922701Y-18420956D01*
X13831736Y-18481736D01*
X13770956Y-18572701D01*
X13749613Y-18680000D01*
X13749613Y-19244792D01*
X13656868Y-19263240D01*
X13545155Y-19285461D01*
X13371496Y-19401496D01*
X13342205Y-19445333D01*
X13087925Y-19699613D01*
X12850000Y-19699613D01*
X12742701Y-19720956D01*
X12651736Y-19781736D01*
X12590956Y-19872701D01*
X12569613Y-19980000D01*
X12569613Y-20217925D01*
X12433000Y-20354538D01*
X12433000Y-20250998D01*
X12287252Y-20250998D01*
X12433000Y-20105250D01*
X12433000Y-19864034D01*
X12344244Y-19649757D01*
X12180243Y-19485756D01*
X11965966Y-19397000D01*
X11870750Y-19397000D01*
X11725000Y-19542750D01*
X11725000Y-20251000D01*
X11799000Y-20251000D01*
X11799000Y-20609000D01*
X11725000Y-20609000D01*
X11725000Y-20629000D01*
X11475000Y-20629000D01*
X11475000Y-20609000D01*
X11401000Y-20609000D01*
X11401000Y-20251000D01*
X11475000Y-20251000D01*
X11475000Y-19542750D01*
X11329250Y-19397000D01*
X11253000Y-19397000D01*
X11253000Y-18564034D01*
X11164244Y-18349757D01*
X11000243Y-18185756D01*
X10785966Y-18097000D01*
X10394750Y-18097000D01*
X10249000Y-18242750D01*
X10249000Y-19601000D01*
X10269000Y-19601000D01*
X10269000Y-19959000D01*
X10249000Y-19959000D01*
X10249000Y-21317250D01*
X10394750Y-21463000D01*
X10537192Y-21463000D01*
X10471736Y-21506736D01*
X10410956Y-21597701D01*
X10389613Y-21705000D01*
X10389613Y-22355000D01*
X10410956Y-22462299D01*
X10439487Y-22505000D01*
X10410956Y-22547701D01*
X10389613Y-22655000D01*
X10389613Y-22993734D01*
X10386881Y-22980000D01*
X10363891Y-22864419D01*
X10264432Y-22715568D01*
X10228465Y-22691536D01*
X10204432Y-22655568D01*
X10072931Y-22567702D01*
X10113000Y-22470966D01*
X10113000Y-22338250D01*
X9967250Y-22192500D01*
X9179000Y-22192500D01*
X9179000Y-22229000D01*
X8821000Y-22229000D01*
X8821000Y-22192500D01*
X8032750Y-22192500D01*
X7887000Y-22338250D01*
X7887000Y-22470966D01*
X7975756Y-22685243D01*
X8139757Y-22849244D01*
X8189613Y-22869895D01*
X8189613Y-23305000D01*
X8210956Y-23412299D01*
X8239487Y-23455000D01*
X8210956Y-23497701D01*
X8189613Y-23605000D01*
X8189613Y-24138246D01*
X8117644Y-24168057D01*
X7927764Y-24357937D01*
X7825001Y-24606028D01*
X7825001Y-24874560D01*
X7927764Y-25122651D01*
X8117644Y-25312531D01*
X8365735Y-25415294D01*
X8634267Y-25415294D01*
X8882358Y-25312531D01*
X9072238Y-25122651D01*
X9175001Y-24874560D01*
X9175001Y-24807756D01*
X9334667Y-24648090D01*
X9378504Y-24618799D01*
X9434238Y-24535387D01*
X9490001Y-24535387D01*
X9490001Y-25485675D01*
X9490000Y-25485680D01*
X9490000Y-25599613D01*
X9382701Y-25620956D01*
X9291736Y-25681736D01*
X9230956Y-25772701D01*
X9209613Y-25880000D01*
X9209613Y-26380000D01*
X9230956Y-26487299D01*
X9263565Y-26536103D01*
X8950947Y-26848722D01*
X8919641Y-26869640D01*
X8898722Y-26900947D01*
X8898720Y-26900949D01*
X8836758Y-26993681D01*
X8807654Y-27139999D01*
X8815000Y-27176930D01*
X8814999Y-28803072D01*
X8807654Y-28839999D01*
X8814999Y-28876925D01*
X8814999Y-28876929D01*
X8836757Y-28986315D01*
X8919640Y-29110358D01*
X8950950Y-29131279D01*
X11558722Y-31739052D01*
X11579641Y-31770359D01*
X11610948Y-31791278D01*
X11703681Y-31853241D01*
X11703682Y-31853241D01*
X11703683Y-31853242D01*
X11769613Y-31866356D01*
X11769613Y-31900000D01*
X11790956Y-32007299D01*
X11851736Y-32098264D01*
X11942701Y-32159044D01*
X12050000Y-32180387D01*
X12850000Y-32180387D01*
X12957299Y-32159044D01*
X13048264Y-32098264D01*
X13109044Y-32007299D01*
X13130387Y-31900000D01*
X13130387Y-31100000D01*
X13109044Y-30992701D01*
X13048264Y-30901736D01*
X12957299Y-30840956D01*
X12850000Y-30819613D01*
X12050000Y-30819613D01*
X11942701Y-30840956D01*
X11851736Y-30901736D01*
X11823830Y-30943500D01*
X9564999Y-28684670D01*
X9564999Y-28478750D01*
X9615568Y-28554432D01*
X9653145Y-28579540D01*
X10365463Y-29291860D01*
X10390568Y-29329432D01*
X10428139Y-29354536D01*
X10428141Y-29354538D01*
X10539418Y-29428891D01*
X10715000Y-29463816D01*
X10759322Y-29455000D01*
X12969613Y-29455000D01*
X12969613Y-30580000D01*
X12990956Y-30687299D01*
X13051736Y-30778264D01*
X13142701Y-30839044D01*
X13250000Y-30860387D01*
X13513620Y-30860387D01*
X13451736Y-30901736D01*
X13390956Y-30992701D01*
X13369613Y-31100000D01*
X13369613Y-31900000D01*
X13390956Y-32007299D01*
X13451736Y-32098264D01*
X13542701Y-32159044D01*
X13650000Y-32180387D01*
X14450000Y-32180387D01*
X14557299Y-32159044D01*
X14648264Y-32098264D01*
X14709044Y-32007299D01*
X14730387Y-31900000D01*
X14730387Y-31875000D01*
X14969613Y-31875000D01*
X14969613Y-31950000D01*
X14990956Y-32057299D01*
X15051736Y-32148264D01*
X15142701Y-32209044D01*
X15250000Y-32230387D01*
X15750000Y-32230387D01*
X15857299Y-32209044D01*
X15948264Y-32148264D01*
X16009044Y-32057299D01*
X16030387Y-31950000D01*
X16030387Y-31050000D01*
X16009044Y-30942701D01*
X15954044Y-30860387D01*
X16545956Y-30860387D01*
X16490956Y-30942701D01*
X16469613Y-31050000D01*
X16469613Y-31950000D01*
X16485253Y-32028627D01*
X16419757Y-32055756D01*
X16255756Y-32219757D01*
X16167000Y-32434034D01*
X16167000Y-32675250D01*
X16312750Y-32821000D01*
X16875000Y-32821000D01*
X16875000Y-32801000D01*
X17125000Y-32801000D01*
X17125000Y-32821000D01*
X17687250Y-32821000D01*
X17833000Y-32675250D01*
X17833000Y-32434034D01*
X17744244Y-32219757D01*
X17580243Y-32055756D01*
X17514747Y-32028627D01*
X17530387Y-31950000D01*
X17530387Y-31247721D01*
X17540000Y-31199394D01*
X17540000Y-31199393D01*
X17547836Y-31160000D01*
X17540000Y-31120606D01*
X17540000Y-22501360D01*
X18049613Y-22503090D01*
X18049613Y-25530000D01*
X18070956Y-25637299D01*
X18131736Y-25728264D01*
X18222701Y-25789044D01*
X18330000Y-25810387D01*
X19330000Y-25810387D01*
X19437299Y-25789044D01*
X19528264Y-25728264D01*
X19589044Y-25637299D01*
X19610387Y-25530000D01*
X19610387Y-22508389D01*
X20589613Y-22511713D01*
X20589613Y-25530000D01*
X20610956Y-25637299D01*
X20671736Y-25728264D01*
X20762701Y-25789044D01*
X20870000Y-25810387D01*
X21870000Y-25810387D01*
X21977299Y-25789044D01*
X22068264Y-25728264D01*
X22129044Y-25637299D01*
X22150387Y-25530000D01*
X22150387Y-22517011D01*
X22315000Y-22517570D01*
X22315001Y-27144669D01*
X22130359Y-27329312D01*
X22129044Y-27322701D01*
X22068264Y-27231736D01*
X21977299Y-27170956D01*
X21870000Y-27149613D01*
X20870000Y-27149613D01*
X20762701Y-27170956D01*
X20671736Y-27231736D01*
X20610956Y-27322701D01*
X20589613Y-27430000D01*
X20589613Y-30505001D01*
X19785332Y-30505001D01*
X19610387Y-30330057D01*
X19610387Y-27430000D01*
X19589044Y-27322701D01*
X19528264Y-27231736D01*
X19437299Y-27170956D01*
X19330000Y-27149613D01*
X18330000Y-27149613D01*
X18222701Y-27170956D01*
X18131736Y-27231736D01*
X18070956Y-27322701D01*
X18049613Y-27430000D01*
X18049613Y-30580000D01*
X18070956Y-30687299D01*
X18131736Y-30778264D01*
X18222701Y-30839044D01*
X18330000Y-30860387D01*
X19080057Y-30860387D01*
X19338725Y-31119056D01*
X19359642Y-31150360D01*
X19390946Y-31171277D01*
X19390949Y-31171280D01*
X19483682Y-31233242D01*
X19483683Y-31233242D01*
X19483684Y-31233243D01*
X19593070Y-31255001D01*
X19593074Y-31255001D01*
X19630000Y-31262346D01*
X19666926Y-31255001D01*
X22643073Y-31255001D01*
X22679999Y-31262346D01*
X22716925Y-31255001D01*
X22716930Y-31255001D01*
X22826316Y-31233243D01*
X22950358Y-31150360D01*
X22971278Y-31119051D01*
X23047921Y-31042408D01*
X23079757Y-31074244D01*
X23294034Y-31163000D01*
X23585250Y-31163000D01*
X23731000Y-31017250D01*
X23731000Y-29184000D01*
X24089000Y-29184000D01*
X24089000Y-31017250D01*
X24234750Y-31163000D01*
X24525966Y-31163000D01*
X24740243Y-31074244D01*
X24904244Y-30910243D01*
X24993000Y-30695966D01*
X24993000Y-29329750D01*
X24847250Y-29184000D01*
X24089000Y-29184000D01*
X23731000Y-29184000D01*
X23711000Y-29184000D01*
X23711000Y-28826000D01*
X23731000Y-28826000D01*
X23731000Y-26992750D01*
X24089000Y-26992750D01*
X24089000Y-28826000D01*
X24847250Y-28826000D01*
X24993000Y-28680250D01*
X24993000Y-27314034D01*
X24904244Y-27099757D01*
X24740243Y-26935756D01*
X24525966Y-26847000D01*
X24234750Y-26847000D01*
X24089000Y-26992750D01*
X23731000Y-26992750D01*
X23585250Y-26847000D01*
X23475000Y-26847000D01*
X23475000Y-25810387D01*
X24410000Y-25810387D01*
X24517299Y-25789044D01*
X24608264Y-25728264D01*
X24669044Y-25637299D01*
X24690387Y-25530000D01*
X24690387Y-22525633D01*
X25669613Y-22528957D01*
X25669613Y-25530000D01*
X25690956Y-25637299D01*
X25751736Y-25728264D01*
X25842701Y-25789044D01*
X25857652Y-25792018D01*
X25333883Y-26315788D01*
X25302577Y-26336706D01*
X25281658Y-26368013D01*
X25281656Y-26368015D01*
X25219694Y-26460747D01*
X25190590Y-26607065D01*
X25197936Y-26643996D01*
X25197935Y-30841735D01*
X23584671Y-32455000D01*
X19776926Y-32455000D01*
X19740000Y-32447655D01*
X19703073Y-32455000D01*
X19703069Y-32455000D01*
X19593683Y-32476758D01*
X19593682Y-32476759D01*
X19593681Y-32476759D01*
X19500949Y-32538721D01*
X19500948Y-32538722D01*
X19469641Y-32559641D01*
X19448722Y-32590948D01*
X17718673Y-34320998D01*
X17687252Y-34320998D01*
X17833000Y-34175250D01*
X17833000Y-33934034D01*
X17756771Y-33750000D01*
X17833000Y-33565966D01*
X17833000Y-33324750D01*
X17687250Y-33179000D01*
X17125000Y-33179000D01*
X17125000Y-34321000D01*
X17199000Y-34321000D01*
X17199000Y-34679000D01*
X17125000Y-34679000D01*
X17125000Y-35821000D01*
X17199000Y-35821000D01*
X17199000Y-36179000D01*
X17125000Y-36179000D01*
X17125000Y-36199000D01*
X16875000Y-36199000D01*
X16875000Y-36179000D01*
X16312750Y-36179000D01*
X16167000Y-36324750D01*
X16167000Y-36375001D01*
X16030387Y-36375001D01*
X16030387Y-35550000D01*
X16009044Y-35442701D01*
X15948264Y-35351736D01*
X15857299Y-35290956D01*
X15750000Y-35269613D01*
X15250000Y-35269613D01*
X15142701Y-35290956D01*
X15051736Y-35351736D01*
X14990956Y-35442701D01*
X14969613Y-35550000D01*
X14969613Y-35625000D01*
X14730387Y-35625000D01*
X14730387Y-35600000D01*
X14709044Y-35492701D01*
X14648264Y-35401736D01*
X14557299Y-35340956D01*
X14450000Y-35319613D01*
X13724999Y-35319613D01*
X13724999Y-35180387D01*
X14450000Y-35180387D01*
X14557299Y-35159044D01*
X14648264Y-35098264D01*
X14709044Y-35007299D01*
X14730387Y-34900000D01*
X14730387Y-34875000D01*
X14969613Y-34875000D01*
X14969613Y-34950000D01*
X14990956Y-35057299D01*
X15051736Y-35148264D01*
X15142701Y-35209044D01*
X15250000Y-35230387D01*
X15750000Y-35230387D01*
X15857299Y-35209044D01*
X15948264Y-35148264D01*
X16009044Y-35057299D01*
X16030387Y-34950000D01*
X16030387Y-34824750D01*
X16167000Y-34824750D01*
X16167000Y-35065966D01*
X16243229Y-35250000D01*
X16167000Y-35434034D01*
X16167000Y-35675250D01*
X16312750Y-35821000D01*
X16875000Y-35821000D01*
X16875000Y-34679000D01*
X16312750Y-34679000D01*
X16167000Y-34824750D01*
X16030387Y-34824750D01*
X16030387Y-34050000D01*
X16009044Y-33942701D01*
X15948264Y-33851736D01*
X15857299Y-33790956D01*
X15750000Y-33769613D01*
X15250000Y-33769613D01*
X15142701Y-33790956D01*
X15051736Y-33851736D01*
X14990956Y-33942701D01*
X14969613Y-34050000D01*
X14969613Y-34125000D01*
X14730387Y-34125000D01*
X14730387Y-34100000D01*
X14709044Y-33992701D01*
X14648264Y-33901736D01*
X14557299Y-33840956D01*
X14450000Y-33819613D01*
X13650000Y-33819613D01*
X13542701Y-33840956D01*
X13451736Y-33901736D01*
X13390956Y-33992701D01*
X13369613Y-34100000D01*
X13369613Y-34289284D01*
X13341279Y-34260950D01*
X13320359Y-34229641D01*
X13196317Y-34146758D01*
X13130387Y-34133644D01*
X13130387Y-34100000D01*
X13109044Y-33992701D01*
X13048264Y-33901736D01*
X12957299Y-33840956D01*
X12850000Y-33819613D01*
X12050000Y-33819613D01*
X11942701Y-33840956D01*
X11851736Y-33901736D01*
X11790956Y-33992701D01*
X11769613Y-34100000D01*
X11769613Y-34900000D01*
X11790956Y-35007299D01*
X11851736Y-35098264D01*
X11942701Y-35159044D01*
X12050000Y-35180387D01*
X12850000Y-35180387D01*
X12957299Y-35159044D01*
X12974999Y-35147217D01*
X12974999Y-35352783D01*
X12957299Y-35340956D01*
X12850000Y-35319613D01*
X12050000Y-35319613D01*
X11942701Y-35340956D01*
X11851736Y-35401736D01*
X11790956Y-35492701D01*
X11769613Y-35600000D01*
X11769613Y-36400000D01*
X11790956Y-36507299D01*
X11851736Y-36598264D01*
X11942701Y-36659044D01*
X12050000Y-36680387D01*
X12075000Y-36680387D01*
X12075001Y-37442273D01*
X11865734Y-37442273D01*
X11617643Y-37545036D01*
X11427763Y-37734916D01*
X11325000Y-37983007D01*
X11325000Y-38251539D01*
X11333052Y-38270978D01*
X10198645Y-37674138D01*
X8731607Y-36726883D01*
X7354582Y-35652967D01*
X6078474Y-34460893D01*
X4913386Y-33160100D01*
X4495140Y-32600000D01*
X11769613Y-32600000D01*
X11769613Y-33400000D01*
X11790956Y-33507299D01*
X11851736Y-33598264D01*
X11942701Y-33659044D01*
X12050000Y-33680387D01*
X12850000Y-33680387D01*
X12877082Y-33675000D01*
X12984266Y-33675000D01*
X13232357Y-33572237D01*
X13375417Y-33429177D01*
X13390956Y-33507299D01*
X13451736Y-33598264D01*
X13542701Y-33659044D01*
X13650000Y-33680387D01*
X14450000Y-33680387D01*
X14557299Y-33659044D01*
X14648264Y-33598264D01*
X14709044Y-33507299D01*
X14730387Y-33400000D01*
X14730387Y-33375000D01*
X14969613Y-33375000D01*
X14969613Y-33450000D01*
X14990956Y-33557299D01*
X15051736Y-33648264D01*
X15142701Y-33709044D01*
X15250000Y-33730387D01*
X15750000Y-33730387D01*
X15857299Y-33709044D01*
X15948264Y-33648264D01*
X16009044Y-33557299D01*
X16030387Y-33450000D01*
X16030387Y-33324750D01*
X16167000Y-33324750D01*
X16167000Y-33565966D01*
X16243229Y-33750000D01*
X16167000Y-33934034D01*
X16167000Y-34175250D01*
X16312750Y-34321000D01*
X16875000Y-34321000D01*
X16875000Y-33179000D01*
X16312750Y-33179000D01*
X16167000Y-33324750D01*
X16030387Y-33324750D01*
X16030387Y-32550000D01*
X16009044Y-32442701D01*
X15948264Y-32351736D01*
X15857299Y-32290956D01*
X15750000Y-32269613D01*
X15250000Y-32269613D01*
X15142701Y-32290956D01*
X15051736Y-32351736D01*
X14990956Y-32442701D01*
X14969613Y-32550000D01*
X14969613Y-32625000D01*
X14730387Y-32625000D01*
X14730387Y-32600000D01*
X14709044Y-32492701D01*
X14648264Y-32401736D01*
X14557299Y-32340956D01*
X14450000Y-32319613D01*
X13650000Y-32319613D01*
X13542701Y-32340956D01*
X13451736Y-32401736D01*
X13390956Y-32492701D01*
X13375417Y-32570823D01*
X13232357Y-32427763D01*
X12984266Y-32325000D01*
X12877082Y-32325000D01*
X12850000Y-32319613D01*
X12050000Y-32319613D01*
X11942701Y-32340956D01*
X11851736Y-32401736D01*
X11790956Y-32492701D01*
X11769613Y-32600000D01*
X4495140Y-32600000D01*
X3868544Y-31760886D01*
X2952220Y-30274332D01*
X2593028Y-29555476D01*
X5440890Y-29555476D01*
X5476056Y-29659071D01*
X6326056Y-31131315D01*
X6398189Y-31213568D01*
X6496308Y-31261955D01*
X6605476Y-31269110D01*
X6709071Y-31233944D01*
X8181315Y-30383944D01*
X8263568Y-30311811D01*
X8311955Y-30213692D01*
X8319110Y-30104524D01*
X8283944Y-30000929D01*
X7433944Y-28528685D01*
X7361811Y-28446432D01*
X7263692Y-28398045D01*
X7154524Y-28390890D01*
X7050929Y-28426056D01*
X5578685Y-29276056D01*
X5496432Y-29348189D01*
X5448045Y-29446308D01*
X5440890Y-29555476D01*
X2593028Y-29555476D01*
X2171670Y-28712207D01*
X1746585Y-27630295D01*
X4462960Y-27630295D01*
X4550273Y-28069248D01*
X4798920Y-28441375D01*
X5171047Y-28690022D01*
X5499197Y-28755295D01*
X5720803Y-28755295D01*
X6048953Y-28690022D01*
X6421080Y-28441375D01*
X6669727Y-28069248D01*
X6757040Y-27630295D01*
X6669727Y-27191342D01*
X6421080Y-26819215D01*
X6048953Y-26570568D01*
X5720803Y-26505295D01*
X5499197Y-26505295D01*
X5171047Y-26570568D01*
X4798920Y-26819215D01*
X4550273Y-27191342D01*
X4462960Y-27630295D01*
X1746585Y-27630295D01*
X1533075Y-27086879D01*
X1041490Y-25411219D01*
X700807Y-23698494D01*
X586089Y-22633844D01*
X730158Y-22981657D01*
X1848343Y-24099842D01*
X3309323Y-24705000D01*
X4890677Y-24705000D01*
X6351657Y-24099842D01*
X7469842Y-22981657D01*
X7961043Y-21795793D01*
X8032750Y-21867500D01*
X8821000Y-21867500D01*
X8821000Y-21831000D01*
X9179000Y-21831000D01*
X9179000Y-21867500D01*
X9967250Y-21867500D01*
X10113000Y-21721750D01*
X10113000Y-21589034D01*
X10024244Y-21374757D01*
X9891000Y-21241513D01*
X9891000Y-19959000D01*
X9032750Y-19959000D01*
X8887000Y-20104750D01*
X8887000Y-20995966D01*
X8939205Y-21122000D01*
X8820998Y-21122000D01*
X8820998Y-21267748D01*
X8675250Y-21122000D01*
X8354034Y-21122000D01*
X8139757Y-21210756D01*
X8075000Y-21275513D01*
X8075000Y-19939323D01*
X7505337Y-18564034D01*
X8887000Y-18564034D01*
X8887000Y-19455250D01*
X9032750Y-19601000D01*
X9891000Y-19601000D01*
X9891000Y-18242750D01*
X9745250Y-18097000D01*
X9354034Y-18097000D01*
X9139757Y-18185756D01*
X8975756Y-18349757D01*
X8887000Y-18564034D01*
X7505337Y-18564034D01*
X7469842Y-18478343D01*
X6351657Y-17360158D01*
X4890677Y-16755000D01*
X3309323Y-16755000D01*
X1848343Y-17360158D01*
X730158Y-18478343D01*
X578926Y-18843449D01*
X605059Y-18474358D01*
X882752Y-16750299D01*
X1312605Y-15057751D01*
X1757214Y-13791689D01*
X2024999Y-13791689D01*
X2024999Y-14060221D01*
X2127762Y-14308312D01*
X2317642Y-14498192D01*
X2565733Y-14600955D01*
X2834265Y-14600955D01*
X3082356Y-14498192D01*
X3272236Y-14308312D01*
X3344024Y-14135000D01*
X4578553Y-14135000D01*
X5272820Y-14535835D01*
X5376415Y-14571001D01*
X5485583Y-14563846D01*
X5583702Y-14515459D01*
X5591661Y-14506383D01*
X5599818Y-14547390D01*
X5771108Y-14803744D01*
X6027462Y-14975034D01*
X6253522Y-15020000D01*
X6406182Y-15020000D01*
X6632242Y-14975034D01*
X6888596Y-14803744D01*
X7059886Y-14547390D01*
X7120035Y-14245000D01*
X7059886Y-13942610D01*
X7044444Y-13919499D01*
X7267242Y-13875182D01*
X7523596Y-13703892D01*
X7694886Y-13447538D01*
X7755035Y-13145148D01*
X7747670Y-13108123D01*
X7806751Y-13108367D01*
X8197822Y-12948269D01*
X8317277Y-12856585D01*
X8307094Y-12660313D01*
X7665371Y-12289814D01*
X7655371Y-12307134D01*
X7345333Y-12128134D01*
X7355333Y-12110814D01*
X7207242Y-12025314D01*
X7207242Y-12025313D01*
X7128370Y-11979776D01*
X7844371Y-11979776D01*
X8486094Y-12350275D01*
X8661162Y-12260958D01*
X8680835Y-12111665D01*
X8623949Y-11692939D01*
X8411154Y-11327855D01*
X8216058Y-11335996D01*
X7844371Y-11979776D01*
X7128370Y-11979776D01*
X6565519Y-11654814D01*
X6555519Y-11672134D01*
X6245481Y-11493134D01*
X6255481Y-11475814D01*
X6028517Y-11344776D01*
X6744519Y-11344776D01*
X6892610Y-11430276D01*
X6892610Y-11430277D01*
X7534333Y-11800776D01*
X7906020Y-11156996D01*
X7815522Y-10983967D01*
X7480175Y-10982583D01*
X7311302Y-10692855D01*
X7116206Y-10700996D01*
X6744519Y-11344776D01*
X6028517Y-11344776D01*
X5613758Y-11105315D01*
X5438690Y-11194632D01*
X5419017Y-11343925D01*
X5475903Y-11762651D01*
X5507532Y-11816916D01*
X5306256Y-11951404D01*
X5134966Y-12207758D01*
X5074817Y-12510148D01*
X5103801Y-12655862D01*
X5083585Y-12648999D01*
X4974417Y-12656154D01*
X4876298Y-12704541D01*
X4804165Y-12786794D01*
X4631996Y-13085000D01*
X3067660Y-13085000D01*
X3015954Y-13074715D01*
X2811109Y-13115461D01*
X2637450Y-13231496D01*
X2624448Y-13250955D01*
X2565733Y-13250955D01*
X2317642Y-13353718D01*
X2127762Y-13543598D01*
X2024999Y-13791689D01*
X1757214Y-13791689D01*
X1891214Y-13410115D01*
X2613997Y-11820436D01*
X3306457Y-10599005D01*
X5782575Y-10599005D01*
X5792758Y-10795277D01*
X6434481Y-11165776D01*
X6806168Y-10521996D01*
X6715670Y-10348967D01*
X6293101Y-10347223D01*
X5902030Y-10507321D01*
X5782575Y-10599005D01*
X3306457Y-10599005D01*
X3475232Y-10301303D01*
X4468100Y-8864742D01*
X5584740Y-7522129D01*
X6816309Y-6284095D01*
X8153057Y-5160441D01*
X9584399Y-4160064D01*
X11099002Y-3290887D01*
X12684875Y-2559790D01*
X14329459Y-1972562D01*
X16019733Y-1533853D01*
X17742315Y-1247137D01*
X19483564Y-1114684D01*
X21229694Y-1137542D01*
X21229694Y-1137542D01*
G37*
X21229694Y-1137542D02*
X22966879Y-1315530D01*
X24681365Y-1647240D01*
X26359576Y-2130045D01*
X27988225Y-2760122D01*
X28261731Y-2895000D01*
X27309323Y-2895000D01*
X25848343Y-3500158D01*
X24730158Y-4618343D01*
X24291730Y-5676801D01*
X21970016Y-5682108D01*
X22181080Y-5541080D01*
X22429727Y-5168953D01*
X22517040Y-4730000D01*
X22429727Y-4291047D01*
X22181080Y-3918920D01*
X21808953Y-3670273D01*
X21480803Y-3605000D01*
X21259197Y-3605000D01*
X20931047Y-3670273D01*
X20558920Y-3918920D01*
X20310273Y-4291047D01*
X20222960Y-4730000D01*
X20310273Y-5168953D01*
X20558920Y-5541080D01*
X20774075Y-5684842D01*
X19939153Y-5686750D01*
X19960387Y-5580000D01*
X19960387Y-3880000D01*
X19939044Y-3772701D01*
X19878264Y-3681736D01*
X19787299Y-3620956D01*
X19680000Y-3599613D01*
X17980000Y-3599613D01*
X17872701Y-3620956D01*
X17781736Y-3681736D01*
X17720956Y-3772701D01*
X17699613Y-3880000D01*
X17699613Y-5580000D01*
X17720956Y-5687299D01*
X17723972Y-5691813D01*
X16370999Y-5694906D01*
X14423182Y-2649588D01*
X14413033Y-2636967D01*
X14361639Y-2585573D01*
X14337082Y-2536459D01*
X14326659Y-2520860D01*
X14303541Y-2502918D01*
X14275317Y-2495189D01*
X14246283Y-2498849D01*
X14186283Y-2518849D01*
X14174268Y-2524059D01*
X14112849Y-2557341D01*
X14112800Y-2557338D01*
X14085173Y-2566988D01*
X7075173Y-6696988D01*
X7053189Y-6716680D01*
X7040568Y-6743082D01*
X7039011Y-6772304D01*
X7048755Y-6799897D01*
X7200606Y-7055646D01*
X9138755Y-10319897D01*
X9141187Y-10323005D01*
X9141626Y-10323744D01*
X9153442Y-10338844D01*
X9169613Y-10349492D01*
X9169613Y-16680000D01*
X9190956Y-16787299D01*
X9251736Y-16878264D01*
X9342701Y-16939044D01*
X9450000Y-16960387D01*
X15041613Y-16960387D01*
X15038051Y-18399613D01*
X14030000Y-18399613D01*
X13922701Y-18420956D01*
X13831736Y-18481736D01*
X13770956Y-18572701D01*
X13749613Y-18680000D01*
X13749613Y-19244792D01*
X13656868Y-19263240D01*
X13545155Y-19285461D01*
X13371496Y-19401496D01*
X13342205Y-19445333D01*
X13087925Y-19699613D01*
X12850000Y-19699613D01*
X12742701Y-19720956D01*
X12651736Y-19781736D01*
X12590956Y-19872701D01*
X12569613Y-19980000D01*
X12569613Y-20217925D01*
X12433000Y-20354538D01*
X12433000Y-20250998D01*
X12287252Y-20250998D01*
X12433000Y-20105250D01*
X12433000Y-19864034D01*
X12344244Y-19649757D01*
X12180243Y-19485756D01*
X11965966Y-19397000D01*
X11870750Y-19397000D01*
X11725000Y-19542750D01*
X11725000Y-20251000D01*
X11799000Y-20251000D01*
X11799000Y-20609000D01*
X11725000Y-20609000D01*
X11725000Y-20629000D01*
X11475000Y-20629000D01*
X11475000Y-20609000D01*
X11401000Y-20609000D01*
X11401000Y-20251000D01*
X11475000Y-20251000D01*
X11475000Y-19542750D01*
X11329250Y-19397000D01*
X11253000Y-19397000D01*
X11253000Y-18564034D01*
X11164244Y-18349757D01*
X11000243Y-18185756D01*
X10785966Y-18097000D01*
X10394750Y-18097000D01*
X10249000Y-18242750D01*
X10249000Y-19601000D01*
X10269000Y-19601000D01*
X10269000Y-19959000D01*
X10249000Y-19959000D01*
X10249000Y-21317250D01*
X10394750Y-21463000D01*
X10537192Y-21463000D01*
X10471736Y-21506736D01*
X10410956Y-21597701D01*
X10389613Y-21705000D01*
X10389613Y-22355000D01*
X10410956Y-22462299D01*
X10439487Y-22505000D01*
X10410956Y-22547701D01*
X10389613Y-22655000D01*
X10389613Y-22993734D01*
X10386881Y-22980000D01*
X10363891Y-22864419D01*
X10264432Y-22715568D01*
X10228465Y-22691536D01*
X10204432Y-22655568D01*
X10072931Y-22567702D01*
X10113000Y-22470966D01*
X10113000Y-22338250D01*
X9967250Y-22192500D01*
X9179000Y-22192500D01*
X9179000Y-22229000D01*
X8821000Y-22229000D01*
X8821000Y-22192500D01*
X8032750Y-22192500D01*
X7887000Y-22338250D01*
X7887000Y-22470966D01*
X7975756Y-22685243D01*
X8139757Y-22849244D01*
X8189613Y-22869895D01*
X8189613Y-23305000D01*
X8210956Y-23412299D01*
X8239487Y-23455000D01*
X8210956Y-23497701D01*
X8189613Y-23605000D01*
X8189613Y-24138246D01*
X8117644Y-24168057D01*
X7927764Y-24357937D01*
X7825001Y-24606028D01*
X7825001Y-24874560D01*
X7927764Y-25122651D01*
X8117644Y-25312531D01*
X8365735Y-25415294D01*
X8634267Y-25415294D01*
X8882358Y-25312531D01*
X9072238Y-25122651D01*
X9175001Y-24874560D01*
X9175001Y-24807756D01*
X9334667Y-24648090D01*
X9378504Y-24618799D01*
X9434238Y-24535387D01*
X9490001Y-24535387D01*
X9490001Y-25485675D01*
X9490000Y-25485680D01*
X9490000Y-25599613D01*
X9382701Y-25620956D01*
X9291736Y-25681736D01*
X9230956Y-25772701D01*
X9209613Y-25880000D01*
X9209613Y-26380000D01*
X9230956Y-26487299D01*
X9263565Y-26536103D01*
X8950947Y-26848722D01*
X8919641Y-26869640D01*
X8898722Y-26900947D01*
X8898720Y-26900949D01*
X8836758Y-26993681D01*
X8807654Y-27139999D01*
X8815000Y-27176930D01*
X8814999Y-28803072D01*
X8807654Y-28839999D01*
X8814999Y-28876925D01*
X8814999Y-28876929D01*
X8836757Y-28986315D01*
X8919640Y-29110358D01*
X8950950Y-29131279D01*
X11558722Y-31739052D01*
X11579641Y-31770359D01*
X11610948Y-31791278D01*
X11703681Y-31853241D01*
X11703682Y-31853241D01*
X11703683Y-31853242D01*
X11769613Y-31866356D01*
X11769613Y-31900000D01*
X11790956Y-32007299D01*
X11851736Y-32098264D01*
X11942701Y-32159044D01*
X12050000Y-32180387D01*
X12850000Y-32180387D01*
X12957299Y-32159044D01*
X13048264Y-32098264D01*
X13109044Y-32007299D01*
X13130387Y-31900000D01*
X13130387Y-31100000D01*
X13109044Y-30992701D01*
X13048264Y-30901736D01*
X12957299Y-30840956D01*
X12850000Y-30819613D01*
X12050000Y-30819613D01*
X11942701Y-30840956D01*
X11851736Y-30901736D01*
X11823830Y-30943500D01*
X9564999Y-28684670D01*
X9564999Y-28478750D01*
X9615568Y-28554432D01*
X9653145Y-28579540D01*
X10365463Y-29291860D01*
X10390568Y-29329432D01*
X10428139Y-29354536D01*
X10428141Y-29354538D01*
X10539418Y-29428891D01*
X10715000Y-29463816D01*
X10759322Y-29455000D01*
X12969613Y-29455000D01*
X12969613Y-30580000D01*
X12990956Y-30687299D01*
X13051736Y-30778264D01*
X13142701Y-30839044D01*
X13250000Y-30860387D01*
X13513620Y-30860387D01*
X13451736Y-30901736D01*
X13390956Y-30992701D01*
X13369613Y-31100000D01*
X13369613Y-31900000D01*
X13390956Y-32007299D01*
X13451736Y-32098264D01*
X13542701Y-32159044D01*
X13650000Y-32180387D01*
X14450000Y-32180387D01*
X14557299Y-32159044D01*
X14648264Y-32098264D01*
X14709044Y-32007299D01*
X14730387Y-31900000D01*
X14730387Y-31875000D01*
X14969613Y-31875000D01*
X14969613Y-31950000D01*
X14990956Y-32057299D01*
X15051736Y-32148264D01*
X15142701Y-32209044D01*
X15250000Y-32230387D01*
X15750000Y-32230387D01*
X15857299Y-32209044D01*
X15948264Y-32148264D01*
X16009044Y-32057299D01*
X16030387Y-31950000D01*
X16030387Y-31050000D01*
X16009044Y-30942701D01*
X15954044Y-30860387D01*
X16545956Y-30860387D01*
X16490956Y-30942701D01*
X16469613Y-31050000D01*
X16469613Y-31950000D01*
X16485253Y-32028627D01*
X16419757Y-32055756D01*
X16255756Y-32219757D01*
X16167000Y-32434034D01*
X16167000Y-32675250D01*
X16312750Y-32821000D01*
X16875000Y-32821000D01*
X16875000Y-32801000D01*
X17125000Y-32801000D01*
X17125000Y-32821000D01*
X17687250Y-32821000D01*
X17833000Y-32675250D01*
X17833000Y-32434034D01*
X17744244Y-32219757D01*
X17580243Y-32055756D01*
X17514747Y-32028627D01*
X17530387Y-31950000D01*
X17530387Y-31247721D01*
X17540000Y-31199394D01*
X17540000Y-31199393D01*
X17547836Y-31160000D01*
X17540000Y-31120606D01*
X17540000Y-22501360D01*
X18049613Y-22503090D01*
X18049613Y-25530000D01*
X18070956Y-25637299D01*
X18131736Y-25728264D01*
X18222701Y-25789044D01*
X18330000Y-25810387D01*
X19330000Y-25810387D01*
X19437299Y-25789044D01*
X19528264Y-25728264D01*
X19589044Y-25637299D01*
X19610387Y-25530000D01*
X19610387Y-22508389D01*
X20589613Y-22511713D01*
X20589613Y-25530000D01*
X20610956Y-25637299D01*
X20671736Y-25728264D01*
X20762701Y-25789044D01*
X20870000Y-25810387D01*
X21870000Y-25810387D01*
X21977299Y-25789044D01*
X22068264Y-25728264D01*
X22129044Y-25637299D01*
X22150387Y-25530000D01*
X22150387Y-22517011D01*
X22315000Y-22517570D01*
X22315001Y-27144669D01*
X22130359Y-27329312D01*
X22129044Y-27322701D01*
X22068264Y-27231736D01*
X21977299Y-27170956D01*
X21870000Y-27149613D01*
X20870000Y-27149613D01*
X20762701Y-27170956D01*
X20671736Y-27231736D01*
X20610956Y-27322701D01*
X20589613Y-27430000D01*
X20589613Y-30505001D01*
X19785332Y-30505001D01*
X19610387Y-30330057D01*
X19610387Y-27430000D01*
X19589044Y-27322701D01*
X19528264Y-27231736D01*
X19437299Y-27170956D01*
X19330000Y-27149613D01*
X18330000Y-27149613D01*
X18222701Y-27170956D01*
X18131736Y-27231736D01*
X18070956Y-27322701D01*
X18049613Y-27430000D01*
X18049613Y-30580000D01*
X18070956Y-30687299D01*
X18131736Y-30778264D01*
X18222701Y-30839044D01*
X18330000Y-30860387D01*
X19080057Y-30860387D01*
X19338725Y-31119056D01*
X19359642Y-31150360D01*
X19390946Y-31171277D01*
X19390949Y-31171280D01*
X19483682Y-31233242D01*
X19483683Y-31233242D01*
X19483684Y-31233243D01*
X19593070Y-31255001D01*
X19593074Y-31255001D01*
X19630000Y-31262346D01*
X19666926Y-31255001D01*
X22643073Y-31255001D01*
X22679999Y-31262346D01*
X22716925Y-31255001D01*
X22716930Y-31255001D01*
X22826316Y-31233243D01*
X22950358Y-31150360D01*
X22971278Y-31119051D01*
X23047921Y-31042408D01*
X23079757Y-31074244D01*
X23294034Y-31163000D01*
X23585250Y-31163000D01*
X23731000Y-31017250D01*
X23731000Y-29184000D01*
X24089000Y-29184000D01*
X24089000Y-31017250D01*
X24234750Y-31163000D01*
X24525966Y-31163000D01*
X24740243Y-31074244D01*
X24904244Y-30910243D01*
X24993000Y-30695966D01*
X24993000Y-29329750D01*
X24847250Y-29184000D01*
X24089000Y-29184000D01*
X23731000Y-29184000D01*
X23711000Y-29184000D01*
X23711000Y-28826000D01*
X23731000Y-28826000D01*
X23731000Y-26992750D01*
X24089000Y-26992750D01*
X24089000Y-28826000D01*
X24847250Y-28826000D01*
X24993000Y-28680250D01*
X24993000Y-27314034D01*
X24904244Y-27099757D01*
X24740243Y-26935756D01*
X24525966Y-26847000D01*
X24234750Y-26847000D01*
X24089000Y-26992750D01*
X23731000Y-26992750D01*
X23585250Y-26847000D01*
X23475000Y-26847000D01*
X23475000Y-25810387D01*
X24410000Y-25810387D01*
X24517299Y-25789044D01*
X24608264Y-25728264D01*
X24669044Y-25637299D01*
X24690387Y-25530000D01*
X24690387Y-22525633D01*
X25669613Y-22528957D01*
X25669613Y-25530000D01*
X25690956Y-25637299D01*
X25751736Y-25728264D01*
X25842701Y-25789044D01*
X25857652Y-25792018D01*
X25333883Y-26315788D01*
X25302577Y-26336706D01*
X25281658Y-26368013D01*
X25281656Y-26368015D01*
X25219694Y-26460747D01*
X25190590Y-26607065D01*
X25197936Y-26643996D01*
X25197935Y-30841735D01*
X23584671Y-32455000D01*
X19776926Y-32455000D01*
X19740000Y-32447655D01*
X19703073Y-32455000D01*
X19703069Y-32455000D01*
X19593683Y-32476758D01*
X19593682Y-32476759D01*
X19593681Y-32476759D01*
X19500949Y-32538721D01*
X19500948Y-32538722D01*
X19469641Y-32559641D01*
X19448722Y-32590948D01*
X17718673Y-34320998D01*
X17687252Y-34320998D01*
X17833000Y-34175250D01*
X17833000Y-33934034D01*
X17756771Y-33750000D01*
X17833000Y-33565966D01*
X17833000Y-33324750D01*
X17687250Y-33179000D01*
X17125000Y-33179000D01*
X17125000Y-34321000D01*
X17199000Y-34321000D01*
X17199000Y-34679000D01*
X17125000Y-34679000D01*
X17125000Y-35821000D01*
X17199000Y-35821000D01*
X17199000Y-36179000D01*
X17125000Y-36179000D01*
X17125000Y-36199000D01*
X16875000Y-36199000D01*
X16875000Y-36179000D01*
X16312750Y-36179000D01*
X16167000Y-36324750D01*
X16167000Y-36375001D01*
X16030387Y-36375001D01*
X16030387Y-35550000D01*
X16009044Y-35442701D01*
X15948264Y-35351736D01*
X15857299Y-35290956D01*
X15750000Y-35269613D01*
X15250000Y-35269613D01*
X15142701Y-35290956D01*
X15051736Y-35351736D01*
X14990956Y-35442701D01*
X14969613Y-35550000D01*
X14969613Y-35625000D01*
X14730387Y-35625000D01*
X14730387Y-35600000D01*
X14709044Y-35492701D01*
X14648264Y-35401736D01*
X14557299Y-35340956D01*
X14450000Y-35319613D01*
X13724999Y-35319613D01*
X13724999Y-35180387D01*
X14450000Y-35180387D01*
X14557299Y-35159044D01*
X14648264Y-35098264D01*
X14709044Y-35007299D01*
X14730387Y-34900000D01*
X14730387Y-34875000D01*
X14969613Y-34875000D01*
X14969613Y-34950000D01*
X14990956Y-35057299D01*
X15051736Y-35148264D01*
X15142701Y-35209044D01*
X15250000Y-35230387D01*
X15750000Y-35230387D01*
X15857299Y-35209044D01*
X15948264Y-35148264D01*
X16009044Y-35057299D01*
X16030387Y-34950000D01*
X16030387Y-34824750D01*
X16167000Y-34824750D01*
X16167000Y-35065966D01*
X16243229Y-35250000D01*
X16167000Y-35434034D01*
X16167000Y-35675250D01*
X16312750Y-35821000D01*
X16875000Y-35821000D01*
X16875000Y-34679000D01*
X16312750Y-34679000D01*
X16167000Y-34824750D01*
X16030387Y-34824750D01*
X16030387Y-34050000D01*
X16009044Y-33942701D01*
X15948264Y-33851736D01*
X15857299Y-33790956D01*
X15750000Y-33769613D01*
X15250000Y-33769613D01*
X15142701Y-33790956D01*
X15051736Y-33851736D01*
X14990956Y-33942701D01*
X14969613Y-34050000D01*
X14969613Y-34125000D01*
X14730387Y-34125000D01*
X14730387Y-34100000D01*
X14709044Y-33992701D01*
X14648264Y-33901736D01*
X14557299Y-33840956D01*
X14450000Y-33819613D01*
X13650000Y-33819613D01*
X13542701Y-33840956D01*
X13451736Y-33901736D01*
X13390956Y-33992701D01*
X13369613Y-34100000D01*
X13369613Y-34289284D01*
X13341279Y-34260950D01*
X13320359Y-34229641D01*
X13196317Y-34146758D01*
X13130387Y-34133644D01*
X13130387Y-34100000D01*
X13109044Y-33992701D01*
X13048264Y-33901736D01*
X12957299Y-33840956D01*
X12850000Y-33819613D01*
X12050000Y-33819613D01*
X11942701Y-33840956D01*
X11851736Y-33901736D01*
X11790956Y-33992701D01*
X11769613Y-34100000D01*
X11769613Y-34900000D01*
X11790956Y-35007299D01*
X11851736Y-35098264D01*
X11942701Y-35159044D01*
X12050000Y-35180387D01*
X12850000Y-35180387D01*
X12957299Y-35159044D01*
X12974999Y-35147217D01*
X12974999Y-35352783D01*
X12957299Y-35340956D01*
X12850000Y-35319613D01*
X12050000Y-35319613D01*
X11942701Y-35340956D01*
X11851736Y-35401736D01*
X11790956Y-35492701D01*
X11769613Y-35600000D01*
X11769613Y-36400000D01*
X11790956Y-36507299D01*
X11851736Y-36598264D01*
X11942701Y-36659044D01*
X12050000Y-36680387D01*
X12075000Y-36680387D01*
X12075001Y-37442273D01*
X11865734Y-37442273D01*
X11617643Y-37545036D01*
X11427763Y-37734916D01*
X11325000Y-37983007D01*
X11325000Y-38251539D01*
X11333052Y-38270978D01*
X10198645Y-37674138D01*
X8731607Y-36726883D01*
X7354582Y-35652967D01*
X6078474Y-34460893D01*
X4913386Y-33160100D01*
X4495140Y-32600000D01*
X11769613Y-32600000D01*
X11769613Y-33400000D01*
X11790956Y-33507299D01*
X11851736Y-33598264D01*
X11942701Y-33659044D01*
X12050000Y-33680387D01*
X12850000Y-33680387D01*
X12877082Y-33675000D01*
X12984266Y-33675000D01*
X13232357Y-33572237D01*
X13375417Y-33429177D01*
X13390956Y-33507299D01*
X13451736Y-33598264D01*
X13542701Y-33659044D01*
X13650000Y-33680387D01*
X14450000Y-33680387D01*
X14557299Y-33659044D01*
X14648264Y-33598264D01*
X14709044Y-33507299D01*
X14730387Y-33400000D01*
X14730387Y-33375000D01*
X14969613Y-33375000D01*
X14969613Y-33450000D01*
X14990956Y-33557299D01*
X15051736Y-33648264D01*
X15142701Y-33709044D01*
X15250000Y-33730387D01*
X15750000Y-33730387D01*
X15857299Y-33709044D01*
X15948264Y-33648264D01*
X16009044Y-33557299D01*
X16030387Y-33450000D01*
X16030387Y-33324750D01*
X16167000Y-33324750D01*
X16167000Y-33565966D01*
X16243229Y-33750000D01*
X16167000Y-33934034D01*
X16167000Y-34175250D01*
X16312750Y-34321000D01*
X16875000Y-34321000D01*
X16875000Y-33179000D01*
X16312750Y-33179000D01*
X16167000Y-33324750D01*
X16030387Y-33324750D01*
X16030387Y-32550000D01*
X16009044Y-32442701D01*
X15948264Y-32351736D01*
X15857299Y-32290956D01*
X15750000Y-32269613D01*
X15250000Y-32269613D01*
X15142701Y-32290956D01*
X15051736Y-32351736D01*
X14990956Y-32442701D01*
X14969613Y-32550000D01*
X14969613Y-32625000D01*
X14730387Y-32625000D01*
X14730387Y-32600000D01*
X14709044Y-32492701D01*
X14648264Y-32401736D01*
X14557299Y-32340956D01*
X14450000Y-32319613D01*
X13650000Y-32319613D01*
X13542701Y-32340956D01*
X13451736Y-32401736D01*
X13390956Y-32492701D01*
X13375417Y-32570823D01*
X13232357Y-32427763D01*
X12984266Y-32325000D01*
X12877082Y-32325000D01*
X12850000Y-32319613D01*
X12050000Y-32319613D01*
X11942701Y-32340956D01*
X11851736Y-32401736D01*
X11790956Y-32492701D01*
X11769613Y-32600000D01*
X4495140Y-32600000D01*
X3868544Y-31760886D01*
X2952220Y-30274332D01*
X2593028Y-29555476D01*
X5440890Y-29555476D01*
X5476056Y-29659071D01*
X6326056Y-31131315D01*
X6398189Y-31213568D01*
X6496308Y-31261955D01*
X6605476Y-31269110D01*
X6709071Y-31233944D01*
X8181315Y-30383944D01*
X8263568Y-30311811D01*
X8311955Y-30213692D01*
X8319110Y-30104524D01*
X8283944Y-30000929D01*
X7433944Y-28528685D01*
X7361811Y-28446432D01*
X7263692Y-28398045D01*
X7154524Y-28390890D01*
X7050929Y-28426056D01*
X5578685Y-29276056D01*
X5496432Y-29348189D01*
X5448045Y-29446308D01*
X5440890Y-29555476D01*
X2593028Y-29555476D01*
X2171670Y-28712207D01*
X1746585Y-27630295D01*
X4462960Y-27630295D01*
X4550273Y-28069248D01*
X4798920Y-28441375D01*
X5171047Y-28690022D01*
X5499197Y-28755295D01*
X5720803Y-28755295D01*
X6048953Y-28690022D01*
X6421080Y-28441375D01*
X6669727Y-28069248D01*
X6757040Y-27630295D01*
X6669727Y-27191342D01*
X6421080Y-26819215D01*
X6048953Y-26570568D01*
X5720803Y-26505295D01*
X5499197Y-26505295D01*
X5171047Y-26570568D01*
X4798920Y-26819215D01*
X4550273Y-27191342D01*
X4462960Y-27630295D01*
X1746585Y-27630295D01*
X1533075Y-27086879D01*
X1041490Y-25411219D01*
X700807Y-23698494D01*
X586089Y-22633844D01*
X730158Y-22981657D01*
X1848343Y-24099842D01*
X3309323Y-24705000D01*
X4890677Y-24705000D01*
X6351657Y-24099842D01*
X7469842Y-22981657D01*
X7961043Y-21795793D01*
X8032750Y-21867500D01*
X8821000Y-21867500D01*
X8821000Y-21831000D01*
X9179000Y-21831000D01*
X9179000Y-21867500D01*
X9967250Y-21867500D01*
X10113000Y-21721750D01*
X10113000Y-21589034D01*
X10024244Y-21374757D01*
X9891000Y-21241513D01*
X9891000Y-19959000D01*
X9032750Y-19959000D01*
X8887000Y-20104750D01*
X8887000Y-20995966D01*
X8939205Y-21122000D01*
X8820998Y-21122000D01*
X8820998Y-21267748D01*
X8675250Y-21122000D01*
X8354034Y-21122000D01*
X8139757Y-21210756D01*
X8075000Y-21275513D01*
X8075000Y-19939323D01*
X7505337Y-18564034D01*
X8887000Y-18564034D01*
X8887000Y-19455250D01*
X9032750Y-19601000D01*
X9891000Y-19601000D01*
X9891000Y-18242750D01*
X9745250Y-18097000D01*
X9354034Y-18097000D01*
X9139757Y-18185756D01*
X8975756Y-18349757D01*
X8887000Y-18564034D01*
X7505337Y-18564034D01*
X7469842Y-18478343D01*
X6351657Y-17360158D01*
X4890677Y-16755000D01*
X3309323Y-16755000D01*
X1848343Y-17360158D01*
X730158Y-18478343D01*
X578926Y-18843449D01*
X605059Y-18474358D01*
X882752Y-16750299D01*
X1312605Y-15057751D01*
X1757214Y-13791689D01*
X2024999Y-13791689D01*
X2024999Y-14060221D01*
X2127762Y-14308312D01*
X2317642Y-14498192D01*
X2565733Y-14600955D01*
X2834265Y-14600955D01*
X3082356Y-14498192D01*
X3272236Y-14308312D01*
X3344024Y-14135000D01*
X4578553Y-14135000D01*
X5272820Y-14535835D01*
X5376415Y-14571001D01*
X5485583Y-14563846D01*
X5583702Y-14515459D01*
X5591661Y-14506383D01*
X5599818Y-14547390D01*
X5771108Y-14803744D01*
X6027462Y-14975034D01*
X6253522Y-15020000D01*
X6406182Y-15020000D01*
X6632242Y-14975034D01*
X6888596Y-14803744D01*
X7059886Y-14547390D01*
X7120035Y-14245000D01*
X7059886Y-13942610D01*
X7044444Y-13919499D01*
X7267242Y-13875182D01*
X7523596Y-13703892D01*
X7694886Y-13447538D01*
X7755035Y-13145148D01*
X7747670Y-13108123D01*
X7806751Y-13108367D01*
X8197822Y-12948269D01*
X8317277Y-12856585D01*
X8307094Y-12660313D01*
X7665371Y-12289814D01*
X7655371Y-12307134D01*
X7345333Y-12128134D01*
X7355333Y-12110814D01*
X7207242Y-12025314D01*
X7207242Y-12025313D01*
X7128370Y-11979776D01*
X7844371Y-11979776D01*
X8486094Y-12350275D01*
X8661162Y-12260958D01*
X8680835Y-12111665D01*
X8623949Y-11692939D01*
X8411154Y-11327855D01*
X8216058Y-11335996D01*
X7844371Y-11979776D01*
X7128370Y-11979776D01*
X6565519Y-11654814D01*
X6555519Y-11672134D01*
X6245481Y-11493134D01*
X6255481Y-11475814D01*
X6028517Y-11344776D01*
X6744519Y-11344776D01*
X6892610Y-11430276D01*
X6892610Y-11430277D01*
X7534333Y-11800776D01*
X7906020Y-11156996D01*
X7815522Y-10983967D01*
X7480175Y-10982583D01*
X7311302Y-10692855D01*
X7116206Y-10700996D01*
X6744519Y-11344776D01*
X6028517Y-11344776D01*
X5613758Y-11105315D01*
X5438690Y-11194632D01*
X5419017Y-11343925D01*
X5475903Y-11762651D01*
X5507532Y-11816916D01*
X5306256Y-11951404D01*
X5134966Y-12207758D01*
X5074817Y-12510148D01*
X5103801Y-12655862D01*
X5083585Y-12648999D01*
X4974417Y-12656154D01*
X4876298Y-12704541D01*
X4804165Y-12786794D01*
X4631996Y-13085000D01*
X3067660Y-13085000D01*
X3015954Y-13074715D01*
X2811109Y-13115461D01*
X2637450Y-13231496D01*
X2624448Y-13250955D01*
X2565733Y-13250955D01*
X2317642Y-13353718D01*
X2127762Y-13543598D01*
X2024999Y-13791689D01*
X1757214Y-13791689D01*
X1891214Y-13410115D01*
X2613997Y-11820436D01*
X3306457Y-10599005D01*
X5782575Y-10599005D01*
X5792758Y-10795277D01*
X6434481Y-11165776D01*
X6806168Y-10521996D01*
X6715670Y-10348967D01*
X6293101Y-10347223D01*
X5902030Y-10507321D01*
X5782575Y-10599005D01*
X3306457Y-10599005D01*
X3475232Y-10301303D01*
X4468100Y-8864742D01*
X5584740Y-7522129D01*
X6816309Y-6284095D01*
X8153057Y-5160441D01*
X9584399Y-4160064D01*
X11099002Y-3290887D01*
X12684875Y-2559790D01*
X14329459Y-1972562D01*
X16019733Y-1533853D01*
X17742315Y-1247137D01*
X19483564Y-1114684D01*
X21229694Y-1137542D01*
G36*
X19265000Y-33944266D02*
X19367763Y-34192357D01*
X19409613Y-34234207D01*
X19409613Y-34260000D01*
X19430956Y-34367299D01*
X19491736Y-34458264D01*
X19582701Y-34519044D01*
X19690000Y-34540387D01*
X19725001Y-34540387D01*
X19725000Y-35208482D01*
X19680789Y-35238023D01*
X19647198Y-35179284D01*
X19313013Y-34920656D01*
X19173885Y-34863047D01*
X19009000Y-34970002D01*
X19009000Y-35711000D01*
X19029000Y-35711000D01*
X19029000Y-36069000D01*
X19009000Y-36069000D01*
X19009000Y-36981000D01*
X19029000Y-36981000D01*
X19029000Y-37339000D01*
X19009000Y-37339000D01*
X19009000Y-37359000D01*
X18651000Y-37359000D01*
X18651000Y-37339000D01*
X18631000Y-37339000D01*
X18631000Y-36981000D01*
X18651000Y-36981000D01*
X18651000Y-36069000D01*
X18631000Y-36069000D01*
X18631000Y-35711000D01*
X18651000Y-35711000D01*
X18651000Y-34970002D01*
X18486115Y-34863047D01*
X18346987Y-34920656D01*
X18095001Y-35115670D01*
X18095001Y-35005328D01*
X19265000Y-33835330D01*
X19265000Y-33944266D01*
X19265000Y-33944266D01*
G37*
X19265000Y-33944266D02*
X19367763Y-34192357D01*
X19409613Y-34234207D01*
X19409613Y-34260000D01*
X19430956Y-34367299D01*
X19491736Y-34458264D01*
X19582701Y-34519044D01*
X19690000Y-34540387D01*
X19725001Y-34540387D01*
X19725000Y-35208482D01*
X19680789Y-35238023D01*
X19647198Y-35179284D01*
X19313013Y-34920656D01*
X19173885Y-34863047D01*
X19009000Y-34970002D01*
X19009000Y-35711000D01*
X19029000Y-35711000D01*
X19029000Y-36069000D01*
X19009000Y-36069000D01*
X19009000Y-36981000D01*
X19029000Y-36981000D01*
X19029000Y-37339000D01*
X19009000Y-37339000D01*
X19009000Y-37359000D01*
X18651000Y-37359000D01*
X18651000Y-37339000D01*
X18631000Y-37339000D01*
X18631000Y-36981000D01*
X18651000Y-36981000D01*
X18651000Y-36069000D01*
X18631000Y-36069000D01*
X18631000Y-35711000D01*
X18651000Y-35711000D01*
X18651000Y-34970002D01*
X18486115Y-34863047D01*
X18346987Y-34920656D01*
X18095001Y-35115670D01*
X18095001Y-35005328D01*
X19265000Y-33835330D01*
X19265000Y-33944266D01*
G36*
X33117763Y-9202357D02*
X33175001Y-9259595D01*
X33175000Y-10811996D01*
X32876794Y-10984165D01*
X32794541Y-11056298D01*
X32746154Y-11154417D01*
X32738999Y-11263585D01*
X32745862Y-11283801D01*
X32676478Y-11270000D01*
X32523818Y-11270000D01*
X32297758Y-11314966D01*
X32041404Y-11486256D01*
X31870114Y-11742610D01*
X31809965Y-12045000D01*
X31865787Y-12325634D01*
X31719403Y-12265000D01*
X31450871Y-12265000D01*
X31202780Y-12367763D01*
X31012900Y-12557643D01*
X30910137Y-12805734D01*
X30910137Y-12946094D01*
X30867261Y-12928334D01*
X30598729Y-12928334D01*
X30350638Y-13031097D01*
X30160758Y-13220977D01*
X30057995Y-13469068D01*
X30057995Y-13737600D01*
X30160758Y-13985691D01*
X30350638Y-14175571D01*
X30598729Y-14278334D01*
X30665533Y-14278334D01*
X30798324Y-14411125D01*
X30798327Y-14411127D01*
X31802475Y-15415275D01*
X31725000Y-15492750D01*
X31725000Y-16201000D01*
X31799000Y-16201000D01*
X31799000Y-16559000D01*
X31725000Y-16559000D01*
X31725000Y-17267250D01*
X31870750Y-17413000D01*
X31947000Y-17413000D01*
X31947000Y-18245966D01*
X32035756Y-18460243D01*
X32199757Y-18624244D01*
X32414034Y-18713000D01*
X32805250Y-18713000D01*
X32951000Y-18567250D01*
X32951000Y-17209000D01*
X33309000Y-17209000D01*
X33309000Y-18567250D01*
X33454750Y-18713000D01*
X33845966Y-18713000D01*
X34060243Y-18624244D01*
X34224244Y-18460243D01*
X34313000Y-18245966D01*
X34313000Y-17354750D01*
X34167250Y-17209000D01*
X33309000Y-17209000D01*
X32951000Y-17209000D01*
X32931000Y-17209000D01*
X32931000Y-16851000D01*
X32951000Y-16851000D01*
X32951000Y-16831000D01*
X33309000Y-16831000D01*
X33309000Y-16851000D01*
X34167250Y-16851000D01*
X34313000Y-16705250D01*
X34313000Y-15814034D01*
X34273928Y-15719706D01*
X34739295Y-15719706D01*
X34791001Y-15729991D01*
X34842707Y-15719706D01*
X34995846Y-15689245D01*
X35169505Y-15573210D01*
X35198798Y-15529371D01*
X36240009Y-14488160D01*
X36237654Y-14500001D01*
X36244999Y-14536928D01*
X36245000Y-16974835D01*
X36237654Y-17011766D01*
X36266758Y-17158084D01*
X36328720Y-17250816D01*
X36328722Y-17250818D01*
X36349641Y-17282125D01*
X36358100Y-17287777D01*
X36216378Y-17346480D01*
X35936480Y-17626378D01*
X35785000Y-17992082D01*
X35785000Y-18387918D01*
X35936480Y-18753622D01*
X36216378Y-19033520D01*
X36582082Y-19185000D01*
X36977918Y-19185000D01*
X37166540Y-19106870D01*
X37208723Y-19149053D01*
X37229640Y-19180357D01*
X37260944Y-19201274D01*
X37260947Y-19201277D01*
X37353680Y-19263240D01*
X37499998Y-19292344D01*
X37536928Y-19284998D01*
X38064613Y-19285000D01*
X38064613Y-19310000D01*
X38085956Y-19417299D01*
X38146736Y-19508264D01*
X38237701Y-19569044D01*
X38345000Y-19590387D01*
X38824285Y-19590387D01*
X38059673Y-20355000D01*
X37701650Y-20355000D01*
X37623520Y-20166378D01*
X37343622Y-19886480D01*
X36977918Y-19735000D01*
X36582082Y-19735000D01*
X36216378Y-19886480D01*
X35936480Y-20166378D01*
X35785000Y-20532082D01*
X35785000Y-20927918D01*
X35936480Y-21293622D01*
X36216378Y-21573520D01*
X36405001Y-21651650D01*
X36405000Y-22348350D01*
X36216378Y-22426480D01*
X35936480Y-22706378D01*
X35785000Y-23072082D01*
X35785000Y-23467918D01*
X35936480Y-23833622D01*
X36216378Y-24113520D01*
X36582082Y-24265000D01*
X36977918Y-24265000D01*
X37343622Y-24113520D01*
X37623520Y-23833622D01*
X37775000Y-23467918D01*
X37775000Y-23072082D01*
X37623520Y-22706378D01*
X37343622Y-22426480D01*
X37155000Y-22348350D01*
X37155000Y-21651650D01*
X37343622Y-21573520D01*
X37623520Y-21293622D01*
X37701650Y-21105000D01*
X38178076Y-21105000D01*
X38215002Y-21112345D01*
X38251928Y-21105000D01*
X38251933Y-21105000D01*
X38361319Y-21083242D01*
X38485361Y-21000359D01*
X38506282Y-20969050D01*
X39634054Y-19841278D01*
X39665360Y-19820360D01*
X39683294Y-19793521D01*
X39725000Y-20730000D01*
X39698105Y-21757093D01*
X39529214Y-23495187D01*
X39206486Y-25211386D01*
X38732475Y-26892102D01*
X38110935Y-28524027D01*
X37346786Y-30094241D01*
X36446079Y-31590309D01*
X35415947Y-33000387D01*
X34264544Y-34313310D01*
X33000989Y-35518682D01*
X31635286Y-36606959D01*
X31541353Y-36669014D01*
X32075000Y-35380677D01*
X32075000Y-33799323D01*
X31469842Y-32338343D01*
X30351657Y-31220158D01*
X29808080Y-30995001D01*
X30764672Y-30995001D01*
X32458722Y-32689052D01*
X32479641Y-32720359D01*
X32510948Y-32741278D01*
X32603681Y-32803241D01*
X32603682Y-32803241D01*
X32603683Y-32803242D01*
X32669613Y-32816356D01*
X32669613Y-32900000D01*
X32690956Y-33007299D01*
X32751736Y-33098264D01*
X32842701Y-33159044D01*
X32950000Y-33180387D01*
X33450000Y-33180387D01*
X33557299Y-33159044D01*
X33648264Y-33098264D01*
X33709044Y-33007299D01*
X33730387Y-32900000D01*
X33730387Y-32000000D01*
X33709044Y-31892701D01*
X33648264Y-31801736D01*
X33557299Y-31740956D01*
X33450000Y-31719613D01*
X32950000Y-31719613D01*
X32842701Y-31740956D01*
X32751736Y-31801736D01*
X32703803Y-31873473D01*
X31430716Y-30600387D01*
X31435000Y-30600387D01*
X31542299Y-30579044D01*
X31633264Y-30518264D01*
X31694044Y-30427299D01*
X31715387Y-30320000D01*
X31715387Y-30315000D01*
X32291238Y-30315000D01*
X32508920Y-30640785D01*
X32881047Y-30889432D01*
X33209197Y-30954705D01*
X33430803Y-30954705D01*
X33758953Y-30889432D01*
X34131080Y-30640785D01*
X34379727Y-30268658D01*
X34385001Y-30242146D01*
X34385000Y-31596451D01*
X34346759Y-31653682D01*
X34327361Y-31751206D01*
X34251736Y-31801736D01*
X34190956Y-31892701D01*
X34169613Y-32000000D01*
X34169613Y-32900000D01*
X34190956Y-33007299D01*
X34251736Y-33098264D01*
X34342701Y-33159044D01*
X34450000Y-33180387D01*
X34950000Y-33180387D01*
X35057299Y-33159044D01*
X35148264Y-33098264D01*
X35209044Y-33007299D01*
X35230387Y-32900000D01*
X35230387Y-32000000D01*
X35209044Y-31892701D01*
X35148264Y-31801736D01*
X35132201Y-31791003D01*
X35135000Y-31776931D01*
X35135000Y-31776926D01*
X35142345Y-31740000D01*
X35135000Y-31703074D01*
X35135000Y-29436926D01*
X35142345Y-29399999D01*
X35135000Y-29363073D01*
X35135000Y-29363069D01*
X35113242Y-29253683D01*
X35111635Y-29251278D01*
X35051279Y-29160949D01*
X35051278Y-29160948D01*
X35030359Y-29129641D01*
X34999052Y-29108722D01*
X34953602Y-29063272D01*
X34973692Y-29061955D01*
X35071811Y-29013568D01*
X35143944Y-28931315D01*
X35273678Y-28706610D01*
X35509223Y-28549223D01*
X35791023Y-28127480D01*
X35887201Y-27643955D01*
X35993944Y-27459071D01*
X36029110Y-27355476D01*
X36021955Y-27246308D01*
X35973568Y-27148189D01*
X35891315Y-27076056D01*
X35666609Y-26946322D01*
X35580354Y-26817232D01*
X34030387Y-25267265D01*
X34030387Y-20130000D01*
X34009044Y-20022701D01*
X33948264Y-19931736D01*
X33857299Y-19870956D01*
X33750000Y-19849613D01*
X28092848Y-19849613D01*
X28904668Y-19037794D01*
X28948504Y-19008504D01*
X29064539Y-18834845D01*
X29069962Y-18807581D01*
X29105285Y-18630000D01*
X29095000Y-18578294D01*
X29095000Y-18410387D01*
X29170000Y-18410387D01*
X29277299Y-18389044D01*
X29368264Y-18328264D01*
X29429044Y-18237299D01*
X29450387Y-18130000D01*
X29450387Y-17565208D01*
X29501706Y-17555000D01*
X29654845Y-17524539D01*
X29828504Y-17408504D01*
X29857796Y-17364665D01*
X30112074Y-17110387D01*
X30350000Y-17110387D01*
X30457299Y-17089044D01*
X30548264Y-17028264D01*
X30609044Y-16937299D01*
X30630387Y-16830000D01*
X30630387Y-16704750D01*
X30767000Y-16704750D01*
X30767000Y-16945966D01*
X30855756Y-17160243D01*
X31019757Y-17324244D01*
X31234034Y-17413000D01*
X31329250Y-17413000D01*
X31475000Y-17267250D01*
X31475000Y-16559000D01*
X30912750Y-16559000D01*
X30767000Y-16704750D01*
X30630387Y-16704750D01*
X30630387Y-16404624D01*
X30635285Y-16380000D01*
X30630387Y-16355376D01*
X30630387Y-15930000D01*
X30609044Y-15822701D01*
X30603253Y-15814034D01*
X30767000Y-15814034D01*
X30767000Y-16055250D01*
X30912750Y-16201000D01*
X31475000Y-16201000D01*
X31475000Y-15492750D01*
X31329250Y-15347000D01*
X31234034Y-15347000D01*
X31019757Y-15435756D01*
X30855756Y-15599757D01*
X30767000Y-15814034D01*
X30603253Y-15814034D01*
X30548264Y-15731736D01*
X30457299Y-15670956D01*
X30350000Y-15649613D01*
X29850000Y-15649613D01*
X29742701Y-15670956D01*
X29651736Y-15731736D01*
X29590956Y-15822701D01*
X29569613Y-15930000D01*
X29569613Y-16167925D01*
X29450387Y-16287151D01*
X29450387Y-15930000D01*
X29429044Y-15822701D01*
X29368264Y-15731736D01*
X29277299Y-15670956D01*
X29170000Y-15649613D01*
X27970000Y-15649613D01*
X27862701Y-15670956D01*
X27795438Y-15715899D01*
X27808121Y-11655000D01*
X30163074Y-11655000D01*
X30200000Y-11662345D01*
X30236926Y-11655000D01*
X30236931Y-11655000D01*
X30346317Y-11633242D01*
X30470359Y-11550359D01*
X30491280Y-11519049D01*
X33027027Y-8983302D01*
X33117763Y-9202357D01*
X33117763Y-9202357D01*
G37*
X33117763Y-9202357D02*
X33175001Y-9259595D01*
X33175000Y-10811996D01*
X32876794Y-10984165D01*
X32794541Y-11056298D01*
X32746154Y-11154417D01*
X32738999Y-11263585D01*
X32745862Y-11283801D01*
X32676478Y-11270000D01*
X32523818Y-11270000D01*
X32297758Y-11314966D01*
X32041404Y-11486256D01*
X31870114Y-11742610D01*
X31809965Y-12045000D01*
X31865787Y-12325634D01*
X31719403Y-12265000D01*
X31450871Y-12265000D01*
X31202780Y-12367763D01*
X31012900Y-12557643D01*
X30910137Y-12805734D01*
X30910137Y-12946094D01*
X30867261Y-12928334D01*
X30598729Y-12928334D01*
X30350638Y-13031097D01*
X30160758Y-13220977D01*
X30057995Y-13469068D01*
X30057995Y-13737600D01*
X30160758Y-13985691D01*
X30350638Y-14175571D01*
X30598729Y-14278334D01*
X30665533Y-14278334D01*
X30798324Y-14411125D01*
X30798327Y-14411127D01*
X31802475Y-15415275D01*
X31725000Y-15492750D01*
X31725000Y-16201000D01*
X31799000Y-16201000D01*
X31799000Y-16559000D01*
X31725000Y-16559000D01*
X31725000Y-17267250D01*
X31870750Y-17413000D01*
X31947000Y-17413000D01*
X31947000Y-18245966D01*
X32035756Y-18460243D01*
X32199757Y-18624244D01*
X32414034Y-18713000D01*
X32805250Y-18713000D01*
X32951000Y-18567250D01*
X32951000Y-17209000D01*
X33309000Y-17209000D01*
X33309000Y-18567250D01*
X33454750Y-18713000D01*
X33845966Y-18713000D01*
X34060243Y-18624244D01*
X34224244Y-18460243D01*
X34313000Y-18245966D01*
X34313000Y-17354750D01*
X34167250Y-17209000D01*
X33309000Y-17209000D01*
X32951000Y-17209000D01*
X32931000Y-17209000D01*
X32931000Y-16851000D01*
X32951000Y-16851000D01*
X32951000Y-16831000D01*
X33309000Y-16831000D01*
X33309000Y-16851000D01*
X34167250Y-16851000D01*
X34313000Y-16705250D01*
X34313000Y-15814034D01*
X34273928Y-15719706D01*
X34739295Y-15719706D01*
X34791001Y-15729991D01*
X34842707Y-15719706D01*
X34995846Y-15689245D01*
X35169505Y-15573210D01*
X35198798Y-15529371D01*
X36240009Y-14488160D01*
X36237654Y-14500001D01*
X36244999Y-14536928D01*
X36245000Y-16974835D01*
X36237654Y-17011766D01*
X36266758Y-17158084D01*
X36328720Y-17250816D01*
X36328722Y-17250818D01*
X36349641Y-17282125D01*
X36358100Y-17287777D01*
X36216378Y-17346480D01*
X35936480Y-17626378D01*
X35785000Y-17992082D01*
X35785000Y-18387918D01*
X35936480Y-18753622D01*
X36216378Y-19033520D01*
X36582082Y-19185000D01*
X36977918Y-19185000D01*
X37166540Y-19106870D01*
X37208723Y-19149053D01*
X37229640Y-19180357D01*
X37260944Y-19201274D01*
X37260947Y-19201277D01*
X37353680Y-19263240D01*
X37499998Y-19292344D01*
X37536928Y-19284998D01*
X38064613Y-19285000D01*
X38064613Y-19310000D01*
X38085956Y-19417299D01*
X38146736Y-19508264D01*
X38237701Y-19569044D01*
X38345000Y-19590387D01*
X38824285Y-19590387D01*
X38059673Y-20355000D01*
X37701650Y-20355000D01*
X37623520Y-20166378D01*
X37343622Y-19886480D01*
X36977918Y-19735000D01*
X36582082Y-19735000D01*
X36216378Y-19886480D01*
X35936480Y-20166378D01*
X35785000Y-20532082D01*
X35785000Y-20927918D01*
X35936480Y-21293622D01*
X36216378Y-21573520D01*
X36405001Y-21651650D01*
X36405000Y-22348350D01*
X36216378Y-22426480D01*
X35936480Y-22706378D01*
X35785000Y-23072082D01*
X35785000Y-23467918D01*
X35936480Y-23833622D01*
X36216378Y-24113520D01*
X36582082Y-24265000D01*
X36977918Y-24265000D01*
X37343622Y-24113520D01*
X37623520Y-23833622D01*
X37775000Y-23467918D01*
X37775000Y-23072082D01*
X37623520Y-22706378D01*
X37343622Y-22426480D01*
X37155000Y-22348350D01*
X37155000Y-21651650D01*
X37343622Y-21573520D01*
X37623520Y-21293622D01*
X37701650Y-21105000D01*
X38178076Y-21105000D01*
X38215002Y-21112345D01*
X38251928Y-21105000D01*
X38251933Y-21105000D01*
X38361319Y-21083242D01*
X38485361Y-21000359D01*
X38506282Y-20969050D01*
X39634054Y-19841278D01*
X39665360Y-19820360D01*
X39683294Y-19793521D01*
X39725000Y-20730000D01*
X39698105Y-21757093D01*
X39529214Y-23495187D01*
X39206486Y-25211386D01*
X38732475Y-26892102D01*
X38110935Y-28524027D01*
X37346786Y-30094241D01*
X36446079Y-31590309D01*
X35415947Y-33000387D01*
X34264544Y-34313310D01*
X33000989Y-35518682D01*
X31635286Y-36606959D01*
X31541353Y-36669014D01*
X32075000Y-35380677D01*
X32075000Y-33799323D01*
X31469842Y-32338343D01*
X30351657Y-31220158D01*
X29808080Y-30995001D01*
X30764672Y-30995001D01*
X32458722Y-32689052D01*
X32479641Y-32720359D01*
X32510948Y-32741278D01*
X32603681Y-32803241D01*
X32603682Y-32803241D01*
X32603683Y-32803242D01*
X32669613Y-32816356D01*
X32669613Y-32900000D01*
X32690956Y-33007299D01*
X32751736Y-33098264D01*
X32842701Y-33159044D01*
X32950000Y-33180387D01*
X33450000Y-33180387D01*
X33557299Y-33159044D01*
X33648264Y-33098264D01*
X33709044Y-33007299D01*
X33730387Y-32900000D01*
X33730387Y-32000000D01*
X33709044Y-31892701D01*
X33648264Y-31801736D01*
X33557299Y-31740956D01*
X33450000Y-31719613D01*
X32950000Y-31719613D01*
X32842701Y-31740956D01*
X32751736Y-31801736D01*
X32703803Y-31873473D01*
X31430716Y-30600387D01*
X31435000Y-30600387D01*
X31542299Y-30579044D01*
X31633264Y-30518264D01*
X31694044Y-30427299D01*
X31715387Y-30320000D01*
X31715387Y-30315000D01*
X32291238Y-30315000D01*
X32508920Y-30640785D01*
X32881047Y-30889432D01*
X33209197Y-30954705D01*
X33430803Y-30954705D01*
X33758953Y-30889432D01*
X34131080Y-30640785D01*
X34379727Y-30268658D01*
X34385001Y-30242146D01*
X34385000Y-31596451D01*
X34346759Y-31653682D01*
X34327361Y-31751206D01*
X34251736Y-31801736D01*
X34190956Y-31892701D01*
X34169613Y-32000000D01*
X34169613Y-32900000D01*
X34190956Y-33007299D01*
X34251736Y-33098264D01*
X34342701Y-33159044D01*
X34450000Y-33180387D01*
X34950000Y-33180387D01*
X35057299Y-33159044D01*
X35148264Y-33098264D01*
X35209044Y-33007299D01*
X35230387Y-32900000D01*
X35230387Y-32000000D01*
X35209044Y-31892701D01*
X35148264Y-31801736D01*
X35132201Y-31791003D01*
X35135000Y-31776931D01*
X35135000Y-31776926D01*
X35142345Y-31740000D01*
X35135000Y-31703074D01*
X35135000Y-29436926D01*
X35142345Y-29399999D01*
X35135000Y-29363073D01*
X35135000Y-29363069D01*
X35113242Y-29253683D01*
X35111635Y-29251278D01*
X35051279Y-29160949D01*
X35051278Y-29160948D01*
X35030359Y-29129641D01*
X34999052Y-29108722D01*
X34953602Y-29063272D01*
X34973692Y-29061955D01*
X35071811Y-29013568D01*
X35143944Y-28931315D01*
X35273678Y-28706610D01*
X35509223Y-28549223D01*
X35791023Y-28127480D01*
X35887201Y-27643955D01*
X35993944Y-27459071D01*
X36029110Y-27355476D01*
X36021955Y-27246308D01*
X35973568Y-27148189D01*
X35891315Y-27076056D01*
X35666609Y-26946322D01*
X35580354Y-26817232D01*
X34030387Y-25267265D01*
X34030387Y-20130000D01*
X34009044Y-20022701D01*
X33948264Y-19931736D01*
X33857299Y-19870956D01*
X33750000Y-19849613D01*
X28092848Y-19849613D01*
X28904668Y-19037794D01*
X28948504Y-19008504D01*
X29064539Y-18834845D01*
X29069962Y-18807581D01*
X29105285Y-18630000D01*
X29095000Y-18578294D01*
X29095000Y-18410387D01*
X29170000Y-18410387D01*
X29277299Y-18389044D01*
X29368264Y-18328264D01*
X29429044Y-18237299D01*
X29450387Y-18130000D01*
X29450387Y-17565208D01*
X29501706Y-17555000D01*
X29654845Y-17524539D01*
X29828504Y-17408504D01*
X29857796Y-17364665D01*
X30112074Y-17110387D01*
X30350000Y-17110387D01*
X30457299Y-17089044D01*
X30548264Y-17028264D01*
X30609044Y-16937299D01*
X30630387Y-16830000D01*
X30630387Y-16704750D01*
X30767000Y-16704750D01*
X30767000Y-16945966D01*
X30855756Y-17160243D01*
X31019757Y-17324244D01*
X31234034Y-17413000D01*
X31329250Y-17413000D01*
X31475000Y-17267250D01*
X31475000Y-16559000D01*
X30912750Y-16559000D01*
X30767000Y-16704750D01*
X30630387Y-16704750D01*
X30630387Y-16404624D01*
X30635285Y-16380000D01*
X30630387Y-16355376D01*
X30630387Y-15930000D01*
X30609044Y-15822701D01*
X30603253Y-15814034D01*
X30767000Y-15814034D01*
X30767000Y-16055250D01*
X30912750Y-16201000D01*
X31475000Y-16201000D01*
X31475000Y-15492750D01*
X31329250Y-15347000D01*
X31234034Y-15347000D01*
X31019757Y-15435756D01*
X30855756Y-15599757D01*
X30767000Y-15814034D01*
X30603253Y-15814034D01*
X30548264Y-15731736D01*
X30457299Y-15670956D01*
X30350000Y-15649613D01*
X29850000Y-15649613D01*
X29742701Y-15670956D01*
X29651736Y-15731736D01*
X29590956Y-15822701D01*
X29569613Y-15930000D01*
X29569613Y-16167925D01*
X29450387Y-16287151D01*
X29450387Y-15930000D01*
X29429044Y-15822701D01*
X29368264Y-15731736D01*
X29277299Y-15670956D01*
X29170000Y-15649613D01*
X27970000Y-15649613D01*
X27862701Y-15670956D01*
X27795438Y-15715899D01*
X27808121Y-11655000D01*
X30163074Y-11655000D01*
X30200000Y-11662345D01*
X30236926Y-11655000D01*
X30236931Y-11655000D01*
X30346317Y-11633242D01*
X30470359Y-11550359D01*
X30491280Y-11519049D01*
X33027027Y-8983302D01*
X33117763Y-9202357D01*
G36*
X15028244Y-22361421D02*
X15031180Y-22375333D01*
X15031542Y-22430493D01*
X15038023Y-22460503D01*
X15054912Y-22484401D01*
X15079660Y-22500018D01*
X15108501Y-22504974D01*
X15238701Y-22501569D01*
X15258462Y-22504975D01*
X15509613Y-22498535D01*
X15509613Y-25530000D01*
X15530956Y-25637299D01*
X15591736Y-25728264D01*
X15682701Y-25789044D01*
X15790000Y-25810387D01*
X16740001Y-25810387D01*
X16740000Y-27149613D01*
X15790000Y-27149613D01*
X15682701Y-27170956D01*
X15591736Y-27231736D01*
X15530956Y-27322701D01*
X15509613Y-27430000D01*
X15509613Y-30580000D01*
X15530956Y-30687299D01*
X15585956Y-30769613D01*
X15250000Y-30769613D01*
X15142701Y-30790956D01*
X15051736Y-30851736D01*
X14990956Y-30942701D01*
X14969613Y-31050000D01*
X14969613Y-31125000D01*
X14730387Y-31125000D01*
X14730387Y-31100000D01*
X14709044Y-30992701D01*
X14648264Y-30901736D01*
X14557299Y-30840956D01*
X14450000Y-30819613D01*
X14386380Y-30819613D01*
X14448264Y-30778264D01*
X14509044Y-30687299D01*
X14530387Y-30580000D01*
X14530387Y-27430000D01*
X14509044Y-27322701D01*
X14448264Y-27231736D01*
X14357299Y-27170956D01*
X14250000Y-27149613D01*
X13250000Y-27149613D01*
X13142701Y-27170956D01*
X13051736Y-27231736D01*
X12990956Y-27322701D01*
X12969613Y-27430000D01*
X12969613Y-28555000D01*
X10901397Y-28555000D01*
X10487407Y-28141012D01*
X10497299Y-28139044D01*
X10588264Y-28078264D01*
X10649044Y-27987299D01*
X10670387Y-27880000D01*
X10670387Y-27380000D01*
X10649044Y-27272701D01*
X10588264Y-27181736D01*
X10497299Y-27120956D01*
X10390000Y-27099613D01*
X9760715Y-27099613D01*
X9805327Y-27055001D01*
X10593075Y-27055001D01*
X10630001Y-27062346D01*
X10666927Y-27055001D01*
X10666932Y-27055001D01*
X10776318Y-27033243D01*
X10900360Y-26950360D01*
X10921281Y-26919050D01*
X12969613Y-24870719D01*
X12969613Y-25530000D01*
X12990956Y-25637299D01*
X13051736Y-25728264D01*
X13142701Y-25789044D01*
X13250000Y-25810387D01*
X14250000Y-25810387D01*
X14357299Y-25789044D01*
X14448264Y-25728264D01*
X14509044Y-25637299D01*
X14530387Y-25530000D01*
X14530387Y-22380000D01*
X14509044Y-22272701D01*
X14448264Y-22181736D01*
X14357299Y-22120956D01*
X14250000Y-22099613D01*
X13520715Y-22099613D01*
X13765328Y-21855000D01*
X15029498Y-21855000D01*
X15028244Y-22361421D01*
X15028244Y-22361421D01*
G37*
X15028244Y-22361421D02*
X15031180Y-22375333D01*
X15031542Y-22430493D01*
X15038023Y-22460503D01*
X15054912Y-22484401D01*
X15079660Y-22500018D01*
X15108501Y-22504974D01*
X15238701Y-22501569D01*
X15258462Y-22504975D01*
X15509613Y-22498535D01*
X15509613Y-25530000D01*
X15530956Y-25637299D01*
X15591736Y-25728264D01*
X15682701Y-25789044D01*
X15790000Y-25810387D01*
X16740001Y-25810387D01*
X16740000Y-27149613D01*
X15790000Y-27149613D01*
X15682701Y-27170956D01*
X15591736Y-27231736D01*
X15530956Y-27322701D01*
X15509613Y-27430000D01*
X15509613Y-30580000D01*
X15530956Y-30687299D01*
X15585956Y-30769613D01*
X15250000Y-30769613D01*
X15142701Y-30790956D01*
X15051736Y-30851736D01*
X14990956Y-30942701D01*
X14969613Y-31050000D01*
X14969613Y-31125000D01*
X14730387Y-31125000D01*
X14730387Y-31100000D01*
X14709044Y-30992701D01*
X14648264Y-30901736D01*
X14557299Y-30840956D01*
X14450000Y-30819613D01*
X14386380Y-30819613D01*
X14448264Y-30778264D01*
X14509044Y-30687299D01*
X14530387Y-30580000D01*
X14530387Y-27430000D01*
X14509044Y-27322701D01*
X14448264Y-27231736D01*
X14357299Y-27170956D01*
X14250000Y-27149613D01*
X13250000Y-27149613D01*
X13142701Y-27170956D01*
X13051736Y-27231736D01*
X12990956Y-27322701D01*
X12969613Y-27430000D01*
X12969613Y-28555000D01*
X10901397Y-28555000D01*
X10487407Y-28141012D01*
X10497299Y-28139044D01*
X10588264Y-28078264D01*
X10649044Y-27987299D01*
X10670387Y-27880000D01*
X10670387Y-27380000D01*
X10649044Y-27272701D01*
X10588264Y-27181736D01*
X10497299Y-27120956D01*
X10390000Y-27099613D01*
X9760715Y-27099613D01*
X9805327Y-27055001D01*
X10593075Y-27055001D01*
X10630001Y-27062346D01*
X10666927Y-27055001D01*
X10666932Y-27055001D01*
X10776318Y-27033243D01*
X10900360Y-26950360D01*
X10921281Y-26919050D01*
X12969613Y-24870719D01*
X12969613Y-25530000D01*
X12990956Y-25637299D01*
X13051736Y-25728264D01*
X13142701Y-25789044D01*
X13250000Y-25810387D01*
X14250000Y-25810387D01*
X14357299Y-25789044D01*
X14448264Y-25728264D01*
X14509044Y-25637299D01*
X14530387Y-25530000D01*
X14530387Y-22380000D01*
X14509044Y-22272701D01*
X14448264Y-22181736D01*
X14357299Y-22120956D01*
X14250000Y-22099613D01*
X13520715Y-22099613D01*
X13765328Y-21855000D01*
X15029498Y-21855000D01*
X15028244Y-22361421D01*
G36*
X29372500Y-29611000D02*
X29409000Y-29611000D01*
X29409000Y-29969000D01*
X29372500Y-29969000D01*
X29372500Y-29989000D01*
X29047500Y-29989000D01*
X29047500Y-29969000D01*
X29011000Y-29969000D01*
X29011000Y-29611000D01*
X29047500Y-29611000D01*
X29047500Y-29591000D01*
X29372500Y-29591000D01*
X29372500Y-29611000D01*
X29372500Y-29611000D01*
G37*
X29372500Y-29611000D02*
X29409000Y-29611000D01*
X29409000Y-29969000D01*
X29372500Y-29969000D01*
X29372500Y-29989000D01*
X29047500Y-29989000D01*
X29047500Y-29969000D01*
X29011000Y-29969000D01*
X29011000Y-29611000D01*
X29047500Y-29611000D01*
X29047500Y-29591000D01*
X29372500Y-29591000D01*
X29372500Y-29611000D01*
G36*
X26965000Y-26655106D02*
X26954715Y-26706812D01*
X26988652Y-26877424D01*
X26995461Y-26911656D01*
X27111496Y-27085316D01*
X27155335Y-27114609D01*
X27965393Y-27924667D01*
X27994684Y-27968504D01*
X28168343Y-28084539D01*
X28321482Y-28115000D01*
X28373187Y-28125285D01*
X28424892Y-28115000D01*
X28604613Y-28115000D01*
X28604613Y-28120000D01*
X28625956Y-28227299D01*
X28686736Y-28318264D01*
X28777701Y-28379044D01*
X28841941Y-28391822D01*
X28856759Y-28466318D01*
X28918721Y-28559050D01*
X28918723Y-28559052D01*
X28939642Y-28590359D01*
X28970949Y-28611278D01*
X29018721Y-28659050D01*
X29030998Y-28677424D01*
X29030998Y-28806248D01*
X28901750Y-28677000D01*
X28769034Y-28677000D01*
X28554757Y-28765756D01*
X28390756Y-28929757D01*
X28302000Y-29144034D01*
X28302000Y-29465250D01*
X28447748Y-29610998D01*
X28302000Y-29610998D01*
X28302000Y-29746672D01*
X27321278Y-28765951D01*
X27300357Y-28734641D01*
X27230387Y-28687888D01*
X27230387Y-27430000D01*
X27209044Y-27322701D01*
X27148264Y-27231736D01*
X27057299Y-27170956D01*
X26950000Y-27149613D01*
X25950000Y-27149613D01*
X25947935Y-27150024D01*
X25947935Y-26762394D01*
X26689056Y-26021275D01*
X26720359Y-26000359D01*
X26741276Y-25969055D01*
X26741279Y-25969052D01*
X26803241Y-25876319D01*
X26803241Y-25876318D01*
X26803242Y-25876317D01*
X26816356Y-25810387D01*
X26950000Y-25810387D01*
X26965000Y-25807403D01*
X26965000Y-26655106D01*
X26965000Y-26655106D01*
G37*
X26965000Y-26655106D02*
X26954715Y-26706812D01*
X26988652Y-26877424D01*
X26995461Y-26911656D01*
X27111496Y-27085316D01*
X27155335Y-27114609D01*
X27965393Y-27924667D01*
X27994684Y-27968504D01*
X28168343Y-28084539D01*
X28321482Y-28115000D01*
X28373187Y-28125285D01*
X28424892Y-28115000D01*
X28604613Y-28115000D01*
X28604613Y-28120000D01*
X28625956Y-28227299D01*
X28686736Y-28318264D01*
X28777701Y-28379044D01*
X28841941Y-28391822D01*
X28856759Y-28466318D01*
X28918721Y-28559050D01*
X28918723Y-28559052D01*
X28939642Y-28590359D01*
X28970949Y-28611278D01*
X29018721Y-28659050D01*
X29030998Y-28677424D01*
X29030998Y-28806248D01*
X28901750Y-28677000D01*
X28769034Y-28677000D01*
X28554757Y-28765756D01*
X28390756Y-28929757D01*
X28302000Y-29144034D01*
X28302000Y-29465250D01*
X28447748Y-29610998D01*
X28302000Y-29610998D01*
X28302000Y-29746672D01*
X27321278Y-28765951D01*
X27300357Y-28734641D01*
X27230387Y-28687888D01*
X27230387Y-27430000D01*
X27209044Y-27322701D01*
X27148264Y-27231736D01*
X27057299Y-27170956D01*
X26950000Y-27149613D01*
X25950000Y-27149613D01*
X25947935Y-27150024D01*
X25947935Y-26762394D01*
X26689056Y-26021275D01*
X26720359Y-26000359D01*
X26741276Y-25969055D01*
X26741279Y-25969052D01*
X26803241Y-25876319D01*
X26803241Y-25876318D01*
X26803242Y-25876317D01*
X26816356Y-25810387D01*
X26950000Y-25810387D01*
X26965000Y-25807403D01*
X26965000Y-26655106D01*
G36*
X24230701Y-17863044D02*
X24338000Y-17884387D01*
X25138000Y-17884387D01*
X25238000Y-17864496D01*
X25238000Y-17895603D01*
X25138604Y-17995000D01*
X24965734Y-17995000D01*
X24918384Y-18014613D01*
X24700000Y-18014613D01*
X24592701Y-18035956D01*
X24501736Y-18096736D01*
X24440956Y-18187701D01*
X24419613Y-18295000D01*
X24419613Y-19045000D01*
X24440956Y-19152299D01*
X24501736Y-19243264D01*
X24592701Y-19304044D01*
X24650001Y-19315442D01*
X24650001Y-19379613D01*
X24630000Y-19379613D01*
X24522701Y-19400956D01*
X24431736Y-19461736D01*
X24370956Y-19552701D01*
X24349613Y-19660000D01*
X24349613Y-20160000D01*
X24370956Y-20267299D01*
X24431736Y-20358264D01*
X24522701Y-20419044D01*
X24630000Y-20440387D01*
X24705793Y-20440387D01*
X24727643Y-20462237D01*
X24975734Y-20565000D01*
X25244266Y-20565000D01*
X25492357Y-20462237D01*
X25514207Y-20440387D01*
X25530000Y-20440387D01*
X25637299Y-20419044D01*
X25728264Y-20358264D01*
X25789044Y-20267299D01*
X25810387Y-20160000D01*
X25810387Y-19660000D01*
X25789044Y-19552701D01*
X25728264Y-19461736D01*
X25637299Y-19400956D01*
X25560218Y-19385624D01*
X25550000Y-19375406D01*
X25550000Y-19315441D01*
X25607299Y-19304044D01*
X25698264Y-19243264D01*
X25759044Y-19152299D01*
X25780387Y-19045000D01*
X25780387Y-18626009D01*
X25919613Y-18486784D01*
X25919613Y-19045000D01*
X25940956Y-19152299D01*
X26001736Y-19243264D01*
X26092701Y-19304044D01*
X26200000Y-19325387D01*
X26249480Y-19325387D01*
X26275569Y-19364432D01*
X26313143Y-19389538D01*
X26414990Y-19491385D01*
X26414990Y-19884320D01*
X26414991Y-19884325D01*
X26414990Y-21878614D01*
X26307804Y-21985801D01*
X26026184Y-21985561D01*
X26113000Y-21775966D01*
X26113000Y-21680750D01*
X25967250Y-21535000D01*
X25259000Y-21535000D01*
X25259000Y-21609000D01*
X24901000Y-21609000D01*
X24901000Y-21535000D01*
X24881000Y-21535000D01*
X24881000Y-21285000D01*
X24901000Y-21285000D01*
X24901000Y-20722750D01*
X25259000Y-20722750D01*
X25259000Y-21285000D01*
X25967250Y-21285000D01*
X26113000Y-21139250D01*
X26113000Y-21044034D01*
X26024244Y-20829757D01*
X25860243Y-20665756D01*
X25645966Y-20577000D01*
X25404750Y-20577000D01*
X25259000Y-20722750D01*
X24901000Y-20722750D01*
X24755250Y-20577000D01*
X24514034Y-20577000D01*
X24299757Y-20665756D01*
X24155000Y-20810513D01*
X24155000Y-17812463D01*
X24230701Y-17863044D01*
X24230701Y-17863044D01*
G37*
X24230701Y-17863044D02*
X24338000Y-17884387D01*
X25138000Y-17884387D01*
X25238000Y-17864496D01*
X25238000Y-17895603D01*
X25138604Y-17995000D01*
X24965734Y-17995000D01*
X24918384Y-18014613D01*
X24700000Y-18014613D01*
X24592701Y-18035956D01*
X24501736Y-18096736D01*
X24440956Y-18187701D01*
X24419613Y-18295000D01*
X24419613Y-19045000D01*
X24440956Y-19152299D01*
X24501736Y-19243264D01*
X24592701Y-19304044D01*
X24650001Y-19315442D01*
X24650001Y-19379613D01*
X24630000Y-19379613D01*
X24522701Y-19400956D01*
X24431736Y-19461736D01*
X24370956Y-19552701D01*
X24349613Y-19660000D01*
X24349613Y-20160000D01*
X24370956Y-20267299D01*
X24431736Y-20358264D01*
X24522701Y-20419044D01*
X24630000Y-20440387D01*
X24705793Y-20440387D01*
X24727643Y-20462237D01*
X24975734Y-20565000D01*
X25244266Y-20565000D01*
X25492357Y-20462237D01*
X25514207Y-20440387D01*
X25530000Y-20440387D01*
X25637299Y-20419044D01*
X25728264Y-20358264D01*
X25789044Y-20267299D01*
X25810387Y-20160000D01*
X25810387Y-19660000D01*
X25789044Y-19552701D01*
X25728264Y-19461736D01*
X25637299Y-19400956D01*
X25560218Y-19385624D01*
X25550000Y-19375406D01*
X25550000Y-19315441D01*
X25607299Y-19304044D01*
X25698264Y-19243264D01*
X25759044Y-19152299D01*
X25780387Y-19045000D01*
X25780387Y-18626009D01*
X25919613Y-18486784D01*
X25919613Y-19045000D01*
X25940956Y-19152299D01*
X26001736Y-19243264D01*
X26092701Y-19304044D01*
X26200000Y-19325387D01*
X26249480Y-19325387D01*
X26275569Y-19364432D01*
X26313143Y-19389538D01*
X26414990Y-19491385D01*
X26414990Y-19884320D01*
X26414991Y-19884325D01*
X26414990Y-21878614D01*
X26307804Y-21985801D01*
X26026184Y-21985561D01*
X26113000Y-21775966D01*
X26113000Y-21680750D01*
X25967250Y-21535000D01*
X25259000Y-21535000D01*
X25259000Y-21609000D01*
X24901000Y-21609000D01*
X24901000Y-21535000D01*
X24881000Y-21535000D01*
X24881000Y-21285000D01*
X24901000Y-21285000D01*
X24901000Y-20722750D01*
X25259000Y-20722750D01*
X25259000Y-21285000D01*
X25967250Y-21285000D01*
X26113000Y-21139250D01*
X26113000Y-21044034D01*
X26024244Y-20829757D01*
X25860243Y-20665756D01*
X25645966Y-20577000D01*
X25404750Y-20577000D01*
X25259000Y-20722750D01*
X24901000Y-20722750D01*
X24755250Y-20577000D01*
X24514034Y-20577000D01*
X24299757Y-20665756D01*
X24155000Y-20810513D01*
X24155000Y-17812463D01*
X24230701Y-17863044D01*
G36*
X35035519Y-13365186D02*
X35052839Y-13355186D01*
X35231839Y-13665224D01*
X35214519Y-13675224D01*
X35224519Y-13692544D01*
X34914481Y-13871544D01*
X34904481Y-13854224D01*
X34262758Y-14224723D01*
X34262758Y-14224724D01*
X34114667Y-14310224D01*
X34124667Y-14327544D01*
X33814629Y-14506544D01*
X33804629Y-14489224D01*
X33787309Y-14499224D01*
X33608309Y-14189186D01*
X33625629Y-14179186D01*
X33615629Y-14161866D01*
X33925667Y-13982866D01*
X33935667Y-14000186D01*
X34577390Y-13629687D01*
X34577390Y-13629686D01*
X34725481Y-13544186D01*
X34715481Y-13526866D01*
X35025519Y-13347866D01*
X35035519Y-13365186D01*
X35035519Y-13365186D01*
G37*
X35035519Y-13365186D02*
X35052839Y-13355186D01*
X35231839Y-13665224D01*
X35214519Y-13675224D01*
X35224519Y-13692544D01*
X34914481Y-13871544D01*
X34904481Y-13854224D01*
X34262758Y-14224723D01*
X34262758Y-14224724D01*
X34114667Y-14310224D01*
X34124667Y-14327544D01*
X33814629Y-14506544D01*
X33804629Y-14489224D01*
X33787309Y-14499224D01*
X33608309Y-14189186D01*
X33625629Y-14179186D01*
X33615629Y-14161866D01*
X33925667Y-13982866D01*
X33935667Y-14000186D01*
X34577390Y-13629687D01*
X34577390Y-13629686D01*
X34725481Y-13544186D01*
X34715481Y-13526866D01*
X35025519Y-13347866D01*
X35035519Y-13365186D01*
G04 #@! TD*
M02*
