G04 #@! TF.GenerationSoftware,KiCad,Pcbnew,(5.0.0)*
G04 #@! TF.CreationDate,2019-01-08T13:52:07-08:00*
G04 #@! TF.ProjectId,TestPlatformBoard,54657374506C6174666F726D426F6172,rev?*
G04 #@! TF.SameCoordinates,Original*
G04 #@! TF.FileFunction,Legend,Top*
G04 #@! TF.FilePolarity,Positive*
%FSLAX46Y46*%
G04 Gerber Fmt 4.6, Leading zero omitted, Abs format (unit mm)*
G04 Created by KiCad (PCBNEW (5.0.0)) date 01/08/19 13:52:07*
%MOMM*%
%LPD*%
G01*
G04 APERTURE LIST*
%ADD10C,0.300000*%
%ADD11C,0.500000*%
%ADD12C,0.200000*%
%ADD13C,0.127000*%
%ADD14C,0.120000*%
%ADD15C,0.254000*%
%ADD16C,0.150000*%
%ADD17C,0.050000*%
G04 APERTURE END LIST*
D10*
X41421428Y-52778571D02*
X42278571Y-52778571D01*
X41850000Y-54278571D02*
X41850000Y-52778571D01*
X42778571Y-54278571D02*
X42778571Y-52778571D01*
X43350000Y-52778571D01*
X43492857Y-52850000D01*
X43564285Y-52921428D01*
X43635714Y-53064285D01*
X43635714Y-53278571D01*
X43564285Y-53421428D01*
X43492857Y-53492857D01*
X43350000Y-53564285D01*
X42778571Y-53564285D01*
X87104761Y-40830952D02*
X85771428Y-40830952D01*
X85961904Y-40830952D02*
X85866666Y-40735714D01*
X85771428Y-40545238D01*
X85771428Y-40259523D01*
X85866666Y-40069047D01*
X86057142Y-39973809D01*
X87104761Y-39973809D01*
X86057142Y-39973809D02*
X85866666Y-39878571D01*
X85771428Y-39688095D01*
X85771428Y-39402380D01*
X85866666Y-39211904D01*
X86057142Y-39116666D01*
X87104761Y-39116666D01*
X87104761Y-37878571D02*
X87009523Y-38069047D01*
X86819047Y-38164285D01*
X85104761Y-38164285D01*
X87104761Y-36259523D02*
X86057142Y-36259523D01*
X85866666Y-36354761D01*
X85771428Y-36545238D01*
X85771428Y-36926190D01*
X85866666Y-37116666D01*
X87009523Y-36259523D02*
X87104761Y-36450000D01*
X87104761Y-36926190D01*
X87009523Y-37116666D01*
X86819047Y-37211904D01*
X86628571Y-37211904D01*
X86438095Y-37116666D01*
X86342857Y-36926190D01*
X86342857Y-36450000D01*
X86247619Y-36259523D01*
X87104761Y-35307142D02*
X85104761Y-35307142D01*
X85866666Y-35307142D02*
X85771428Y-35116666D01*
X85771428Y-34735714D01*
X85866666Y-34545238D01*
X85961904Y-34450000D01*
X86152380Y-34354761D01*
X86723809Y-34354761D01*
X86914285Y-34450000D01*
X87009523Y-34545238D01*
X87104761Y-34735714D01*
X87104761Y-35116666D01*
X87009523Y-35307142D01*
X87104761Y-32450000D02*
X87104761Y-33592857D01*
X87104761Y-33021428D02*
X85104761Y-33021428D01*
X85390476Y-33211904D01*
X85580952Y-33402380D01*
X85676190Y-33592857D01*
X85104761Y-31211904D02*
X85104761Y-31021428D01*
X85200000Y-30830952D01*
X85295238Y-30735714D01*
X85485714Y-30640476D01*
X85866666Y-30545238D01*
X86342857Y-30545238D01*
X86723809Y-30640476D01*
X86914285Y-30735714D01*
X87009523Y-30830952D01*
X87104761Y-31021428D01*
X87104761Y-31211904D01*
X87009523Y-31402380D01*
X86914285Y-31497619D01*
X86723809Y-31592857D01*
X86342857Y-31688095D01*
X85866666Y-31688095D01*
X85485714Y-31592857D01*
X85295238Y-31497619D01*
X85200000Y-31402380D01*
X85104761Y-31211904D01*
X85104761Y-29307142D02*
X85104761Y-29116666D01*
X85200000Y-28926190D01*
X85295238Y-28830952D01*
X85485714Y-28735714D01*
X85866666Y-28640476D01*
X86342857Y-28640476D01*
X86723809Y-28735714D01*
X86914285Y-28830952D01*
X87009523Y-28926190D01*
X87104761Y-29116666D01*
X87104761Y-29307142D01*
X87009523Y-29497619D01*
X86914285Y-29592857D01*
X86723809Y-29688095D01*
X86342857Y-29783333D01*
X85866666Y-29783333D01*
X85485714Y-29688095D01*
X85295238Y-29592857D01*
X85200000Y-29497619D01*
X85104761Y-29307142D01*
X87104761Y-27783333D02*
X85104761Y-27783333D01*
X87104761Y-26926190D02*
X86057142Y-26926190D01*
X85866666Y-27021428D01*
X85771428Y-27211904D01*
X85771428Y-27497619D01*
X85866666Y-27688095D01*
X85961904Y-27783333D01*
X85771428Y-26164285D02*
X87104761Y-25783333D01*
X86152380Y-25402380D01*
X87104761Y-25021428D01*
X85771428Y-24640476D01*
X87104761Y-22830952D02*
X87104761Y-23973809D01*
X87104761Y-23402380D02*
X85104761Y-23402380D01*
X85390476Y-23592857D01*
X85580952Y-23783333D01*
X85676190Y-23973809D01*
X86914285Y-21973809D02*
X87009523Y-21878571D01*
X87104761Y-21973809D01*
X87009523Y-22069047D01*
X86914285Y-21973809D01*
X87104761Y-21973809D01*
X87104761Y-19973809D02*
X87104761Y-21116666D01*
X87104761Y-20545238D02*
X85104761Y-20545238D01*
X85390476Y-20735714D01*
X85580952Y-20926190D01*
X85676190Y-21116666D01*
D11*
X83994047Y-49572619D02*
X81244047Y-49572619D01*
X83208333Y-48655952D01*
X81244047Y-47739285D01*
X83994047Y-47739285D01*
X83994047Y-46429761D02*
X82160714Y-46429761D01*
X81244047Y-46429761D02*
X81375000Y-46560714D01*
X81505952Y-46429761D01*
X81375000Y-46298809D01*
X81244047Y-46429761D01*
X81505952Y-46429761D01*
X83863095Y-43941666D02*
X83994047Y-44203571D01*
X83994047Y-44727380D01*
X83863095Y-44989285D01*
X83732142Y-45120238D01*
X83470238Y-45251190D01*
X82684523Y-45251190D01*
X82422619Y-45120238D01*
X82291666Y-44989285D01*
X82160714Y-44727380D01*
X82160714Y-44203571D01*
X82291666Y-43941666D01*
X83994047Y-42763095D02*
X82160714Y-42763095D01*
X82684523Y-42763095D02*
X82422619Y-42632142D01*
X82291666Y-42501190D01*
X82160714Y-42239285D01*
X82160714Y-41977380D01*
X83994047Y-40667857D02*
X83863095Y-40929761D01*
X83732142Y-41060714D01*
X83470238Y-41191666D01*
X82684523Y-41191666D01*
X82422619Y-41060714D01*
X82291666Y-40929761D01*
X82160714Y-40667857D01*
X82160714Y-40275000D01*
X82291666Y-40013095D01*
X82422619Y-39882142D01*
X82684523Y-39751190D01*
X83470238Y-39751190D01*
X83732142Y-39882142D01*
X83863095Y-40013095D01*
X83994047Y-40275000D01*
X83994047Y-40667857D01*
X82553571Y-37655952D02*
X82684523Y-37263095D01*
X82815476Y-37132142D01*
X83077380Y-37001190D01*
X83470238Y-37001190D01*
X83732142Y-37132142D01*
X83863095Y-37263095D01*
X83994047Y-37525000D01*
X83994047Y-38572619D01*
X81244047Y-38572619D01*
X81244047Y-37655952D01*
X81375000Y-37394047D01*
X81505952Y-37263095D01*
X81767857Y-37132142D01*
X82029761Y-37132142D01*
X82291666Y-37263095D01*
X82422619Y-37394047D01*
X82553571Y-37655952D01*
X82553571Y-38572619D01*
X83994047Y-35822619D02*
X82160714Y-35822619D01*
X81244047Y-35822619D02*
X81375000Y-35953571D01*
X81505952Y-35822619D01*
X81375000Y-35691666D01*
X81244047Y-35822619D01*
X81505952Y-35822619D01*
X83994047Y-34120238D02*
X83863095Y-34382142D01*
X83732142Y-34513095D01*
X83470238Y-34644047D01*
X82684523Y-34644047D01*
X82422619Y-34513095D01*
X82291666Y-34382142D01*
X82160714Y-34120238D01*
X82160714Y-33727380D01*
X82291666Y-33465476D01*
X82422619Y-33334523D01*
X82684523Y-33203571D01*
X83470238Y-33203571D01*
X83732142Y-33334523D01*
X83863095Y-33465476D01*
X83994047Y-33727380D01*
X83994047Y-34120238D01*
X82160714Y-32417857D02*
X82160714Y-31370238D01*
X81244047Y-32025000D02*
X83601190Y-32025000D01*
X83863095Y-31894047D01*
X83994047Y-31632142D01*
X83994047Y-31370238D01*
X83994047Y-29275000D02*
X82553571Y-29275000D01*
X82291666Y-29405952D01*
X82160714Y-29667857D01*
X82160714Y-30191666D01*
X82291666Y-30453571D01*
X83863095Y-29275000D02*
X83994047Y-29536904D01*
X83994047Y-30191666D01*
X83863095Y-30453571D01*
X83601190Y-30584523D01*
X83339285Y-30584523D01*
X83077380Y-30453571D01*
X82946428Y-30191666D01*
X82946428Y-29536904D01*
X82815476Y-29275000D01*
X83994047Y-24560714D02*
X83994047Y-25870238D01*
X81244047Y-25870238D01*
X83994047Y-22465476D02*
X82553571Y-22465476D01*
X82291666Y-22596428D01*
X82160714Y-22858333D01*
X82160714Y-23382142D01*
X82291666Y-23644047D01*
X83863095Y-22465476D02*
X83994047Y-22727380D01*
X83994047Y-23382142D01*
X83863095Y-23644047D01*
X83601190Y-23775000D01*
X83339285Y-23775000D01*
X83077380Y-23644047D01*
X82946428Y-23382142D01*
X82946428Y-22727380D01*
X82815476Y-22465476D01*
X83994047Y-21155952D02*
X81244047Y-21155952D01*
X82291666Y-21155952D02*
X82160714Y-20894047D01*
X82160714Y-20370238D01*
X82291666Y-20108333D01*
X82422619Y-19977380D01*
X82684523Y-19846428D01*
X83470238Y-19846428D01*
X83732142Y-19977380D01*
X83863095Y-20108333D01*
X83994047Y-20370238D01*
X83994047Y-20894047D01*
X83863095Y-21155952D01*
X83994047Y-16572619D02*
X81244047Y-16572619D01*
X82160714Y-15263095D02*
X83994047Y-15263095D01*
X82422619Y-15263095D02*
X82291666Y-15132142D01*
X82160714Y-14870238D01*
X82160714Y-14477380D01*
X82291666Y-14215476D01*
X82553571Y-14084523D01*
X83994047Y-14084523D01*
X83863095Y-11596428D02*
X83994047Y-11858333D01*
X83994047Y-12382142D01*
X83863095Y-12644047D01*
X83732142Y-12775000D01*
X83470238Y-12905952D01*
X82684523Y-12905952D01*
X82422619Y-12775000D01*
X82291666Y-12644047D01*
X82160714Y-12382142D01*
X82160714Y-11858333D01*
X82291666Y-11596428D01*
D12*
X42700000Y-38600000D02*
X20100000Y-38600000D01*
X18000000Y-40700000D02*
X20100000Y-38600000D01*
X18000000Y-55100000D02*
X18000000Y-40700000D01*
X47800000Y-55100000D02*
X47800000Y-44200000D01*
X42700000Y-55100000D02*
X47800000Y-55100000D01*
X50300000Y-44200000D02*
X47800000Y-44200000D01*
X50300000Y-38700000D02*
X50300000Y-44200000D01*
X42700000Y-30500000D02*
X42700000Y-38600000D01*
X43200000Y-30500000D02*
X42700000Y-30500000D01*
X50300000Y-31800000D02*
X50300000Y-37500000D01*
X49800000Y-31800000D02*
X50300000Y-31800000D01*
X50300000Y-37500000D02*
X50300000Y-38700000D01*
X18000000Y-55100000D02*
X42700000Y-55100000D01*
X6350000Y-31350000D02*
X6350000Y-6350000D01*
X41350000Y-31350000D02*
X6350000Y-31350000D01*
X41350000Y-6350000D02*
X41350000Y-31350000D01*
X6350000Y-6350000D02*
X41350000Y-6350000D01*
D13*
G04 #@! TO.C,U1*
X52150000Y-150000D02*
X80050000Y-150000D01*
X52150000Y-54550000D02*
X52150000Y-150000D01*
X80050000Y-54550000D02*
X52150000Y-54550000D01*
X80050000Y-150000D02*
X80050000Y-54550000D01*
D14*
G04 #@! TO.C,U2*
X61590000Y-56700000D02*
X49790000Y-56700000D01*
X61590000Y-65400000D02*
X61590000Y-56700000D01*
X49790000Y-65400000D02*
X61590000Y-65400000D01*
X49790000Y-56700000D02*
X49790000Y-65400000D01*
X49640000Y-65550000D02*
X51790000Y-65550000D01*
X49640000Y-63400000D02*
X49640000Y-65550000D01*
G04 #@! TO.C,R4*
X74400000Y-26120000D02*
X75600000Y-26120000D01*
X75600000Y-27880000D02*
X74400000Y-27880000D01*
G04 #@! TO.C,Q1*
X14880000Y-54040000D02*
X13950000Y-54040000D01*
X11720000Y-54040000D02*
X12650000Y-54040000D01*
X11720000Y-54040000D02*
X11720000Y-57200000D01*
X14880000Y-54040000D02*
X14880000Y-55500000D01*
G04 #@! TO.C,C9*
X35950000Y-42600000D02*
X35950000Y-43600000D01*
X37650000Y-43600000D02*
X37650000Y-42600000D01*
G04 #@! TO.C,C10*
X27050000Y-43750000D02*
X27050000Y-42750000D01*
X25350000Y-42750000D02*
X25350000Y-43750000D01*
G04 #@! TO.C,R1*
X74400000Y-15820000D02*
X75600000Y-15820000D01*
X75600000Y-17580000D02*
X74400000Y-17580000D01*
G04 #@! TO.C,R5*
X28280000Y-66200000D02*
X28280000Y-67400000D01*
X26520000Y-67400000D02*
X26520000Y-66200000D01*
G04 #@! TO.C,R6*
X75600000Y-22680000D02*
X74400000Y-22680000D01*
X74400000Y-20920000D02*
X75600000Y-20920000D01*
G04 #@! TO.C,R2*
X74400000Y-10720000D02*
X75600000Y-10720000D01*
X75600000Y-12480000D02*
X74400000Y-12480000D01*
G04 #@! TO.C,R8*
X75600000Y-25180000D02*
X74400000Y-25180000D01*
X74400000Y-23420000D02*
X75600000Y-23420000D01*
G04 #@! TO.C,R7*
X12980000Y-66200000D02*
X12980000Y-67400000D01*
X11220000Y-67400000D02*
X11220000Y-66200000D01*
G04 #@! TO.C,R3*
X75730000Y-33050000D02*
X74530000Y-33050000D01*
X74530000Y-31290000D02*
X75730000Y-31290000D01*
D12*
G04 #@! TO.C,IC4*
X45350000Y-29675000D02*
X47650000Y-29675000D01*
X47650000Y-29675000D02*
X47650000Y-32675000D01*
X47650000Y-32675000D02*
X45350000Y-32675000D01*
X45350000Y-32675000D02*
X45350000Y-29675000D01*
X43600000Y-29625000D02*
X45000000Y-29625000D01*
G04 #@! TO.C,IC5*
X45100000Y-21750000D02*
X48300000Y-21750000D01*
X48300000Y-21750000D02*
X48300000Y-26650000D01*
X48300000Y-26650000D02*
X45100000Y-26650000D01*
X45100000Y-26650000D02*
X45100000Y-21750000D01*
X43225000Y-21620000D02*
X44750000Y-21620000D01*
D14*
G04 #@! TO.C,J1*
X84570000Y-51870000D02*
X85900000Y-51870000D01*
X84570000Y-53200000D02*
X84570000Y-51870000D01*
X84570000Y-54470000D02*
X87230000Y-54470000D01*
X87230000Y-54470000D02*
X87230000Y-62150000D01*
X84570000Y-54470000D02*
X84570000Y-62150000D01*
X84570000Y-62150000D02*
X87230000Y-62150000D01*
G04 #@! TO.C,J2*
X29470000Y-9770000D02*
X30800000Y-9770000D01*
X29470000Y-11100000D02*
X29470000Y-9770000D01*
X29470000Y-12370000D02*
X32130000Y-12370000D01*
X32130000Y-12370000D02*
X32130000Y-14970000D01*
X29470000Y-12370000D02*
X29470000Y-14970000D01*
X29470000Y-14970000D02*
X32130000Y-14970000D01*
D12*
G04 #@! TO.C,IC3*
X46850000Y-41137000D02*
X46850000Y-42260000D01*
X49750000Y-41137000D02*
X49750000Y-42260000D01*
X47950000Y-40901000D02*
X48650000Y-40901000D01*
D15*
X47378300Y-43712000D02*
G75*
G03X47378300Y-43712000I-59300J0D01*
G01*
D14*
G04 #@! TO.C,IC1*
X16850000Y-44530000D02*
X16850000Y-43030000D01*
X16850000Y-43030000D02*
X16580000Y-43030000D01*
X16580000Y-43030000D02*
X16580000Y-40200000D01*
X9950000Y-44530000D02*
X9950000Y-43030000D01*
X9950000Y-43030000D02*
X10220000Y-43030000D01*
X10220000Y-43030000D02*
X10220000Y-41930000D01*
G04 #@! TO.C,IC2*
X2220000Y-43030000D02*
X2220000Y-41930000D01*
X1950000Y-43030000D02*
X2220000Y-43030000D01*
X1950000Y-44530000D02*
X1950000Y-43030000D01*
X8580000Y-43030000D02*
X8580000Y-40200000D01*
X8850000Y-43030000D02*
X8580000Y-43030000D01*
X8850000Y-44530000D02*
X8850000Y-43030000D01*
G04 #@! TO.C,D4*
X20360000Y-18850462D02*
G75*
G03X14810000Y-17305170I-2990000J462D01*
G01*
X20360000Y-18849538D02*
G75*
G02X14810000Y-20394830I-2990000J-462D01*
G01*
X19870000Y-18850000D02*
G75*
G03X19870000Y-18850000I-2500000J0D01*
G01*
X14810000Y-17305000D02*
X14810000Y-20395000D01*
G04 #@! TO.C,D5*
X19930000Y-4720000D02*
X19930000Y-1630000D01*
X19870000Y-3175000D02*
G75*
G03X19870000Y-3175000I-2500000J0D01*
G01*
X14380000Y-3175462D02*
G75*
G02X19930000Y-1630170I2990000J462D01*
G01*
X14380000Y-3174538D02*
G75*
G03X19930000Y-4719830I2990000J-462D01*
G01*
G04 #@! TO.C,D7*
X24230000Y-74445000D02*
X24230000Y-71355000D01*
X24170000Y-72900000D02*
G75*
G03X24170000Y-72900000I-2500000J0D01*
G01*
X18680000Y-72900462D02*
G75*
G02X24230000Y-71355170I2990000J462D01*
G01*
X18680000Y-72899538D02*
G75*
G03X24230000Y-74444830I2990000J-462D01*
G01*
G04 #@! TO.C,C8*
X44450000Y-41200000D02*
X44450000Y-42200000D01*
X46150000Y-42200000D02*
X46150000Y-41200000D01*
G04 #@! TO.C,C6*
X47000000Y-33250000D02*
X46000000Y-33250000D01*
X46000000Y-34950000D02*
X47000000Y-34950000D01*
G04 #@! TO.C,C7*
X45950000Y-36950000D02*
X46950000Y-36950000D01*
X46950000Y-35250000D02*
X45950000Y-35250000D01*
G04 #@! TO.C,C5*
X47300000Y-46550000D02*
X48300000Y-46550000D01*
X48300000Y-44850000D02*
X47300000Y-44850000D01*
G04 #@! TO.C,JP1*
X48350000Y-48680000D02*
X47150000Y-48680000D01*
X47150000Y-46920000D02*
X48350000Y-46920000D01*
G04 #@! TO.C,J3*
X29470000Y-21470000D02*
X30800000Y-21470000D01*
X29470000Y-22800000D02*
X29470000Y-21470000D01*
X29470000Y-24070000D02*
X32130000Y-24070000D01*
X32130000Y-24070000D02*
X32130000Y-29210000D01*
X29470000Y-24070000D02*
X29470000Y-29210000D01*
X29470000Y-29210000D02*
X32130000Y-29210000D01*
G04 #@! TO.C,Q6*
X21520000Y-67560000D02*
X21520000Y-66100000D01*
X24680000Y-67560000D02*
X24680000Y-64400000D01*
X24680000Y-67560000D02*
X23750000Y-67560000D01*
X21520000Y-67560000D02*
X22450000Y-67560000D01*
G04 #@! TO.C,Q2*
X29220000Y-67560000D02*
X29220000Y-66100000D01*
X32380000Y-67560000D02*
X32380000Y-64400000D01*
X32380000Y-67560000D02*
X31450000Y-67560000D01*
X29220000Y-67560000D02*
X30150000Y-67560000D01*
G04 #@! TO.C,J5*
X76330000Y-72870000D02*
X76330000Y-74200000D01*
X75000000Y-72870000D02*
X76330000Y-72870000D01*
X73730000Y-72870000D02*
X73730000Y-75530000D01*
X73730000Y-75530000D02*
X55890000Y-75530000D01*
X73730000Y-72870000D02*
X55890000Y-72870000D01*
X55890000Y-72870000D02*
X55890000Y-75530000D01*
G04 #@! TO.C,Q5*
X6980000Y-53840000D02*
X6050000Y-53840000D01*
X3820000Y-53840000D02*
X4750000Y-53840000D01*
X3820000Y-53840000D02*
X3820000Y-57000000D01*
X6980000Y-53840000D02*
X6980000Y-55300000D01*
G04 #@! TO.C,Q4*
X13820000Y-67560000D02*
X13820000Y-66100000D01*
X16980000Y-67560000D02*
X16980000Y-64400000D01*
X16980000Y-67560000D02*
X16050000Y-67560000D01*
X13820000Y-67560000D02*
X14750000Y-67560000D01*
G04 #@! TO.C,C1*
X29100000Y-52250000D02*
X28100000Y-52250000D01*
X28100000Y-53950000D02*
X29100000Y-53950000D01*
G04 #@! TO.C,C4*
X46450000Y-59350000D02*
X46450000Y-58350000D01*
X44750000Y-58350000D02*
X44750000Y-59350000D01*
G04 #@! TO.C,C2*
X34700000Y-52250000D02*
X33700000Y-52250000D01*
X33700000Y-53950000D02*
X34700000Y-53950000D01*
G04 #@! TO.C,C3*
X47350000Y-58450000D02*
X47350000Y-59450000D01*
X49050000Y-59450000D02*
X49050000Y-58450000D01*
G04 #@! TO.C,RV1*
X32809000Y-49125000D02*
X34421000Y-47515000D01*
X32669000Y-48984000D02*
X34280000Y-47374000D01*
X32215000Y-51870000D02*
X32215000Y-46919000D01*
X41865000Y-51870000D02*
X41865000Y-46919000D01*
X41865000Y-46919000D02*
X32215000Y-46919000D01*
X41865000Y-51870000D02*
X32215000Y-51870000D01*
X33524879Y-47095948D02*
G75*
G02X34674000Y-48490000I20121J-1154052D01*
G01*
X33585309Y-49404296D02*
G75*
G02X33545000Y-47095000I-40309J1154296D01*
G01*
G04 #@! TO.C,R11*
X22730000Y-43300000D02*
X22730000Y-41300000D01*
X24870000Y-41300000D02*
X24870000Y-43300000D01*
G04 #@! TO.C,R9*
X20680000Y-66200000D02*
X20680000Y-67400000D01*
X18920000Y-67400000D02*
X18920000Y-66200000D01*
G04 #@! TO.C,R10*
X40270000Y-41100000D02*
X40270000Y-43100000D01*
X38130000Y-43100000D02*
X38130000Y-41100000D01*
D16*
G04 #@! TO.C,U3*
X32008000Y-45432000D02*
X32008000Y-45940000D01*
X30738000Y-45432000D02*
X32008000Y-45432000D01*
X30738000Y-45940000D02*
X30738000Y-45432000D01*
X33786000Y-45940000D02*
X29214000Y-45940000D01*
X33786000Y-40860000D02*
X33786000Y-45940000D01*
X29214000Y-40860000D02*
X33786000Y-40860000D01*
X29214000Y-45940000D02*
X29214000Y-40860000D01*
D14*
G04 #@! TO.C,RV2*
X29214691Y-49395704D02*
G75*
G02X29255000Y-51705000I40309J-1154296D01*
G01*
X29275121Y-51704052D02*
G75*
G02X28126000Y-50310000I-20121J1154052D01*
G01*
X20935000Y-46930000D02*
X30585000Y-46930000D01*
X20935000Y-51881000D02*
X30585000Y-51881000D01*
X20935000Y-46930000D02*
X20935000Y-51881000D01*
X30585000Y-46930000D02*
X30585000Y-51881000D01*
X30131000Y-49816000D02*
X28520000Y-51426000D01*
X29991000Y-49675000D02*
X28379000Y-51285000D01*
G04 #@! TO.C,J4*
X40300000Y-66100000D02*
X42900000Y-66100000D01*
X40300000Y-80800000D02*
X40300000Y-66100000D01*
X49500000Y-66100000D02*
X49500000Y-68000000D01*
X46800000Y-66100000D02*
X49500000Y-66100000D01*
X49500000Y-80800000D02*
X40300000Y-80800000D01*
X49500000Y-72000000D02*
X49500000Y-80800000D01*
G04 #@! TO.C,D1*
X20420000Y-34600462D02*
G75*
G03X14870000Y-33055170I-2990000J462D01*
G01*
X20420000Y-34599538D02*
G75*
G02X14870000Y-36144830I-2990000J-462D01*
G01*
X19930000Y-34600000D02*
G75*
G03X19930000Y-34600000I-2500000J0D01*
G01*
X14870000Y-33055000D02*
X14870000Y-36145000D01*
G04 #@! TO.C,D2*
X4720000Y-16310000D02*
X1630000Y-16310000D01*
X5675000Y-18870000D02*
G75*
G03X5675000Y-18870000I-2500000J0D01*
G01*
X3175462Y-21860000D02*
G75*
G02X1630170Y-16310000I-462J2990000D01*
G01*
X3174538Y-21860000D02*
G75*
G03X4719830Y-16310000I462J2990000D01*
G01*
G04 #@! TO.C,D3*
X31950000Y-74445000D02*
X31950000Y-71355000D01*
X31890000Y-72900000D02*
G75*
G03X31890000Y-72900000I-2500000J0D01*
G01*
X26400000Y-72900462D02*
G75*
G02X31950000Y-71355170I2990000J462D01*
G01*
X26400000Y-72899538D02*
G75*
G03X31950000Y-74444830I2990000J-462D01*
G01*
G04 #@! TO.C,D6*
X11020000Y-72899538D02*
G75*
G03X16570000Y-74444830I2990000J-462D01*
G01*
X11020000Y-72900462D02*
G75*
G02X16570000Y-71355170I2990000J462D01*
G01*
X16510000Y-72900000D02*
G75*
G03X16510000Y-72900000I-2500000J0D01*
G01*
X16570000Y-74445000D02*
X16570000Y-71355000D01*
G04 #@! TO.C,J6*
X76330000Y-68870000D02*
X76330000Y-70200000D01*
X75000000Y-68870000D02*
X76330000Y-68870000D01*
X73730000Y-68870000D02*
X73730000Y-71530000D01*
X73730000Y-71530000D02*
X63510000Y-71530000D01*
X73730000Y-68870000D02*
X63510000Y-68870000D01*
X63510000Y-68870000D02*
X63510000Y-71530000D01*
G04 #@! TO.C,J7*
X76330000Y-64870000D02*
X76330000Y-66200000D01*
X75000000Y-64870000D02*
X76330000Y-64870000D01*
X73730000Y-64870000D02*
X73730000Y-67530000D01*
X73730000Y-67530000D02*
X66050000Y-67530000D01*
X73730000Y-64870000D02*
X66050000Y-64870000D01*
X66050000Y-64870000D02*
X66050000Y-67530000D01*
G04 #@! TO.C,J8*
X44030000Y-51330000D02*
X44030000Y-52730000D01*
X45430000Y-51330000D02*
X44030000Y-51330000D01*
X44280000Y-54420000D02*
X44280000Y-52830000D01*
X47120000Y-54420000D02*
X44280000Y-54420000D01*
X47120000Y-51580000D02*
X47120000Y-54420000D01*
X45530000Y-51580000D02*
X47120000Y-51580000D01*
G04 #@! TO.C,Q3*
X39550000Y-2730000D02*
X39550000Y-4190000D01*
X36390000Y-2730000D02*
X36390000Y-5890000D01*
X36390000Y-2730000D02*
X37320000Y-2730000D01*
X39550000Y-2730000D02*
X38620000Y-2730000D01*
G04 #@! TO.C,Q7*
X42945001Y-7485001D02*
X41845001Y-7485001D01*
X42945001Y-7755001D02*
X42945001Y-7485001D01*
X44445001Y-7755001D02*
X42945001Y-7755001D01*
X42945001Y-1125001D02*
X40115001Y-1125001D01*
X42945001Y-855001D02*
X42945001Y-1125001D01*
X44445001Y-855001D02*
X42945001Y-855001D01*
G04 #@! TO.C,R14*
X31070000Y-4760000D02*
X31070000Y-3560000D01*
X32830000Y-3560000D02*
X32830000Y-4760000D01*
G04 #@! TO.C,R15*
X34050000Y-4390000D02*
X34050000Y-3190000D01*
X35810000Y-3190000D02*
X35810000Y-4390000D01*
G04 #@! TO.C,U1*
D17*
X76802198Y-55298167D02*
X76802198Y-56108006D01*
X76849835Y-56203282D01*
X76897473Y-56250919D01*
X76992748Y-56298557D01*
X77183299Y-56298557D01*
X77278574Y-56250919D01*
X77326211Y-56203282D01*
X77373849Y-56108006D01*
X77373849Y-55298167D01*
X78374239Y-56298557D02*
X77802588Y-56298557D01*
X78088413Y-56298557D02*
X78088413Y-55298167D01*
X77993138Y-55441080D01*
X77897863Y-55536355D01*
X77802588Y-55583993D01*
X58258441Y-3078496D02*
X58592125Y-3078496D01*
X58735132Y-3602855D02*
X58258441Y-3602855D01*
X58258441Y-2601805D01*
X58735132Y-2601805D01*
X59116484Y-3555186D02*
X59259491Y-3602855D01*
X59497836Y-3602855D01*
X59593175Y-3555186D01*
X59640844Y-3507517D01*
X59688513Y-3412179D01*
X59688513Y-3316841D01*
X59640844Y-3221503D01*
X59593175Y-3173834D01*
X59497836Y-3126165D01*
X59307160Y-3078496D01*
X59211822Y-3030827D01*
X59164153Y-2983158D01*
X59116484Y-2887820D01*
X59116484Y-2792482D01*
X59164153Y-2697144D01*
X59211822Y-2649475D01*
X59307160Y-2601805D01*
X59545505Y-2601805D01*
X59688513Y-2649475D01*
X60117534Y-3602855D02*
X60117534Y-2601805D01*
X60498886Y-2601805D01*
X60594225Y-2649475D01*
X60641894Y-2697144D01*
X60689563Y-2792482D01*
X60689563Y-2935489D01*
X60641894Y-3030827D01*
X60594225Y-3078496D01*
X60498886Y-3126165D01*
X60117534Y-3126165D01*
X61023246Y-2601805D02*
X61642944Y-2601805D01*
X61309260Y-2983158D01*
X61452267Y-2983158D01*
X61547605Y-3030827D01*
X61595275Y-3078496D01*
X61642944Y-3173834D01*
X61642944Y-3412179D01*
X61595275Y-3507517D01*
X61547605Y-3555186D01*
X61452267Y-3602855D01*
X61166253Y-3602855D01*
X61070915Y-3555186D01*
X61023246Y-3507517D01*
X62024296Y-2697144D02*
X62071965Y-2649475D01*
X62167303Y-2601805D01*
X62405648Y-2601805D01*
X62500986Y-2649475D01*
X62548655Y-2697144D01*
X62596325Y-2792482D01*
X62596325Y-2887820D01*
X62548655Y-3030827D01*
X61976627Y-3602855D01*
X62596325Y-3602855D01*
X63025346Y-3221503D02*
X63788051Y-3221503D01*
X64264741Y-3602855D02*
X64264741Y-2601805D01*
X64503086Y-2601805D01*
X64646094Y-2649475D01*
X64741432Y-2744813D01*
X64789101Y-2840151D01*
X64836770Y-3030827D01*
X64836770Y-3173834D01*
X64789101Y-3364510D01*
X64741432Y-3459848D01*
X64646094Y-3555186D01*
X64503086Y-3602855D01*
X64264741Y-3602855D01*
X65265791Y-3078496D02*
X65599475Y-3078496D01*
X65742482Y-3602855D02*
X65265791Y-3602855D01*
X65265791Y-2601805D01*
X65742482Y-2601805D01*
X66028496Y-2601805D02*
X66362179Y-3602855D01*
X66695863Y-2601805D01*
X67029546Y-3602855D02*
X67029546Y-2601805D01*
X67601575Y-3602855D02*
X67172553Y-3030827D01*
X67601575Y-2601805D02*
X67029546Y-3173834D01*
X68030596Y-3602855D02*
X68030596Y-2601805D01*
X68364279Y-2601805D02*
X68936308Y-2601805D01*
X68650294Y-3602855D02*
X68650294Y-2601805D01*
X69842020Y-3507517D02*
X69794351Y-3555186D01*
X69651344Y-3602855D01*
X69556005Y-3602855D01*
X69412998Y-3555186D01*
X69317660Y-3459848D01*
X69269991Y-3364510D01*
X69222322Y-3173834D01*
X69222322Y-3030827D01*
X69269991Y-2840151D01*
X69317660Y-2744813D01*
X69412998Y-2649475D01*
X69556005Y-2601805D01*
X69651344Y-2601805D01*
X69794351Y-2649475D01*
X69842020Y-2697144D01*
X70271041Y-3221503D02*
X71033746Y-3221503D01*
X71415098Y-2601805D02*
X72034796Y-2601805D01*
X71701113Y-2983158D01*
X71844120Y-2983158D01*
X71939458Y-3030827D01*
X71987127Y-3078496D01*
X72034796Y-3173834D01*
X72034796Y-3412179D01*
X71987127Y-3507517D01*
X71939458Y-3555186D01*
X71844120Y-3602855D01*
X71558105Y-3602855D01*
X71462767Y-3555186D01*
X71415098Y-3507517D01*
X72416148Y-2697144D02*
X72463817Y-2649475D01*
X72559155Y-2601805D01*
X72797501Y-2601805D01*
X72892839Y-2649475D01*
X72940508Y-2697144D01*
X72988177Y-2792482D01*
X72988177Y-2887820D01*
X72940508Y-3030827D01*
X72368479Y-3602855D01*
X72988177Y-3602855D01*
X73417198Y-3602855D02*
X73417198Y-2601805D01*
X73655544Y-2601805D01*
X73798551Y-2649475D01*
X73893889Y-2744813D01*
X73941558Y-2840151D01*
X73989227Y-3030827D01*
X73989227Y-3173834D01*
X73941558Y-3364510D01*
X73893889Y-3459848D01*
X73798551Y-3555186D01*
X73655544Y-3602855D01*
X73417198Y-3602855D01*
G04 #@! TO.C,U2*
D16*
X54878095Y-55202380D02*
X54878095Y-56011904D01*
X54925714Y-56107142D01*
X54973333Y-56154761D01*
X55068571Y-56202380D01*
X55259047Y-56202380D01*
X55354285Y-56154761D01*
X55401904Y-56107142D01*
X55449523Y-56011904D01*
X55449523Y-55202380D01*
X55878095Y-55297619D02*
X55925714Y-55250000D01*
X56020952Y-55202380D01*
X56259047Y-55202380D01*
X56354285Y-55250000D01*
X56401904Y-55297619D01*
X56449523Y-55392857D01*
X56449523Y-55488095D01*
X56401904Y-55630952D01*
X55830476Y-56202380D01*
X56449523Y-56202380D01*
G04 #@! TO.C,R4*
X70852380Y-27166666D02*
X70376190Y-27500000D01*
X70852380Y-27738095D02*
X69852380Y-27738095D01*
X69852380Y-27357142D01*
X69900000Y-27261904D01*
X69947619Y-27214285D01*
X70042857Y-27166666D01*
X70185714Y-27166666D01*
X70280952Y-27214285D01*
X70328571Y-27261904D01*
X70376190Y-27357142D01*
X70376190Y-27738095D01*
X70185714Y-26309523D02*
X70852380Y-26309523D01*
X69804761Y-26547619D02*
X70519047Y-26785714D01*
X70519047Y-26166666D01*
G04 #@! TO.C,Q1*
X11247619Y-56245238D02*
X11200000Y-56340476D01*
X11104761Y-56435714D01*
X10961904Y-56578571D01*
X10914285Y-56673809D01*
X10914285Y-56769047D01*
X11152380Y-56721428D02*
X11104761Y-56816666D01*
X11009523Y-56911904D01*
X10819047Y-56959523D01*
X10485714Y-56959523D01*
X10295238Y-56911904D01*
X10200000Y-56816666D01*
X10152380Y-56721428D01*
X10152380Y-56530952D01*
X10200000Y-56435714D01*
X10295238Y-56340476D01*
X10485714Y-56292857D01*
X10819047Y-56292857D01*
X11009523Y-56340476D01*
X11104761Y-56435714D01*
X11152380Y-56530952D01*
X11152380Y-56721428D01*
X11152380Y-55340476D02*
X11152380Y-55911904D01*
X11152380Y-55626190D02*
X10152380Y-55626190D01*
X10295238Y-55721428D01*
X10390476Y-55816666D01*
X10438095Y-55911904D01*
G04 #@! TO.C,C9*
X36583333Y-46407142D02*
X36535714Y-46454761D01*
X36392857Y-46502380D01*
X36297619Y-46502380D01*
X36154761Y-46454761D01*
X36059523Y-46359523D01*
X36011904Y-46264285D01*
X35964285Y-46073809D01*
X35964285Y-45930952D01*
X36011904Y-45740476D01*
X36059523Y-45645238D01*
X36154761Y-45550000D01*
X36297619Y-45502380D01*
X36392857Y-45502380D01*
X36535714Y-45550000D01*
X36583333Y-45597619D01*
X37059523Y-46502380D02*
X37250000Y-46502380D01*
X37345238Y-46454761D01*
X37392857Y-46407142D01*
X37488095Y-46264285D01*
X37535714Y-46073809D01*
X37535714Y-45692857D01*
X37488095Y-45597619D01*
X37440476Y-45550000D01*
X37345238Y-45502380D01*
X37154761Y-45502380D01*
X37059523Y-45550000D01*
X37011904Y-45597619D01*
X36964285Y-45692857D01*
X36964285Y-45930952D01*
X37011904Y-46026190D01*
X37059523Y-46073809D01*
X37154761Y-46121428D01*
X37345238Y-46121428D01*
X37440476Y-46073809D01*
X37488095Y-46026190D01*
X37535714Y-45930952D01*
G04 #@! TO.C,C10*
X25507142Y-46607142D02*
X25459523Y-46654761D01*
X25316666Y-46702380D01*
X25221428Y-46702380D01*
X25078571Y-46654761D01*
X24983333Y-46559523D01*
X24935714Y-46464285D01*
X24888095Y-46273809D01*
X24888095Y-46130952D01*
X24935714Y-45940476D01*
X24983333Y-45845238D01*
X25078571Y-45750000D01*
X25221428Y-45702380D01*
X25316666Y-45702380D01*
X25459523Y-45750000D01*
X25507142Y-45797619D01*
X26459523Y-46702380D02*
X25888095Y-46702380D01*
X26173809Y-46702380D02*
X26173809Y-45702380D01*
X26078571Y-45845238D01*
X25983333Y-45940476D01*
X25888095Y-45988095D01*
X27078571Y-45702380D02*
X27173809Y-45702380D01*
X27269047Y-45750000D01*
X27316666Y-45797619D01*
X27364285Y-45892857D01*
X27411904Y-46083333D01*
X27411904Y-46321428D01*
X27364285Y-46511904D01*
X27316666Y-46607142D01*
X27269047Y-46654761D01*
X27173809Y-46702380D01*
X27078571Y-46702380D01*
X26983333Y-46654761D01*
X26935714Y-46607142D01*
X26888095Y-46511904D01*
X26840476Y-46321428D01*
X26840476Y-46083333D01*
X26888095Y-45892857D01*
X26935714Y-45797619D01*
X26983333Y-45750000D01*
X27078571Y-45702380D01*
G04 #@! TO.C,R1*
X70852380Y-16866666D02*
X70376190Y-17200000D01*
X70852380Y-17438095D02*
X69852380Y-17438095D01*
X69852380Y-17057142D01*
X69900000Y-16961904D01*
X69947619Y-16914285D01*
X70042857Y-16866666D01*
X70185714Y-16866666D01*
X70280952Y-16914285D01*
X70328571Y-16961904D01*
X70376190Y-17057142D01*
X70376190Y-17438095D01*
X70852380Y-15914285D02*
X70852380Y-16485714D01*
X70852380Y-16200000D02*
X69852380Y-16200000D01*
X69995238Y-16295238D01*
X70090476Y-16390476D01*
X70138095Y-16485714D01*
G04 #@! TO.C,R5*
X27233333Y-63552380D02*
X26900000Y-63076190D01*
X26661904Y-63552380D02*
X26661904Y-62552380D01*
X27042857Y-62552380D01*
X27138095Y-62600000D01*
X27185714Y-62647619D01*
X27233333Y-62742857D01*
X27233333Y-62885714D01*
X27185714Y-62980952D01*
X27138095Y-63028571D01*
X27042857Y-63076190D01*
X26661904Y-63076190D01*
X28138095Y-62552380D02*
X27661904Y-62552380D01*
X27614285Y-63028571D01*
X27661904Y-62980952D01*
X27757142Y-62933333D01*
X27995238Y-62933333D01*
X28090476Y-62980952D01*
X28138095Y-63028571D01*
X28185714Y-63123809D01*
X28185714Y-63361904D01*
X28138095Y-63457142D01*
X28090476Y-63504761D01*
X27995238Y-63552380D01*
X27757142Y-63552380D01*
X27661904Y-63504761D01*
X27614285Y-63457142D01*
G04 #@! TO.C,R6*
X70852380Y-22066666D02*
X70376190Y-22400000D01*
X70852380Y-22638095D02*
X69852380Y-22638095D01*
X69852380Y-22257142D01*
X69900000Y-22161904D01*
X69947619Y-22114285D01*
X70042857Y-22066666D01*
X70185714Y-22066666D01*
X70280952Y-22114285D01*
X70328571Y-22161904D01*
X70376190Y-22257142D01*
X70376190Y-22638095D01*
X69852380Y-21209523D02*
X69852380Y-21400000D01*
X69900000Y-21495238D01*
X69947619Y-21542857D01*
X70090476Y-21638095D01*
X70280952Y-21685714D01*
X70661904Y-21685714D01*
X70757142Y-21638095D01*
X70804761Y-21590476D01*
X70852380Y-21495238D01*
X70852380Y-21304761D01*
X70804761Y-21209523D01*
X70757142Y-21161904D01*
X70661904Y-21114285D01*
X70423809Y-21114285D01*
X70328571Y-21161904D01*
X70280952Y-21209523D01*
X70233333Y-21304761D01*
X70233333Y-21495238D01*
X70280952Y-21590476D01*
X70328571Y-21638095D01*
X70423809Y-21685714D01*
G04 #@! TO.C,R2*
X70852380Y-11766666D02*
X70376190Y-12100000D01*
X70852380Y-12338095D02*
X69852380Y-12338095D01*
X69852380Y-11957142D01*
X69900000Y-11861904D01*
X69947619Y-11814285D01*
X70042857Y-11766666D01*
X70185714Y-11766666D01*
X70280952Y-11814285D01*
X70328571Y-11861904D01*
X70376190Y-11957142D01*
X70376190Y-12338095D01*
X69947619Y-11385714D02*
X69900000Y-11338095D01*
X69852380Y-11242857D01*
X69852380Y-11004761D01*
X69900000Y-10909523D01*
X69947619Y-10861904D01*
X70042857Y-10814285D01*
X70138095Y-10814285D01*
X70280952Y-10861904D01*
X70852380Y-11433333D01*
X70852380Y-10814285D01*
G04 #@! TO.C,R8*
X70852380Y-24566666D02*
X70376190Y-24900000D01*
X70852380Y-25138095D02*
X69852380Y-25138095D01*
X69852380Y-24757142D01*
X69900000Y-24661904D01*
X69947619Y-24614285D01*
X70042857Y-24566666D01*
X70185714Y-24566666D01*
X70280952Y-24614285D01*
X70328571Y-24661904D01*
X70376190Y-24757142D01*
X70376190Y-25138095D01*
X70280952Y-23995238D02*
X70233333Y-24090476D01*
X70185714Y-24138095D01*
X70090476Y-24185714D01*
X70042857Y-24185714D01*
X69947619Y-24138095D01*
X69900000Y-24090476D01*
X69852380Y-23995238D01*
X69852380Y-23804761D01*
X69900000Y-23709523D01*
X69947619Y-23661904D01*
X70042857Y-23614285D01*
X70090476Y-23614285D01*
X70185714Y-23661904D01*
X70233333Y-23709523D01*
X70280952Y-23804761D01*
X70280952Y-23995238D01*
X70328571Y-24090476D01*
X70376190Y-24138095D01*
X70471428Y-24185714D01*
X70661904Y-24185714D01*
X70757142Y-24138095D01*
X70804761Y-24090476D01*
X70852380Y-23995238D01*
X70852380Y-23804761D01*
X70804761Y-23709523D01*
X70757142Y-23661904D01*
X70661904Y-23614285D01*
X70471428Y-23614285D01*
X70376190Y-23661904D01*
X70328571Y-23709523D01*
X70280952Y-23804761D01*
G04 #@! TO.C,R7*
X12033333Y-63552380D02*
X11700000Y-63076190D01*
X11461904Y-63552380D02*
X11461904Y-62552380D01*
X11842857Y-62552380D01*
X11938095Y-62600000D01*
X11985714Y-62647619D01*
X12033333Y-62742857D01*
X12033333Y-62885714D01*
X11985714Y-62980952D01*
X11938095Y-63028571D01*
X11842857Y-63076190D01*
X11461904Y-63076190D01*
X12366666Y-62552380D02*
X13033333Y-62552380D01*
X12604761Y-63552380D01*
G04 #@! TO.C,R3*
X80282380Y-32336666D02*
X79806190Y-32670000D01*
X80282380Y-32908095D02*
X79282380Y-32908095D01*
X79282380Y-32527142D01*
X79330000Y-32431904D01*
X79377619Y-32384285D01*
X79472857Y-32336666D01*
X79615714Y-32336666D01*
X79710952Y-32384285D01*
X79758571Y-32431904D01*
X79806190Y-32527142D01*
X79806190Y-32908095D01*
X79282380Y-32003333D02*
X79282380Y-31384285D01*
X79663333Y-31717619D01*
X79663333Y-31574761D01*
X79710952Y-31479523D01*
X79758571Y-31431904D01*
X79853809Y-31384285D01*
X80091904Y-31384285D01*
X80187142Y-31431904D01*
X80234761Y-31479523D01*
X80282380Y-31574761D01*
X80282380Y-31860476D01*
X80234761Y-31955714D01*
X80187142Y-32003333D01*
G04 #@! TO.C,IC4*
D15*
X43160238Y-29124523D02*
X43160238Y-27854523D01*
X44490714Y-29003571D02*
X44430238Y-29064047D01*
X44248809Y-29124523D01*
X44127857Y-29124523D01*
X43946428Y-29064047D01*
X43825476Y-28943095D01*
X43765000Y-28822142D01*
X43704523Y-28580238D01*
X43704523Y-28398809D01*
X43765000Y-28156904D01*
X43825476Y-28035952D01*
X43946428Y-27915000D01*
X44127857Y-27854523D01*
X44248809Y-27854523D01*
X44430238Y-27915000D01*
X44490714Y-27975476D01*
X45579285Y-28277857D02*
X45579285Y-29124523D01*
X45276904Y-27794047D02*
X44974523Y-28701190D01*
X45760714Y-28701190D01*
G04 #@! TO.C,IC5*
X42660238Y-21174523D02*
X42660238Y-19904523D01*
X43990714Y-21053571D02*
X43930238Y-21114047D01*
X43748809Y-21174523D01*
X43627857Y-21174523D01*
X43446428Y-21114047D01*
X43325476Y-20993095D01*
X43265000Y-20872142D01*
X43204523Y-20630238D01*
X43204523Y-20448809D01*
X43265000Y-20206904D01*
X43325476Y-20085952D01*
X43446428Y-19965000D01*
X43627857Y-19904523D01*
X43748809Y-19904523D01*
X43930238Y-19965000D01*
X43990714Y-20025476D01*
X45139761Y-19904523D02*
X44535000Y-19904523D01*
X44474523Y-20509285D01*
X44535000Y-20448809D01*
X44655952Y-20388333D01*
X44958333Y-20388333D01*
X45079285Y-20448809D01*
X45139761Y-20509285D01*
X45200238Y-20630238D01*
X45200238Y-20932619D01*
X45139761Y-21053571D01*
X45079285Y-21114047D01*
X44958333Y-21174523D01*
X44655952Y-21174523D01*
X44535000Y-21114047D01*
X44474523Y-21053571D01*
G04 #@! TO.C,J1*
D16*
X85566666Y-50322380D02*
X85566666Y-51036666D01*
X85519047Y-51179523D01*
X85423809Y-51274761D01*
X85280952Y-51322380D01*
X85185714Y-51322380D01*
X86566666Y-51322380D02*
X85995238Y-51322380D01*
X86280952Y-51322380D02*
X86280952Y-50322380D01*
X86185714Y-50465238D01*
X86090476Y-50560476D01*
X85995238Y-50608095D01*
G04 #@! TO.C,J2*
X30466666Y-8222380D02*
X30466666Y-8936666D01*
X30419047Y-9079523D01*
X30323809Y-9174761D01*
X30180952Y-9222380D01*
X30085714Y-9222380D01*
X30895238Y-8317619D02*
X30942857Y-8270000D01*
X31038095Y-8222380D01*
X31276190Y-8222380D01*
X31371428Y-8270000D01*
X31419047Y-8317619D01*
X31466666Y-8412857D01*
X31466666Y-8508095D01*
X31419047Y-8650952D01*
X30847619Y-9222380D01*
X31466666Y-9222380D01*
G04 #@! TO.C,IC3*
D15*
X45960238Y-39224523D02*
X45960238Y-37954523D01*
X47290714Y-39103571D02*
X47230238Y-39164047D01*
X47048809Y-39224523D01*
X46927857Y-39224523D01*
X46746428Y-39164047D01*
X46625476Y-39043095D01*
X46565000Y-38922142D01*
X46504523Y-38680238D01*
X46504523Y-38498809D01*
X46565000Y-38256904D01*
X46625476Y-38135952D01*
X46746428Y-38015000D01*
X46927857Y-37954523D01*
X47048809Y-37954523D01*
X47230238Y-38015000D01*
X47290714Y-38075476D01*
X47714047Y-37954523D02*
X48500238Y-37954523D01*
X48076904Y-38438333D01*
X48258333Y-38438333D01*
X48379285Y-38498809D01*
X48439761Y-38559285D01*
X48500238Y-38680238D01*
X48500238Y-38982619D01*
X48439761Y-39103571D01*
X48379285Y-39164047D01*
X48258333Y-39224523D01*
X47895476Y-39224523D01*
X47774523Y-39164047D01*
X47714047Y-39103571D01*
G04 #@! TO.C,IC1*
D16*
X12373809Y-39652380D02*
X12373809Y-38652380D01*
X13421428Y-39557142D02*
X13373809Y-39604761D01*
X13230952Y-39652380D01*
X13135714Y-39652380D01*
X12992857Y-39604761D01*
X12897619Y-39509523D01*
X12850000Y-39414285D01*
X12802380Y-39223809D01*
X12802380Y-39080952D01*
X12850000Y-38890476D01*
X12897619Y-38795238D01*
X12992857Y-38700000D01*
X13135714Y-38652380D01*
X13230952Y-38652380D01*
X13373809Y-38700000D01*
X13421428Y-38747619D01*
X14373809Y-39652380D02*
X13802380Y-39652380D01*
X14088095Y-39652380D02*
X14088095Y-38652380D01*
X13992857Y-38795238D01*
X13897619Y-38890476D01*
X13802380Y-38938095D01*
G04 #@! TO.C,IC2*
X4423809Y-39652380D02*
X4423809Y-38652380D01*
X5471428Y-39557142D02*
X5423809Y-39604761D01*
X5280952Y-39652380D01*
X5185714Y-39652380D01*
X5042857Y-39604761D01*
X4947619Y-39509523D01*
X4900000Y-39414285D01*
X4852380Y-39223809D01*
X4852380Y-39080952D01*
X4900000Y-38890476D01*
X4947619Y-38795238D01*
X5042857Y-38700000D01*
X5185714Y-38652380D01*
X5280952Y-38652380D01*
X5423809Y-38700000D01*
X5471428Y-38747619D01*
X5852380Y-38747619D02*
X5900000Y-38700000D01*
X5995238Y-38652380D01*
X6233333Y-38652380D01*
X6328571Y-38700000D01*
X6376190Y-38747619D01*
X6423809Y-38842857D01*
X6423809Y-38938095D01*
X6376190Y-39080952D01*
X5804761Y-39652380D01*
X6423809Y-39652380D01*
G04 #@! TO.C,D4*
X16631904Y-15342380D02*
X16631904Y-14342380D01*
X16870000Y-14342380D01*
X17012857Y-14390000D01*
X17108095Y-14485238D01*
X17155714Y-14580476D01*
X17203333Y-14770952D01*
X17203333Y-14913809D01*
X17155714Y-15104285D01*
X17108095Y-15199523D01*
X17012857Y-15294761D01*
X16870000Y-15342380D01*
X16631904Y-15342380D01*
X18060476Y-14675714D02*
X18060476Y-15342380D01*
X17822380Y-14294761D02*
X17584285Y-15009047D01*
X18203333Y-15009047D01*
G04 #@! TO.C,D5*
X16631904Y-7587380D02*
X16631904Y-6587380D01*
X16870000Y-6587380D01*
X17012857Y-6635000D01*
X17108095Y-6730238D01*
X17155714Y-6825476D01*
X17203333Y-7015952D01*
X17203333Y-7158809D01*
X17155714Y-7349285D01*
X17108095Y-7444523D01*
X17012857Y-7539761D01*
X16870000Y-7587380D01*
X16631904Y-7587380D01*
X18108095Y-6587380D02*
X17631904Y-6587380D01*
X17584285Y-7063571D01*
X17631904Y-7015952D01*
X17727142Y-6968333D01*
X17965238Y-6968333D01*
X18060476Y-7015952D01*
X18108095Y-7063571D01*
X18155714Y-7158809D01*
X18155714Y-7396904D01*
X18108095Y-7492142D01*
X18060476Y-7539761D01*
X17965238Y-7587380D01*
X17727142Y-7587380D01*
X17631904Y-7539761D01*
X17584285Y-7492142D01*
G04 #@! TO.C,D7*
X17701904Y-75952380D02*
X17701904Y-74952380D01*
X17940000Y-74952380D01*
X18082857Y-75000000D01*
X18178095Y-75095238D01*
X18225714Y-75190476D01*
X18273333Y-75380952D01*
X18273333Y-75523809D01*
X18225714Y-75714285D01*
X18178095Y-75809523D01*
X18082857Y-75904761D01*
X17940000Y-75952380D01*
X17701904Y-75952380D01*
X18606666Y-74952380D02*
X19273333Y-74952380D01*
X18844761Y-75952380D01*
G04 #@! TO.C,C8*
X44007142Y-42566666D02*
X44054761Y-42614285D01*
X44102380Y-42757142D01*
X44102380Y-42852380D01*
X44054761Y-42995238D01*
X43959523Y-43090476D01*
X43864285Y-43138095D01*
X43673809Y-43185714D01*
X43530952Y-43185714D01*
X43340476Y-43138095D01*
X43245238Y-43090476D01*
X43150000Y-42995238D01*
X43102380Y-42852380D01*
X43102380Y-42757142D01*
X43150000Y-42614285D01*
X43197619Y-42566666D01*
X43530952Y-41995238D02*
X43483333Y-42090476D01*
X43435714Y-42138095D01*
X43340476Y-42185714D01*
X43292857Y-42185714D01*
X43197619Y-42138095D01*
X43150000Y-42090476D01*
X43102380Y-41995238D01*
X43102380Y-41804761D01*
X43150000Y-41709523D01*
X43197619Y-41661904D01*
X43292857Y-41614285D01*
X43340476Y-41614285D01*
X43435714Y-41661904D01*
X43483333Y-41709523D01*
X43530952Y-41804761D01*
X43530952Y-41995238D01*
X43578571Y-42090476D01*
X43626190Y-42138095D01*
X43721428Y-42185714D01*
X43911904Y-42185714D01*
X44007142Y-42138095D01*
X44054761Y-42090476D01*
X44102380Y-41995238D01*
X44102380Y-41804761D01*
X44054761Y-41709523D01*
X44007142Y-41661904D01*
X43911904Y-41614285D01*
X43721428Y-41614285D01*
X43626190Y-41661904D01*
X43578571Y-41709523D01*
X43530952Y-41804761D01*
G04 #@! TO.C,C6*
X43857142Y-34516666D02*
X43904761Y-34564285D01*
X43952380Y-34707142D01*
X43952380Y-34802380D01*
X43904761Y-34945238D01*
X43809523Y-35040476D01*
X43714285Y-35088095D01*
X43523809Y-35135714D01*
X43380952Y-35135714D01*
X43190476Y-35088095D01*
X43095238Y-35040476D01*
X43000000Y-34945238D01*
X42952380Y-34802380D01*
X42952380Y-34707142D01*
X43000000Y-34564285D01*
X43047619Y-34516666D01*
X42952380Y-33659523D02*
X42952380Y-33850000D01*
X43000000Y-33945238D01*
X43047619Y-33992857D01*
X43190476Y-34088095D01*
X43380952Y-34135714D01*
X43761904Y-34135714D01*
X43857142Y-34088095D01*
X43904761Y-34040476D01*
X43952380Y-33945238D01*
X43952380Y-33754761D01*
X43904761Y-33659523D01*
X43857142Y-33611904D01*
X43761904Y-33564285D01*
X43523809Y-33564285D01*
X43428571Y-33611904D01*
X43380952Y-33659523D01*
X43333333Y-33754761D01*
X43333333Y-33945238D01*
X43380952Y-34040476D01*
X43428571Y-34088095D01*
X43523809Y-34135714D01*
G04 #@! TO.C,C7*
X49907142Y-36316666D02*
X49954761Y-36364285D01*
X50002380Y-36507142D01*
X50002380Y-36602380D01*
X49954761Y-36745238D01*
X49859523Y-36840476D01*
X49764285Y-36888095D01*
X49573809Y-36935714D01*
X49430952Y-36935714D01*
X49240476Y-36888095D01*
X49145238Y-36840476D01*
X49050000Y-36745238D01*
X49002380Y-36602380D01*
X49002380Y-36507142D01*
X49050000Y-36364285D01*
X49097619Y-36316666D01*
X49002380Y-35983333D02*
X49002380Y-35316666D01*
X50002380Y-35745238D01*
G04 #@! TO.C,C5*
X51257142Y-45866666D02*
X51304761Y-45914285D01*
X51352380Y-46057142D01*
X51352380Y-46152380D01*
X51304761Y-46295238D01*
X51209523Y-46390476D01*
X51114285Y-46438095D01*
X50923809Y-46485714D01*
X50780952Y-46485714D01*
X50590476Y-46438095D01*
X50495238Y-46390476D01*
X50400000Y-46295238D01*
X50352380Y-46152380D01*
X50352380Y-46057142D01*
X50400000Y-45914285D01*
X50447619Y-45866666D01*
X50352380Y-44961904D02*
X50352380Y-45438095D01*
X50828571Y-45485714D01*
X50780952Y-45438095D01*
X50733333Y-45342857D01*
X50733333Y-45104761D01*
X50780952Y-45009523D01*
X50828571Y-44961904D01*
X50923809Y-44914285D01*
X51161904Y-44914285D01*
X51257142Y-44961904D01*
X51304761Y-45009523D01*
X51352380Y-45104761D01*
X51352380Y-45342857D01*
X51304761Y-45438095D01*
X51257142Y-45485714D01*
G04 #@! TO.C,JP1*
X44102380Y-48683333D02*
X44816666Y-48683333D01*
X44959523Y-48730952D01*
X45054761Y-48826190D01*
X45102380Y-48969047D01*
X45102380Y-49064285D01*
X45102380Y-48207142D02*
X44102380Y-48207142D01*
X44102380Y-47826190D01*
X44150000Y-47730952D01*
X44197619Y-47683333D01*
X44292857Y-47635714D01*
X44435714Y-47635714D01*
X44530952Y-47683333D01*
X44578571Y-47730952D01*
X44626190Y-47826190D01*
X44626190Y-48207142D01*
X45102380Y-46683333D02*
X45102380Y-47254761D01*
X45102380Y-46969047D02*
X44102380Y-46969047D01*
X44245238Y-47064285D01*
X44340476Y-47159523D01*
X44388095Y-47254761D01*
G04 #@! TO.C,J3*
X30466666Y-19922380D02*
X30466666Y-20636666D01*
X30419047Y-20779523D01*
X30323809Y-20874761D01*
X30180952Y-20922380D01*
X30085714Y-20922380D01*
X30847619Y-19922380D02*
X31466666Y-19922380D01*
X31133333Y-20303333D01*
X31276190Y-20303333D01*
X31371428Y-20350952D01*
X31419047Y-20398571D01*
X31466666Y-20493809D01*
X31466666Y-20731904D01*
X31419047Y-20827142D01*
X31371428Y-20874761D01*
X31276190Y-20922380D01*
X30990476Y-20922380D01*
X30895238Y-20874761D01*
X30847619Y-20827142D01*
G04 #@! TO.C,Q6*
X23004761Y-63647619D02*
X22909523Y-63600000D01*
X22814285Y-63504761D01*
X22671428Y-63361904D01*
X22576190Y-63314285D01*
X22480952Y-63314285D01*
X22528571Y-63552380D02*
X22433333Y-63504761D01*
X22338095Y-63409523D01*
X22290476Y-63219047D01*
X22290476Y-62885714D01*
X22338095Y-62695238D01*
X22433333Y-62600000D01*
X22528571Y-62552380D01*
X22719047Y-62552380D01*
X22814285Y-62600000D01*
X22909523Y-62695238D01*
X22957142Y-62885714D01*
X22957142Y-63219047D01*
X22909523Y-63409523D01*
X22814285Y-63504761D01*
X22719047Y-63552380D01*
X22528571Y-63552380D01*
X23814285Y-62552380D02*
X23623809Y-62552380D01*
X23528571Y-62600000D01*
X23480952Y-62647619D01*
X23385714Y-62790476D01*
X23338095Y-62980952D01*
X23338095Y-63361904D01*
X23385714Y-63457142D01*
X23433333Y-63504761D01*
X23528571Y-63552380D01*
X23719047Y-63552380D01*
X23814285Y-63504761D01*
X23861904Y-63457142D01*
X23909523Y-63361904D01*
X23909523Y-63123809D01*
X23861904Y-63028571D01*
X23814285Y-62980952D01*
X23719047Y-62933333D01*
X23528571Y-62933333D01*
X23433333Y-62980952D01*
X23385714Y-63028571D01*
X23338095Y-63123809D01*
G04 #@! TO.C,Q2*
X30704761Y-63647619D02*
X30609523Y-63600000D01*
X30514285Y-63504761D01*
X30371428Y-63361904D01*
X30276190Y-63314285D01*
X30180952Y-63314285D01*
X30228571Y-63552380D02*
X30133333Y-63504761D01*
X30038095Y-63409523D01*
X29990476Y-63219047D01*
X29990476Y-62885714D01*
X30038095Y-62695238D01*
X30133333Y-62600000D01*
X30228571Y-62552380D01*
X30419047Y-62552380D01*
X30514285Y-62600000D01*
X30609523Y-62695238D01*
X30657142Y-62885714D01*
X30657142Y-63219047D01*
X30609523Y-63409523D01*
X30514285Y-63504761D01*
X30419047Y-63552380D01*
X30228571Y-63552380D01*
X31038095Y-62647619D02*
X31085714Y-62600000D01*
X31180952Y-62552380D01*
X31419047Y-62552380D01*
X31514285Y-62600000D01*
X31561904Y-62647619D01*
X31609523Y-62742857D01*
X31609523Y-62838095D01*
X31561904Y-62980952D01*
X30990476Y-63552380D01*
X31609523Y-63552380D01*
G04 #@! TO.C,J5*
X76782380Y-74533333D02*
X77496666Y-74533333D01*
X77639523Y-74580952D01*
X77734761Y-74676190D01*
X77782380Y-74819047D01*
X77782380Y-74914285D01*
X76782380Y-73580952D02*
X76782380Y-74057142D01*
X77258571Y-74104761D01*
X77210952Y-74057142D01*
X77163333Y-73961904D01*
X77163333Y-73723809D01*
X77210952Y-73628571D01*
X77258571Y-73580952D01*
X77353809Y-73533333D01*
X77591904Y-73533333D01*
X77687142Y-73580952D01*
X77734761Y-73628571D01*
X77782380Y-73723809D01*
X77782380Y-73961904D01*
X77734761Y-74057142D01*
X77687142Y-74104761D01*
G04 #@! TO.C,Q5*
X3497619Y-56095238D02*
X3450000Y-56190476D01*
X3354761Y-56285714D01*
X3211904Y-56428571D01*
X3164285Y-56523809D01*
X3164285Y-56619047D01*
X3402380Y-56571428D02*
X3354761Y-56666666D01*
X3259523Y-56761904D01*
X3069047Y-56809523D01*
X2735714Y-56809523D01*
X2545238Y-56761904D01*
X2450000Y-56666666D01*
X2402380Y-56571428D01*
X2402380Y-56380952D01*
X2450000Y-56285714D01*
X2545238Y-56190476D01*
X2735714Y-56142857D01*
X3069047Y-56142857D01*
X3259523Y-56190476D01*
X3354761Y-56285714D01*
X3402380Y-56380952D01*
X3402380Y-56571428D01*
X2402380Y-55238095D02*
X2402380Y-55714285D01*
X2878571Y-55761904D01*
X2830952Y-55714285D01*
X2783333Y-55619047D01*
X2783333Y-55380952D01*
X2830952Y-55285714D01*
X2878571Y-55238095D01*
X2973809Y-55190476D01*
X3211904Y-55190476D01*
X3307142Y-55238095D01*
X3354761Y-55285714D01*
X3402380Y-55380952D01*
X3402380Y-55619047D01*
X3354761Y-55714285D01*
X3307142Y-55761904D01*
G04 #@! TO.C,Q4*
X15304761Y-63647619D02*
X15209523Y-63600000D01*
X15114285Y-63504761D01*
X14971428Y-63361904D01*
X14876190Y-63314285D01*
X14780952Y-63314285D01*
X14828571Y-63552380D02*
X14733333Y-63504761D01*
X14638095Y-63409523D01*
X14590476Y-63219047D01*
X14590476Y-62885714D01*
X14638095Y-62695238D01*
X14733333Y-62600000D01*
X14828571Y-62552380D01*
X15019047Y-62552380D01*
X15114285Y-62600000D01*
X15209523Y-62695238D01*
X15257142Y-62885714D01*
X15257142Y-63219047D01*
X15209523Y-63409523D01*
X15114285Y-63504761D01*
X15019047Y-63552380D01*
X14828571Y-63552380D01*
X16114285Y-62885714D02*
X16114285Y-63552380D01*
X15876190Y-62504761D02*
X15638095Y-63219047D01*
X16257142Y-63219047D01*
G04 #@! TO.C,C1*
X25183333Y-54457142D02*
X25135714Y-54504761D01*
X24992857Y-54552380D01*
X24897619Y-54552380D01*
X24754761Y-54504761D01*
X24659523Y-54409523D01*
X24611904Y-54314285D01*
X24564285Y-54123809D01*
X24564285Y-53980952D01*
X24611904Y-53790476D01*
X24659523Y-53695238D01*
X24754761Y-53600000D01*
X24897619Y-53552380D01*
X24992857Y-53552380D01*
X25135714Y-53600000D01*
X25183333Y-53647619D01*
X26135714Y-54552380D02*
X25564285Y-54552380D01*
X25850000Y-54552380D02*
X25850000Y-53552380D01*
X25754761Y-53695238D01*
X25659523Y-53790476D01*
X25564285Y-53838095D01*
G04 #@! TO.C,C4*
X45283333Y-62307142D02*
X45235714Y-62354761D01*
X45092857Y-62402380D01*
X44997619Y-62402380D01*
X44854761Y-62354761D01*
X44759523Y-62259523D01*
X44711904Y-62164285D01*
X44664285Y-61973809D01*
X44664285Y-61830952D01*
X44711904Y-61640476D01*
X44759523Y-61545238D01*
X44854761Y-61450000D01*
X44997619Y-61402380D01*
X45092857Y-61402380D01*
X45235714Y-61450000D01*
X45283333Y-61497619D01*
X46140476Y-61735714D02*
X46140476Y-62402380D01*
X45902380Y-61354761D02*
X45664285Y-62069047D01*
X46283333Y-62069047D01*
G04 #@! TO.C,C2*
X37433333Y-54657142D02*
X37385714Y-54704761D01*
X37242857Y-54752380D01*
X37147619Y-54752380D01*
X37004761Y-54704761D01*
X36909523Y-54609523D01*
X36861904Y-54514285D01*
X36814285Y-54323809D01*
X36814285Y-54180952D01*
X36861904Y-53990476D01*
X36909523Y-53895238D01*
X37004761Y-53800000D01*
X37147619Y-53752380D01*
X37242857Y-53752380D01*
X37385714Y-53800000D01*
X37433333Y-53847619D01*
X37814285Y-53847619D02*
X37861904Y-53800000D01*
X37957142Y-53752380D01*
X38195238Y-53752380D01*
X38290476Y-53800000D01*
X38338095Y-53847619D01*
X38385714Y-53942857D01*
X38385714Y-54038095D01*
X38338095Y-54180952D01*
X37766666Y-54752380D01*
X38385714Y-54752380D01*
G04 #@! TO.C,C3*
X47983333Y-62357142D02*
X47935714Y-62404761D01*
X47792857Y-62452380D01*
X47697619Y-62452380D01*
X47554761Y-62404761D01*
X47459523Y-62309523D01*
X47411904Y-62214285D01*
X47364285Y-62023809D01*
X47364285Y-61880952D01*
X47411904Y-61690476D01*
X47459523Y-61595238D01*
X47554761Y-61500000D01*
X47697619Y-61452380D01*
X47792857Y-61452380D01*
X47935714Y-61500000D01*
X47983333Y-61547619D01*
X48316666Y-61452380D02*
X48935714Y-61452380D01*
X48602380Y-61833333D01*
X48745238Y-61833333D01*
X48840476Y-61880952D01*
X48888095Y-61928571D01*
X48935714Y-62023809D01*
X48935714Y-62261904D01*
X48888095Y-62357142D01*
X48840476Y-62404761D01*
X48745238Y-62452380D01*
X48459523Y-62452380D01*
X48364285Y-62404761D01*
X48316666Y-62357142D01*
G04 #@! TO.C,RV1*
X43402380Y-51395238D02*
X42926190Y-51728571D01*
X43402380Y-51966666D02*
X42402380Y-51966666D01*
X42402380Y-51585714D01*
X42450000Y-51490476D01*
X42497619Y-51442857D01*
X42592857Y-51395238D01*
X42735714Y-51395238D01*
X42830952Y-51442857D01*
X42878571Y-51490476D01*
X42926190Y-51585714D01*
X42926190Y-51966666D01*
X42402380Y-51109523D02*
X43402380Y-50776190D01*
X42402380Y-50442857D01*
X43402380Y-49585714D02*
X43402380Y-50157142D01*
X43402380Y-49871428D02*
X42402380Y-49871428D01*
X42545238Y-49966666D01*
X42640476Y-50061904D01*
X42688095Y-50157142D01*
G04 #@! TO.C,R11*
X22402380Y-42942857D02*
X21926190Y-43276190D01*
X22402380Y-43514285D02*
X21402380Y-43514285D01*
X21402380Y-43133333D01*
X21450000Y-43038095D01*
X21497619Y-42990476D01*
X21592857Y-42942857D01*
X21735714Y-42942857D01*
X21830952Y-42990476D01*
X21878571Y-43038095D01*
X21926190Y-43133333D01*
X21926190Y-43514285D01*
X22402380Y-41990476D02*
X22402380Y-42561904D01*
X22402380Y-42276190D02*
X21402380Y-42276190D01*
X21545238Y-42371428D01*
X21640476Y-42466666D01*
X21688095Y-42561904D01*
X22402380Y-41038095D02*
X22402380Y-41609523D01*
X22402380Y-41323809D02*
X21402380Y-41323809D01*
X21545238Y-41419047D01*
X21640476Y-41514285D01*
X21688095Y-41609523D01*
G04 #@! TO.C,R9*
X19633333Y-63552380D02*
X19300000Y-63076190D01*
X19061904Y-63552380D02*
X19061904Y-62552380D01*
X19442857Y-62552380D01*
X19538095Y-62600000D01*
X19585714Y-62647619D01*
X19633333Y-62742857D01*
X19633333Y-62885714D01*
X19585714Y-62980952D01*
X19538095Y-63028571D01*
X19442857Y-63076190D01*
X19061904Y-63076190D01*
X20109523Y-63552380D02*
X20300000Y-63552380D01*
X20395238Y-63504761D01*
X20442857Y-63457142D01*
X20538095Y-63314285D01*
X20585714Y-63123809D01*
X20585714Y-62742857D01*
X20538095Y-62647619D01*
X20490476Y-62600000D01*
X20395238Y-62552380D01*
X20204761Y-62552380D01*
X20109523Y-62600000D01*
X20061904Y-62647619D01*
X20014285Y-62742857D01*
X20014285Y-62980952D01*
X20061904Y-63076190D01*
X20109523Y-63123809D01*
X20204761Y-63171428D01*
X20395238Y-63171428D01*
X20490476Y-63123809D01*
X20538095Y-63076190D01*
X20585714Y-62980952D01*
G04 #@! TO.C,R10*
X41702380Y-44642857D02*
X41226190Y-44976190D01*
X41702380Y-45214285D02*
X40702380Y-45214285D01*
X40702380Y-44833333D01*
X40750000Y-44738095D01*
X40797619Y-44690476D01*
X40892857Y-44642857D01*
X41035714Y-44642857D01*
X41130952Y-44690476D01*
X41178571Y-44738095D01*
X41226190Y-44833333D01*
X41226190Y-45214285D01*
X41702380Y-43690476D02*
X41702380Y-44261904D01*
X41702380Y-43976190D02*
X40702380Y-43976190D01*
X40845238Y-44071428D01*
X40940476Y-44166666D01*
X40988095Y-44261904D01*
X40702380Y-43071428D02*
X40702380Y-42976190D01*
X40750000Y-42880952D01*
X40797619Y-42833333D01*
X40892857Y-42785714D01*
X41083333Y-42738095D01*
X41321428Y-42738095D01*
X41511904Y-42785714D01*
X41607142Y-42833333D01*
X41654761Y-42880952D01*
X41702380Y-42976190D01*
X41702380Y-43071428D01*
X41654761Y-43166666D01*
X41607142Y-43214285D01*
X41511904Y-43261904D01*
X41321428Y-43309523D01*
X41083333Y-43309523D01*
X40892857Y-43261904D01*
X40797619Y-43214285D01*
X40750000Y-43166666D01*
X40702380Y-43071428D01*
G04 #@! TO.C,U3*
X30738095Y-39452380D02*
X30738095Y-40261904D01*
X30785714Y-40357142D01*
X30833333Y-40404761D01*
X30928571Y-40452380D01*
X31119047Y-40452380D01*
X31214285Y-40404761D01*
X31261904Y-40357142D01*
X31309523Y-40261904D01*
X31309523Y-39452380D01*
X31690476Y-39452380D02*
X32309523Y-39452380D01*
X31976190Y-39833333D01*
X32119047Y-39833333D01*
X32214285Y-39880952D01*
X32261904Y-39928571D01*
X32309523Y-40023809D01*
X32309523Y-40261904D01*
X32261904Y-40357142D01*
X32214285Y-40404761D01*
X32119047Y-40452380D01*
X31833333Y-40452380D01*
X31738095Y-40404761D01*
X31690476Y-40357142D01*
G04 #@! TO.C,RV2*
X20352380Y-48345238D02*
X19876190Y-48678571D01*
X20352380Y-48916666D02*
X19352380Y-48916666D01*
X19352380Y-48535714D01*
X19400000Y-48440476D01*
X19447619Y-48392857D01*
X19542857Y-48345238D01*
X19685714Y-48345238D01*
X19780952Y-48392857D01*
X19828571Y-48440476D01*
X19876190Y-48535714D01*
X19876190Y-48916666D01*
X19352380Y-48059523D02*
X20352380Y-47726190D01*
X19352380Y-47392857D01*
X19447619Y-47107142D02*
X19400000Y-47059523D01*
X19352380Y-46964285D01*
X19352380Y-46726190D01*
X19400000Y-46630952D01*
X19447619Y-46583333D01*
X19542857Y-46535714D01*
X19638095Y-46535714D01*
X19780952Y-46583333D01*
X20352380Y-47154761D01*
X20352380Y-46535714D01*
G04 #@! TO.C,J4*
X40816666Y-64452380D02*
X40816666Y-65166666D01*
X40769047Y-65309523D01*
X40673809Y-65404761D01*
X40530952Y-65452380D01*
X40435714Y-65452380D01*
X41721428Y-64785714D02*
X41721428Y-65452380D01*
X41483333Y-64404761D02*
X41245238Y-65119047D01*
X41864285Y-65119047D01*
G04 #@! TO.C,D1*
X16691904Y-31092380D02*
X16691904Y-30092380D01*
X16930000Y-30092380D01*
X17072857Y-30140000D01*
X17168095Y-30235238D01*
X17215714Y-30330476D01*
X17263333Y-30520952D01*
X17263333Y-30663809D01*
X17215714Y-30854285D01*
X17168095Y-30949523D01*
X17072857Y-31044761D01*
X16930000Y-31092380D01*
X16691904Y-31092380D01*
X18215714Y-31092380D02*
X17644285Y-31092380D01*
X17930000Y-31092380D02*
X17930000Y-30092380D01*
X17834761Y-30235238D01*
X17739523Y-30330476D01*
X17644285Y-30378095D01*
G04 #@! TO.C,D2*
X7587380Y-19608095D02*
X6587380Y-19608095D01*
X6587380Y-19370000D01*
X6635000Y-19227142D01*
X6730238Y-19131904D01*
X6825476Y-19084285D01*
X7015952Y-19036666D01*
X7158809Y-19036666D01*
X7349285Y-19084285D01*
X7444523Y-19131904D01*
X7539761Y-19227142D01*
X7587380Y-19370000D01*
X7587380Y-19608095D01*
X6682619Y-18655714D02*
X6635000Y-18608095D01*
X6587380Y-18512857D01*
X6587380Y-18274761D01*
X6635000Y-18179523D01*
X6682619Y-18131904D01*
X6777857Y-18084285D01*
X6873095Y-18084285D01*
X7015952Y-18131904D01*
X7587380Y-18703333D01*
X7587380Y-18084285D01*
G04 #@! TO.C,D3*
X25321904Y-75852380D02*
X25321904Y-74852380D01*
X25560000Y-74852380D01*
X25702857Y-74900000D01*
X25798095Y-74995238D01*
X25845714Y-75090476D01*
X25893333Y-75280952D01*
X25893333Y-75423809D01*
X25845714Y-75614285D01*
X25798095Y-75709523D01*
X25702857Y-75804761D01*
X25560000Y-75852380D01*
X25321904Y-75852380D01*
X26226666Y-74852380D02*
X26845714Y-74852380D01*
X26512380Y-75233333D01*
X26655238Y-75233333D01*
X26750476Y-75280952D01*
X26798095Y-75328571D01*
X26845714Y-75423809D01*
X26845714Y-75661904D01*
X26798095Y-75757142D01*
X26750476Y-75804761D01*
X26655238Y-75852380D01*
X26369523Y-75852380D01*
X26274285Y-75804761D01*
X26226666Y-75757142D01*
G04 #@! TO.C,D6*
X10141904Y-75852380D02*
X10141904Y-74852380D01*
X10380000Y-74852380D01*
X10522857Y-74900000D01*
X10618095Y-74995238D01*
X10665714Y-75090476D01*
X10713333Y-75280952D01*
X10713333Y-75423809D01*
X10665714Y-75614285D01*
X10618095Y-75709523D01*
X10522857Y-75804761D01*
X10380000Y-75852380D01*
X10141904Y-75852380D01*
X11570476Y-74852380D02*
X11380000Y-74852380D01*
X11284761Y-74900000D01*
X11237142Y-74947619D01*
X11141904Y-75090476D01*
X11094285Y-75280952D01*
X11094285Y-75661904D01*
X11141904Y-75757142D01*
X11189523Y-75804761D01*
X11284761Y-75852380D01*
X11475238Y-75852380D01*
X11570476Y-75804761D01*
X11618095Y-75757142D01*
X11665714Y-75661904D01*
X11665714Y-75423809D01*
X11618095Y-75328571D01*
X11570476Y-75280952D01*
X11475238Y-75233333D01*
X11284761Y-75233333D01*
X11189523Y-75280952D01*
X11141904Y-75328571D01*
X11094285Y-75423809D01*
G04 #@! TO.C,J6*
X76782380Y-70533333D02*
X77496666Y-70533333D01*
X77639523Y-70580952D01*
X77734761Y-70676190D01*
X77782380Y-70819047D01*
X77782380Y-70914285D01*
X76782380Y-69628571D02*
X76782380Y-69819047D01*
X76830000Y-69914285D01*
X76877619Y-69961904D01*
X77020476Y-70057142D01*
X77210952Y-70104761D01*
X77591904Y-70104761D01*
X77687142Y-70057142D01*
X77734761Y-70009523D01*
X77782380Y-69914285D01*
X77782380Y-69723809D01*
X77734761Y-69628571D01*
X77687142Y-69580952D01*
X77591904Y-69533333D01*
X77353809Y-69533333D01*
X77258571Y-69580952D01*
X77210952Y-69628571D01*
X77163333Y-69723809D01*
X77163333Y-69914285D01*
X77210952Y-70009523D01*
X77258571Y-70057142D01*
X77353809Y-70104761D01*
G04 #@! TO.C,J7*
X76782380Y-66533333D02*
X77496666Y-66533333D01*
X77639523Y-66580952D01*
X77734761Y-66676190D01*
X77782380Y-66819047D01*
X77782380Y-66914285D01*
X76782380Y-66152380D02*
X76782380Y-65485714D01*
X77782380Y-65914285D01*
G04 #@! TO.C,Q3*
X39837619Y-1665238D02*
X39790000Y-1760476D01*
X39694761Y-1855714D01*
X39551904Y-1998571D01*
X39504285Y-2093809D01*
X39504285Y-2189047D01*
X39742380Y-2141428D02*
X39694761Y-2236666D01*
X39599523Y-2331904D01*
X39409047Y-2379523D01*
X39075714Y-2379523D01*
X38885238Y-2331904D01*
X38790000Y-2236666D01*
X38742380Y-2141428D01*
X38742380Y-1950952D01*
X38790000Y-1855714D01*
X38885238Y-1760476D01*
X39075714Y-1712857D01*
X39409047Y-1712857D01*
X39599523Y-1760476D01*
X39694761Y-1855714D01*
X39742380Y-1950952D01*
X39742380Y-2141428D01*
X38742380Y-1379523D02*
X38742380Y-760476D01*
X39123333Y-1093809D01*
X39123333Y-950952D01*
X39170952Y-855714D01*
X39218571Y-808095D01*
X39313809Y-760476D01*
X39551904Y-760476D01*
X39647142Y-808095D01*
X39694761Y-855714D01*
X39742380Y-950952D01*
X39742380Y-1236666D01*
X39694761Y-1331904D01*
X39647142Y-1379523D01*
G04 #@! TO.C,Q7*
X50444761Y-9337619D02*
X50349523Y-9290000D01*
X50254285Y-9194761D01*
X50111428Y-9051904D01*
X50016190Y-9004285D01*
X49920952Y-9004285D01*
X49968571Y-9242380D02*
X49873333Y-9194761D01*
X49778095Y-9099523D01*
X49730476Y-8909047D01*
X49730476Y-8575714D01*
X49778095Y-8385238D01*
X49873333Y-8290000D01*
X49968571Y-8242380D01*
X50159047Y-8242380D01*
X50254285Y-8290000D01*
X50349523Y-8385238D01*
X50397142Y-8575714D01*
X50397142Y-8909047D01*
X50349523Y-9099523D01*
X50254285Y-9194761D01*
X50159047Y-9242380D01*
X49968571Y-9242380D01*
X50730476Y-8242380D02*
X51397142Y-8242380D01*
X50968571Y-9242380D01*
G04 #@! TO.C,R14*
X30767142Y-1642380D02*
X30433809Y-1166190D01*
X30195714Y-1642380D02*
X30195714Y-642380D01*
X30576666Y-642380D01*
X30671904Y-690000D01*
X30719523Y-737619D01*
X30767142Y-832857D01*
X30767142Y-975714D01*
X30719523Y-1070952D01*
X30671904Y-1118571D01*
X30576666Y-1166190D01*
X30195714Y-1166190D01*
X31719523Y-1642380D02*
X31148095Y-1642380D01*
X31433809Y-1642380D02*
X31433809Y-642380D01*
X31338571Y-785238D01*
X31243333Y-880476D01*
X31148095Y-928095D01*
X32576666Y-975714D02*
X32576666Y-1642380D01*
X32338571Y-594761D02*
X32100476Y-1309047D01*
X32719523Y-1309047D01*
G04 #@! TO.C,R15*
X33797142Y-1262380D02*
X33463809Y-786190D01*
X33225714Y-1262380D02*
X33225714Y-262380D01*
X33606666Y-262380D01*
X33701904Y-310000D01*
X33749523Y-357619D01*
X33797142Y-452857D01*
X33797142Y-595714D01*
X33749523Y-690952D01*
X33701904Y-738571D01*
X33606666Y-786190D01*
X33225714Y-786190D01*
X34749523Y-1262380D02*
X34178095Y-1262380D01*
X34463809Y-1262380D02*
X34463809Y-262380D01*
X34368571Y-405238D01*
X34273333Y-500476D01*
X34178095Y-548095D01*
X35654285Y-262380D02*
X35178095Y-262380D01*
X35130476Y-738571D01*
X35178095Y-690952D01*
X35273333Y-643333D01*
X35511428Y-643333D01*
X35606666Y-690952D01*
X35654285Y-738571D01*
X35701904Y-833809D01*
X35701904Y-1071904D01*
X35654285Y-1167142D01*
X35606666Y-1214761D01*
X35511428Y-1262380D01*
X35273333Y-1262380D01*
X35178095Y-1214761D01*
X35130476Y-1167142D01*
G04 #@! TD*
M02*
