G04 #@! TF.GenerationSoftware,KiCad,Pcbnew,(5.0.0)*
G04 #@! TF.CreationDate,2019-01-08T13:52:07-08:00*
G04 #@! TF.ProjectId,TestPlatformBoard,54657374506C6174666F726D426F6172,rev?*
G04 #@! TF.SameCoordinates,Original*
G04 #@! TF.FileFunction,Copper,L2,Bot,Signal*
G04 #@! TF.FilePolarity,Positive*
%FSLAX46Y46*%
G04 Gerber Fmt 4.6, Leading zero omitted, Abs format (unit mm)*
G04 Created by KiCad (PCBNEW (5.0.0)) date 01/08/19 13:52:07*
%MOMM*%
%LPD*%
G01*
G04 APERTURE LIST*
G04 #@! TA.AperFunction,ComponentPad*
%ADD10C,1.560000*%
G04 #@! TD*
G04 #@! TA.AperFunction,ComponentPad*
%ADD11R,1.560000X1.560000*%
G04 #@! TD*
G04 #@! TA.AperFunction,ComponentPad*
%ADD12O,1.500000X2.500000*%
G04 #@! TD*
G04 #@! TA.AperFunction,ComponentPad*
%ADD13R,1.500000X2.500000*%
G04 #@! TD*
G04 #@! TA.AperFunction,ComponentPad*
%ADD14O,1.700000X1.700000*%
G04 #@! TD*
G04 #@! TA.AperFunction,ComponentPad*
%ADD15R,1.700000X1.700000*%
G04 #@! TD*
G04 #@! TA.AperFunction,ComponentPad*
%ADD16R,1.800000X1.800000*%
G04 #@! TD*
G04 #@! TA.AperFunction,ComponentPad*
%ADD17C,1.800000*%
G04 #@! TD*
G04 #@! TA.AperFunction,SMDPad,CuDef*
%ADD18R,1.500000X1.300000*%
G04 #@! TD*
G04 #@! TA.AperFunction,ComponentPad*
%ADD19C,1.440000*%
G04 #@! TD*
G04 #@! TA.AperFunction,ComponentPad*
%ADD20R,3.500000X3.500000*%
G04 #@! TD*
G04 #@! TA.AperFunction,ComponentPad*
%ADD21R,2.000000X2.000000*%
G04 #@! TD*
G04 #@! TA.AperFunction,ViaPad*
%ADD22C,0.800000*%
G04 #@! TD*
G04 #@! TA.AperFunction,Conductor*
%ADD23C,1.000000*%
G04 #@! TD*
G04 #@! TA.AperFunction,Conductor*
%ADD24C,0.350000*%
G04 #@! TD*
G04 #@! TA.AperFunction,Conductor*
%ADD25C,0.250000*%
G04 #@! TD*
G04 #@! TA.AperFunction,Conductor*
%ADD26C,0.500000*%
G04 #@! TD*
G04 #@! TA.AperFunction,Conductor*
%ADD27C,0.254000*%
G04 #@! TD*
G04 APERTURE END LIST*
D10*
G04 #@! TO.P,U1,38*
G04 #@! TO.N,N/C*
X53400000Y-1440000D03*
G04 #@! TO.P,U1,37*
X53400000Y-3980000D03*
G04 #@! TO.P,U1,36*
X53400000Y-6520000D03*
G04 #@! TO.P,U1,35*
G04 #@! TO.N,TEMP1W*
X53400000Y-9060000D03*
G04 #@! TO.P,U1,34*
G04 #@! TO.N,IO2*
X53400000Y-11600000D03*
G04 #@! TO.P,U1,33*
G04 #@! TO.N,IO0*
X53400000Y-14140000D03*
G04 #@! TO.P,U1,32*
G04 #@! TO.N,IO4*
X53400000Y-16680000D03*
G04 #@! TO.P,U1,31*
G04 #@! TO.N,IO16*
X53400000Y-19220000D03*
G04 #@! TO.P,U1,30*
G04 #@! TO.N,IO17*
X53400000Y-21760000D03*
G04 #@! TO.P,U1,29*
G04 #@! TO.N,SPI_CS_ADC*
X53400000Y-24300000D03*
G04 #@! TO.P,U1,28*
G04 #@! TO.N,SPI_SCL*
X53400000Y-26840000D03*
G04 #@! TO.P,U1,27*
G04 #@! TO.N,SPI_Dout*
X53400000Y-29380000D03*
G04 #@! TO.P,U1,26*
G04 #@! TO.N,GND*
X53400000Y-31920000D03*
G04 #@! TO.P,U1,25*
G04 #@! TO.N,I2C_SDA*
X53400000Y-34460000D03*
G04 #@! TO.P,U1,24*
G04 #@! TO.N,N/C*
X53400000Y-37000000D03*
G04 #@! TO.P,U1,23*
X53400000Y-39540000D03*
G04 #@! TO.P,U1,22*
G04 #@! TO.N,I2C_SCL*
X53400000Y-42080000D03*
G04 #@! TO.P,U1,21*
G04 #@! TO.N,SPI_Din*
X53400000Y-44620000D03*
G04 #@! TO.P,U1,20*
G04 #@! TO.N,GND*
X53400000Y-47160000D03*
G04 #@! TO.P,U1,18*
G04 #@! TO.N,N/C*
X78800000Y-3980000D03*
G04 #@! TO.P,U1,17*
X78800000Y-6520000D03*
G04 #@! TO.P,U1,16*
X78800000Y-9060000D03*
G04 #@! TO.P,U1,15*
G04 #@! TO.N,CTRL_D2*
X78800000Y-11600000D03*
G04 #@! TO.P,U1,14*
G04 #@! TO.N,GND*
X78800000Y-14140000D03*
G04 #@! TO.P,U1,13*
G04 #@! TO.N,CTRL_D1*
X78800000Y-16680000D03*
G04 #@! TO.P,U1,12*
G04 #@! TO.N,CTRL_3V3A*
X78800000Y-19220000D03*
G04 #@! TO.P,U1,11*
G04 #@! TO.N,LED_R*
X78800000Y-21760000D03*
G04 #@! TO.P,U1,10*
G04 #@! TO.N,LED_Y*
X78800000Y-24300000D03*
G04 #@! TO.P,U1,9*
G04 #@! TO.N,LED_G*
X78800000Y-26840000D03*
G04 #@! TO.P,U1,8*
G04 #@! TO.N,IO33*
X78800000Y-29380000D03*
G04 #@! TO.P,U1,7*
G04 #@! TO.N,CTRL_Heater*
X78800000Y-31920000D03*
G04 #@! TO.P,U1,6*
G04 #@! TO.N,I35*
X78800000Y-34460000D03*
G04 #@! TO.P,U1,5*
G04 #@! TO.N,I34*
X78800000Y-37000000D03*
G04 #@! TO.P,U1,4*
G04 #@! TO.N,N/C*
X78800000Y-39540000D03*
G04 #@! TO.P,U1,3*
X78800000Y-42080000D03*
G04 #@! TO.P,U1,19*
G04 #@! TO.N,+5V*
X78800000Y-1440000D03*
G04 #@! TO.P,U1,2*
G04 #@! TO.N,N/C*
X78800000Y-44620000D03*
D11*
G04 #@! TO.P,U1,1*
G04 #@! TO.N,+3V3*
X78800000Y-47160000D03*
G04 #@! TD*
D12*
G04 #@! TO.P,U2,3*
G04 #@! TO.N,+5V*
X58180000Y-63300000D03*
G04 #@! TO.P,U2,2*
G04 #@! TO.N,GND*
X55640000Y-63300000D03*
D13*
G04 #@! TO.P,U2,1*
G04 #@! TO.N,+12V*
X53100000Y-63300000D03*
G04 #@! TD*
D14*
G04 #@! TO.P,J1,4*
G04 #@! TO.N,+12V*
X85900000Y-60820000D03*
G04 #@! TO.P,J1,3*
G04 #@! TO.N,+5V*
X85900000Y-58280000D03*
G04 #@! TO.P,J1,2*
G04 #@! TO.N,+3V3*
X85900000Y-55740000D03*
D15*
G04 #@! TO.P,J1,1*
G04 #@! TO.N,GND*
X85900000Y-53200000D03*
G04 #@! TD*
D14*
G04 #@! TO.P,J2,2*
G04 #@! TO.N,Heater-*
X30800000Y-13640000D03*
D15*
G04 #@! TO.P,J2,1*
G04 #@! TO.N,+12V*
X30800000Y-11100000D03*
G04 #@! TD*
D16*
G04 #@! TO.P,D4,1*
G04 #@! TO.N,/LMC6482/B+*
X16100000Y-18850000D03*
D17*
G04 #@! TO.P,D4,2*
G04 #@! TO.N,GNDA*
X18640000Y-18850000D03*
G04 #@! TD*
G04 #@! TO.P,D5,2*
G04 #@! TO.N,GNDA*
X16100000Y-3175000D03*
D16*
G04 #@! TO.P,D5,1*
G04 #@! TO.N,/LMC6482/A+*
X18640000Y-3175000D03*
G04 #@! TD*
D17*
G04 #@! TO.P,D7,2*
G04 #@! TO.N,Net-(D7-Pad2)*
X20400000Y-72900000D03*
D16*
G04 #@! TO.P,D7,1*
G04 #@! TO.N,Net-(D7-Pad1)*
X22940000Y-72900000D03*
G04 #@! TD*
D14*
G04 #@! TO.P,J3,3*
G04 #@! TO.N,GND*
X30800000Y-27880000D03*
G04 #@! TO.P,J3,2*
G04 #@! TO.N,TEMP1W*
X30800000Y-25340000D03*
D15*
G04 #@! TO.P,J3,1*
G04 #@! TO.N,+3V3*
X30800000Y-22800000D03*
G04 #@! TD*
D14*
G04 #@! TO.P,J5,8*
G04 #@! TO.N,IO17*
X57220000Y-74200000D03*
G04 #@! TO.P,J5,7*
G04 #@! TO.N,IO16*
X59760000Y-74200000D03*
G04 #@! TO.P,J5,6*
G04 #@! TO.N,IO4*
X62300000Y-74200000D03*
G04 #@! TO.P,J5,5*
G04 #@! TO.N,IO0*
X64840000Y-74200000D03*
G04 #@! TO.P,J5,4*
G04 #@! TO.N,IO2*
X67380000Y-74200000D03*
G04 #@! TO.P,J5,3*
G04 #@! TO.N,IO33*
X69920000Y-74200000D03*
G04 #@! TO.P,J5,2*
G04 #@! TO.N,I35*
X72460000Y-74200000D03*
D15*
G04 #@! TO.P,J5,1*
G04 #@! TO.N,I34*
X75000000Y-74200000D03*
G04 #@! TD*
D18*
G04 #@! TO.P,R12,2*
G04 #@! TO.N,I2C_SCL*
X56300000Y-42200000D03*
G04 #@! TO.P,R12,1*
G04 #@! TO.N,+3V3*
X59000000Y-42200000D03*
G04 #@! TD*
D19*
G04 #@! TO.P,RV1,3*
G04 #@! TO.N,Net-(R10-Pad1)*
X39580000Y-49400000D03*
G04 #@! TO.P,RV1,2*
X37040000Y-49400000D03*
G04 #@! TO.P,RV1,1*
G04 #@! TO.N,/LMC6482/Aout*
X34500000Y-49400000D03*
G04 #@! TD*
D18*
G04 #@! TO.P,R13,1*
G04 #@! TO.N,+3V3*
X58800000Y-34400000D03*
G04 #@! TO.P,R13,2*
G04 #@! TO.N,I2C_SDA*
X56100000Y-34400000D03*
G04 #@! TD*
D19*
G04 #@! TO.P,RV2,1*
G04 #@! TO.N,/LMC6482/Bout*
X28300000Y-49400000D03*
G04 #@! TO.P,RV2,2*
G04 #@! TO.N,Net-(R11-Pad1)*
X25760000Y-49400000D03*
G04 #@! TO.P,RV2,3*
X23220000Y-49400000D03*
G04 #@! TD*
D20*
G04 #@! TO.P,J4,3*
G04 #@! TO.N,N/C*
X49600000Y-70000000D03*
G04 #@! TO.P,J4,2*
G04 #@! TO.N,GND*
X44900000Y-73000000D03*
G04 #@! TO.P,J4,1*
G04 #@! TO.N,+12V*
X44900000Y-67000000D03*
G04 #@! TD*
D16*
G04 #@! TO.P,D1,1*
G04 #@! TO.N,Net-(D1-Pad1)*
X16160000Y-34600000D03*
D17*
G04 #@! TO.P,D1,2*
G04 #@! TO.N,+5V*
X18700000Y-34600000D03*
G04 #@! TD*
G04 #@! TO.P,D2,2*
G04 #@! TO.N,+5V*
X3175000Y-20140000D03*
D16*
G04 #@! TO.P,D2,1*
G04 #@! TO.N,Net-(D2-Pad1)*
X3175000Y-17600000D03*
G04 #@! TD*
D17*
G04 #@! TO.P,D3,2*
G04 #@! TO.N,Net-(D3-Pad2)*
X28120000Y-72900000D03*
D16*
G04 #@! TO.P,D3,1*
G04 #@! TO.N,Net-(D3-Pad1)*
X30660000Y-72900000D03*
G04 #@! TD*
G04 #@! TO.P,D6,1*
G04 #@! TO.N,Net-(D6-Pad1)*
X15280000Y-72900000D03*
D17*
G04 #@! TO.P,D6,2*
G04 #@! TO.N,Net-(D6-Pad2)*
X12740000Y-72900000D03*
G04 #@! TD*
D14*
G04 #@! TO.P,J6,5*
G04 #@! TO.N,+3V3*
X64840000Y-70200000D03*
G04 #@! TO.P,J6,4*
G04 #@! TO.N,SPI_SCL*
X67380000Y-70200000D03*
G04 #@! TO.P,J6,3*
G04 #@! TO.N,SPI_Dout*
X69920000Y-70200000D03*
G04 #@! TO.P,J6,2*
G04 #@! TO.N,SPI_Din*
X72460000Y-70200000D03*
D15*
G04 #@! TO.P,J6,1*
G04 #@! TO.N,GND*
X75000000Y-70200000D03*
G04 #@! TD*
D14*
G04 #@! TO.P,J7,4*
G04 #@! TO.N,+3V3*
X67380000Y-66200000D03*
G04 #@! TO.P,J7,3*
G04 #@! TO.N,I2C_SCL*
X69920000Y-66200000D03*
G04 #@! TO.P,J7,2*
G04 #@! TO.N,I2C_SDA*
X72460000Y-66200000D03*
D15*
G04 #@! TO.P,J7,1*
G04 #@! TO.N,GND*
X75000000Y-66200000D03*
G04 #@! TD*
D21*
G04 #@! TO.P,J8,1*
G04 #@! TO.N,GNDA*
X45700000Y-53000000D03*
G04 #@! TD*
D22*
G04 #@! TO.N,GNDA*
X20000000Y-49700000D03*
X46500000Y-50100000D03*
X44700000Y-45100000D03*
X41150000Y-46150000D03*
X32760000Y-40750000D03*
X29650000Y-51250000D03*
X28250000Y-47250000D03*
X41350000Y-41800000D03*
X20500000Y-41090000D03*
X20220000Y-45540000D03*
X23970000Y-53310000D03*
X38810000Y-53410000D03*
X32750000Y-49900000D03*
X45360000Y-38310000D03*
X48290000Y-41710000D03*
G04 #@! TO.N,+5V*
X9200000Y-51100000D03*
X9200000Y-56100000D03*
G04 #@! TO.N,GND*
X49300000Y-12800000D03*
X48200000Y-58300000D03*
X50400000Y-62700000D03*
X49000000Y-51000000D03*
X73400000Y-43100000D03*
X65800000Y-37200000D03*
X70300000Y-34300000D03*
X83800000Y-47100000D03*
X83900000Y-38600000D03*
X83500000Y-28700000D03*
X83400000Y-21200000D03*
X73300000Y-19300000D03*
X62800000Y-14100000D03*
X58300000Y-8100000D03*
X68200000Y-4300000D03*
X73500000Y-6700000D03*
G04 #@! TO.N,Heater-*
X46000000Y-5200000D03*
G04 #@! TO.N,GND*
X45300000Y-15900000D03*
X38000000Y-18500000D03*
X29000000Y-18400000D03*
X25500000Y-7400000D03*
X20400000Y-9200000D03*
X12300000Y-15500000D03*
X4400000Y-11400000D03*
X5700000Y-24700000D03*
X2400000Y-36100000D03*
X25000000Y-27700000D03*
X22630000Y-28070000D03*
X10400000Y-61900000D03*
X3200000Y-66200000D03*
G04 #@! TO.N,*
X9600000Y-71000000D03*
G04 #@! TO.N,GND*
X17950000Y-73000000D03*
X25650000Y-73000000D03*
X37100000Y-72100000D03*
X36700000Y-63100000D03*
X25700000Y-57700000D03*
X39100000Y-57700000D03*
X77900000Y-63800000D03*
X84500000Y-64400000D03*
X79300000Y-73700000D03*
X62900000Y-67500000D03*
X65200000Y-25800000D03*
X62800000Y-23100000D03*
X60000000Y-20300000D03*
X15400000Y-25300000D03*
X11000000Y-38200000D03*
X8600000Y-32800000D03*
X4600000Y-58700000D03*
X29200000Y-62500000D03*
X21550000Y-62550000D03*
X13950000Y-62400000D03*
X14200000Y-58700000D03*
X55700000Y-67000000D03*
X56600000Y-69800000D03*
X52500000Y-73850000D03*
X51000000Y-45000000D03*
X83000000Y-52500000D03*
X87500000Y-62500000D03*
X57470000Y-31510000D03*
X59200000Y-26150000D03*
X56380000Y-23610000D03*
X25370000Y-16840000D03*
X33610000Y-11940000D03*
X44180000Y-8950000D03*
X41490000Y-4700000D03*
X42580000Y-8190000D03*
X51520000Y-7840000D03*
X41560000Y-12050000D03*
X35760000Y-32480000D03*
X41865000Y-24835000D03*
X52120000Y-12870000D03*
X24210000Y-37150000D03*
X41320000Y-33320000D03*
X32540000Y-37010000D03*
G04 #@! TO.N,/LMC6482/Aout*
X33000000Y-45150000D03*
X49500000Y-33150000D03*
G04 #@! TO.N,/LMC6482/Bout*
X31150000Y-41850000D03*
X43450000Y-33050000D03*
G04 #@! TO.N,CTRL_3V3A*
X50900000Y-42900000D03*
G04 #@! TO.N,SPI_Din*
X66780709Y-63740640D03*
X61970000Y-57430000D03*
G04 #@! TO.N,SPI_Dout*
X65762653Y-63737347D03*
X61136704Y-58287660D03*
X60700000Y-51700000D03*
X58415347Y-27725000D03*
X59944000Y-29944000D03*
G04 #@! TO.N,SPI_SCL*
X64750000Y-63750000D03*
X57912000Y-26162000D03*
X60964000Y-29464000D03*
G04 #@! TO.N,+3V3*
X59900000Y-40600000D03*
X70000000Y-46100000D03*
X45900000Y-20400000D03*
X61700000Y-16700000D03*
X73900000Y-30000000D03*
G04 #@! TO.N,I2C_SCL*
X66797346Y-62702040D03*
X62695000Y-56717823D03*
G04 #@! TO.N,I2C_SDA*
X56400000Y-36100000D03*
X67510000Y-61920000D03*
X63581789Y-57180000D03*
G04 #@! TO.N,IO0*
X59300000Y-46200000D03*
X55700000Y-16600000D03*
G04 #@! TO.N,IO2*
X59912653Y-44587347D03*
X57000000Y-16500000D03*
G04 #@! TO.N,IO4*
X58616907Y-45421990D03*
G04 #@! TO.N,IO16*
X57925000Y-44700000D03*
G04 #@! TO.N,IO17*
X55900000Y-20700000D03*
X57200000Y-43900000D03*
G04 #@! TO.N,IO33*
X79400000Y-57000000D03*
G04 #@! TO.N,I34*
X81600000Y-57000000D03*
G04 #@! TO.N,I35*
X80500000Y-57000000D03*
G04 #@! TO.N,Net-(D1-Pad1)*
X13400000Y-37300000D03*
G04 #@! TO.N,Net-(Q1-Pad1)*
X11400000Y-54100000D03*
X71600000Y-16700000D03*
G04 #@! TO.N,Net-(Q2-Pad1)*
X31800000Y-62900000D03*
X71600000Y-27000000D03*
G04 #@! TO.N,Net-(Q3-Pad1)*
X48600000Y-15050000D03*
X37020000Y-4990000D03*
G04 #@! TO.N,Net-(Q4-Pad1)*
X71600000Y-21900000D03*
X16300000Y-62946602D03*
G04 #@! TO.N,Net-(Q5-Pad1)*
X3600000Y-54000000D03*
X71600000Y-11600000D03*
G04 #@! TO.N,Net-(Q6-Pad1)*
X24100000Y-62900000D03*
X71600000Y-24400000D03*
G04 #@! TD*
D23*
G04 #@! TO.N,+5V*
X85900000Y-58280000D02*
X86780000Y-58280000D01*
X86780000Y-58280000D02*
X87700000Y-57360000D01*
X87700000Y-57360000D02*
X87700000Y-15500000D01*
X79579999Y-2219999D02*
X78800000Y-1440000D01*
X80280001Y-2920001D02*
X79579999Y-2219999D01*
X80280001Y-8080001D02*
X80280001Y-2920001D01*
X87700000Y-15500000D02*
X80280001Y-8080001D01*
D24*
G04 #@! TO.N,/LMC6482/Aout*
X43127821Y-39850010D02*
X40627820Y-39850010D01*
X45002998Y-34100000D02*
X44000010Y-35102988D01*
X43477830Y-39500000D02*
X43127821Y-39850010D01*
X44000010Y-35102988D02*
X44000010Y-38977821D01*
X48550000Y-34100000D02*
X45002998Y-34100000D01*
X49500000Y-33150000D02*
X48550000Y-34100000D01*
X35749990Y-42400010D02*
X33000000Y-45150000D01*
X44000010Y-38977821D02*
X43477830Y-39500000D01*
X38077821Y-42400010D02*
X35749990Y-42400010D01*
X40627820Y-39850010D02*
X38077821Y-42400010D01*
G04 #@! TO.N,/LMC6482/Bout*
X31150000Y-41850000D02*
X37850000Y-41850000D01*
X37850000Y-41850000D02*
X40400000Y-39300000D01*
X40400000Y-39300000D02*
X42900000Y-39300000D01*
X42900000Y-39300000D02*
X43450000Y-38750000D01*
X43450000Y-38750000D02*
X43450000Y-33050000D01*
D25*
G04 #@! TO.N,CTRL_3V3A*
X50900000Y-42900000D02*
X50900000Y-32200000D01*
X52614999Y-30485001D02*
X54614999Y-30485001D01*
X50900000Y-32200000D02*
X52614999Y-30485001D01*
X76800000Y-21220000D02*
X78800000Y-19220000D01*
X76800000Y-24973002D02*
X76800000Y-21220000D01*
X73034003Y-28738999D02*
X73579002Y-28194000D01*
X55890000Y-29210000D02*
X56361001Y-28738999D01*
X54614999Y-30485001D02*
X55890000Y-29210000D01*
X73373002Y-28400000D02*
X73579002Y-28194000D01*
X73579002Y-28194000D02*
X76800000Y-24973002D01*
X56361001Y-28738999D02*
X73034003Y-28738999D01*
G04 #@! TO.N,SPI_Din*
X66780709Y-63740640D02*
X66380710Y-63340641D01*
X66380710Y-63340641D02*
X66380710Y-63320710D01*
X66380710Y-63340641D02*
X66380710Y-63310710D01*
X66380710Y-63310710D02*
X65390000Y-62320000D01*
X61861705Y-58791705D02*
X61861705Y-58168295D01*
X65390000Y-62320000D02*
X61861705Y-58791705D01*
X61970000Y-57831364D02*
X61970000Y-57430000D01*
X61861705Y-58168295D02*
X61861705Y-57939659D01*
X61861705Y-57939659D02*
X61970000Y-57831364D01*
G04 #@! TO.N,SPI_Dout*
X60700000Y-51700000D02*
X60700000Y-51134315D01*
X60700000Y-51134315D02*
X60700000Y-30700000D01*
X54695010Y-29380000D02*
X53400000Y-29380000D01*
X56275010Y-27800000D02*
X54695010Y-29380000D01*
X65762653Y-63737347D02*
X61136704Y-59111398D01*
X61136704Y-59111398D02*
X61136704Y-58287660D01*
X56275010Y-27800000D02*
X58340347Y-27800000D01*
X58340347Y-27800000D02*
X58415347Y-27725000D01*
X60700000Y-30700000D02*
X59944000Y-29944000D01*
G04 #@! TO.N,SPI_SCL*
X56034315Y-26000000D02*
X55194315Y-26840000D01*
X56600000Y-26000000D02*
X56034315Y-26000000D01*
X54503086Y-26840000D02*
X53400000Y-26840000D01*
X55194315Y-26840000D02*
X54503086Y-26840000D01*
X60411703Y-59411703D02*
X60880000Y-59880000D01*
X64750000Y-63750000D02*
X60880000Y-59880000D01*
X61425001Y-29925001D02*
X61425001Y-52174999D01*
X61425001Y-52174999D02*
X60411703Y-53188297D01*
X60411703Y-53188297D02*
X60411703Y-59411703D01*
X56600000Y-26000000D02*
X57750000Y-26000000D01*
X57750000Y-26000000D02*
X57912000Y-26162000D01*
X60900000Y-29400000D02*
X60964000Y-29464000D01*
X60964000Y-29464000D02*
X61425001Y-29925001D01*
D23*
G04 #@! TO.N,+3V3*
X77840000Y-55740000D02*
X67380000Y-66200000D01*
X85900000Y-55740000D02*
X77840000Y-55740000D01*
D26*
X64840000Y-68740000D02*
X67380000Y-66200000D01*
X64840000Y-70200000D02*
X64840000Y-68740000D01*
D25*
X58800000Y-42000000D02*
X59000000Y-42200000D01*
X58800000Y-34400000D02*
X58800000Y-42000000D01*
X59000000Y-42200000D02*
X59000000Y-41500000D01*
X59000000Y-41500000D02*
X59900000Y-40600000D01*
X71060000Y-47160000D02*
X78800000Y-47160000D01*
X70000000Y-46100000D02*
X71060000Y-47160000D01*
D26*
X30800000Y-22800000D02*
X43500000Y-22800000D01*
X43500000Y-22800000D02*
X45900000Y-20400000D01*
X45900000Y-20400000D02*
X50900000Y-15400000D01*
X52809599Y-10369999D02*
X54919999Y-10369999D01*
X50900000Y-15400000D02*
X50900000Y-12279598D01*
X50900000Y-12279598D02*
X52809599Y-10369999D01*
X54919999Y-10369999D02*
X61250000Y-16700000D01*
X61250000Y-16700000D02*
X61700000Y-16700000D01*
X77520000Y-47160000D02*
X78800000Y-47160000D01*
X74299999Y-43939999D02*
X77520000Y-47160000D01*
X74299999Y-30399999D02*
X74299999Y-43939999D01*
X73900000Y-30000000D02*
X74299999Y-30399999D01*
D25*
G04 #@! TO.N,I2C_SCL*
X53520000Y-42200000D02*
X53400000Y-42080000D01*
X56300000Y-42200000D02*
X53520000Y-42200000D01*
X66797346Y-62702040D02*
X62695000Y-58599694D01*
X62695000Y-58599694D02*
X62695000Y-56717823D01*
G04 #@! TO.N,I2C_SDA*
X53460000Y-34400000D02*
X53400000Y-34460000D01*
X56100000Y-34400000D02*
X53460000Y-34400000D01*
X56400000Y-36100000D02*
X56400000Y-34700000D01*
X56400000Y-34700000D02*
X56100000Y-34400000D01*
X67510000Y-61920000D02*
X63420001Y-57830001D01*
X63420001Y-57830001D02*
X63420001Y-57341788D01*
X63420001Y-57341788D02*
X63581789Y-57180000D01*
D23*
G04 #@! TO.N,+12V*
X28950000Y-11100000D02*
X22800000Y-17250000D01*
X30800000Y-11100000D02*
X28950000Y-11100000D01*
X22800000Y-17250000D02*
X22800000Y-22200000D01*
X22800000Y-22200000D02*
X1900000Y-43100000D01*
X1900000Y-43100000D02*
X1900000Y-60100000D01*
X8800000Y-67000000D02*
X44900000Y-67000000D01*
X1900000Y-60100000D02*
X8800000Y-67000000D01*
D25*
G04 #@! TO.N,IO0*
X58550030Y-47159200D02*
X58550030Y-46949970D01*
X58550030Y-46949970D02*
X59300000Y-46200000D01*
X53400000Y-14300000D02*
X53400000Y-14140000D01*
X55700000Y-16600000D02*
X53400000Y-14300000D01*
X53350031Y-57747211D02*
X53350031Y-52359199D01*
X56746410Y-61143590D02*
X53350031Y-57747211D01*
X53350031Y-52359199D02*
X55529230Y-50180000D01*
X55400009Y-50309221D02*
X55529230Y-50180000D01*
X64840000Y-74200000D02*
X59500000Y-68860000D01*
X59500000Y-68860000D02*
X59500000Y-62599707D01*
X55529230Y-50180000D02*
X58550030Y-47159200D01*
X59500000Y-62599707D02*
X58043883Y-61143590D01*
X58043883Y-61143590D02*
X56746410Y-61143590D01*
G04 #@! TO.N,IO2*
X66204999Y-73024999D02*
X64301409Y-73024999D01*
X67380000Y-74200000D02*
X66204999Y-73024999D01*
X59950010Y-68673600D02*
X59950009Y-62413306D01*
X64301409Y-73024999D02*
X59950010Y-68673600D01*
X60025001Y-44699695D02*
X59912653Y-44587347D01*
X60025001Y-46548001D02*
X60025001Y-44699695D01*
X57000000Y-15200000D02*
X53400000Y-11600000D01*
X57000000Y-16500000D02*
X57000000Y-15200000D01*
X58230283Y-60693580D02*
X56932810Y-60693580D01*
X58690000Y-61153297D02*
X58230283Y-60693580D01*
X59950009Y-62413306D02*
X58690000Y-61153297D01*
X56932810Y-60693580D02*
X53800041Y-57560811D01*
X53800041Y-57560811D02*
X53800041Y-52545599D01*
X59648001Y-46925001D02*
X60025001Y-46548001D01*
X59420639Y-46925001D02*
X59648001Y-46925001D01*
X53800041Y-52545599D02*
X59420639Y-46925001D01*
G04 #@! TO.N,IO4*
X58100020Y-46972800D02*
X58100020Y-45938877D01*
X58100020Y-45938877D02*
X58616907Y-45421990D01*
X52900021Y-52172799D02*
X53866401Y-51206419D01*
X62300000Y-74200000D02*
X56900000Y-68800000D01*
X53866401Y-51206419D02*
X54660000Y-50412820D01*
X56900000Y-68800000D02*
X56900000Y-61933590D01*
X56900000Y-61933590D02*
X52900021Y-57933611D01*
X54660000Y-50412820D02*
X58100020Y-46972800D01*
X54400006Y-50672814D02*
X54660000Y-50412820D01*
X52900021Y-57933611D02*
X52900021Y-52172799D01*
G04 #@! TO.N,IO16*
X54448001Y-68888001D02*
X59760000Y-74200000D01*
X57650010Y-46786400D02*
X57650010Y-44974990D01*
X57650010Y-44974990D02*
X57925000Y-44700000D01*
X54448001Y-60118001D02*
X52450011Y-58120011D01*
X54448001Y-60200000D02*
X54448001Y-60118001D01*
X54448001Y-60200000D02*
X54448001Y-68888001D01*
X52450011Y-51986399D02*
X53680000Y-50756410D01*
X52450011Y-58120011D02*
X52450011Y-51986399D01*
X53400003Y-51036407D02*
X53680000Y-50756410D01*
X53680000Y-50756410D02*
X57650010Y-46786400D01*
G04 #@! TO.N,IO17*
X53400000Y-21760000D02*
X54840000Y-21760000D01*
X54840000Y-21760000D02*
X55900000Y-20700000D01*
X57200000Y-46600000D02*
X57200000Y-43900000D01*
X52000001Y-51799999D02*
X57200000Y-46600000D01*
X57220000Y-74200000D02*
X52000001Y-68980001D01*
X52000001Y-68980001D02*
X52000001Y-51799999D01*
G04 #@! TO.N,IO33*
X78500000Y-70300000D02*
X78500000Y-68863590D01*
X76800000Y-72100000D02*
X78500000Y-70300000D01*
X80600000Y-66763590D02*
X80600000Y-58200000D01*
X80600000Y-58200000D02*
X79400000Y-57000000D01*
X69920000Y-74200000D02*
X71095001Y-73024999D01*
X73923590Y-72100000D02*
X76800000Y-72100000D01*
X72998591Y-73024999D02*
X73923590Y-72100000D01*
X78500000Y-68863590D02*
X80600000Y-66763590D01*
X71095001Y-73024999D02*
X72998591Y-73024999D01*
G04 #@! TO.N,I34*
X76100000Y-74200000D02*
X79500000Y-70800000D01*
X75000000Y-74200000D02*
X76100000Y-74200000D01*
X79500000Y-70800000D02*
X79500000Y-69200000D01*
X79500000Y-69200000D02*
X81600000Y-67100000D01*
X81600000Y-67100000D02*
X81600000Y-57000000D01*
G04 #@! TO.N,I35*
X77000000Y-72600000D02*
X79049990Y-70550010D01*
X72460000Y-74200000D02*
X74060000Y-72600000D01*
X74060000Y-72600000D02*
X77000000Y-72600000D01*
X79049990Y-70550010D02*
X79049990Y-68950010D01*
X79049990Y-68950010D02*
X81100000Y-66900000D01*
X81100000Y-66900000D02*
X81100000Y-57600000D01*
X81100000Y-57600000D02*
X80500000Y-57000000D01*
G04 #@! TO.N,Net-(Q1-Pad1)*
X69734991Y-18565009D02*
X71600000Y-16700000D01*
X55690393Y-18565009D02*
X69734991Y-18565009D01*
X11400000Y-54100000D02*
X11400000Y-44736410D01*
X21886400Y-34250010D02*
X36386400Y-34250010D01*
X36386400Y-34250010D02*
X50136410Y-20500000D01*
X50136410Y-20500000D02*
X53755402Y-20500000D01*
X11400000Y-44736410D02*
X21886400Y-34250010D01*
X53755402Y-20500000D02*
X55690393Y-18565009D01*
G04 #@! TO.N,Net-(Q2-Pad1)*
X29700000Y-60800000D02*
X31800000Y-62900000D01*
X22445600Y-35600040D02*
X17600000Y-40445640D01*
X46495630Y-26050010D02*
X36945600Y-35600040D01*
X19600000Y-60800000D02*
X29700000Y-60800000D01*
X50550010Y-26050010D02*
X46495630Y-26050010D01*
X36945600Y-35600040D02*
X22445600Y-35600040D01*
X71600000Y-27000000D02*
X55900000Y-27000000D01*
X17600000Y-40445640D02*
X17600000Y-58800000D01*
X55900000Y-27000000D02*
X54800000Y-28100000D01*
X17600000Y-58800000D02*
X19600000Y-60800000D01*
X54800000Y-28100000D02*
X52600000Y-28100000D01*
X52600000Y-28100000D02*
X50550010Y-26050010D01*
G04 #@! TO.N,Net-(Q3-Pad1)*
X48600000Y-15050000D02*
X46910000Y-15050000D01*
X46910000Y-15050000D02*
X37580000Y-5720000D01*
X37580000Y-5720000D02*
X37580000Y-5550000D01*
X37580000Y-5550000D02*
X37020000Y-4990000D01*
G04 #@! TO.N,Net-(Q4-Pad1)*
X16600000Y-40172820D02*
X16600000Y-60700000D01*
X16600000Y-60700000D02*
X16300000Y-61000000D01*
X36572800Y-34700020D02*
X22072800Y-34700020D01*
X16300000Y-61000000D02*
X16300000Y-62946602D01*
X48077821Y-23194999D02*
X36572800Y-34700020D01*
X22072800Y-34700020D02*
X16600000Y-40172820D01*
X55205001Y-23194999D02*
X48077821Y-23194999D01*
X56500000Y-21900000D02*
X55205001Y-23194999D01*
X71600000Y-21900000D02*
X56500000Y-21900000D01*
G04 #@! TO.N,Net-(Q5-Pad1)*
X5100000Y-52500000D02*
X3600000Y-54000000D01*
X67200000Y-18100000D02*
X51885001Y-18114999D01*
X51885001Y-18114999D02*
X36200000Y-33800000D01*
X36200000Y-33800000D02*
X21700000Y-33800000D01*
X21700000Y-33800000D02*
X5100000Y-50400000D01*
X5100000Y-50400000D02*
X5100000Y-52500000D01*
X67200000Y-18100000D02*
X68200000Y-18100000D01*
X71600000Y-14700000D02*
X71600000Y-11600000D01*
X68200000Y-18100000D02*
X71600000Y-14700000D01*
G04 #@! TO.N,Net-(Q6-Pad1)*
X24100000Y-62800000D02*
X24100000Y-62900000D01*
X23015695Y-61250010D02*
X24100000Y-62334315D01*
X19413600Y-61250010D02*
X23015695Y-61250010D01*
X17100000Y-58936410D02*
X19413600Y-61250010D01*
X17100000Y-40309230D02*
X17100000Y-58936410D01*
X22259200Y-35150030D02*
X17100000Y-40309230D01*
X36759200Y-35150030D02*
X22259200Y-35150030D01*
X71600000Y-24400000D02*
X56400000Y-24400000D01*
X56400000Y-24400000D02*
X55200000Y-25600000D01*
X55200000Y-25600000D02*
X46309230Y-25600000D01*
X46309230Y-25600000D02*
X36759200Y-35150030D01*
X24100000Y-62334315D02*
X24100000Y-62900000D01*
G04 #@! TD*
D27*
G04 #@! TO.N,GNDA*
G36*
X49873000Y-42674812D02*
X49865000Y-42694126D01*
X49865000Y-43105874D01*
X49873000Y-43125188D01*
X49873000Y-43773000D01*
X47500000Y-43773000D01*
X47451399Y-43782667D01*
X47410197Y-43810197D01*
X47382667Y-43851399D01*
X47373000Y-43900000D01*
X47373000Y-54673000D01*
X18427000Y-54673000D01*
X18427000Y-53285750D01*
X44065000Y-53285750D01*
X44065000Y-54126310D01*
X44161673Y-54359699D01*
X44340302Y-54538327D01*
X44573691Y-54635000D01*
X45414250Y-54635000D01*
X45573000Y-54476250D01*
X45573000Y-53127000D01*
X45827000Y-53127000D01*
X45827000Y-54476250D01*
X45985750Y-54635000D01*
X46826309Y-54635000D01*
X47059698Y-54538327D01*
X47238327Y-54359699D01*
X47335000Y-54126310D01*
X47335000Y-53285750D01*
X47176250Y-53127000D01*
X45827000Y-53127000D01*
X45573000Y-53127000D01*
X44223750Y-53127000D01*
X44065000Y-53285750D01*
X18427000Y-53285750D01*
X18427000Y-51873690D01*
X44065000Y-51873690D01*
X44065000Y-52714250D01*
X44223750Y-52873000D01*
X45573000Y-52873000D01*
X45573000Y-51523750D01*
X45827000Y-51523750D01*
X45827000Y-52873000D01*
X47176250Y-52873000D01*
X47335000Y-52714250D01*
X47335000Y-51873690D01*
X47238327Y-51640301D01*
X47059698Y-51461673D01*
X46826309Y-51365000D01*
X45985750Y-51365000D01*
X45827000Y-51523750D01*
X45573000Y-51523750D01*
X45414250Y-51365000D01*
X44573691Y-51365000D01*
X44340302Y-51461673D01*
X44161673Y-51640301D01*
X44065000Y-51873690D01*
X18427000Y-51873690D01*
X18427000Y-49130474D01*
X21865000Y-49130474D01*
X21865000Y-49669526D01*
X22071286Y-50167546D01*
X22452454Y-50548714D01*
X22950474Y-50755000D01*
X23489526Y-50755000D01*
X23987546Y-50548714D01*
X24368714Y-50167546D01*
X24490000Y-49874735D01*
X24611286Y-50167546D01*
X24992454Y-50548714D01*
X25490474Y-50755000D01*
X26029526Y-50755000D01*
X26527546Y-50548714D01*
X26908714Y-50167546D01*
X27030000Y-49874735D01*
X27151286Y-50167546D01*
X27532454Y-50548714D01*
X28030474Y-50755000D01*
X28569526Y-50755000D01*
X29067546Y-50548714D01*
X29448714Y-50167546D01*
X29655000Y-49669526D01*
X29655000Y-49130474D01*
X33145000Y-49130474D01*
X33145000Y-49669526D01*
X33351286Y-50167546D01*
X33732454Y-50548714D01*
X34230474Y-50755000D01*
X34769526Y-50755000D01*
X35267546Y-50548714D01*
X35648714Y-50167546D01*
X35770000Y-49874735D01*
X35891286Y-50167546D01*
X36272454Y-50548714D01*
X36770474Y-50755000D01*
X37309526Y-50755000D01*
X37807546Y-50548714D01*
X38188714Y-50167546D01*
X38310000Y-49874735D01*
X38431286Y-50167546D01*
X38812454Y-50548714D01*
X39310474Y-50755000D01*
X39849526Y-50755000D01*
X40347546Y-50548714D01*
X40728714Y-50167546D01*
X40935000Y-49669526D01*
X40935000Y-49130474D01*
X40728714Y-48632454D01*
X40347546Y-48251286D01*
X39849526Y-48045000D01*
X39310474Y-48045000D01*
X38812454Y-48251286D01*
X38431286Y-48632454D01*
X38310000Y-48925265D01*
X38188714Y-48632454D01*
X37807546Y-48251286D01*
X37309526Y-48045000D01*
X36770474Y-48045000D01*
X36272454Y-48251286D01*
X35891286Y-48632454D01*
X35770000Y-48925265D01*
X35648714Y-48632454D01*
X35267546Y-48251286D01*
X34769526Y-48045000D01*
X34230474Y-48045000D01*
X33732454Y-48251286D01*
X33351286Y-48632454D01*
X33145000Y-49130474D01*
X29655000Y-49130474D01*
X29448714Y-48632454D01*
X29067546Y-48251286D01*
X28569526Y-48045000D01*
X28030474Y-48045000D01*
X27532454Y-48251286D01*
X27151286Y-48632454D01*
X27030000Y-48925265D01*
X26908714Y-48632454D01*
X26527546Y-48251286D01*
X26029526Y-48045000D01*
X25490474Y-48045000D01*
X24992454Y-48251286D01*
X24611286Y-48632454D01*
X24490000Y-48925265D01*
X24368714Y-48632454D01*
X23987546Y-48251286D01*
X23489526Y-48045000D01*
X22950474Y-48045000D01*
X22452454Y-48251286D01*
X22071286Y-48632454D01*
X21865000Y-49130474D01*
X18427000Y-49130474D01*
X18427000Y-40952606D01*
X20352606Y-39027000D01*
X39527487Y-39027000D01*
X37514488Y-41040000D01*
X31803711Y-41040000D01*
X31736280Y-40972569D01*
X31355874Y-40815000D01*
X30944126Y-40815000D01*
X30563720Y-40972569D01*
X30272569Y-41263720D01*
X30115000Y-41644126D01*
X30115000Y-42055874D01*
X30272569Y-42436280D01*
X30563720Y-42727431D01*
X30944126Y-42885000D01*
X31355874Y-42885000D01*
X31736280Y-42727431D01*
X31803711Y-42660000D01*
X34344487Y-42660000D01*
X32889488Y-44115000D01*
X32794126Y-44115000D01*
X32413720Y-44272569D01*
X32122569Y-44563720D01*
X31965000Y-44944126D01*
X31965000Y-45355874D01*
X32122569Y-45736280D01*
X32413720Y-46027431D01*
X32794126Y-46185000D01*
X33205874Y-46185000D01*
X33586280Y-46027431D01*
X33877431Y-45736280D01*
X34035000Y-45355874D01*
X34035000Y-45260512D01*
X36085503Y-43210010D01*
X37998048Y-43210010D01*
X38077821Y-43225878D01*
X38157594Y-43210010D01*
X38157595Y-43210010D01*
X38393867Y-43163013D01*
X38661798Y-42983987D01*
X38706989Y-42916354D01*
X40963333Y-40660010D01*
X43048048Y-40660010D01*
X43127822Y-40675878D01*
X43207595Y-40660010D01*
X43443867Y-40613013D01*
X43711798Y-40433987D01*
X43756990Y-40366353D01*
X43994175Y-40129166D01*
X43994177Y-40129165D01*
X44516356Y-39606988D01*
X44583987Y-39561798D01*
X44736212Y-39333977D01*
X44763012Y-39293869D01*
X44763012Y-39293868D01*
X44763013Y-39293867D01*
X44810010Y-39057595D01*
X44810010Y-39057592D01*
X44825877Y-38977823D01*
X44810010Y-38898053D01*
X44810010Y-35438500D01*
X45338511Y-34910000D01*
X48470227Y-34910000D01*
X48550000Y-34925868D01*
X48629773Y-34910000D01*
X48629774Y-34910000D01*
X48866046Y-34863003D01*
X49133977Y-34683977D01*
X49179168Y-34616344D01*
X49610513Y-34185000D01*
X49705874Y-34185000D01*
X49873000Y-34115774D01*
X49873000Y-42674812D01*
X49873000Y-42674812D01*
G37*
X49873000Y-42674812D02*
X49865000Y-42694126D01*
X49865000Y-43105874D01*
X49873000Y-43125188D01*
X49873000Y-43773000D01*
X47500000Y-43773000D01*
X47451399Y-43782667D01*
X47410197Y-43810197D01*
X47382667Y-43851399D01*
X47373000Y-43900000D01*
X47373000Y-54673000D01*
X18427000Y-54673000D01*
X18427000Y-53285750D01*
X44065000Y-53285750D01*
X44065000Y-54126310D01*
X44161673Y-54359699D01*
X44340302Y-54538327D01*
X44573691Y-54635000D01*
X45414250Y-54635000D01*
X45573000Y-54476250D01*
X45573000Y-53127000D01*
X45827000Y-53127000D01*
X45827000Y-54476250D01*
X45985750Y-54635000D01*
X46826309Y-54635000D01*
X47059698Y-54538327D01*
X47238327Y-54359699D01*
X47335000Y-54126310D01*
X47335000Y-53285750D01*
X47176250Y-53127000D01*
X45827000Y-53127000D01*
X45573000Y-53127000D01*
X44223750Y-53127000D01*
X44065000Y-53285750D01*
X18427000Y-53285750D01*
X18427000Y-51873690D01*
X44065000Y-51873690D01*
X44065000Y-52714250D01*
X44223750Y-52873000D01*
X45573000Y-52873000D01*
X45573000Y-51523750D01*
X45827000Y-51523750D01*
X45827000Y-52873000D01*
X47176250Y-52873000D01*
X47335000Y-52714250D01*
X47335000Y-51873690D01*
X47238327Y-51640301D01*
X47059698Y-51461673D01*
X46826309Y-51365000D01*
X45985750Y-51365000D01*
X45827000Y-51523750D01*
X45573000Y-51523750D01*
X45414250Y-51365000D01*
X44573691Y-51365000D01*
X44340302Y-51461673D01*
X44161673Y-51640301D01*
X44065000Y-51873690D01*
X18427000Y-51873690D01*
X18427000Y-49130474D01*
X21865000Y-49130474D01*
X21865000Y-49669526D01*
X22071286Y-50167546D01*
X22452454Y-50548714D01*
X22950474Y-50755000D01*
X23489526Y-50755000D01*
X23987546Y-50548714D01*
X24368714Y-50167546D01*
X24490000Y-49874735D01*
X24611286Y-50167546D01*
X24992454Y-50548714D01*
X25490474Y-50755000D01*
X26029526Y-50755000D01*
X26527546Y-50548714D01*
X26908714Y-50167546D01*
X27030000Y-49874735D01*
X27151286Y-50167546D01*
X27532454Y-50548714D01*
X28030474Y-50755000D01*
X28569526Y-50755000D01*
X29067546Y-50548714D01*
X29448714Y-50167546D01*
X29655000Y-49669526D01*
X29655000Y-49130474D01*
X33145000Y-49130474D01*
X33145000Y-49669526D01*
X33351286Y-50167546D01*
X33732454Y-50548714D01*
X34230474Y-50755000D01*
X34769526Y-50755000D01*
X35267546Y-50548714D01*
X35648714Y-50167546D01*
X35770000Y-49874735D01*
X35891286Y-50167546D01*
X36272454Y-50548714D01*
X36770474Y-50755000D01*
X37309526Y-50755000D01*
X37807546Y-50548714D01*
X38188714Y-50167546D01*
X38310000Y-49874735D01*
X38431286Y-50167546D01*
X38812454Y-50548714D01*
X39310474Y-50755000D01*
X39849526Y-50755000D01*
X40347546Y-50548714D01*
X40728714Y-50167546D01*
X40935000Y-49669526D01*
X40935000Y-49130474D01*
X40728714Y-48632454D01*
X40347546Y-48251286D01*
X39849526Y-48045000D01*
X39310474Y-48045000D01*
X38812454Y-48251286D01*
X38431286Y-48632454D01*
X38310000Y-48925265D01*
X38188714Y-48632454D01*
X37807546Y-48251286D01*
X37309526Y-48045000D01*
X36770474Y-48045000D01*
X36272454Y-48251286D01*
X35891286Y-48632454D01*
X35770000Y-48925265D01*
X35648714Y-48632454D01*
X35267546Y-48251286D01*
X34769526Y-48045000D01*
X34230474Y-48045000D01*
X33732454Y-48251286D01*
X33351286Y-48632454D01*
X33145000Y-49130474D01*
X29655000Y-49130474D01*
X29448714Y-48632454D01*
X29067546Y-48251286D01*
X28569526Y-48045000D01*
X28030474Y-48045000D01*
X27532454Y-48251286D01*
X27151286Y-48632454D01*
X27030000Y-48925265D01*
X26908714Y-48632454D01*
X26527546Y-48251286D01*
X26029526Y-48045000D01*
X25490474Y-48045000D01*
X24992454Y-48251286D01*
X24611286Y-48632454D01*
X24490000Y-48925265D01*
X24368714Y-48632454D01*
X23987546Y-48251286D01*
X23489526Y-48045000D01*
X22950474Y-48045000D01*
X22452454Y-48251286D01*
X22071286Y-48632454D01*
X21865000Y-49130474D01*
X18427000Y-49130474D01*
X18427000Y-40952606D01*
X20352606Y-39027000D01*
X39527487Y-39027000D01*
X37514488Y-41040000D01*
X31803711Y-41040000D01*
X31736280Y-40972569D01*
X31355874Y-40815000D01*
X30944126Y-40815000D01*
X30563720Y-40972569D01*
X30272569Y-41263720D01*
X30115000Y-41644126D01*
X30115000Y-42055874D01*
X30272569Y-42436280D01*
X30563720Y-42727431D01*
X30944126Y-42885000D01*
X31355874Y-42885000D01*
X31736280Y-42727431D01*
X31803711Y-42660000D01*
X34344487Y-42660000D01*
X32889488Y-44115000D01*
X32794126Y-44115000D01*
X32413720Y-44272569D01*
X32122569Y-44563720D01*
X31965000Y-44944126D01*
X31965000Y-45355874D01*
X32122569Y-45736280D01*
X32413720Y-46027431D01*
X32794126Y-46185000D01*
X33205874Y-46185000D01*
X33586280Y-46027431D01*
X33877431Y-45736280D01*
X34035000Y-45355874D01*
X34035000Y-45260512D01*
X36085503Y-43210010D01*
X37998048Y-43210010D01*
X38077821Y-43225878D01*
X38157594Y-43210010D01*
X38157595Y-43210010D01*
X38393867Y-43163013D01*
X38661798Y-42983987D01*
X38706989Y-42916354D01*
X40963333Y-40660010D01*
X43048048Y-40660010D01*
X43127822Y-40675878D01*
X43207595Y-40660010D01*
X43443867Y-40613013D01*
X43711798Y-40433987D01*
X43756990Y-40366353D01*
X43994175Y-40129166D01*
X43994177Y-40129165D01*
X44516356Y-39606988D01*
X44583987Y-39561798D01*
X44736212Y-39333977D01*
X44763012Y-39293869D01*
X44763012Y-39293868D01*
X44763013Y-39293867D01*
X44810010Y-39057595D01*
X44810010Y-39057592D01*
X44825877Y-38977823D01*
X44810010Y-38898053D01*
X44810010Y-35438500D01*
X45338511Y-34910000D01*
X48470227Y-34910000D01*
X48550000Y-34925868D01*
X48629773Y-34910000D01*
X48629774Y-34910000D01*
X48866046Y-34863003D01*
X49133977Y-34683977D01*
X49179168Y-34616344D01*
X49610513Y-34185000D01*
X49705874Y-34185000D01*
X49873000Y-34115774D01*
X49873000Y-42674812D01*
G04 #@! TO.N,GND*
G36*
X85127761Y-57010000D02*
X84829375Y-57209375D01*
X84501161Y-57700582D01*
X84385908Y-58280000D01*
X84501161Y-58859418D01*
X84829375Y-59350625D01*
X85127761Y-59550000D01*
X84829375Y-59749375D01*
X84501161Y-60240582D01*
X84385908Y-60820000D01*
X84501161Y-61399418D01*
X84829375Y-61890625D01*
X85320582Y-62218839D01*
X85753744Y-62305000D01*
X86046256Y-62305000D01*
X86479418Y-62218839D01*
X86970625Y-61890625D01*
X87298839Y-61399418D01*
X87414092Y-60820000D01*
X87298839Y-60240582D01*
X86970625Y-59749375D01*
X86672239Y-59550000D01*
X86866862Y-59419957D01*
X86891783Y-59415000D01*
X87222855Y-59349146D01*
X87598289Y-59098289D01*
X87661612Y-59003519D01*
X88165001Y-58500131D01*
X88165001Y-69821112D01*
X88093626Y-70728022D01*
X87888021Y-71584429D01*
X87550976Y-72398125D01*
X87090789Y-73149081D01*
X86518801Y-73818794D01*
X85849081Y-74390790D01*
X85098123Y-74850977D01*
X84284431Y-75188020D01*
X83428022Y-75393626D01*
X82521125Y-75465000D01*
X76336413Y-75465000D01*
X76448157Y-75297765D01*
X76497440Y-75050000D01*
X76497440Y-74848483D01*
X76647929Y-74747929D01*
X76690331Y-74684470D01*
X79984473Y-71390329D01*
X80047929Y-71347929D01*
X80215904Y-71096537D01*
X80260000Y-70874852D01*
X80260000Y-70874848D01*
X80274888Y-70800001D01*
X80260000Y-70725154D01*
X80260000Y-70625703D01*
X81335000Y-70625703D01*
X81335000Y-71614297D01*
X81713319Y-72527639D01*
X82412361Y-73226681D01*
X83325703Y-73605000D01*
X84314297Y-73605000D01*
X85227639Y-73226681D01*
X85926681Y-72527639D01*
X86305000Y-71614297D01*
X86305000Y-70625703D01*
X85926681Y-69712361D01*
X85227639Y-69013319D01*
X84314297Y-68635000D01*
X83325703Y-68635000D01*
X82412361Y-69013319D01*
X81713319Y-69712361D01*
X81335000Y-70625703D01*
X80260000Y-70625703D01*
X80260000Y-69514801D01*
X82084476Y-67690327D01*
X82147929Y-67647929D01*
X82190327Y-67584476D01*
X82190329Y-67584474D01*
X82315903Y-67396538D01*
X82315904Y-67396537D01*
X82360000Y-67174852D01*
X82360000Y-67174848D01*
X82374888Y-67100001D01*
X82360000Y-67025154D01*
X82360000Y-57703711D01*
X82477431Y-57586280D01*
X82635000Y-57205874D01*
X82635000Y-56875000D01*
X84925719Y-56875000D01*
X85127761Y-57010000D01*
X85127761Y-57010000D01*
G37*
X85127761Y-57010000D02*
X84829375Y-57209375D01*
X84501161Y-57700582D01*
X84385908Y-58280000D01*
X84501161Y-58859418D01*
X84829375Y-59350625D01*
X85127761Y-59550000D01*
X84829375Y-59749375D01*
X84501161Y-60240582D01*
X84385908Y-60820000D01*
X84501161Y-61399418D01*
X84829375Y-61890625D01*
X85320582Y-62218839D01*
X85753744Y-62305000D01*
X86046256Y-62305000D01*
X86479418Y-62218839D01*
X86970625Y-61890625D01*
X87298839Y-61399418D01*
X87414092Y-60820000D01*
X87298839Y-60240582D01*
X86970625Y-59749375D01*
X86672239Y-59550000D01*
X86866862Y-59419957D01*
X86891783Y-59415000D01*
X87222855Y-59349146D01*
X87598289Y-59098289D01*
X87661612Y-59003519D01*
X88165001Y-58500131D01*
X88165001Y-69821112D01*
X88093626Y-70728022D01*
X87888021Y-71584429D01*
X87550976Y-72398125D01*
X87090789Y-73149081D01*
X86518801Y-73818794D01*
X85849081Y-74390790D01*
X85098123Y-74850977D01*
X84284431Y-75188020D01*
X83428022Y-75393626D01*
X82521125Y-75465000D01*
X76336413Y-75465000D01*
X76448157Y-75297765D01*
X76497440Y-75050000D01*
X76497440Y-74848483D01*
X76647929Y-74747929D01*
X76690331Y-74684470D01*
X79984473Y-71390329D01*
X80047929Y-71347929D01*
X80215904Y-71096537D01*
X80260000Y-70874852D01*
X80260000Y-70874848D01*
X80274888Y-70800001D01*
X80260000Y-70725154D01*
X80260000Y-70625703D01*
X81335000Y-70625703D01*
X81335000Y-71614297D01*
X81713319Y-72527639D01*
X82412361Y-73226681D01*
X83325703Y-73605000D01*
X84314297Y-73605000D01*
X85227639Y-73226681D01*
X85926681Y-72527639D01*
X86305000Y-71614297D01*
X86305000Y-70625703D01*
X85926681Y-69712361D01*
X85227639Y-69013319D01*
X84314297Y-68635000D01*
X83325703Y-68635000D01*
X82412361Y-69013319D01*
X81713319Y-69712361D01*
X81335000Y-70625703D01*
X80260000Y-70625703D01*
X80260000Y-69514801D01*
X82084476Y-67690327D01*
X82147929Y-67647929D01*
X82190327Y-67584476D01*
X82190329Y-67584474D01*
X82315903Y-67396538D01*
X82315904Y-67396537D01*
X82360000Y-67174852D01*
X82360000Y-67174848D01*
X82374888Y-67100001D01*
X82360000Y-67025154D01*
X82360000Y-57703711D01*
X82477431Y-57586280D01*
X82635000Y-57205874D01*
X82635000Y-56875000D01*
X84925719Y-56875000D01*
X85127761Y-57010000D01*
G36*
X51985000Y-1158539D02*
X51985000Y-1721461D01*
X52200421Y-2241533D01*
X52598467Y-2639579D01*
X52768478Y-2710000D01*
X52598467Y-2780421D01*
X52200421Y-3178467D01*
X51985000Y-3698539D01*
X51985000Y-4261461D01*
X52200421Y-4781533D01*
X52598467Y-5179579D01*
X52768478Y-5250000D01*
X52598467Y-5320421D01*
X52200421Y-5718467D01*
X51985000Y-6238539D01*
X51985000Y-6801461D01*
X52200421Y-7321533D01*
X52598467Y-7719579D01*
X52768478Y-7790000D01*
X52598467Y-7860421D01*
X52200421Y-8258467D01*
X51985000Y-8778539D01*
X51985000Y-9341461D01*
X52156238Y-9754866D01*
X52122176Y-9805843D01*
X50335845Y-11592175D01*
X50261952Y-11641549D01*
X50212578Y-11715442D01*
X50212576Y-11715444D01*
X50066348Y-11934289D01*
X49997663Y-12279598D01*
X50015001Y-12366763D01*
X50015000Y-15033421D01*
X49523598Y-15524823D01*
X49635000Y-15255874D01*
X49635000Y-14844126D01*
X49477431Y-14463720D01*
X49186280Y-14172569D01*
X48805874Y-14015000D01*
X48394126Y-14015000D01*
X48013720Y-14172569D01*
X47896289Y-14290000D01*
X47224802Y-14290000D01*
X38322631Y-5387830D01*
X38295904Y-5253464D01*
X38295904Y-5253463D01*
X38170329Y-5065527D01*
X38127929Y-5002071D01*
X38116039Y-4994126D01*
X44965000Y-4994126D01*
X44965000Y-5405874D01*
X45122569Y-5786280D01*
X45413720Y-6077431D01*
X45794126Y-6235000D01*
X46205874Y-6235000D01*
X46586280Y-6077431D01*
X46877431Y-5786280D01*
X47035000Y-5405874D01*
X47035000Y-4994126D01*
X46877431Y-4613720D01*
X46586280Y-4322569D01*
X46205874Y-4165000D01*
X45794126Y-4165000D01*
X45413720Y-4322569D01*
X45122569Y-4613720D01*
X44965000Y-4994126D01*
X38116039Y-4994126D01*
X38064473Y-4959671D01*
X38055000Y-4950198D01*
X38055000Y-4784126D01*
X37897431Y-4403720D01*
X37606280Y-4112569D01*
X37225874Y-3955000D01*
X36814126Y-3955000D01*
X36433720Y-4112569D01*
X36142569Y-4403720D01*
X35985000Y-4784126D01*
X35985000Y-5195874D01*
X36142569Y-5576280D01*
X36433720Y-5867431D01*
X36814126Y-6025000D01*
X36869751Y-6025000D01*
X37032071Y-6267929D01*
X37095530Y-6310331D01*
X46319671Y-15534473D01*
X46362071Y-15597929D01*
X46613463Y-15765904D01*
X46835148Y-15810000D01*
X46835152Y-15810000D01*
X46910000Y-15824888D01*
X46984848Y-15810000D01*
X47896289Y-15810000D01*
X48013720Y-15927431D01*
X48394126Y-16085000D01*
X48805874Y-16085000D01*
X49074824Y-15973598D01*
X45675853Y-19372569D01*
X45313720Y-19522569D01*
X45022569Y-19813720D01*
X44872569Y-20175852D01*
X43133422Y-21915000D01*
X32290478Y-21915000D01*
X32248157Y-21702235D01*
X32107809Y-21492191D01*
X31897765Y-21351843D01*
X31650000Y-21302560D01*
X29950000Y-21302560D01*
X29702235Y-21351843D01*
X29492191Y-21492191D01*
X29351843Y-21702235D01*
X29302560Y-21950000D01*
X29302560Y-23650000D01*
X29351843Y-23897765D01*
X29492191Y-24107809D01*
X29702235Y-24248157D01*
X29747619Y-24257184D01*
X29729375Y-24269375D01*
X29401161Y-24760582D01*
X29285908Y-25340000D01*
X29401161Y-25919418D01*
X29729375Y-26410625D01*
X30048478Y-26623843D01*
X29918642Y-26684817D01*
X29528355Y-27113076D01*
X29358524Y-27523110D01*
X29479845Y-27753000D01*
X30673000Y-27753000D01*
X30673000Y-27733000D01*
X30927000Y-27733000D01*
X30927000Y-27753000D01*
X32120155Y-27753000D01*
X32241476Y-27523110D01*
X32071645Y-27113076D01*
X31882412Y-26905431D01*
X35115000Y-26905431D01*
X35115000Y-27794569D01*
X35455259Y-28616026D01*
X36083974Y-29244741D01*
X36905431Y-29585000D01*
X37794569Y-29585000D01*
X38616026Y-29244741D01*
X39244741Y-28616026D01*
X39585000Y-27794569D01*
X39585000Y-26905431D01*
X39244741Y-26083974D01*
X38616026Y-25455259D01*
X37794569Y-25115000D01*
X36905431Y-25115000D01*
X36083974Y-25455259D01*
X35455259Y-26083974D01*
X35115000Y-26905431D01*
X31882412Y-26905431D01*
X31681358Y-26684817D01*
X31551522Y-26623843D01*
X31870625Y-26410625D01*
X32198839Y-25919418D01*
X32314092Y-25340000D01*
X32198839Y-24760582D01*
X31870625Y-24269375D01*
X31852381Y-24257184D01*
X31897765Y-24248157D01*
X32107809Y-24107809D01*
X32248157Y-23897765D01*
X32290478Y-23685000D01*
X43412839Y-23685000D01*
X43500000Y-23702337D01*
X43587161Y-23685000D01*
X43587165Y-23685000D01*
X43845310Y-23633652D01*
X44138049Y-23438049D01*
X44187425Y-23364153D01*
X46124148Y-21427431D01*
X46486280Y-21277431D01*
X46777431Y-20986280D01*
X46927431Y-20624147D01*
X51464156Y-16087423D01*
X51538049Y-16038049D01*
X51613512Y-15925112D01*
X51733652Y-15745310D01*
X51738175Y-15722569D01*
X51785000Y-15487165D01*
X51785000Y-15487161D01*
X51802337Y-15400000D01*
X51785000Y-15312839D01*
X51785000Y-12646176D01*
X52150401Y-12280775D01*
X52200421Y-12401533D01*
X52598467Y-12799579D01*
X52768478Y-12870000D01*
X52598467Y-12940421D01*
X52200421Y-13338467D01*
X51985000Y-13858539D01*
X51985000Y-14421461D01*
X52200421Y-14941533D01*
X52598467Y-15339579D01*
X52768478Y-15410000D01*
X52598467Y-15480421D01*
X52200421Y-15878467D01*
X51985000Y-16398539D01*
X51985000Y-16961461D01*
X52147902Y-17354742D01*
X51959480Y-17354926D01*
X51885000Y-17340111D01*
X51809783Y-17355073D01*
X51809405Y-17355073D01*
X51735962Y-17369757D01*
X51588463Y-17399096D01*
X51588142Y-17399310D01*
X51587764Y-17399386D01*
X51462823Y-17483046D01*
X51400528Y-17524670D01*
X51400261Y-17524937D01*
X51336536Y-17567607D01*
X51294408Y-17630790D01*
X35885199Y-33040000D01*
X21774846Y-33040000D01*
X21699999Y-33025112D01*
X21625152Y-33040000D01*
X21625148Y-33040000D01*
X21403463Y-33084096D01*
X21152071Y-33252071D01*
X21109671Y-33315527D01*
X20204401Y-34220797D01*
X20001310Y-33730493D01*
X19569507Y-33298690D01*
X19005330Y-33065000D01*
X18394670Y-33065000D01*
X17830493Y-33298690D01*
X17661275Y-33467908D01*
X17658157Y-33452235D01*
X17517809Y-33242191D01*
X17307765Y-33101843D01*
X17060000Y-33052560D01*
X15260000Y-33052560D01*
X15012235Y-33101843D01*
X14802191Y-33242191D01*
X14661843Y-33452235D01*
X14612560Y-33700000D01*
X14612560Y-35500000D01*
X14661843Y-35747765D01*
X14802191Y-35957809D01*
X15012235Y-36098157D01*
X15260000Y-36147440D01*
X17060000Y-36147440D01*
X17307765Y-36098157D01*
X17517809Y-35957809D01*
X17658157Y-35747765D01*
X17661275Y-35732092D01*
X17830493Y-35901310D01*
X18320797Y-36104401D01*
X4615530Y-49809669D01*
X4552071Y-49852071D01*
X4384096Y-50103464D01*
X4340000Y-50325149D01*
X4340000Y-50325153D01*
X4325112Y-50400000D01*
X4340000Y-50474847D01*
X4340001Y-52185197D01*
X3560198Y-52965000D01*
X3394126Y-52965000D01*
X3035000Y-53113755D01*
X3035000Y-43570131D01*
X9511005Y-37094126D01*
X12365000Y-37094126D01*
X12365000Y-37505874D01*
X12522569Y-37886280D01*
X12813720Y-38177431D01*
X13194126Y-38335000D01*
X13605874Y-38335000D01*
X13986280Y-38177431D01*
X14277431Y-37886280D01*
X14435000Y-37505874D01*
X14435000Y-37094126D01*
X14277431Y-36713720D01*
X13986280Y-36422569D01*
X13605874Y-36265000D01*
X13194126Y-36265000D01*
X12813720Y-36422569D01*
X12522569Y-36713720D01*
X12365000Y-37094126D01*
X9511005Y-37094126D01*
X18368242Y-28236890D01*
X29358524Y-28236890D01*
X29528355Y-28646924D01*
X29918642Y-29075183D01*
X30443108Y-29321486D01*
X30673000Y-29200819D01*
X30673000Y-28007000D01*
X30927000Y-28007000D01*
X30927000Y-29200819D01*
X31156892Y-29321486D01*
X31681358Y-29075183D01*
X32071645Y-28646924D01*
X32241476Y-28236890D01*
X32120155Y-28007000D01*
X30927000Y-28007000D01*
X30673000Y-28007000D01*
X29479845Y-28007000D01*
X29358524Y-28236890D01*
X18368242Y-28236890D01*
X23523524Y-23081609D01*
X23618289Y-23018289D01*
X23869146Y-22642855D01*
X23935000Y-22311783D01*
X23957235Y-22200001D01*
X23935000Y-22088219D01*
X23935000Y-17720131D01*
X29394110Y-12261022D01*
X29492191Y-12407809D01*
X29702235Y-12548157D01*
X29747619Y-12557184D01*
X29729375Y-12569375D01*
X29401161Y-13060582D01*
X29285908Y-13640000D01*
X29401161Y-14219418D01*
X29729375Y-14710625D01*
X30220582Y-15038839D01*
X30653744Y-15125000D01*
X30946256Y-15125000D01*
X31379418Y-15038839D01*
X31870625Y-14710625D01*
X32198839Y-14219418D01*
X32314092Y-13640000D01*
X32198839Y-13060582D01*
X31870625Y-12569375D01*
X31852381Y-12557184D01*
X31897765Y-12548157D01*
X32107809Y-12407809D01*
X32248157Y-12197765D01*
X32297440Y-11950000D01*
X32297440Y-10250000D01*
X32248157Y-10002235D01*
X32183475Y-9905431D01*
X35115000Y-9905431D01*
X35115000Y-10794569D01*
X35455259Y-11616026D01*
X36083974Y-12244741D01*
X36905431Y-12585000D01*
X37794569Y-12585000D01*
X38616026Y-12244741D01*
X39244741Y-11616026D01*
X39585000Y-10794569D01*
X39585000Y-9905431D01*
X39244741Y-9083974D01*
X38616026Y-8455259D01*
X37794569Y-8115000D01*
X36905431Y-8115000D01*
X36083974Y-8455259D01*
X35455259Y-9083974D01*
X35115000Y-9905431D01*
X32183475Y-9905431D01*
X32107809Y-9792191D01*
X31897765Y-9651843D01*
X31650000Y-9602560D01*
X29950000Y-9602560D01*
X29702235Y-9651843D01*
X29492191Y-9792191D01*
X29376723Y-9965000D01*
X29061781Y-9965000D01*
X28949999Y-9942765D01*
X28838217Y-9965000D01*
X28507145Y-10030854D01*
X28131711Y-10281711D01*
X28068389Y-10376479D01*
X22076482Y-16368387D01*
X21981711Y-16431711D01*
X21802446Y-16700001D01*
X21730854Y-16807146D01*
X21642765Y-17250000D01*
X21665000Y-17361783D01*
X21665001Y-21729866D01*
X1176482Y-42218387D01*
X1081711Y-42281711D01*
X830855Y-42657145D01*
X830854Y-42657146D01*
X742765Y-43100000D01*
X765000Y-43211783D01*
X765001Y-59988212D01*
X742765Y-60100000D01*
X830854Y-60542854D01*
X872625Y-60605368D01*
X1081712Y-60918289D01*
X1176480Y-60981611D01*
X7918391Y-67723524D01*
X7981711Y-67818289D01*
X8076476Y-67881609D01*
X8357145Y-68069146D01*
X8800000Y-68157235D01*
X8911783Y-68135000D01*
X42502560Y-68135000D01*
X42502560Y-68750000D01*
X42551843Y-68997765D01*
X42692191Y-69207809D01*
X42902235Y-69348157D01*
X43150000Y-69397440D01*
X46650000Y-69397440D01*
X46897765Y-69348157D01*
X47107809Y-69207809D01*
X47202560Y-69066005D01*
X47202560Y-70924663D01*
X47188327Y-70890302D01*
X47009699Y-70711673D01*
X46776310Y-70615000D01*
X45185750Y-70615000D01*
X45027000Y-70773750D01*
X45027000Y-72873000D01*
X47126250Y-72873000D01*
X47285000Y-72714250D01*
X47285000Y-72047388D01*
X47392191Y-72207809D01*
X47602235Y-72348157D01*
X47850000Y-72397440D01*
X51350000Y-72397440D01*
X51597765Y-72348157D01*
X51807809Y-72207809D01*
X51948157Y-71997765D01*
X51997440Y-71750000D01*
X51997440Y-70052241D01*
X55778791Y-73833593D01*
X55705908Y-74200000D01*
X55821161Y-74779418D01*
X56149375Y-75270625D01*
X56440278Y-75465000D01*
X6378876Y-75465000D01*
X5471978Y-75393626D01*
X4615571Y-75188021D01*
X3801875Y-74850976D01*
X3050919Y-74390789D01*
X2381206Y-73818801D01*
X1809210Y-73149081D01*
X1349023Y-72398123D01*
X1011980Y-71584431D01*
X806374Y-70728022D01*
X798322Y-70625703D01*
X2595000Y-70625703D01*
X2595000Y-71614297D01*
X2973319Y-72527639D01*
X3672361Y-73226681D01*
X4585703Y-73605000D01*
X5574297Y-73605000D01*
X6487639Y-73226681D01*
X7119650Y-72594670D01*
X11205000Y-72594670D01*
X11205000Y-73205330D01*
X11438690Y-73769507D01*
X11870493Y-74201310D01*
X12434670Y-74435000D01*
X13045330Y-74435000D01*
X13609507Y-74201310D01*
X13778725Y-74032092D01*
X13781843Y-74047765D01*
X13922191Y-74257809D01*
X14132235Y-74398157D01*
X14380000Y-74447440D01*
X16180000Y-74447440D01*
X16427765Y-74398157D01*
X16637809Y-74257809D01*
X16778157Y-74047765D01*
X16827440Y-73800000D01*
X16827440Y-72594670D01*
X18865000Y-72594670D01*
X18865000Y-73205330D01*
X19098690Y-73769507D01*
X19530493Y-74201310D01*
X20094670Y-74435000D01*
X20705330Y-74435000D01*
X21269507Y-74201310D01*
X21438725Y-74032092D01*
X21441843Y-74047765D01*
X21582191Y-74257809D01*
X21792235Y-74398157D01*
X22040000Y-74447440D01*
X23840000Y-74447440D01*
X24087765Y-74398157D01*
X24297809Y-74257809D01*
X24438157Y-74047765D01*
X24487440Y-73800000D01*
X24487440Y-72594670D01*
X26585000Y-72594670D01*
X26585000Y-73205330D01*
X26818690Y-73769507D01*
X27250493Y-74201310D01*
X27814670Y-74435000D01*
X28425330Y-74435000D01*
X28989507Y-74201310D01*
X29158725Y-74032092D01*
X29161843Y-74047765D01*
X29302191Y-74257809D01*
X29512235Y-74398157D01*
X29760000Y-74447440D01*
X31560000Y-74447440D01*
X31807765Y-74398157D01*
X32017809Y-74257809D01*
X32158157Y-74047765D01*
X32207440Y-73800000D01*
X32207440Y-73285750D01*
X42515000Y-73285750D01*
X42515000Y-74876309D01*
X42611673Y-75109698D01*
X42790301Y-75288327D01*
X43023690Y-75385000D01*
X44614250Y-75385000D01*
X44773000Y-75226250D01*
X44773000Y-73127000D01*
X45027000Y-73127000D01*
X45027000Y-75226250D01*
X45185750Y-75385000D01*
X46776310Y-75385000D01*
X47009699Y-75288327D01*
X47188327Y-75109698D01*
X47285000Y-74876309D01*
X47285000Y-73285750D01*
X47126250Y-73127000D01*
X45027000Y-73127000D01*
X44773000Y-73127000D01*
X42673750Y-73127000D01*
X42515000Y-73285750D01*
X32207440Y-73285750D01*
X32207440Y-72000000D01*
X32158157Y-71752235D01*
X32017809Y-71542191D01*
X31807765Y-71401843D01*
X31560000Y-71352560D01*
X29760000Y-71352560D01*
X29512235Y-71401843D01*
X29302191Y-71542191D01*
X29161843Y-71752235D01*
X29158725Y-71767908D01*
X28989507Y-71598690D01*
X28425330Y-71365000D01*
X27814670Y-71365000D01*
X27250493Y-71598690D01*
X26818690Y-72030493D01*
X26585000Y-72594670D01*
X24487440Y-72594670D01*
X24487440Y-72000000D01*
X24438157Y-71752235D01*
X24297809Y-71542191D01*
X24087765Y-71401843D01*
X23840000Y-71352560D01*
X22040000Y-71352560D01*
X21792235Y-71401843D01*
X21582191Y-71542191D01*
X21441843Y-71752235D01*
X21438725Y-71767908D01*
X21269507Y-71598690D01*
X20705330Y-71365000D01*
X20094670Y-71365000D01*
X19530493Y-71598690D01*
X19098690Y-72030493D01*
X18865000Y-72594670D01*
X16827440Y-72594670D01*
X16827440Y-72000000D01*
X16778157Y-71752235D01*
X16637809Y-71542191D01*
X16427765Y-71401843D01*
X16180000Y-71352560D01*
X14380000Y-71352560D01*
X14132235Y-71401843D01*
X13922191Y-71542191D01*
X13781843Y-71752235D01*
X13778725Y-71767908D01*
X13609507Y-71598690D01*
X13045330Y-71365000D01*
X12434670Y-71365000D01*
X11870493Y-71598690D01*
X11438690Y-72030493D01*
X11205000Y-72594670D01*
X7119650Y-72594670D01*
X7186681Y-72527639D01*
X7565000Y-71614297D01*
X7565000Y-70794126D01*
X8565000Y-70794126D01*
X8565000Y-71205874D01*
X8722569Y-71586280D01*
X9013720Y-71877431D01*
X9394126Y-72035000D01*
X9805874Y-72035000D01*
X10186280Y-71877431D01*
X10477431Y-71586280D01*
X10635000Y-71205874D01*
X10635000Y-71123691D01*
X42515000Y-71123691D01*
X42515000Y-72714250D01*
X42673750Y-72873000D01*
X44773000Y-72873000D01*
X44773000Y-70773750D01*
X44614250Y-70615000D01*
X43023690Y-70615000D01*
X42790301Y-70711673D01*
X42611673Y-70890302D01*
X42515000Y-71123691D01*
X10635000Y-71123691D01*
X10635000Y-70794126D01*
X10477431Y-70413720D01*
X10186280Y-70122569D01*
X9805874Y-69965000D01*
X9394126Y-69965000D01*
X9013720Y-70122569D01*
X8722569Y-70413720D01*
X8565000Y-70794126D01*
X7565000Y-70794126D01*
X7565000Y-70625703D01*
X7186681Y-69712361D01*
X6487639Y-69013319D01*
X5574297Y-68635000D01*
X4585703Y-68635000D01*
X3672361Y-69013319D01*
X2973319Y-69712361D01*
X2595000Y-70625703D01*
X798322Y-70625703D01*
X735000Y-69821125D01*
X735000Y-26905431D01*
X8115000Y-26905431D01*
X8115000Y-27794569D01*
X8455259Y-28616026D01*
X9083974Y-29244741D01*
X9905431Y-29585000D01*
X10794569Y-29585000D01*
X11616026Y-29244741D01*
X12244741Y-28616026D01*
X12585000Y-27794569D01*
X12585000Y-26905431D01*
X12244741Y-26083974D01*
X11616026Y-25455259D01*
X10794569Y-25115000D01*
X9905431Y-25115000D01*
X9083974Y-25455259D01*
X8455259Y-26083974D01*
X8115000Y-26905431D01*
X735000Y-26905431D01*
X735000Y-16700000D01*
X1627560Y-16700000D01*
X1627560Y-18500000D01*
X1676843Y-18747765D01*
X1817191Y-18957809D01*
X2027235Y-19098157D01*
X2042908Y-19101275D01*
X1873690Y-19270493D01*
X1640000Y-19834670D01*
X1640000Y-20445330D01*
X1873690Y-21009507D01*
X2305493Y-21441310D01*
X2869670Y-21675000D01*
X3480330Y-21675000D01*
X4044507Y-21441310D01*
X4476310Y-21009507D01*
X4710000Y-20445330D01*
X4710000Y-19834670D01*
X4476310Y-19270493D01*
X4307092Y-19101275D01*
X4322765Y-19098157D01*
X4532809Y-18957809D01*
X4673157Y-18747765D01*
X4722440Y-18500000D01*
X4722440Y-17950000D01*
X14552560Y-17950000D01*
X14552560Y-19750000D01*
X14601843Y-19997765D01*
X14742191Y-20207809D01*
X14952235Y-20348157D01*
X15200000Y-20397440D01*
X17000000Y-20397440D01*
X17247765Y-20348157D01*
X17457809Y-20207809D01*
X17598157Y-19997765D01*
X17601275Y-19982092D01*
X17770493Y-20151310D01*
X18334670Y-20385000D01*
X18945330Y-20385000D01*
X19509507Y-20151310D01*
X19941310Y-19719507D01*
X20175000Y-19155330D01*
X20175000Y-18544670D01*
X19941310Y-17980493D01*
X19509507Y-17548690D01*
X18945330Y-17315000D01*
X18334670Y-17315000D01*
X17770493Y-17548690D01*
X17601275Y-17717908D01*
X17598157Y-17702235D01*
X17457809Y-17492191D01*
X17247765Y-17351843D01*
X17000000Y-17302560D01*
X15200000Y-17302560D01*
X14952235Y-17351843D01*
X14742191Y-17492191D01*
X14601843Y-17702235D01*
X14552560Y-17950000D01*
X4722440Y-17950000D01*
X4722440Y-16700000D01*
X4673157Y-16452235D01*
X4532809Y-16242191D01*
X4322765Y-16101843D01*
X4075000Y-16052560D01*
X2275000Y-16052560D01*
X2027235Y-16101843D01*
X1817191Y-16242191D01*
X1676843Y-16452235D01*
X1627560Y-16700000D01*
X735000Y-16700000D01*
X735000Y-9905431D01*
X8115000Y-9905431D01*
X8115000Y-10794569D01*
X8455259Y-11616026D01*
X9083974Y-12244741D01*
X9905431Y-12585000D01*
X10794569Y-12585000D01*
X11616026Y-12244741D01*
X12244741Y-11616026D01*
X12585000Y-10794569D01*
X12585000Y-9905431D01*
X12244741Y-9083974D01*
X11616026Y-8455259D01*
X10794569Y-8115000D01*
X9905431Y-8115000D01*
X9083974Y-8455259D01*
X8455259Y-9083974D01*
X8115000Y-9905431D01*
X735000Y-9905431D01*
X735000Y-6378875D01*
X806374Y-5471978D01*
X1011980Y-4615569D01*
X1024350Y-4585703D01*
X2595000Y-4585703D01*
X2595000Y-5574297D01*
X2973319Y-6487639D01*
X3672361Y-7186681D01*
X4585703Y-7565000D01*
X5574297Y-7565000D01*
X6487639Y-7186681D01*
X7186681Y-6487639D01*
X7565000Y-5574297D01*
X7565000Y-4585703D01*
X7186681Y-3672361D01*
X6487639Y-2973319D01*
X6237409Y-2869670D01*
X14565000Y-2869670D01*
X14565000Y-3480330D01*
X14798690Y-4044507D01*
X15230493Y-4476310D01*
X15794670Y-4710000D01*
X16405330Y-4710000D01*
X16969507Y-4476310D01*
X17138725Y-4307092D01*
X17141843Y-4322765D01*
X17282191Y-4532809D01*
X17492235Y-4673157D01*
X17740000Y-4722440D01*
X19540000Y-4722440D01*
X19787765Y-4673157D01*
X19997809Y-4532809D01*
X20138157Y-4322765D01*
X20187440Y-4075000D01*
X20187440Y-2275000D01*
X20138157Y-2027235D01*
X19997809Y-1817191D01*
X19787765Y-1676843D01*
X19540000Y-1627560D01*
X17740000Y-1627560D01*
X17492235Y-1676843D01*
X17282191Y-1817191D01*
X17141843Y-2027235D01*
X17138725Y-2042908D01*
X16969507Y-1873690D01*
X16405330Y-1640000D01*
X15794670Y-1640000D01*
X15230493Y-1873690D01*
X14798690Y-2305493D01*
X14565000Y-2869670D01*
X6237409Y-2869670D01*
X5574297Y-2595000D01*
X4585703Y-2595000D01*
X3672361Y-2973319D01*
X2973319Y-3672361D01*
X2595000Y-4585703D01*
X1024350Y-4585703D01*
X1349023Y-3801877D01*
X1809210Y-3050919D01*
X2381206Y-2381199D01*
X3050919Y-1809211D01*
X3801875Y-1349024D01*
X4615571Y-1011979D01*
X5471978Y-806374D01*
X6378876Y-735000D01*
X52160436Y-735000D01*
X51985000Y-1158539D01*
X51985000Y-1158539D01*
G37*
X51985000Y-1158539D02*
X51985000Y-1721461D01*
X52200421Y-2241533D01*
X52598467Y-2639579D01*
X52768478Y-2710000D01*
X52598467Y-2780421D01*
X52200421Y-3178467D01*
X51985000Y-3698539D01*
X51985000Y-4261461D01*
X52200421Y-4781533D01*
X52598467Y-5179579D01*
X52768478Y-5250000D01*
X52598467Y-5320421D01*
X52200421Y-5718467D01*
X51985000Y-6238539D01*
X51985000Y-6801461D01*
X52200421Y-7321533D01*
X52598467Y-7719579D01*
X52768478Y-7790000D01*
X52598467Y-7860421D01*
X52200421Y-8258467D01*
X51985000Y-8778539D01*
X51985000Y-9341461D01*
X52156238Y-9754866D01*
X52122176Y-9805843D01*
X50335845Y-11592175D01*
X50261952Y-11641549D01*
X50212578Y-11715442D01*
X50212576Y-11715444D01*
X50066348Y-11934289D01*
X49997663Y-12279598D01*
X50015001Y-12366763D01*
X50015000Y-15033421D01*
X49523598Y-15524823D01*
X49635000Y-15255874D01*
X49635000Y-14844126D01*
X49477431Y-14463720D01*
X49186280Y-14172569D01*
X48805874Y-14015000D01*
X48394126Y-14015000D01*
X48013720Y-14172569D01*
X47896289Y-14290000D01*
X47224802Y-14290000D01*
X38322631Y-5387830D01*
X38295904Y-5253464D01*
X38295904Y-5253463D01*
X38170329Y-5065527D01*
X38127929Y-5002071D01*
X38116039Y-4994126D01*
X44965000Y-4994126D01*
X44965000Y-5405874D01*
X45122569Y-5786280D01*
X45413720Y-6077431D01*
X45794126Y-6235000D01*
X46205874Y-6235000D01*
X46586280Y-6077431D01*
X46877431Y-5786280D01*
X47035000Y-5405874D01*
X47035000Y-4994126D01*
X46877431Y-4613720D01*
X46586280Y-4322569D01*
X46205874Y-4165000D01*
X45794126Y-4165000D01*
X45413720Y-4322569D01*
X45122569Y-4613720D01*
X44965000Y-4994126D01*
X38116039Y-4994126D01*
X38064473Y-4959671D01*
X38055000Y-4950198D01*
X38055000Y-4784126D01*
X37897431Y-4403720D01*
X37606280Y-4112569D01*
X37225874Y-3955000D01*
X36814126Y-3955000D01*
X36433720Y-4112569D01*
X36142569Y-4403720D01*
X35985000Y-4784126D01*
X35985000Y-5195874D01*
X36142569Y-5576280D01*
X36433720Y-5867431D01*
X36814126Y-6025000D01*
X36869751Y-6025000D01*
X37032071Y-6267929D01*
X37095530Y-6310331D01*
X46319671Y-15534473D01*
X46362071Y-15597929D01*
X46613463Y-15765904D01*
X46835148Y-15810000D01*
X46835152Y-15810000D01*
X46910000Y-15824888D01*
X46984848Y-15810000D01*
X47896289Y-15810000D01*
X48013720Y-15927431D01*
X48394126Y-16085000D01*
X48805874Y-16085000D01*
X49074824Y-15973598D01*
X45675853Y-19372569D01*
X45313720Y-19522569D01*
X45022569Y-19813720D01*
X44872569Y-20175852D01*
X43133422Y-21915000D01*
X32290478Y-21915000D01*
X32248157Y-21702235D01*
X32107809Y-21492191D01*
X31897765Y-21351843D01*
X31650000Y-21302560D01*
X29950000Y-21302560D01*
X29702235Y-21351843D01*
X29492191Y-21492191D01*
X29351843Y-21702235D01*
X29302560Y-21950000D01*
X29302560Y-23650000D01*
X29351843Y-23897765D01*
X29492191Y-24107809D01*
X29702235Y-24248157D01*
X29747619Y-24257184D01*
X29729375Y-24269375D01*
X29401161Y-24760582D01*
X29285908Y-25340000D01*
X29401161Y-25919418D01*
X29729375Y-26410625D01*
X30048478Y-26623843D01*
X29918642Y-26684817D01*
X29528355Y-27113076D01*
X29358524Y-27523110D01*
X29479845Y-27753000D01*
X30673000Y-27753000D01*
X30673000Y-27733000D01*
X30927000Y-27733000D01*
X30927000Y-27753000D01*
X32120155Y-27753000D01*
X32241476Y-27523110D01*
X32071645Y-27113076D01*
X31882412Y-26905431D01*
X35115000Y-26905431D01*
X35115000Y-27794569D01*
X35455259Y-28616026D01*
X36083974Y-29244741D01*
X36905431Y-29585000D01*
X37794569Y-29585000D01*
X38616026Y-29244741D01*
X39244741Y-28616026D01*
X39585000Y-27794569D01*
X39585000Y-26905431D01*
X39244741Y-26083974D01*
X38616026Y-25455259D01*
X37794569Y-25115000D01*
X36905431Y-25115000D01*
X36083974Y-25455259D01*
X35455259Y-26083974D01*
X35115000Y-26905431D01*
X31882412Y-26905431D01*
X31681358Y-26684817D01*
X31551522Y-26623843D01*
X31870625Y-26410625D01*
X32198839Y-25919418D01*
X32314092Y-25340000D01*
X32198839Y-24760582D01*
X31870625Y-24269375D01*
X31852381Y-24257184D01*
X31897765Y-24248157D01*
X32107809Y-24107809D01*
X32248157Y-23897765D01*
X32290478Y-23685000D01*
X43412839Y-23685000D01*
X43500000Y-23702337D01*
X43587161Y-23685000D01*
X43587165Y-23685000D01*
X43845310Y-23633652D01*
X44138049Y-23438049D01*
X44187425Y-23364153D01*
X46124148Y-21427431D01*
X46486280Y-21277431D01*
X46777431Y-20986280D01*
X46927431Y-20624147D01*
X51464156Y-16087423D01*
X51538049Y-16038049D01*
X51613512Y-15925112D01*
X51733652Y-15745310D01*
X51738175Y-15722569D01*
X51785000Y-15487165D01*
X51785000Y-15487161D01*
X51802337Y-15400000D01*
X51785000Y-15312839D01*
X51785000Y-12646176D01*
X52150401Y-12280775D01*
X52200421Y-12401533D01*
X52598467Y-12799579D01*
X52768478Y-12870000D01*
X52598467Y-12940421D01*
X52200421Y-13338467D01*
X51985000Y-13858539D01*
X51985000Y-14421461D01*
X52200421Y-14941533D01*
X52598467Y-15339579D01*
X52768478Y-15410000D01*
X52598467Y-15480421D01*
X52200421Y-15878467D01*
X51985000Y-16398539D01*
X51985000Y-16961461D01*
X52147902Y-17354742D01*
X51959480Y-17354926D01*
X51885000Y-17340111D01*
X51809783Y-17355073D01*
X51809405Y-17355073D01*
X51735962Y-17369757D01*
X51588463Y-17399096D01*
X51588142Y-17399310D01*
X51587764Y-17399386D01*
X51462823Y-17483046D01*
X51400528Y-17524670D01*
X51400261Y-17524937D01*
X51336536Y-17567607D01*
X51294408Y-17630790D01*
X35885199Y-33040000D01*
X21774846Y-33040000D01*
X21699999Y-33025112D01*
X21625152Y-33040000D01*
X21625148Y-33040000D01*
X21403463Y-33084096D01*
X21152071Y-33252071D01*
X21109671Y-33315527D01*
X20204401Y-34220797D01*
X20001310Y-33730493D01*
X19569507Y-33298690D01*
X19005330Y-33065000D01*
X18394670Y-33065000D01*
X17830493Y-33298690D01*
X17661275Y-33467908D01*
X17658157Y-33452235D01*
X17517809Y-33242191D01*
X17307765Y-33101843D01*
X17060000Y-33052560D01*
X15260000Y-33052560D01*
X15012235Y-33101843D01*
X14802191Y-33242191D01*
X14661843Y-33452235D01*
X14612560Y-33700000D01*
X14612560Y-35500000D01*
X14661843Y-35747765D01*
X14802191Y-35957809D01*
X15012235Y-36098157D01*
X15260000Y-36147440D01*
X17060000Y-36147440D01*
X17307765Y-36098157D01*
X17517809Y-35957809D01*
X17658157Y-35747765D01*
X17661275Y-35732092D01*
X17830493Y-35901310D01*
X18320797Y-36104401D01*
X4615530Y-49809669D01*
X4552071Y-49852071D01*
X4384096Y-50103464D01*
X4340000Y-50325149D01*
X4340000Y-50325153D01*
X4325112Y-50400000D01*
X4340000Y-50474847D01*
X4340001Y-52185197D01*
X3560198Y-52965000D01*
X3394126Y-52965000D01*
X3035000Y-53113755D01*
X3035000Y-43570131D01*
X9511005Y-37094126D01*
X12365000Y-37094126D01*
X12365000Y-37505874D01*
X12522569Y-37886280D01*
X12813720Y-38177431D01*
X13194126Y-38335000D01*
X13605874Y-38335000D01*
X13986280Y-38177431D01*
X14277431Y-37886280D01*
X14435000Y-37505874D01*
X14435000Y-37094126D01*
X14277431Y-36713720D01*
X13986280Y-36422569D01*
X13605874Y-36265000D01*
X13194126Y-36265000D01*
X12813720Y-36422569D01*
X12522569Y-36713720D01*
X12365000Y-37094126D01*
X9511005Y-37094126D01*
X18368242Y-28236890D01*
X29358524Y-28236890D01*
X29528355Y-28646924D01*
X29918642Y-29075183D01*
X30443108Y-29321486D01*
X30673000Y-29200819D01*
X30673000Y-28007000D01*
X30927000Y-28007000D01*
X30927000Y-29200819D01*
X31156892Y-29321486D01*
X31681358Y-29075183D01*
X32071645Y-28646924D01*
X32241476Y-28236890D01*
X32120155Y-28007000D01*
X30927000Y-28007000D01*
X30673000Y-28007000D01*
X29479845Y-28007000D01*
X29358524Y-28236890D01*
X18368242Y-28236890D01*
X23523524Y-23081609D01*
X23618289Y-23018289D01*
X23869146Y-22642855D01*
X23935000Y-22311783D01*
X23957235Y-22200001D01*
X23935000Y-22088219D01*
X23935000Y-17720131D01*
X29394110Y-12261022D01*
X29492191Y-12407809D01*
X29702235Y-12548157D01*
X29747619Y-12557184D01*
X29729375Y-12569375D01*
X29401161Y-13060582D01*
X29285908Y-13640000D01*
X29401161Y-14219418D01*
X29729375Y-14710625D01*
X30220582Y-15038839D01*
X30653744Y-15125000D01*
X30946256Y-15125000D01*
X31379418Y-15038839D01*
X31870625Y-14710625D01*
X32198839Y-14219418D01*
X32314092Y-13640000D01*
X32198839Y-13060582D01*
X31870625Y-12569375D01*
X31852381Y-12557184D01*
X31897765Y-12548157D01*
X32107809Y-12407809D01*
X32248157Y-12197765D01*
X32297440Y-11950000D01*
X32297440Y-10250000D01*
X32248157Y-10002235D01*
X32183475Y-9905431D01*
X35115000Y-9905431D01*
X35115000Y-10794569D01*
X35455259Y-11616026D01*
X36083974Y-12244741D01*
X36905431Y-12585000D01*
X37794569Y-12585000D01*
X38616026Y-12244741D01*
X39244741Y-11616026D01*
X39585000Y-10794569D01*
X39585000Y-9905431D01*
X39244741Y-9083974D01*
X38616026Y-8455259D01*
X37794569Y-8115000D01*
X36905431Y-8115000D01*
X36083974Y-8455259D01*
X35455259Y-9083974D01*
X35115000Y-9905431D01*
X32183475Y-9905431D01*
X32107809Y-9792191D01*
X31897765Y-9651843D01*
X31650000Y-9602560D01*
X29950000Y-9602560D01*
X29702235Y-9651843D01*
X29492191Y-9792191D01*
X29376723Y-9965000D01*
X29061781Y-9965000D01*
X28949999Y-9942765D01*
X28838217Y-9965000D01*
X28507145Y-10030854D01*
X28131711Y-10281711D01*
X28068389Y-10376479D01*
X22076482Y-16368387D01*
X21981711Y-16431711D01*
X21802446Y-16700001D01*
X21730854Y-16807146D01*
X21642765Y-17250000D01*
X21665000Y-17361783D01*
X21665001Y-21729866D01*
X1176482Y-42218387D01*
X1081711Y-42281711D01*
X830855Y-42657145D01*
X830854Y-42657146D01*
X742765Y-43100000D01*
X765000Y-43211783D01*
X765001Y-59988212D01*
X742765Y-60100000D01*
X830854Y-60542854D01*
X872625Y-60605368D01*
X1081712Y-60918289D01*
X1176480Y-60981611D01*
X7918391Y-67723524D01*
X7981711Y-67818289D01*
X8076476Y-67881609D01*
X8357145Y-68069146D01*
X8800000Y-68157235D01*
X8911783Y-68135000D01*
X42502560Y-68135000D01*
X42502560Y-68750000D01*
X42551843Y-68997765D01*
X42692191Y-69207809D01*
X42902235Y-69348157D01*
X43150000Y-69397440D01*
X46650000Y-69397440D01*
X46897765Y-69348157D01*
X47107809Y-69207809D01*
X47202560Y-69066005D01*
X47202560Y-70924663D01*
X47188327Y-70890302D01*
X47009699Y-70711673D01*
X46776310Y-70615000D01*
X45185750Y-70615000D01*
X45027000Y-70773750D01*
X45027000Y-72873000D01*
X47126250Y-72873000D01*
X47285000Y-72714250D01*
X47285000Y-72047388D01*
X47392191Y-72207809D01*
X47602235Y-72348157D01*
X47850000Y-72397440D01*
X51350000Y-72397440D01*
X51597765Y-72348157D01*
X51807809Y-72207809D01*
X51948157Y-71997765D01*
X51997440Y-71750000D01*
X51997440Y-70052241D01*
X55778791Y-73833593D01*
X55705908Y-74200000D01*
X55821161Y-74779418D01*
X56149375Y-75270625D01*
X56440278Y-75465000D01*
X6378876Y-75465000D01*
X5471978Y-75393626D01*
X4615571Y-75188021D01*
X3801875Y-74850976D01*
X3050919Y-74390789D01*
X2381206Y-73818801D01*
X1809210Y-73149081D01*
X1349023Y-72398123D01*
X1011980Y-71584431D01*
X806374Y-70728022D01*
X798322Y-70625703D01*
X2595000Y-70625703D01*
X2595000Y-71614297D01*
X2973319Y-72527639D01*
X3672361Y-73226681D01*
X4585703Y-73605000D01*
X5574297Y-73605000D01*
X6487639Y-73226681D01*
X7119650Y-72594670D01*
X11205000Y-72594670D01*
X11205000Y-73205330D01*
X11438690Y-73769507D01*
X11870493Y-74201310D01*
X12434670Y-74435000D01*
X13045330Y-74435000D01*
X13609507Y-74201310D01*
X13778725Y-74032092D01*
X13781843Y-74047765D01*
X13922191Y-74257809D01*
X14132235Y-74398157D01*
X14380000Y-74447440D01*
X16180000Y-74447440D01*
X16427765Y-74398157D01*
X16637809Y-74257809D01*
X16778157Y-74047765D01*
X16827440Y-73800000D01*
X16827440Y-72594670D01*
X18865000Y-72594670D01*
X18865000Y-73205330D01*
X19098690Y-73769507D01*
X19530493Y-74201310D01*
X20094670Y-74435000D01*
X20705330Y-74435000D01*
X21269507Y-74201310D01*
X21438725Y-74032092D01*
X21441843Y-74047765D01*
X21582191Y-74257809D01*
X21792235Y-74398157D01*
X22040000Y-74447440D01*
X23840000Y-74447440D01*
X24087765Y-74398157D01*
X24297809Y-74257809D01*
X24438157Y-74047765D01*
X24487440Y-73800000D01*
X24487440Y-72594670D01*
X26585000Y-72594670D01*
X26585000Y-73205330D01*
X26818690Y-73769507D01*
X27250493Y-74201310D01*
X27814670Y-74435000D01*
X28425330Y-74435000D01*
X28989507Y-74201310D01*
X29158725Y-74032092D01*
X29161843Y-74047765D01*
X29302191Y-74257809D01*
X29512235Y-74398157D01*
X29760000Y-74447440D01*
X31560000Y-74447440D01*
X31807765Y-74398157D01*
X32017809Y-74257809D01*
X32158157Y-74047765D01*
X32207440Y-73800000D01*
X32207440Y-73285750D01*
X42515000Y-73285750D01*
X42515000Y-74876309D01*
X42611673Y-75109698D01*
X42790301Y-75288327D01*
X43023690Y-75385000D01*
X44614250Y-75385000D01*
X44773000Y-75226250D01*
X44773000Y-73127000D01*
X45027000Y-73127000D01*
X45027000Y-75226250D01*
X45185750Y-75385000D01*
X46776310Y-75385000D01*
X47009699Y-75288327D01*
X47188327Y-75109698D01*
X47285000Y-74876309D01*
X47285000Y-73285750D01*
X47126250Y-73127000D01*
X45027000Y-73127000D01*
X44773000Y-73127000D01*
X42673750Y-73127000D01*
X42515000Y-73285750D01*
X32207440Y-73285750D01*
X32207440Y-72000000D01*
X32158157Y-71752235D01*
X32017809Y-71542191D01*
X31807765Y-71401843D01*
X31560000Y-71352560D01*
X29760000Y-71352560D01*
X29512235Y-71401843D01*
X29302191Y-71542191D01*
X29161843Y-71752235D01*
X29158725Y-71767908D01*
X28989507Y-71598690D01*
X28425330Y-71365000D01*
X27814670Y-71365000D01*
X27250493Y-71598690D01*
X26818690Y-72030493D01*
X26585000Y-72594670D01*
X24487440Y-72594670D01*
X24487440Y-72000000D01*
X24438157Y-71752235D01*
X24297809Y-71542191D01*
X24087765Y-71401843D01*
X23840000Y-71352560D01*
X22040000Y-71352560D01*
X21792235Y-71401843D01*
X21582191Y-71542191D01*
X21441843Y-71752235D01*
X21438725Y-71767908D01*
X21269507Y-71598690D01*
X20705330Y-71365000D01*
X20094670Y-71365000D01*
X19530493Y-71598690D01*
X19098690Y-72030493D01*
X18865000Y-72594670D01*
X16827440Y-72594670D01*
X16827440Y-72000000D01*
X16778157Y-71752235D01*
X16637809Y-71542191D01*
X16427765Y-71401843D01*
X16180000Y-71352560D01*
X14380000Y-71352560D01*
X14132235Y-71401843D01*
X13922191Y-71542191D01*
X13781843Y-71752235D01*
X13778725Y-71767908D01*
X13609507Y-71598690D01*
X13045330Y-71365000D01*
X12434670Y-71365000D01*
X11870493Y-71598690D01*
X11438690Y-72030493D01*
X11205000Y-72594670D01*
X7119650Y-72594670D01*
X7186681Y-72527639D01*
X7565000Y-71614297D01*
X7565000Y-70794126D01*
X8565000Y-70794126D01*
X8565000Y-71205874D01*
X8722569Y-71586280D01*
X9013720Y-71877431D01*
X9394126Y-72035000D01*
X9805874Y-72035000D01*
X10186280Y-71877431D01*
X10477431Y-71586280D01*
X10635000Y-71205874D01*
X10635000Y-71123691D01*
X42515000Y-71123691D01*
X42515000Y-72714250D01*
X42673750Y-72873000D01*
X44773000Y-72873000D01*
X44773000Y-70773750D01*
X44614250Y-70615000D01*
X43023690Y-70615000D01*
X42790301Y-70711673D01*
X42611673Y-70890302D01*
X42515000Y-71123691D01*
X10635000Y-71123691D01*
X10635000Y-70794126D01*
X10477431Y-70413720D01*
X10186280Y-70122569D01*
X9805874Y-69965000D01*
X9394126Y-69965000D01*
X9013720Y-70122569D01*
X8722569Y-70413720D01*
X8565000Y-70794126D01*
X7565000Y-70794126D01*
X7565000Y-70625703D01*
X7186681Y-69712361D01*
X6487639Y-69013319D01*
X5574297Y-68635000D01*
X4585703Y-68635000D01*
X3672361Y-69013319D01*
X2973319Y-69712361D01*
X2595000Y-70625703D01*
X798322Y-70625703D01*
X735000Y-69821125D01*
X735000Y-26905431D01*
X8115000Y-26905431D01*
X8115000Y-27794569D01*
X8455259Y-28616026D01*
X9083974Y-29244741D01*
X9905431Y-29585000D01*
X10794569Y-29585000D01*
X11616026Y-29244741D01*
X12244741Y-28616026D01*
X12585000Y-27794569D01*
X12585000Y-26905431D01*
X12244741Y-26083974D01*
X11616026Y-25455259D01*
X10794569Y-25115000D01*
X9905431Y-25115000D01*
X9083974Y-25455259D01*
X8455259Y-26083974D01*
X8115000Y-26905431D01*
X735000Y-26905431D01*
X735000Y-16700000D01*
X1627560Y-16700000D01*
X1627560Y-18500000D01*
X1676843Y-18747765D01*
X1817191Y-18957809D01*
X2027235Y-19098157D01*
X2042908Y-19101275D01*
X1873690Y-19270493D01*
X1640000Y-19834670D01*
X1640000Y-20445330D01*
X1873690Y-21009507D01*
X2305493Y-21441310D01*
X2869670Y-21675000D01*
X3480330Y-21675000D01*
X4044507Y-21441310D01*
X4476310Y-21009507D01*
X4710000Y-20445330D01*
X4710000Y-19834670D01*
X4476310Y-19270493D01*
X4307092Y-19101275D01*
X4322765Y-19098157D01*
X4532809Y-18957809D01*
X4673157Y-18747765D01*
X4722440Y-18500000D01*
X4722440Y-17950000D01*
X14552560Y-17950000D01*
X14552560Y-19750000D01*
X14601843Y-19997765D01*
X14742191Y-20207809D01*
X14952235Y-20348157D01*
X15200000Y-20397440D01*
X17000000Y-20397440D01*
X17247765Y-20348157D01*
X17457809Y-20207809D01*
X17598157Y-19997765D01*
X17601275Y-19982092D01*
X17770493Y-20151310D01*
X18334670Y-20385000D01*
X18945330Y-20385000D01*
X19509507Y-20151310D01*
X19941310Y-19719507D01*
X20175000Y-19155330D01*
X20175000Y-18544670D01*
X19941310Y-17980493D01*
X19509507Y-17548690D01*
X18945330Y-17315000D01*
X18334670Y-17315000D01*
X17770493Y-17548690D01*
X17601275Y-17717908D01*
X17598157Y-17702235D01*
X17457809Y-17492191D01*
X17247765Y-17351843D01*
X17000000Y-17302560D01*
X15200000Y-17302560D01*
X14952235Y-17351843D01*
X14742191Y-17492191D01*
X14601843Y-17702235D01*
X14552560Y-17950000D01*
X4722440Y-17950000D01*
X4722440Y-16700000D01*
X4673157Y-16452235D01*
X4532809Y-16242191D01*
X4322765Y-16101843D01*
X4075000Y-16052560D01*
X2275000Y-16052560D01*
X2027235Y-16101843D01*
X1817191Y-16242191D01*
X1676843Y-16452235D01*
X1627560Y-16700000D01*
X735000Y-16700000D01*
X735000Y-9905431D01*
X8115000Y-9905431D01*
X8115000Y-10794569D01*
X8455259Y-11616026D01*
X9083974Y-12244741D01*
X9905431Y-12585000D01*
X10794569Y-12585000D01*
X11616026Y-12244741D01*
X12244741Y-11616026D01*
X12585000Y-10794569D01*
X12585000Y-9905431D01*
X12244741Y-9083974D01*
X11616026Y-8455259D01*
X10794569Y-8115000D01*
X9905431Y-8115000D01*
X9083974Y-8455259D01*
X8455259Y-9083974D01*
X8115000Y-9905431D01*
X735000Y-9905431D01*
X735000Y-6378875D01*
X806374Y-5471978D01*
X1011980Y-4615569D01*
X1024350Y-4585703D01*
X2595000Y-4585703D01*
X2595000Y-5574297D01*
X2973319Y-6487639D01*
X3672361Y-7186681D01*
X4585703Y-7565000D01*
X5574297Y-7565000D01*
X6487639Y-7186681D01*
X7186681Y-6487639D01*
X7565000Y-5574297D01*
X7565000Y-4585703D01*
X7186681Y-3672361D01*
X6487639Y-2973319D01*
X6237409Y-2869670D01*
X14565000Y-2869670D01*
X14565000Y-3480330D01*
X14798690Y-4044507D01*
X15230493Y-4476310D01*
X15794670Y-4710000D01*
X16405330Y-4710000D01*
X16969507Y-4476310D01*
X17138725Y-4307092D01*
X17141843Y-4322765D01*
X17282191Y-4532809D01*
X17492235Y-4673157D01*
X17740000Y-4722440D01*
X19540000Y-4722440D01*
X19787765Y-4673157D01*
X19997809Y-4532809D01*
X20138157Y-4322765D01*
X20187440Y-4075000D01*
X20187440Y-2275000D01*
X20138157Y-2027235D01*
X19997809Y-1817191D01*
X19787765Y-1676843D01*
X19540000Y-1627560D01*
X17740000Y-1627560D01*
X17492235Y-1676843D01*
X17282191Y-1817191D01*
X17141843Y-2027235D01*
X17138725Y-2042908D01*
X16969507Y-1873690D01*
X16405330Y-1640000D01*
X15794670Y-1640000D01*
X15230493Y-1873690D01*
X14798690Y-2305493D01*
X14565000Y-2869670D01*
X6237409Y-2869670D01*
X5574297Y-2595000D01*
X4585703Y-2595000D01*
X3672361Y-2973319D01*
X2973319Y-3672361D01*
X2595000Y-4585703D01*
X1024350Y-4585703D01*
X1349023Y-3801877D01*
X1809210Y-3050919D01*
X2381206Y-2381199D01*
X3050919Y-1809211D01*
X3801875Y-1349024D01*
X4615571Y-1011979D01*
X5471978Y-806374D01*
X6378876Y-735000D01*
X52160436Y-735000D01*
X51985000Y-1158539D01*
G36*
X59810567Y-59880000D02*
X59863775Y-59959632D01*
X59927231Y-60002032D01*
X60289671Y-60364472D01*
X63715000Y-63789803D01*
X63715000Y-63955874D01*
X63872569Y-64336280D01*
X64163720Y-64627431D01*
X64544126Y-64785000D01*
X64955874Y-64785000D01*
X65271600Y-64654222D01*
X65556779Y-64772347D01*
X65968527Y-64772347D01*
X66267706Y-64648423D01*
X66574835Y-64775640D01*
X66928885Y-64775640D01*
X66800582Y-64801161D01*
X66309375Y-65129375D01*
X65981161Y-65620582D01*
X65865908Y-66200000D01*
X65909462Y-66418960D01*
X64275845Y-68052577D01*
X64201952Y-68101951D01*
X64152578Y-68175844D01*
X64152576Y-68175846D01*
X64006348Y-68394691D01*
X63937663Y-68740000D01*
X63955001Y-68827165D01*
X63955001Y-69005344D01*
X63769375Y-69129375D01*
X63441161Y-69620582D01*
X63325908Y-70200000D01*
X63441161Y-70779418D01*
X63769375Y-71270625D01*
X64260582Y-71598839D01*
X64693744Y-71685000D01*
X64986256Y-71685000D01*
X65419418Y-71598839D01*
X65910625Y-71270625D01*
X66110000Y-70972239D01*
X66309375Y-71270625D01*
X66800582Y-71598839D01*
X67233744Y-71685000D01*
X67526256Y-71685000D01*
X67959418Y-71598839D01*
X68450625Y-71270625D01*
X68650000Y-70972239D01*
X68849375Y-71270625D01*
X69340582Y-71598839D01*
X69773744Y-71685000D01*
X70066256Y-71685000D01*
X70499418Y-71598839D01*
X70990625Y-71270625D01*
X71190000Y-70972239D01*
X71389375Y-71270625D01*
X71880582Y-71598839D01*
X72313744Y-71685000D01*
X72606256Y-71685000D01*
X73039418Y-71598839D01*
X73530625Y-71270625D01*
X73545096Y-71248967D01*
X73606701Y-71397695D01*
X73375661Y-71552071D01*
X73333261Y-71615527D01*
X72683790Y-72264999D01*
X71169847Y-72264999D01*
X71095000Y-72250111D01*
X71020153Y-72264999D01*
X71020149Y-72264999D01*
X70798464Y-72309095D01*
X70798462Y-72309096D01*
X70798463Y-72309096D01*
X70610527Y-72434670D01*
X70610525Y-72434672D01*
X70547072Y-72477070D01*
X70504674Y-72540523D01*
X70286407Y-72758791D01*
X70066256Y-72715000D01*
X69773744Y-72715000D01*
X69340582Y-72801161D01*
X68849375Y-73129375D01*
X68650000Y-73427761D01*
X68450625Y-73129375D01*
X67959418Y-72801161D01*
X67526256Y-72715000D01*
X67233744Y-72715000D01*
X67013592Y-72758791D01*
X66795330Y-72540529D01*
X66752928Y-72477070D01*
X66501536Y-72309095D01*
X66279851Y-72264999D01*
X66279846Y-72264999D01*
X66204999Y-72250111D01*
X66130152Y-72264999D01*
X64616212Y-72264999D01*
X60710010Y-68358799D01*
X60710008Y-62488159D01*
X60724897Y-62413306D01*
X60665913Y-62116768D01*
X60540338Y-61928833D01*
X60540335Y-61928830D01*
X60497937Y-61865377D01*
X60434484Y-61822979D01*
X59174472Y-60562968D01*
X58820614Y-60209110D01*
X58778212Y-60145651D01*
X58526820Y-59977676D01*
X58305135Y-59933580D01*
X58305130Y-59933580D01*
X58230283Y-59918692D01*
X58155436Y-59933580D01*
X57247613Y-59933580D01*
X57191033Y-59877000D01*
X59808562Y-59877000D01*
X59810567Y-59880000D01*
X59810567Y-59880000D01*
G37*
X59810567Y-59880000D02*
X59863775Y-59959632D01*
X59927231Y-60002032D01*
X60289671Y-60364472D01*
X63715000Y-63789803D01*
X63715000Y-63955874D01*
X63872569Y-64336280D01*
X64163720Y-64627431D01*
X64544126Y-64785000D01*
X64955874Y-64785000D01*
X65271600Y-64654222D01*
X65556779Y-64772347D01*
X65968527Y-64772347D01*
X66267706Y-64648423D01*
X66574835Y-64775640D01*
X66928885Y-64775640D01*
X66800582Y-64801161D01*
X66309375Y-65129375D01*
X65981161Y-65620582D01*
X65865908Y-66200000D01*
X65909462Y-66418960D01*
X64275845Y-68052577D01*
X64201952Y-68101951D01*
X64152578Y-68175844D01*
X64152576Y-68175846D01*
X64006348Y-68394691D01*
X63937663Y-68740000D01*
X63955001Y-68827165D01*
X63955001Y-69005344D01*
X63769375Y-69129375D01*
X63441161Y-69620582D01*
X63325908Y-70200000D01*
X63441161Y-70779418D01*
X63769375Y-71270625D01*
X64260582Y-71598839D01*
X64693744Y-71685000D01*
X64986256Y-71685000D01*
X65419418Y-71598839D01*
X65910625Y-71270625D01*
X66110000Y-70972239D01*
X66309375Y-71270625D01*
X66800582Y-71598839D01*
X67233744Y-71685000D01*
X67526256Y-71685000D01*
X67959418Y-71598839D01*
X68450625Y-71270625D01*
X68650000Y-70972239D01*
X68849375Y-71270625D01*
X69340582Y-71598839D01*
X69773744Y-71685000D01*
X70066256Y-71685000D01*
X70499418Y-71598839D01*
X70990625Y-71270625D01*
X71190000Y-70972239D01*
X71389375Y-71270625D01*
X71880582Y-71598839D01*
X72313744Y-71685000D01*
X72606256Y-71685000D01*
X73039418Y-71598839D01*
X73530625Y-71270625D01*
X73545096Y-71248967D01*
X73606701Y-71397695D01*
X73375661Y-71552071D01*
X73333261Y-71615527D01*
X72683790Y-72264999D01*
X71169847Y-72264999D01*
X71095000Y-72250111D01*
X71020153Y-72264999D01*
X71020149Y-72264999D01*
X70798464Y-72309095D01*
X70798462Y-72309096D01*
X70798463Y-72309096D01*
X70610527Y-72434670D01*
X70610525Y-72434672D01*
X70547072Y-72477070D01*
X70504674Y-72540523D01*
X70286407Y-72758791D01*
X70066256Y-72715000D01*
X69773744Y-72715000D01*
X69340582Y-72801161D01*
X68849375Y-73129375D01*
X68650000Y-73427761D01*
X68450625Y-73129375D01*
X67959418Y-72801161D01*
X67526256Y-72715000D01*
X67233744Y-72715000D01*
X67013592Y-72758791D01*
X66795330Y-72540529D01*
X66752928Y-72477070D01*
X66501536Y-72309095D01*
X66279851Y-72264999D01*
X66279846Y-72264999D01*
X66204999Y-72250111D01*
X66130152Y-72264999D01*
X64616212Y-72264999D01*
X60710010Y-68358799D01*
X60710008Y-62488159D01*
X60724897Y-62413306D01*
X60665913Y-62116768D01*
X60540338Y-61928833D01*
X60540335Y-61928830D01*
X60497937Y-61865377D01*
X60434484Y-61822979D01*
X59174472Y-60562968D01*
X58820614Y-60209110D01*
X58778212Y-60145651D01*
X58526820Y-59977676D01*
X58305135Y-59933580D01*
X58305130Y-59933580D01*
X58230283Y-59918692D01*
X58155436Y-59933580D01*
X57247613Y-59933580D01*
X57191033Y-59877000D01*
X59808562Y-59877000D01*
X59810567Y-59880000D01*
G36*
X55767000Y-63173000D02*
X55787000Y-63173000D01*
X55787000Y-63427000D01*
X55767000Y-63427000D01*
X55767000Y-65019656D01*
X55981185Y-65142318D01*
X56052684Y-65128173D01*
X56140001Y-65080743D01*
X56140000Y-68725153D01*
X56125112Y-68800000D01*
X56140000Y-68874847D01*
X56140000Y-68874851D01*
X56184096Y-69096536D01*
X56352071Y-69347929D01*
X56415530Y-69390331D01*
X59740198Y-72715000D01*
X59613744Y-72715000D01*
X59393593Y-72758791D01*
X55208001Y-68573200D01*
X55208001Y-65117681D01*
X55227316Y-65128173D01*
X55298815Y-65142318D01*
X55513000Y-65019656D01*
X55513000Y-63427000D01*
X55493000Y-63427000D01*
X55493000Y-63173000D01*
X55513000Y-63173000D01*
X55513000Y-63153000D01*
X55767000Y-63153000D01*
X55767000Y-63173000D01*
X55767000Y-63173000D01*
G37*
X55767000Y-63173000D02*
X55787000Y-63173000D01*
X55787000Y-63427000D01*
X55767000Y-63427000D01*
X55767000Y-65019656D01*
X55981185Y-65142318D01*
X56052684Y-65128173D01*
X56140001Y-65080743D01*
X56140000Y-68725153D01*
X56125112Y-68800000D01*
X56140000Y-68874847D01*
X56140000Y-68874851D01*
X56184096Y-69096536D01*
X56352071Y-69347929D01*
X56415530Y-69390331D01*
X59740198Y-72715000D01*
X59613744Y-72715000D01*
X59393593Y-72758791D01*
X55208001Y-68573200D01*
X55208001Y-65117681D01*
X55227316Y-65128173D01*
X55298815Y-65142318D01*
X55513000Y-65019656D01*
X55513000Y-63427000D01*
X55493000Y-63427000D01*
X55493000Y-63173000D01*
X55513000Y-63173000D01*
X55513000Y-63153000D01*
X55767000Y-63153000D01*
X55767000Y-63173000D01*
G36*
X79840000Y-66448787D02*
X78015528Y-68273261D01*
X77952072Y-68315661D01*
X77909672Y-68379117D01*
X77909671Y-68379118D01*
X77786496Y-68563463D01*
X77784097Y-68567053D01*
X77747707Y-68750000D01*
X77725112Y-68863590D01*
X77740001Y-68938441D01*
X77740000Y-69997840D01*
X76472405Y-71340000D01*
X76417197Y-71340000D01*
X76485000Y-71176309D01*
X76485000Y-70485750D01*
X76326250Y-70327000D01*
X75127000Y-70327000D01*
X75127000Y-70347000D01*
X74873000Y-70347000D01*
X74873000Y-70327000D01*
X74853000Y-70327000D01*
X74853000Y-70073000D01*
X74873000Y-70073000D01*
X74873000Y-68873750D01*
X75127000Y-68873750D01*
X75127000Y-70073000D01*
X76326250Y-70073000D01*
X76485000Y-69914250D01*
X76485000Y-69223691D01*
X76388327Y-68990302D01*
X76209699Y-68811673D01*
X75976310Y-68715000D01*
X75285750Y-68715000D01*
X75127000Y-68873750D01*
X74873000Y-68873750D01*
X74714250Y-68715000D01*
X74023690Y-68715000D01*
X73790301Y-68811673D01*
X73611673Y-68990302D01*
X73545096Y-69151033D01*
X73530625Y-69129375D01*
X73039418Y-68801161D01*
X72606256Y-68715000D01*
X72313744Y-68715000D01*
X71880582Y-68801161D01*
X71389375Y-69129375D01*
X71190000Y-69427761D01*
X70990625Y-69129375D01*
X70499418Y-68801161D01*
X70066256Y-68715000D01*
X69773744Y-68715000D01*
X69340582Y-68801161D01*
X68849375Y-69129375D01*
X68650000Y-69427761D01*
X68450625Y-69129375D01*
X67959418Y-68801161D01*
X67526256Y-68715000D01*
X67233744Y-68715000D01*
X66800582Y-68801161D01*
X66309375Y-69129375D01*
X66110000Y-69427761D01*
X65910625Y-69129375D01*
X65785685Y-69045893D01*
X67161040Y-67670538D01*
X67233744Y-67685000D01*
X67526256Y-67685000D01*
X67959418Y-67598839D01*
X68450625Y-67270625D01*
X68650000Y-66972239D01*
X68849375Y-67270625D01*
X69340582Y-67598839D01*
X69773744Y-67685000D01*
X70066256Y-67685000D01*
X70499418Y-67598839D01*
X70990625Y-67270625D01*
X71190000Y-66972239D01*
X71389375Y-67270625D01*
X71880582Y-67598839D01*
X72313744Y-67685000D01*
X72606256Y-67685000D01*
X73039418Y-67598839D01*
X73530625Y-67270625D01*
X73545096Y-67248967D01*
X73611673Y-67409698D01*
X73790301Y-67588327D01*
X74023690Y-67685000D01*
X74714250Y-67685000D01*
X74873000Y-67526250D01*
X74873000Y-66327000D01*
X75127000Y-66327000D01*
X75127000Y-67526250D01*
X75285750Y-67685000D01*
X75976310Y-67685000D01*
X76209699Y-67588327D01*
X76388327Y-67409698D01*
X76485000Y-67176309D01*
X76485000Y-66485750D01*
X76326250Y-66327000D01*
X75127000Y-66327000D01*
X74873000Y-66327000D01*
X74853000Y-66327000D01*
X74853000Y-66073000D01*
X74873000Y-66073000D01*
X74873000Y-64873750D01*
X75127000Y-64873750D01*
X75127000Y-66073000D01*
X76326250Y-66073000D01*
X76485000Y-65914250D01*
X76485000Y-65223691D01*
X76388327Y-64990302D01*
X76209699Y-64811673D01*
X75976310Y-64715000D01*
X75285750Y-64715000D01*
X75127000Y-64873750D01*
X74873000Y-64873750D01*
X74714250Y-64715000D01*
X74023690Y-64715000D01*
X73790301Y-64811673D01*
X73611673Y-64990302D01*
X73545096Y-65151033D01*
X73530625Y-65129375D01*
X73039418Y-64801161D01*
X72606256Y-64715000D01*
X72313744Y-64715000D01*
X71880582Y-64801161D01*
X71389375Y-65129375D01*
X71190000Y-65427761D01*
X70990625Y-65129375D01*
X70499418Y-64801161D01*
X70403124Y-64782007D01*
X75308132Y-59877000D01*
X79840001Y-59877000D01*
X79840000Y-66448787D01*
X79840000Y-66448787D01*
G37*
X79840000Y-66448787D02*
X78015528Y-68273261D01*
X77952072Y-68315661D01*
X77909672Y-68379117D01*
X77909671Y-68379118D01*
X77786496Y-68563463D01*
X77784097Y-68567053D01*
X77747707Y-68750000D01*
X77725112Y-68863590D01*
X77740001Y-68938441D01*
X77740000Y-69997840D01*
X76472405Y-71340000D01*
X76417197Y-71340000D01*
X76485000Y-71176309D01*
X76485000Y-70485750D01*
X76326250Y-70327000D01*
X75127000Y-70327000D01*
X75127000Y-70347000D01*
X74873000Y-70347000D01*
X74873000Y-70327000D01*
X74853000Y-70327000D01*
X74853000Y-70073000D01*
X74873000Y-70073000D01*
X74873000Y-68873750D01*
X75127000Y-68873750D01*
X75127000Y-70073000D01*
X76326250Y-70073000D01*
X76485000Y-69914250D01*
X76485000Y-69223691D01*
X76388327Y-68990302D01*
X76209699Y-68811673D01*
X75976310Y-68715000D01*
X75285750Y-68715000D01*
X75127000Y-68873750D01*
X74873000Y-68873750D01*
X74714250Y-68715000D01*
X74023690Y-68715000D01*
X73790301Y-68811673D01*
X73611673Y-68990302D01*
X73545096Y-69151033D01*
X73530625Y-69129375D01*
X73039418Y-68801161D01*
X72606256Y-68715000D01*
X72313744Y-68715000D01*
X71880582Y-68801161D01*
X71389375Y-69129375D01*
X71190000Y-69427761D01*
X70990625Y-69129375D01*
X70499418Y-68801161D01*
X70066256Y-68715000D01*
X69773744Y-68715000D01*
X69340582Y-68801161D01*
X68849375Y-69129375D01*
X68650000Y-69427761D01*
X68450625Y-69129375D01*
X67959418Y-68801161D01*
X67526256Y-68715000D01*
X67233744Y-68715000D01*
X66800582Y-68801161D01*
X66309375Y-69129375D01*
X66110000Y-69427761D01*
X65910625Y-69129375D01*
X65785685Y-69045893D01*
X67161040Y-67670538D01*
X67233744Y-67685000D01*
X67526256Y-67685000D01*
X67959418Y-67598839D01*
X68450625Y-67270625D01*
X68650000Y-66972239D01*
X68849375Y-67270625D01*
X69340582Y-67598839D01*
X69773744Y-67685000D01*
X70066256Y-67685000D01*
X70499418Y-67598839D01*
X70990625Y-67270625D01*
X71190000Y-66972239D01*
X71389375Y-67270625D01*
X71880582Y-67598839D01*
X72313744Y-67685000D01*
X72606256Y-67685000D01*
X73039418Y-67598839D01*
X73530625Y-67270625D01*
X73545096Y-67248967D01*
X73611673Y-67409698D01*
X73790301Y-67588327D01*
X74023690Y-67685000D01*
X74714250Y-67685000D01*
X74873000Y-67526250D01*
X74873000Y-66327000D01*
X75127000Y-66327000D01*
X75127000Y-67526250D01*
X75285750Y-67685000D01*
X75976310Y-67685000D01*
X76209699Y-67588327D01*
X76388327Y-67409698D01*
X76485000Y-67176309D01*
X76485000Y-66485750D01*
X76326250Y-66327000D01*
X75127000Y-66327000D01*
X74873000Y-66327000D01*
X74853000Y-66327000D01*
X74853000Y-66073000D01*
X74873000Y-66073000D01*
X74873000Y-64873750D01*
X75127000Y-64873750D01*
X75127000Y-66073000D01*
X76326250Y-66073000D01*
X76485000Y-65914250D01*
X76485000Y-65223691D01*
X76388327Y-64990302D01*
X76209699Y-64811673D01*
X75976310Y-64715000D01*
X75285750Y-64715000D01*
X75127000Y-64873750D01*
X74873000Y-64873750D01*
X74714250Y-64715000D01*
X74023690Y-64715000D01*
X73790301Y-64811673D01*
X73611673Y-64990302D01*
X73545096Y-65151033D01*
X73530625Y-65129375D01*
X73039418Y-64801161D01*
X72606256Y-64715000D01*
X72313744Y-64715000D01*
X71880582Y-64801161D01*
X71389375Y-65129375D01*
X71190000Y-65427761D01*
X70990625Y-65129375D01*
X70499418Y-64801161D01*
X70403124Y-64782007D01*
X75308132Y-59877000D01*
X79840001Y-59877000D01*
X79840000Y-66448787D01*
G36*
X58909000Y-29738126D02*
X58909000Y-30149874D01*
X59066569Y-30530280D01*
X59357720Y-30821431D01*
X59738126Y-30979000D01*
X59904198Y-30979000D01*
X59940001Y-31014803D01*
X59940001Y-33246883D01*
X59797765Y-33151843D01*
X59550000Y-33102560D01*
X58050000Y-33102560D01*
X57802235Y-33151843D01*
X57592191Y-33292191D01*
X57451843Y-33502235D01*
X57450000Y-33511500D01*
X57448157Y-33502235D01*
X57307809Y-33292191D01*
X57097765Y-33151843D01*
X56850000Y-33102560D01*
X55350000Y-33102560D01*
X55102235Y-33151843D01*
X54892191Y-33292191D01*
X54751843Y-33502235D01*
X54724440Y-33640000D01*
X54581112Y-33640000D01*
X54201533Y-33260421D01*
X54047278Y-33196527D01*
X54141972Y-33157303D01*
X54213650Y-32913255D01*
X53400000Y-32099605D01*
X52586350Y-32913255D01*
X52658028Y-33157303D01*
X52759609Y-33193674D01*
X52598467Y-33260421D01*
X52200421Y-33658467D01*
X51985000Y-34178539D01*
X51985000Y-34741461D01*
X52200421Y-35261533D01*
X52598467Y-35659579D01*
X52768478Y-35730000D01*
X52598467Y-35800421D01*
X52200421Y-36198467D01*
X51985000Y-36718539D01*
X51985000Y-37281461D01*
X52200421Y-37801533D01*
X52598467Y-38199579D01*
X52768478Y-38270000D01*
X52598467Y-38340421D01*
X52200421Y-38738467D01*
X51985000Y-39258539D01*
X51985000Y-39821461D01*
X52200421Y-40341533D01*
X52598467Y-40739579D01*
X52768478Y-40810000D01*
X52598467Y-40880421D01*
X52200421Y-41278467D01*
X51985000Y-41798539D01*
X51985000Y-42361461D01*
X52200421Y-42881533D01*
X52598467Y-43279579D01*
X52768478Y-43350000D01*
X52598467Y-43420421D01*
X52200421Y-43818467D01*
X51985000Y-44338539D01*
X51985000Y-44901461D01*
X52200421Y-45421533D01*
X52401888Y-45623000D01*
X51750000Y-45623000D01*
X51699312Y-45633554D01*
X51658608Y-45661815D01*
X51631818Y-45703502D01*
X51623020Y-45752267D01*
X51716878Y-51008321D01*
X51515529Y-51209670D01*
X51452073Y-51252070D01*
X51409673Y-51315526D01*
X51409672Y-51315527D01*
X51284098Y-51503462D01*
X51225113Y-51799999D01*
X51240002Y-51874851D01*
X51240001Y-67602560D01*
X47850000Y-67602560D01*
X47602235Y-67651843D01*
X47392191Y-67792191D01*
X47297440Y-67933995D01*
X47297440Y-65250000D01*
X47248157Y-65002235D01*
X47107809Y-64792191D01*
X46897765Y-64651843D01*
X46650000Y-64602560D01*
X43150000Y-64602560D01*
X42902235Y-64651843D01*
X42692191Y-64792191D01*
X42551843Y-65002235D01*
X42502560Y-65250000D01*
X42502560Y-65865000D01*
X9270133Y-65865000D01*
X3035000Y-59629869D01*
X3035000Y-55894126D01*
X8165000Y-55894126D01*
X8165000Y-56305874D01*
X8322569Y-56686280D01*
X8613720Y-56977431D01*
X8994126Y-57135000D01*
X9405874Y-57135000D01*
X9786280Y-56977431D01*
X10077431Y-56686280D01*
X10235000Y-56305874D01*
X10235000Y-55894126D01*
X10077431Y-55513720D01*
X9786280Y-55222569D01*
X9405874Y-55065000D01*
X8994126Y-55065000D01*
X8613720Y-55222569D01*
X8322569Y-55513720D01*
X8165000Y-55894126D01*
X3035000Y-55894126D01*
X3035000Y-54886245D01*
X3394126Y-55035000D01*
X3805874Y-55035000D01*
X4186280Y-54877431D01*
X4477431Y-54586280D01*
X4635000Y-54205874D01*
X4635000Y-54039802D01*
X5584476Y-53090327D01*
X5647929Y-53047929D01*
X5690327Y-52984476D01*
X5690329Y-52984474D01*
X5815903Y-52796538D01*
X5815904Y-52796537D01*
X5860000Y-52574852D01*
X5860000Y-52574848D01*
X5874888Y-52500001D01*
X5860000Y-52425154D01*
X5860000Y-50894126D01*
X8165000Y-50894126D01*
X8165000Y-51305874D01*
X8322569Y-51686280D01*
X8613720Y-51977431D01*
X8994126Y-52135000D01*
X9405874Y-52135000D01*
X9786280Y-51977431D01*
X10077431Y-51686280D01*
X10235000Y-51305874D01*
X10235000Y-50894126D01*
X10077431Y-50513720D01*
X9786280Y-50222569D01*
X9405874Y-50065000D01*
X8994126Y-50065000D01*
X8613720Y-50222569D01*
X8322569Y-50513720D01*
X8165000Y-50894126D01*
X5860000Y-50894126D01*
X5860000Y-50714801D01*
X10640001Y-45934800D01*
X10640000Y-53396289D01*
X10522569Y-53513720D01*
X10365000Y-53894126D01*
X10365000Y-54305874D01*
X10522569Y-54686280D01*
X10813720Y-54977431D01*
X11194126Y-55135000D01*
X11605874Y-55135000D01*
X11986280Y-54977431D01*
X12277431Y-54686280D01*
X12435000Y-54305874D01*
X12435000Y-53894126D01*
X12277431Y-53513720D01*
X12160000Y-53396289D01*
X12160000Y-45051211D01*
X15840000Y-41371211D01*
X15840001Y-60385198D01*
X15815530Y-60409669D01*
X15752071Y-60452071D01*
X15584096Y-60703464D01*
X15540000Y-60925149D01*
X15540000Y-60925153D01*
X15525112Y-61000000D01*
X15540000Y-61074847D01*
X15540001Y-62242890D01*
X15422569Y-62360322D01*
X15265000Y-62740728D01*
X15265000Y-63152476D01*
X15422569Y-63532882D01*
X15713720Y-63824033D01*
X16094126Y-63981602D01*
X16505874Y-63981602D01*
X16886280Y-63824033D01*
X17177431Y-63532882D01*
X17335000Y-63152476D01*
X17335000Y-62740728D01*
X17177431Y-62360322D01*
X17060000Y-62242891D01*
X17060000Y-61314801D01*
X17084470Y-61290331D01*
X17147929Y-61247929D01*
X17315904Y-60996537D01*
X17360000Y-60774852D01*
X17360000Y-60774848D01*
X17374888Y-60700001D01*
X17360000Y-60625154D01*
X17360000Y-60271212D01*
X18823273Y-61734486D01*
X18865671Y-61797939D01*
X18929124Y-61840337D01*
X18929126Y-61840339D01*
X19035779Y-61911602D01*
X19117063Y-61965914D01*
X19338748Y-62010010D01*
X19338752Y-62010010D01*
X19413599Y-62024898D01*
X19488446Y-62010010D01*
X22700894Y-62010010D01*
X23158728Y-62467845D01*
X23065000Y-62694126D01*
X23065000Y-63105874D01*
X23222569Y-63486280D01*
X23513720Y-63777431D01*
X23894126Y-63935000D01*
X24305874Y-63935000D01*
X24686280Y-63777431D01*
X24977431Y-63486280D01*
X25135000Y-63105874D01*
X25135000Y-62694126D01*
X24977431Y-62313720D01*
X24844314Y-62180603D01*
X24825117Y-62084096D01*
X24815904Y-62037777D01*
X24690329Y-61849842D01*
X24647929Y-61786386D01*
X24584473Y-61743986D01*
X24400487Y-61560000D01*
X29385199Y-61560000D01*
X30765000Y-62939803D01*
X30765000Y-63105874D01*
X30922569Y-63486280D01*
X31213720Y-63777431D01*
X31594126Y-63935000D01*
X32005874Y-63935000D01*
X32386280Y-63777431D01*
X32677431Y-63486280D01*
X32835000Y-63105874D01*
X32835000Y-62694126D01*
X32677431Y-62313720D01*
X32386280Y-62022569D01*
X32005874Y-61865000D01*
X31839803Y-61865000D01*
X30290331Y-60315530D01*
X30247929Y-60252071D01*
X29996537Y-60084096D01*
X29774852Y-60040000D01*
X29774847Y-60040000D01*
X29700000Y-60025112D01*
X29625153Y-60040000D01*
X19914802Y-60040000D01*
X18360000Y-58485199D01*
X18360000Y-55435000D01*
X47500000Y-55435000D01*
X47743004Y-55386664D01*
X47832297Y-55327000D01*
X47900000Y-55327000D01*
X47948601Y-55317333D01*
X47989803Y-55289803D01*
X48017333Y-55248601D01*
X48027000Y-55200000D01*
X48027000Y-55132297D01*
X48086664Y-55043004D01*
X48135000Y-54800000D01*
X48135000Y-44535000D01*
X50000000Y-44535000D01*
X50243004Y-44486664D01*
X50332297Y-44427000D01*
X50400000Y-44427000D01*
X50448601Y-44417333D01*
X50489803Y-44389803D01*
X50517333Y-44348601D01*
X50527000Y-44300000D01*
X50527000Y-44232297D01*
X50586664Y-44143004D01*
X50633069Y-43909709D01*
X50694126Y-43935000D01*
X51105874Y-43935000D01*
X51486280Y-43777431D01*
X51777431Y-43486280D01*
X51935000Y-43105874D01*
X51935000Y-42694126D01*
X51777431Y-42313720D01*
X51660000Y-42196289D01*
X51660000Y-32514801D01*
X51995969Y-32178832D01*
X52000441Y-32270252D01*
X52162697Y-32661972D01*
X52406745Y-32733650D01*
X53220395Y-31920000D01*
X53206253Y-31905858D01*
X53385858Y-31726253D01*
X53400000Y-31740395D01*
X53414143Y-31726253D01*
X53593748Y-31905858D01*
X53579605Y-31920000D01*
X54393255Y-32733650D01*
X54637303Y-32661972D01*
X54827060Y-32131997D01*
X54799559Y-31569748D01*
X54666932Y-31249559D01*
X54689846Y-31245001D01*
X54689851Y-31245001D01*
X54911536Y-31200905D01*
X55162928Y-31032930D01*
X55205330Y-30969471D01*
X56480329Y-29694473D01*
X56480331Y-29694470D01*
X56675802Y-29498999D01*
X59008049Y-29498999D01*
X58909000Y-29738126D01*
X58909000Y-29738126D01*
G37*
X58909000Y-29738126D02*
X58909000Y-30149874D01*
X59066569Y-30530280D01*
X59357720Y-30821431D01*
X59738126Y-30979000D01*
X59904198Y-30979000D01*
X59940001Y-31014803D01*
X59940001Y-33246883D01*
X59797765Y-33151843D01*
X59550000Y-33102560D01*
X58050000Y-33102560D01*
X57802235Y-33151843D01*
X57592191Y-33292191D01*
X57451843Y-33502235D01*
X57450000Y-33511500D01*
X57448157Y-33502235D01*
X57307809Y-33292191D01*
X57097765Y-33151843D01*
X56850000Y-33102560D01*
X55350000Y-33102560D01*
X55102235Y-33151843D01*
X54892191Y-33292191D01*
X54751843Y-33502235D01*
X54724440Y-33640000D01*
X54581112Y-33640000D01*
X54201533Y-33260421D01*
X54047278Y-33196527D01*
X54141972Y-33157303D01*
X54213650Y-32913255D01*
X53400000Y-32099605D01*
X52586350Y-32913255D01*
X52658028Y-33157303D01*
X52759609Y-33193674D01*
X52598467Y-33260421D01*
X52200421Y-33658467D01*
X51985000Y-34178539D01*
X51985000Y-34741461D01*
X52200421Y-35261533D01*
X52598467Y-35659579D01*
X52768478Y-35730000D01*
X52598467Y-35800421D01*
X52200421Y-36198467D01*
X51985000Y-36718539D01*
X51985000Y-37281461D01*
X52200421Y-37801533D01*
X52598467Y-38199579D01*
X52768478Y-38270000D01*
X52598467Y-38340421D01*
X52200421Y-38738467D01*
X51985000Y-39258539D01*
X51985000Y-39821461D01*
X52200421Y-40341533D01*
X52598467Y-40739579D01*
X52768478Y-40810000D01*
X52598467Y-40880421D01*
X52200421Y-41278467D01*
X51985000Y-41798539D01*
X51985000Y-42361461D01*
X52200421Y-42881533D01*
X52598467Y-43279579D01*
X52768478Y-43350000D01*
X52598467Y-43420421D01*
X52200421Y-43818467D01*
X51985000Y-44338539D01*
X51985000Y-44901461D01*
X52200421Y-45421533D01*
X52401888Y-45623000D01*
X51750000Y-45623000D01*
X51699312Y-45633554D01*
X51658608Y-45661815D01*
X51631818Y-45703502D01*
X51623020Y-45752267D01*
X51716878Y-51008321D01*
X51515529Y-51209670D01*
X51452073Y-51252070D01*
X51409673Y-51315526D01*
X51409672Y-51315527D01*
X51284098Y-51503462D01*
X51225113Y-51799999D01*
X51240002Y-51874851D01*
X51240001Y-67602560D01*
X47850000Y-67602560D01*
X47602235Y-67651843D01*
X47392191Y-67792191D01*
X47297440Y-67933995D01*
X47297440Y-65250000D01*
X47248157Y-65002235D01*
X47107809Y-64792191D01*
X46897765Y-64651843D01*
X46650000Y-64602560D01*
X43150000Y-64602560D01*
X42902235Y-64651843D01*
X42692191Y-64792191D01*
X42551843Y-65002235D01*
X42502560Y-65250000D01*
X42502560Y-65865000D01*
X9270133Y-65865000D01*
X3035000Y-59629869D01*
X3035000Y-55894126D01*
X8165000Y-55894126D01*
X8165000Y-56305874D01*
X8322569Y-56686280D01*
X8613720Y-56977431D01*
X8994126Y-57135000D01*
X9405874Y-57135000D01*
X9786280Y-56977431D01*
X10077431Y-56686280D01*
X10235000Y-56305874D01*
X10235000Y-55894126D01*
X10077431Y-55513720D01*
X9786280Y-55222569D01*
X9405874Y-55065000D01*
X8994126Y-55065000D01*
X8613720Y-55222569D01*
X8322569Y-55513720D01*
X8165000Y-55894126D01*
X3035000Y-55894126D01*
X3035000Y-54886245D01*
X3394126Y-55035000D01*
X3805874Y-55035000D01*
X4186280Y-54877431D01*
X4477431Y-54586280D01*
X4635000Y-54205874D01*
X4635000Y-54039802D01*
X5584476Y-53090327D01*
X5647929Y-53047929D01*
X5690327Y-52984476D01*
X5690329Y-52984474D01*
X5815903Y-52796538D01*
X5815904Y-52796537D01*
X5860000Y-52574852D01*
X5860000Y-52574848D01*
X5874888Y-52500001D01*
X5860000Y-52425154D01*
X5860000Y-50894126D01*
X8165000Y-50894126D01*
X8165000Y-51305874D01*
X8322569Y-51686280D01*
X8613720Y-51977431D01*
X8994126Y-52135000D01*
X9405874Y-52135000D01*
X9786280Y-51977431D01*
X10077431Y-51686280D01*
X10235000Y-51305874D01*
X10235000Y-50894126D01*
X10077431Y-50513720D01*
X9786280Y-50222569D01*
X9405874Y-50065000D01*
X8994126Y-50065000D01*
X8613720Y-50222569D01*
X8322569Y-50513720D01*
X8165000Y-50894126D01*
X5860000Y-50894126D01*
X5860000Y-50714801D01*
X10640001Y-45934800D01*
X10640000Y-53396289D01*
X10522569Y-53513720D01*
X10365000Y-53894126D01*
X10365000Y-54305874D01*
X10522569Y-54686280D01*
X10813720Y-54977431D01*
X11194126Y-55135000D01*
X11605874Y-55135000D01*
X11986280Y-54977431D01*
X12277431Y-54686280D01*
X12435000Y-54305874D01*
X12435000Y-53894126D01*
X12277431Y-53513720D01*
X12160000Y-53396289D01*
X12160000Y-45051211D01*
X15840000Y-41371211D01*
X15840001Y-60385198D01*
X15815530Y-60409669D01*
X15752071Y-60452071D01*
X15584096Y-60703464D01*
X15540000Y-60925149D01*
X15540000Y-60925153D01*
X15525112Y-61000000D01*
X15540000Y-61074847D01*
X15540001Y-62242890D01*
X15422569Y-62360322D01*
X15265000Y-62740728D01*
X15265000Y-63152476D01*
X15422569Y-63532882D01*
X15713720Y-63824033D01*
X16094126Y-63981602D01*
X16505874Y-63981602D01*
X16886280Y-63824033D01*
X17177431Y-63532882D01*
X17335000Y-63152476D01*
X17335000Y-62740728D01*
X17177431Y-62360322D01*
X17060000Y-62242891D01*
X17060000Y-61314801D01*
X17084470Y-61290331D01*
X17147929Y-61247929D01*
X17315904Y-60996537D01*
X17360000Y-60774852D01*
X17360000Y-60774848D01*
X17374888Y-60700001D01*
X17360000Y-60625154D01*
X17360000Y-60271212D01*
X18823273Y-61734486D01*
X18865671Y-61797939D01*
X18929124Y-61840337D01*
X18929126Y-61840339D01*
X19035779Y-61911602D01*
X19117063Y-61965914D01*
X19338748Y-62010010D01*
X19338752Y-62010010D01*
X19413599Y-62024898D01*
X19488446Y-62010010D01*
X22700894Y-62010010D01*
X23158728Y-62467845D01*
X23065000Y-62694126D01*
X23065000Y-63105874D01*
X23222569Y-63486280D01*
X23513720Y-63777431D01*
X23894126Y-63935000D01*
X24305874Y-63935000D01*
X24686280Y-63777431D01*
X24977431Y-63486280D01*
X25135000Y-63105874D01*
X25135000Y-62694126D01*
X24977431Y-62313720D01*
X24844314Y-62180603D01*
X24825117Y-62084096D01*
X24815904Y-62037777D01*
X24690329Y-61849842D01*
X24647929Y-61786386D01*
X24584473Y-61743986D01*
X24400487Y-61560000D01*
X29385199Y-61560000D01*
X30765000Y-62939803D01*
X30765000Y-63105874D01*
X30922569Y-63486280D01*
X31213720Y-63777431D01*
X31594126Y-63935000D01*
X32005874Y-63935000D01*
X32386280Y-63777431D01*
X32677431Y-63486280D01*
X32835000Y-63105874D01*
X32835000Y-62694126D01*
X32677431Y-62313720D01*
X32386280Y-62022569D01*
X32005874Y-61865000D01*
X31839803Y-61865000D01*
X30290331Y-60315530D01*
X30247929Y-60252071D01*
X29996537Y-60084096D01*
X29774852Y-60040000D01*
X29774847Y-60040000D01*
X29700000Y-60025112D01*
X29625153Y-60040000D01*
X19914802Y-60040000D01*
X18360000Y-58485199D01*
X18360000Y-55435000D01*
X47500000Y-55435000D01*
X47743004Y-55386664D01*
X47832297Y-55327000D01*
X47900000Y-55327000D01*
X47948601Y-55317333D01*
X47989803Y-55289803D01*
X48017333Y-55248601D01*
X48027000Y-55200000D01*
X48027000Y-55132297D01*
X48086664Y-55043004D01*
X48135000Y-54800000D01*
X48135000Y-44535000D01*
X50000000Y-44535000D01*
X50243004Y-44486664D01*
X50332297Y-44427000D01*
X50400000Y-44427000D01*
X50448601Y-44417333D01*
X50489803Y-44389803D01*
X50517333Y-44348601D01*
X50527000Y-44300000D01*
X50527000Y-44232297D01*
X50586664Y-44143004D01*
X50633069Y-43909709D01*
X50694126Y-43935000D01*
X51105874Y-43935000D01*
X51486280Y-43777431D01*
X51777431Y-43486280D01*
X51935000Y-43105874D01*
X51935000Y-42694126D01*
X51777431Y-42313720D01*
X51660000Y-42196289D01*
X51660000Y-32514801D01*
X51995969Y-32178832D01*
X52000441Y-32270252D01*
X52162697Y-32661972D01*
X52406745Y-32733650D01*
X53220395Y-31920000D01*
X53206253Y-31905858D01*
X53385858Y-31726253D01*
X53400000Y-31740395D01*
X53414143Y-31726253D01*
X53593748Y-31905858D01*
X53579605Y-31920000D01*
X54393255Y-32733650D01*
X54637303Y-32661972D01*
X54827060Y-32131997D01*
X54799559Y-31569748D01*
X54666932Y-31249559D01*
X54689846Y-31245001D01*
X54689851Y-31245001D01*
X54911536Y-31200905D01*
X55162928Y-31032930D01*
X55205330Y-30969471D01*
X56480329Y-29694473D01*
X56480331Y-29694470D01*
X56675802Y-29498999D01*
X59008049Y-29498999D01*
X58909000Y-29738126D01*
G36*
X77385000Y-1158539D02*
X77385000Y-1721461D01*
X77600421Y-2241533D01*
X77998467Y-2639579D01*
X78168478Y-2710000D01*
X77998467Y-2780421D01*
X77600421Y-3178467D01*
X77385000Y-3698539D01*
X77385000Y-4261461D01*
X77600421Y-4781533D01*
X77998467Y-5179579D01*
X78168478Y-5250000D01*
X77998467Y-5320421D01*
X77600421Y-5718467D01*
X77385000Y-6238539D01*
X77385000Y-6801461D01*
X77600421Y-7321533D01*
X77998467Y-7719579D01*
X78168478Y-7790000D01*
X77998467Y-7860421D01*
X77600421Y-8258467D01*
X77385000Y-8778539D01*
X77385000Y-9341461D01*
X77600421Y-9861533D01*
X77998467Y-10259579D01*
X78168478Y-10330000D01*
X77998467Y-10400421D01*
X77600421Y-10798467D01*
X77385000Y-11318539D01*
X77385000Y-11881461D01*
X77600421Y-12401533D01*
X77998467Y-12799579D01*
X78152722Y-12863473D01*
X78058028Y-12902697D01*
X77986350Y-13146745D01*
X78800000Y-13960395D01*
X79613650Y-13146745D01*
X79541972Y-12902697D01*
X79440391Y-12866326D01*
X79601533Y-12799579D01*
X79999579Y-12401533D01*
X80215000Y-11881461D01*
X80215000Y-11318539D01*
X79999579Y-10798467D01*
X79601533Y-10400421D01*
X79431522Y-10330000D01*
X79601533Y-10259579D01*
X79999579Y-9861533D01*
X80133379Y-9538510D01*
X86565001Y-15970133D01*
X86565000Y-51715000D01*
X86185750Y-51715000D01*
X86027000Y-51873750D01*
X86027000Y-53073000D01*
X86047000Y-53073000D01*
X86047000Y-53327000D01*
X86027000Y-53327000D01*
X86027000Y-53347000D01*
X85773000Y-53347000D01*
X85773000Y-53327000D01*
X84573750Y-53327000D01*
X84415000Y-53485750D01*
X84415000Y-54176310D01*
X84511673Y-54409699D01*
X84690302Y-54588327D01*
X84730554Y-54605000D01*
X80785145Y-54605000D01*
X80742622Y-52223690D01*
X84415000Y-52223690D01*
X84415000Y-52914250D01*
X84573750Y-53073000D01*
X85773000Y-53073000D01*
X85773000Y-51873750D01*
X85614250Y-51715000D01*
X84923691Y-51715000D01*
X84690302Y-51811673D01*
X84511673Y-51990301D01*
X84415000Y-52223690D01*
X80742622Y-52223690D01*
X80626980Y-45747733D01*
X80617333Y-45701399D01*
X80589803Y-45660197D01*
X80548601Y-45632667D01*
X80500000Y-45623000D01*
X79798112Y-45623000D01*
X79999579Y-45421533D01*
X80215000Y-44901461D01*
X80215000Y-44338539D01*
X79999579Y-43818467D01*
X79601533Y-43420421D01*
X79431522Y-43350000D01*
X79601533Y-43279579D01*
X79999579Y-42881533D01*
X80215000Y-42361461D01*
X80215000Y-41798539D01*
X79999579Y-41278467D01*
X79601533Y-40880421D01*
X79431522Y-40810000D01*
X79601533Y-40739579D01*
X79999579Y-40341533D01*
X80215000Y-39821461D01*
X80215000Y-39258539D01*
X79999579Y-38738467D01*
X79601533Y-38340421D01*
X79431522Y-38270000D01*
X79601533Y-38199579D01*
X79999579Y-37801533D01*
X80215000Y-37281461D01*
X80215000Y-36718539D01*
X79999579Y-36198467D01*
X79601533Y-35800421D01*
X79431522Y-35730000D01*
X79601533Y-35659579D01*
X79999579Y-35261533D01*
X80215000Y-34741461D01*
X80215000Y-34178539D01*
X79999579Y-33658467D01*
X79601533Y-33260421D01*
X79431522Y-33190000D01*
X79601533Y-33119579D01*
X79999579Y-32721533D01*
X80215000Y-32201461D01*
X80215000Y-31638539D01*
X79999579Y-31118467D01*
X79601533Y-30720421D01*
X79431522Y-30650000D01*
X79601533Y-30579579D01*
X79999579Y-30181533D01*
X80215000Y-29661461D01*
X80215000Y-29098539D01*
X79999579Y-28578467D01*
X79601533Y-28180421D01*
X79431522Y-28110000D01*
X79601533Y-28039579D01*
X79999579Y-27641533D01*
X80215000Y-27121461D01*
X80215000Y-26558539D01*
X79999579Y-26038467D01*
X79601533Y-25640421D01*
X79431522Y-25570000D01*
X79601533Y-25499579D01*
X79999579Y-25101533D01*
X80215000Y-24581461D01*
X80215000Y-24018539D01*
X79999579Y-23498467D01*
X79601533Y-23100421D01*
X79431522Y-23030000D01*
X79601533Y-22959579D01*
X79999579Y-22561533D01*
X80215000Y-22041461D01*
X80215000Y-21478539D01*
X79999579Y-20958467D01*
X79601533Y-20560421D01*
X79431522Y-20490000D01*
X79601533Y-20419579D01*
X79999579Y-20021533D01*
X80215000Y-19501461D01*
X80215000Y-18938539D01*
X79999579Y-18418467D01*
X79601533Y-18020421D01*
X79431522Y-17950000D01*
X79601533Y-17879579D01*
X79999579Y-17481533D01*
X80215000Y-16961461D01*
X80215000Y-16398539D01*
X79999579Y-15878467D01*
X79601533Y-15480421D01*
X79447278Y-15416527D01*
X79541972Y-15377303D01*
X79613650Y-15133255D01*
X78800000Y-14319605D01*
X77986350Y-15133255D01*
X78058028Y-15377303D01*
X78159609Y-15413674D01*
X77998467Y-15480421D01*
X77600421Y-15878467D01*
X77385000Y-16398539D01*
X77385000Y-16961461D01*
X77600421Y-17481533D01*
X77998467Y-17879579D01*
X78168478Y-17950000D01*
X77998467Y-18020421D01*
X77600421Y-18418467D01*
X77385000Y-18938539D01*
X77385000Y-19501461D01*
X77402204Y-19542995D01*
X76315528Y-20629671D01*
X76252072Y-20672071D01*
X76209672Y-20735527D01*
X76209671Y-20735528D01*
X76084097Y-20923463D01*
X76025112Y-21220000D01*
X76040001Y-21294852D01*
X76040000Y-24658200D01*
X73094532Y-27603669D01*
X73094529Y-27603671D01*
X72719202Y-27978999D01*
X71941073Y-27978999D01*
X72186280Y-27877431D01*
X72477431Y-27586280D01*
X72635000Y-27205874D01*
X72635000Y-26794126D01*
X72477431Y-26413720D01*
X72186280Y-26122569D01*
X71805874Y-25965000D01*
X71394126Y-25965000D01*
X71013720Y-26122569D01*
X70896289Y-26240000D01*
X58947000Y-26240000D01*
X58947000Y-25956126D01*
X58789431Y-25575720D01*
X58498280Y-25284569D01*
X58197543Y-25160000D01*
X70896289Y-25160000D01*
X71013720Y-25277431D01*
X71394126Y-25435000D01*
X71805874Y-25435000D01*
X72186280Y-25277431D01*
X72477431Y-24986280D01*
X72635000Y-24605874D01*
X72635000Y-24194126D01*
X72477431Y-23813720D01*
X72186280Y-23522569D01*
X71805874Y-23365000D01*
X71394126Y-23365000D01*
X71013720Y-23522569D01*
X70896289Y-23640000D01*
X56474846Y-23640000D01*
X56399999Y-23625112D01*
X56325152Y-23640000D01*
X56325148Y-23640000D01*
X56103463Y-23684096D01*
X55852071Y-23852071D01*
X55809671Y-23915527D01*
X54885199Y-24840000D01*
X54707910Y-24840000D01*
X54815000Y-24581461D01*
X54815000Y-24018539D01*
X54788681Y-23954999D01*
X55130154Y-23954999D01*
X55205001Y-23969887D01*
X55279848Y-23954999D01*
X55279853Y-23954999D01*
X55501538Y-23910903D01*
X55752930Y-23742928D01*
X55795332Y-23679469D01*
X56814802Y-22660000D01*
X70896289Y-22660000D01*
X71013720Y-22777431D01*
X71394126Y-22935000D01*
X71805874Y-22935000D01*
X72186280Y-22777431D01*
X72477431Y-22486280D01*
X72635000Y-22105874D01*
X72635000Y-21694126D01*
X72477431Y-21313720D01*
X72186280Y-21022569D01*
X71805874Y-20865000D01*
X71394126Y-20865000D01*
X71013720Y-21022569D01*
X70896289Y-21140000D01*
X56838022Y-21140000D01*
X56935000Y-20905874D01*
X56935000Y-20494126D01*
X56777431Y-20113720D01*
X56486280Y-19822569D01*
X56105874Y-19665000D01*
X55694126Y-19665000D01*
X55644753Y-19685451D01*
X56005195Y-19325009D01*
X69660144Y-19325009D01*
X69734991Y-19339897D01*
X69809838Y-19325009D01*
X69809843Y-19325009D01*
X70031528Y-19280913D01*
X70282920Y-19112938D01*
X70325322Y-19049479D01*
X71639802Y-17735000D01*
X71805874Y-17735000D01*
X72186280Y-17577431D01*
X72477431Y-17286280D01*
X72635000Y-16905874D01*
X72635000Y-16494126D01*
X72477431Y-16113720D01*
X72186280Y-15822569D01*
X71805874Y-15665000D01*
X71709802Y-15665000D01*
X72084473Y-15290329D01*
X72147929Y-15247929D01*
X72315904Y-14996537D01*
X72360000Y-14774852D01*
X72360000Y-14774848D01*
X72374888Y-14700001D01*
X72360000Y-14625154D01*
X72360000Y-13928003D01*
X77372940Y-13928003D01*
X77400441Y-14490252D01*
X77562697Y-14881972D01*
X77806745Y-14953650D01*
X78620395Y-14140000D01*
X78979605Y-14140000D01*
X79793255Y-14953650D01*
X80037303Y-14881972D01*
X80227060Y-14351997D01*
X80199559Y-13789748D01*
X80037303Y-13398028D01*
X79793255Y-13326350D01*
X78979605Y-14140000D01*
X78620395Y-14140000D01*
X77806745Y-13326350D01*
X77562697Y-13398028D01*
X77372940Y-13928003D01*
X72360000Y-13928003D01*
X72360000Y-12303711D01*
X72477431Y-12186280D01*
X72635000Y-11805874D01*
X72635000Y-11394126D01*
X72477431Y-11013720D01*
X72186280Y-10722569D01*
X71805874Y-10565000D01*
X71394126Y-10565000D01*
X71013720Y-10722569D01*
X70722569Y-11013720D01*
X70565000Y-11394126D01*
X70565000Y-11805874D01*
X70722569Y-12186280D01*
X70840001Y-12303712D01*
X70840000Y-14385198D01*
X67885199Y-17340000D01*
X67274471Y-17340000D01*
X67274107Y-17339928D01*
X67200587Y-17340000D01*
X67125148Y-17340000D01*
X67124775Y-17340074D01*
X62519126Y-17344585D01*
X62577431Y-17286280D01*
X62735000Y-16905874D01*
X62735000Y-16494126D01*
X62577431Y-16113720D01*
X62286280Y-15822569D01*
X61905874Y-15665000D01*
X61494126Y-15665000D01*
X61474647Y-15673068D01*
X55607424Y-9805846D01*
X55558048Y-9731950D01*
X55265309Y-9536347D01*
X55007164Y-9484999D01*
X55007160Y-9484999D01*
X54919999Y-9467662D01*
X54832838Y-9484999D01*
X54755545Y-9484999D01*
X54815000Y-9341461D01*
X54815000Y-8778539D01*
X54599579Y-8258467D01*
X54201533Y-7860421D01*
X54031522Y-7790000D01*
X54201533Y-7719579D01*
X54599579Y-7321533D01*
X54815000Y-6801461D01*
X54815000Y-6238539D01*
X54599579Y-5718467D01*
X54201533Y-5320421D01*
X54031522Y-5250000D01*
X54201533Y-5179579D01*
X54599579Y-4781533D01*
X54815000Y-4261461D01*
X54815000Y-3698539D01*
X54599579Y-3178467D01*
X54201533Y-2780421D01*
X54031522Y-2710000D01*
X54201533Y-2639579D01*
X54599579Y-2241533D01*
X54815000Y-1721461D01*
X54815000Y-1158539D01*
X54639564Y-735000D01*
X77560436Y-735000D01*
X77385000Y-1158539D01*
X77385000Y-1158539D01*
G37*
X77385000Y-1158539D02*
X77385000Y-1721461D01*
X77600421Y-2241533D01*
X77998467Y-2639579D01*
X78168478Y-2710000D01*
X77998467Y-2780421D01*
X77600421Y-3178467D01*
X77385000Y-3698539D01*
X77385000Y-4261461D01*
X77600421Y-4781533D01*
X77998467Y-5179579D01*
X78168478Y-5250000D01*
X77998467Y-5320421D01*
X77600421Y-5718467D01*
X77385000Y-6238539D01*
X77385000Y-6801461D01*
X77600421Y-7321533D01*
X77998467Y-7719579D01*
X78168478Y-7790000D01*
X77998467Y-7860421D01*
X77600421Y-8258467D01*
X77385000Y-8778539D01*
X77385000Y-9341461D01*
X77600421Y-9861533D01*
X77998467Y-10259579D01*
X78168478Y-10330000D01*
X77998467Y-10400421D01*
X77600421Y-10798467D01*
X77385000Y-11318539D01*
X77385000Y-11881461D01*
X77600421Y-12401533D01*
X77998467Y-12799579D01*
X78152722Y-12863473D01*
X78058028Y-12902697D01*
X77986350Y-13146745D01*
X78800000Y-13960395D01*
X79613650Y-13146745D01*
X79541972Y-12902697D01*
X79440391Y-12866326D01*
X79601533Y-12799579D01*
X79999579Y-12401533D01*
X80215000Y-11881461D01*
X80215000Y-11318539D01*
X79999579Y-10798467D01*
X79601533Y-10400421D01*
X79431522Y-10330000D01*
X79601533Y-10259579D01*
X79999579Y-9861533D01*
X80133379Y-9538510D01*
X86565001Y-15970133D01*
X86565000Y-51715000D01*
X86185750Y-51715000D01*
X86027000Y-51873750D01*
X86027000Y-53073000D01*
X86047000Y-53073000D01*
X86047000Y-53327000D01*
X86027000Y-53327000D01*
X86027000Y-53347000D01*
X85773000Y-53347000D01*
X85773000Y-53327000D01*
X84573750Y-53327000D01*
X84415000Y-53485750D01*
X84415000Y-54176310D01*
X84511673Y-54409699D01*
X84690302Y-54588327D01*
X84730554Y-54605000D01*
X80785145Y-54605000D01*
X80742622Y-52223690D01*
X84415000Y-52223690D01*
X84415000Y-52914250D01*
X84573750Y-53073000D01*
X85773000Y-53073000D01*
X85773000Y-51873750D01*
X85614250Y-51715000D01*
X84923691Y-51715000D01*
X84690302Y-51811673D01*
X84511673Y-51990301D01*
X84415000Y-52223690D01*
X80742622Y-52223690D01*
X80626980Y-45747733D01*
X80617333Y-45701399D01*
X80589803Y-45660197D01*
X80548601Y-45632667D01*
X80500000Y-45623000D01*
X79798112Y-45623000D01*
X79999579Y-45421533D01*
X80215000Y-44901461D01*
X80215000Y-44338539D01*
X79999579Y-43818467D01*
X79601533Y-43420421D01*
X79431522Y-43350000D01*
X79601533Y-43279579D01*
X79999579Y-42881533D01*
X80215000Y-42361461D01*
X80215000Y-41798539D01*
X79999579Y-41278467D01*
X79601533Y-40880421D01*
X79431522Y-40810000D01*
X79601533Y-40739579D01*
X79999579Y-40341533D01*
X80215000Y-39821461D01*
X80215000Y-39258539D01*
X79999579Y-38738467D01*
X79601533Y-38340421D01*
X79431522Y-38270000D01*
X79601533Y-38199579D01*
X79999579Y-37801533D01*
X80215000Y-37281461D01*
X80215000Y-36718539D01*
X79999579Y-36198467D01*
X79601533Y-35800421D01*
X79431522Y-35730000D01*
X79601533Y-35659579D01*
X79999579Y-35261533D01*
X80215000Y-34741461D01*
X80215000Y-34178539D01*
X79999579Y-33658467D01*
X79601533Y-33260421D01*
X79431522Y-33190000D01*
X79601533Y-33119579D01*
X79999579Y-32721533D01*
X80215000Y-32201461D01*
X80215000Y-31638539D01*
X79999579Y-31118467D01*
X79601533Y-30720421D01*
X79431522Y-30650000D01*
X79601533Y-30579579D01*
X79999579Y-30181533D01*
X80215000Y-29661461D01*
X80215000Y-29098539D01*
X79999579Y-28578467D01*
X79601533Y-28180421D01*
X79431522Y-28110000D01*
X79601533Y-28039579D01*
X79999579Y-27641533D01*
X80215000Y-27121461D01*
X80215000Y-26558539D01*
X79999579Y-26038467D01*
X79601533Y-25640421D01*
X79431522Y-25570000D01*
X79601533Y-25499579D01*
X79999579Y-25101533D01*
X80215000Y-24581461D01*
X80215000Y-24018539D01*
X79999579Y-23498467D01*
X79601533Y-23100421D01*
X79431522Y-23030000D01*
X79601533Y-22959579D01*
X79999579Y-22561533D01*
X80215000Y-22041461D01*
X80215000Y-21478539D01*
X79999579Y-20958467D01*
X79601533Y-20560421D01*
X79431522Y-20490000D01*
X79601533Y-20419579D01*
X79999579Y-20021533D01*
X80215000Y-19501461D01*
X80215000Y-18938539D01*
X79999579Y-18418467D01*
X79601533Y-18020421D01*
X79431522Y-17950000D01*
X79601533Y-17879579D01*
X79999579Y-17481533D01*
X80215000Y-16961461D01*
X80215000Y-16398539D01*
X79999579Y-15878467D01*
X79601533Y-15480421D01*
X79447278Y-15416527D01*
X79541972Y-15377303D01*
X79613650Y-15133255D01*
X78800000Y-14319605D01*
X77986350Y-15133255D01*
X78058028Y-15377303D01*
X78159609Y-15413674D01*
X77998467Y-15480421D01*
X77600421Y-15878467D01*
X77385000Y-16398539D01*
X77385000Y-16961461D01*
X77600421Y-17481533D01*
X77998467Y-17879579D01*
X78168478Y-17950000D01*
X77998467Y-18020421D01*
X77600421Y-18418467D01*
X77385000Y-18938539D01*
X77385000Y-19501461D01*
X77402204Y-19542995D01*
X76315528Y-20629671D01*
X76252072Y-20672071D01*
X76209672Y-20735527D01*
X76209671Y-20735528D01*
X76084097Y-20923463D01*
X76025112Y-21220000D01*
X76040001Y-21294852D01*
X76040000Y-24658200D01*
X73094532Y-27603669D01*
X73094529Y-27603671D01*
X72719202Y-27978999D01*
X71941073Y-27978999D01*
X72186280Y-27877431D01*
X72477431Y-27586280D01*
X72635000Y-27205874D01*
X72635000Y-26794126D01*
X72477431Y-26413720D01*
X72186280Y-26122569D01*
X71805874Y-25965000D01*
X71394126Y-25965000D01*
X71013720Y-26122569D01*
X70896289Y-26240000D01*
X58947000Y-26240000D01*
X58947000Y-25956126D01*
X58789431Y-25575720D01*
X58498280Y-25284569D01*
X58197543Y-25160000D01*
X70896289Y-25160000D01*
X71013720Y-25277431D01*
X71394126Y-25435000D01*
X71805874Y-25435000D01*
X72186280Y-25277431D01*
X72477431Y-24986280D01*
X72635000Y-24605874D01*
X72635000Y-24194126D01*
X72477431Y-23813720D01*
X72186280Y-23522569D01*
X71805874Y-23365000D01*
X71394126Y-23365000D01*
X71013720Y-23522569D01*
X70896289Y-23640000D01*
X56474846Y-23640000D01*
X56399999Y-23625112D01*
X56325152Y-23640000D01*
X56325148Y-23640000D01*
X56103463Y-23684096D01*
X55852071Y-23852071D01*
X55809671Y-23915527D01*
X54885199Y-24840000D01*
X54707910Y-24840000D01*
X54815000Y-24581461D01*
X54815000Y-24018539D01*
X54788681Y-23954999D01*
X55130154Y-23954999D01*
X55205001Y-23969887D01*
X55279848Y-23954999D01*
X55279853Y-23954999D01*
X55501538Y-23910903D01*
X55752930Y-23742928D01*
X55795332Y-23679469D01*
X56814802Y-22660000D01*
X70896289Y-22660000D01*
X71013720Y-22777431D01*
X71394126Y-22935000D01*
X71805874Y-22935000D01*
X72186280Y-22777431D01*
X72477431Y-22486280D01*
X72635000Y-22105874D01*
X72635000Y-21694126D01*
X72477431Y-21313720D01*
X72186280Y-21022569D01*
X71805874Y-20865000D01*
X71394126Y-20865000D01*
X71013720Y-21022569D01*
X70896289Y-21140000D01*
X56838022Y-21140000D01*
X56935000Y-20905874D01*
X56935000Y-20494126D01*
X56777431Y-20113720D01*
X56486280Y-19822569D01*
X56105874Y-19665000D01*
X55694126Y-19665000D01*
X55644753Y-19685451D01*
X56005195Y-19325009D01*
X69660144Y-19325009D01*
X69734991Y-19339897D01*
X69809838Y-19325009D01*
X69809843Y-19325009D01*
X70031528Y-19280913D01*
X70282920Y-19112938D01*
X70325322Y-19049479D01*
X71639802Y-17735000D01*
X71805874Y-17735000D01*
X72186280Y-17577431D01*
X72477431Y-17286280D01*
X72635000Y-16905874D01*
X72635000Y-16494126D01*
X72477431Y-16113720D01*
X72186280Y-15822569D01*
X71805874Y-15665000D01*
X71709802Y-15665000D01*
X72084473Y-15290329D01*
X72147929Y-15247929D01*
X72315904Y-14996537D01*
X72360000Y-14774852D01*
X72360000Y-14774848D01*
X72374888Y-14700001D01*
X72360000Y-14625154D01*
X72360000Y-13928003D01*
X77372940Y-13928003D01*
X77400441Y-14490252D01*
X77562697Y-14881972D01*
X77806745Y-14953650D01*
X78620395Y-14140000D01*
X78979605Y-14140000D01*
X79793255Y-14953650D01*
X80037303Y-14881972D01*
X80227060Y-14351997D01*
X80199559Y-13789748D01*
X80037303Y-13398028D01*
X79793255Y-13326350D01*
X78979605Y-14140000D01*
X78620395Y-14140000D01*
X77806745Y-13326350D01*
X77562697Y-13398028D01*
X77372940Y-13928003D01*
X72360000Y-13928003D01*
X72360000Y-12303711D01*
X72477431Y-12186280D01*
X72635000Y-11805874D01*
X72635000Y-11394126D01*
X72477431Y-11013720D01*
X72186280Y-10722569D01*
X71805874Y-10565000D01*
X71394126Y-10565000D01*
X71013720Y-10722569D01*
X70722569Y-11013720D01*
X70565000Y-11394126D01*
X70565000Y-11805874D01*
X70722569Y-12186280D01*
X70840001Y-12303712D01*
X70840000Y-14385198D01*
X67885199Y-17340000D01*
X67274471Y-17340000D01*
X67274107Y-17339928D01*
X67200587Y-17340000D01*
X67125148Y-17340000D01*
X67124775Y-17340074D01*
X62519126Y-17344585D01*
X62577431Y-17286280D01*
X62735000Y-16905874D01*
X62735000Y-16494126D01*
X62577431Y-16113720D01*
X62286280Y-15822569D01*
X61905874Y-15665000D01*
X61494126Y-15665000D01*
X61474647Y-15673068D01*
X55607424Y-9805846D01*
X55558048Y-9731950D01*
X55265309Y-9536347D01*
X55007164Y-9484999D01*
X55007160Y-9484999D01*
X54919999Y-9467662D01*
X54832838Y-9484999D01*
X54755545Y-9484999D01*
X54815000Y-9341461D01*
X54815000Y-8778539D01*
X54599579Y-8258467D01*
X54201533Y-7860421D01*
X54031522Y-7790000D01*
X54201533Y-7719579D01*
X54599579Y-7321533D01*
X54815000Y-6801461D01*
X54815000Y-6238539D01*
X54599579Y-5718467D01*
X54201533Y-5320421D01*
X54031522Y-5250000D01*
X54201533Y-5179579D01*
X54599579Y-4781533D01*
X54815000Y-4261461D01*
X54815000Y-3698539D01*
X54599579Y-3178467D01*
X54201533Y-2780421D01*
X54031522Y-2710000D01*
X54201533Y-2639579D01*
X54599579Y-2241533D01*
X54815000Y-1721461D01*
X54815000Y-1158539D01*
X54639564Y-735000D01*
X77560436Y-735000D01*
X77385000Y-1158539D01*
G36*
X72985107Y-29504161D02*
X72865000Y-29794126D01*
X72865000Y-30205874D01*
X73022569Y-30586280D01*
X73313720Y-30877431D01*
X73414999Y-30919382D01*
X73415000Y-43852833D01*
X73397662Y-43939999D01*
X73466347Y-44285308D01*
X73612575Y-44504153D01*
X73612577Y-44504155D01*
X73661951Y-44578048D01*
X73735844Y-44627422D01*
X74731422Y-45623000D01*
X70922696Y-45623000D01*
X70877431Y-45513720D01*
X70586280Y-45222569D01*
X70205874Y-45065000D01*
X69794126Y-45065000D01*
X69413720Y-45222569D01*
X69122569Y-45513720D01*
X69077304Y-45623000D01*
X62185001Y-45623000D01*
X62185001Y-29999848D01*
X62199889Y-29925001D01*
X62185001Y-29850154D01*
X62185001Y-29850149D01*
X62140905Y-29628464D01*
X62054399Y-29498999D01*
X72959156Y-29498999D01*
X72985107Y-29504161D01*
X72985107Y-29504161D01*
G37*
X72985107Y-29504161D02*
X72865000Y-29794126D01*
X72865000Y-30205874D01*
X73022569Y-30586280D01*
X73313720Y-30877431D01*
X73414999Y-30919382D01*
X73415000Y-43852833D01*
X73397662Y-43939999D01*
X73466347Y-44285308D01*
X73612575Y-44504153D01*
X73612577Y-44504155D01*
X73661951Y-44578048D01*
X73735844Y-44627422D01*
X74731422Y-45623000D01*
X70922696Y-45623000D01*
X70877431Y-45513720D01*
X70586280Y-45222569D01*
X70205874Y-45065000D01*
X69794126Y-45065000D01*
X69413720Y-45222569D01*
X69122569Y-45513720D01*
X69077304Y-45623000D01*
X62185001Y-45623000D01*
X62185001Y-29999848D01*
X62199889Y-29925001D01*
X62185001Y-29850154D01*
X62185001Y-29850149D01*
X62140905Y-29628464D01*
X62054399Y-29498999D01*
X72959156Y-29498999D01*
X72985107Y-29504161D01*
G36*
X42365000Y-38265000D02*
X20855442Y-38265000D01*
X22760402Y-36360040D01*
X36870753Y-36360040D01*
X36945600Y-36374928D01*
X37020447Y-36360040D01*
X37020452Y-36360040D01*
X37242137Y-36315944D01*
X37493529Y-36147969D01*
X37535931Y-36084510D01*
X42365000Y-31255442D01*
X42365000Y-38265000D01*
X42365000Y-38265000D01*
G37*
X42365000Y-38265000D02*
X20855442Y-38265000D01*
X22760402Y-36360040D01*
X36870753Y-36360040D01*
X36945600Y-36374928D01*
X37020447Y-36360040D01*
X37020452Y-36360040D01*
X37242137Y-36315944D01*
X37493529Y-36147969D01*
X37535931Y-36084510D01*
X42365000Y-31255442D01*
X42365000Y-38265000D01*
G04 #@! TD*
M02*
