G04 #@! TF.GenerationSoftware,KiCad,Pcbnew,(5.0.0)*
G04 #@! TF.CreationDate,2019-02-18T14:00:49-08:00*
G04 #@! TF.ProjectId,mlab100_Base_Panel_1.6,6D6C61623130305F426173655F50616E,rev?*
G04 #@! TF.SameCoordinates,Original*
G04 #@! TF.FileFunction,Copper,L1,Top,Signal*
G04 #@! TF.FilePolarity,Positive*
%FSLAX46Y46*%
G04 Gerber Fmt 4.6, Leading zero omitted, Abs format (unit mm)*
G04 Created by KiCad (PCBNEW (5.0.0)) date 02/18/19 14:00:49*
%MOMM*%
%LPD*%
G01*
G04 APERTURE LIST*
G04 #@! TA.AperFunction,ComponentPad*
%ADD10R,1.560000X1.560000*%
G04 #@! TD*
G04 #@! TA.AperFunction,ComponentPad*
%ADD11C,1.560000*%
G04 #@! TD*
G04 #@! TA.AperFunction,ComponentPad*
%ADD12R,1.500000X2.500000*%
G04 #@! TD*
G04 #@! TA.AperFunction,ComponentPad*
%ADD13O,1.500000X2.500000*%
G04 #@! TD*
G04 #@! TA.AperFunction,SMDPad,CuDef*
%ADD14R,1.300000X1.500000*%
G04 #@! TD*
G04 #@! TA.AperFunction,ComponentPad*
%ADD15R,1.700000X1.700000*%
G04 #@! TD*
G04 #@! TA.AperFunction,ComponentPad*
%ADD16O,1.700000X1.700000*%
G04 #@! TD*
G04 #@! TA.AperFunction,SMDPad,CuDef*
%ADD17R,0.800000X1.900000*%
G04 #@! TD*
G04 #@! TA.AperFunction,SMDPad,CuDef*
%ADD18R,1.250000X1.500000*%
G04 #@! TD*
G04 #@! TA.AperFunction,ComponentPad*
%ADD19C,7.400000*%
G04 #@! TD*
G04 #@! TA.AperFunction,ComponentPad*
%ADD20R,3.500000X3.500000*%
G04 #@! TD*
G04 #@! TA.AperFunction,ViaPad*
%ADD21C,0.800000*%
G04 #@! TD*
G04 #@! TA.AperFunction,Conductor*
%ADD22C,1.000000*%
G04 #@! TD*
G04 #@! TA.AperFunction,Conductor*
%ADD23C,0.500000*%
G04 #@! TD*
G04 #@! TA.AperFunction,Conductor*
%ADD24C,0.250000*%
G04 #@! TD*
G04 #@! TA.AperFunction,Conductor*
%ADD25C,2.000000*%
G04 #@! TD*
G04 #@! TA.AperFunction,Conductor*
%ADD26C,0.200000*%
G04 #@! TD*
G04 APERTURE END LIST*
D10*
G04 #@! TO.P,U1,1*
G04 #@! TO.N,+3V3*
X77860000Y-46970000D03*
D11*
G04 #@! TO.P,U1,2*
G04 #@! TO.N,N/C*
X77860000Y-44430000D03*
G04 #@! TO.P,U1,19*
G04 #@! TO.N,+5V*
X77860000Y-1250000D03*
G04 #@! TO.P,U1,3*
G04 #@! TO.N,N/C*
X77860000Y-41890000D03*
G04 #@! TO.P,U1,4*
X77860000Y-39350000D03*
G04 #@! TO.P,U1,5*
G04 #@! TO.N,I34*
X77860000Y-36810000D03*
G04 #@! TO.P,U1,6*
G04 #@! TO.N,I35*
X77860000Y-34270000D03*
G04 #@! TO.P,U1,7*
G04 #@! TO.N,CTRL_Heater*
X77860000Y-31730000D03*
G04 #@! TO.P,U1,8*
G04 #@! TO.N,IO33*
X77860000Y-29190000D03*
G04 #@! TO.P,U1,9*
G04 #@! TO.N,LED_G*
X77860000Y-26650000D03*
G04 #@! TO.P,U1,10*
G04 #@! TO.N,LED_Y*
X77860000Y-24110000D03*
G04 #@! TO.P,U1,11*
G04 #@! TO.N,LED_R*
X77860000Y-21570000D03*
G04 #@! TO.P,U1,12*
G04 #@! TO.N,CTRL_3V3A*
X77860000Y-19030000D03*
G04 #@! TO.P,U1,13*
G04 #@! TO.N,CTRL_470nm*
X77860000Y-16490000D03*
G04 #@! TO.P,U1,14*
G04 #@! TO.N,GND*
X77860000Y-13950000D03*
G04 #@! TO.P,U1,15*
G04 #@! TO.N,N/C*
X77860000Y-11410000D03*
G04 #@! TO.P,U1,16*
X77860000Y-8870000D03*
G04 #@! TO.P,U1,17*
X77860000Y-6330000D03*
G04 #@! TO.P,U1,18*
X77860000Y-3790000D03*
G04 #@! TO.P,U1,20*
G04 #@! TO.N,GND*
X52460000Y-46970000D03*
G04 #@! TO.P,U1,21*
G04 #@! TO.N,SPI_MISO*
X52460000Y-44430000D03*
G04 #@! TO.P,U1,22*
G04 #@! TO.N,I2C_SCL*
X52460000Y-41890000D03*
G04 #@! TO.P,U1,23*
G04 #@! TO.N,N/C*
X52460000Y-39350000D03*
G04 #@! TO.P,U1,24*
X52460000Y-36810000D03*
G04 #@! TO.P,U1,25*
G04 #@! TO.N,I2C_SDA*
X52460000Y-34270000D03*
G04 #@! TO.P,U1,26*
G04 #@! TO.N,GND*
X52460000Y-31730000D03*
G04 #@! TO.P,U1,27*
G04 #@! TO.N,SPI_MOSI*
X52460000Y-29190000D03*
G04 #@! TO.P,U1,28*
G04 #@! TO.N,SPI_SCL*
X52460000Y-26650000D03*
G04 #@! TO.P,U1,29*
G04 #@! TO.N,SPI_CS_ADC*
X52460000Y-24110000D03*
G04 #@! TO.P,U1,30*
G04 #@! TO.N,IO17*
X52460000Y-21570000D03*
G04 #@! TO.P,U1,31*
G04 #@! TO.N,IO16*
X52460000Y-19030000D03*
G04 #@! TO.P,U1,32*
G04 #@! TO.N,IO4*
X52460000Y-16490000D03*
G04 #@! TO.P,U1,33*
G04 #@! TO.N,IO0*
X52460000Y-13950000D03*
G04 #@! TO.P,U1,34*
G04 #@! TO.N,IO2*
X52460000Y-11410000D03*
G04 #@! TO.P,U1,35*
G04 #@! TO.N,TEMP1W*
X52460000Y-8870000D03*
G04 #@! TO.P,U1,36*
G04 #@! TO.N,N/C*
X52460000Y-6330000D03*
G04 #@! TO.P,U1,37*
X52460000Y-3790000D03*
G04 #@! TO.P,U1,38*
X52460000Y-1250000D03*
G04 #@! TD*
D12*
G04 #@! TO.P,U2,1*
G04 #@! TO.N,+12V*
X53100000Y-63300000D03*
D13*
G04 #@! TO.P,U2,2*
G04 #@! TO.N,GND*
X55640000Y-63300000D03*
G04 #@! TO.P,U2,3*
G04 #@! TO.N,+5V*
X58180000Y-63300000D03*
G04 #@! TD*
D14*
G04 #@! TO.P,R5,2*
G04 #@! TO.N,+5V*
X23750000Y-70900000D03*
G04 #@! TO.P,R5,1*
G04 #@! TO.N,Net-(D3-Pad2)*
X23750000Y-73600000D03*
G04 #@! TD*
G04 #@! TO.P,R7,2*
G04 #@! TO.N,+5V*
X15250000Y-70900000D03*
G04 #@! TO.P,R7,1*
G04 #@! TO.N,Net-(D6-Pad2)*
X15250000Y-73600000D03*
G04 #@! TD*
D15*
G04 #@! TO.P,J1,1*
G04 #@! TO.N,GND*
X85900000Y-53200000D03*
D16*
G04 #@! TO.P,J1,2*
G04 #@! TO.N,+3V3*
X85900000Y-55740000D03*
G04 #@! TO.P,J1,3*
G04 #@! TO.N,+5V*
X85900000Y-58280000D03*
G04 #@! TO.P,J1,4*
G04 #@! TO.N,+12V*
X85900000Y-60820000D03*
G04 #@! TD*
D17*
G04 #@! TO.P,Q6,1*
G04 #@! TO.N,Net-(Q6-Pad1)*
X19450000Y-65500000D03*
G04 #@! TO.P,Q6,2*
G04 #@! TO.N,GND*
X17550000Y-65500000D03*
G04 #@! TO.P,Q6,3*
G04 #@! TO.N,Net-(D7-Pad1)*
X18500000Y-68500000D03*
G04 #@! TD*
G04 #@! TO.P,Q2,1*
G04 #@! TO.N,Net-(Q2-Pad1)*
X23700000Y-65500000D03*
G04 #@! TO.P,Q2,2*
G04 #@! TO.N,GND*
X21800000Y-65500000D03*
G04 #@! TO.P,Q2,3*
G04 #@! TO.N,Net-(D3-Pad1)*
X22750000Y-68500000D03*
G04 #@! TD*
D15*
G04 #@! TO.P,J5,1*
G04 #@! TO.N,I34*
X75000000Y-74200000D03*
D16*
G04 #@! TO.P,J5,2*
G04 #@! TO.N,I35*
X72460000Y-74200000D03*
G04 #@! TO.P,J5,3*
G04 #@! TO.N,IO33*
X69920000Y-74200000D03*
G04 #@! TO.P,J5,4*
G04 #@! TO.N,IO2*
X67380000Y-74200000D03*
G04 #@! TO.P,J5,5*
G04 #@! TO.N,IO0*
X64840000Y-74200000D03*
G04 #@! TO.P,J5,6*
G04 #@! TO.N,IO4*
X62300000Y-74200000D03*
G04 #@! TO.P,J5,7*
G04 #@! TO.N,IO16*
X59760000Y-74200000D03*
G04 #@! TO.P,J5,8*
G04 #@! TO.N,IO17*
X57220000Y-74200000D03*
G04 #@! TD*
D17*
G04 #@! TO.P,Q4,1*
G04 #@! TO.N,Net-(Q4-Pad1)*
X15200000Y-65500000D03*
G04 #@! TO.P,Q4,2*
G04 #@! TO.N,GND*
X13300000Y-65500000D03*
G04 #@! TO.P,Q4,3*
G04 #@! TO.N,Net-(D6-Pad1)*
X14250000Y-68500000D03*
G04 #@! TD*
D18*
G04 #@! TO.P,C4,1*
G04 #@! TO.N,+5V*
X45600000Y-60100000D03*
G04 #@! TO.P,C4,2*
G04 #@! TO.N,GND*
X45600000Y-57600000D03*
G04 #@! TD*
G04 #@! TO.P,C3,2*
G04 #@! TO.N,GND*
X48200000Y-57700000D03*
G04 #@! TO.P,C3,1*
G04 #@! TO.N,+5V*
X48200000Y-60200000D03*
G04 #@! TD*
D14*
G04 #@! TO.P,R9,2*
G04 #@! TO.N,+5V*
X19500000Y-70900000D03*
G04 #@! TO.P,R9,1*
G04 #@! TO.N,Net-(D7-Pad2)*
X19500000Y-73600000D03*
G04 #@! TD*
D15*
G04 #@! TO.P,J7,1*
G04 #@! TO.N,GND*
X75000000Y-66200000D03*
D16*
G04 #@! TO.P,J7,2*
G04 #@! TO.N,I2C_SDA*
X72460000Y-66200000D03*
G04 #@! TO.P,J7,3*
G04 #@! TO.N,I2C_SCL*
X69920000Y-66200000D03*
G04 #@! TO.P,J7,4*
G04 #@! TO.N,+3V3*
X67380000Y-66200000D03*
G04 #@! TD*
G04 #@! TO.P,J2,12*
G04 #@! TO.N,+5V*
X20100000Y-31350000D03*
G04 #@! TO.P,J2,11*
G04 #@! TO.N,CTRL_Heater*
X17560000Y-31350000D03*
G04 #@! TO.P,J2,10*
G04 #@! TO.N,SPI_CS_ADC*
X20100000Y-28810000D03*
G04 #@! TO.P,J2,9*
G04 #@! TO.N,GND*
X17560000Y-28810000D03*
G04 #@! TO.P,J2,8*
G04 #@! TO.N,SPI_MOSI*
X20100000Y-26270000D03*
G04 #@! TO.P,J2,7*
G04 #@! TO.N,SPI_MISO*
X17560000Y-26270000D03*
G04 #@! TO.P,J2,6*
G04 #@! TO.N,CTRL_3V3A*
X20100000Y-23730000D03*
G04 #@! TO.P,J2,5*
G04 #@! TO.N,SPI_SCL*
X17560000Y-23730000D03*
G04 #@! TO.P,J2,4*
G04 #@! TO.N,+3V3*
X20100000Y-21190000D03*
G04 #@! TO.P,J2,3*
G04 #@! TO.N,TEMP1W*
X17560000Y-21190000D03*
G04 #@! TO.P,J2,2*
G04 #@! TO.N,+12V*
X20100000Y-18650000D03*
D15*
G04 #@! TO.P,J2,1*
G04 #@! TO.N,CTRL_470nm*
X17560000Y-18650000D03*
G04 #@! TD*
G04 #@! TO.P,J6,1*
G04 #@! TO.N,GND*
X75000000Y-70200000D03*
D16*
G04 #@! TO.P,J6,2*
G04 #@! TO.N,SPI_CS_ADC*
X72460000Y-70200000D03*
G04 #@! TO.P,J6,3*
G04 #@! TO.N,SPI_MISO*
X69920000Y-70200000D03*
G04 #@! TO.P,J6,4*
G04 #@! TO.N,SPI_MOSI*
X67380000Y-70200000D03*
G04 #@! TO.P,J6,5*
G04 #@! TO.N,SPI_SCL*
X64840000Y-70200000D03*
G04 #@! TO.P,J6,6*
G04 #@! TO.N,+3V3*
X62300000Y-70200000D03*
G04 #@! TD*
D14*
G04 #@! TO.P,D3,1*
G04 #@! TO.N,Net-(D3-Pad1)*
X21750000Y-70900000D03*
G04 #@! TO.P,D3,2*
G04 #@! TO.N,Net-(D3-Pad2)*
X21750000Y-73600000D03*
G04 #@! TD*
G04 #@! TO.P,D6,2*
G04 #@! TO.N,Net-(D6-Pad2)*
X13250000Y-73600000D03*
G04 #@! TO.P,D6,1*
G04 #@! TO.N,Net-(D6-Pad1)*
X13250000Y-70900000D03*
G04 #@! TD*
G04 #@! TO.P,D7,1*
G04 #@! TO.N,Net-(D7-Pad1)*
X17500000Y-70900000D03*
G04 #@! TO.P,D7,2*
G04 #@! TO.N,Net-(D7-Pad2)*
X17500000Y-73600000D03*
G04 #@! TD*
D19*
G04 #@! TO.P,MH1,1*
G04 #@! TO.N,N/C*
X5080000Y-5080000D03*
G04 #@! TD*
G04 #@! TO.P,MH2,1*
G04 #@! TO.N,N/C*
X5080000Y-71120000D03*
G04 #@! TD*
G04 #@! TO.P,MH3,1*
G04 #@! TO.N,N/C*
X83820000Y-71120000D03*
G04 #@! TD*
G04 #@! TO.P,MH4,1*
G04 #@! TO.N,N/C*
X83820000Y-5080000D03*
G04 #@! TD*
G04 #@! TO.P,MH5,1*
G04 #@! TO.N,N/C*
X38856400Y-33000000D03*
G04 #@! TD*
G04 #@! TO.P,MH6,1*
G04 #@! TO.N,N/C*
X11143600Y-33000000D03*
G04 #@! TD*
G04 #@! TO.P,MH7,1*
G04 #@! TO.N,N/C*
X25000000Y-9000000D03*
G04 #@! TD*
D14*
G04 #@! TO.P,R4,1*
G04 #@! TO.N,LED_G*
X23750000Y-60400000D03*
G04 #@! TO.P,R4,2*
G04 #@! TO.N,Net-(Q2-Pad1)*
X23750000Y-63100000D03*
G04 #@! TD*
G04 #@! TO.P,R6,2*
G04 #@! TO.N,Net-(Q4-Pad1)*
X15250000Y-63100000D03*
G04 #@! TO.P,R6,1*
G04 #@! TO.N,LED_R*
X15250000Y-60400000D03*
G04 #@! TD*
G04 #@! TO.P,R8,1*
G04 #@! TO.N,LED_Y*
X19500000Y-60400000D03*
G04 #@! TO.P,R8,2*
G04 #@! TO.N,Net-(Q6-Pad1)*
X19500000Y-63100000D03*
G04 #@! TD*
D20*
G04 #@! TO.P,J4,3*
G04 #@! TO.N,N/C*
X49600000Y-70000000D03*
G04 #@! TO.P,J4,2*
G04 #@! TO.N,GND*
X44900000Y-73000000D03*
G04 #@! TO.P,J4,1*
G04 #@! TO.N,+12V*
X44900000Y-67000000D03*
G04 #@! TD*
D14*
G04 #@! TO.P,D1,2*
G04 #@! TO.N,Net-(D1-Pad2)*
X32000000Y-71150000D03*
G04 #@! TO.P,D1,1*
G04 #@! TO.N,GND*
X32000000Y-73850000D03*
G04 #@! TD*
G04 #@! TO.P,D2,1*
G04 #@! TO.N,GND*
X34025001Y-73850000D03*
G04 #@! TO.P,D2,2*
G04 #@! TO.N,Net-(D2-Pad2)*
X34025001Y-71150000D03*
G04 #@! TD*
G04 #@! TO.P,D4,2*
G04 #@! TO.N,Net-(D4-Pad2)*
X36000000Y-71150000D03*
G04 #@! TO.P,D4,1*
G04 #@! TO.N,GND*
X36000000Y-73850000D03*
G04 #@! TD*
G04 #@! TO.P,R1,2*
G04 #@! TO.N,+12V*
X32000000Y-66150000D03*
G04 #@! TO.P,R1,1*
G04 #@! TO.N,Net-(D1-Pad2)*
X32000000Y-68850000D03*
G04 #@! TD*
G04 #@! TO.P,R2,1*
G04 #@! TO.N,Net-(D2-Pad2)*
X34000000Y-68850000D03*
G04 #@! TO.P,R2,2*
G04 #@! TO.N,+5V*
X34000000Y-66150000D03*
G04 #@! TD*
G04 #@! TO.P,R3,2*
G04 #@! TO.N,+3V3*
X36000000Y-66150000D03*
G04 #@! TO.P,R3,1*
G04 #@! TO.N,Net-(D4-Pad2)*
X36000000Y-68850000D03*
G04 #@! TD*
D21*
G04 #@! TO.N,+5V*
X26750000Y-62500000D03*
G04 #@! TO.N,GND*
X47600000Y-6600000D03*
X70300000Y-34300000D03*
X83800000Y-47100000D03*
X83900000Y-38600000D03*
X83500000Y-28700000D03*
X83400000Y-21200000D03*
X62800000Y-14100000D03*
X58300000Y-8100000D03*
X68200000Y-4300000D03*
X73500000Y-6700000D03*
X16490000Y-5000000D03*
X26850000Y-16700000D03*
X4400000Y-11400000D03*
X2400000Y-36100000D03*
X3200000Y-66200000D03*
X26980000Y-67730000D03*
X38250000Y-64750000D03*
X38500000Y-73000000D03*
X86090000Y-66130000D03*
X79300000Y-73700000D03*
X65200000Y-25800000D03*
X62800000Y-23100000D03*
X15400000Y-25300000D03*
X11000000Y-38200000D03*
X8750000Y-61000000D03*
X14200000Y-58700000D03*
X55700000Y-67000000D03*
X52870000Y-72210000D03*
X87500000Y-62500000D03*
X59200000Y-26150000D03*
X47840000Y-17660000D03*
X38030000Y-17600000D03*
X73060000Y-42130000D03*
X36230000Y-24360000D03*
X12970000Y-15650000D03*
X34980000Y-4430000D03*
X3750000Y-45000000D03*
X15750000Y-47250000D03*
X48219130Y-54519990D03*
X71010000Y-16510000D03*
X60002639Y-18737726D03*
X60350000Y-27270000D03*
X83110000Y-51340000D03*
X78200000Y-66110000D03*
X56882340Y-32097660D03*
X5700000Y-24700000D03*
X21750000Y-63000000D03*
X21000000Y-56250000D03*
X17250000Y-63500000D03*
X17500000Y-58750000D03*
X28500000Y-73250000D03*
X46500000Y-31250000D03*
X46000000Y-42750000D03*
X33500000Y-43750000D03*
X29000000Y-33000000D03*
X43250000Y-57750000D03*
X40250000Y-57750000D03*
X63710000Y-41540000D03*
X75290000Y-33260000D03*
X80400000Y-12600000D03*
X86580000Y-10850000D03*
X83440000Y-57650000D03*
X78520000Y-60710000D03*
X76540000Y-60630000D03*
X10050000Y-73470000D03*
X55670000Y-68310000D03*
X49530000Y-66294000D03*
X50500000Y-61500000D03*
G04 #@! TO.N,CTRL_3V3A*
X56640000Y-22530000D03*
X60530000Y-20900000D03*
G04 #@! TO.N,SPI_CS_ADC*
X64130000Y-66710000D03*
X54240000Y-26140000D03*
X50040000Y-26350000D03*
G04 #@! TO.N,SPI_SCL*
X61390000Y-68180000D03*
G04 #@! TO.N,+3V3*
X50930000Y-55620000D03*
X25750000Y-61250000D03*
X63000000Y-60250000D03*
X27770000Y-63240000D03*
G04 #@! TO.N,TEMP1W*
X49620000Y-21000000D03*
G04 #@! TO.N,I2C_SCL*
X73820000Y-61440000D03*
X49630000Y-56760000D03*
G04 #@! TO.N,I2C_SDA*
X74870000Y-61420000D03*
X50410000Y-57460000D03*
G04 #@! TO.N,+12V*
X32000000Y-66150000D03*
G04 #@! TO.N,IO0*
X59262721Y-46162730D03*
G04 #@! TO.N,IO2*
X59912653Y-44587347D03*
G04 #@! TO.N,IO4*
X58605551Y-45408972D03*
G04 #@! TO.N,IO16*
X57913046Y-44687543D03*
G04 #@! TO.N,IO17*
X57200000Y-43900000D03*
G04 #@! TO.N,IO33*
X79400000Y-57000000D03*
G04 #@! TO.N,I34*
X81600000Y-57000000D03*
G04 #@! TO.N,I35*
X80500000Y-57000000D03*
G04 #@! TO.N,CTRL_Heater*
X48600000Y-24910000D03*
G04 #@! TO.N,CTRL_470nm*
X61220000Y-19630000D03*
X50750000Y-20500000D03*
G04 #@! TO.N,SPI_MOSI*
X62709778Y-68114329D03*
X59990000Y-41770000D03*
X59760000Y-40130000D03*
G04 #@! TO.N,SPI_MISO*
X63383147Y-67375007D03*
X61040000Y-41460000D03*
X59740000Y-38950000D03*
G04 #@! TD*
D22*
G04 #@! TO.N,+5V*
X58180000Y-60930000D02*
X58180000Y-63300000D01*
X51100000Y-60200000D02*
X57450000Y-60200000D01*
X57450000Y-60200000D02*
X58180000Y-60930000D01*
X59930000Y-63300000D02*
X60640000Y-62590000D01*
X58180000Y-63300000D02*
X59930000Y-63300000D01*
X60640000Y-62590000D02*
X82440000Y-62590000D01*
X82440000Y-62590000D02*
X83940000Y-61090000D01*
X83940000Y-60240000D02*
X85900000Y-58280000D01*
X83940000Y-61090000D02*
X83940000Y-60240000D01*
X29050000Y-60200000D02*
X26750000Y-62500000D01*
X30030000Y-60200000D02*
X29050000Y-60200000D01*
X30030000Y-60200000D02*
X51100000Y-60200000D01*
D23*
X15250000Y-69650000D02*
X17900000Y-67000000D01*
X15250000Y-70900000D02*
X15250000Y-69650000D01*
X26750000Y-63065685D02*
X26750000Y-62500000D01*
X26750000Y-64610002D02*
X26750000Y-63065685D01*
X24360002Y-67000000D02*
X26750000Y-64610002D01*
X22150000Y-67000000D02*
X23000000Y-67000000D01*
X19500000Y-69650000D02*
X22150000Y-67000000D01*
X19500000Y-70900000D02*
X19500000Y-69650000D01*
X17900000Y-67000000D02*
X23000000Y-67000000D01*
X23000000Y-67000000D02*
X24360002Y-67000000D01*
X23750000Y-67610002D02*
X24360002Y-67000000D01*
X23750000Y-70900000D02*
X23750000Y-67610002D01*
D24*
X33460002Y-64610002D02*
X26750000Y-64610002D01*
X34000000Y-65150000D02*
X33460002Y-64610002D01*
X34000000Y-66150000D02*
X34000000Y-65150000D01*
D25*
G04 #@! TO.N,GND*
X50220000Y-46970000D02*
X46000000Y-42750000D01*
X52460000Y-46970000D02*
X50220000Y-46970000D01*
D24*
G04 #@! TO.N,Net-(D3-Pad2)*
X23750000Y-73600000D02*
X21750000Y-73600000D01*
G04 #@! TO.N,Net-(D3-Pad1)*
X22100000Y-68500000D02*
X22750000Y-68500000D01*
X21750000Y-68850000D02*
X22100000Y-68500000D01*
X21750000Y-70900000D02*
X21750000Y-68850000D01*
G04 #@! TO.N,Net-(D6-Pad2)*
X15250000Y-73600000D02*
X13250000Y-73600000D01*
G04 #@! TO.N,Net-(D6-Pad1)*
X13600000Y-68500000D02*
X14250000Y-68500000D01*
X13250000Y-68850000D02*
X13600000Y-68500000D01*
X13250000Y-70900000D02*
X13250000Y-68850000D01*
G04 #@! TO.N,Net-(D7-Pad1)*
X17850000Y-68500000D02*
X18500000Y-68500000D01*
X17500000Y-68850000D02*
X17850000Y-68500000D01*
X17500000Y-70900000D02*
X17500000Y-68850000D01*
G04 #@! TO.N,Net-(D7-Pad2)*
X19500000Y-73600000D02*
X17500000Y-73600000D01*
D26*
G04 #@! TO.N,CTRL_3V3A*
X56329999Y-22840001D02*
X56640000Y-22530000D01*
X62775685Y-19220000D02*
X77696914Y-19220000D01*
X61095685Y-20900000D02*
X62775685Y-19220000D01*
X60530000Y-20900000D02*
X61095685Y-20900000D01*
X56240001Y-22929999D02*
X56640000Y-22530000D01*
X56140001Y-23029999D02*
X56240001Y-22929999D01*
X50629999Y-23029999D02*
X56140001Y-23029999D01*
X48440000Y-20840000D02*
X50629999Y-23029999D01*
X22990000Y-20840000D02*
X48440000Y-20840000D01*
X20100000Y-23730000D02*
X22990000Y-20840000D01*
D24*
G04 #@! TO.N,SPI_CS_ADC*
X70170000Y-67910000D02*
X67860000Y-67910000D01*
X72460000Y-70200000D02*
X70170000Y-67910000D01*
X67860000Y-67910000D02*
X64840000Y-67910000D01*
X64840000Y-67420000D02*
X64130000Y-66710000D01*
X64840000Y-67910000D02*
X64840000Y-67420000D01*
X52460000Y-24360000D02*
X52460000Y-24110000D01*
X54240000Y-26140000D02*
X52460000Y-24360000D01*
D26*
X20100000Y-28810000D02*
X20949999Y-27960001D01*
X20949999Y-27960001D02*
X26460000Y-22450000D01*
X26460000Y-22450000D02*
X47270000Y-22450000D01*
X47270000Y-22450000D02*
X50040000Y-25220000D01*
X50040000Y-25220000D02*
X50040000Y-26350000D01*
D24*
G04 #@! TO.N,SPI_SCL*
X64840000Y-70200000D02*
X63990001Y-69350001D01*
X63990001Y-69350001D02*
X63257017Y-69350001D01*
X63257017Y-69350001D02*
X62746347Y-68839331D01*
X62049331Y-68839331D02*
X62380000Y-68839331D01*
X61390000Y-68180000D02*
X62049331Y-68839331D01*
X62746347Y-68839331D02*
X62380000Y-68839331D01*
X62380000Y-68839331D02*
X62020571Y-68839331D01*
D26*
X52460000Y-25910000D02*
X52460000Y-26650000D01*
X47800000Y-21250000D02*
X52460000Y-25910000D01*
X24370000Y-21250000D02*
X47800000Y-21250000D01*
X20739999Y-24880001D02*
X24370000Y-21250000D01*
X17560000Y-23730000D02*
X18710001Y-24880001D01*
X18710001Y-24880001D02*
X20739999Y-24880001D01*
D22*
G04 #@! TO.N,+3V3*
X50930000Y-55620000D02*
X53060000Y-55620000D01*
X31380000Y-55620000D02*
X50930000Y-55620000D01*
X25750000Y-61250000D02*
X31380000Y-55620000D01*
X53060000Y-55620000D02*
X56120000Y-55620000D01*
X56120000Y-55620000D02*
X60750000Y-60250000D01*
X60750000Y-60250000D02*
X63000000Y-60250000D01*
D24*
X33190000Y-63240000D02*
X27770000Y-63240000D01*
X36000000Y-66150000D02*
X36000000Y-66050000D01*
X36000000Y-66050000D02*
X33190000Y-63240000D01*
D26*
G04 #@! TO.N,TEMP1W*
X18710001Y-22340001D02*
X20769999Y-22340001D01*
X17560000Y-21190000D02*
X18710001Y-22340001D01*
X20769999Y-22340001D02*
X22670000Y-20440000D01*
X49060000Y-20440000D02*
X49620000Y-21000000D01*
X22670000Y-20440000D02*
X49060000Y-20440000D01*
D24*
G04 #@! TO.N,I2C_SCL*
X49310000Y-57996411D02*
X49310000Y-57990000D01*
X57780011Y-59360011D02*
X50673600Y-59360011D01*
X50673600Y-59360011D02*
X49310000Y-57996411D01*
X60180000Y-61760000D02*
X57780011Y-59360011D01*
X72934315Y-61760000D02*
X60180000Y-61760000D01*
X73254315Y-61440000D02*
X72934315Y-61760000D01*
X73820000Y-61440000D02*
X73254315Y-61440000D01*
X49310000Y-57996411D02*
X49310000Y-57080000D01*
X49310000Y-57080000D02*
X49630000Y-56760000D01*
G04 #@! TO.N,I2C_SDA*
X50410000Y-58460000D02*
X50410000Y-57460000D01*
X50860000Y-58910000D02*
X50410000Y-58460000D01*
X57970000Y-58910000D02*
X50860000Y-58910000D01*
X60340000Y-61280000D02*
X57970000Y-58910000D01*
X74870000Y-61420000D02*
X74470001Y-61020001D01*
X74470001Y-61020001D02*
X74470001Y-60750001D01*
X74470001Y-60750001D02*
X74390000Y-60670000D01*
X74390000Y-60670000D02*
X73320000Y-60670000D01*
X73320000Y-60670000D02*
X72710000Y-61280000D01*
X72710000Y-61280000D02*
X60340000Y-61280000D01*
D22*
G04 #@! TO.N,+12V*
X53100000Y-63800000D02*
X53100000Y-63300000D01*
X67587059Y-63790011D02*
X65827070Y-65550000D01*
X54850000Y-65550000D02*
X53100000Y-63800000D01*
X82937060Y-63790011D02*
X67587059Y-63790011D01*
X85900000Y-60820000D02*
X85900000Y-60827071D01*
X65827070Y-65550000D02*
X54850000Y-65550000D01*
X85900000Y-60827071D02*
X82937060Y-63790011D01*
D25*
X48600000Y-63300000D02*
X44900000Y-67000000D01*
X53100000Y-63300000D02*
X48600000Y-63300000D01*
D24*
G04 #@! TO.N,IO0*
X63050029Y-25990770D02*
X63050028Y-25940798D01*
X63100000Y-25990770D02*
X63050028Y-25940798D01*
X63100000Y-25990770D02*
X63050029Y-25990770D01*
X63050028Y-25940798D02*
X57525021Y-20415791D01*
X54740000Y-17630770D02*
X57525021Y-20415791D01*
X54740000Y-15480000D02*
X54740000Y-17630770D01*
X53140000Y-13950000D02*
X53240000Y-14050000D01*
X52460000Y-13950000D02*
X53140000Y-13950000D01*
X53310000Y-14050000D02*
X54740000Y-15480000D01*
X53240000Y-14050000D02*
X53310000Y-14050000D01*
X59662720Y-45362720D02*
X59662720Y-45762731D01*
X58550030Y-36259200D02*
X58550030Y-42477210D01*
X59100020Y-44800020D02*
X59662720Y-45362720D01*
X59662720Y-45762731D02*
X59262721Y-46162730D01*
X59100020Y-43027200D02*
X59100020Y-44800020D01*
X58550030Y-42477210D02*
X59100020Y-43027200D01*
X63100000Y-31709229D02*
X58550030Y-36259200D01*
X63100000Y-25990770D02*
X63100000Y-31709229D01*
G04 #@! TO.N,IO2*
X59000040Y-42290810D02*
X59912653Y-43203423D01*
X55200000Y-17454360D02*
X63550010Y-25804370D01*
X63550010Y-25804370D02*
X63550009Y-31895630D01*
X59912653Y-43203423D02*
X59912653Y-44587347D01*
X63550009Y-31895630D02*
X59000040Y-36445599D01*
X59000040Y-36445599D02*
X59000040Y-42290810D01*
X55200000Y-13046914D02*
X55200000Y-13510000D01*
X53563086Y-11410000D02*
X55200000Y-13046914D01*
X52460000Y-11410000D02*
X53563086Y-11410000D01*
X55200000Y-13400000D02*
X55200000Y-13510000D01*
X55200000Y-13510000D02*
X55200000Y-17454360D01*
G04 #@! TO.N,IO4*
X52460000Y-16490000D02*
X52970000Y-16490000D01*
X54302820Y-17822820D02*
X54302820Y-17830000D01*
X52970000Y-16490000D02*
X54302820Y-17822820D01*
X54179999Y-17707179D02*
X54302820Y-17830000D01*
X62600019Y-26127199D02*
X62600019Y-31572799D01*
X58100020Y-36072800D02*
X58100020Y-42663610D01*
X62600019Y-31572799D02*
X58100020Y-36072800D01*
X58650010Y-43213600D02*
X58650010Y-45364513D01*
X58650010Y-45364513D02*
X58605551Y-45408972D01*
X54302820Y-17830000D02*
X62600019Y-26127199D01*
X58100020Y-42663610D02*
X58650010Y-43213600D01*
G04 #@! TO.N,IO16*
X62150010Y-31386400D02*
X57650010Y-35886400D01*
X58200000Y-43834904D02*
X57913046Y-44121858D01*
X57913046Y-44121858D02*
X57913046Y-44687543D01*
X62150009Y-26313599D02*
X62150010Y-31386400D01*
X58200000Y-43400000D02*
X58200000Y-43834904D01*
X57650010Y-42850010D02*
X58200000Y-43400000D01*
X57650010Y-35886400D02*
X57650010Y-42850010D01*
X54866410Y-19030000D02*
X62150009Y-26313599D01*
X52460000Y-19030000D02*
X54866410Y-19030000D01*
G04 #@! TO.N,IO17*
X56770000Y-21570000D02*
X52460000Y-21570000D01*
X61700000Y-26500000D02*
X56770000Y-21570000D01*
X61700000Y-31200000D02*
X61700000Y-26500000D01*
X57200000Y-43900000D02*
X57200000Y-35700000D01*
X57200000Y-35700000D02*
X61700000Y-31200000D01*
G04 #@! TO.N,IO33*
X79400000Y-46364998D02*
X79400000Y-57000000D01*
X78900001Y-45864999D02*
X79400000Y-46364998D01*
X77484999Y-45864999D02*
X78900001Y-45864999D01*
X76304988Y-41021422D02*
X76304988Y-44684988D01*
X76304988Y-44684988D02*
X77484999Y-45864999D01*
X76400009Y-40013599D02*
X76400009Y-40926401D01*
X76400009Y-40926401D02*
X76304988Y-41021422D01*
X76304988Y-39918578D02*
X76400009Y-40013599D01*
X78965001Y-30295001D02*
X78965001Y-32254999D01*
X77860000Y-29190000D02*
X78965001Y-30295001D01*
X78965001Y-32254999D02*
X78055001Y-33164999D01*
X78055001Y-33164999D02*
X77329599Y-33164999D01*
X77329599Y-33164999D02*
X76304988Y-34189610D01*
X76304988Y-34189610D02*
X76304988Y-39918578D01*
G04 #@! TO.N,I34*
X80310000Y-55370000D02*
X80310000Y-44600000D01*
X80310000Y-44600000D02*
X79400000Y-43690000D01*
X79400000Y-38350000D02*
X77860000Y-36810000D01*
X79400000Y-43690000D02*
X79400000Y-38350000D01*
X81200001Y-56260001D02*
X80310000Y-55370000D01*
X81200001Y-56600001D02*
X81200001Y-56260001D01*
X81600000Y-57000000D02*
X81200001Y-56600001D01*
G04 #@! TO.N,I35*
X76850020Y-41112801D02*
X76850020Y-39827199D01*
X76754999Y-35375001D02*
X77080001Y-35049999D01*
X76754999Y-41207822D02*
X76850020Y-41112801D01*
X79859989Y-44794587D02*
X78135402Y-43070000D01*
X76754999Y-42420401D02*
X76754999Y-41207822D01*
X80500000Y-57000000D02*
X79859989Y-56359989D01*
X78135402Y-43070000D02*
X77404598Y-43070000D01*
X76754999Y-39732178D02*
X76754999Y-35375001D01*
X77080001Y-35049999D02*
X77860000Y-34270000D01*
X79859989Y-56359989D02*
X79859989Y-44794587D01*
X77404598Y-43070000D02*
X76754999Y-42420401D01*
X76850020Y-39827199D02*
X76754999Y-39732178D01*
D26*
G04 #@! TO.N,CTRL_Heater*
X18710001Y-30199999D02*
X20340001Y-30199999D01*
X17560000Y-31350000D02*
X18710001Y-30199999D01*
X20340001Y-30199999D02*
X27680000Y-22860000D01*
X27680000Y-22860000D02*
X46550000Y-22860000D01*
X46550000Y-22860000D02*
X48600000Y-24910000D01*
D24*
G04 #@! TO.N,LED_G*
X77860000Y-26650000D02*
X72660000Y-31850000D01*
X72660000Y-31850000D02*
X72660000Y-36370000D01*
X72660000Y-36370000D02*
X59630000Y-49400000D01*
X59630000Y-49400000D02*
X26530000Y-49400000D01*
X23750000Y-52180000D02*
X23750000Y-60400000D01*
X26530000Y-49400000D02*
X23750000Y-52180000D01*
G04 #@! TO.N,LED_R*
X15250000Y-59400000D02*
X26150000Y-48500000D01*
X15250000Y-60400000D02*
X15250000Y-59400000D01*
X26150000Y-48500000D02*
X59250000Y-48500000D01*
X59250000Y-48500000D02*
X71750000Y-36000000D01*
X71750000Y-27680000D02*
X77860000Y-21570000D01*
X71750000Y-36000000D02*
X71750000Y-27680000D01*
G04 #@! TO.N,LED_Y*
X19500000Y-60400000D02*
X19500000Y-55790000D01*
X19500000Y-55790000D02*
X26340000Y-48950000D01*
X26340000Y-48950000D02*
X59440000Y-48950000D01*
X59440000Y-48950000D02*
X72210000Y-36180000D01*
X72210000Y-29760000D02*
X77860000Y-24110000D01*
X72210000Y-36180000D02*
X72210000Y-29760000D01*
G04 #@! TO.N,Net-(Q2-Pad1)*
X23700000Y-63150000D02*
X23750000Y-63100000D01*
X23700000Y-65500000D02*
X23700000Y-63150000D01*
G04 #@! TO.N,Net-(Q4-Pad1)*
X15200000Y-63150000D02*
X15250000Y-63100000D01*
X15200000Y-65500000D02*
X15200000Y-63150000D01*
G04 #@! TO.N,Net-(Q6-Pad1)*
X19450000Y-63150000D02*
X19500000Y-63100000D01*
X19450000Y-65500000D02*
X19450000Y-63150000D01*
D26*
G04 #@! TO.N,CTRL_470nm*
X62169999Y-19230001D02*
X62590000Y-18810000D01*
X61220000Y-19630000D02*
X61619999Y-19230001D01*
X61619999Y-19230001D02*
X62169999Y-19230001D01*
X50289999Y-20039999D02*
X50750000Y-20500000D01*
X17899999Y-20039999D02*
X50289999Y-20039999D01*
X17560000Y-18650000D02*
X17560000Y-19700000D01*
X17560000Y-19700000D02*
X17899999Y-20039999D01*
X75540000Y-18810000D02*
X77860000Y-16490000D01*
X74840000Y-18810000D02*
X75540000Y-18810000D01*
X62590000Y-18810000D02*
X74840000Y-18810000D01*
G04 #@! TO.N,SPI_MOSI*
X50090000Y-24130000D02*
X51380000Y-25420000D01*
X51380000Y-25420000D02*
X51380000Y-27360000D01*
X51380000Y-28110000D02*
X52460000Y-29190000D01*
X51380000Y-25420000D02*
X51380000Y-28110000D01*
D24*
X63425449Y-68830000D02*
X63109777Y-68514328D01*
X63109777Y-68514328D02*
X62709778Y-68114329D01*
X66010000Y-68830000D02*
X63425449Y-68830000D01*
X67380000Y-70200000D02*
X66010000Y-68830000D01*
X59990000Y-40360000D02*
X59760000Y-40130000D01*
X59990000Y-41770000D02*
X59990000Y-40360000D01*
D26*
X47610000Y-21650000D02*
X50090000Y-24130000D01*
X20100000Y-26270000D02*
X24720000Y-21650000D01*
X24720000Y-21650000D02*
X47610000Y-21650000D01*
D24*
G04 #@! TO.N,SPI_MISO*
X63783146Y-67775006D02*
X63383147Y-67375007D01*
X64368140Y-68360000D02*
X63783146Y-67775006D01*
X68080000Y-68360000D02*
X64368140Y-68360000D01*
X69920000Y-70200000D02*
X68080000Y-68360000D01*
X61040000Y-40894315D02*
X61040000Y-41460000D01*
X61040000Y-39684315D02*
X61040000Y-40894315D01*
X60305685Y-38950000D02*
X61040000Y-39684315D01*
X59740000Y-38950000D02*
X60305685Y-38950000D01*
D26*
X50980000Y-42950000D02*
X52460000Y-44430000D01*
X18710001Y-27420001D02*
X20849999Y-27420001D01*
X17560000Y-26270000D02*
X18710001Y-27420001D01*
X20849999Y-27420001D02*
X26220000Y-22050000D01*
X26220000Y-22050000D02*
X47440000Y-22050000D01*
X47440000Y-22050000D02*
X50980000Y-25590000D01*
X50980000Y-25590000D02*
X50980000Y-42950000D01*
D24*
G04 #@! TO.N,Net-(D1-Pad2)*
X32000000Y-71150000D02*
X32000000Y-68850000D01*
G04 #@! TO.N,Net-(D2-Pad2)*
X34025001Y-68875001D02*
X34000000Y-68850000D01*
X34025001Y-71150000D02*
X34025001Y-68875001D01*
G04 #@! TO.N,Net-(D4-Pad2)*
X36000000Y-71150000D02*
X36000000Y-68850000D01*
G04 #@! TD*
D26*
G04 #@! TO.N,GND*
G36*
X51544421Y-638229D02*
X51380000Y-1035175D01*
X51380000Y-1464825D01*
X51544421Y-1861771D01*
X51848229Y-2165579D01*
X52245175Y-2330000D01*
X52674825Y-2330000D01*
X53071771Y-2165579D01*
X53375579Y-1861771D01*
X53540000Y-1464825D01*
X53540000Y-1035175D01*
X53375579Y-638229D01*
X53137350Y-400000D01*
X77182650Y-400000D01*
X76944421Y-638229D01*
X76780000Y-1035175D01*
X76780000Y-1464825D01*
X76944421Y-1861771D01*
X77248229Y-2165579D01*
X77645175Y-2330000D01*
X78074825Y-2330000D01*
X78471771Y-2165579D01*
X78775579Y-1861771D01*
X78940000Y-1464825D01*
X78940000Y-1035175D01*
X78775579Y-638229D01*
X78537350Y-400000D01*
X82534283Y-400000D01*
X83480592Y-474476D01*
X84388268Y-692390D01*
X85250684Y-1049614D01*
X86046596Y-1537350D01*
X86756414Y-2143593D01*
X87362650Y-2853404D01*
X87850386Y-3649317D01*
X88207611Y-4511734D01*
X88425524Y-5419408D01*
X88500000Y-6365717D01*
X88500001Y-69834270D01*
X88425524Y-70780592D01*
X88207611Y-71688266D01*
X87850386Y-72550683D01*
X87362650Y-73346596D01*
X86756414Y-74056407D01*
X86046596Y-74662650D01*
X85250684Y-75150386D01*
X84388268Y-75507610D01*
X83480592Y-75725524D01*
X82534283Y-75800000D01*
X6365717Y-75800000D01*
X5419408Y-75725524D01*
X4511734Y-75507611D01*
X3649317Y-75150386D01*
X2853404Y-74662650D01*
X2143593Y-74056414D01*
X1537350Y-73346596D01*
X1049614Y-72550684D01*
X692390Y-71688268D01*
X474476Y-70780592D01*
X438570Y-70324350D01*
X1080000Y-70324350D01*
X1080000Y-71915650D01*
X1688963Y-73385818D01*
X2814182Y-74511037D01*
X4284350Y-75120000D01*
X5875650Y-75120000D01*
X7345818Y-74511037D01*
X8471037Y-73385818D01*
X8692979Y-72850000D01*
X12294123Y-72850000D01*
X12294123Y-74350000D01*
X12317407Y-74467054D01*
X12383712Y-74566288D01*
X12482946Y-74632593D01*
X12600000Y-74655877D01*
X13900000Y-74655877D01*
X14017054Y-74632593D01*
X14116288Y-74566288D01*
X14182593Y-74467054D01*
X14205877Y-74350000D01*
X14205877Y-74025000D01*
X14294123Y-74025000D01*
X14294123Y-74350000D01*
X14317407Y-74467054D01*
X14383712Y-74566288D01*
X14482946Y-74632593D01*
X14600000Y-74655877D01*
X15900000Y-74655877D01*
X16017054Y-74632593D01*
X16116288Y-74566288D01*
X16182593Y-74467054D01*
X16205877Y-74350000D01*
X16205877Y-72850000D01*
X16544123Y-72850000D01*
X16544123Y-74350000D01*
X16567407Y-74467054D01*
X16633712Y-74566288D01*
X16732946Y-74632593D01*
X16850000Y-74655877D01*
X18150000Y-74655877D01*
X18267054Y-74632593D01*
X18366288Y-74566288D01*
X18432593Y-74467054D01*
X18455877Y-74350000D01*
X18455877Y-74025000D01*
X18544123Y-74025000D01*
X18544123Y-74350000D01*
X18567407Y-74467054D01*
X18633712Y-74566288D01*
X18732946Y-74632593D01*
X18850000Y-74655877D01*
X20150000Y-74655877D01*
X20267054Y-74632593D01*
X20366288Y-74566288D01*
X20432593Y-74467054D01*
X20455877Y-74350000D01*
X20455877Y-72850000D01*
X20794123Y-72850000D01*
X20794123Y-74350000D01*
X20817407Y-74467054D01*
X20883712Y-74566288D01*
X20982946Y-74632593D01*
X21100000Y-74655877D01*
X22400000Y-74655877D01*
X22517054Y-74632593D01*
X22616288Y-74566288D01*
X22682593Y-74467054D01*
X22705877Y-74350000D01*
X22705877Y-74025000D01*
X22794123Y-74025000D01*
X22794123Y-74350000D01*
X22817407Y-74467054D01*
X22883712Y-74566288D01*
X22982946Y-74632593D01*
X23100000Y-74655877D01*
X24400000Y-74655877D01*
X24517054Y-74632593D01*
X24616288Y-74566288D01*
X24682593Y-74467054D01*
X24705877Y-74350000D01*
X24705877Y-74156000D01*
X30742000Y-74156000D01*
X30742000Y-74720939D01*
X30834563Y-74944405D01*
X31005596Y-75115438D01*
X31229062Y-75208000D01*
X31694000Y-75208000D01*
X31846000Y-75056000D01*
X31846000Y-74004000D01*
X32154000Y-74004000D01*
X32154000Y-75056000D01*
X32306000Y-75208000D01*
X32770938Y-75208000D01*
X32994404Y-75115438D01*
X33012501Y-75097342D01*
X33030597Y-75115438D01*
X33254063Y-75208000D01*
X33719001Y-75208000D01*
X33871001Y-75056000D01*
X33871001Y-74004000D01*
X34179001Y-74004000D01*
X34179001Y-75056000D01*
X34331001Y-75208000D01*
X34795939Y-75208000D01*
X35012500Y-75118298D01*
X35229062Y-75208000D01*
X35694000Y-75208000D01*
X35846000Y-75056000D01*
X35846000Y-74004000D01*
X36154000Y-74004000D01*
X36154000Y-75056000D01*
X36306000Y-75208000D01*
X36770938Y-75208000D01*
X36994404Y-75115438D01*
X37165437Y-74944405D01*
X37258000Y-74720939D01*
X37258000Y-74156000D01*
X37106000Y-74004000D01*
X36154000Y-74004000D01*
X35846000Y-74004000D01*
X34179001Y-74004000D01*
X33871001Y-74004000D01*
X32154000Y-74004000D01*
X31846000Y-74004000D01*
X30894000Y-74004000D01*
X30742000Y-74156000D01*
X24705877Y-74156000D01*
X24705877Y-72979061D01*
X30742000Y-72979061D01*
X30742000Y-73544000D01*
X30894000Y-73696000D01*
X31846000Y-73696000D01*
X31846000Y-72644000D01*
X32154000Y-72644000D01*
X32154000Y-73696000D01*
X33871001Y-73696000D01*
X33871001Y-72644000D01*
X34179001Y-72644000D01*
X34179001Y-73696000D01*
X35846000Y-73696000D01*
X35846000Y-72644000D01*
X36154000Y-72644000D01*
X36154000Y-73696000D01*
X37106000Y-73696000D01*
X37258000Y-73544000D01*
X37258000Y-73306000D01*
X42542000Y-73306000D01*
X42542000Y-74870939D01*
X42634563Y-75094405D01*
X42805596Y-75265438D01*
X43029062Y-75358000D01*
X44594000Y-75358000D01*
X44746000Y-75206000D01*
X44746000Y-73154000D01*
X45054000Y-73154000D01*
X45054000Y-75206000D01*
X45206000Y-75358000D01*
X46770938Y-75358000D01*
X46994404Y-75265438D01*
X47165437Y-75094405D01*
X47258000Y-74870939D01*
X47258000Y-74200000D01*
X56047471Y-74200000D01*
X56136724Y-74648707D01*
X56390897Y-75029103D01*
X56771293Y-75283276D01*
X57106739Y-75350000D01*
X57333261Y-75350000D01*
X57668707Y-75283276D01*
X58049103Y-75029103D01*
X58303276Y-74648707D01*
X58392529Y-74200000D01*
X58587471Y-74200000D01*
X58676724Y-74648707D01*
X58930897Y-75029103D01*
X59311293Y-75283276D01*
X59646739Y-75350000D01*
X59873261Y-75350000D01*
X60208707Y-75283276D01*
X60589103Y-75029103D01*
X60843276Y-74648707D01*
X60932529Y-74200000D01*
X61127471Y-74200000D01*
X61216724Y-74648707D01*
X61470897Y-75029103D01*
X61851293Y-75283276D01*
X62186739Y-75350000D01*
X62413261Y-75350000D01*
X62748707Y-75283276D01*
X63129103Y-75029103D01*
X63383276Y-74648707D01*
X63472529Y-74200000D01*
X63667471Y-74200000D01*
X63756724Y-74648707D01*
X64010897Y-75029103D01*
X64391293Y-75283276D01*
X64726739Y-75350000D01*
X64953261Y-75350000D01*
X65288707Y-75283276D01*
X65669103Y-75029103D01*
X65923276Y-74648707D01*
X66012529Y-74200000D01*
X66207471Y-74200000D01*
X66296724Y-74648707D01*
X66550897Y-75029103D01*
X66931293Y-75283276D01*
X67266739Y-75350000D01*
X67493261Y-75350000D01*
X67828707Y-75283276D01*
X68209103Y-75029103D01*
X68463276Y-74648707D01*
X68552529Y-74200000D01*
X68747471Y-74200000D01*
X68836724Y-74648707D01*
X69090897Y-75029103D01*
X69471293Y-75283276D01*
X69806739Y-75350000D01*
X70033261Y-75350000D01*
X70368707Y-75283276D01*
X70749103Y-75029103D01*
X71003276Y-74648707D01*
X71092529Y-74200000D01*
X71287471Y-74200000D01*
X71376724Y-74648707D01*
X71630897Y-75029103D01*
X72011293Y-75283276D01*
X72346739Y-75350000D01*
X72573261Y-75350000D01*
X72908707Y-75283276D01*
X73289103Y-75029103D01*
X73543276Y-74648707D01*
X73632529Y-74200000D01*
X73543276Y-73751293D01*
X73289103Y-73370897D01*
X73257829Y-73350000D01*
X73844123Y-73350000D01*
X73844123Y-75050000D01*
X73867407Y-75167054D01*
X73933712Y-75266288D01*
X74032946Y-75332593D01*
X74150000Y-75355877D01*
X75850000Y-75355877D01*
X75967054Y-75332593D01*
X76066288Y-75266288D01*
X76132593Y-75167054D01*
X76155877Y-75050000D01*
X76155877Y-73350000D01*
X76132593Y-73232946D01*
X76066288Y-73133712D01*
X75967054Y-73067407D01*
X75850000Y-73044123D01*
X74150000Y-73044123D01*
X74032946Y-73067407D01*
X73933712Y-73133712D01*
X73867407Y-73232946D01*
X73844123Y-73350000D01*
X73257829Y-73350000D01*
X72908707Y-73116724D01*
X72573261Y-73050000D01*
X72346739Y-73050000D01*
X72011293Y-73116724D01*
X71630897Y-73370897D01*
X71376724Y-73751293D01*
X71287471Y-74200000D01*
X71092529Y-74200000D01*
X71003276Y-73751293D01*
X70749103Y-73370897D01*
X70368707Y-73116724D01*
X70033261Y-73050000D01*
X69806739Y-73050000D01*
X69471293Y-73116724D01*
X69090897Y-73370897D01*
X68836724Y-73751293D01*
X68747471Y-74200000D01*
X68552529Y-74200000D01*
X68463276Y-73751293D01*
X68209103Y-73370897D01*
X67828707Y-73116724D01*
X67493261Y-73050000D01*
X67266739Y-73050000D01*
X66931293Y-73116724D01*
X66550897Y-73370897D01*
X66296724Y-73751293D01*
X66207471Y-74200000D01*
X66012529Y-74200000D01*
X65923276Y-73751293D01*
X65669103Y-73370897D01*
X65288707Y-73116724D01*
X64953261Y-73050000D01*
X64726739Y-73050000D01*
X64391293Y-73116724D01*
X64010897Y-73370897D01*
X63756724Y-73751293D01*
X63667471Y-74200000D01*
X63472529Y-74200000D01*
X63383276Y-73751293D01*
X63129103Y-73370897D01*
X62748707Y-73116724D01*
X62413261Y-73050000D01*
X62186739Y-73050000D01*
X61851293Y-73116724D01*
X61470897Y-73370897D01*
X61216724Y-73751293D01*
X61127471Y-74200000D01*
X60932529Y-74200000D01*
X60843276Y-73751293D01*
X60589103Y-73370897D01*
X60208707Y-73116724D01*
X59873261Y-73050000D01*
X59646739Y-73050000D01*
X59311293Y-73116724D01*
X58930897Y-73370897D01*
X58676724Y-73751293D01*
X58587471Y-74200000D01*
X58392529Y-74200000D01*
X58303276Y-73751293D01*
X58049103Y-73370897D01*
X57668707Y-73116724D01*
X57333261Y-73050000D01*
X57106739Y-73050000D01*
X56771293Y-73116724D01*
X56390897Y-73370897D01*
X56136724Y-73751293D01*
X56047471Y-74200000D01*
X47258000Y-74200000D01*
X47258000Y-73306000D01*
X47106000Y-73154000D01*
X45054000Y-73154000D01*
X44746000Y-73154000D01*
X42694000Y-73154000D01*
X42542000Y-73306000D01*
X37258000Y-73306000D01*
X37258000Y-72979061D01*
X37165437Y-72755595D01*
X36994404Y-72584562D01*
X36770938Y-72492000D01*
X36306000Y-72492000D01*
X36154000Y-72644000D01*
X35846000Y-72644000D01*
X35694000Y-72492000D01*
X35229062Y-72492000D01*
X35012501Y-72581702D01*
X34795939Y-72492000D01*
X34331001Y-72492000D01*
X34179001Y-72644000D01*
X33871001Y-72644000D01*
X33719001Y-72492000D01*
X33254063Y-72492000D01*
X33030597Y-72584562D01*
X33012501Y-72602659D01*
X32994404Y-72584562D01*
X32770938Y-72492000D01*
X32306000Y-72492000D01*
X32154000Y-72644000D01*
X31846000Y-72644000D01*
X31694000Y-72492000D01*
X31229062Y-72492000D01*
X31005596Y-72584562D01*
X30834563Y-72755595D01*
X30742000Y-72979061D01*
X24705877Y-72979061D01*
X24705877Y-72850000D01*
X24682593Y-72732946D01*
X24616288Y-72633712D01*
X24517054Y-72567407D01*
X24400000Y-72544123D01*
X23100000Y-72544123D01*
X22982946Y-72567407D01*
X22883712Y-72633712D01*
X22817407Y-72732946D01*
X22794123Y-72850000D01*
X22794123Y-73175000D01*
X22705877Y-73175000D01*
X22705877Y-72850000D01*
X22682593Y-72732946D01*
X22616288Y-72633712D01*
X22517054Y-72567407D01*
X22400000Y-72544123D01*
X21100000Y-72544123D01*
X20982946Y-72567407D01*
X20883712Y-72633712D01*
X20817407Y-72732946D01*
X20794123Y-72850000D01*
X20455877Y-72850000D01*
X20432593Y-72732946D01*
X20366288Y-72633712D01*
X20267054Y-72567407D01*
X20150000Y-72544123D01*
X18850000Y-72544123D01*
X18732946Y-72567407D01*
X18633712Y-72633712D01*
X18567407Y-72732946D01*
X18544123Y-72850000D01*
X18544123Y-73175000D01*
X18455877Y-73175000D01*
X18455877Y-72850000D01*
X18432593Y-72732946D01*
X18366288Y-72633712D01*
X18267054Y-72567407D01*
X18150000Y-72544123D01*
X16850000Y-72544123D01*
X16732946Y-72567407D01*
X16633712Y-72633712D01*
X16567407Y-72732946D01*
X16544123Y-72850000D01*
X16205877Y-72850000D01*
X16182593Y-72732946D01*
X16116288Y-72633712D01*
X16017054Y-72567407D01*
X15900000Y-72544123D01*
X14600000Y-72544123D01*
X14482946Y-72567407D01*
X14383712Y-72633712D01*
X14317407Y-72732946D01*
X14294123Y-72850000D01*
X14294123Y-73175000D01*
X14205877Y-73175000D01*
X14205877Y-72850000D01*
X14182593Y-72732946D01*
X14116288Y-72633712D01*
X14017054Y-72567407D01*
X13900000Y-72544123D01*
X12600000Y-72544123D01*
X12482946Y-72567407D01*
X12383712Y-72633712D01*
X12317407Y-72732946D01*
X12294123Y-72850000D01*
X8692979Y-72850000D01*
X9080000Y-71915650D01*
X9080000Y-70324350D01*
X9007782Y-70150000D01*
X12294123Y-70150000D01*
X12294123Y-71650000D01*
X12317407Y-71767054D01*
X12383712Y-71866288D01*
X12482946Y-71932593D01*
X12600000Y-71955877D01*
X13900000Y-71955877D01*
X14017054Y-71932593D01*
X14116288Y-71866288D01*
X14182593Y-71767054D01*
X14205877Y-71650000D01*
X14205877Y-70150000D01*
X14182593Y-70032946D01*
X14116288Y-69933712D01*
X14017054Y-69867407D01*
X13900000Y-69844123D01*
X13675000Y-69844123D01*
X13675000Y-69693875D01*
X13732946Y-69732593D01*
X13850000Y-69755877D01*
X14650000Y-69755877D01*
X14700001Y-69745931D01*
X14700001Y-69844123D01*
X14600000Y-69844123D01*
X14482946Y-69867407D01*
X14383712Y-69933712D01*
X14317407Y-70032946D01*
X14294123Y-70150000D01*
X14294123Y-71650000D01*
X14317407Y-71767054D01*
X14383712Y-71866288D01*
X14482946Y-71932593D01*
X14600000Y-71955877D01*
X15900000Y-71955877D01*
X16017054Y-71932593D01*
X16116288Y-71866288D01*
X16182593Y-71767054D01*
X16205877Y-71650000D01*
X16205877Y-70150000D01*
X16182593Y-70032946D01*
X16116288Y-69933712D01*
X16017054Y-69867407D01*
X15900000Y-69844123D01*
X15833693Y-69844123D01*
X17794123Y-67883694D01*
X17794123Y-68077789D01*
X17684173Y-68099659D01*
X17543592Y-68193592D01*
X17519881Y-68229078D01*
X17229078Y-68519881D01*
X17193593Y-68543592D01*
X17169882Y-68579078D01*
X17099659Y-68684174D01*
X17066674Y-68850000D01*
X17075001Y-68891862D01*
X17075001Y-69844123D01*
X16850000Y-69844123D01*
X16732946Y-69867407D01*
X16633712Y-69933712D01*
X16567407Y-70032946D01*
X16544123Y-70150000D01*
X16544123Y-71650000D01*
X16567407Y-71767054D01*
X16633712Y-71866288D01*
X16732946Y-71932593D01*
X16850000Y-71955877D01*
X18150000Y-71955877D01*
X18267054Y-71932593D01*
X18366288Y-71866288D01*
X18432593Y-71767054D01*
X18455877Y-71650000D01*
X18455877Y-70150000D01*
X18432593Y-70032946D01*
X18366288Y-69933712D01*
X18267054Y-69867407D01*
X18150000Y-69844123D01*
X17925000Y-69844123D01*
X17925000Y-69693875D01*
X17982946Y-69732593D01*
X18100000Y-69755877D01*
X18900000Y-69755877D01*
X18950001Y-69745931D01*
X18950001Y-69844123D01*
X18850000Y-69844123D01*
X18732946Y-69867407D01*
X18633712Y-69933712D01*
X18567407Y-70032946D01*
X18544123Y-70150000D01*
X18544123Y-71650000D01*
X18567407Y-71767054D01*
X18633712Y-71866288D01*
X18732946Y-71932593D01*
X18850000Y-71955877D01*
X20150000Y-71955877D01*
X20267054Y-71932593D01*
X20366288Y-71866288D01*
X20432593Y-71767054D01*
X20455877Y-71650000D01*
X20455877Y-70150000D01*
X20432593Y-70032946D01*
X20366288Y-69933712D01*
X20267054Y-69867407D01*
X20150000Y-69844123D01*
X20083693Y-69844123D01*
X22044123Y-67883694D01*
X22044123Y-68077789D01*
X21934173Y-68099659D01*
X21793592Y-68193592D01*
X21769881Y-68229078D01*
X21479078Y-68519881D01*
X21443593Y-68543592D01*
X21419882Y-68579078D01*
X21349659Y-68684174D01*
X21316674Y-68850000D01*
X21325001Y-68891862D01*
X21325001Y-69844123D01*
X21100000Y-69844123D01*
X20982946Y-69867407D01*
X20883712Y-69933712D01*
X20817407Y-70032946D01*
X20794123Y-70150000D01*
X20794123Y-71650000D01*
X20817407Y-71767054D01*
X20883712Y-71866288D01*
X20982946Y-71932593D01*
X21100000Y-71955877D01*
X22400000Y-71955877D01*
X22517054Y-71932593D01*
X22616288Y-71866288D01*
X22682593Y-71767054D01*
X22705877Y-71650000D01*
X22705877Y-70150000D01*
X22682593Y-70032946D01*
X22616288Y-69933712D01*
X22517054Y-69867407D01*
X22400000Y-69844123D01*
X22175000Y-69844123D01*
X22175000Y-69693875D01*
X22232946Y-69732593D01*
X22350000Y-69755877D01*
X23150000Y-69755877D01*
X23200000Y-69745931D01*
X23200000Y-69844123D01*
X23100000Y-69844123D01*
X22982946Y-69867407D01*
X22883712Y-69933712D01*
X22817407Y-70032946D01*
X22794123Y-70150000D01*
X22794123Y-71650000D01*
X22817407Y-71767054D01*
X22883712Y-71866288D01*
X22982946Y-71932593D01*
X23100000Y-71955877D01*
X24400000Y-71955877D01*
X24517054Y-71932593D01*
X24616288Y-71866288D01*
X24682593Y-71767054D01*
X24705877Y-71650000D01*
X24705877Y-70150000D01*
X24682593Y-70032946D01*
X24616288Y-69933712D01*
X24517054Y-69867407D01*
X24400000Y-69844123D01*
X24300000Y-69844123D01*
X24300000Y-68100000D01*
X31044123Y-68100000D01*
X31044123Y-69600000D01*
X31067407Y-69717054D01*
X31133712Y-69816288D01*
X31232946Y-69882593D01*
X31350000Y-69905877D01*
X31575001Y-69905877D01*
X31575000Y-70094123D01*
X31350000Y-70094123D01*
X31232946Y-70117407D01*
X31133712Y-70183712D01*
X31067407Y-70282946D01*
X31044123Y-70400000D01*
X31044123Y-71900000D01*
X31067407Y-72017054D01*
X31133712Y-72116288D01*
X31232946Y-72182593D01*
X31350000Y-72205877D01*
X32650000Y-72205877D01*
X32767054Y-72182593D01*
X32866288Y-72116288D01*
X32932593Y-72017054D01*
X32955877Y-71900000D01*
X32955877Y-70400000D01*
X32932593Y-70282946D01*
X32866288Y-70183712D01*
X32767054Y-70117407D01*
X32650000Y-70094123D01*
X32425000Y-70094123D01*
X32425000Y-69905877D01*
X32650000Y-69905877D01*
X32767054Y-69882593D01*
X32866288Y-69816288D01*
X32932593Y-69717054D01*
X32955877Y-69600000D01*
X32955877Y-68100000D01*
X33044123Y-68100000D01*
X33044123Y-69600000D01*
X33067407Y-69717054D01*
X33133712Y-69816288D01*
X33232946Y-69882593D01*
X33350000Y-69905877D01*
X33600002Y-69905877D01*
X33600001Y-70094123D01*
X33375001Y-70094123D01*
X33257947Y-70117407D01*
X33158713Y-70183712D01*
X33092408Y-70282946D01*
X33069124Y-70400000D01*
X33069124Y-71900000D01*
X33092408Y-72017054D01*
X33158713Y-72116288D01*
X33257947Y-72182593D01*
X33375001Y-72205877D01*
X34675001Y-72205877D01*
X34792055Y-72182593D01*
X34891289Y-72116288D01*
X34957594Y-72017054D01*
X34980878Y-71900000D01*
X34980878Y-70400000D01*
X34957594Y-70282946D01*
X34891289Y-70183712D01*
X34792055Y-70117407D01*
X34675001Y-70094123D01*
X34450001Y-70094123D01*
X34450001Y-69905877D01*
X34650000Y-69905877D01*
X34767054Y-69882593D01*
X34866288Y-69816288D01*
X34932593Y-69717054D01*
X34955877Y-69600000D01*
X34955877Y-68100000D01*
X35044123Y-68100000D01*
X35044123Y-69600000D01*
X35067407Y-69717054D01*
X35133712Y-69816288D01*
X35232946Y-69882593D01*
X35350000Y-69905877D01*
X35575001Y-69905877D01*
X35575000Y-70094123D01*
X35350000Y-70094123D01*
X35232946Y-70117407D01*
X35133712Y-70183712D01*
X35067407Y-70282946D01*
X35044123Y-70400000D01*
X35044123Y-71900000D01*
X35067407Y-72017054D01*
X35133712Y-72116288D01*
X35232946Y-72182593D01*
X35350000Y-72205877D01*
X36650000Y-72205877D01*
X36767054Y-72182593D01*
X36866288Y-72116288D01*
X36932593Y-72017054D01*
X36955877Y-71900000D01*
X36955877Y-71129061D01*
X42542000Y-71129061D01*
X42542000Y-72694000D01*
X42694000Y-72846000D01*
X44746000Y-72846000D01*
X44746000Y-70794000D01*
X45054000Y-70794000D01*
X45054000Y-72846000D01*
X47106000Y-72846000D01*
X47258000Y-72694000D01*
X47258000Y-71129061D01*
X47165437Y-70905595D01*
X46994404Y-70734562D01*
X46770938Y-70642000D01*
X45206000Y-70642000D01*
X45054000Y-70794000D01*
X44746000Y-70794000D01*
X44594000Y-70642000D01*
X43029062Y-70642000D01*
X42805596Y-70734562D01*
X42634563Y-70905595D01*
X42542000Y-71129061D01*
X36955877Y-71129061D01*
X36955877Y-70400000D01*
X36932593Y-70282946D01*
X36866288Y-70183712D01*
X36767054Y-70117407D01*
X36650000Y-70094123D01*
X36425000Y-70094123D01*
X36425000Y-69905877D01*
X36650000Y-69905877D01*
X36767054Y-69882593D01*
X36866288Y-69816288D01*
X36932593Y-69717054D01*
X36955877Y-69600000D01*
X36955877Y-68100000D01*
X36932593Y-67982946D01*
X36866288Y-67883712D01*
X36767054Y-67817407D01*
X36650000Y-67794123D01*
X35350000Y-67794123D01*
X35232946Y-67817407D01*
X35133712Y-67883712D01*
X35067407Y-67982946D01*
X35044123Y-68100000D01*
X34955877Y-68100000D01*
X34932593Y-67982946D01*
X34866288Y-67883712D01*
X34767054Y-67817407D01*
X34650000Y-67794123D01*
X33350000Y-67794123D01*
X33232946Y-67817407D01*
X33133712Y-67883712D01*
X33067407Y-67982946D01*
X33044123Y-68100000D01*
X32955877Y-68100000D01*
X32932593Y-67982946D01*
X32866288Y-67883712D01*
X32767054Y-67817407D01*
X32650000Y-67794123D01*
X31350000Y-67794123D01*
X31232946Y-67817407D01*
X31133712Y-67883712D01*
X31067407Y-67982946D01*
X31044123Y-68100000D01*
X24300000Y-68100000D01*
X24300000Y-67837818D01*
X24710604Y-67427214D01*
X24756530Y-67396528D01*
X24787218Y-67350600D01*
X26737818Y-65400000D01*
X31044123Y-65400000D01*
X31044123Y-66900000D01*
X31067407Y-67017054D01*
X31133712Y-67116288D01*
X31232946Y-67182593D01*
X31350000Y-67205877D01*
X32650000Y-67205877D01*
X32767054Y-67182593D01*
X32866288Y-67116288D01*
X32932593Y-67017054D01*
X32955877Y-66900000D01*
X32955877Y-65400000D01*
X32932593Y-65282946D01*
X32866288Y-65183712D01*
X32767054Y-65117407D01*
X32650000Y-65094123D01*
X31350000Y-65094123D01*
X31232946Y-65117407D01*
X31133712Y-65183712D01*
X31067407Y-65282946D01*
X31044123Y-65400000D01*
X26737818Y-65400000D01*
X27100603Y-65037216D01*
X27103916Y-65035002D01*
X33283962Y-65035002D01*
X33344230Y-65095271D01*
X33232946Y-65117407D01*
X33133712Y-65183712D01*
X33067407Y-65282946D01*
X33044123Y-65400000D01*
X33044123Y-66900000D01*
X33067407Y-67017054D01*
X33133712Y-67116288D01*
X33232946Y-67182593D01*
X33350000Y-67205877D01*
X34650000Y-67205877D01*
X34767054Y-67182593D01*
X34866288Y-67116288D01*
X34932593Y-67017054D01*
X34955877Y-66900000D01*
X34955877Y-65606918D01*
X35044123Y-65695164D01*
X35044123Y-66900000D01*
X35067407Y-67017054D01*
X35133712Y-67116288D01*
X35232946Y-67182593D01*
X35350000Y-67205877D01*
X36650000Y-67205877D01*
X36767054Y-67182593D01*
X36866288Y-67116288D01*
X36932593Y-67017054D01*
X36955877Y-66900000D01*
X36955877Y-65400000D01*
X36932593Y-65282946D01*
X36866288Y-65183712D01*
X36767054Y-65117407D01*
X36650000Y-65094123D01*
X35645164Y-65094123D01*
X33520121Y-62969081D01*
X33496408Y-62933592D01*
X33355827Y-62839659D01*
X33231858Y-62815000D01*
X33231857Y-62815000D01*
X33190000Y-62806674D01*
X33148143Y-62815000D01*
X28334950Y-62815000D01*
X28166518Y-62646568D01*
X27909239Y-62540000D01*
X27841370Y-62540000D01*
X29381371Y-61000000D01*
X44714420Y-61000000D01*
X44758712Y-61066288D01*
X44857946Y-61132593D01*
X44975000Y-61155877D01*
X46225000Y-61155877D01*
X46342054Y-61132593D01*
X46441288Y-61066288D01*
X46485580Y-61000000D01*
X47279069Y-61000000D01*
X47292407Y-61067054D01*
X47358712Y-61166288D01*
X47457946Y-61232593D01*
X47575000Y-61255877D01*
X48825000Y-61255877D01*
X48942054Y-61232593D01*
X49041288Y-61166288D01*
X49107593Y-61067054D01*
X49120931Y-61000000D01*
X57118630Y-61000000D01*
X57380000Y-61261371D01*
X57380000Y-62107336D01*
X57190922Y-62390312D01*
X57130000Y-62696588D01*
X57130000Y-63903413D01*
X57190923Y-64209689D01*
X57422994Y-64557007D01*
X57711828Y-64750000D01*
X56592113Y-64750000D01*
X56835695Y-64461962D01*
X56998000Y-63954000D01*
X56998000Y-63454000D01*
X55794000Y-63454000D01*
X55794000Y-63474000D01*
X55486000Y-63474000D01*
X55486000Y-63454000D01*
X55466000Y-63454000D01*
X55466000Y-63146000D01*
X55486000Y-63146000D01*
X55486000Y-61603873D01*
X55794000Y-61603873D01*
X55794000Y-63146000D01*
X56998000Y-63146000D01*
X56998000Y-62646000D01*
X56835695Y-62138038D01*
X56491356Y-61730854D01*
X56003172Y-61491462D01*
X55794000Y-61603873D01*
X55486000Y-61603873D01*
X55276828Y-61491462D01*
X54788644Y-61730854D01*
X54444305Y-62138038D01*
X54282000Y-62646000D01*
X54282000Y-62729050D01*
X54155877Y-62540295D01*
X54155877Y-62050000D01*
X54132593Y-61932946D01*
X54066288Y-61833712D01*
X53967054Y-61767407D01*
X53850000Y-61744123D01*
X52350000Y-61744123D01*
X52232946Y-61767407D01*
X52133712Y-61833712D01*
X52067407Y-61932946D01*
X52054069Y-62000000D01*
X48728032Y-62000000D01*
X48599999Y-61974533D01*
X48471966Y-62000000D01*
X48471963Y-62000000D01*
X48092765Y-62075427D01*
X47771296Y-62290226D01*
X47771294Y-62290228D01*
X47662753Y-62362753D01*
X47590228Y-62471294D01*
X45117400Y-64944123D01*
X43150000Y-64944123D01*
X43032946Y-64967407D01*
X42933712Y-65033712D01*
X42867407Y-65132946D01*
X42844123Y-65250000D01*
X42844123Y-68750000D01*
X42867407Y-68867054D01*
X42933712Y-68966288D01*
X43032946Y-69032593D01*
X43150000Y-69055877D01*
X46650000Y-69055877D01*
X46767054Y-69032593D01*
X46866288Y-68966288D01*
X46932593Y-68867054D01*
X46955877Y-68750000D01*
X46955877Y-68250000D01*
X47544123Y-68250000D01*
X47544123Y-71750000D01*
X47567407Y-71867054D01*
X47633712Y-71966288D01*
X47732946Y-72032593D01*
X47850000Y-72055877D01*
X51350000Y-72055877D01*
X51467054Y-72032593D01*
X51566288Y-71966288D01*
X51632593Y-71867054D01*
X51655877Y-71750000D01*
X51655877Y-68250000D01*
X51632593Y-68132946D01*
X51566288Y-68033712D01*
X51467054Y-67967407D01*
X51350000Y-67944123D01*
X47850000Y-67944123D01*
X47732946Y-67967407D01*
X47633712Y-68033712D01*
X47567407Y-68132946D01*
X47544123Y-68250000D01*
X46955877Y-68250000D01*
X46955877Y-66782600D01*
X49138478Y-64600000D01*
X52054069Y-64600000D01*
X52067407Y-64667054D01*
X52133712Y-64766288D01*
X52232946Y-64832593D01*
X52350000Y-64855877D01*
X53024507Y-64855877D01*
X54228603Y-66059974D01*
X54273233Y-66126767D01*
X54340025Y-66171396D01*
X54340026Y-66171397D01*
X54406519Y-66215826D01*
X54537856Y-66303583D01*
X54771211Y-66350000D01*
X54771216Y-66350000D01*
X54850000Y-66365671D01*
X54928784Y-66350000D01*
X63521442Y-66350000D01*
X63430000Y-66570761D01*
X63430000Y-66675007D01*
X63243908Y-66675007D01*
X62986629Y-66781575D01*
X62789715Y-66978489D01*
X62683147Y-67235768D01*
X62683147Y-67414329D01*
X62570539Y-67414329D01*
X62313260Y-67520897D01*
X62116346Y-67717811D01*
X62036288Y-67911089D01*
X61983432Y-67783482D01*
X61786518Y-67586568D01*
X61529239Y-67480000D01*
X61250761Y-67480000D01*
X60993482Y-67586568D01*
X60796568Y-67783482D01*
X60690000Y-68040761D01*
X60690000Y-68319239D01*
X60796568Y-68576518D01*
X60993482Y-68773432D01*
X61250761Y-68880000D01*
X61488959Y-68880000D01*
X61632539Y-69023580D01*
X61714163Y-69145739D01*
X61761016Y-69177045D01*
X61470897Y-69370897D01*
X61216724Y-69751293D01*
X61127471Y-70200000D01*
X61216724Y-70648707D01*
X61470897Y-71029103D01*
X61851293Y-71283276D01*
X62186739Y-71350000D01*
X62413261Y-71350000D01*
X62748707Y-71283276D01*
X63129103Y-71029103D01*
X63383276Y-70648707D01*
X63472529Y-70200000D01*
X63387992Y-69775001D01*
X63752008Y-69775001D01*
X63667471Y-70200000D01*
X63756724Y-70648707D01*
X64010897Y-71029103D01*
X64391293Y-71283276D01*
X64726739Y-71350000D01*
X64953261Y-71350000D01*
X65288707Y-71283276D01*
X65669103Y-71029103D01*
X65923276Y-70648707D01*
X66012529Y-70200000D01*
X65923276Y-69751293D01*
X65669103Y-69370897D01*
X65495651Y-69255000D01*
X65833960Y-69255000D01*
X66310154Y-69731194D01*
X66296724Y-69751293D01*
X66207471Y-70200000D01*
X66296724Y-70648707D01*
X66550897Y-71029103D01*
X66931293Y-71283276D01*
X67266739Y-71350000D01*
X67493261Y-71350000D01*
X67828707Y-71283276D01*
X68209103Y-71029103D01*
X68463276Y-70648707D01*
X68552529Y-70200000D01*
X68463276Y-69751293D01*
X68209103Y-69370897D01*
X67828707Y-69116724D01*
X67493261Y-69050000D01*
X67266739Y-69050000D01*
X66931293Y-69116724D01*
X66911194Y-69130154D01*
X66566040Y-68785000D01*
X67903960Y-68785000D01*
X68850154Y-69731194D01*
X68836724Y-69751293D01*
X68747471Y-70200000D01*
X68836724Y-70648707D01*
X69090897Y-71029103D01*
X69471293Y-71283276D01*
X69806739Y-71350000D01*
X70033261Y-71350000D01*
X70368707Y-71283276D01*
X70749103Y-71029103D01*
X71003276Y-70648707D01*
X71092529Y-70200000D01*
X71003276Y-69751293D01*
X70749103Y-69370897D01*
X70368707Y-69116724D01*
X70033261Y-69050000D01*
X69806739Y-69050000D01*
X69471293Y-69116724D01*
X69451194Y-69130154D01*
X68656040Y-68335000D01*
X69993960Y-68335000D01*
X71390154Y-69731194D01*
X71376724Y-69751293D01*
X71287471Y-70200000D01*
X71376724Y-70648707D01*
X71630897Y-71029103D01*
X72011293Y-71283276D01*
X72346739Y-71350000D01*
X72573261Y-71350000D01*
X72908707Y-71283276D01*
X73289103Y-71029103D01*
X73542000Y-70650617D01*
X73542000Y-71170939D01*
X73634563Y-71394405D01*
X73805596Y-71565438D01*
X74029062Y-71658000D01*
X74694000Y-71658000D01*
X74846000Y-71506000D01*
X74846000Y-70354000D01*
X75154000Y-70354000D01*
X75154000Y-71506000D01*
X75306000Y-71658000D01*
X75970938Y-71658000D01*
X76194404Y-71565438D01*
X76365437Y-71394405D01*
X76458000Y-71170939D01*
X76458000Y-70506000D01*
X76306000Y-70354000D01*
X75154000Y-70354000D01*
X74846000Y-70354000D01*
X74826000Y-70354000D01*
X74826000Y-70324350D01*
X79820000Y-70324350D01*
X79820000Y-71915650D01*
X80428963Y-73385818D01*
X81554182Y-74511037D01*
X83024350Y-75120000D01*
X84615650Y-75120000D01*
X86085818Y-74511037D01*
X87211037Y-73385818D01*
X87820000Y-71915650D01*
X87820000Y-70324350D01*
X87211037Y-68854182D01*
X86085818Y-67728963D01*
X84615650Y-67120000D01*
X83024350Y-67120000D01*
X81554182Y-67728963D01*
X80428963Y-68854182D01*
X79820000Y-70324350D01*
X74826000Y-70324350D01*
X74826000Y-70046000D01*
X74846000Y-70046000D01*
X74846000Y-68894000D01*
X75154000Y-68894000D01*
X75154000Y-70046000D01*
X76306000Y-70046000D01*
X76458000Y-69894000D01*
X76458000Y-69229061D01*
X76365437Y-69005595D01*
X76194404Y-68834562D01*
X75970938Y-68742000D01*
X75306000Y-68742000D01*
X75154000Y-68894000D01*
X74846000Y-68894000D01*
X74694000Y-68742000D01*
X74029062Y-68742000D01*
X73805596Y-68834562D01*
X73634563Y-69005595D01*
X73542000Y-69229061D01*
X73542000Y-69749383D01*
X73289103Y-69370897D01*
X72908707Y-69116724D01*
X72573261Y-69050000D01*
X72346739Y-69050000D01*
X72011293Y-69116724D01*
X71991194Y-69130154D01*
X70500121Y-67639081D01*
X70476408Y-67603592D01*
X70335827Y-67509659D01*
X70211858Y-67485000D01*
X70211857Y-67485000D01*
X70170000Y-67476674D01*
X70128143Y-67485000D01*
X65265000Y-67485000D01*
X65265000Y-67461857D01*
X65273326Y-67420000D01*
X65259523Y-67350605D01*
X65240341Y-67254173D01*
X65146408Y-67113592D01*
X65110922Y-67089881D01*
X64830000Y-66808959D01*
X64830000Y-66570761D01*
X64738558Y-66350000D01*
X65748286Y-66350000D01*
X65827070Y-66365671D01*
X65905854Y-66350000D01*
X65905859Y-66350000D01*
X66139214Y-66303583D01*
X66217650Y-66251174D01*
X66296724Y-66648707D01*
X66550897Y-67029103D01*
X66931293Y-67283276D01*
X67266739Y-67350000D01*
X67493261Y-67350000D01*
X67828707Y-67283276D01*
X68209103Y-67029103D01*
X68463276Y-66648707D01*
X68552529Y-66200000D01*
X68747471Y-66200000D01*
X68836724Y-66648707D01*
X69090897Y-67029103D01*
X69471293Y-67283276D01*
X69806739Y-67350000D01*
X70033261Y-67350000D01*
X70368707Y-67283276D01*
X70749103Y-67029103D01*
X71003276Y-66648707D01*
X71092529Y-66200000D01*
X71287471Y-66200000D01*
X71376724Y-66648707D01*
X71630897Y-67029103D01*
X72011293Y-67283276D01*
X72346739Y-67350000D01*
X72573261Y-67350000D01*
X72908707Y-67283276D01*
X73289103Y-67029103D01*
X73542000Y-66650617D01*
X73542000Y-67170939D01*
X73634563Y-67394405D01*
X73805596Y-67565438D01*
X74029062Y-67658000D01*
X74694000Y-67658000D01*
X74846000Y-67506000D01*
X74846000Y-66354000D01*
X75154000Y-66354000D01*
X75154000Y-67506000D01*
X75306000Y-67658000D01*
X75970938Y-67658000D01*
X76194404Y-67565438D01*
X76365437Y-67394405D01*
X76458000Y-67170939D01*
X76458000Y-66506000D01*
X76306000Y-66354000D01*
X75154000Y-66354000D01*
X74846000Y-66354000D01*
X74826000Y-66354000D01*
X74826000Y-66046000D01*
X74846000Y-66046000D01*
X74846000Y-64894000D01*
X75154000Y-64894000D01*
X75154000Y-66046000D01*
X76306000Y-66046000D01*
X76458000Y-65894000D01*
X76458000Y-65229061D01*
X76365437Y-65005595D01*
X76194404Y-64834562D01*
X75970938Y-64742000D01*
X75306000Y-64742000D01*
X75154000Y-64894000D01*
X74846000Y-64894000D01*
X74694000Y-64742000D01*
X74029062Y-64742000D01*
X73805596Y-64834562D01*
X73634563Y-65005595D01*
X73542000Y-65229061D01*
X73542000Y-65749383D01*
X73289103Y-65370897D01*
X72908707Y-65116724D01*
X72573261Y-65050000D01*
X72346739Y-65050000D01*
X72011293Y-65116724D01*
X71630897Y-65370897D01*
X71376724Y-65751293D01*
X71287471Y-66200000D01*
X71092529Y-66200000D01*
X71003276Y-65751293D01*
X70749103Y-65370897D01*
X70368707Y-65116724D01*
X70033261Y-65050000D01*
X69806739Y-65050000D01*
X69471293Y-65116724D01*
X69090897Y-65370897D01*
X68836724Y-65751293D01*
X68747471Y-66200000D01*
X68552529Y-66200000D01*
X68463276Y-65751293D01*
X68209103Y-65370897D01*
X67828707Y-65116724D01*
X67493261Y-65050000D01*
X67458441Y-65050000D01*
X67918430Y-64590011D01*
X82858276Y-64590011D01*
X82937060Y-64605682D01*
X83015844Y-64590011D01*
X83015849Y-64590011D01*
X83249204Y-64543594D01*
X83513827Y-64366778D01*
X83558458Y-64299983D01*
X85888442Y-61970000D01*
X86013261Y-61970000D01*
X86348707Y-61903276D01*
X86729103Y-61649103D01*
X86983276Y-61268707D01*
X87072529Y-60820000D01*
X86983276Y-60371293D01*
X86729103Y-59990897D01*
X86348707Y-59736724D01*
X86013261Y-59670000D01*
X85786739Y-59670000D01*
X85605275Y-59706095D01*
X85881370Y-59430000D01*
X86013261Y-59430000D01*
X86348707Y-59363276D01*
X86729103Y-59109103D01*
X86983276Y-58728707D01*
X87072529Y-58280000D01*
X86983276Y-57831293D01*
X86729103Y-57450897D01*
X86348707Y-57196724D01*
X86013261Y-57130000D01*
X85786739Y-57130000D01*
X85451293Y-57196724D01*
X85070897Y-57450897D01*
X84816724Y-57831293D01*
X84727471Y-58280000D01*
X84734300Y-58314330D01*
X83430026Y-59618604D01*
X83363234Y-59663233D01*
X83318605Y-59730025D01*
X83318603Y-59730027D01*
X83281864Y-59785011D01*
X83186418Y-59927856D01*
X83140000Y-60161211D01*
X83140000Y-60161216D01*
X83124329Y-60240000D01*
X83140000Y-60318784D01*
X83140000Y-60758629D01*
X82108630Y-61790000D01*
X75474416Y-61790000D01*
X75570000Y-61559239D01*
X75570000Y-61280761D01*
X75463432Y-61023482D01*
X75266518Y-60826568D01*
X75009239Y-60720000D01*
X74897359Y-60720000D01*
X74895001Y-60708148D01*
X74895001Y-60708143D01*
X74870342Y-60584174D01*
X74776409Y-60443593D01*
X74740920Y-60419880D01*
X74720121Y-60399081D01*
X74696408Y-60363592D01*
X74555827Y-60269659D01*
X74431858Y-60245000D01*
X74431857Y-60245000D01*
X74390000Y-60236674D01*
X74348143Y-60245000D01*
X73361857Y-60245000D01*
X73319999Y-60236674D01*
X73278142Y-60245000D01*
X73154173Y-60269659D01*
X73013592Y-60363592D01*
X72989881Y-60399078D01*
X72533960Y-60855000D01*
X63534513Y-60855000D01*
X63576767Y-60826767D01*
X63753583Y-60562144D01*
X63815672Y-60250000D01*
X63753583Y-59937856D01*
X63649680Y-59782354D01*
X79521353Y-59782354D01*
X79559741Y-59774692D01*
X79592155Y-59752973D01*
X79613790Y-59720503D01*
X79621353Y-59682225D01*
X79618748Y-57667066D01*
X79796518Y-57593432D01*
X79950000Y-57439950D01*
X80103482Y-57593432D01*
X80360761Y-57700000D01*
X80639239Y-57700000D01*
X80896518Y-57593432D01*
X81050000Y-57439950D01*
X81203482Y-57593432D01*
X81460761Y-57700000D01*
X81739239Y-57700000D01*
X81996518Y-57593432D01*
X82193432Y-57396518D01*
X82300000Y-57139239D01*
X82300000Y-56860761D01*
X82193432Y-56603482D01*
X81996518Y-56406568D01*
X81739239Y-56300000D01*
X81625370Y-56300000D01*
X81633327Y-56260000D01*
X81620231Y-56194163D01*
X81600342Y-56094174D01*
X81506409Y-55953593D01*
X81470923Y-55929882D01*
X80735000Y-55193960D01*
X80735000Y-53506000D01*
X84442000Y-53506000D01*
X84442000Y-54170938D01*
X84534562Y-54394404D01*
X84705595Y-54565437D01*
X84929061Y-54658000D01*
X85449383Y-54658000D01*
X85070897Y-54910897D01*
X84816724Y-55291293D01*
X84727471Y-55740000D01*
X84816724Y-56188707D01*
X85070897Y-56569103D01*
X85451293Y-56823276D01*
X85786739Y-56890000D01*
X86013261Y-56890000D01*
X86348707Y-56823276D01*
X86729103Y-56569103D01*
X86983276Y-56188707D01*
X87072529Y-55740000D01*
X86983276Y-55291293D01*
X86729103Y-54910897D01*
X86350617Y-54658000D01*
X86870939Y-54658000D01*
X87094405Y-54565437D01*
X87265438Y-54394404D01*
X87358000Y-54170938D01*
X87358000Y-53506000D01*
X87206000Y-53354000D01*
X86054000Y-53354000D01*
X86054000Y-53374000D01*
X85746000Y-53374000D01*
X85746000Y-53354000D01*
X84594000Y-53354000D01*
X84442000Y-53506000D01*
X80735000Y-53506000D01*
X80735000Y-52229062D01*
X84442000Y-52229062D01*
X84442000Y-52894000D01*
X84594000Y-53046000D01*
X85746000Y-53046000D01*
X85746000Y-51894000D01*
X86054000Y-51894000D01*
X86054000Y-53046000D01*
X87206000Y-53046000D01*
X87358000Y-52894000D01*
X87358000Y-52229062D01*
X87265438Y-52005596D01*
X87094405Y-51834563D01*
X86870939Y-51742000D01*
X86206000Y-51742000D01*
X86054000Y-51894000D01*
X85746000Y-51894000D01*
X85594000Y-51742000D01*
X84929061Y-51742000D01*
X84705595Y-51834563D01*
X84534562Y-52005596D01*
X84442000Y-52229062D01*
X80735000Y-52229062D01*
X80735000Y-44641855D01*
X80743326Y-44599999D01*
X80735000Y-44558142D01*
X80710341Y-44434173D01*
X80616408Y-44293592D01*
X80580922Y-44269881D01*
X79825000Y-43513960D01*
X79825000Y-38391857D01*
X79833326Y-38350000D01*
X79800341Y-38184173D01*
X79730118Y-38079077D01*
X79706408Y-38043592D01*
X79670922Y-38019881D01*
X78862637Y-37211596D01*
X78940000Y-37024825D01*
X78940000Y-36595175D01*
X78775579Y-36198229D01*
X78471771Y-35894421D01*
X78074825Y-35730000D01*
X77645175Y-35730000D01*
X77248229Y-35894421D01*
X77179999Y-35962651D01*
X77179999Y-35551041D01*
X77410119Y-35320922D01*
X77410121Y-35320919D01*
X77458404Y-35272636D01*
X77645175Y-35350000D01*
X78074825Y-35350000D01*
X78471771Y-35185579D01*
X78775579Y-34881771D01*
X78940000Y-34484825D01*
X78940000Y-34055175D01*
X78775579Y-33658229D01*
X78471771Y-33354421D01*
X78468128Y-33352912D01*
X79235923Y-32585118D01*
X79271409Y-32561407D01*
X79365342Y-32420826D01*
X79390001Y-32296857D01*
X79390001Y-32296856D01*
X79398327Y-32255000D01*
X79390001Y-32213144D01*
X79390001Y-30336856D01*
X79398327Y-30295000D01*
X79390001Y-30253143D01*
X79365342Y-30129174D01*
X79271409Y-29988593D01*
X79235924Y-29964883D01*
X78862637Y-29591596D01*
X78940000Y-29404825D01*
X78940000Y-28975175D01*
X78775579Y-28578229D01*
X78471771Y-28274421D01*
X78074825Y-28110000D01*
X77645175Y-28110000D01*
X77248229Y-28274421D01*
X76944421Y-28578229D01*
X76780000Y-28975175D01*
X76780000Y-29404825D01*
X76944421Y-29801771D01*
X77248229Y-30105579D01*
X77645175Y-30270000D01*
X78074825Y-30270000D01*
X78261596Y-30192637D01*
X78540001Y-30471042D01*
X78540001Y-30882651D01*
X78471771Y-30814421D01*
X78074825Y-30650000D01*
X77645175Y-30650000D01*
X77248229Y-30814421D01*
X76944421Y-31118229D01*
X76780000Y-31515175D01*
X76780000Y-31944825D01*
X76944421Y-32341771D01*
X77248229Y-32645579D01*
X77476178Y-32739999D01*
X77371456Y-32739999D01*
X77329599Y-32731673D01*
X77287741Y-32739999D01*
X77163772Y-32764658D01*
X77023191Y-32858591D01*
X76999480Y-32894077D01*
X76034069Y-33859489D01*
X75998580Y-33883202D01*
X75944865Y-33963593D01*
X75904647Y-34023784D01*
X75871662Y-34189610D01*
X75879988Y-34231468D01*
X75879989Y-39876716D01*
X75871662Y-39918578D01*
X75904647Y-40084404D01*
X75937523Y-40133606D01*
X75975009Y-40189708D01*
X75975010Y-40750290D01*
X75936796Y-40807481D01*
X75904647Y-40855596D01*
X75871662Y-41021422D01*
X75879988Y-41063280D01*
X75879989Y-44643126D01*
X75871662Y-44684988D01*
X75904647Y-44850814D01*
X75941793Y-44906407D01*
X75998581Y-44991396D01*
X76034067Y-45015107D01*
X76568247Y-45549287D01*
X64094787Y-45536253D01*
X72930922Y-36700119D01*
X72966408Y-36676408D01*
X73060341Y-36535827D01*
X73085000Y-36411858D01*
X73093326Y-36370000D01*
X73085000Y-36328143D01*
X73085000Y-32026040D01*
X77458404Y-27652636D01*
X77645175Y-27730000D01*
X78074825Y-27730000D01*
X78471771Y-27565579D01*
X78775579Y-27261771D01*
X78940000Y-26864825D01*
X78940000Y-26435175D01*
X78775579Y-26038229D01*
X78471771Y-25734421D01*
X78074825Y-25570000D01*
X77645175Y-25570000D01*
X77248229Y-25734421D01*
X76944421Y-26038229D01*
X76780000Y-26435175D01*
X76780000Y-26864825D01*
X76857364Y-27051596D01*
X72635000Y-31273960D01*
X72635000Y-29936040D01*
X77458404Y-25112637D01*
X77645175Y-25190000D01*
X78074825Y-25190000D01*
X78471771Y-25025579D01*
X78775579Y-24721771D01*
X78940000Y-24324825D01*
X78940000Y-23895175D01*
X78775579Y-23498229D01*
X78471771Y-23194421D01*
X78074825Y-23030000D01*
X77645175Y-23030000D01*
X77248229Y-23194421D01*
X76944421Y-23498229D01*
X76780000Y-23895175D01*
X76780000Y-24324825D01*
X76857363Y-24511596D01*
X72175000Y-29193960D01*
X72175000Y-27856040D01*
X77458404Y-22572637D01*
X77645175Y-22650000D01*
X78074825Y-22650000D01*
X78471771Y-22485579D01*
X78775579Y-22181771D01*
X78940000Y-21784825D01*
X78940000Y-21355175D01*
X78775579Y-20958229D01*
X78471771Y-20654421D01*
X78074825Y-20490000D01*
X77645175Y-20490000D01*
X77248229Y-20654421D01*
X76944421Y-20958229D01*
X76780000Y-21355175D01*
X76780000Y-21784825D01*
X76857363Y-21971596D01*
X71479079Y-27349881D01*
X71443593Y-27373592D01*
X71419882Y-27409078D01*
X71349659Y-27514174D01*
X71316674Y-27680000D01*
X71325001Y-27721862D01*
X71325000Y-35823960D01*
X61615298Y-45533662D01*
X60087720Y-45532066D01*
X60087720Y-45404577D01*
X60096046Y-45362720D01*
X60078834Y-45276187D01*
X60309171Y-45180779D01*
X60506085Y-44983865D01*
X60612653Y-44726586D01*
X60612653Y-44448108D01*
X60506085Y-44190829D01*
X60337653Y-44022397D01*
X60337653Y-43245280D01*
X60345979Y-43203423D01*
X60312994Y-43037596D01*
X60287645Y-42999659D01*
X60219061Y-42897015D01*
X60183576Y-42873305D01*
X59730427Y-42420156D01*
X59850761Y-42470000D01*
X60129239Y-42470000D01*
X60386518Y-42363432D01*
X60583432Y-42166518D01*
X60634142Y-42044092D01*
X60643482Y-42053432D01*
X60900761Y-42160000D01*
X61179239Y-42160000D01*
X61436518Y-42053432D01*
X61633432Y-41856518D01*
X61740000Y-41599239D01*
X61740000Y-41320761D01*
X61633432Y-41063482D01*
X61465000Y-40895050D01*
X61465000Y-39726172D01*
X61473326Y-39684314D01*
X61440341Y-39518488D01*
X61379116Y-39426858D01*
X61346408Y-39377907D01*
X61310922Y-39354197D01*
X60635806Y-38679081D01*
X60612093Y-38643592D01*
X60471512Y-38549659D01*
X60347543Y-38525000D01*
X60347542Y-38525000D01*
X60305685Y-38516674D01*
X60298127Y-38518177D01*
X60136518Y-38356568D01*
X59879239Y-38250000D01*
X59600761Y-38250000D01*
X59425040Y-38322786D01*
X59425040Y-36621639D01*
X63820933Y-32225747D01*
X63856416Y-32202038D01*
X63880125Y-32166555D01*
X63880127Y-32166553D01*
X63950350Y-32061457D01*
X63983335Y-31895630D01*
X63975008Y-31853768D01*
X63975010Y-25846226D01*
X63983336Y-25804369D01*
X63969422Y-25734421D01*
X63950351Y-25638544D01*
X63908608Y-25576071D01*
X63880128Y-25533447D01*
X63880127Y-25533446D01*
X63856418Y-25497963D01*
X63820935Y-25474254D01*
X59107442Y-20760761D01*
X59830000Y-20760761D01*
X59830000Y-21039239D01*
X59936568Y-21296518D01*
X60133482Y-21493432D01*
X60390761Y-21600000D01*
X60669239Y-21600000D01*
X60926518Y-21493432D01*
X61116193Y-21303757D01*
X61135079Y-21300000D01*
X61251757Y-21276791D01*
X61384069Y-21188384D01*
X61406388Y-21154981D01*
X62941370Y-19620000D01*
X76935403Y-19620000D01*
X76944421Y-19641771D01*
X77248229Y-19945579D01*
X77645175Y-20110000D01*
X78074825Y-20110000D01*
X78471771Y-19945579D01*
X78775579Y-19641771D01*
X78940000Y-19244825D01*
X78940000Y-18815175D01*
X78775579Y-18418229D01*
X78471771Y-18114421D01*
X78074825Y-17950000D01*
X77645175Y-17950000D01*
X77248229Y-18114421D01*
X76944421Y-18418229D01*
X76780000Y-18815175D01*
X76780000Y-18820000D01*
X76095684Y-18820000D01*
X77433404Y-17482281D01*
X77645175Y-17570000D01*
X78074825Y-17570000D01*
X78471771Y-17405579D01*
X78775579Y-17101771D01*
X78940000Y-16704825D01*
X78940000Y-16275175D01*
X78775579Y-15878229D01*
X78471771Y-15574421D01*
X78074825Y-15410000D01*
X77645175Y-15410000D01*
X77248229Y-15574421D01*
X76944421Y-15878229D01*
X76780000Y-16275175D01*
X76780000Y-16704825D01*
X76867719Y-16916596D01*
X75374316Y-18410000D01*
X62629392Y-18410000D01*
X62589999Y-18402164D01*
X62550607Y-18410000D01*
X62550606Y-18410000D01*
X62433928Y-18433209D01*
X62301616Y-18521616D01*
X62279301Y-18555013D01*
X62004314Y-18830001D01*
X61659392Y-18830001D01*
X61619998Y-18822165D01*
X61514205Y-18843209D01*
X61463927Y-18853210D01*
X61349001Y-18930000D01*
X61080761Y-18930000D01*
X60823482Y-19036568D01*
X60626568Y-19233482D01*
X60520000Y-19490761D01*
X60520000Y-19769239D01*
X60626568Y-20026518D01*
X60823482Y-20223432D01*
X61080761Y-20330000D01*
X61100001Y-20330000D01*
X61024975Y-20405025D01*
X60926518Y-20306568D01*
X60669239Y-20200000D01*
X60390761Y-20200000D01*
X60133482Y-20306568D01*
X59936568Y-20503482D01*
X59830000Y-20760761D01*
X59107442Y-20760761D01*
X55625000Y-17278320D01*
X55625000Y-14945444D01*
X77082344Y-14945444D01*
X77157699Y-15178635D01*
X77681336Y-15353869D01*
X78232173Y-15315378D01*
X78562301Y-15178635D01*
X78637656Y-14945444D01*
X77860000Y-14167789D01*
X77082344Y-14945444D01*
X55625000Y-14945444D01*
X55625000Y-13771336D01*
X76456131Y-13771336D01*
X76494622Y-14322173D01*
X76631365Y-14652301D01*
X76864556Y-14727656D01*
X77642211Y-13950000D01*
X78077789Y-13950000D01*
X78855444Y-14727656D01*
X79088635Y-14652301D01*
X79263869Y-14128664D01*
X79225378Y-13577827D01*
X79088635Y-13247699D01*
X78855444Y-13172344D01*
X78077789Y-13950000D01*
X77642211Y-13950000D01*
X76864556Y-13172344D01*
X76631365Y-13247699D01*
X76456131Y-13771336D01*
X55625000Y-13771336D01*
X55625000Y-13088771D01*
X55633326Y-13046914D01*
X55614955Y-12954556D01*
X77082344Y-12954556D01*
X77860000Y-13732211D01*
X78637656Y-12954556D01*
X78562301Y-12721365D01*
X78038664Y-12546131D01*
X77487827Y-12584622D01*
X77157699Y-12721365D01*
X77082344Y-12954556D01*
X55614955Y-12954556D01*
X55600341Y-12881087D01*
X55530118Y-12775991D01*
X55506408Y-12740506D01*
X55470923Y-12716796D01*
X53949302Y-11195175D01*
X76780000Y-11195175D01*
X76780000Y-11624825D01*
X76944421Y-12021771D01*
X77248229Y-12325579D01*
X77645175Y-12490000D01*
X78074825Y-12490000D01*
X78471771Y-12325579D01*
X78775579Y-12021771D01*
X78940000Y-11624825D01*
X78940000Y-11195175D01*
X78775579Y-10798229D01*
X78471771Y-10494421D01*
X78074825Y-10330000D01*
X77645175Y-10330000D01*
X77248229Y-10494421D01*
X76944421Y-10798229D01*
X76780000Y-11195175D01*
X53949302Y-11195175D01*
X53893207Y-11139081D01*
X53869494Y-11103592D01*
X53728913Y-11009659D01*
X53604944Y-10985000D01*
X53604943Y-10985000D01*
X53563086Y-10976674D01*
X53521229Y-10985000D01*
X53452942Y-10985000D01*
X53375579Y-10798229D01*
X53071771Y-10494421D01*
X52674825Y-10330000D01*
X52245175Y-10330000D01*
X51848229Y-10494421D01*
X51544421Y-10798229D01*
X51380000Y-11195175D01*
X51380000Y-11624825D01*
X51544421Y-12021771D01*
X51848229Y-12325579D01*
X52245175Y-12490000D01*
X52674825Y-12490000D01*
X53071771Y-12325579D01*
X53375579Y-12021771D01*
X53433642Y-11881596D01*
X54775000Y-13222955D01*
X54775001Y-13358140D01*
X54775000Y-13358143D01*
X54775000Y-14913960D01*
X53640121Y-13779081D01*
X53616408Y-13743592D01*
X53515581Y-13676221D01*
X53375579Y-13338229D01*
X53071771Y-13034421D01*
X52674825Y-12870000D01*
X52245175Y-12870000D01*
X51848229Y-13034421D01*
X51544421Y-13338229D01*
X51380000Y-13735175D01*
X51380000Y-14164825D01*
X51544421Y-14561771D01*
X51848229Y-14865579D01*
X52245175Y-15030000D01*
X52674825Y-15030000D01*
X53071771Y-14865579D01*
X53298155Y-14639195D01*
X54315000Y-15656041D01*
X54315001Y-17233960D01*
X53540000Y-16458960D01*
X53540000Y-16275175D01*
X53375579Y-15878229D01*
X53071771Y-15574421D01*
X52674825Y-15410000D01*
X52245175Y-15410000D01*
X51848229Y-15574421D01*
X51544421Y-15878229D01*
X51380000Y-16275175D01*
X51380000Y-16704825D01*
X51544421Y-17101771D01*
X51848229Y-17405579D01*
X52245175Y-17570000D01*
X52674825Y-17570000D01*
X53071771Y-17405579D01*
X53178155Y-17299195D01*
X53835425Y-17956465D01*
X53849881Y-17978101D01*
X53972699Y-18100919D01*
X53996412Y-18136408D01*
X54031900Y-18160120D01*
X54476780Y-18605000D01*
X53452942Y-18605000D01*
X53375579Y-18418229D01*
X53071771Y-18114421D01*
X52674825Y-17950000D01*
X52245175Y-17950000D01*
X51848229Y-18114421D01*
X51544421Y-18418229D01*
X51380000Y-18815175D01*
X51380000Y-19244825D01*
X51544421Y-19641771D01*
X51848229Y-19945579D01*
X52245175Y-20110000D01*
X52674825Y-20110000D01*
X53071771Y-19945579D01*
X53375579Y-19641771D01*
X53452942Y-19455000D01*
X54690370Y-19455000D01*
X56380370Y-21145000D01*
X53452942Y-21145000D01*
X53375579Y-20958229D01*
X53071771Y-20654421D01*
X52674825Y-20490000D01*
X52245175Y-20490000D01*
X51848229Y-20654421D01*
X51544421Y-20958229D01*
X51380000Y-21355175D01*
X51380000Y-21784825D01*
X51544421Y-22181771D01*
X51848229Y-22485579D01*
X52196888Y-22629999D01*
X50795685Y-22629999D01*
X49834508Y-21668823D01*
X50016518Y-21593432D01*
X50213432Y-21396518D01*
X50320000Y-21139239D01*
X50320000Y-21059950D01*
X50353482Y-21093432D01*
X50610761Y-21200000D01*
X50889239Y-21200000D01*
X51146518Y-21093432D01*
X51343432Y-20896518D01*
X51450000Y-20639239D01*
X51450000Y-20360761D01*
X51343432Y-20103482D01*
X51146518Y-19906568D01*
X50889239Y-19800000D01*
X50615684Y-19800000D01*
X50600701Y-19785017D01*
X50578383Y-19751615D01*
X50446071Y-19663208D01*
X50329393Y-19639999D01*
X50289999Y-19632163D01*
X50250605Y-19639999D01*
X20688306Y-19639999D01*
X20929103Y-19479103D01*
X21183276Y-19098707D01*
X21272529Y-18650000D01*
X21183276Y-18201293D01*
X20929103Y-17820897D01*
X20548707Y-17566724D01*
X20213261Y-17500000D01*
X19986739Y-17500000D01*
X19651293Y-17566724D01*
X19270897Y-17820897D01*
X19016724Y-18201293D01*
X18927471Y-18650000D01*
X19016724Y-19098707D01*
X19270897Y-19479103D01*
X19511694Y-19639999D01*
X18677262Y-19639999D01*
X18692593Y-19617054D01*
X18715877Y-19500000D01*
X18715877Y-17800000D01*
X18692593Y-17682946D01*
X18626288Y-17583712D01*
X18527054Y-17517407D01*
X18410000Y-17494123D01*
X16710000Y-17494123D01*
X16592946Y-17517407D01*
X16493712Y-17583712D01*
X16427407Y-17682946D01*
X16404123Y-17800000D01*
X16404123Y-19500000D01*
X16427407Y-19617054D01*
X16493712Y-19716288D01*
X16592946Y-19782593D01*
X16710000Y-19805877D01*
X17173225Y-19805877D01*
X17183209Y-19856071D01*
X17207674Y-19892685D01*
X17271617Y-19988384D01*
X17305016Y-20010700D01*
X17352968Y-20058652D01*
X17111293Y-20106724D01*
X16730897Y-20360897D01*
X16476724Y-20741293D01*
X16387471Y-21190000D01*
X16476724Y-21638707D01*
X16730897Y-22019103D01*
X17111293Y-22273276D01*
X17446739Y-22340000D01*
X17673261Y-22340000D01*
X18008707Y-22273276D01*
X18050000Y-22245685D01*
X18399300Y-22594985D01*
X18421617Y-22628385D01*
X18534678Y-22703929D01*
X18553929Y-22716792D01*
X18710000Y-22747837D01*
X18749394Y-22740001D01*
X19511694Y-22740001D01*
X19270897Y-22900897D01*
X19016724Y-23281293D01*
X18927471Y-23730000D01*
X19016724Y-24178707D01*
X19218043Y-24480001D01*
X18875686Y-24480001D01*
X18615685Y-24220000D01*
X18643276Y-24178707D01*
X18732529Y-23730000D01*
X18643276Y-23281293D01*
X18389103Y-22900897D01*
X18008707Y-22646724D01*
X17673261Y-22580000D01*
X17446739Y-22580000D01*
X17111293Y-22646724D01*
X16730897Y-22900897D01*
X16476724Y-23281293D01*
X16387471Y-23730000D01*
X16476724Y-24178707D01*
X16730897Y-24559103D01*
X17111293Y-24813276D01*
X17446739Y-24880000D01*
X17673261Y-24880000D01*
X18008707Y-24813276D01*
X18050000Y-24785685D01*
X18399300Y-25134985D01*
X18421617Y-25168385D01*
X18553929Y-25256792D01*
X18710000Y-25287837D01*
X18749394Y-25280001D01*
X19511694Y-25280001D01*
X19270897Y-25440897D01*
X19016724Y-25821293D01*
X18927471Y-26270000D01*
X19016724Y-26718707D01*
X19218043Y-27020001D01*
X18875686Y-27020001D01*
X18615685Y-26760000D01*
X18643276Y-26718707D01*
X18732529Y-26270000D01*
X18643276Y-25821293D01*
X18389103Y-25440897D01*
X18008707Y-25186724D01*
X17673261Y-25120000D01*
X17446739Y-25120000D01*
X17111293Y-25186724D01*
X16730897Y-25440897D01*
X16476724Y-25821293D01*
X16387471Y-26270000D01*
X16476724Y-26718707D01*
X16730897Y-27099103D01*
X17111293Y-27353276D01*
X17405998Y-27411896D01*
X17405998Y-27512143D01*
X17181089Y-27402085D01*
X16671146Y-27654259D01*
X16296523Y-28082384D01*
X16152097Y-28431090D01*
X16263111Y-28656000D01*
X17406000Y-28656000D01*
X17406000Y-28636000D01*
X17714000Y-28636000D01*
X17714000Y-28656000D01*
X17734000Y-28656000D01*
X17734000Y-28964000D01*
X17714000Y-28964000D01*
X17714000Y-28984000D01*
X17406000Y-28984000D01*
X17406000Y-28964000D01*
X16263111Y-28964000D01*
X16152097Y-29188910D01*
X16296523Y-29537616D01*
X16671146Y-29965741D01*
X17181089Y-30217915D01*
X17405998Y-30107857D01*
X17405998Y-30208104D01*
X17111293Y-30266724D01*
X16730897Y-30520897D01*
X16476724Y-30901293D01*
X16387471Y-31350000D01*
X16476724Y-31798707D01*
X16730897Y-32179103D01*
X17111293Y-32433276D01*
X17446739Y-32500000D01*
X17673261Y-32500000D01*
X18008707Y-32433276D01*
X18389103Y-32179103D01*
X18643276Y-31798707D01*
X18732529Y-31350000D01*
X18643276Y-30901293D01*
X18615685Y-30860000D01*
X18875686Y-30599999D01*
X19218043Y-30599999D01*
X19016724Y-30901293D01*
X18927471Y-31350000D01*
X19016724Y-31798707D01*
X19270897Y-32179103D01*
X19651293Y-32433276D01*
X19986739Y-32500000D01*
X20213261Y-32500000D01*
X20548707Y-32433276D01*
X20891318Y-32204350D01*
X34856400Y-32204350D01*
X34856400Y-33795650D01*
X35465363Y-35265818D01*
X36590582Y-36391037D01*
X38060750Y-37000000D01*
X39652050Y-37000000D01*
X41122218Y-36391037D01*
X42247437Y-35265818D01*
X42856400Y-33795650D01*
X42856400Y-32204350D01*
X42247437Y-30734182D01*
X41122218Y-29608963D01*
X39652050Y-29000000D01*
X38060750Y-29000000D01*
X36590582Y-29608963D01*
X35465363Y-30734182D01*
X34856400Y-32204350D01*
X20891318Y-32204350D01*
X20929103Y-32179103D01*
X21183276Y-31798707D01*
X21272529Y-31350000D01*
X21183276Y-30901293D01*
X20929103Y-30520897D01*
X20722701Y-30382983D01*
X27845686Y-23260000D01*
X46384316Y-23260000D01*
X47900000Y-24775685D01*
X47900000Y-25049239D01*
X48006568Y-25306518D01*
X48203482Y-25503432D01*
X48460761Y-25610000D01*
X48739239Y-25610000D01*
X48996518Y-25503432D01*
X49193432Y-25306518D01*
X49300000Y-25049239D01*
X49300000Y-25045685D01*
X49640000Y-25385685D01*
X49640000Y-25760050D01*
X49446568Y-25953482D01*
X49340000Y-26210761D01*
X49340000Y-26489239D01*
X49446568Y-26746518D01*
X49643482Y-26943432D01*
X49900761Y-27050000D01*
X50179239Y-27050000D01*
X50436518Y-26943432D01*
X50580000Y-26799950D01*
X50580001Y-42910601D01*
X50572164Y-42950000D01*
X50603209Y-43106071D01*
X50603210Y-43106072D01*
X50691617Y-43238384D01*
X50725017Y-43260701D01*
X51467719Y-44003403D01*
X51380000Y-44215175D01*
X51380000Y-44644825D01*
X51544421Y-45041771D01*
X51848229Y-45345579D01*
X52245175Y-45510000D01*
X52674825Y-45510000D01*
X53071771Y-45345579D01*
X53375579Y-45041771D01*
X53540000Y-44644825D01*
X53540000Y-44215175D01*
X53375579Y-43818229D01*
X53071771Y-43514421D01*
X52674825Y-43350000D01*
X52245175Y-43350000D01*
X52033403Y-43437719D01*
X51380000Y-42784316D01*
X51380000Y-42104825D01*
X51544421Y-42501771D01*
X51848229Y-42805579D01*
X52245175Y-42970000D01*
X52674825Y-42970000D01*
X53071771Y-42805579D01*
X53375579Y-42501771D01*
X53540000Y-42104825D01*
X53540000Y-41675175D01*
X53375579Y-41278229D01*
X53071771Y-40974421D01*
X52674825Y-40810000D01*
X52245175Y-40810000D01*
X51848229Y-40974421D01*
X51544421Y-41278229D01*
X51380000Y-41675175D01*
X51380000Y-39564825D01*
X51544421Y-39961771D01*
X51848229Y-40265579D01*
X52245175Y-40430000D01*
X52674825Y-40430000D01*
X53071771Y-40265579D01*
X53375579Y-39961771D01*
X53540000Y-39564825D01*
X53540000Y-39135175D01*
X53375579Y-38738229D01*
X53071771Y-38434421D01*
X52674825Y-38270000D01*
X52245175Y-38270000D01*
X51848229Y-38434421D01*
X51544421Y-38738229D01*
X51380000Y-39135175D01*
X51380000Y-37024825D01*
X51544421Y-37421771D01*
X51848229Y-37725579D01*
X52245175Y-37890000D01*
X52674825Y-37890000D01*
X53071771Y-37725579D01*
X53375579Y-37421771D01*
X53540000Y-37024825D01*
X53540000Y-36595175D01*
X53375579Y-36198229D01*
X53071771Y-35894421D01*
X52674825Y-35730000D01*
X52245175Y-35730000D01*
X51848229Y-35894421D01*
X51544421Y-36198229D01*
X51380000Y-36595175D01*
X51380000Y-34484825D01*
X51544421Y-34881771D01*
X51848229Y-35185579D01*
X52245175Y-35350000D01*
X52674825Y-35350000D01*
X53071771Y-35185579D01*
X53375579Y-34881771D01*
X53540000Y-34484825D01*
X53540000Y-34055175D01*
X53375579Y-33658229D01*
X53071771Y-33354421D01*
X52674825Y-33190000D01*
X52245175Y-33190000D01*
X51848229Y-33354421D01*
X51544421Y-33658229D01*
X51380000Y-34055175D01*
X51380000Y-32725444D01*
X51682344Y-32725444D01*
X51757699Y-32958635D01*
X52281336Y-33133869D01*
X52832173Y-33095378D01*
X53162301Y-32958635D01*
X53237656Y-32725444D01*
X52460000Y-31947789D01*
X51682344Y-32725444D01*
X51380000Y-32725444D01*
X51380000Y-32480332D01*
X51464556Y-32507656D01*
X52242211Y-31730000D01*
X52677789Y-31730000D01*
X53455444Y-32507656D01*
X53688635Y-32432301D01*
X53863869Y-31908664D01*
X53825378Y-31357827D01*
X53688635Y-31027699D01*
X53455444Y-30952344D01*
X52677789Y-31730000D01*
X52242211Y-31730000D01*
X51464556Y-30952344D01*
X51380000Y-30979668D01*
X51380000Y-30734556D01*
X51682344Y-30734556D01*
X52460000Y-31512211D01*
X53237656Y-30734556D01*
X53162301Y-30501365D01*
X52638664Y-30326131D01*
X52087827Y-30364622D01*
X51757699Y-30501365D01*
X51682344Y-30734556D01*
X51380000Y-30734556D01*
X51380000Y-29404825D01*
X51544421Y-29801771D01*
X51848229Y-30105579D01*
X52245175Y-30270000D01*
X52674825Y-30270000D01*
X53071771Y-30105579D01*
X53375579Y-29801771D01*
X53540000Y-29404825D01*
X53540000Y-28975175D01*
X53375579Y-28578229D01*
X53071771Y-28274421D01*
X52674825Y-28110000D01*
X52245175Y-28110000D01*
X52033403Y-28197719D01*
X51780000Y-27944316D01*
X51780000Y-27497350D01*
X51848229Y-27565579D01*
X52245175Y-27730000D01*
X52674825Y-27730000D01*
X53071771Y-27565579D01*
X53375579Y-27261771D01*
X53540000Y-26864825D01*
X53540000Y-26435175D01*
X53375579Y-26038229D01*
X53071771Y-25734421D01*
X52693366Y-25577680D01*
X52305686Y-25190000D01*
X52674825Y-25190000D01*
X52684820Y-25185860D01*
X53540000Y-26041041D01*
X53540000Y-26279239D01*
X53646568Y-26536518D01*
X53843482Y-26733432D01*
X54100761Y-26840000D01*
X54379239Y-26840000D01*
X54636518Y-26733432D01*
X54833432Y-26536518D01*
X54940000Y-26279239D01*
X54940000Y-26000761D01*
X54833432Y-25743482D01*
X54636518Y-25546568D01*
X54379239Y-25440000D01*
X54141041Y-25440000D01*
X53389413Y-24688373D01*
X53540000Y-24324825D01*
X53540000Y-23895175D01*
X53375579Y-23498229D01*
X53307349Y-23429999D01*
X56100607Y-23429999D01*
X56140001Y-23437835D01*
X56179395Y-23429999D01*
X56296073Y-23406790D01*
X56428385Y-23318383D01*
X56450703Y-23284981D01*
X56505685Y-23230000D01*
X56779239Y-23230000D01*
X57036518Y-23123432D01*
X57233432Y-22926518D01*
X57318970Y-22720010D01*
X61275001Y-26676042D01*
X61275000Y-31023959D01*
X56929079Y-35369881D01*
X56893593Y-35393592D01*
X56869882Y-35429078D01*
X56799659Y-35534174D01*
X56766674Y-35700000D01*
X56775001Y-35741862D01*
X56775000Y-43335050D01*
X56606568Y-43503482D01*
X56500000Y-43760761D01*
X56500000Y-44039239D01*
X56606568Y-44296518D01*
X56803482Y-44493432D01*
X57060761Y-44600000D01*
X57213046Y-44600000D01*
X57213046Y-44826782D01*
X57319614Y-45084061D01*
X57516528Y-45280975D01*
X57773807Y-45387543D01*
X57905551Y-45387543D01*
X57905551Y-45529786D01*
X50793322Y-45522354D01*
X50755093Y-45529907D01*
X50722617Y-45551533D01*
X50700890Y-45583942D01*
X50693218Y-45622198D01*
X50689404Y-48075000D01*
X26191857Y-48075000D01*
X26150000Y-48066674D01*
X26108142Y-48075000D01*
X25984173Y-48099659D01*
X25843592Y-48193592D01*
X25819881Y-48229078D01*
X14979079Y-59069881D01*
X14943593Y-59093592D01*
X14919882Y-59129078D01*
X14849659Y-59234174D01*
X14827789Y-59344123D01*
X14600000Y-59344123D01*
X14482946Y-59367407D01*
X14383712Y-59433712D01*
X14317407Y-59532946D01*
X14294123Y-59650000D01*
X14294123Y-61150000D01*
X14317407Y-61267054D01*
X14383712Y-61366288D01*
X14482946Y-61432593D01*
X14600000Y-61455877D01*
X15900000Y-61455877D01*
X16017054Y-61432593D01*
X16116288Y-61366288D01*
X16182593Y-61267054D01*
X16205877Y-61150000D01*
X16205877Y-59650000D01*
X16182593Y-59532946D01*
X16116288Y-59433712D01*
X16017054Y-59367407D01*
X15905769Y-59345271D01*
X19075001Y-56176039D01*
X19075000Y-59344123D01*
X18850000Y-59344123D01*
X18732946Y-59367407D01*
X18633712Y-59433712D01*
X18567407Y-59532946D01*
X18544123Y-59650000D01*
X18544123Y-61150000D01*
X18567407Y-61267054D01*
X18633712Y-61366288D01*
X18732946Y-61432593D01*
X18850000Y-61455877D01*
X20150000Y-61455877D01*
X20267054Y-61432593D01*
X20366288Y-61366288D01*
X20432593Y-61267054D01*
X20455877Y-61150000D01*
X20455877Y-59650000D01*
X20432593Y-59532946D01*
X20366288Y-59433712D01*
X20267054Y-59367407D01*
X20150000Y-59344123D01*
X19925000Y-59344123D01*
X19925000Y-55966040D01*
X23325000Y-52566040D01*
X23325001Y-59344123D01*
X23100000Y-59344123D01*
X22982946Y-59367407D01*
X22883712Y-59433712D01*
X22817407Y-59532946D01*
X22794123Y-59650000D01*
X22794123Y-61150000D01*
X22817407Y-61267054D01*
X22883712Y-61366288D01*
X22982946Y-61432593D01*
X23100000Y-61455877D01*
X24400000Y-61455877D01*
X24517054Y-61432593D01*
X24616288Y-61366288D01*
X24682593Y-61267054D01*
X24705877Y-61150000D01*
X24705877Y-59650000D01*
X24682593Y-59532946D01*
X24616288Y-59433712D01*
X24517054Y-59367407D01*
X24400000Y-59344123D01*
X24175000Y-59344123D01*
X24175000Y-52356040D01*
X26706041Y-49825000D01*
X50686682Y-49825000D01*
X50678914Y-54820000D01*
X31458783Y-54820000D01*
X31379999Y-54804329D01*
X31301215Y-54820000D01*
X31301211Y-54820000D01*
X31067856Y-54866417D01*
X30803233Y-55043233D01*
X30758604Y-55110025D01*
X25128603Y-60740027D01*
X24996418Y-60937856D01*
X24934329Y-61250000D01*
X24996418Y-61562144D01*
X25173233Y-61826767D01*
X25437856Y-62003582D01*
X25750000Y-62065671D01*
X26062144Y-62003582D01*
X26221579Y-61897051D01*
X26128603Y-61990027D01*
X25996418Y-62187856D01*
X25934329Y-62500000D01*
X25996418Y-62812144D01*
X26173233Y-63076767D01*
X26200000Y-63094652D01*
X26200000Y-63119854D01*
X26200001Y-63119859D01*
X26200000Y-64382185D01*
X24405877Y-66176309D01*
X24405877Y-64550000D01*
X24382593Y-64432946D01*
X24316288Y-64333712D01*
X24217054Y-64267407D01*
X24125000Y-64249096D01*
X24125000Y-64155877D01*
X24400000Y-64155877D01*
X24517054Y-64132593D01*
X24616288Y-64066288D01*
X24682593Y-63967054D01*
X24705877Y-63850000D01*
X24705877Y-62350000D01*
X24682593Y-62232946D01*
X24616288Y-62133712D01*
X24517054Y-62067407D01*
X24400000Y-62044123D01*
X23100000Y-62044123D01*
X22982946Y-62067407D01*
X22883712Y-62133712D01*
X22817407Y-62232946D01*
X22794123Y-62350000D01*
X22794123Y-63850000D01*
X22817407Y-63967054D01*
X22883712Y-64066288D01*
X22982946Y-64132593D01*
X23100000Y-64155877D01*
X23275001Y-64155877D01*
X23275001Y-64249096D01*
X23182946Y-64267407D01*
X23083712Y-64333712D01*
X23017407Y-64432946D01*
X22994123Y-64550000D01*
X22994123Y-66450000D01*
X22808000Y-66450000D01*
X22808000Y-65806000D01*
X22656000Y-65654000D01*
X21954000Y-65654000D01*
X21954000Y-65674000D01*
X21646000Y-65674000D01*
X21646000Y-65654000D01*
X20944000Y-65654000D01*
X20792000Y-65806000D01*
X20792000Y-66450000D01*
X20155877Y-66450000D01*
X20155877Y-64550000D01*
X20132593Y-64432946D01*
X20129998Y-64429061D01*
X20792000Y-64429061D01*
X20792000Y-65194000D01*
X20944000Y-65346000D01*
X21646000Y-65346000D01*
X21646000Y-64094000D01*
X21954000Y-64094000D01*
X21954000Y-65346000D01*
X22656000Y-65346000D01*
X22808000Y-65194000D01*
X22808000Y-64429061D01*
X22715437Y-64205595D01*
X22544404Y-64034562D01*
X22320938Y-63942000D01*
X22106000Y-63942000D01*
X21954000Y-64094000D01*
X21646000Y-64094000D01*
X21494000Y-63942000D01*
X21279062Y-63942000D01*
X21055596Y-64034562D01*
X20884563Y-64205595D01*
X20792000Y-64429061D01*
X20129998Y-64429061D01*
X20066288Y-64333712D01*
X19967054Y-64267407D01*
X19875000Y-64249096D01*
X19875000Y-64155877D01*
X20150000Y-64155877D01*
X20267054Y-64132593D01*
X20366288Y-64066288D01*
X20432593Y-63967054D01*
X20455877Y-63850000D01*
X20455877Y-62350000D01*
X20432593Y-62232946D01*
X20366288Y-62133712D01*
X20267054Y-62067407D01*
X20150000Y-62044123D01*
X18850000Y-62044123D01*
X18732946Y-62067407D01*
X18633712Y-62133712D01*
X18567407Y-62232946D01*
X18544123Y-62350000D01*
X18544123Y-63850000D01*
X18567407Y-63967054D01*
X18633712Y-64066288D01*
X18732946Y-64132593D01*
X18850000Y-64155877D01*
X19025001Y-64155877D01*
X19025001Y-64249096D01*
X18932946Y-64267407D01*
X18833712Y-64333712D01*
X18767407Y-64432946D01*
X18744123Y-64550000D01*
X18744123Y-66450000D01*
X18558000Y-66450000D01*
X18558000Y-65806000D01*
X18406000Y-65654000D01*
X17704000Y-65654000D01*
X17704000Y-65674000D01*
X17396000Y-65674000D01*
X17396000Y-65654000D01*
X16694000Y-65654000D01*
X16542000Y-65806000D01*
X16542000Y-66570939D01*
X16634563Y-66794405D01*
X16805596Y-66965438D01*
X17029062Y-67058000D01*
X17064183Y-67058000D01*
X14955877Y-69166307D01*
X14955877Y-67550000D01*
X14932593Y-67432946D01*
X14866288Y-67333712D01*
X14767054Y-67267407D01*
X14650000Y-67244123D01*
X13850000Y-67244123D01*
X13732946Y-67267407D01*
X13633712Y-67333712D01*
X13567407Y-67432946D01*
X13544123Y-67550000D01*
X13544123Y-68077789D01*
X13434173Y-68099659D01*
X13293592Y-68193592D01*
X13269881Y-68229078D01*
X12979078Y-68519881D01*
X12943593Y-68543592D01*
X12919882Y-68579078D01*
X12849659Y-68684174D01*
X12816674Y-68850000D01*
X12825001Y-68891862D01*
X12825001Y-69844123D01*
X12600000Y-69844123D01*
X12482946Y-69867407D01*
X12383712Y-69933712D01*
X12317407Y-70032946D01*
X12294123Y-70150000D01*
X9007782Y-70150000D01*
X8471037Y-68854182D01*
X7345818Y-67728963D01*
X5875650Y-67120000D01*
X4284350Y-67120000D01*
X2814182Y-67728963D01*
X1688963Y-68854182D01*
X1080000Y-70324350D01*
X438570Y-70324350D01*
X400000Y-69834283D01*
X400000Y-65806000D01*
X12292000Y-65806000D01*
X12292000Y-66570939D01*
X12384563Y-66794405D01*
X12555596Y-66965438D01*
X12779062Y-67058000D01*
X12994000Y-67058000D01*
X13146000Y-66906000D01*
X13146000Y-65654000D01*
X13454000Y-65654000D01*
X13454000Y-66906000D01*
X13606000Y-67058000D01*
X13820938Y-67058000D01*
X14044404Y-66965438D01*
X14215437Y-66794405D01*
X14308000Y-66570939D01*
X14308000Y-65806000D01*
X14156000Y-65654000D01*
X13454000Y-65654000D01*
X13146000Y-65654000D01*
X12444000Y-65654000D01*
X12292000Y-65806000D01*
X400000Y-65806000D01*
X400000Y-64429061D01*
X12292000Y-64429061D01*
X12292000Y-65194000D01*
X12444000Y-65346000D01*
X13146000Y-65346000D01*
X13146000Y-64094000D01*
X13454000Y-64094000D01*
X13454000Y-65346000D01*
X14156000Y-65346000D01*
X14308000Y-65194000D01*
X14308000Y-64429061D01*
X14215437Y-64205595D01*
X14044404Y-64034562D01*
X13820938Y-63942000D01*
X13606000Y-63942000D01*
X13454000Y-64094000D01*
X13146000Y-64094000D01*
X12994000Y-63942000D01*
X12779062Y-63942000D01*
X12555596Y-64034562D01*
X12384563Y-64205595D01*
X12292000Y-64429061D01*
X400000Y-64429061D01*
X400000Y-62350000D01*
X14294123Y-62350000D01*
X14294123Y-63850000D01*
X14317407Y-63967054D01*
X14383712Y-64066288D01*
X14482946Y-64132593D01*
X14600000Y-64155877D01*
X14775001Y-64155877D01*
X14775001Y-64249096D01*
X14682946Y-64267407D01*
X14583712Y-64333712D01*
X14517407Y-64432946D01*
X14494123Y-64550000D01*
X14494123Y-66450000D01*
X14517407Y-66567054D01*
X14583712Y-66666288D01*
X14682946Y-66732593D01*
X14800000Y-66755877D01*
X15600000Y-66755877D01*
X15717054Y-66732593D01*
X15816288Y-66666288D01*
X15882593Y-66567054D01*
X15905877Y-66450000D01*
X15905877Y-64550000D01*
X15882593Y-64432946D01*
X15879998Y-64429061D01*
X16542000Y-64429061D01*
X16542000Y-65194000D01*
X16694000Y-65346000D01*
X17396000Y-65346000D01*
X17396000Y-64094000D01*
X17704000Y-64094000D01*
X17704000Y-65346000D01*
X18406000Y-65346000D01*
X18558000Y-65194000D01*
X18558000Y-64429061D01*
X18465437Y-64205595D01*
X18294404Y-64034562D01*
X18070938Y-63942000D01*
X17856000Y-63942000D01*
X17704000Y-64094000D01*
X17396000Y-64094000D01*
X17244000Y-63942000D01*
X17029062Y-63942000D01*
X16805596Y-64034562D01*
X16634563Y-64205595D01*
X16542000Y-64429061D01*
X15879998Y-64429061D01*
X15816288Y-64333712D01*
X15717054Y-64267407D01*
X15625000Y-64249096D01*
X15625000Y-64155877D01*
X15900000Y-64155877D01*
X16017054Y-64132593D01*
X16116288Y-64066288D01*
X16182593Y-63967054D01*
X16205877Y-63850000D01*
X16205877Y-62350000D01*
X16182593Y-62232946D01*
X16116288Y-62133712D01*
X16017054Y-62067407D01*
X15900000Y-62044123D01*
X14600000Y-62044123D01*
X14482946Y-62067407D01*
X14383712Y-62133712D01*
X14317407Y-62232946D01*
X14294123Y-62350000D01*
X400000Y-62350000D01*
X400000Y-32204350D01*
X7143600Y-32204350D01*
X7143600Y-33795650D01*
X7752563Y-35265818D01*
X8877782Y-36391037D01*
X10347950Y-37000000D01*
X11939250Y-37000000D01*
X13409418Y-36391037D01*
X14534637Y-35265818D01*
X15143600Y-33795650D01*
X15143600Y-32204350D01*
X14534637Y-30734182D01*
X13409418Y-29608963D01*
X11939250Y-29000000D01*
X10347950Y-29000000D01*
X8877782Y-29608963D01*
X7752563Y-30734182D01*
X7143600Y-32204350D01*
X400000Y-32204350D01*
X400000Y-6365717D01*
X474476Y-5419408D01*
X692390Y-4511732D01*
X786574Y-4284350D01*
X1080000Y-4284350D01*
X1080000Y-5875650D01*
X1688963Y-7345818D01*
X2814182Y-8471037D01*
X4284350Y-9080000D01*
X5875650Y-9080000D01*
X7345818Y-8471037D01*
X7612505Y-8204350D01*
X21000000Y-8204350D01*
X21000000Y-9795650D01*
X21608963Y-11265818D01*
X22734182Y-12391037D01*
X24204350Y-13000000D01*
X25795650Y-13000000D01*
X27265818Y-12391037D01*
X28391037Y-11265818D01*
X29000000Y-9795650D01*
X29000000Y-8655175D01*
X51380000Y-8655175D01*
X51380000Y-9084825D01*
X51544421Y-9481771D01*
X51848229Y-9785579D01*
X52245175Y-9950000D01*
X52674825Y-9950000D01*
X53071771Y-9785579D01*
X53375579Y-9481771D01*
X53540000Y-9084825D01*
X53540000Y-8655175D01*
X76780000Y-8655175D01*
X76780000Y-9084825D01*
X76944421Y-9481771D01*
X77248229Y-9785579D01*
X77645175Y-9950000D01*
X78074825Y-9950000D01*
X78471771Y-9785579D01*
X78775579Y-9481771D01*
X78940000Y-9084825D01*
X78940000Y-8655175D01*
X78775579Y-8258229D01*
X78471771Y-7954421D01*
X78074825Y-7790000D01*
X77645175Y-7790000D01*
X77248229Y-7954421D01*
X76944421Y-8258229D01*
X76780000Y-8655175D01*
X53540000Y-8655175D01*
X53375579Y-8258229D01*
X53071771Y-7954421D01*
X52674825Y-7790000D01*
X52245175Y-7790000D01*
X51848229Y-7954421D01*
X51544421Y-8258229D01*
X51380000Y-8655175D01*
X29000000Y-8655175D01*
X29000000Y-8204350D01*
X28391037Y-6734182D01*
X27772030Y-6115175D01*
X51380000Y-6115175D01*
X51380000Y-6544825D01*
X51544421Y-6941771D01*
X51848229Y-7245579D01*
X52245175Y-7410000D01*
X52674825Y-7410000D01*
X53071771Y-7245579D01*
X53375579Y-6941771D01*
X53540000Y-6544825D01*
X53540000Y-6115175D01*
X76780000Y-6115175D01*
X76780000Y-6544825D01*
X76944421Y-6941771D01*
X77248229Y-7245579D01*
X77645175Y-7410000D01*
X78074825Y-7410000D01*
X78471771Y-7245579D01*
X78775579Y-6941771D01*
X78940000Y-6544825D01*
X78940000Y-6115175D01*
X78775579Y-5718229D01*
X78471771Y-5414421D01*
X78074825Y-5250000D01*
X77645175Y-5250000D01*
X77248229Y-5414421D01*
X76944421Y-5718229D01*
X76780000Y-6115175D01*
X53540000Y-6115175D01*
X53375579Y-5718229D01*
X53071771Y-5414421D01*
X52674825Y-5250000D01*
X52245175Y-5250000D01*
X51848229Y-5414421D01*
X51544421Y-5718229D01*
X51380000Y-6115175D01*
X27772030Y-6115175D01*
X27265818Y-5608963D01*
X25795650Y-5000000D01*
X24204350Y-5000000D01*
X22734182Y-5608963D01*
X21608963Y-6734182D01*
X21000000Y-8204350D01*
X7612505Y-8204350D01*
X8471037Y-7345818D01*
X9080000Y-5875650D01*
X9080000Y-4284350D01*
X8786251Y-3575175D01*
X51380000Y-3575175D01*
X51380000Y-4004825D01*
X51544421Y-4401771D01*
X51848229Y-4705579D01*
X52245175Y-4870000D01*
X52674825Y-4870000D01*
X53071771Y-4705579D01*
X53375579Y-4401771D01*
X53540000Y-4004825D01*
X53540000Y-3575175D01*
X76780000Y-3575175D01*
X76780000Y-4004825D01*
X76944421Y-4401771D01*
X77248229Y-4705579D01*
X77645175Y-4870000D01*
X78074825Y-4870000D01*
X78471771Y-4705579D01*
X78775579Y-4401771D01*
X78824216Y-4284350D01*
X79820000Y-4284350D01*
X79820000Y-5875650D01*
X80428963Y-7345818D01*
X81554182Y-8471037D01*
X83024350Y-9080000D01*
X84615650Y-9080000D01*
X86085818Y-8471037D01*
X87211037Y-7345818D01*
X87820000Y-5875650D01*
X87820000Y-4284350D01*
X87211037Y-2814182D01*
X86085818Y-1688963D01*
X84615650Y-1080000D01*
X83024350Y-1080000D01*
X81554182Y-1688963D01*
X80428963Y-2814182D01*
X79820000Y-4284350D01*
X78824216Y-4284350D01*
X78940000Y-4004825D01*
X78940000Y-3575175D01*
X78775579Y-3178229D01*
X78471771Y-2874421D01*
X78074825Y-2710000D01*
X77645175Y-2710000D01*
X77248229Y-2874421D01*
X76944421Y-3178229D01*
X76780000Y-3575175D01*
X53540000Y-3575175D01*
X53375579Y-3178229D01*
X53071771Y-2874421D01*
X52674825Y-2710000D01*
X52245175Y-2710000D01*
X51848229Y-2874421D01*
X51544421Y-3178229D01*
X51380000Y-3575175D01*
X8786251Y-3575175D01*
X8471037Y-2814182D01*
X7345818Y-1688963D01*
X5875650Y-1080000D01*
X4284350Y-1080000D01*
X2814182Y-1688963D01*
X1688963Y-2814182D01*
X1080000Y-4284350D01*
X786574Y-4284350D01*
X1049614Y-3649316D01*
X1537350Y-2853404D01*
X2143593Y-2143586D01*
X2853404Y-1537350D01*
X3649317Y-1049614D01*
X4511734Y-692389D01*
X5419408Y-474476D01*
X6365717Y-400000D01*
X51782650Y-400000D01*
X51544421Y-638229D01*
X51544421Y-638229D01*
G37*
X51544421Y-638229D02*
X51380000Y-1035175D01*
X51380000Y-1464825D01*
X51544421Y-1861771D01*
X51848229Y-2165579D01*
X52245175Y-2330000D01*
X52674825Y-2330000D01*
X53071771Y-2165579D01*
X53375579Y-1861771D01*
X53540000Y-1464825D01*
X53540000Y-1035175D01*
X53375579Y-638229D01*
X53137350Y-400000D01*
X77182650Y-400000D01*
X76944421Y-638229D01*
X76780000Y-1035175D01*
X76780000Y-1464825D01*
X76944421Y-1861771D01*
X77248229Y-2165579D01*
X77645175Y-2330000D01*
X78074825Y-2330000D01*
X78471771Y-2165579D01*
X78775579Y-1861771D01*
X78940000Y-1464825D01*
X78940000Y-1035175D01*
X78775579Y-638229D01*
X78537350Y-400000D01*
X82534283Y-400000D01*
X83480592Y-474476D01*
X84388268Y-692390D01*
X85250684Y-1049614D01*
X86046596Y-1537350D01*
X86756414Y-2143593D01*
X87362650Y-2853404D01*
X87850386Y-3649317D01*
X88207611Y-4511734D01*
X88425524Y-5419408D01*
X88500000Y-6365717D01*
X88500001Y-69834270D01*
X88425524Y-70780592D01*
X88207611Y-71688266D01*
X87850386Y-72550683D01*
X87362650Y-73346596D01*
X86756414Y-74056407D01*
X86046596Y-74662650D01*
X85250684Y-75150386D01*
X84388268Y-75507610D01*
X83480592Y-75725524D01*
X82534283Y-75800000D01*
X6365717Y-75800000D01*
X5419408Y-75725524D01*
X4511734Y-75507611D01*
X3649317Y-75150386D01*
X2853404Y-74662650D01*
X2143593Y-74056414D01*
X1537350Y-73346596D01*
X1049614Y-72550684D01*
X692390Y-71688268D01*
X474476Y-70780592D01*
X438570Y-70324350D01*
X1080000Y-70324350D01*
X1080000Y-71915650D01*
X1688963Y-73385818D01*
X2814182Y-74511037D01*
X4284350Y-75120000D01*
X5875650Y-75120000D01*
X7345818Y-74511037D01*
X8471037Y-73385818D01*
X8692979Y-72850000D01*
X12294123Y-72850000D01*
X12294123Y-74350000D01*
X12317407Y-74467054D01*
X12383712Y-74566288D01*
X12482946Y-74632593D01*
X12600000Y-74655877D01*
X13900000Y-74655877D01*
X14017054Y-74632593D01*
X14116288Y-74566288D01*
X14182593Y-74467054D01*
X14205877Y-74350000D01*
X14205877Y-74025000D01*
X14294123Y-74025000D01*
X14294123Y-74350000D01*
X14317407Y-74467054D01*
X14383712Y-74566288D01*
X14482946Y-74632593D01*
X14600000Y-74655877D01*
X15900000Y-74655877D01*
X16017054Y-74632593D01*
X16116288Y-74566288D01*
X16182593Y-74467054D01*
X16205877Y-74350000D01*
X16205877Y-72850000D01*
X16544123Y-72850000D01*
X16544123Y-74350000D01*
X16567407Y-74467054D01*
X16633712Y-74566288D01*
X16732946Y-74632593D01*
X16850000Y-74655877D01*
X18150000Y-74655877D01*
X18267054Y-74632593D01*
X18366288Y-74566288D01*
X18432593Y-74467054D01*
X18455877Y-74350000D01*
X18455877Y-74025000D01*
X18544123Y-74025000D01*
X18544123Y-74350000D01*
X18567407Y-74467054D01*
X18633712Y-74566288D01*
X18732946Y-74632593D01*
X18850000Y-74655877D01*
X20150000Y-74655877D01*
X20267054Y-74632593D01*
X20366288Y-74566288D01*
X20432593Y-74467054D01*
X20455877Y-74350000D01*
X20455877Y-72850000D01*
X20794123Y-72850000D01*
X20794123Y-74350000D01*
X20817407Y-74467054D01*
X20883712Y-74566288D01*
X20982946Y-74632593D01*
X21100000Y-74655877D01*
X22400000Y-74655877D01*
X22517054Y-74632593D01*
X22616288Y-74566288D01*
X22682593Y-74467054D01*
X22705877Y-74350000D01*
X22705877Y-74025000D01*
X22794123Y-74025000D01*
X22794123Y-74350000D01*
X22817407Y-74467054D01*
X22883712Y-74566288D01*
X22982946Y-74632593D01*
X23100000Y-74655877D01*
X24400000Y-74655877D01*
X24517054Y-74632593D01*
X24616288Y-74566288D01*
X24682593Y-74467054D01*
X24705877Y-74350000D01*
X24705877Y-74156000D01*
X30742000Y-74156000D01*
X30742000Y-74720939D01*
X30834563Y-74944405D01*
X31005596Y-75115438D01*
X31229062Y-75208000D01*
X31694000Y-75208000D01*
X31846000Y-75056000D01*
X31846000Y-74004000D01*
X32154000Y-74004000D01*
X32154000Y-75056000D01*
X32306000Y-75208000D01*
X32770938Y-75208000D01*
X32994404Y-75115438D01*
X33012501Y-75097342D01*
X33030597Y-75115438D01*
X33254063Y-75208000D01*
X33719001Y-75208000D01*
X33871001Y-75056000D01*
X33871001Y-74004000D01*
X34179001Y-74004000D01*
X34179001Y-75056000D01*
X34331001Y-75208000D01*
X34795939Y-75208000D01*
X35012500Y-75118298D01*
X35229062Y-75208000D01*
X35694000Y-75208000D01*
X35846000Y-75056000D01*
X35846000Y-74004000D01*
X36154000Y-74004000D01*
X36154000Y-75056000D01*
X36306000Y-75208000D01*
X36770938Y-75208000D01*
X36994404Y-75115438D01*
X37165437Y-74944405D01*
X37258000Y-74720939D01*
X37258000Y-74156000D01*
X37106000Y-74004000D01*
X36154000Y-74004000D01*
X35846000Y-74004000D01*
X34179001Y-74004000D01*
X33871001Y-74004000D01*
X32154000Y-74004000D01*
X31846000Y-74004000D01*
X30894000Y-74004000D01*
X30742000Y-74156000D01*
X24705877Y-74156000D01*
X24705877Y-72979061D01*
X30742000Y-72979061D01*
X30742000Y-73544000D01*
X30894000Y-73696000D01*
X31846000Y-73696000D01*
X31846000Y-72644000D01*
X32154000Y-72644000D01*
X32154000Y-73696000D01*
X33871001Y-73696000D01*
X33871001Y-72644000D01*
X34179001Y-72644000D01*
X34179001Y-73696000D01*
X35846000Y-73696000D01*
X35846000Y-72644000D01*
X36154000Y-72644000D01*
X36154000Y-73696000D01*
X37106000Y-73696000D01*
X37258000Y-73544000D01*
X37258000Y-73306000D01*
X42542000Y-73306000D01*
X42542000Y-74870939D01*
X42634563Y-75094405D01*
X42805596Y-75265438D01*
X43029062Y-75358000D01*
X44594000Y-75358000D01*
X44746000Y-75206000D01*
X44746000Y-73154000D01*
X45054000Y-73154000D01*
X45054000Y-75206000D01*
X45206000Y-75358000D01*
X46770938Y-75358000D01*
X46994404Y-75265438D01*
X47165437Y-75094405D01*
X47258000Y-74870939D01*
X47258000Y-74200000D01*
X56047471Y-74200000D01*
X56136724Y-74648707D01*
X56390897Y-75029103D01*
X56771293Y-75283276D01*
X57106739Y-75350000D01*
X57333261Y-75350000D01*
X57668707Y-75283276D01*
X58049103Y-75029103D01*
X58303276Y-74648707D01*
X58392529Y-74200000D01*
X58587471Y-74200000D01*
X58676724Y-74648707D01*
X58930897Y-75029103D01*
X59311293Y-75283276D01*
X59646739Y-75350000D01*
X59873261Y-75350000D01*
X60208707Y-75283276D01*
X60589103Y-75029103D01*
X60843276Y-74648707D01*
X60932529Y-74200000D01*
X61127471Y-74200000D01*
X61216724Y-74648707D01*
X61470897Y-75029103D01*
X61851293Y-75283276D01*
X62186739Y-75350000D01*
X62413261Y-75350000D01*
X62748707Y-75283276D01*
X63129103Y-75029103D01*
X63383276Y-74648707D01*
X63472529Y-74200000D01*
X63667471Y-74200000D01*
X63756724Y-74648707D01*
X64010897Y-75029103D01*
X64391293Y-75283276D01*
X64726739Y-75350000D01*
X64953261Y-75350000D01*
X65288707Y-75283276D01*
X65669103Y-75029103D01*
X65923276Y-74648707D01*
X66012529Y-74200000D01*
X66207471Y-74200000D01*
X66296724Y-74648707D01*
X66550897Y-75029103D01*
X66931293Y-75283276D01*
X67266739Y-75350000D01*
X67493261Y-75350000D01*
X67828707Y-75283276D01*
X68209103Y-75029103D01*
X68463276Y-74648707D01*
X68552529Y-74200000D01*
X68747471Y-74200000D01*
X68836724Y-74648707D01*
X69090897Y-75029103D01*
X69471293Y-75283276D01*
X69806739Y-75350000D01*
X70033261Y-75350000D01*
X70368707Y-75283276D01*
X70749103Y-75029103D01*
X71003276Y-74648707D01*
X71092529Y-74200000D01*
X71287471Y-74200000D01*
X71376724Y-74648707D01*
X71630897Y-75029103D01*
X72011293Y-75283276D01*
X72346739Y-75350000D01*
X72573261Y-75350000D01*
X72908707Y-75283276D01*
X73289103Y-75029103D01*
X73543276Y-74648707D01*
X73632529Y-74200000D01*
X73543276Y-73751293D01*
X73289103Y-73370897D01*
X73257829Y-73350000D01*
X73844123Y-73350000D01*
X73844123Y-75050000D01*
X73867407Y-75167054D01*
X73933712Y-75266288D01*
X74032946Y-75332593D01*
X74150000Y-75355877D01*
X75850000Y-75355877D01*
X75967054Y-75332593D01*
X76066288Y-75266288D01*
X76132593Y-75167054D01*
X76155877Y-75050000D01*
X76155877Y-73350000D01*
X76132593Y-73232946D01*
X76066288Y-73133712D01*
X75967054Y-73067407D01*
X75850000Y-73044123D01*
X74150000Y-73044123D01*
X74032946Y-73067407D01*
X73933712Y-73133712D01*
X73867407Y-73232946D01*
X73844123Y-73350000D01*
X73257829Y-73350000D01*
X72908707Y-73116724D01*
X72573261Y-73050000D01*
X72346739Y-73050000D01*
X72011293Y-73116724D01*
X71630897Y-73370897D01*
X71376724Y-73751293D01*
X71287471Y-74200000D01*
X71092529Y-74200000D01*
X71003276Y-73751293D01*
X70749103Y-73370897D01*
X70368707Y-73116724D01*
X70033261Y-73050000D01*
X69806739Y-73050000D01*
X69471293Y-73116724D01*
X69090897Y-73370897D01*
X68836724Y-73751293D01*
X68747471Y-74200000D01*
X68552529Y-74200000D01*
X68463276Y-73751293D01*
X68209103Y-73370897D01*
X67828707Y-73116724D01*
X67493261Y-73050000D01*
X67266739Y-73050000D01*
X66931293Y-73116724D01*
X66550897Y-73370897D01*
X66296724Y-73751293D01*
X66207471Y-74200000D01*
X66012529Y-74200000D01*
X65923276Y-73751293D01*
X65669103Y-73370897D01*
X65288707Y-73116724D01*
X64953261Y-73050000D01*
X64726739Y-73050000D01*
X64391293Y-73116724D01*
X64010897Y-73370897D01*
X63756724Y-73751293D01*
X63667471Y-74200000D01*
X63472529Y-74200000D01*
X63383276Y-73751293D01*
X63129103Y-73370897D01*
X62748707Y-73116724D01*
X62413261Y-73050000D01*
X62186739Y-73050000D01*
X61851293Y-73116724D01*
X61470897Y-73370897D01*
X61216724Y-73751293D01*
X61127471Y-74200000D01*
X60932529Y-74200000D01*
X60843276Y-73751293D01*
X60589103Y-73370897D01*
X60208707Y-73116724D01*
X59873261Y-73050000D01*
X59646739Y-73050000D01*
X59311293Y-73116724D01*
X58930897Y-73370897D01*
X58676724Y-73751293D01*
X58587471Y-74200000D01*
X58392529Y-74200000D01*
X58303276Y-73751293D01*
X58049103Y-73370897D01*
X57668707Y-73116724D01*
X57333261Y-73050000D01*
X57106739Y-73050000D01*
X56771293Y-73116724D01*
X56390897Y-73370897D01*
X56136724Y-73751293D01*
X56047471Y-74200000D01*
X47258000Y-74200000D01*
X47258000Y-73306000D01*
X47106000Y-73154000D01*
X45054000Y-73154000D01*
X44746000Y-73154000D01*
X42694000Y-73154000D01*
X42542000Y-73306000D01*
X37258000Y-73306000D01*
X37258000Y-72979061D01*
X37165437Y-72755595D01*
X36994404Y-72584562D01*
X36770938Y-72492000D01*
X36306000Y-72492000D01*
X36154000Y-72644000D01*
X35846000Y-72644000D01*
X35694000Y-72492000D01*
X35229062Y-72492000D01*
X35012501Y-72581702D01*
X34795939Y-72492000D01*
X34331001Y-72492000D01*
X34179001Y-72644000D01*
X33871001Y-72644000D01*
X33719001Y-72492000D01*
X33254063Y-72492000D01*
X33030597Y-72584562D01*
X33012501Y-72602659D01*
X32994404Y-72584562D01*
X32770938Y-72492000D01*
X32306000Y-72492000D01*
X32154000Y-72644000D01*
X31846000Y-72644000D01*
X31694000Y-72492000D01*
X31229062Y-72492000D01*
X31005596Y-72584562D01*
X30834563Y-72755595D01*
X30742000Y-72979061D01*
X24705877Y-72979061D01*
X24705877Y-72850000D01*
X24682593Y-72732946D01*
X24616288Y-72633712D01*
X24517054Y-72567407D01*
X24400000Y-72544123D01*
X23100000Y-72544123D01*
X22982946Y-72567407D01*
X22883712Y-72633712D01*
X22817407Y-72732946D01*
X22794123Y-72850000D01*
X22794123Y-73175000D01*
X22705877Y-73175000D01*
X22705877Y-72850000D01*
X22682593Y-72732946D01*
X22616288Y-72633712D01*
X22517054Y-72567407D01*
X22400000Y-72544123D01*
X21100000Y-72544123D01*
X20982946Y-72567407D01*
X20883712Y-72633712D01*
X20817407Y-72732946D01*
X20794123Y-72850000D01*
X20455877Y-72850000D01*
X20432593Y-72732946D01*
X20366288Y-72633712D01*
X20267054Y-72567407D01*
X20150000Y-72544123D01*
X18850000Y-72544123D01*
X18732946Y-72567407D01*
X18633712Y-72633712D01*
X18567407Y-72732946D01*
X18544123Y-72850000D01*
X18544123Y-73175000D01*
X18455877Y-73175000D01*
X18455877Y-72850000D01*
X18432593Y-72732946D01*
X18366288Y-72633712D01*
X18267054Y-72567407D01*
X18150000Y-72544123D01*
X16850000Y-72544123D01*
X16732946Y-72567407D01*
X16633712Y-72633712D01*
X16567407Y-72732946D01*
X16544123Y-72850000D01*
X16205877Y-72850000D01*
X16182593Y-72732946D01*
X16116288Y-72633712D01*
X16017054Y-72567407D01*
X15900000Y-72544123D01*
X14600000Y-72544123D01*
X14482946Y-72567407D01*
X14383712Y-72633712D01*
X14317407Y-72732946D01*
X14294123Y-72850000D01*
X14294123Y-73175000D01*
X14205877Y-73175000D01*
X14205877Y-72850000D01*
X14182593Y-72732946D01*
X14116288Y-72633712D01*
X14017054Y-72567407D01*
X13900000Y-72544123D01*
X12600000Y-72544123D01*
X12482946Y-72567407D01*
X12383712Y-72633712D01*
X12317407Y-72732946D01*
X12294123Y-72850000D01*
X8692979Y-72850000D01*
X9080000Y-71915650D01*
X9080000Y-70324350D01*
X9007782Y-70150000D01*
X12294123Y-70150000D01*
X12294123Y-71650000D01*
X12317407Y-71767054D01*
X12383712Y-71866288D01*
X12482946Y-71932593D01*
X12600000Y-71955877D01*
X13900000Y-71955877D01*
X14017054Y-71932593D01*
X14116288Y-71866288D01*
X14182593Y-71767054D01*
X14205877Y-71650000D01*
X14205877Y-70150000D01*
X14182593Y-70032946D01*
X14116288Y-69933712D01*
X14017054Y-69867407D01*
X13900000Y-69844123D01*
X13675000Y-69844123D01*
X13675000Y-69693875D01*
X13732946Y-69732593D01*
X13850000Y-69755877D01*
X14650000Y-69755877D01*
X14700001Y-69745931D01*
X14700001Y-69844123D01*
X14600000Y-69844123D01*
X14482946Y-69867407D01*
X14383712Y-69933712D01*
X14317407Y-70032946D01*
X14294123Y-70150000D01*
X14294123Y-71650000D01*
X14317407Y-71767054D01*
X14383712Y-71866288D01*
X14482946Y-71932593D01*
X14600000Y-71955877D01*
X15900000Y-71955877D01*
X16017054Y-71932593D01*
X16116288Y-71866288D01*
X16182593Y-71767054D01*
X16205877Y-71650000D01*
X16205877Y-70150000D01*
X16182593Y-70032946D01*
X16116288Y-69933712D01*
X16017054Y-69867407D01*
X15900000Y-69844123D01*
X15833693Y-69844123D01*
X17794123Y-67883694D01*
X17794123Y-68077789D01*
X17684173Y-68099659D01*
X17543592Y-68193592D01*
X17519881Y-68229078D01*
X17229078Y-68519881D01*
X17193593Y-68543592D01*
X17169882Y-68579078D01*
X17099659Y-68684174D01*
X17066674Y-68850000D01*
X17075001Y-68891862D01*
X17075001Y-69844123D01*
X16850000Y-69844123D01*
X16732946Y-69867407D01*
X16633712Y-69933712D01*
X16567407Y-70032946D01*
X16544123Y-70150000D01*
X16544123Y-71650000D01*
X16567407Y-71767054D01*
X16633712Y-71866288D01*
X16732946Y-71932593D01*
X16850000Y-71955877D01*
X18150000Y-71955877D01*
X18267054Y-71932593D01*
X18366288Y-71866288D01*
X18432593Y-71767054D01*
X18455877Y-71650000D01*
X18455877Y-70150000D01*
X18432593Y-70032946D01*
X18366288Y-69933712D01*
X18267054Y-69867407D01*
X18150000Y-69844123D01*
X17925000Y-69844123D01*
X17925000Y-69693875D01*
X17982946Y-69732593D01*
X18100000Y-69755877D01*
X18900000Y-69755877D01*
X18950001Y-69745931D01*
X18950001Y-69844123D01*
X18850000Y-69844123D01*
X18732946Y-69867407D01*
X18633712Y-69933712D01*
X18567407Y-70032946D01*
X18544123Y-70150000D01*
X18544123Y-71650000D01*
X18567407Y-71767054D01*
X18633712Y-71866288D01*
X18732946Y-71932593D01*
X18850000Y-71955877D01*
X20150000Y-71955877D01*
X20267054Y-71932593D01*
X20366288Y-71866288D01*
X20432593Y-71767054D01*
X20455877Y-71650000D01*
X20455877Y-70150000D01*
X20432593Y-70032946D01*
X20366288Y-69933712D01*
X20267054Y-69867407D01*
X20150000Y-69844123D01*
X20083693Y-69844123D01*
X22044123Y-67883694D01*
X22044123Y-68077789D01*
X21934173Y-68099659D01*
X21793592Y-68193592D01*
X21769881Y-68229078D01*
X21479078Y-68519881D01*
X21443593Y-68543592D01*
X21419882Y-68579078D01*
X21349659Y-68684174D01*
X21316674Y-68850000D01*
X21325001Y-68891862D01*
X21325001Y-69844123D01*
X21100000Y-69844123D01*
X20982946Y-69867407D01*
X20883712Y-69933712D01*
X20817407Y-70032946D01*
X20794123Y-70150000D01*
X20794123Y-71650000D01*
X20817407Y-71767054D01*
X20883712Y-71866288D01*
X20982946Y-71932593D01*
X21100000Y-71955877D01*
X22400000Y-71955877D01*
X22517054Y-71932593D01*
X22616288Y-71866288D01*
X22682593Y-71767054D01*
X22705877Y-71650000D01*
X22705877Y-70150000D01*
X22682593Y-70032946D01*
X22616288Y-69933712D01*
X22517054Y-69867407D01*
X22400000Y-69844123D01*
X22175000Y-69844123D01*
X22175000Y-69693875D01*
X22232946Y-69732593D01*
X22350000Y-69755877D01*
X23150000Y-69755877D01*
X23200000Y-69745931D01*
X23200000Y-69844123D01*
X23100000Y-69844123D01*
X22982946Y-69867407D01*
X22883712Y-69933712D01*
X22817407Y-70032946D01*
X22794123Y-70150000D01*
X22794123Y-71650000D01*
X22817407Y-71767054D01*
X22883712Y-71866288D01*
X22982946Y-71932593D01*
X23100000Y-71955877D01*
X24400000Y-71955877D01*
X24517054Y-71932593D01*
X24616288Y-71866288D01*
X24682593Y-71767054D01*
X24705877Y-71650000D01*
X24705877Y-70150000D01*
X24682593Y-70032946D01*
X24616288Y-69933712D01*
X24517054Y-69867407D01*
X24400000Y-69844123D01*
X24300000Y-69844123D01*
X24300000Y-68100000D01*
X31044123Y-68100000D01*
X31044123Y-69600000D01*
X31067407Y-69717054D01*
X31133712Y-69816288D01*
X31232946Y-69882593D01*
X31350000Y-69905877D01*
X31575001Y-69905877D01*
X31575000Y-70094123D01*
X31350000Y-70094123D01*
X31232946Y-70117407D01*
X31133712Y-70183712D01*
X31067407Y-70282946D01*
X31044123Y-70400000D01*
X31044123Y-71900000D01*
X31067407Y-72017054D01*
X31133712Y-72116288D01*
X31232946Y-72182593D01*
X31350000Y-72205877D01*
X32650000Y-72205877D01*
X32767054Y-72182593D01*
X32866288Y-72116288D01*
X32932593Y-72017054D01*
X32955877Y-71900000D01*
X32955877Y-70400000D01*
X32932593Y-70282946D01*
X32866288Y-70183712D01*
X32767054Y-70117407D01*
X32650000Y-70094123D01*
X32425000Y-70094123D01*
X32425000Y-69905877D01*
X32650000Y-69905877D01*
X32767054Y-69882593D01*
X32866288Y-69816288D01*
X32932593Y-69717054D01*
X32955877Y-69600000D01*
X32955877Y-68100000D01*
X33044123Y-68100000D01*
X33044123Y-69600000D01*
X33067407Y-69717054D01*
X33133712Y-69816288D01*
X33232946Y-69882593D01*
X33350000Y-69905877D01*
X33600002Y-69905877D01*
X33600001Y-70094123D01*
X33375001Y-70094123D01*
X33257947Y-70117407D01*
X33158713Y-70183712D01*
X33092408Y-70282946D01*
X33069124Y-70400000D01*
X33069124Y-71900000D01*
X33092408Y-72017054D01*
X33158713Y-72116288D01*
X33257947Y-72182593D01*
X33375001Y-72205877D01*
X34675001Y-72205877D01*
X34792055Y-72182593D01*
X34891289Y-72116288D01*
X34957594Y-72017054D01*
X34980878Y-71900000D01*
X34980878Y-70400000D01*
X34957594Y-70282946D01*
X34891289Y-70183712D01*
X34792055Y-70117407D01*
X34675001Y-70094123D01*
X34450001Y-70094123D01*
X34450001Y-69905877D01*
X34650000Y-69905877D01*
X34767054Y-69882593D01*
X34866288Y-69816288D01*
X34932593Y-69717054D01*
X34955877Y-69600000D01*
X34955877Y-68100000D01*
X35044123Y-68100000D01*
X35044123Y-69600000D01*
X35067407Y-69717054D01*
X35133712Y-69816288D01*
X35232946Y-69882593D01*
X35350000Y-69905877D01*
X35575001Y-69905877D01*
X35575000Y-70094123D01*
X35350000Y-70094123D01*
X35232946Y-70117407D01*
X35133712Y-70183712D01*
X35067407Y-70282946D01*
X35044123Y-70400000D01*
X35044123Y-71900000D01*
X35067407Y-72017054D01*
X35133712Y-72116288D01*
X35232946Y-72182593D01*
X35350000Y-72205877D01*
X36650000Y-72205877D01*
X36767054Y-72182593D01*
X36866288Y-72116288D01*
X36932593Y-72017054D01*
X36955877Y-71900000D01*
X36955877Y-71129061D01*
X42542000Y-71129061D01*
X42542000Y-72694000D01*
X42694000Y-72846000D01*
X44746000Y-72846000D01*
X44746000Y-70794000D01*
X45054000Y-70794000D01*
X45054000Y-72846000D01*
X47106000Y-72846000D01*
X47258000Y-72694000D01*
X47258000Y-71129061D01*
X47165437Y-70905595D01*
X46994404Y-70734562D01*
X46770938Y-70642000D01*
X45206000Y-70642000D01*
X45054000Y-70794000D01*
X44746000Y-70794000D01*
X44594000Y-70642000D01*
X43029062Y-70642000D01*
X42805596Y-70734562D01*
X42634563Y-70905595D01*
X42542000Y-71129061D01*
X36955877Y-71129061D01*
X36955877Y-70400000D01*
X36932593Y-70282946D01*
X36866288Y-70183712D01*
X36767054Y-70117407D01*
X36650000Y-70094123D01*
X36425000Y-70094123D01*
X36425000Y-69905877D01*
X36650000Y-69905877D01*
X36767054Y-69882593D01*
X36866288Y-69816288D01*
X36932593Y-69717054D01*
X36955877Y-69600000D01*
X36955877Y-68100000D01*
X36932593Y-67982946D01*
X36866288Y-67883712D01*
X36767054Y-67817407D01*
X36650000Y-67794123D01*
X35350000Y-67794123D01*
X35232946Y-67817407D01*
X35133712Y-67883712D01*
X35067407Y-67982946D01*
X35044123Y-68100000D01*
X34955877Y-68100000D01*
X34932593Y-67982946D01*
X34866288Y-67883712D01*
X34767054Y-67817407D01*
X34650000Y-67794123D01*
X33350000Y-67794123D01*
X33232946Y-67817407D01*
X33133712Y-67883712D01*
X33067407Y-67982946D01*
X33044123Y-68100000D01*
X32955877Y-68100000D01*
X32932593Y-67982946D01*
X32866288Y-67883712D01*
X32767054Y-67817407D01*
X32650000Y-67794123D01*
X31350000Y-67794123D01*
X31232946Y-67817407D01*
X31133712Y-67883712D01*
X31067407Y-67982946D01*
X31044123Y-68100000D01*
X24300000Y-68100000D01*
X24300000Y-67837818D01*
X24710604Y-67427214D01*
X24756530Y-67396528D01*
X24787218Y-67350600D01*
X26737818Y-65400000D01*
X31044123Y-65400000D01*
X31044123Y-66900000D01*
X31067407Y-67017054D01*
X31133712Y-67116288D01*
X31232946Y-67182593D01*
X31350000Y-67205877D01*
X32650000Y-67205877D01*
X32767054Y-67182593D01*
X32866288Y-67116288D01*
X32932593Y-67017054D01*
X32955877Y-66900000D01*
X32955877Y-65400000D01*
X32932593Y-65282946D01*
X32866288Y-65183712D01*
X32767054Y-65117407D01*
X32650000Y-65094123D01*
X31350000Y-65094123D01*
X31232946Y-65117407D01*
X31133712Y-65183712D01*
X31067407Y-65282946D01*
X31044123Y-65400000D01*
X26737818Y-65400000D01*
X27100603Y-65037216D01*
X27103916Y-65035002D01*
X33283962Y-65035002D01*
X33344230Y-65095271D01*
X33232946Y-65117407D01*
X33133712Y-65183712D01*
X33067407Y-65282946D01*
X33044123Y-65400000D01*
X33044123Y-66900000D01*
X33067407Y-67017054D01*
X33133712Y-67116288D01*
X33232946Y-67182593D01*
X33350000Y-67205877D01*
X34650000Y-67205877D01*
X34767054Y-67182593D01*
X34866288Y-67116288D01*
X34932593Y-67017054D01*
X34955877Y-66900000D01*
X34955877Y-65606918D01*
X35044123Y-65695164D01*
X35044123Y-66900000D01*
X35067407Y-67017054D01*
X35133712Y-67116288D01*
X35232946Y-67182593D01*
X35350000Y-67205877D01*
X36650000Y-67205877D01*
X36767054Y-67182593D01*
X36866288Y-67116288D01*
X36932593Y-67017054D01*
X36955877Y-66900000D01*
X36955877Y-65400000D01*
X36932593Y-65282946D01*
X36866288Y-65183712D01*
X36767054Y-65117407D01*
X36650000Y-65094123D01*
X35645164Y-65094123D01*
X33520121Y-62969081D01*
X33496408Y-62933592D01*
X33355827Y-62839659D01*
X33231858Y-62815000D01*
X33231857Y-62815000D01*
X33190000Y-62806674D01*
X33148143Y-62815000D01*
X28334950Y-62815000D01*
X28166518Y-62646568D01*
X27909239Y-62540000D01*
X27841370Y-62540000D01*
X29381371Y-61000000D01*
X44714420Y-61000000D01*
X44758712Y-61066288D01*
X44857946Y-61132593D01*
X44975000Y-61155877D01*
X46225000Y-61155877D01*
X46342054Y-61132593D01*
X46441288Y-61066288D01*
X46485580Y-61000000D01*
X47279069Y-61000000D01*
X47292407Y-61067054D01*
X47358712Y-61166288D01*
X47457946Y-61232593D01*
X47575000Y-61255877D01*
X48825000Y-61255877D01*
X48942054Y-61232593D01*
X49041288Y-61166288D01*
X49107593Y-61067054D01*
X49120931Y-61000000D01*
X57118630Y-61000000D01*
X57380000Y-61261371D01*
X57380000Y-62107336D01*
X57190922Y-62390312D01*
X57130000Y-62696588D01*
X57130000Y-63903413D01*
X57190923Y-64209689D01*
X57422994Y-64557007D01*
X57711828Y-64750000D01*
X56592113Y-64750000D01*
X56835695Y-64461962D01*
X56998000Y-63954000D01*
X56998000Y-63454000D01*
X55794000Y-63454000D01*
X55794000Y-63474000D01*
X55486000Y-63474000D01*
X55486000Y-63454000D01*
X55466000Y-63454000D01*
X55466000Y-63146000D01*
X55486000Y-63146000D01*
X55486000Y-61603873D01*
X55794000Y-61603873D01*
X55794000Y-63146000D01*
X56998000Y-63146000D01*
X56998000Y-62646000D01*
X56835695Y-62138038D01*
X56491356Y-61730854D01*
X56003172Y-61491462D01*
X55794000Y-61603873D01*
X55486000Y-61603873D01*
X55276828Y-61491462D01*
X54788644Y-61730854D01*
X54444305Y-62138038D01*
X54282000Y-62646000D01*
X54282000Y-62729050D01*
X54155877Y-62540295D01*
X54155877Y-62050000D01*
X54132593Y-61932946D01*
X54066288Y-61833712D01*
X53967054Y-61767407D01*
X53850000Y-61744123D01*
X52350000Y-61744123D01*
X52232946Y-61767407D01*
X52133712Y-61833712D01*
X52067407Y-61932946D01*
X52054069Y-62000000D01*
X48728032Y-62000000D01*
X48599999Y-61974533D01*
X48471966Y-62000000D01*
X48471963Y-62000000D01*
X48092765Y-62075427D01*
X47771296Y-62290226D01*
X47771294Y-62290228D01*
X47662753Y-62362753D01*
X47590228Y-62471294D01*
X45117400Y-64944123D01*
X43150000Y-64944123D01*
X43032946Y-64967407D01*
X42933712Y-65033712D01*
X42867407Y-65132946D01*
X42844123Y-65250000D01*
X42844123Y-68750000D01*
X42867407Y-68867054D01*
X42933712Y-68966288D01*
X43032946Y-69032593D01*
X43150000Y-69055877D01*
X46650000Y-69055877D01*
X46767054Y-69032593D01*
X46866288Y-68966288D01*
X46932593Y-68867054D01*
X46955877Y-68750000D01*
X46955877Y-68250000D01*
X47544123Y-68250000D01*
X47544123Y-71750000D01*
X47567407Y-71867054D01*
X47633712Y-71966288D01*
X47732946Y-72032593D01*
X47850000Y-72055877D01*
X51350000Y-72055877D01*
X51467054Y-72032593D01*
X51566288Y-71966288D01*
X51632593Y-71867054D01*
X51655877Y-71750000D01*
X51655877Y-68250000D01*
X51632593Y-68132946D01*
X51566288Y-68033712D01*
X51467054Y-67967407D01*
X51350000Y-67944123D01*
X47850000Y-67944123D01*
X47732946Y-67967407D01*
X47633712Y-68033712D01*
X47567407Y-68132946D01*
X47544123Y-68250000D01*
X46955877Y-68250000D01*
X46955877Y-66782600D01*
X49138478Y-64600000D01*
X52054069Y-64600000D01*
X52067407Y-64667054D01*
X52133712Y-64766288D01*
X52232946Y-64832593D01*
X52350000Y-64855877D01*
X53024507Y-64855877D01*
X54228603Y-66059974D01*
X54273233Y-66126767D01*
X54340025Y-66171396D01*
X54340026Y-66171397D01*
X54406519Y-66215826D01*
X54537856Y-66303583D01*
X54771211Y-66350000D01*
X54771216Y-66350000D01*
X54850000Y-66365671D01*
X54928784Y-66350000D01*
X63521442Y-66350000D01*
X63430000Y-66570761D01*
X63430000Y-66675007D01*
X63243908Y-66675007D01*
X62986629Y-66781575D01*
X62789715Y-66978489D01*
X62683147Y-67235768D01*
X62683147Y-67414329D01*
X62570539Y-67414329D01*
X62313260Y-67520897D01*
X62116346Y-67717811D01*
X62036288Y-67911089D01*
X61983432Y-67783482D01*
X61786518Y-67586568D01*
X61529239Y-67480000D01*
X61250761Y-67480000D01*
X60993482Y-67586568D01*
X60796568Y-67783482D01*
X60690000Y-68040761D01*
X60690000Y-68319239D01*
X60796568Y-68576518D01*
X60993482Y-68773432D01*
X61250761Y-68880000D01*
X61488959Y-68880000D01*
X61632539Y-69023580D01*
X61714163Y-69145739D01*
X61761016Y-69177045D01*
X61470897Y-69370897D01*
X61216724Y-69751293D01*
X61127471Y-70200000D01*
X61216724Y-70648707D01*
X61470897Y-71029103D01*
X61851293Y-71283276D01*
X62186739Y-71350000D01*
X62413261Y-71350000D01*
X62748707Y-71283276D01*
X63129103Y-71029103D01*
X63383276Y-70648707D01*
X63472529Y-70200000D01*
X63387992Y-69775001D01*
X63752008Y-69775001D01*
X63667471Y-70200000D01*
X63756724Y-70648707D01*
X64010897Y-71029103D01*
X64391293Y-71283276D01*
X64726739Y-71350000D01*
X64953261Y-71350000D01*
X65288707Y-71283276D01*
X65669103Y-71029103D01*
X65923276Y-70648707D01*
X66012529Y-70200000D01*
X65923276Y-69751293D01*
X65669103Y-69370897D01*
X65495651Y-69255000D01*
X65833960Y-69255000D01*
X66310154Y-69731194D01*
X66296724Y-69751293D01*
X66207471Y-70200000D01*
X66296724Y-70648707D01*
X66550897Y-71029103D01*
X66931293Y-71283276D01*
X67266739Y-71350000D01*
X67493261Y-71350000D01*
X67828707Y-71283276D01*
X68209103Y-71029103D01*
X68463276Y-70648707D01*
X68552529Y-70200000D01*
X68463276Y-69751293D01*
X68209103Y-69370897D01*
X67828707Y-69116724D01*
X67493261Y-69050000D01*
X67266739Y-69050000D01*
X66931293Y-69116724D01*
X66911194Y-69130154D01*
X66566040Y-68785000D01*
X67903960Y-68785000D01*
X68850154Y-69731194D01*
X68836724Y-69751293D01*
X68747471Y-70200000D01*
X68836724Y-70648707D01*
X69090897Y-71029103D01*
X69471293Y-71283276D01*
X69806739Y-71350000D01*
X70033261Y-71350000D01*
X70368707Y-71283276D01*
X70749103Y-71029103D01*
X71003276Y-70648707D01*
X71092529Y-70200000D01*
X71003276Y-69751293D01*
X70749103Y-69370897D01*
X70368707Y-69116724D01*
X70033261Y-69050000D01*
X69806739Y-69050000D01*
X69471293Y-69116724D01*
X69451194Y-69130154D01*
X68656040Y-68335000D01*
X69993960Y-68335000D01*
X71390154Y-69731194D01*
X71376724Y-69751293D01*
X71287471Y-70200000D01*
X71376724Y-70648707D01*
X71630897Y-71029103D01*
X72011293Y-71283276D01*
X72346739Y-71350000D01*
X72573261Y-71350000D01*
X72908707Y-71283276D01*
X73289103Y-71029103D01*
X73542000Y-70650617D01*
X73542000Y-71170939D01*
X73634563Y-71394405D01*
X73805596Y-71565438D01*
X74029062Y-71658000D01*
X74694000Y-71658000D01*
X74846000Y-71506000D01*
X74846000Y-70354000D01*
X75154000Y-70354000D01*
X75154000Y-71506000D01*
X75306000Y-71658000D01*
X75970938Y-71658000D01*
X76194404Y-71565438D01*
X76365437Y-71394405D01*
X76458000Y-71170939D01*
X76458000Y-70506000D01*
X76306000Y-70354000D01*
X75154000Y-70354000D01*
X74846000Y-70354000D01*
X74826000Y-70354000D01*
X74826000Y-70324350D01*
X79820000Y-70324350D01*
X79820000Y-71915650D01*
X80428963Y-73385818D01*
X81554182Y-74511037D01*
X83024350Y-75120000D01*
X84615650Y-75120000D01*
X86085818Y-74511037D01*
X87211037Y-73385818D01*
X87820000Y-71915650D01*
X87820000Y-70324350D01*
X87211037Y-68854182D01*
X86085818Y-67728963D01*
X84615650Y-67120000D01*
X83024350Y-67120000D01*
X81554182Y-67728963D01*
X80428963Y-68854182D01*
X79820000Y-70324350D01*
X74826000Y-70324350D01*
X74826000Y-70046000D01*
X74846000Y-70046000D01*
X74846000Y-68894000D01*
X75154000Y-68894000D01*
X75154000Y-70046000D01*
X76306000Y-70046000D01*
X76458000Y-69894000D01*
X76458000Y-69229061D01*
X76365437Y-69005595D01*
X76194404Y-68834562D01*
X75970938Y-68742000D01*
X75306000Y-68742000D01*
X75154000Y-68894000D01*
X74846000Y-68894000D01*
X74694000Y-68742000D01*
X74029062Y-68742000D01*
X73805596Y-68834562D01*
X73634563Y-69005595D01*
X73542000Y-69229061D01*
X73542000Y-69749383D01*
X73289103Y-69370897D01*
X72908707Y-69116724D01*
X72573261Y-69050000D01*
X72346739Y-69050000D01*
X72011293Y-69116724D01*
X71991194Y-69130154D01*
X70500121Y-67639081D01*
X70476408Y-67603592D01*
X70335827Y-67509659D01*
X70211858Y-67485000D01*
X70211857Y-67485000D01*
X70170000Y-67476674D01*
X70128143Y-67485000D01*
X65265000Y-67485000D01*
X65265000Y-67461857D01*
X65273326Y-67420000D01*
X65259523Y-67350605D01*
X65240341Y-67254173D01*
X65146408Y-67113592D01*
X65110922Y-67089881D01*
X64830000Y-66808959D01*
X64830000Y-66570761D01*
X64738558Y-66350000D01*
X65748286Y-66350000D01*
X65827070Y-66365671D01*
X65905854Y-66350000D01*
X65905859Y-66350000D01*
X66139214Y-66303583D01*
X66217650Y-66251174D01*
X66296724Y-66648707D01*
X66550897Y-67029103D01*
X66931293Y-67283276D01*
X67266739Y-67350000D01*
X67493261Y-67350000D01*
X67828707Y-67283276D01*
X68209103Y-67029103D01*
X68463276Y-66648707D01*
X68552529Y-66200000D01*
X68747471Y-66200000D01*
X68836724Y-66648707D01*
X69090897Y-67029103D01*
X69471293Y-67283276D01*
X69806739Y-67350000D01*
X70033261Y-67350000D01*
X70368707Y-67283276D01*
X70749103Y-67029103D01*
X71003276Y-66648707D01*
X71092529Y-66200000D01*
X71287471Y-66200000D01*
X71376724Y-66648707D01*
X71630897Y-67029103D01*
X72011293Y-67283276D01*
X72346739Y-67350000D01*
X72573261Y-67350000D01*
X72908707Y-67283276D01*
X73289103Y-67029103D01*
X73542000Y-66650617D01*
X73542000Y-67170939D01*
X73634563Y-67394405D01*
X73805596Y-67565438D01*
X74029062Y-67658000D01*
X74694000Y-67658000D01*
X74846000Y-67506000D01*
X74846000Y-66354000D01*
X75154000Y-66354000D01*
X75154000Y-67506000D01*
X75306000Y-67658000D01*
X75970938Y-67658000D01*
X76194404Y-67565438D01*
X76365437Y-67394405D01*
X76458000Y-67170939D01*
X76458000Y-66506000D01*
X76306000Y-66354000D01*
X75154000Y-66354000D01*
X74846000Y-66354000D01*
X74826000Y-66354000D01*
X74826000Y-66046000D01*
X74846000Y-66046000D01*
X74846000Y-64894000D01*
X75154000Y-64894000D01*
X75154000Y-66046000D01*
X76306000Y-66046000D01*
X76458000Y-65894000D01*
X76458000Y-65229061D01*
X76365437Y-65005595D01*
X76194404Y-64834562D01*
X75970938Y-64742000D01*
X75306000Y-64742000D01*
X75154000Y-64894000D01*
X74846000Y-64894000D01*
X74694000Y-64742000D01*
X74029062Y-64742000D01*
X73805596Y-64834562D01*
X73634563Y-65005595D01*
X73542000Y-65229061D01*
X73542000Y-65749383D01*
X73289103Y-65370897D01*
X72908707Y-65116724D01*
X72573261Y-65050000D01*
X72346739Y-65050000D01*
X72011293Y-65116724D01*
X71630897Y-65370897D01*
X71376724Y-65751293D01*
X71287471Y-66200000D01*
X71092529Y-66200000D01*
X71003276Y-65751293D01*
X70749103Y-65370897D01*
X70368707Y-65116724D01*
X70033261Y-65050000D01*
X69806739Y-65050000D01*
X69471293Y-65116724D01*
X69090897Y-65370897D01*
X68836724Y-65751293D01*
X68747471Y-66200000D01*
X68552529Y-66200000D01*
X68463276Y-65751293D01*
X68209103Y-65370897D01*
X67828707Y-65116724D01*
X67493261Y-65050000D01*
X67458441Y-65050000D01*
X67918430Y-64590011D01*
X82858276Y-64590011D01*
X82937060Y-64605682D01*
X83015844Y-64590011D01*
X83015849Y-64590011D01*
X83249204Y-64543594D01*
X83513827Y-64366778D01*
X83558458Y-64299983D01*
X85888442Y-61970000D01*
X86013261Y-61970000D01*
X86348707Y-61903276D01*
X86729103Y-61649103D01*
X86983276Y-61268707D01*
X87072529Y-60820000D01*
X86983276Y-60371293D01*
X86729103Y-59990897D01*
X86348707Y-59736724D01*
X86013261Y-59670000D01*
X85786739Y-59670000D01*
X85605275Y-59706095D01*
X85881370Y-59430000D01*
X86013261Y-59430000D01*
X86348707Y-59363276D01*
X86729103Y-59109103D01*
X86983276Y-58728707D01*
X87072529Y-58280000D01*
X86983276Y-57831293D01*
X86729103Y-57450897D01*
X86348707Y-57196724D01*
X86013261Y-57130000D01*
X85786739Y-57130000D01*
X85451293Y-57196724D01*
X85070897Y-57450897D01*
X84816724Y-57831293D01*
X84727471Y-58280000D01*
X84734300Y-58314330D01*
X83430026Y-59618604D01*
X83363234Y-59663233D01*
X83318605Y-59730025D01*
X83318603Y-59730027D01*
X83281864Y-59785011D01*
X83186418Y-59927856D01*
X83140000Y-60161211D01*
X83140000Y-60161216D01*
X83124329Y-60240000D01*
X83140000Y-60318784D01*
X83140000Y-60758629D01*
X82108630Y-61790000D01*
X75474416Y-61790000D01*
X75570000Y-61559239D01*
X75570000Y-61280761D01*
X75463432Y-61023482D01*
X75266518Y-60826568D01*
X75009239Y-60720000D01*
X74897359Y-60720000D01*
X74895001Y-60708148D01*
X74895001Y-60708143D01*
X74870342Y-60584174D01*
X74776409Y-60443593D01*
X74740920Y-60419880D01*
X74720121Y-60399081D01*
X74696408Y-60363592D01*
X74555827Y-60269659D01*
X74431858Y-60245000D01*
X74431857Y-60245000D01*
X74390000Y-60236674D01*
X74348143Y-60245000D01*
X73361857Y-60245000D01*
X73319999Y-60236674D01*
X73278142Y-60245000D01*
X73154173Y-60269659D01*
X73013592Y-60363592D01*
X72989881Y-60399078D01*
X72533960Y-60855000D01*
X63534513Y-60855000D01*
X63576767Y-60826767D01*
X63753583Y-60562144D01*
X63815672Y-60250000D01*
X63753583Y-59937856D01*
X63649680Y-59782354D01*
X79521353Y-59782354D01*
X79559741Y-59774692D01*
X79592155Y-59752973D01*
X79613790Y-59720503D01*
X79621353Y-59682225D01*
X79618748Y-57667066D01*
X79796518Y-57593432D01*
X79950000Y-57439950D01*
X80103482Y-57593432D01*
X80360761Y-57700000D01*
X80639239Y-57700000D01*
X80896518Y-57593432D01*
X81050000Y-57439950D01*
X81203482Y-57593432D01*
X81460761Y-57700000D01*
X81739239Y-57700000D01*
X81996518Y-57593432D01*
X82193432Y-57396518D01*
X82300000Y-57139239D01*
X82300000Y-56860761D01*
X82193432Y-56603482D01*
X81996518Y-56406568D01*
X81739239Y-56300000D01*
X81625370Y-56300000D01*
X81633327Y-56260000D01*
X81620231Y-56194163D01*
X81600342Y-56094174D01*
X81506409Y-55953593D01*
X81470923Y-55929882D01*
X80735000Y-55193960D01*
X80735000Y-53506000D01*
X84442000Y-53506000D01*
X84442000Y-54170938D01*
X84534562Y-54394404D01*
X84705595Y-54565437D01*
X84929061Y-54658000D01*
X85449383Y-54658000D01*
X85070897Y-54910897D01*
X84816724Y-55291293D01*
X84727471Y-55740000D01*
X84816724Y-56188707D01*
X85070897Y-56569103D01*
X85451293Y-56823276D01*
X85786739Y-56890000D01*
X86013261Y-56890000D01*
X86348707Y-56823276D01*
X86729103Y-56569103D01*
X86983276Y-56188707D01*
X87072529Y-55740000D01*
X86983276Y-55291293D01*
X86729103Y-54910897D01*
X86350617Y-54658000D01*
X86870939Y-54658000D01*
X87094405Y-54565437D01*
X87265438Y-54394404D01*
X87358000Y-54170938D01*
X87358000Y-53506000D01*
X87206000Y-53354000D01*
X86054000Y-53354000D01*
X86054000Y-53374000D01*
X85746000Y-53374000D01*
X85746000Y-53354000D01*
X84594000Y-53354000D01*
X84442000Y-53506000D01*
X80735000Y-53506000D01*
X80735000Y-52229062D01*
X84442000Y-52229062D01*
X84442000Y-52894000D01*
X84594000Y-53046000D01*
X85746000Y-53046000D01*
X85746000Y-51894000D01*
X86054000Y-51894000D01*
X86054000Y-53046000D01*
X87206000Y-53046000D01*
X87358000Y-52894000D01*
X87358000Y-52229062D01*
X87265438Y-52005596D01*
X87094405Y-51834563D01*
X86870939Y-51742000D01*
X86206000Y-51742000D01*
X86054000Y-51894000D01*
X85746000Y-51894000D01*
X85594000Y-51742000D01*
X84929061Y-51742000D01*
X84705595Y-51834563D01*
X84534562Y-52005596D01*
X84442000Y-52229062D01*
X80735000Y-52229062D01*
X80735000Y-44641855D01*
X80743326Y-44599999D01*
X80735000Y-44558142D01*
X80710341Y-44434173D01*
X80616408Y-44293592D01*
X80580922Y-44269881D01*
X79825000Y-43513960D01*
X79825000Y-38391857D01*
X79833326Y-38350000D01*
X79800341Y-38184173D01*
X79730118Y-38079077D01*
X79706408Y-38043592D01*
X79670922Y-38019881D01*
X78862637Y-37211596D01*
X78940000Y-37024825D01*
X78940000Y-36595175D01*
X78775579Y-36198229D01*
X78471771Y-35894421D01*
X78074825Y-35730000D01*
X77645175Y-35730000D01*
X77248229Y-35894421D01*
X77179999Y-35962651D01*
X77179999Y-35551041D01*
X77410119Y-35320922D01*
X77410121Y-35320919D01*
X77458404Y-35272636D01*
X77645175Y-35350000D01*
X78074825Y-35350000D01*
X78471771Y-35185579D01*
X78775579Y-34881771D01*
X78940000Y-34484825D01*
X78940000Y-34055175D01*
X78775579Y-33658229D01*
X78471771Y-33354421D01*
X78468128Y-33352912D01*
X79235923Y-32585118D01*
X79271409Y-32561407D01*
X79365342Y-32420826D01*
X79390001Y-32296857D01*
X79390001Y-32296856D01*
X79398327Y-32255000D01*
X79390001Y-32213144D01*
X79390001Y-30336856D01*
X79398327Y-30295000D01*
X79390001Y-30253143D01*
X79365342Y-30129174D01*
X79271409Y-29988593D01*
X79235924Y-29964883D01*
X78862637Y-29591596D01*
X78940000Y-29404825D01*
X78940000Y-28975175D01*
X78775579Y-28578229D01*
X78471771Y-28274421D01*
X78074825Y-28110000D01*
X77645175Y-28110000D01*
X77248229Y-28274421D01*
X76944421Y-28578229D01*
X76780000Y-28975175D01*
X76780000Y-29404825D01*
X76944421Y-29801771D01*
X77248229Y-30105579D01*
X77645175Y-30270000D01*
X78074825Y-30270000D01*
X78261596Y-30192637D01*
X78540001Y-30471042D01*
X78540001Y-30882651D01*
X78471771Y-30814421D01*
X78074825Y-30650000D01*
X77645175Y-30650000D01*
X77248229Y-30814421D01*
X76944421Y-31118229D01*
X76780000Y-31515175D01*
X76780000Y-31944825D01*
X76944421Y-32341771D01*
X77248229Y-32645579D01*
X77476178Y-32739999D01*
X77371456Y-32739999D01*
X77329599Y-32731673D01*
X77287741Y-32739999D01*
X77163772Y-32764658D01*
X77023191Y-32858591D01*
X76999480Y-32894077D01*
X76034069Y-33859489D01*
X75998580Y-33883202D01*
X75944865Y-33963593D01*
X75904647Y-34023784D01*
X75871662Y-34189610D01*
X75879988Y-34231468D01*
X75879989Y-39876716D01*
X75871662Y-39918578D01*
X75904647Y-40084404D01*
X75937523Y-40133606D01*
X75975009Y-40189708D01*
X75975010Y-40750290D01*
X75936796Y-40807481D01*
X75904647Y-40855596D01*
X75871662Y-41021422D01*
X75879988Y-41063280D01*
X75879989Y-44643126D01*
X75871662Y-44684988D01*
X75904647Y-44850814D01*
X75941793Y-44906407D01*
X75998581Y-44991396D01*
X76034067Y-45015107D01*
X76568247Y-45549287D01*
X64094787Y-45536253D01*
X72930922Y-36700119D01*
X72966408Y-36676408D01*
X73060341Y-36535827D01*
X73085000Y-36411858D01*
X73093326Y-36370000D01*
X73085000Y-36328143D01*
X73085000Y-32026040D01*
X77458404Y-27652636D01*
X77645175Y-27730000D01*
X78074825Y-27730000D01*
X78471771Y-27565579D01*
X78775579Y-27261771D01*
X78940000Y-26864825D01*
X78940000Y-26435175D01*
X78775579Y-26038229D01*
X78471771Y-25734421D01*
X78074825Y-25570000D01*
X77645175Y-25570000D01*
X77248229Y-25734421D01*
X76944421Y-26038229D01*
X76780000Y-26435175D01*
X76780000Y-26864825D01*
X76857364Y-27051596D01*
X72635000Y-31273960D01*
X72635000Y-29936040D01*
X77458404Y-25112637D01*
X77645175Y-25190000D01*
X78074825Y-25190000D01*
X78471771Y-25025579D01*
X78775579Y-24721771D01*
X78940000Y-24324825D01*
X78940000Y-23895175D01*
X78775579Y-23498229D01*
X78471771Y-23194421D01*
X78074825Y-23030000D01*
X77645175Y-23030000D01*
X77248229Y-23194421D01*
X76944421Y-23498229D01*
X76780000Y-23895175D01*
X76780000Y-24324825D01*
X76857363Y-24511596D01*
X72175000Y-29193960D01*
X72175000Y-27856040D01*
X77458404Y-22572637D01*
X77645175Y-22650000D01*
X78074825Y-22650000D01*
X78471771Y-22485579D01*
X78775579Y-22181771D01*
X78940000Y-21784825D01*
X78940000Y-21355175D01*
X78775579Y-20958229D01*
X78471771Y-20654421D01*
X78074825Y-20490000D01*
X77645175Y-20490000D01*
X77248229Y-20654421D01*
X76944421Y-20958229D01*
X76780000Y-21355175D01*
X76780000Y-21784825D01*
X76857363Y-21971596D01*
X71479079Y-27349881D01*
X71443593Y-27373592D01*
X71419882Y-27409078D01*
X71349659Y-27514174D01*
X71316674Y-27680000D01*
X71325001Y-27721862D01*
X71325000Y-35823960D01*
X61615298Y-45533662D01*
X60087720Y-45532066D01*
X60087720Y-45404577D01*
X60096046Y-45362720D01*
X60078834Y-45276187D01*
X60309171Y-45180779D01*
X60506085Y-44983865D01*
X60612653Y-44726586D01*
X60612653Y-44448108D01*
X60506085Y-44190829D01*
X60337653Y-44022397D01*
X60337653Y-43245280D01*
X60345979Y-43203423D01*
X60312994Y-43037596D01*
X60287645Y-42999659D01*
X60219061Y-42897015D01*
X60183576Y-42873305D01*
X59730427Y-42420156D01*
X59850761Y-42470000D01*
X60129239Y-42470000D01*
X60386518Y-42363432D01*
X60583432Y-42166518D01*
X60634142Y-42044092D01*
X60643482Y-42053432D01*
X60900761Y-42160000D01*
X61179239Y-42160000D01*
X61436518Y-42053432D01*
X61633432Y-41856518D01*
X61740000Y-41599239D01*
X61740000Y-41320761D01*
X61633432Y-41063482D01*
X61465000Y-40895050D01*
X61465000Y-39726172D01*
X61473326Y-39684314D01*
X61440341Y-39518488D01*
X61379116Y-39426858D01*
X61346408Y-39377907D01*
X61310922Y-39354197D01*
X60635806Y-38679081D01*
X60612093Y-38643592D01*
X60471512Y-38549659D01*
X60347543Y-38525000D01*
X60347542Y-38525000D01*
X60305685Y-38516674D01*
X60298127Y-38518177D01*
X60136518Y-38356568D01*
X59879239Y-38250000D01*
X59600761Y-38250000D01*
X59425040Y-38322786D01*
X59425040Y-36621639D01*
X63820933Y-32225747D01*
X63856416Y-32202038D01*
X63880125Y-32166555D01*
X63880127Y-32166553D01*
X63950350Y-32061457D01*
X63983335Y-31895630D01*
X63975008Y-31853768D01*
X63975010Y-25846226D01*
X63983336Y-25804369D01*
X63969422Y-25734421D01*
X63950351Y-25638544D01*
X63908608Y-25576071D01*
X63880128Y-25533447D01*
X63880127Y-25533446D01*
X63856418Y-25497963D01*
X63820935Y-25474254D01*
X59107442Y-20760761D01*
X59830000Y-20760761D01*
X59830000Y-21039239D01*
X59936568Y-21296518D01*
X60133482Y-21493432D01*
X60390761Y-21600000D01*
X60669239Y-21600000D01*
X60926518Y-21493432D01*
X61116193Y-21303757D01*
X61135079Y-21300000D01*
X61251757Y-21276791D01*
X61384069Y-21188384D01*
X61406388Y-21154981D01*
X62941370Y-19620000D01*
X76935403Y-19620000D01*
X76944421Y-19641771D01*
X77248229Y-19945579D01*
X77645175Y-20110000D01*
X78074825Y-20110000D01*
X78471771Y-19945579D01*
X78775579Y-19641771D01*
X78940000Y-19244825D01*
X78940000Y-18815175D01*
X78775579Y-18418229D01*
X78471771Y-18114421D01*
X78074825Y-17950000D01*
X77645175Y-17950000D01*
X77248229Y-18114421D01*
X76944421Y-18418229D01*
X76780000Y-18815175D01*
X76780000Y-18820000D01*
X76095684Y-18820000D01*
X77433404Y-17482281D01*
X77645175Y-17570000D01*
X78074825Y-17570000D01*
X78471771Y-17405579D01*
X78775579Y-17101771D01*
X78940000Y-16704825D01*
X78940000Y-16275175D01*
X78775579Y-15878229D01*
X78471771Y-15574421D01*
X78074825Y-15410000D01*
X77645175Y-15410000D01*
X77248229Y-15574421D01*
X76944421Y-15878229D01*
X76780000Y-16275175D01*
X76780000Y-16704825D01*
X76867719Y-16916596D01*
X75374316Y-18410000D01*
X62629392Y-18410000D01*
X62589999Y-18402164D01*
X62550607Y-18410000D01*
X62550606Y-18410000D01*
X62433928Y-18433209D01*
X62301616Y-18521616D01*
X62279301Y-18555013D01*
X62004314Y-18830001D01*
X61659392Y-18830001D01*
X61619998Y-18822165D01*
X61514205Y-18843209D01*
X61463927Y-18853210D01*
X61349001Y-18930000D01*
X61080761Y-18930000D01*
X60823482Y-19036568D01*
X60626568Y-19233482D01*
X60520000Y-19490761D01*
X60520000Y-19769239D01*
X60626568Y-20026518D01*
X60823482Y-20223432D01*
X61080761Y-20330000D01*
X61100001Y-20330000D01*
X61024975Y-20405025D01*
X60926518Y-20306568D01*
X60669239Y-20200000D01*
X60390761Y-20200000D01*
X60133482Y-20306568D01*
X59936568Y-20503482D01*
X59830000Y-20760761D01*
X59107442Y-20760761D01*
X55625000Y-17278320D01*
X55625000Y-14945444D01*
X77082344Y-14945444D01*
X77157699Y-15178635D01*
X77681336Y-15353869D01*
X78232173Y-15315378D01*
X78562301Y-15178635D01*
X78637656Y-14945444D01*
X77860000Y-14167789D01*
X77082344Y-14945444D01*
X55625000Y-14945444D01*
X55625000Y-13771336D01*
X76456131Y-13771336D01*
X76494622Y-14322173D01*
X76631365Y-14652301D01*
X76864556Y-14727656D01*
X77642211Y-13950000D01*
X78077789Y-13950000D01*
X78855444Y-14727656D01*
X79088635Y-14652301D01*
X79263869Y-14128664D01*
X79225378Y-13577827D01*
X79088635Y-13247699D01*
X78855444Y-13172344D01*
X78077789Y-13950000D01*
X77642211Y-13950000D01*
X76864556Y-13172344D01*
X76631365Y-13247699D01*
X76456131Y-13771336D01*
X55625000Y-13771336D01*
X55625000Y-13088771D01*
X55633326Y-13046914D01*
X55614955Y-12954556D01*
X77082344Y-12954556D01*
X77860000Y-13732211D01*
X78637656Y-12954556D01*
X78562301Y-12721365D01*
X78038664Y-12546131D01*
X77487827Y-12584622D01*
X77157699Y-12721365D01*
X77082344Y-12954556D01*
X55614955Y-12954556D01*
X55600341Y-12881087D01*
X55530118Y-12775991D01*
X55506408Y-12740506D01*
X55470923Y-12716796D01*
X53949302Y-11195175D01*
X76780000Y-11195175D01*
X76780000Y-11624825D01*
X76944421Y-12021771D01*
X77248229Y-12325579D01*
X77645175Y-12490000D01*
X78074825Y-12490000D01*
X78471771Y-12325579D01*
X78775579Y-12021771D01*
X78940000Y-11624825D01*
X78940000Y-11195175D01*
X78775579Y-10798229D01*
X78471771Y-10494421D01*
X78074825Y-10330000D01*
X77645175Y-10330000D01*
X77248229Y-10494421D01*
X76944421Y-10798229D01*
X76780000Y-11195175D01*
X53949302Y-11195175D01*
X53893207Y-11139081D01*
X53869494Y-11103592D01*
X53728913Y-11009659D01*
X53604944Y-10985000D01*
X53604943Y-10985000D01*
X53563086Y-10976674D01*
X53521229Y-10985000D01*
X53452942Y-10985000D01*
X53375579Y-10798229D01*
X53071771Y-10494421D01*
X52674825Y-10330000D01*
X52245175Y-10330000D01*
X51848229Y-10494421D01*
X51544421Y-10798229D01*
X51380000Y-11195175D01*
X51380000Y-11624825D01*
X51544421Y-12021771D01*
X51848229Y-12325579D01*
X52245175Y-12490000D01*
X52674825Y-12490000D01*
X53071771Y-12325579D01*
X53375579Y-12021771D01*
X53433642Y-11881596D01*
X54775000Y-13222955D01*
X54775001Y-13358140D01*
X54775000Y-13358143D01*
X54775000Y-14913960D01*
X53640121Y-13779081D01*
X53616408Y-13743592D01*
X53515581Y-13676221D01*
X53375579Y-13338229D01*
X53071771Y-13034421D01*
X52674825Y-12870000D01*
X52245175Y-12870000D01*
X51848229Y-13034421D01*
X51544421Y-13338229D01*
X51380000Y-13735175D01*
X51380000Y-14164825D01*
X51544421Y-14561771D01*
X51848229Y-14865579D01*
X52245175Y-15030000D01*
X52674825Y-15030000D01*
X53071771Y-14865579D01*
X53298155Y-14639195D01*
X54315000Y-15656041D01*
X54315001Y-17233960D01*
X53540000Y-16458960D01*
X53540000Y-16275175D01*
X53375579Y-15878229D01*
X53071771Y-15574421D01*
X52674825Y-15410000D01*
X52245175Y-15410000D01*
X51848229Y-15574421D01*
X51544421Y-15878229D01*
X51380000Y-16275175D01*
X51380000Y-16704825D01*
X51544421Y-17101771D01*
X51848229Y-17405579D01*
X52245175Y-17570000D01*
X52674825Y-17570000D01*
X53071771Y-17405579D01*
X53178155Y-17299195D01*
X53835425Y-17956465D01*
X53849881Y-17978101D01*
X53972699Y-18100919D01*
X53996412Y-18136408D01*
X54031900Y-18160120D01*
X54476780Y-18605000D01*
X53452942Y-18605000D01*
X53375579Y-18418229D01*
X53071771Y-18114421D01*
X52674825Y-17950000D01*
X52245175Y-17950000D01*
X51848229Y-18114421D01*
X51544421Y-18418229D01*
X51380000Y-18815175D01*
X51380000Y-19244825D01*
X51544421Y-19641771D01*
X51848229Y-19945579D01*
X52245175Y-20110000D01*
X52674825Y-20110000D01*
X53071771Y-19945579D01*
X53375579Y-19641771D01*
X53452942Y-19455000D01*
X54690370Y-19455000D01*
X56380370Y-21145000D01*
X53452942Y-21145000D01*
X53375579Y-20958229D01*
X53071771Y-20654421D01*
X52674825Y-20490000D01*
X52245175Y-20490000D01*
X51848229Y-20654421D01*
X51544421Y-20958229D01*
X51380000Y-21355175D01*
X51380000Y-21784825D01*
X51544421Y-22181771D01*
X51848229Y-22485579D01*
X52196888Y-22629999D01*
X50795685Y-22629999D01*
X49834508Y-21668823D01*
X50016518Y-21593432D01*
X50213432Y-21396518D01*
X50320000Y-21139239D01*
X50320000Y-21059950D01*
X50353482Y-21093432D01*
X50610761Y-21200000D01*
X50889239Y-21200000D01*
X51146518Y-21093432D01*
X51343432Y-20896518D01*
X51450000Y-20639239D01*
X51450000Y-20360761D01*
X51343432Y-20103482D01*
X51146518Y-19906568D01*
X50889239Y-19800000D01*
X50615684Y-19800000D01*
X50600701Y-19785017D01*
X50578383Y-19751615D01*
X50446071Y-19663208D01*
X50329393Y-19639999D01*
X50289999Y-19632163D01*
X50250605Y-19639999D01*
X20688306Y-19639999D01*
X20929103Y-19479103D01*
X21183276Y-19098707D01*
X21272529Y-18650000D01*
X21183276Y-18201293D01*
X20929103Y-17820897D01*
X20548707Y-17566724D01*
X20213261Y-17500000D01*
X19986739Y-17500000D01*
X19651293Y-17566724D01*
X19270897Y-17820897D01*
X19016724Y-18201293D01*
X18927471Y-18650000D01*
X19016724Y-19098707D01*
X19270897Y-19479103D01*
X19511694Y-19639999D01*
X18677262Y-19639999D01*
X18692593Y-19617054D01*
X18715877Y-19500000D01*
X18715877Y-17800000D01*
X18692593Y-17682946D01*
X18626288Y-17583712D01*
X18527054Y-17517407D01*
X18410000Y-17494123D01*
X16710000Y-17494123D01*
X16592946Y-17517407D01*
X16493712Y-17583712D01*
X16427407Y-17682946D01*
X16404123Y-17800000D01*
X16404123Y-19500000D01*
X16427407Y-19617054D01*
X16493712Y-19716288D01*
X16592946Y-19782593D01*
X16710000Y-19805877D01*
X17173225Y-19805877D01*
X17183209Y-19856071D01*
X17207674Y-19892685D01*
X17271617Y-19988384D01*
X17305016Y-20010700D01*
X17352968Y-20058652D01*
X17111293Y-20106724D01*
X16730897Y-20360897D01*
X16476724Y-20741293D01*
X16387471Y-21190000D01*
X16476724Y-21638707D01*
X16730897Y-22019103D01*
X17111293Y-22273276D01*
X17446739Y-22340000D01*
X17673261Y-22340000D01*
X18008707Y-22273276D01*
X18050000Y-22245685D01*
X18399300Y-22594985D01*
X18421617Y-22628385D01*
X18534678Y-22703929D01*
X18553929Y-22716792D01*
X18710000Y-22747837D01*
X18749394Y-22740001D01*
X19511694Y-22740001D01*
X19270897Y-22900897D01*
X19016724Y-23281293D01*
X18927471Y-23730000D01*
X19016724Y-24178707D01*
X19218043Y-24480001D01*
X18875686Y-24480001D01*
X18615685Y-24220000D01*
X18643276Y-24178707D01*
X18732529Y-23730000D01*
X18643276Y-23281293D01*
X18389103Y-22900897D01*
X18008707Y-22646724D01*
X17673261Y-22580000D01*
X17446739Y-22580000D01*
X17111293Y-22646724D01*
X16730897Y-22900897D01*
X16476724Y-23281293D01*
X16387471Y-23730000D01*
X16476724Y-24178707D01*
X16730897Y-24559103D01*
X17111293Y-24813276D01*
X17446739Y-24880000D01*
X17673261Y-24880000D01*
X18008707Y-24813276D01*
X18050000Y-24785685D01*
X18399300Y-25134985D01*
X18421617Y-25168385D01*
X18553929Y-25256792D01*
X18710000Y-25287837D01*
X18749394Y-25280001D01*
X19511694Y-25280001D01*
X19270897Y-25440897D01*
X19016724Y-25821293D01*
X18927471Y-26270000D01*
X19016724Y-26718707D01*
X19218043Y-27020001D01*
X18875686Y-27020001D01*
X18615685Y-26760000D01*
X18643276Y-26718707D01*
X18732529Y-26270000D01*
X18643276Y-25821293D01*
X18389103Y-25440897D01*
X18008707Y-25186724D01*
X17673261Y-25120000D01*
X17446739Y-25120000D01*
X17111293Y-25186724D01*
X16730897Y-25440897D01*
X16476724Y-25821293D01*
X16387471Y-26270000D01*
X16476724Y-26718707D01*
X16730897Y-27099103D01*
X17111293Y-27353276D01*
X17405998Y-27411896D01*
X17405998Y-27512143D01*
X17181089Y-27402085D01*
X16671146Y-27654259D01*
X16296523Y-28082384D01*
X16152097Y-28431090D01*
X16263111Y-28656000D01*
X17406000Y-28656000D01*
X17406000Y-28636000D01*
X17714000Y-28636000D01*
X17714000Y-28656000D01*
X17734000Y-28656000D01*
X17734000Y-28964000D01*
X17714000Y-28964000D01*
X17714000Y-28984000D01*
X17406000Y-28984000D01*
X17406000Y-28964000D01*
X16263111Y-28964000D01*
X16152097Y-29188910D01*
X16296523Y-29537616D01*
X16671146Y-29965741D01*
X17181089Y-30217915D01*
X17405998Y-30107857D01*
X17405998Y-30208104D01*
X17111293Y-30266724D01*
X16730897Y-30520897D01*
X16476724Y-30901293D01*
X16387471Y-31350000D01*
X16476724Y-31798707D01*
X16730897Y-32179103D01*
X17111293Y-32433276D01*
X17446739Y-32500000D01*
X17673261Y-32500000D01*
X18008707Y-32433276D01*
X18389103Y-32179103D01*
X18643276Y-31798707D01*
X18732529Y-31350000D01*
X18643276Y-30901293D01*
X18615685Y-30860000D01*
X18875686Y-30599999D01*
X19218043Y-30599999D01*
X19016724Y-30901293D01*
X18927471Y-31350000D01*
X19016724Y-31798707D01*
X19270897Y-32179103D01*
X19651293Y-32433276D01*
X19986739Y-32500000D01*
X20213261Y-32500000D01*
X20548707Y-32433276D01*
X20891318Y-32204350D01*
X34856400Y-32204350D01*
X34856400Y-33795650D01*
X35465363Y-35265818D01*
X36590582Y-36391037D01*
X38060750Y-37000000D01*
X39652050Y-37000000D01*
X41122218Y-36391037D01*
X42247437Y-35265818D01*
X42856400Y-33795650D01*
X42856400Y-32204350D01*
X42247437Y-30734182D01*
X41122218Y-29608963D01*
X39652050Y-29000000D01*
X38060750Y-29000000D01*
X36590582Y-29608963D01*
X35465363Y-30734182D01*
X34856400Y-32204350D01*
X20891318Y-32204350D01*
X20929103Y-32179103D01*
X21183276Y-31798707D01*
X21272529Y-31350000D01*
X21183276Y-30901293D01*
X20929103Y-30520897D01*
X20722701Y-30382983D01*
X27845686Y-23260000D01*
X46384316Y-23260000D01*
X47900000Y-24775685D01*
X47900000Y-25049239D01*
X48006568Y-25306518D01*
X48203482Y-25503432D01*
X48460761Y-25610000D01*
X48739239Y-25610000D01*
X48996518Y-25503432D01*
X49193432Y-25306518D01*
X49300000Y-25049239D01*
X49300000Y-25045685D01*
X49640000Y-25385685D01*
X49640000Y-25760050D01*
X49446568Y-25953482D01*
X49340000Y-26210761D01*
X49340000Y-26489239D01*
X49446568Y-26746518D01*
X49643482Y-26943432D01*
X49900761Y-27050000D01*
X50179239Y-27050000D01*
X50436518Y-26943432D01*
X50580000Y-26799950D01*
X50580001Y-42910601D01*
X50572164Y-42950000D01*
X50603209Y-43106071D01*
X50603210Y-43106072D01*
X50691617Y-43238384D01*
X50725017Y-43260701D01*
X51467719Y-44003403D01*
X51380000Y-44215175D01*
X51380000Y-44644825D01*
X51544421Y-45041771D01*
X51848229Y-45345579D01*
X52245175Y-45510000D01*
X52674825Y-45510000D01*
X53071771Y-45345579D01*
X53375579Y-45041771D01*
X53540000Y-44644825D01*
X53540000Y-44215175D01*
X53375579Y-43818229D01*
X53071771Y-43514421D01*
X52674825Y-43350000D01*
X52245175Y-43350000D01*
X52033403Y-43437719D01*
X51380000Y-42784316D01*
X51380000Y-42104825D01*
X51544421Y-42501771D01*
X51848229Y-42805579D01*
X52245175Y-42970000D01*
X52674825Y-42970000D01*
X53071771Y-42805579D01*
X53375579Y-42501771D01*
X53540000Y-42104825D01*
X53540000Y-41675175D01*
X53375579Y-41278229D01*
X53071771Y-40974421D01*
X52674825Y-40810000D01*
X52245175Y-40810000D01*
X51848229Y-40974421D01*
X51544421Y-41278229D01*
X51380000Y-41675175D01*
X51380000Y-39564825D01*
X51544421Y-39961771D01*
X51848229Y-40265579D01*
X52245175Y-40430000D01*
X52674825Y-40430000D01*
X53071771Y-40265579D01*
X53375579Y-39961771D01*
X53540000Y-39564825D01*
X53540000Y-39135175D01*
X53375579Y-38738229D01*
X53071771Y-38434421D01*
X52674825Y-38270000D01*
X52245175Y-38270000D01*
X51848229Y-38434421D01*
X51544421Y-38738229D01*
X51380000Y-39135175D01*
X51380000Y-37024825D01*
X51544421Y-37421771D01*
X51848229Y-37725579D01*
X52245175Y-37890000D01*
X52674825Y-37890000D01*
X53071771Y-37725579D01*
X53375579Y-37421771D01*
X53540000Y-37024825D01*
X53540000Y-36595175D01*
X53375579Y-36198229D01*
X53071771Y-35894421D01*
X52674825Y-35730000D01*
X52245175Y-35730000D01*
X51848229Y-35894421D01*
X51544421Y-36198229D01*
X51380000Y-36595175D01*
X51380000Y-34484825D01*
X51544421Y-34881771D01*
X51848229Y-35185579D01*
X52245175Y-35350000D01*
X52674825Y-35350000D01*
X53071771Y-35185579D01*
X53375579Y-34881771D01*
X53540000Y-34484825D01*
X53540000Y-34055175D01*
X53375579Y-33658229D01*
X53071771Y-33354421D01*
X52674825Y-33190000D01*
X52245175Y-33190000D01*
X51848229Y-33354421D01*
X51544421Y-33658229D01*
X51380000Y-34055175D01*
X51380000Y-32725444D01*
X51682344Y-32725444D01*
X51757699Y-32958635D01*
X52281336Y-33133869D01*
X52832173Y-33095378D01*
X53162301Y-32958635D01*
X53237656Y-32725444D01*
X52460000Y-31947789D01*
X51682344Y-32725444D01*
X51380000Y-32725444D01*
X51380000Y-32480332D01*
X51464556Y-32507656D01*
X52242211Y-31730000D01*
X52677789Y-31730000D01*
X53455444Y-32507656D01*
X53688635Y-32432301D01*
X53863869Y-31908664D01*
X53825378Y-31357827D01*
X53688635Y-31027699D01*
X53455444Y-30952344D01*
X52677789Y-31730000D01*
X52242211Y-31730000D01*
X51464556Y-30952344D01*
X51380000Y-30979668D01*
X51380000Y-30734556D01*
X51682344Y-30734556D01*
X52460000Y-31512211D01*
X53237656Y-30734556D01*
X53162301Y-30501365D01*
X52638664Y-30326131D01*
X52087827Y-30364622D01*
X51757699Y-30501365D01*
X51682344Y-30734556D01*
X51380000Y-30734556D01*
X51380000Y-29404825D01*
X51544421Y-29801771D01*
X51848229Y-30105579D01*
X52245175Y-30270000D01*
X52674825Y-30270000D01*
X53071771Y-30105579D01*
X53375579Y-29801771D01*
X53540000Y-29404825D01*
X53540000Y-28975175D01*
X53375579Y-28578229D01*
X53071771Y-28274421D01*
X52674825Y-28110000D01*
X52245175Y-28110000D01*
X52033403Y-28197719D01*
X51780000Y-27944316D01*
X51780000Y-27497350D01*
X51848229Y-27565579D01*
X52245175Y-27730000D01*
X52674825Y-27730000D01*
X53071771Y-27565579D01*
X53375579Y-27261771D01*
X53540000Y-26864825D01*
X53540000Y-26435175D01*
X53375579Y-26038229D01*
X53071771Y-25734421D01*
X52693366Y-25577680D01*
X52305686Y-25190000D01*
X52674825Y-25190000D01*
X52684820Y-25185860D01*
X53540000Y-26041041D01*
X53540000Y-26279239D01*
X53646568Y-26536518D01*
X53843482Y-26733432D01*
X54100761Y-26840000D01*
X54379239Y-26840000D01*
X54636518Y-26733432D01*
X54833432Y-26536518D01*
X54940000Y-26279239D01*
X54940000Y-26000761D01*
X54833432Y-25743482D01*
X54636518Y-25546568D01*
X54379239Y-25440000D01*
X54141041Y-25440000D01*
X53389413Y-24688373D01*
X53540000Y-24324825D01*
X53540000Y-23895175D01*
X53375579Y-23498229D01*
X53307349Y-23429999D01*
X56100607Y-23429999D01*
X56140001Y-23437835D01*
X56179395Y-23429999D01*
X56296073Y-23406790D01*
X56428385Y-23318383D01*
X56450703Y-23284981D01*
X56505685Y-23230000D01*
X56779239Y-23230000D01*
X57036518Y-23123432D01*
X57233432Y-22926518D01*
X57318970Y-22720010D01*
X61275001Y-26676042D01*
X61275000Y-31023959D01*
X56929079Y-35369881D01*
X56893593Y-35393592D01*
X56869882Y-35429078D01*
X56799659Y-35534174D01*
X56766674Y-35700000D01*
X56775001Y-35741862D01*
X56775000Y-43335050D01*
X56606568Y-43503482D01*
X56500000Y-43760761D01*
X56500000Y-44039239D01*
X56606568Y-44296518D01*
X56803482Y-44493432D01*
X57060761Y-44600000D01*
X57213046Y-44600000D01*
X57213046Y-44826782D01*
X57319614Y-45084061D01*
X57516528Y-45280975D01*
X57773807Y-45387543D01*
X57905551Y-45387543D01*
X57905551Y-45529786D01*
X50793322Y-45522354D01*
X50755093Y-45529907D01*
X50722617Y-45551533D01*
X50700890Y-45583942D01*
X50693218Y-45622198D01*
X50689404Y-48075000D01*
X26191857Y-48075000D01*
X26150000Y-48066674D01*
X26108142Y-48075000D01*
X25984173Y-48099659D01*
X25843592Y-48193592D01*
X25819881Y-48229078D01*
X14979079Y-59069881D01*
X14943593Y-59093592D01*
X14919882Y-59129078D01*
X14849659Y-59234174D01*
X14827789Y-59344123D01*
X14600000Y-59344123D01*
X14482946Y-59367407D01*
X14383712Y-59433712D01*
X14317407Y-59532946D01*
X14294123Y-59650000D01*
X14294123Y-61150000D01*
X14317407Y-61267054D01*
X14383712Y-61366288D01*
X14482946Y-61432593D01*
X14600000Y-61455877D01*
X15900000Y-61455877D01*
X16017054Y-61432593D01*
X16116288Y-61366288D01*
X16182593Y-61267054D01*
X16205877Y-61150000D01*
X16205877Y-59650000D01*
X16182593Y-59532946D01*
X16116288Y-59433712D01*
X16017054Y-59367407D01*
X15905769Y-59345271D01*
X19075001Y-56176039D01*
X19075000Y-59344123D01*
X18850000Y-59344123D01*
X18732946Y-59367407D01*
X18633712Y-59433712D01*
X18567407Y-59532946D01*
X18544123Y-59650000D01*
X18544123Y-61150000D01*
X18567407Y-61267054D01*
X18633712Y-61366288D01*
X18732946Y-61432593D01*
X18850000Y-61455877D01*
X20150000Y-61455877D01*
X20267054Y-61432593D01*
X20366288Y-61366288D01*
X20432593Y-61267054D01*
X20455877Y-61150000D01*
X20455877Y-59650000D01*
X20432593Y-59532946D01*
X20366288Y-59433712D01*
X20267054Y-59367407D01*
X20150000Y-59344123D01*
X19925000Y-59344123D01*
X19925000Y-55966040D01*
X23325000Y-52566040D01*
X23325001Y-59344123D01*
X23100000Y-59344123D01*
X22982946Y-59367407D01*
X22883712Y-59433712D01*
X22817407Y-59532946D01*
X22794123Y-59650000D01*
X22794123Y-61150000D01*
X22817407Y-61267054D01*
X22883712Y-61366288D01*
X22982946Y-61432593D01*
X23100000Y-61455877D01*
X24400000Y-61455877D01*
X24517054Y-61432593D01*
X24616288Y-61366288D01*
X24682593Y-61267054D01*
X24705877Y-61150000D01*
X24705877Y-59650000D01*
X24682593Y-59532946D01*
X24616288Y-59433712D01*
X24517054Y-59367407D01*
X24400000Y-59344123D01*
X24175000Y-59344123D01*
X24175000Y-52356040D01*
X26706041Y-49825000D01*
X50686682Y-49825000D01*
X50678914Y-54820000D01*
X31458783Y-54820000D01*
X31379999Y-54804329D01*
X31301215Y-54820000D01*
X31301211Y-54820000D01*
X31067856Y-54866417D01*
X30803233Y-55043233D01*
X30758604Y-55110025D01*
X25128603Y-60740027D01*
X24996418Y-60937856D01*
X24934329Y-61250000D01*
X24996418Y-61562144D01*
X25173233Y-61826767D01*
X25437856Y-62003582D01*
X25750000Y-62065671D01*
X26062144Y-62003582D01*
X26221579Y-61897051D01*
X26128603Y-61990027D01*
X25996418Y-62187856D01*
X25934329Y-62500000D01*
X25996418Y-62812144D01*
X26173233Y-63076767D01*
X26200000Y-63094652D01*
X26200000Y-63119854D01*
X26200001Y-63119859D01*
X26200000Y-64382185D01*
X24405877Y-66176309D01*
X24405877Y-64550000D01*
X24382593Y-64432946D01*
X24316288Y-64333712D01*
X24217054Y-64267407D01*
X24125000Y-64249096D01*
X24125000Y-64155877D01*
X24400000Y-64155877D01*
X24517054Y-64132593D01*
X24616288Y-64066288D01*
X24682593Y-63967054D01*
X24705877Y-63850000D01*
X24705877Y-62350000D01*
X24682593Y-62232946D01*
X24616288Y-62133712D01*
X24517054Y-62067407D01*
X24400000Y-62044123D01*
X23100000Y-62044123D01*
X22982946Y-62067407D01*
X22883712Y-62133712D01*
X22817407Y-62232946D01*
X22794123Y-62350000D01*
X22794123Y-63850000D01*
X22817407Y-63967054D01*
X22883712Y-64066288D01*
X22982946Y-64132593D01*
X23100000Y-64155877D01*
X23275001Y-64155877D01*
X23275001Y-64249096D01*
X23182946Y-64267407D01*
X23083712Y-64333712D01*
X23017407Y-64432946D01*
X22994123Y-64550000D01*
X22994123Y-66450000D01*
X22808000Y-66450000D01*
X22808000Y-65806000D01*
X22656000Y-65654000D01*
X21954000Y-65654000D01*
X21954000Y-65674000D01*
X21646000Y-65674000D01*
X21646000Y-65654000D01*
X20944000Y-65654000D01*
X20792000Y-65806000D01*
X20792000Y-66450000D01*
X20155877Y-66450000D01*
X20155877Y-64550000D01*
X20132593Y-64432946D01*
X20129998Y-64429061D01*
X20792000Y-64429061D01*
X20792000Y-65194000D01*
X20944000Y-65346000D01*
X21646000Y-65346000D01*
X21646000Y-64094000D01*
X21954000Y-64094000D01*
X21954000Y-65346000D01*
X22656000Y-65346000D01*
X22808000Y-65194000D01*
X22808000Y-64429061D01*
X22715437Y-64205595D01*
X22544404Y-64034562D01*
X22320938Y-63942000D01*
X22106000Y-63942000D01*
X21954000Y-64094000D01*
X21646000Y-64094000D01*
X21494000Y-63942000D01*
X21279062Y-63942000D01*
X21055596Y-64034562D01*
X20884563Y-64205595D01*
X20792000Y-64429061D01*
X20129998Y-64429061D01*
X20066288Y-64333712D01*
X19967054Y-64267407D01*
X19875000Y-64249096D01*
X19875000Y-64155877D01*
X20150000Y-64155877D01*
X20267054Y-64132593D01*
X20366288Y-64066288D01*
X20432593Y-63967054D01*
X20455877Y-63850000D01*
X20455877Y-62350000D01*
X20432593Y-62232946D01*
X20366288Y-62133712D01*
X20267054Y-62067407D01*
X20150000Y-62044123D01*
X18850000Y-62044123D01*
X18732946Y-62067407D01*
X18633712Y-62133712D01*
X18567407Y-62232946D01*
X18544123Y-62350000D01*
X18544123Y-63850000D01*
X18567407Y-63967054D01*
X18633712Y-64066288D01*
X18732946Y-64132593D01*
X18850000Y-64155877D01*
X19025001Y-64155877D01*
X19025001Y-64249096D01*
X18932946Y-64267407D01*
X18833712Y-64333712D01*
X18767407Y-64432946D01*
X18744123Y-64550000D01*
X18744123Y-66450000D01*
X18558000Y-66450000D01*
X18558000Y-65806000D01*
X18406000Y-65654000D01*
X17704000Y-65654000D01*
X17704000Y-65674000D01*
X17396000Y-65674000D01*
X17396000Y-65654000D01*
X16694000Y-65654000D01*
X16542000Y-65806000D01*
X16542000Y-66570939D01*
X16634563Y-66794405D01*
X16805596Y-66965438D01*
X17029062Y-67058000D01*
X17064183Y-67058000D01*
X14955877Y-69166307D01*
X14955877Y-67550000D01*
X14932593Y-67432946D01*
X14866288Y-67333712D01*
X14767054Y-67267407D01*
X14650000Y-67244123D01*
X13850000Y-67244123D01*
X13732946Y-67267407D01*
X13633712Y-67333712D01*
X13567407Y-67432946D01*
X13544123Y-67550000D01*
X13544123Y-68077789D01*
X13434173Y-68099659D01*
X13293592Y-68193592D01*
X13269881Y-68229078D01*
X12979078Y-68519881D01*
X12943593Y-68543592D01*
X12919882Y-68579078D01*
X12849659Y-68684174D01*
X12816674Y-68850000D01*
X12825001Y-68891862D01*
X12825001Y-69844123D01*
X12600000Y-69844123D01*
X12482946Y-69867407D01*
X12383712Y-69933712D01*
X12317407Y-70032946D01*
X12294123Y-70150000D01*
X9007782Y-70150000D01*
X8471037Y-68854182D01*
X7345818Y-67728963D01*
X5875650Y-67120000D01*
X4284350Y-67120000D01*
X2814182Y-67728963D01*
X1688963Y-68854182D01*
X1080000Y-70324350D01*
X438570Y-70324350D01*
X400000Y-69834283D01*
X400000Y-65806000D01*
X12292000Y-65806000D01*
X12292000Y-66570939D01*
X12384563Y-66794405D01*
X12555596Y-66965438D01*
X12779062Y-67058000D01*
X12994000Y-67058000D01*
X13146000Y-66906000D01*
X13146000Y-65654000D01*
X13454000Y-65654000D01*
X13454000Y-66906000D01*
X13606000Y-67058000D01*
X13820938Y-67058000D01*
X14044404Y-66965438D01*
X14215437Y-66794405D01*
X14308000Y-66570939D01*
X14308000Y-65806000D01*
X14156000Y-65654000D01*
X13454000Y-65654000D01*
X13146000Y-65654000D01*
X12444000Y-65654000D01*
X12292000Y-65806000D01*
X400000Y-65806000D01*
X400000Y-64429061D01*
X12292000Y-64429061D01*
X12292000Y-65194000D01*
X12444000Y-65346000D01*
X13146000Y-65346000D01*
X13146000Y-64094000D01*
X13454000Y-64094000D01*
X13454000Y-65346000D01*
X14156000Y-65346000D01*
X14308000Y-65194000D01*
X14308000Y-64429061D01*
X14215437Y-64205595D01*
X14044404Y-64034562D01*
X13820938Y-63942000D01*
X13606000Y-63942000D01*
X13454000Y-64094000D01*
X13146000Y-64094000D01*
X12994000Y-63942000D01*
X12779062Y-63942000D01*
X12555596Y-64034562D01*
X12384563Y-64205595D01*
X12292000Y-64429061D01*
X400000Y-64429061D01*
X400000Y-62350000D01*
X14294123Y-62350000D01*
X14294123Y-63850000D01*
X14317407Y-63967054D01*
X14383712Y-64066288D01*
X14482946Y-64132593D01*
X14600000Y-64155877D01*
X14775001Y-64155877D01*
X14775001Y-64249096D01*
X14682946Y-64267407D01*
X14583712Y-64333712D01*
X14517407Y-64432946D01*
X14494123Y-64550000D01*
X14494123Y-66450000D01*
X14517407Y-66567054D01*
X14583712Y-66666288D01*
X14682946Y-66732593D01*
X14800000Y-66755877D01*
X15600000Y-66755877D01*
X15717054Y-66732593D01*
X15816288Y-66666288D01*
X15882593Y-66567054D01*
X15905877Y-66450000D01*
X15905877Y-64550000D01*
X15882593Y-64432946D01*
X15879998Y-64429061D01*
X16542000Y-64429061D01*
X16542000Y-65194000D01*
X16694000Y-65346000D01*
X17396000Y-65346000D01*
X17396000Y-64094000D01*
X17704000Y-64094000D01*
X17704000Y-65346000D01*
X18406000Y-65346000D01*
X18558000Y-65194000D01*
X18558000Y-64429061D01*
X18465437Y-64205595D01*
X18294404Y-64034562D01*
X18070938Y-63942000D01*
X17856000Y-63942000D01*
X17704000Y-64094000D01*
X17396000Y-64094000D01*
X17244000Y-63942000D01*
X17029062Y-63942000D01*
X16805596Y-64034562D01*
X16634563Y-64205595D01*
X16542000Y-64429061D01*
X15879998Y-64429061D01*
X15816288Y-64333712D01*
X15717054Y-64267407D01*
X15625000Y-64249096D01*
X15625000Y-64155877D01*
X15900000Y-64155877D01*
X16017054Y-64132593D01*
X16116288Y-64066288D01*
X16182593Y-63967054D01*
X16205877Y-63850000D01*
X16205877Y-62350000D01*
X16182593Y-62232946D01*
X16116288Y-62133712D01*
X16017054Y-62067407D01*
X15900000Y-62044123D01*
X14600000Y-62044123D01*
X14482946Y-62067407D01*
X14383712Y-62133712D01*
X14317407Y-62232946D01*
X14294123Y-62350000D01*
X400000Y-62350000D01*
X400000Y-32204350D01*
X7143600Y-32204350D01*
X7143600Y-33795650D01*
X7752563Y-35265818D01*
X8877782Y-36391037D01*
X10347950Y-37000000D01*
X11939250Y-37000000D01*
X13409418Y-36391037D01*
X14534637Y-35265818D01*
X15143600Y-33795650D01*
X15143600Y-32204350D01*
X14534637Y-30734182D01*
X13409418Y-29608963D01*
X11939250Y-29000000D01*
X10347950Y-29000000D01*
X8877782Y-29608963D01*
X7752563Y-30734182D01*
X7143600Y-32204350D01*
X400000Y-32204350D01*
X400000Y-6365717D01*
X474476Y-5419408D01*
X692390Y-4511732D01*
X786574Y-4284350D01*
X1080000Y-4284350D01*
X1080000Y-5875650D01*
X1688963Y-7345818D01*
X2814182Y-8471037D01*
X4284350Y-9080000D01*
X5875650Y-9080000D01*
X7345818Y-8471037D01*
X7612505Y-8204350D01*
X21000000Y-8204350D01*
X21000000Y-9795650D01*
X21608963Y-11265818D01*
X22734182Y-12391037D01*
X24204350Y-13000000D01*
X25795650Y-13000000D01*
X27265818Y-12391037D01*
X28391037Y-11265818D01*
X29000000Y-9795650D01*
X29000000Y-8655175D01*
X51380000Y-8655175D01*
X51380000Y-9084825D01*
X51544421Y-9481771D01*
X51848229Y-9785579D01*
X52245175Y-9950000D01*
X52674825Y-9950000D01*
X53071771Y-9785579D01*
X53375579Y-9481771D01*
X53540000Y-9084825D01*
X53540000Y-8655175D01*
X76780000Y-8655175D01*
X76780000Y-9084825D01*
X76944421Y-9481771D01*
X77248229Y-9785579D01*
X77645175Y-9950000D01*
X78074825Y-9950000D01*
X78471771Y-9785579D01*
X78775579Y-9481771D01*
X78940000Y-9084825D01*
X78940000Y-8655175D01*
X78775579Y-8258229D01*
X78471771Y-7954421D01*
X78074825Y-7790000D01*
X77645175Y-7790000D01*
X77248229Y-7954421D01*
X76944421Y-8258229D01*
X76780000Y-8655175D01*
X53540000Y-8655175D01*
X53375579Y-8258229D01*
X53071771Y-7954421D01*
X52674825Y-7790000D01*
X52245175Y-7790000D01*
X51848229Y-7954421D01*
X51544421Y-8258229D01*
X51380000Y-8655175D01*
X29000000Y-8655175D01*
X29000000Y-8204350D01*
X28391037Y-6734182D01*
X27772030Y-6115175D01*
X51380000Y-6115175D01*
X51380000Y-6544825D01*
X51544421Y-6941771D01*
X51848229Y-7245579D01*
X52245175Y-7410000D01*
X52674825Y-7410000D01*
X53071771Y-7245579D01*
X53375579Y-6941771D01*
X53540000Y-6544825D01*
X53540000Y-6115175D01*
X76780000Y-6115175D01*
X76780000Y-6544825D01*
X76944421Y-6941771D01*
X77248229Y-7245579D01*
X77645175Y-7410000D01*
X78074825Y-7410000D01*
X78471771Y-7245579D01*
X78775579Y-6941771D01*
X78940000Y-6544825D01*
X78940000Y-6115175D01*
X78775579Y-5718229D01*
X78471771Y-5414421D01*
X78074825Y-5250000D01*
X77645175Y-5250000D01*
X77248229Y-5414421D01*
X76944421Y-5718229D01*
X76780000Y-6115175D01*
X53540000Y-6115175D01*
X53375579Y-5718229D01*
X53071771Y-5414421D01*
X52674825Y-5250000D01*
X52245175Y-5250000D01*
X51848229Y-5414421D01*
X51544421Y-5718229D01*
X51380000Y-6115175D01*
X27772030Y-6115175D01*
X27265818Y-5608963D01*
X25795650Y-5000000D01*
X24204350Y-5000000D01*
X22734182Y-5608963D01*
X21608963Y-6734182D01*
X21000000Y-8204350D01*
X7612505Y-8204350D01*
X8471037Y-7345818D01*
X9080000Y-5875650D01*
X9080000Y-4284350D01*
X8786251Y-3575175D01*
X51380000Y-3575175D01*
X51380000Y-4004825D01*
X51544421Y-4401771D01*
X51848229Y-4705579D01*
X52245175Y-4870000D01*
X52674825Y-4870000D01*
X53071771Y-4705579D01*
X53375579Y-4401771D01*
X53540000Y-4004825D01*
X53540000Y-3575175D01*
X76780000Y-3575175D01*
X76780000Y-4004825D01*
X76944421Y-4401771D01*
X77248229Y-4705579D01*
X77645175Y-4870000D01*
X78074825Y-4870000D01*
X78471771Y-4705579D01*
X78775579Y-4401771D01*
X78824216Y-4284350D01*
X79820000Y-4284350D01*
X79820000Y-5875650D01*
X80428963Y-7345818D01*
X81554182Y-8471037D01*
X83024350Y-9080000D01*
X84615650Y-9080000D01*
X86085818Y-8471037D01*
X87211037Y-7345818D01*
X87820000Y-5875650D01*
X87820000Y-4284350D01*
X87211037Y-2814182D01*
X86085818Y-1688963D01*
X84615650Y-1080000D01*
X83024350Y-1080000D01*
X81554182Y-1688963D01*
X80428963Y-2814182D01*
X79820000Y-4284350D01*
X78824216Y-4284350D01*
X78940000Y-4004825D01*
X78940000Y-3575175D01*
X78775579Y-3178229D01*
X78471771Y-2874421D01*
X78074825Y-2710000D01*
X77645175Y-2710000D01*
X77248229Y-2874421D01*
X76944421Y-3178229D01*
X76780000Y-3575175D01*
X53540000Y-3575175D01*
X53375579Y-3178229D01*
X53071771Y-2874421D01*
X52674825Y-2710000D01*
X52245175Y-2710000D01*
X51848229Y-2874421D01*
X51544421Y-3178229D01*
X51380000Y-3575175D01*
X8786251Y-3575175D01*
X8471037Y-2814182D01*
X7345818Y-1688963D01*
X5875650Y-1080000D01*
X4284350Y-1080000D01*
X2814182Y-1688963D01*
X1688963Y-2814182D01*
X1080000Y-4284350D01*
X786574Y-4284350D01*
X1049614Y-3649316D01*
X1537350Y-2853404D01*
X2143593Y-2143586D01*
X2853404Y-1537350D01*
X3649317Y-1049614D01*
X4511734Y-692389D01*
X5419408Y-474476D01*
X6365717Y-400000D01*
X51782650Y-400000D01*
X51544421Y-638229D01*
G36*
X44459563Y-56505595D02*
X44367000Y-56729061D01*
X44367000Y-57294000D01*
X44519000Y-57446000D01*
X45446000Y-57446000D01*
X45446000Y-57426000D01*
X45754000Y-57426000D01*
X45754000Y-57446000D01*
X46681000Y-57446000D01*
X46833000Y-57294000D01*
X46833000Y-56729061D01*
X46740437Y-56505595D01*
X46654842Y-56420000D01*
X47265752Y-56420000D01*
X47230596Y-56434562D01*
X47059563Y-56605595D01*
X46967000Y-56829061D01*
X46967000Y-57394000D01*
X47119000Y-57546000D01*
X48046000Y-57546000D01*
X48046000Y-57526000D01*
X48354000Y-57526000D01*
X48354000Y-57546000D01*
X48374000Y-57546000D01*
X48374000Y-57854000D01*
X48354000Y-57854000D01*
X48354000Y-58906000D01*
X48506000Y-59058000D01*
X48945938Y-59058000D01*
X49169404Y-58965438D01*
X49340437Y-58794405D01*
X49389209Y-58676660D01*
X50112548Y-59400000D01*
X49120931Y-59400000D01*
X49107593Y-59332946D01*
X49041288Y-59233712D01*
X48942054Y-59167407D01*
X48825000Y-59144123D01*
X47575000Y-59144123D01*
X47457946Y-59167407D01*
X47358712Y-59233712D01*
X47292407Y-59332946D01*
X47279069Y-59400000D01*
X46530877Y-59400000D01*
X46530877Y-59350000D01*
X46507593Y-59232946D01*
X46441288Y-59133712D01*
X46342054Y-59067407D01*
X46225000Y-59044123D01*
X44975000Y-59044123D01*
X44857946Y-59067407D01*
X44758712Y-59133712D01*
X44692407Y-59232946D01*
X44669123Y-59350000D01*
X44669123Y-59400000D01*
X29128783Y-59400000D01*
X29049999Y-59384329D01*
X28971215Y-59400000D01*
X28971211Y-59400000D01*
X28737856Y-59446417D01*
X28737854Y-59446418D01*
X28737855Y-59446418D01*
X28582834Y-59550000D01*
X28578424Y-59552946D01*
X30225370Y-57906000D01*
X44367000Y-57906000D01*
X44367000Y-58470939D01*
X44459563Y-58694405D01*
X44630596Y-58865438D01*
X44854062Y-58958000D01*
X45294000Y-58958000D01*
X45446000Y-58806000D01*
X45446000Y-57754000D01*
X45754000Y-57754000D01*
X45754000Y-58806000D01*
X45906000Y-58958000D01*
X46345938Y-58958000D01*
X46569404Y-58865438D01*
X46740437Y-58694405D01*
X46833000Y-58470939D01*
X46833000Y-58006000D01*
X46967000Y-58006000D01*
X46967000Y-58570939D01*
X47059563Y-58794405D01*
X47230596Y-58965438D01*
X47454062Y-59058000D01*
X47894000Y-59058000D01*
X48046000Y-58906000D01*
X48046000Y-57854000D01*
X47119000Y-57854000D01*
X46967000Y-58006000D01*
X46833000Y-58006000D01*
X46833000Y-57906000D01*
X46681000Y-57754000D01*
X45754000Y-57754000D01*
X45446000Y-57754000D01*
X44519000Y-57754000D01*
X44367000Y-57906000D01*
X30225370Y-57906000D01*
X31711371Y-56420000D01*
X44545158Y-56420000D01*
X44459563Y-56505595D01*
X44459563Y-56505595D01*
G37*
X44459563Y-56505595D02*
X44367000Y-56729061D01*
X44367000Y-57294000D01*
X44519000Y-57446000D01*
X45446000Y-57446000D01*
X45446000Y-57426000D01*
X45754000Y-57426000D01*
X45754000Y-57446000D01*
X46681000Y-57446000D01*
X46833000Y-57294000D01*
X46833000Y-56729061D01*
X46740437Y-56505595D01*
X46654842Y-56420000D01*
X47265752Y-56420000D01*
X47230596Y-56434562D01*
X47059563Y-56605595D01*
X46967000Y-56829061D01*
X46967000Y-57394000D01*
X47119000Y-57546000D01*
X48046000Y-57546000D01*
X48046000Y-57526000D01*
X48354000Y-57526000D01*
X48354000Y-57546000D01*
X48374000Y-57546000D01*
X48374000Y-57854000D01*
X48354000Y-57854000D01*
X48354000Y-58906000D01*
X48506000Y-59058000D01*
X48945938Y-59058000D01*
X49169404Y-58965438D01*
X49340437Y-58794405D01*
X49389209Y-58676660D01*
X50112548Y-59400000D01*
X49120931Y-59400000D01*
X49107593Y-59332946D01*
X49041288Y-59233712D01*
X48942054Y-59167407D01*
X48825000Y-59144123D01*
X47575000Y-59144123D01*
X47457946Y-59167407D01*
X47358712Y-59233712D01*
X47292407Y-59332946D01*
X47279069Y-59400000D01*
X46530877Y-59400000D01*
X46530877Y-59350000D01*
X46507593Y-59232946D01*
X46441288Y-59133712D01*
X46342054Y-59067407D01*
X46225000Y-59044123D01*
X44975000Y-59044123D01*
X44857946Y-59067407D01*
X44758712Y-59133712D01*
X44692407Y-59232946D01*
X44669123Y-59350000D01*
X44669123Y-59400000D01*
X29128783Y-59400000D01*
X29049999Y-59384329D01*
X28971215Y-59400000D01*
X28971211Y-59400000D01*
X28737856Y-59446417D01*
X28737854Y-59446418D01*
X28737855Y-59446418D01*
X28582834Y-59550000D01*
X28578424Y-59552946D01*
X30225370Y-57906000D01*
X44367000Y-57906000D01*
X44367000Y-58470939D01*
X44459563Y-58694405D01*
X44630596Y-58865438D01*
X44854062Y-58958000D01*
X45294000Y-58958000D01*
X45446000Y-58806000D01*
X45446000Y-57754000D01*
X45754000Y-57754000D01*
X45754000Y-58806000D01*
X45906000Y-58958000D01*
X46345938Y-58958000D01*
X46569404Y-58865438D01*
X46740437Y-58694405D01*
X46833000Y-58470939D01*
X46833000Y-58006000D01*
X46967000Y-58006000D01*
X46967000Y-58570939D01*
X47059563Y-58794405D01*
X47230596Y-58965438D01*
X47454062Y-59058000D01*
X47894000Y-59058000D01*
X48046000Y-58906000D01*
X48046000Y-57854000D01*
X47119000Y-57854000D01*
X46967000Y-58006000D01*
X46833000Y-58006000D01*
X46833000Y-57906000D01*
X46681000Y-57754000D01*
X45754000Y-57754000D01*
X45446000Y-57754000D01*
X44519000Y-57754000D01*
X44367000Y-57906000D01*
X30225370Y-57906000D01*
X31711371Y-56420000D01*
X44545158Y-56420000D01*
X44459563Y-56505595D01*
G04 #@! TD*
M02*
