M48
INCH,TZ
T1C0.0157
T2C0.0394
T3C0.0409
T4C0.1457
%
G90
G05
T1
X945Y-14213
X1260Y-26063
X1476Y-17717
X1732Y-4488
X2244Y-9724
X3445Y-24016
X3957Y-28925
X4331Y-15039
X5106Y-6161
X5591Y-23110
X6063Y-9961
X6201Y-18602
X6492Y-1969
X6791Y-25000
X6890Y-23130
X8268Y-22146
X8563Y-24803
X10138Y-24114
X10531Y-24606
X10571Y-6575
X10622Y-26665
X10933Y-24898
X11220Y-28839
X11417Y-12992
X12598Y-26043
X13189Y-17224
X13772Y-1744
X14264Y-9591
X14972Y-6929
X15059Y-25492
X15157Y-28740
X15846Y-22736
X17028Y-22736
X18110Y-16831
X18307Y-12303
X18740Y-2598
X18835Y-6953
X18984Y-21465
X19134Y-9807
X19500Y-26100
X19535Y-8268
X19539Y-22346
X19701Y-10374
X19846Y-22622
X19882Y-24213
X19980Y-8071
X20051Y-21898
X20815Y-28429
X21354Y-10291
X21917Y-26894
X21929Y-26378
X22299Y-8870
X22395Y-12637
X22520Y-17283
X22800Y-17594
X22953Y-3189
X23073Y-17878
X23307Y-10295
X23332Y-18174
X23520Y-15335
X23528Y-15799
X23588Y-17554
X23618Y-16445
X23623Y-7377
X23760Y-10736
X23831Y-8228
X24031Y-16323
X24102Y-7728
X24169Y-26843
X24689Y-26817
X24724Y-5551
X24724Y-9094
X24803Y-23720
X24954Y-26526
X25083Y-16354
X25248Y-26264
X25669Y-10157
X26850Y-1693
X27677Y-13504
X27957Y-6500
X28764Y-16587
X28937Y-2638
X29063Y-24189
X29476Y-24181
X29642Y-13094
X30134Y-23870
X30787Y-26028
X30913Y-23902
X31220Y-29016
X31260Y-22441
X31654Y-4961
X31693Y-22441
X32126Y-22441
X32720Y-20213
X32835Y-8346
X32850Y-22697
X32874Y-11299
X32992Y-18543
X33031Y-15197
X33894Y-26035
X34087Y-4272
X34449Y-24606
T2
X26528Y-26063
X27528Y-26063
X28528Y-26063
X29528Y-26063
X22528Y-29213
X23528Y-29213
X24528Y-29213
X25528Y-29213
X26528Y-29213
X27528Y-29213
X28528Y-29213
X29528Y-29213
X24528Y-27638
X25528Y-27638
X26528Y-27638
X27528Y-27638
X28528Y-27638
X29528Y-27638
X33819Y-20945
X33819Y-21945
X33819Y-22945
X33819Y-23945
X6913Y-7343
X6913Y-8343
X6913Y-9343
X6913Y-10343
X6913Y-11343
X6913Y-12343
X7913Y-7343
X7913Y-8343
X7913Y-9343
X7913Y-10343
X7913Y-11343
X7913Y-12343
X20906Y-24921
X21906Y-24921
X22906Y-24921
T3
X20654Y-492
X20654Y-1492
X20654Y-2492
X20654Y-3492
X20654Y-4492
X20654Y-5492
X20654Y-6492
X20654Y-7492
X20654Y-8492
X20654Y-9492
X20654Y-10492
X20654Y-11492
X20654Y-12492
X20654Y-13492
X20654Y-14492
X20654Y-15492
X20654Y-16492
X20654Y-17492
X20654Y-18492
X30654Y-492
X30654Y-1492
X30654Y-2492
X30654Y-3492
X30654Y-4492
X30654Y-5492
X30654Y-6492
X30654Y-7492
X30654Y-8492
X30654Y-9492
X30654Y-10492
X30654Y-11492
X30654Y-12492
X30654Y-13492
X30654Y-14492
X30654Y-15492
X30654Y-16492
X30654Y-17492
X30654Y-18492
T4
X33000Y-28000
X4387Y-12992
X15298Y-12992
X2000Y-2000
X2000Y-28000
X33000Y-2000
X9843Y-3543
T2
X17283Y-26378G85X18071Y-26378
G05
X17283Y-28740G85X18071Y-28740
G05
X19528Y-27953G85X19528Y-27165
G05
T0
M30
