G04 #@! TF.GenerationSoftware,KiCad,Pcbnew,(5.0.0)*
G04 #@! TF.CreationDate,2019-02-18T14:00:49-08:00*
G04 #@! TF.ProjectId,mlab100_Base_Panel_1.6,6D6C61623130305F426173655F50616E,rev?*
G04 #@! TF.SameCoordinates,Original*
G04 #@! TF.FileFunction,Soldermask,Top*
G04 #@! TF.FilePolarity,Negative*
%FSLAX46Y46*%
G04 Gerber Fmt 4.6, Leading zero omitted, Abs format (unit mm)*
G04 Created by KiCad (PCBNEW (5.0.0)) date 02/18/19 14:00:49*
%MOMM*%
%LPD*%
G01*
G04 APERTURE LIST*
%ADD10R,1.960000X1.960000*%
%ADD11C,1.960000*%
%ADD12R,1.900000X2.900000*%
%ADD13O,1.900000X2.900000*%
%ADD14R,1.700000X1.900000*%
%ADD15R,2.100000X2.100000*%
%ADD16O,2.100000X2.100000*%
%ADD17R,1.200000X2.300000*%
%ADD18R,1.650000X1.900000*%
%ADD19C,7.800000*%
%ADD20R,3.900000X3.900000*%
G04 APERTURE END LIST*
D10*
G04 #@! TO.C,U1*
X77860000Y-46970000D03*
D11*
X77860000Y-44430000D03*
X77860000Y-1250000D03*
X77860000Y-41890000D03*
X77860000Y-39350000D03*
X77860000Y-36810000D03*
X77860000Y-34270000D03*
X77860000Y-31730000D03*
X77860000Y-29190000D03*
X77860000Y-26650000D03*
X77860000Y-24110000D03*
X77860000Y-21570000D03*
X77860000Y-19030000D03*
X77860000Y-16490000D03*
X77860000Y-13950000D03*
X77860000Y-11410000D03*
X77860000Y-8870000D03*
X77860000Y-6330000D03*
X77860000Y-3790000D03*
X52460000Y-46970000D03*
X52460000Y-44430000D03*
X52460000Y-41890000D03*
X52460000Y-39350000D03*
X52460000Y-36810000D03*
X52460000Y-34270000D03*
X52460000Y-31730000D03*
X52460000Y-29190000D03*
X52460000Y-26650000D03*
X52460000Y-24110000D03*
X52460000Y-21570000D03*
X52460000Y-19030000D03*
X52460000Y-16490000D03*
X52460000Y-13950000D03*
X52460000Y-11410000D03*
X52460000Y-8870000D03*
X52460000Y-6330000D03*
X52460000Y-3790000D03*
X52460000Y-1250000D03*
G04 #@! TD*
D12*
G04 #@! TO.C,U2*
X53100000Y-63300000D03*
D13*
X55640000Y-63300000D03*
X58180000Y-63300000D03*
G04 #@! TD*
D14*
G04 #@! TO.C,R5*
X23750000Y-70900000D03*
X23750000Y-73600000D03*
G04 #@! TD*
G04 #@! TO.C,R7*
X15250000Y-70900000D03*
X15250000Y-73600000D03*
G04 #@! TD*
D15*
G04 #@! TO.C,J1*
X85900000Y-53200000D03*
D16*
X85900000Y-55740000D03*
X85900000Y-58280000D03*
X85900000Y-60820000D03*
G04 #@! TD*
D17*
G04 #@! TO.C,Q6*
X19450000Y-65500000D03*
X17550000Y-65500000D03*
X18500000Y-68500000D03*
G04 #@! TD*
G04 #@! TO.C,Q2*
X23700000Y-65500000D03*
X21800000Y-65500000D03*
X22750000Y-68500000D03*
G04 #@! TD*
D15*
G04 #@! TO.C,J5*
X75000000Y-74200000D03*
D16*
X72460000Y-74200000D03*
X69920000Y-74200000D03*
X67380000Y-74200000D03*
X64840000Y-74200000D03*
X62300000Y-74200000D03*
X59760000Y-74200000D03*
X57220000Y-74200000D03*
G04 #@! TD*
D17*
G04 #@! TO.C,Q4*
X15200000Y-65500000D03*
X13300000Y-65500000D03*
X14250000Y-68500000D03*
G04 #@! TD*
D18*
G04 #@! TO.C,C4*
X45600000Y-60100000D03*
X45600000Y-57600000D03*
G04 #@! TD*
G04 #@! TO.C,C3*
X48200000Y-57700000D03*
X48200000Y-60200000D03*
G04 #@! TD*
D14*
G04 #@! TO.C,R9*
X19500000Y-70900000D03*
X19500000Y-73600000D03*
G04 #@! TD*
D15*
G04 #@! TO.C,J7*
X75000000Y-66200000D03*
D16*
X72460000Y-66200000D03*
X69920000Y-66200000D03*
X67380000Y-66200000D03*
G04 #@! TD*
G04 #@! TO.C,J2*
X20100000Y-31350000D03*
X17560000Y-31350000D03*
X20100000Y-28810000D03*
X17560000Y-28810000D03*
X20100000Y-26270000D03*
X17560000Y-26270000D03*
X20100000Y-23730000D03*
X17560000Y-23730000D03*
X20100000Y-21190000D03*
X17560000Y-21190000D03*
X20100000Y-18650000D03*
D15*
X17560000Y-18650000D03*
G04 #@! TD*
G04 #@! TO.C,J6*
X75000000Y-70200000D03*
D16*
X72460000Y-70200000D03*
X69920000Y-70200000D03*
X67380000Y-70200000D03*
X64840000Y-70200000D03*
X62300000Y-70200000D03*
G04 #@! TD*
D14*
G04 #@! TO.C,D3*
X21750000Y-70900000D03*
X21750000Y-73600000D03*
G04 #@! TD*
G04 #@! TO.C,D6*
X13250000Y-73600000D03*
X13250000Y-70900000D03*
G04 #@! TD*
G04 #@! TO.C,D7*
X17500000Y-70900000D03*
X17500000Y-73600000D03*
G04 #@! TD*
D19*
G04 #@! TO.C,MH1*
X5080000Y-5080000D03*
G04 #@! TD*
G04 #@! TO.C,MH2*
X5080000Y-71120000D03*
G04 #@! TD*
G04 #@! TO.C,MH3*
X83820000Y-71120000D03*
G04 #@! TD*
G04 #@! TO.C,MH4*
X83820000Y-5080000D03*
G04 #@! TD*
G04 #@! TO.C,MH5*
X38856400Y-33000000D03*
G04 #@! TD*
G04 #@! TO.C,MH6*
X11143600Y-33000000D03*
G04 #@! TD*
G04 #@! TO.C,MH7*
X25000000Y-9000000D03*
G04 #@! TD*
D14*
G04 #@! TO.C,R4*
X23750000Y-60400000D03*
X23750000Y-63100000D03*
G04 #@! TD*
G04 #@! TO.C,R6*
X15250000Y-63100000D03*
X15250000Y-60400000D03*
G04 #@! TD*
G04 #@! TO.C,R8*
X19500000Y-60400000D03*
X19500000Y-63100000D03*
G04 #@! TD*
D20*
G04 #@! TO.C,J4*
X49600000Y-70000000D03*
X44900000Y-73000000D03*
X44900000Y-67000000D03*
G04 #@! TD*
D14*
G04 #@! TO.C,D1*
X32000000Y-71150000D03*
X32000000Y-73850000D03*
G04 #@! TD*
G04 #@! TO.C,D2*
X34025001Y-73850000D03*
X34025001Y-71150000D03*
G04 #@! TD*
G04 #@! TO.C,D4*
X36000000Y-71150000D03*
X36000000Y-73850000D03*
G04 #@! TD*
G04 #@! TO.C,R1*
X32000000Y-66150000D03*
X32000000Y-68850000D03*
G04 #@! TD*
G04 #@! TO.C,R2*
X34000000Y-68850000D03*
X34000000Y-66150000D03*
G04 #@! TD*
G04 #@! TO.C,R3*
X36000000Y-66150000D03*
X36000000Y-68850000D03*
G04 #@! TD*
M02*
