G04 #@! TF.GenerationSoftware,KiCad,Pcbnew,(5.0.0)*
G04 #@! TF.CreationDate,2019-02-18T14:00:49-08:00*
G04 #@! TF.ProjectId,mlab100_Base_Panel_1.6,6D6C61623130305F426173655F50616E,rev?*
G04 #@! TF.SameCoordinates,Original*
G04 #@! TF.FileFunction,Copper,L2,Bot,Signal*
G04 #@! TF.FilePolarity,Positive*
%FSLAX46Y46*%
G04 Gerber Fmt 4.6, Leading zero omitted, Abs format (unit mm)*
G04 Created by KiCad (PCBNEW (5.0.0)) date 02/18/19 14:00:49*
%MOMM*%
%LPD*%
G01*
G04 APERTURE LIST*
G04 #@! TA.AperFunction,ComponentPad*
%ADD10R,1.560000X1.560000*%
G04 #@! TD*
G04 #@! TA.AperFunction,ComponentPad*
%ADD11C,1.560000*%
G04 #@! TD*
G04 #@! TA.AperFunction,ComponentPad*
%ADD12R,1.500000X2.500000*%
G04 #@! TD*
G04 #@! TA.AperFunction,ComponentPad*
%ADD13O,1.500000X2.500000*%
G04 #@! TD*
G04 #@! TA.AperFunction,ComponentPad*
%ADD14R,1.700000X1.700000*%
G04 #@! TD*
G04 #@! TA.AperFunction,ComponentPad*
%ADD15O,1.700000X1.700000*%
G04 #@! TD*
G04 #@! TA.AperFunction,ComponentPad*
%ADD16C,7.400000*%
G04 #@! TD*
G04 #@! TA.AperFunction,ComponentPad*
%ADD17R,3.500000X3.500000*%
G04 #@! TD*
G04 #@! TA.AperFunction,ViaPad*
%ADD18C,0.800000*%
G04 #@! TD*
G04 #@! TA.AperFunction,Conductor*
%ADD19C,1.000000*%
G04 #@! TD*
G04 #@! TA.AperFunction,Conductor*
%ADD20C,0.200000*%
G04 #@! TD*
G04 #@! TA.AperFunction,Conductor*
%ADD21C,0.250000*%
G04 #@! TD*
G04 #@! TA.AperFunction,Conductor*
%ADD22C,2.000000*%
G04 #@! TD*
G04 APERTURE END LIST*
D10*
G04 #@! TO.P,U1,1*
G04 #@! TO.N,+3V3*
X77860000Y-46970000D03*
D11*
G04 #@! TO.P,U1,2*
G04 #@! TO.N,N/C*
X77860000Y-44430000D03*
G04 #@! TO.P,U1,19*
G04 #@! TO.N,+5V*
X77860000Y-1250000D03*
G04 #@! TO.P,U1,3*
G04 #@! TO.N,N/C*
X77860000Y-41890000D03*
G04 #@! TO.P,U1,4*
X77860000Y-39350000D03*
G04 #@! TO.P,U1,5*
G04 #@! TO.N,I34*
X77860000Y-36810000D03*
G04 #@! TO.P,U1,6*
G04 #@! TO.N,I35*
X77860000Y-34270000D03*
G04 #@! TO.P,U1,7*
G04 #@! TO.N,CTRL_Heater*
X77860000Y-31730000D03*
G04 #@! TO.P,U1,8*
G04 #@! TO.N,IO33*
X77860000Y-29190000D03*
G04 #@! TO.P,U1,9*
G04 #@! TO.N,LED_G*
X77860000Y-26650000D03*
G04 #@! TO.P,U1,10*
G04 #@! TO.N,LED_Y*
X77860000Y-24110000D03*
G04 #@! TO.P,U1,11*
G04 #@! TO.N,LED_R*
X77860000Y-21570000D03*
G04 #@! TO.P,U1,12*
G04 #@! TO.N,CTRL_3V3A*
X77860000Y-19030000D03*
G04 #@! TO.P,U1,13*
G04 #@! TO.N,CTRL_470nm*
X77860000Y-16490000D03*
G04 #@! TO.P,U1,14*
G04 #@! TO.N,GND*
X77860000Y-13950000D03*
G04 #@! TO.P,U1,15*
G04 #@! TO.N,N/C*
X77860000Y-11410000D03*
G04 #@! TO.P,U1,16*
X77860000Y-8870000D03*
G04 #@! TO.P,U1,17*
X77860000Y-6330000D03*
G04 #@! TO.P,U1,18*
X77860000Y-3790000D03*
G04 #@! TO.P,U1,20*
G04 #@! TO.N,GND*
X52460000Y-46970000D03*
G04 #@! TO.P,U1,21*
G04 #@! TO.N,SPI_MISO*
X52460000Y-44430000D03*
G04 #@! TO.P,U1,22*
G04 #@! TO.N,I2C_SCL*
X52460000Y-41890000D03*
G04 #@! TO.P,U1,23*
G04 #@! TO.N,N/C*
X52460000Y-39350000D03*
G04 #@! TO.P,U1,24*
X52460000Y-36810000D03*
G04 #@! TO.P,U1,25*
G04 #@! TO.N,I2C_SDA*
X52460000Y-34270000D03*
G04 #@! TO.P,U1,26*
G04 #@! TO.N,GND*
X52460000Y-31730000D03*
G04 #@! TO.P,U1,27*
G04 #@! TO.N,SPI_MOSI*
X52460000Y-29190000D03*
G04 #@! TO.P,U1,28*
G04 #@! TO.N,SPI_SCL*
X52460000Y-26650000D03*
G04 #@! TO.P,U1,29*
G04 #@! TO.N,SPI_CS_ADC*
X52460000Y-24110000D03*
G04 #@! TO.P,U1,30*
G04 #@! TO.N,IO17*
X52460000Y-21570000D03*
G04 #@! TO.P,U1,31*
G04 #@! TO.N,IO16*
X52460000Y-19030000D03*
G04 #@! TO.P,U1,32*
G04 #@! TO.N,IO4*
X52460000Y-16490000D03*
G04 #@! TO.P,U1,33*
G04 #@! TO.N,IO0*
X52460000Y-13950000D03*
G04 #@! TO.P,U1,34*
G04 #@! TO.N,IO2*
X52460000Y-11410000D03*
G04 #@! TO.P,U1,35*
G04 #@! TO.N,TEMP1W*
X52460000Y-8870000D03*
G04 #@! TO.P,U1,36*
G04 #@! TO.N,N/C*
X52460000Y-6330000D03*
G04 #@! TO.P,U1,37*
X52460000Y-3790000D03*
G04 #@! TO.P,U1,38*
X52460000Y-1250000D03*
G04 #@! TD*
D12*
G04 #@! TO.P,U2,1*
G04 #@! TO.N,+12V*
X53100000Y-63300000D03*
D13*
G04 #@! TO.P,U2,2*
G04 #@! TO.N,GND*
X55640000Y-63300000D03*
G04 #@! TO.P,U2,3*
G04 #@! TO.N,+5V*
X58180000Y-63300000D03*
G04 #@! TD*
D14*
G04 #@! TO.P,J1,1*
G04 #@! TO.N,GND*
X85900000Y-53200000D03*
D15*
G04 #@! TO.P,J1,2*
G04 #@! TO.N,+3V3*
X85900000Y-55740000D03*
G04 #@! TO.P,J1,3*
G04 #@! TO.N,+5V*
X85900000Y-58280000D03*
G04 #@! TO.P,J1,4*
G04 #@! TO.N,+12V*
X85900000Y-60820000D03*
G04 #@! TD*
D14*
G04 #@! TO.P,J5,1*
G04 #@! TO.N,I34*
X75000000Y-74200000D03*
D15*
G04 #@! TO.P,J5,2*
G04 #@! TO.N,I35*
X72460000Y-74200000D03*
G04 #@! TO.P,J5,3*
G04 #@! TO.N,IO33*
X69920000Y-74200000D03*
G04 #@! TO.P,J5,4*
G04 #@! TO.N,IO2*
X67380000Y-74200000D03*
G04 #@! TO.P,J5,5*
G04 #@! TO.N,IO0*
X64840000Y-74200000D03*
G04 #@! TO.P,J5,6*
G04 #@! TO.N,IO4*
X62300000Y-74200000D03*
G04 #@! TO.P,J5,7*
G04 #@! TO.N,IO16*
X59760000Y-74200000D03*
G04 #@! TO.P,J5,8*
G04 #@! TO.N,IO17*
X57220000Y-74200000D03*
G04 #@! TD*
D14*
G04 #@! TO.P,J7,1*
G04 #@! TO.N,GND*
X75000000Y-66200000D03*
D15*
G04 #@! TO.P,J7,2*
G04 #@! TO.N,I2C_SDA*
X72460000Y-66200000D03*
G04 #@! TO.P,J7,3*
G04 #@! TO.N,I2C_SCL*
X69920000Y-66200000D03*
G04 #@! TO.P,J7,4*
G04 #@! TO.N,+3V3*
X67380000Y-66200000D03*
G04 #@! TD*
G04 #@! TO.P,J2,12*
G04 #@! TO.N,+5V*
X20100000Y-31350000D03*
G04 #@! TO.P,J2,11*
G04 #@! TO.N,CTRL_Heater*
X17560000Y-31350000D03*
G04 #@! TO.P,J2,10*
G04 #@! TO.N,SPI_CS_ADC*
X20100000Y-28810000D03*
G04 #@! TO.P,J2,9*
G04 #@! TO.N,GND*
X17560000Y-28810000D03*
G04 #@! TO.P,J2,8*
G04 #@! TO.N,SPI_MOSI*
X20100000Y-26270000D03*
G04 #@! TO.P,J2,7*
G04 #@! TO.N,SPI_MISO*
X17560000Y-26270000D03*
G04 #@! TO.P,J2,6*
G04 #@! TO.N,CTRL_3V3A*
X20100000Y-23730000D03*
G04 #@! TO.P,J2,5*
G04 #@! TO.N,SPI_SCL*
X17560000Y-23730000D03*
G04 #@! TO.P,J2,4*
G04 #@! TO.N,+3V3*
X20100000Y-21190000D03*
G04 #@! TO.P,J2,3*
G04 #@! TO.N,TEMP1W*
X17560000Y-21190000D03*
G04 #@! TO.P,J2,2*
G04 #@! TO.N,+12V*
X20100000Y-18650000D03*
D14*
G04 #@! TO.P,J2,1*
G04 #@! TO.N,CTRL_470nm*
X17560000Y-18650000D03*
G04 #@! TD*
G04 #@! TO.P,J6,1*
G04 #@! TO.N,GND*
X75000000Y-70200000D03*
D15*
G04 #@! TO.P,J6,2*
G04 #@! TO.N,SPI_CS_ADC*
X72460000Y-70200000D03*
G04 #@! TO.P,J6,3*
G04 #@! TO.N,SPI_MISO*
X69920000Y-70200000D03*
G04 #@! TO.P,J6,4*
G04 #@! TO.N,SPI_MOSI*
X67380000Y-70200000D03*
G04 #@! TO.P,J6,5*
G04 #@! TO.N,SPI_SCL*
X64840000Y-70200000D03*
G04 #@! TO.P,J6,6*
G04 #@! TO.N,+3V3*
X62300000Y-70200000D03*
G04 #@! TD*
D16*
G04 #@! TO.P,MH1,1*
G04 #@! TO.N,N/C*
X5080000Y-5080000D03*
G04 #@! TD*
G04 #@! TO.P,MH2,1*
G04 #@! TO.N,N/C*
X5080000Y-71120000D03*
G04 #@! TD*
G04 #@! TO.P,MH3,1*
G04 #@! TO.N,N/C*
X83820000Y-71120000D03*
G04 #@! TD*
G04 #@! TO.P,MH4,1*
G04 #@! TO.N,N/C*
X83820000Y-5080000D03*
G04 #@! TD*
G04 #@! TO.P,MH5,1*
G04 #@! TO.N,N/C*
X38856400Y-33000000D03*
G04 #@! TD*
G04 #@! TO.P,MH6,1*
G04 #@! TO.N,N/C*
X11143600Y-33000000D03*
G04 #@! TD*
G04 #@! TO.P,MH7,1*
G04 #@! TO.N,N/C*
X25000000Y-9000000D03*
G04 #@! TD*
D17*
G04 #@! TO.P,J4,3*
G04 #@! TO.N,N/C*
X49600000Y-70000000D03*
G04 #@! TO.P,J4,2*
G04 #@! TO.N,GND*
X44900000Y-73000000D03*
G04 #@! TO.P,J4,1*
G04 #@! TO.N,+12V*
X44900000Y-67000000D03*
G04 #@! TD*
D18*
G04 #@! TO.N,+5V*
X26750000Y-62500000D03*
G04 #@! TO.N,GND*
X47600000Y-6600000D03*
X70300000Y-34300000D03*
X83800000Y-47100000D03*
X83900000Y-38600000D03*
X83500000Y-28700000D03*
X83400000Y-21200000D03*
X62800000Y-14100000D03*
X58300000Y-8100000D03*
X68200000Y-4300000D03*
X73500000Y-6700000D03*
X16490000Y-5000000D03*
X26850000Y-16700000D03*
X4400000Y-11400000D03*
X2400000Y-36100000D03*
X3200000Y-66200000D03*
X26980000Y-67730000D03*
X38250000Y-64750000D03*
X38500000Y-73000000D03*
X86090000Y-66130000D03*
X79300000Y-73700000D03*
X65200000Y-25800000D03*
X62800000Y-23100000D03*
X15400000Y-25300000D03*
X11000000Y-38200000D03*
X8750000Y-61000000D03*
X14200000Y-58700000D03*
X55700000Y-67000000D03*
X52870000Y-72210000D03*
X87500000Y-62500000D03*
X59200000Y-26150000D03*
X47840000Y-17660000D03*
X38030000Y-17600000D03*
X73060000Y-42130000D03*
X36230000Y-24360000D03*
X12970000Y-15650000D03*
X34980000Y-4430000D03*
X3750000Y-45000000D03*
X15750000Y-47250000D03*
X48219130Y-54519990D03*
X71010000Y-16510000D03*
X60002639Y-18737726D03*
X60350000Y-27270000D03*
X83110000Y-51340000D03*
X78200000Y-66110000D03*
X56882340Y-32097660D03*
X5700000Y-24700000D03*
X21750000Y-63000000D03*
X21000000Y-56250000D03*
X17250000Y-63500000D03*
X17500000Y-58750000D03*
X28500000Y-73250000D03*
X46500000Y-31250000D03*
X46000000Y-42750000D03*
X33500000Y-43750000D03*
X29000000Y-33000000D03*
X43250000Y-57750000D03*
X40250000Y-57750000D03*
X63710000Y-41540000D03*
X75290000Y-33260000D03*
X80400000Y-12600000D03*
X86580000Y-10850000D03*
X83440000Y-57650000D03*
X78520000Y-60710000D03*
X76540000Y-60630000D03*
X10050000Y-73470000D03*
X55670000Y-68310000D03*
X49530000Y-66294000D03*
X50500000Y-61500000D03*
G04 #@! TO.N,CTRL_3V3A*
X56640000Y-22530000D03*
X60530000Y-20900000D03*
G04 #@! TO.N,SPI_CS_ADC*
X64130000Y-66710000D03*
X54240000Y-26140000D03*
X50040000Y-26350000D03*
G04 #@! TO.N,SPI_SCL*
X61390000Y-68180000D03*
G04 #@! TO.N,+3V3*
X50930000Y-55620000D03*
X25750000Y-61250000D03*
X63000000Y-60250000D03*
X27770000Y-63240000D03*
G04 #@! TO.N,TEMP1W*
X49620000Y-21000000D03*
G04 #@! TO.N,I2C_SCL*
X73820000Y-61440000D03*
X49630000Y-56760000D03*
G04 #@! TO.N,I2C_SDA*
X74870000Y-61420000D03*
X50410000Y-57460000D03*
G04 #@! TO.N,+12V*
X32000000Y-66150000D03*
G04 #@! TO.N,IO0*
X59262721Y-46162730D03*
G04 #@! TO.N,IO2*
X59912653Y-44587347D03*
G04 #@! TO.N,IO4*
X58605551Y-45408972D03*
G04 #@! TO.N,IO16*
X57913046Y-44687543D03*
G04 #@! TO.N,IO17*
X57200000Y-43900000D03*
G04 #@! TO.N,IO33*
X79400000Y-57000000D03*
G04 #@! TO.N,I34*
X81600000Y-57000000D03*
G04 #@! TO.N,I35*
X80500000Y-57000000D03*
G04 #@! TO.N,CTRL_Heater*
X48600000Y-24910000D03*
G04 #@! TO.N,CTRL_470nm*
X61220000Y-19630000D03*
X50750000Y-20500000D03*
G04 #@! TO.N,SPI_MOSI*
X62709778Y-68114329D03*
X59990000Y-41770000D03*
X59760000Y-40130000D03*
G04 #@! TO.N,SPI_MISO*
X63383147Y-67375007D03*
X61040000Y-41460000D03*
X59740000Y-38950000D03*
G04 #@! TD*
D19*
G04 #@! TO.N,+5V*
X85900000Y-58280000D02*
X86780000Y-58280000D01*
X86780000Y-58280000D02*
X87700000Y-57360000D01*
X79419999Y-2809999D02*
X79419999Y-8119999D01*
X77860000Y-1250000D02*
X79419999Y-2809999D01*
X87700000Y-16400000D02*
X87700000Y-18580000D01*
X79419999Y-8119999D02*
X87700000Y-16400000D01*
X87700000Y-57360000D02*
X87700000Y-18580000D01*
X20100000Y-31350000D02*
X23000000Y-34250000D01*
X23000000Y-34250000D02*
X23000000Y-60250000D01*
X25250000Y-62500000D02*
X26750000Y-62500000D01*
X23000000Y-60250000D02*
X25250000Y-62500000D01*
D20*
G04 #@! TO.N,CTRL_3V3A*
X56640000Y-22530000D02*
X58270000Y-20900000D01*
X58270000Y-20900000D02*
X60530000Y-20900000D01*
D21*
G04 #@! TO.N,SPI_CS_ADC*
X64130000Y-66710000D02*
X61760000Y-64340000D01*
X61750047Y-61780047D02*
X61750046Y-61663636D01*
X61760000Y-64340000D02*
X61760000Y-61790000D01*
X61760000Y-61790000D02*
X61750047Y-61780047D01*
X61750046Y-61663636D02*
X55600081Y-55513671D01*
X62050020Y-46946390D02*
X62050020Y-45129980D01*
X55600081Y-55513671D02*
X55600081Y-53396328D01*
X55600081Y-53396328D02*
X62050020Y-46946390D01*
X62050020Y-45129980D02*
X62050020Y-33950020D01*
X62050020Y-33950020D02*
X54240000Y-26140000D01*
D20*
X52280000Y-24110000D02*
X52460000Y-24110000D01*
X50040000Y-26350000D02*
X52280000Y-24110000D01*
D21*
G04 #@! TO.N,SPI_SCL*
X54250051Y-56076937D02*
X54250051Y-52837128D01*
X60400016Y-67218776D02*
X60400016Y-62226903D01*
X54250051Y-52837128D02*
X60690000Y-46397180D01*
X60690000Y-43543004D02*
X59264998Y-42118002D01*
X60915013Y-40157989D02*
X60915013Y-38415598D01*
X60690000Y-46397180D02*
X60690000Y-43543004D01*
X59264998Y-41421998D02*
X59831995Y-40855001D01*
X60324998Y-37825583D02*
X60324998Y-34514998D01*
X60915013Y-38415598D02*
X60324998Y-37825583D01*
X53239999Y-27429999D02*
X52460000Y-26650000D01*
X60218001Y-40855001D02*
X60915013Y-40157989D01*
X60400016Y-62226903D02*
X54250051Y-56076937D01*
X60324998Y-34514998D02*
X53239999Y-27429999D01*
X59831995Y-40855001D02*
X60218001Y-40855001D01*
X59264998Y-42118002D02*
X59264998Y-41421998D01*
X60400016Y-67218776D02*
X60428776Y-67218776D01*
X60428776Y-67218776D02*
X61390000Y-68180000D01*
D19*
G04 #@! TO.N,+3V3*
X77840000Y-55740000D02*
X67380000Y-66200000D01*
X85900000Y-55740000D02*
X77840000Y-55740000D01*
X77860000Y-48750000D02*
X77860000Y-46970000D01*
X84000001Y-54890001D02*
X77860000Y-48750000D01*
X85050001Y-54890001D02*
X84000001Y-54890001D01*
X85900000Y-55740000D02*
X85050001Y-54890001D01*
X66300000Y-66200000D02*
X67380000Y-66200000D01*
X62300000Y-70200000D02*
X66300000Y-66200000D01*
X66530001Y-65350001D02*
X67380000Y-66200000D01*
X20100000Y-21190000D02*
X24250000Y-25340000D01*
X24250000Y-25340000D02*
X24250000Y-33250000D01*
X24250000Y-33250000D02*
X24250000Y-58000000D01*
X24250000Y-58000000D02*
X24250000Y-59750000D01*
X24250000Y-59750000D02*
X25750000Y-61250000D01*
X63000000Y-61820000D02*
X67380000Y-66200000D01*
X63000000Y-60250000D02*
X63000000Y-61820000D01*
D21*
X27770000Y-63240000D02*
X27770000Y-62320000D01*
X26700000Y-61250000D02*
X25750000Y-61250000D01*
X27770000Y-62320000D02*
X26700000Y-61250000D01*
D20*
G04 #@! TO.N,TEMP1W*
X49620000Y-11710000D02*
X52460000Y-8870000D01*
X49620000Y-21000000D02*
X49620000Y-11710000D01*
D21*
G04 #@! TO.N,I2C_SCL*
X69920000Y-66200000D02*
X73820000Y-62300000D01*
X73820000Y-62300000D02*
X73820000Y-61440000D01*
X51680001Y-42669999D02*
X52460000Y-41890000D01*
X49230001Y-45119999D02*
X51680001Y-42669999D01*
X49230001Y-56360001D02*
X49230001Y-45119999D01*
X49630000Y-56760000D02*
X49230001Y-56360001D01*
G04 #@! TO.N,I2C_SDA*
X73309999Y-65350001D02*
X73309999Y-63470001D01*
X72460000Y-66200000D02*
X73309999Y-65350001D01*
X73309999Y-63470001D02*
X74870000Y-61910000D01*
X74870000Y-61910000D02*
X74870000Y-61420000D01*
X53640000Y-35450000D02*
X52460000Y-34270000D01*
X53640000Y-42345402D02*
X53640000Y-35450000D01*
X50410000Y-56510000D02*
X49690000Y-55790000D01*
X50410000Y-57460000D02*
X50410000Y-56510000D01*
X49690000Y-55790000D02*
X49690000Y-45310000D01*
X49690000Y-45310000D02*
X52004999Y-42995001D01*
X52004999Y-42995001D02*
X52990401Y-42995001D01*
X52990401Y-42995001D02*
X53640000Y-42345402D01*
D22*
G04 #@! TO.N,+12V*
X41150000Y-67000000D02*
X44900000Y-67000000D01*
X34000000Y-67000000D02*
X41150000Y-67000000D01*
D21*
X32000000Y-65700000D02*
X32350000Y-65350000D01*
X32000000Y-66150000D02*
X32000000Y-65700000D01*
D22*
X32350000Y-65350000D02*
X34000000Y-67000000D01*
X26000000Y-23347919D02*
X26000000Y-58676152D01*
X20100000Y-18650000D02*
X21302081Y-18650000D01*
X21302081Y-18650000D02*
X26000000Y-23347919D01*
X32350000Y-65026152D02*
X32350000Y-65350000D01*
X26000000Y-58676152D02*
X32350000Y-65026152D01*
D21*
G04 #@! TO.N,IO0*
X55400009Y-50309221D02*
X55529230Y-50180000D01*
X63990001Y-73350001D02*
X64840000Y-74200000D01*
X55529230Y-50180000D02*
X53350031Y-52359199D01*
X53350031Y-52359199D02*
X53350031Y-57747211D01*
X53350031Y-57747211D02*
X56746410Y-61143590D01*
X61903600Y-73010011D02*
X63650011Y-73010011D01*
X63650011Y-73010011D02*
X63990001Y-73350001D01*
X59500001Y-70606411D02*
X61903600Y-73010011D01*
X59500000Y-62599707D02*
X59500001Y-70606411D01*
X58043883Y-61143590D02*
X59500000Y-62599707D01*
X56746410Y-61143590D02*
X58043883Y-61143590D01*
X58862722Y-46562729D02*
X59262721Y-46162730D01*
X55529230Y-49896221D02*
X58862722Y-46562729D01*
X55529230Y-50180000D02*
X55529230Y-49896221D01*
G04 #@! TO.N,IO2*
X59912653Y-44587347D02*
X59912653Y-45153032D01*
X62090000Y-72560000D02*
X65740000Y-72560000D01*
X59950010Y-70420010D02*
X62090000Y-72560000D01*
X59950010Y-62413307D02*
X59950010Y-70420010D01*
X60025001Y-45265380D02*
X60025001Y-46425769D01*
X65740000Y-72560000D02*
X66530001Y-73350001D01*
X66530001Y-73350001D02*
X67380000Y-74200000D01*
X53800040Y-56263337D02*
X59950010Y-62413307D01*
X53800040Y-52650728D02*
X53800040Y-56263337D01*
X60025001Y-46425769D02*
X53800040Y-52650728D01*
X59912653Y-45153032D02*
X60025001Y-45265380D01*
G04 #@! TO.N,IO4*
X52900021Y-52172799D02*
X53866401Y-51206419D01*
X62300000Y-74200000D02*
X56900000Y-68800000D01*
X53866401Y-51206419D02*
X54660000Y-50412820D01*
X56900000Y-68800000D02*
X56900000Y-61933590D01*
X56900000Y-61933590D02*
X52900021Y-57933611D01*
X54400006Y-50672814D02*
X54660000Y-50412820D01*
X52900021Y-57933611D02*
X52900021Y-52172799D01*
X54660000Y-50412820D02*
X54660000Y-49354523D01*
X58205552Y-45808971D02*
X58605551Y-45408972D01*
X54660000Y-49354523D02*
X58205552Y-45808971D01*
G04 #@! TO.N,IO16*
X54448001Y-68888001D02*
X59760000Y-74200000D01*
X54448001Y-60118001D02*
X52450011Y-58120011D01*
X54448001Y-60200000D02*
X54448001Y-60118001D01*
X54448001Y-60200000D02*
X54448001Y-68888001D01*
X52450011Y-51986399D02*
X53680000Y-50756410D01*
X52450011Y-58120011D02*
X52450011Y-51986399D01*
X53400003Y-51036407D02*
X53680000Y-50756410D01*
X53680000Y-50756410D02*
X53680000Y-48920589D01*
X53680000Y-48920589D02*
X57513047Y-45087542D01*
X57513047Y-45087542D02*
X57913046Y-44687543D01*
G04 #@! TO.N,IO17*
X52000001Y-49099999D02*
X56800001Y-44299999D01*
X56800001Y-44299999D02*
X57200000Y-43900000D01*
X52000001Y-68980001D02*
X52000001Y-49099999D01*
X57220000Y-74200000D02*
X52000001Y-68980001D01*
G04 #@! TO.N,IO33*
X71095001Y-73024999D02*
X72998591Y-73024999D01*
X78500000Y-68863590D02*
X80600000Y-66763590D01*
X72998591Y-73024999D02*
X73923590Y-72100000D01*
X73923590Y-72100000D02*
X76800000Y-72100000D01*
X69920000Y-74200000D02*
X71095001Y-73024999D01*
X76800000Y-72100000D02*
X78500000Y-70300000D01*
X80600000Y-66763590D02*
X80600000Y-58200000D01*
X78500000Y-70300000D02*
X78500000Y-68863590D01*
X80600000Y-58200000D02*
X79400000Y-57000000D01*
G04 #@! TO.N,I34*
X79500000Y-69200000D02*
X81600000Y-67100000D01*
X81600000Y-67100000D02*
X81600000Y-57000000D01*
X79500000Y-70800000D02*
X79500000Y-69200000D01*
X75000000Y-74200000D02*
X76100000Y-74200000D01*
X76100000Y-74200000D02*
X79500000Y-70800000D01*
G04 #@! TO.N,I35*
X77000000Y-72600000D02*
X79049990Y-70550010D01*
X72460000Y-74200000D02*
X74060000Y-72600000D01*
X74060000Y-72600000D02*
X77000000Y-72600000D01*
X79049990Y-70550010D02*
X79049990Y-68950010D01*
X79049990Y-68950010D02*
X81100000Y-66900000D01*
X81100000Y-66900000D02*
X81100000Y-57600000D01*
X81100000Y-57600000D02*
X80500000Y-57000000D01*
D20*
G04 #@! TO.N,CTRL_Heater*
X49165685Y-24910000D02*
X51235685Y-22840000D01*
X48600000Y-24910000D02*
X49165685Y-24910000D01*
X76756914Y-31730000D02*
X77860000Y-31730000D01*
X61678402Y-31730000D02*
X76756914Y-31730000D01*
X52788402Y-22840000D02*
X61678402Y-31730000D01*
X51235685Y-22840000D02*
X52788402Y-22840000D01*
G04 #@! TO.N,CTRL_470nm*
X60820001Y-20029999D02*
X61220000Y-19630000D01*
X60739999Y-20110001D02*
X60820001Y-20029999D01*
X51705684Y-20110001D02*
X60739999Y-20110001D01*
X51315685Y-20500000D02*
X51705684Y-20110001D01*
X50750000Y-20500000D02*
X51315685Y-20500000D01*
D21*
G04 #@! TO.N,SPI_MOSI*
X54700061Y-55890538D02*
X54700060Y-53023529D01*
X60850027Y-62040504D02*
X54700061Y-55890538D01*
X60850027Y-66254578D02*
X60850027Y-62040504D01*
X61150000Y-46573590D02*
X61150000Y-43860000D01*
X54700060Y-53023529D02*
X61150000Y-46573590D01*
X62709778Y-68114329D02*
X60850027Y-66254578D01*
X61150000Y-42930000D02*
X59990000Y-41770000D01*
X61150000Y-43860000D02*
X61150000Y-42930000D01*
X53239999Y-29969999D02*
X52460000Y-29190000D01*
X59760000Y-37896996D02*
X59760000Y-36490000D01*
X59760000Y-40130000D02*
X60465002Y-39424998D01*
X60465002Y-39424998D02*
X60465002Y-38601998D01*
X60465002Y-38601998D02*
X59760000Y-37896996D01*
X59760000Y-36490000D02*
X53239999Y-29969999D01*
G04 #@! TO.N,SPI_MISO*
X62817462Y-67375007D02*
X61300037Y-65857582D01*
X63383147Y-67375007D02*
X62817462Y-67375007D01*
X61300037Y-65857582D02*
X61300037Y-61850037D01*
X61300037Y-61850037D02*
X55150071Y-55700071D01*
X55150071Y-53209928D02*
X61600010Y-46759990D01*
X55150071Y-55700071D02*
X55150071Y-53209928D01*
X61600010Y-46759990D02*
X61600010Y-44100000D01*
X61600010Y-44100000D02*
X61600010Y-42020010D01*
X61600010Y-42020010D02*
X61040000Y-41460000D01*
X54260000Y-44430000D02*
X59740000Y-38950000D01*
X52460000Y-44430000D02*
X54260000Y-44430000D01*
G04 #@! TD*
D20*
G04 #@! TO.N,GND*
G36*
X51544421Y-638229D02*
X51380000Y-1035175D01*
X51380000Y-1464825D01*
X51544421Y-1861771D01*
X51848229Y-2165579D01*
X52245175Y-2330000D01*
X52674825Y-2330000D01*
X53071771Y-2165579D01*
X53375579Y-1861771D01*
X53540000Y-1464825D01*
X53540000Y-1035175D01*
X53375579Y-638229D01*
X53137350Y-400000D01*
X77182650Y-400000D01*
X76944421Y-638229D01*
X76780000Y-1035175D01*
X76780000Y-1464825D01*
X76944421Y-1861771D01*
X77248229Y-2165579D01*
X77645175Y-2330000D01*
X77808630Y-2330000D01*
X78269102Y-2790472D01*
X78074825Y-2710000D01*
X77645175Y-2710000D01*
X77248229Y-2874421D01*
X76944421Y-3178229D01*
X76780000Y-3575175D01*
X76780000Y-4004825D01*
X76944421Y-4401771D01*
X77248229Y-4705579D01*
X77645175Y-4870000D01*
X78074825Y-4870000D01*
X78471771Y-4705579D01*
X78619999Y-4557351D01*
X78620000Y-5562650D01*
X78471771Y-5414421D01*
X78074825Y-5250000D01*
X77645175Y-5250000D01*
X77248229Y-5414421D01*
X76944421Y-5718229D01*
X76780000Y-6115175D01*
X76780000Y-6544825D01*
X76944421Y-6941771D01*
X77248229Y-7245579D01*
X77645175Y-7410000D01*
X78074825Y-7410000D01*
X78471771Y-7245579D01*
X78620000Y-7097350D01*
X78620000Y-8041210D01*
X78609807Y-8092457D01*
X78471771Y-7954421D01*
X78074825Y-7790000D01*
X77645175Y-7790000D01*
X77248229Y-7954421D01*
X76944421Y-8258229D01*
X76780000Y-8655175D01*
X76780000Y-9084825D01*
X76944421Y-9481771D01*
X77248229Y-9785579D01*
X77645175Y-9950000D01*
X78074825Y-9950000D01*
X78471771Y-9785579D01*
X78775579Y-9481771D01*
X78940000Y-9084825D01*
X78940000Y-8771370D01*
X86900000Y-16731370D01*
X86900001Y-18501211D01*
X86900000Y-51754038D01*
X86870939Y-51742000D01*
X86206000Y-51742000D01*
X86054000Y-51894000D01*
X86054000Y-53046000D01*
X86074000Y-53046000D01*
X86074000Y-53354000D01*
X86054000Y-53354000D01*
X86054000Y-53374000D01*
X85746000Y-53374000D01*
X85746000Y-53354000D01*
X84594000Y-53354000D01*
X84442000Y-53506000D01*
X84442000Y-54090001D01*
X84331371Y-54090001D01*
X82470432Y-52229062D01*
X84442000Y-52229062D01*
X84442000Y-52894000D01*
X84594000Y-53046000D01*
X85746000Y-53046000D01*
X85746000Y-51894000D01*
X85594000Y-51742000D01*
X84929061Y-51742000D01*
X84705595Y-51834563D01*
X84534562Y-52005596D01*
X84442000Y-52229062D01*
X82470432Y-52229062D01*
X79608019Y-49366649D01*
X79603218Y-45652225D01*
X79595646Y-45614182D01*
X79574003Y-45581717D01*
X79541583Y-45560006D01*
X79503322Y-45552354D01*
X62475020Y-45534561D01*
X62475020Y-44215175D01*
X76780000Y-44215175D01*
X76780000Y-44644825D01*
X76944421Y-45041771D01*
X77248229Y-45345579D01*
X77645175Y-45510000D01*
X78074825Y-45510000D01*
X78471771Y-45345579D01*
X78775579Y-45041771D01*
X78940000Y-44644825D01*
X78940000Y-44215175D01*
X78775579Y-43818229D01*
X78471771Y-43514421D01*
X78074825Y-43350000D01*
X77645175Y-43350000D01*
X77248229Y-43514421D01*
X76944421Y-43818229D01*
X76780000Y-44215175D01*
X62475020Y-44215175D01*
X62475020Y-41675175D01*
X76780000Y-41675175D01*
X76780000Y-42104825D01*
X76944421Y-42501771D01*
X77248229Y-42805579D01*
X77645175Y-42970000D01*
X78074825Y-42970000D01*
X78471771Y-42805579D01*
X78775579Y-42501771D01*
X78940000Y-42104825D01*
X78940000Y-41675175D01*
X78775579Y-41278229D01*
X78471771Y-40974421D01*
X78074825Y-40810000D01*
X77645175Y-40810000D01*
X77248229Y-40974421D01*
X76944421Y-41278229D01*
X76780000Y-41675175D01*
X62475020Y-41675175D01*
X62475020Y-39135175D01*
X76780000Y-39135175D01*
X76780000Y-39564825D01*
X76944421Y-39961771D01*
X77248229Y-40265579D01*
X77645175Y-40430000D01*
X78074825Y-40430000D01*
X78471771Y-40265579D01*
X78775579Y-39961771D01*
X78940000Y-39564825D01*
X78940000Y-39135175D01*
X78775579Y-38738229D01*
X78471771Y-38434421D01*
X78074825Y-38270000D01*
X77645175Y-38270000D01*
X77248229Y-38434421D01*
X76944421Y-38738229D01*
X76780000Y-39135175D01*
X62475020Y-39135175D01*
X62475020Y-36595175D01*
X76780000Y-36595175D01*
X76780000Y-37024825D01*
X76944421Y-37421771D01*
X77248229Y-37725579D01*
X77645175Y-37890000D01*
X78074825Y-37890000D01*
X78471771Y-37725579D01*
X78775579Y-37421771D01*
X78940000Y-37024825D01*
X78940000Y-36595175D01*
X78775579Y-36198229D01*
X78471771Y-35894421D01*
X78074825Y-35730000D01*
X77645175Y-35730000D01*
X77248229Y-35894421D01*
X76944421Y-36198229D01*
X76780000Y-36595175D01*
X62475020Y-36595175D01*
X62475020Y-34055175D01*
X76780000Y-34055175D01*
X76780000Y-34484825D01*
X76944421Y-34881771D01*
X77248229Y-35185579D01*
X77645175Y-35350000D01*
X78074825Y-35350000D01*
X78471771Y-35185579D01*
X78775579Y-34881771D01*
X78940000Y-34484825D01*
X78940000Y-34055175D01*
X78775579Y-33658229D01*
X78471771Y-33354421D01*
X78074825Y-33190000D01*
X77645175Y-33190000D01*
X77248229Y-33354421D01*
X76944421Y-33658229D01*
X76780000Y-34055175D01*
X62475020Y-34055175D01*
X62475020Y-33991877D01*
X62483346Y-33950019D01*
X62450361Y-33784193D01*
X62380138Y-33679097D01*
X62356428Y-33643612D01*
X62320942Y-33619901D01*
X54940000Y-26238960D01*
X54940000Y-26000761D01*
X54833432Y-25743482D01*
X54636518Y-25546568D01*
X54379239Y-25440000D01*
X54100761Y-25440000D01*
X53843482Y-25546568D01*
X53646568Y-25743482D01*
X53540000Y-26000761D01*
X53540000Y-26279239D01*
X53646568Y-26536518D01*
X53843482Y-26733432D01*
X54100761Y-26840000D01*
X54338960Y-26840000D01*
X61625021Y-34126062D01*
X61625020Y-41055070D01*
X61436518Y-40866568D01*
X61179239Y-40760000D01*
X60914043Y-40760000D01*
X61185935Y-40488107D01*
X61221421Y-40464397D01*
X61315354Y-40323816D01*
X61340013Y-40199847D01*
X61340013Y-40199846D01*
X61348339Y-40157989D01*
X61340013Y-40116132D01*
X61340013Y-38457455D01*
X61348339Y-38415597D01*
X61315354Y-38249771D01*
X61283205Y-38201657D01*
X61221421Y-38109190D01*
X61185935Y-38085479D01*
X60749998Y-37649543D01*
X60749998Y-34556855D01*
X60758324Y-34514998D01*
X60725339Y-34349171D01*
X60672439Y-34270000D01*
X60631406Y-34208590D01*
X60595920Y-34184879D01*
X53570119Y-27159079D01*
X53570117Y-27159076D01*
X53462637Y-27051596D01*
X53540000Y-26864825D01*
X53540000Y-26435175D01*
X53375579Y-26038229D01*
X53071771Y-25734421D01*
X52674825Y-25570000D01*
X52245175Y-25570000D01*
X51848229Y-25734421D01*
X51544421Y-26038229D01*
X51380000Y-26435175D01*
X51380000Y-26864825D01*
X51544421Y-27261771D01*
X51848229Y-27565579D01*
X52245175Y-27730000D01*
X52674825Y-27730000D01*
X52861596Y-27652637D01*
X52969076Y-27760117D01*
X52969079Y-27760119D01*
X59899999Y-34691040D01*
X59899999Y-36028958D01*
X53570119Y-29699079D01*
X53570117Y-29699076D01*
X53462637Y-29591596D01*
X53540000Y-29404825D01*
X53540000Y-28975175D01*
X53375579Y-28578229D01*
X53071771Y-28274421D01*
X52674825Y-28110000D01*
X52245175Y-28110000D01*
X51848229Y-28274421D01*
X51544421Y-28578229D01*
X51380000Y-28975175D01*
X51380000Y-29404825D01*
X51544421Y-29801771D01*
X51848229Y-30105579D01*
X52245175Y-30270000D01*
X52674825Y-30270000D01*
X52861596Y-30192637D01*
X52969076Y-30300117D01*
X52969079Y-30300119D01*
X53320584Y-30651625D01*
X53237655Y-30734554D01*
X53162301Y-30501365D01*
X52638664Y-30326131D01*
X52087827Y-30364622D01*
X51757699Y-30501365D01*
X51682344Y-30734556D01*
X52460000Y-31512211D01*
X52474142Y-31498069D01*
X52691931Y-31715858D01*
X52677789Y-31730000D01*
X53455444Y-32507656D01*
X53688635Y-32432301D01*
X53863869Y-31908664D01*
X53825378Y-31357827D01*
X53688635Y-31027699D01*
X53455446Y-30952345D01*
X53538375Y-30869416D01*
X59335001Y-36666042D01*
X59335000Y-37855138D01*
X59326674Y-37896996D01*
X59335000Y-37938853D01*
X59359659Y-38062822D01*
X59453592Y-38203404D01*
X59489081Y-38227117D01*
X59537972Y-38276008D01*
X59343482Y-38356568D01*
X59146568Y-38553482D01*
X59040000Y-38810761D01*
X59040000Y-39048959D01*
X54083960Y-44005000D01*
X53452942Y-44005000D01*
X53375579Y-43818229D01*
X53071771Y-43514421D01*
X52843822Y-43420001D01*
X52948544Y-43420001D01*
X52990401Y-43428327D01*
X53032258Y-43420001D01*
X53032259Y-43420001D01*
X53156228Y-43395342D01*
X53296809Y-43301409D01*
X53320522Y-43265920D01*
X53910922Y-42675520D01*
X53946408Y-42651810D01*
X54040341Y-42511229D01*
X54065000Y-42387260D01*
X54065000Y-42387259D01*
X54073326Y-42345402D01*
X54065000Y-42303545D01*
X54065000Y-35491857D01*
X54073326Y-35449999D01*
X54040341Y-35284173D01*
X53970118Y-35179077D01*
X53946408Y-35143592D01*
X53910922Y-35119881D01*
X53462637Y-34671596D01*
X53540000Y-34484825D01*
X53540000Y-34055175D01*
X53375579Y-33658229D01*
X53071771Y-33354421D01*
X52674825Y-33190000D01*
X52245175Y-33190000D01*
X51848229Y-33354421D01*
X51544421Y-33658229D01*
X51380000Y-34055175D01*
X51380000Y-34484825D01*
X51544421Y-34881771D01*
X51848229Y-35185579D01*
X52245175Y-35350000D01*
X52674825Y-35350000D01*
X52861596Y-35272637D01*
X53215001Y-35626042D01*
X53215001Y-36037651D01*
X53071771Y-35894421D01*
X52674825Y-35730000D01*
X52245175Y-35730000D01*
X51848229Y-35894421D01*
X51544421Y-36198229D01*
X51380000Y-36595175D01*
X51380000Y-37024825D01*
X51544421Y-37421771D01*
X51848229Y-37725579D01*
X52245175Y-37890000D01*
X52674825Y-37890000D01*
X53071771Y-37725579D01*
X53215001Y-37582349D01*
X53215001Y-38577651D01*
X53071771Y-38434421D01*
X52674825Y-38270000D01*
X52245175Y-38270000D01*
X51848229Y-38434421D01*
X51544421Y-38738229D01*
X51380000Y-39135175D01*
X51380000Y-39564825D01*
X51544421Y-39961771D01*
X51848229Y-40265579D01*
X52245175Y-40430000D01*
X52674825Y-40430000D01*
X53071771Y-40265579D01*
X53215000Y-40122350D01*
X53215000Y-41117650D01*
X53071771Y-40974421D01*
X52674825Y-40810000D01*
X52245175Y-40810000D01*
X51848229Y-40974421D01*
X51544421Y-41278229D01*
X51380000Y-41675175D01*
X51380000Y-42104825D01*
X51457364Y-42291596D01*
X51409081Y-42339879D01*
X51409078Y-42339881D01*
X48959080Y-44789880D01*
X48923594Y-44813591D01*
X48899883Y-44849077D01*
X48829660Y-44954173D01*
X48796675Y-45119999D01*
X48805002Y-45161861D01*
X48805001Y-56318144D01*
X48796675Y-56360001D01*
X48818186Y-56468142D01*
X48829660Y-56525827D01*
X48923593Y-56666409D01*
X48930000Y-56670690D01*
X48930000Y-56899239D01*
X49036568Y-57156518D01*
X49233482Y-57353432D01*
X49490761Y-57460000D01*
X49710000Y-57460000D01*
X49710000Y-57599239D01*
X49816568Y-57856518D01*
X50013482Y-58053432D01*
X50270761Y-58160000D01*
X50549239Y-58160000D01*
X50673800Y-58108405D01*
X50671353Y-59682198D01*
X50678965Y-59720622D01*
X50700642Y-59753065D01*
X50733085Y-59774742D01*
X50771353Y-59782354D01*
X51575001Y-59782354D01*
X51575001Y-68046752D01*
X51566288Y-68033712D01*
X51467054Y-67967407D01*
X51350000Y-67944123D01*
X47850000Y-67944123D01*
X47732946Y-67967407D01*
X47633712Y-68033712D01*
X47567407Y-68132946D01*
X47544123Y-68250000D01*
X47544123Y-71750000D01*
X47567407Y-71867054D01*
X47633712Y-71966288D01*
X47732946Y-72032593D01*
X47850000Y-72055877D01*
X51350000Y-72055877D01*
X51467054Y-72032593D01*
X51566288Y-71966288D01*
X51632593Y-71867054D01*
X51655877Y-71750000D01*
X51655877Y-69229962D01*
X51693593Y-69286409D01*
X51729082Y-69310122D01*
X56150154Y-73731194D01*
X56136724Y-73751293D01*
X56047471Y-74200000D01*
X56136724Y-74648707D01*
X56390897Y-75029103D01*
X56771293Y-75283276D01*
X57106739Y-75350000D01*
X57333261Y-75350000D01*
X57668707Y-75283276D01*
X58049103Y-75029103D01*
X58303276Y-74648707D01*
X58392529Y-74200000D01*
X58303276Y-73751293D01*
X58049103Y-73370897D01*
X57668707Y-73116724D01*
X57333261Y-73050000D01*
X57106739Y-73050000D01*
X56771293Y-73116724D01*
X56751194Y-73130154D01*
X52425001Y-68803961D01*
X52425001Y-64855877D01*
X53850000Y-64855877D01*
X53967054Y-64832593D01*
X54023002Y-64795211D01*
X54023002Y-68846139D01*
X54014675Y-68888001D01*
X54047660Y-69053827D01*
X54109133Y-69145827D01*
X54141594Y-69194409D01*
X54177080Y-69218120D01*
X58690154Y-73731194D01*
X58676724Y-73751293D01*
X58587471Y-74200000D01*
X58676724Y-74648707D01*
X58930897Y-75029103D01*
X59311293Y-75283276D01*
X59646739Y-75350000D01*
X59873261Y-75350000D01*
X60208707Y-75283276D01*
X60589103Y-75029103D01*
X60843276Y-74648707D01*
X60932529Y-74200000D01*
X60843276Y-73751293D01*
X60589103Y-73370897D01*
X60208707Y-73116724D01*
X59873261Y-73050000D01*
X59646739Y-73050000D01*
X59311293Y-73116724D01*
X59291194Y-73130154D01*
X54873001Y-68711961D01*
X54873001Y-64910512D01*
X55276828Y-65108538D01*
X55486000Y-64996127D01*
X55486000Y-63454000D01*
X55466000Y-63454000D01*
X55466000Y-63146000D01*
X55486000Y-63146000D01*
X55486000Y-61603873D01*
X55276828Y-61491462D01*
X54873001Y-61689488D01*
X54873001Y-60507631D01*
X55907986Y-61542616D01*
X55794000Y-61603873D01*
X55794000Y-63146000D01*
X55814000Y-63146000D01*
X55814000Y-63454000D01*
X55794000Y-63454000D01*
X55794000Y-64996127D01*
X56003172Y-65108538D01*
X56475001Y-64877166D01*
X56475000Y-68758143D01*
X56466674Y-68800000D01*
X56475000Y-68841857D01*
X56499659Y-68965826D01*
X56593592Y-69106408D01*
X56629081Y-69130121D01*
X61230154Y-73731194D01*
X61216724Y-73751293D01*
X61127471Y-74200000D01*
X61216724Y-74648707D01*
X61470897Y-75029103D01*
X61851293Y-75283276D01*
X62186739Y-75350000D01*
X62413261Y-75350000D01*
X62748707Y-75283276D01*
X63129103Y-75029103D01*
X63383276Y-74648707D01*
X63472529Y-74200000D01*
X63383276Y-73751293D01*
X63171943Y-73435011D01*
X63473971Y-73435011D01*
X63719078Y-73680119D01*
X63719081Y-73680121D01*
X63770154Y-73731194D01*
X63756724Y-73751293D01*
X63667471Y-74200000D01*
X63756724Y-74648707D01*
X64010897Y-75029103D01*
X64391293Y-75283276D01*
X64726739Y-75350000D01*
X64953261Y-75350000D01*
X65288707Y-75283276D01*
X65669103Y-75029103D01*
X65923276Y-74648707D01*
X66012529Y-74200000D01*
X65923276Y-73751293D01*
X65669103Y-73370897D01*
X65288707Y-73116724D01*
X64953261Y-73050000D01*
X64726739Y-73050000D01*
X64391293Y-73116724D01*
X64371194Y-73130154D01*
X64320121Y-73079081D01*
X64320119Y-73079078D01*
X64226041Y-72985000D01*
X65563960Y-72985000D01*
X66259078Y-73680119D01*
X66259081Y-73680121D01*
X66310154Y-73731194D01*
X66296724Y-73751293D01*
X66207471Y-74200000D01*
X66296724Y-74648707D01*
X66550897Y-75029103D01*
X66931293Y-75283276D01*
X67266739Y-75350000D01*
X67493261Y-75350000D01*
X67828707Y-75283276D01*
X68209103Y-75029103D01*
X68463276Y-74648707D01*
X68552529Y-74200000D01*
X68463276Y-73751293D01*
X68209103Y-73370897D01*
X67828707Y-73116724D01*
X67493261Y-73050000D01*
X67266739Y-73050000D01*
X66931293Y-73116724D01*
X66911194Y-73130154D01*
X66860121Y-73079081D01*
X66860119Y-73079078D01*
X66070121Y-72289081D01*
X66046408Y-72253592D01*
X65905827Y-72159659D01*
X65781858Y-72135000D01*
X65781857Y-72135000D01*
X65740000Y-72126674D01*
X65698143Y-72135000D01*
X62266041Y-72135000D01*
X60375010Y-70243970D01*
X60375010Y-67766050D01*
X60690000Y-68081041D01*
X60690000Y-68319239D01*
X60796568Y-68576518D01*
X60993482Y-68773432D01*
X61250761Y-68880000D01*
X61529239Y-68880000D01*
X61786518Y-68773432D01*
X61983432Y-68576518D01*
X62063490Y-68383240D01*
X62116346Y-68510847D01*
X62313260Y-68707761D01*
X62559057Y-68809573D01*
X62318630Y-69050000D01*
X62186739Y-69050000D01*
X61851293Y-69116724D01*
X61470897Y-69370897D01*
X61216724Y-69751293D01*
X61127471Y-70200000D01*
X61216724Y-70648707D01*
X61470897Y-71029103D01*
X61851293Y-71283276D01*
X62186739Y-71350000D01*
X62413261Y-71350000D01*
X62748707Y-71283276D01*
X63129103Y-71029103D01*
X63383276Y-70648707D01*
X63472529Y-70200000D01*
X63465700Y-70165670D01*
X63726095Y-69905275D01*
X63667471Y-70200000D01*
X63756724Y-70648707D01*
X64010897Y-71029103D01*
X64391293Y-71283276D01*
X64726739Y-71350000D01*
X64953261Y-71350000D01*
X65288707Y-71283276D01*
X65669103Y-71029103D01*
X65923276Y-70648707D01*
X66012529Y-70200000D01*
X66207471Y-70200000D01*
X66296724Y-70648707D01*
X66550897Y-71029103D01*
X66931293Y-71283276D01*
X67266739Y-71350000D01*
X67493261Y-71350000D01*
X67828707Y-71283276D01*
X68209103Y-71029103D01*
X68463276Y-70648707D01*
X68552529Y-70200000D01*
X68747471Y-70200000D01*
X68836724Y-70648707D01*
X69090897Y-71029103D01*
X69471293Y-71283276D01*
X69806739Y-71350000D01*
X70033261Y-71350000D01*
X70368707Y-71283276D01*
X70749103Y-71029103D01*
X71003276Y-70648707D01*
X71092529Y-70200000D01*
X71287471Y-70200000D01*
X71376724Y-70648707D01*
X71630897Y-71029103D01*
X72011293Y-71283276D01*
X72346739Y-71350000D01*
X72573261Y-71350000D01*
X72908707Y-71283276D01*
X73289103Y-71029103D01*
X73542000Y-70650617D01*
X73542000Y-71170939D01*
X73634563Y-71394405D01*
X73805596Y-71565438D01*
X74029062Y-71658000D01*
X74694000Y-71658000D01*
X74846000Y-71506000D01*
X74846000Y-70354000D01*
X75154000Y-70354000D01*
X75154000Y-71506000D01*
X75306000Y-71658000D01*
X75970938Y-71658000D01*
X76194404Y-71565438D01*
X76365437Y-71394405D01*
X76458000Y-71170939D01*
X76458000Y-70506000D01*
X76306000Y-70354000D01*
X75154000Y-70354000D01*
X74846000Y-70354000D01*
X74826000Y-70354000D01*
X74826000Y-70046000D01*
X74846000Y-70046000D01*
X74846000Y-68894000D01*
X75154000Y-68894000D01*
X75154000Y-70046000D01*
X76306000Y-70046000D01*
X76458000Y-69894000D01*
X76458000Y-69229061D01*
X76365437Y-69005595D01*
X76194404Y-68834562D01*
X75970938Y-68742000D01*
X75306000Y-68742000D01*
X75154000Y-68894000D01*
X74846000Y-68894000D01*
X74694000Y-68742000D01*
X74029062Y-68742000D01*
X73805596Y-68834562D01*
X73634563Y-69005595D01*
X73542000Y-69229061D01*
X73542000Y-69749383D01*
X73289103Y-69370897D01*
X72908707Y-69116724D01*
X72573261Y-69050000D01*
X72346739Y-69050000D01*
X72011293Y-69116724D01*
X71630897Y-69370897D01*
X71376724Y-69751293D01*
X71287471Y-70200000D01*
X71092529Y-70200000D01*
X71003276Y-69751293D01*
X70749103Y-69370897D01*
X70368707Y-69116724D01*
X70033261Y-69050000D01*
X69806739Y-69050000D01*
X69471293Y-69116724D01*
X69090897Y-69370897D01*
X68836724Y-69751293D01*
X68747471Y-70200000D01*
X68552529Y-70200000D01*
X68463276Y-69751293D01*
X68209103Y-69370897D01*
X67828707Y-69116724D01*
X67493261Y-69050000D01*
X67266739Y-69050000D01*
X66931293Y-69116724D01*
X66550897Y-69370897D01*
X66296724Y-69751293D01*
X66207471Y-70200000D01*
X66012529Y-70200000D01*
X65923276Y-69751293D01*
X65669103Y-69370897D01*
X65288707Y-69116724D01*
X64953261Y-69050000D01*
X64726739Y-69050000D01*
X64545275Y-69086095D01*
X66581692Y-67049679D01*
X66931293Y-67283276D01*
X67266739Y-67350000D01*
X67493261Y-67350000D01*
X67828707Y-67283276D01*
X68209103Y-67029103D01*
X68463276Y-66648707D01*
X68552529Y-66200000D01*
X68545700Y-66165670D01*
X68806095Y-65905275D01*
X68747471Y-66200000D01*
X68836724Y-66648707D01*
X69090897Y-67029103D01*
X69471293Y-67283276D01*
X69806739Y-67350000D01*
X70033261Y-67350000D01*
X70368707Y-67283276D01*
X70749103Y-67029103D01*
X71003276Y-66648707D01*
X71092529Y-66200000D01*
X71003276Y-65751293D01*
X70989846Y-65731194D01*
X72885000Y-63836041D01*
X72884999Y-65112008D01*
X72573261Y-65050000D01*
X72346739Y-65050000D01*
X72011293Y-65116724D01*
X71630897Y-65370897D01*
X71376724Y-65751293D01*
X71287471Y-66200000D01*
X71376724Y-66648707D01*
X71630897Y-67029103D01*
X72011293Y-67283276D01*
X72346739Y-67350000D01*
X72573261Y-67350000D01*
X72908707Y-67283276D01*
X73289103Y-67029103D01*
X73542000Y-66650617D01*
X73542000Y-67170939D01*
X73634563Y-67394405D01*
X73805596Y-67565438D01*
X74029062Y-67658000D01*
X74694000Y-67658000D01*
X74846000Y-67506000D01*
X74846000Y-66354000D01*
X75154000Y-66354000D01*
X75154000Y-67506000D01*
X75306000Y-67658000D01*
X75970938Y-67658000D01*
X76194404Y-67565438D01*
X76365437Y-67394405D01*
X76458000Y-67170939D01*
X76458000Y-66506000D01*
X76306000Y-66354000D01*
X75154000Y-66354000D01*
X74846000Y-66354000D01*
X74826000Y-66354000D01*
X74826000Y-66046000D01*
X74846000Y-66046000D01*
X74846000Y-64894000D01*
X75154000Y-64894000D01*
X75154000Y-66046000D01*
X76306000Y-66046000D01*
X76458000Y-65894000D01*
X76458000Y-65229061D01*
X76365437Y-65005595D01*
X76194404Y-64834562D01*
X75970938Y-64742000D01*
X75306000Y-64742000D01*
X75154000Y-64894000D01*
X74846000Y-64894000D01*
X74694000Y-64742000D01*
X74029062Y-64742000D01*
X73805596Y-64834562D01*
X73734999Y-64905159D01*
X73734999Y-63646041D01*
X75140923Y-62240118D01*
X75176408Y-62216408D01*
X75270341Y-62075827D01*
X75286783Y-61993167D01*
X75463432Y-61816518D01*
X75570000Y-61559239D01*
X75570000Y-61280761D01*
X75463432Y-61023482D01*
X75266518Y-60826568D01*
X75009239Y-60720000D01*
X74730761Y-60720000D01*
X74473482Y-60826568D01*
X74335000Y-60965050D01*
X74216518Y-60846568D01*
X73967817Y-60743553D01*
X74929017Y-59782354D01*
X79521353Y-59782354D01*
X79559741Y-59774692D01*
X79592155Y-59752973D01*
X79613790Y-59720503D01*
X79621353Y-59682225D01*
X79618946Y-57819986D01*
X80175001Y-58376042D01*
X80175000Y-66587549D01*
X78229079Y-68533471D01*
X78193593Y-68557182D01*
X78169882Y-68592668D01*
X78099659Y-68697764D01*
X78066674Y-68863590D01*
X78075001Y-68905452D01*
X78075000Y-70131029D01*
X76616806Y-71675000D01*
X73965447Y-71675000D01*
X73923589Y-71666674D01*
X73881732Y-71675000D01*
X73757763Y-71699659D01*
X73617182Y-71793592D01*
X73593471Y-71829078D01*
X72822551Y-72599999D01*
X71136856Y-72599999D01*
X71095000Y-72591673D01*
X71053144Y-72599999D01*
X71053143Y-72599999D01*
X70929174Y-72624658D01*
X70788593Y-72718591D01*
X70764882Y-72754077D01*
X70388806Y-73130154D01*
X70368707Y-73116724D01*
X70033261Y-73050000D01*
X69806739Y-73050000D01*
X69471293Y-73116724D01*
X69090897Y-73370897D01*
X68836724Y-73751293D01*
X68747471Y-74200000D01*
X68836724Y-74648707D01*
X69090897Y-75029103D01*
X69471293Y-75283276D01*
X69806739Y-75350000D01*
X70033261Y-75350000D01*
X70368707Y-75283276D01*
X70749103Y-75029103D01*
X71003276Y-74648707D01*
X71092529Y-74200000D01*
X71003276Y-73751293D01*
X70989846Y-73731194D01*
X71271042Y-73449999D01*
X71578043Y-73449999D01*
X71376724Y-73751293D01*
X71287471Y-74200000D01*
X71376724Y-74648707D01*
X71630897Y-75029103D01*
X72011293Y-75283276D01*
X72346739Y-75350000D01*
X72573261Y-75350000D01*
X72908707Y-75283276D01*
X73289103Y-75029103D01*
X73543276Y-74648707D01*
X73632529Y-74200000D01*
X73543276Y-73751293D01*
X73529846Y-73731194D01*
X73844123Y-73416918D01*
X73844123Y-75050000D01*
X73867407Y-75167054D01*
X73933712Y-75266288D01*
X74032946Y-75332593D01*
X74150000Y-75355877D01*
X75850000Y-75355877D01*
X75967054Y-75332593D01*
X76066288Y-75266288D01*
X76132593Y-75167054D01*
X76155877Y-75050000D01*
X76155877Y-74622211D01*
X76265827Y-74600341D01*
X76406408Y-74506408D01*
X76430121Y-74470919D01*
X79770923Y-71130118D01*
X79806408Y-71106408D01*
X79820000Y-71086066D01*
X79820000Y-71915650D01*
X80428963Y-73385818D01*
X81554182Y-74511037D01*
X83024350Y-75120000D01*
X84615650Y-75120000D01*
X86085818Y-74511037D01*
X87211037Y-73385818D01*
X87820000Y-71915650D01*
X87820000Y-70324350D01*
X87211037Y-68854182D01*
X86085818Y-67728963D01*
X84615650Y-67120000D01*
X83024350Y-67120000D01*
X81584732Y-67716309D01*
X81870923Y-67430118D01*
X81906408Y-67406408D01*
X82000341Y-67265827D01*
X82025000Y-67141858D01*
X82025000Y-67141857D01*
X82033326Y-67100001D01*
X82025000Y-67058145D01*
X82025000Y-60820000D01*
X84727471Y-60820000D01*
X84816724Y-61268707D01*
X85070897Y-61649103D01*
X85451293Y-61903276D01*
X85786739Y-61970000D01*
X86013261Y-61970000D01*
X86348707Y-61903276D01*
X86729103Y-61649103D01*
X86983276Y-61268707D01*
X87072529Y-60820000D01*
X86983276Y-60371293D01*
X86729103Y-59990897D01*
X86348707Y-59736724D01*
X86013261Y-59670000D01*
X85786739Y-59670000D01*
X85451293Y-59736724D01*
X85070897Y-59990897D01*
X84816724Y-60371293D01*
X84727471Y-60820000D01*
X82025000Y-60820000D01*
X82025000Y-57564950D01*
X82193432Y-57396518D01*
X82300000Y-57139239D01*
X82300000Y-56860761D01*
X82193432Y-56603482D01*
X82129950Y-56540000D01*
X85051451Y-56540000D01*
X85070897Y-56569103D01*
X85451293Y-56823276D01*
X85786739Y-56890000D01*
X86013261Y-56890000D01*
X86348707Y-56823276D01*
X86729103Y-56569103D01*
X86900000Y-56313338D01*
X86900000Y-57028629D01*
X86578418Y-57350212D01*
X86348707Y-57196724D01*
X86013261Y-57130000D01*
X85786739Y-57130000D01*
X85451293Y-57196724D01*
X85070897Y-57450897D01*
X84816724Y-57831293D01*
X84727471Y-58280000D01*
X84816724Y-58728707D01*
X85070897Y-59109103D01*
X85451293Y-59363276D01*
X85786739Y-59430000D01*
X86013261Y-59430000D01*
X86348707Y-59363276D01*
X86729103Y-59109103D01*
X86742996Y-59088311D01*
X86780000Y-59095671D01*
X86858784Y-59080000D01*
X86858789Y-59080000D01*
X87092144Y-59033583D01*
X87356767Y-58856767D01*
X87401398Y-58789972D01*
X88209975Y-57981396D01*
X88276767Y-57936767D01*
X88327834Y-57860341D01*
X88388179Y-57770027D01*
X88453583Y-57672144D01*
X88500000Y-57438789D01*
X88500000Y-57438785D01*
X88500001Y-57438781D01*
X88500001Y-69834270D01*
X88425524Y-70780592D01*
X88207611Y-71688266D01*
X87850386Y-72550683D01*
X87362650Y-73346596D01*
X86756414Y-74056407D01*
X86046596Y-74662650D01*
X85250684Y-75150386D01*
X84388268Y-75507610D01*
X83480592Y-75725524D01*
X82534283Y-75800000D01*
X6365717Y-75800000D01*
X5419408Y-75725524D01*
X4511734Y-75507611D01*
X3649317Y-75150386D01*
X2853404Y-74662650D01*
X2143593Y-74056414D01*
X1537350Y-73346596D01*
X1049614Y-72550684D01*
X692390Y-71688268D01*
X474476Y-70780592D01*
X438570Y-70324350D01*
X1080000Y-70324350D01*
X1080000Y-71915650D01*
X1688963Y-73385818D01*
X2814182Y-74511037D01*
X4284350Y-75120000D01*
X5875650Y-75120000D01*
X7345818Y-74511037D01*
X8471037Y-73385818D01*
X8504098Y-73306000D01*
X42542000Y-73306000D01*
X42542000Y-74870939D01*
X42634563Y-75094405D01*
X42805596Y-75265438D01*
X43029062Y-75358000D01*
X44594000Y-75358000D01*
X44746000Y-75206000D01*
X44746000Y-73154000D01*
X45054000Y-73154000D01*
X45054000Y-75206000D01*
X45206000Y-75358000D01*
X46770938Y-75358000D01*
X46994404Y-75265438D01*
X47165437Y-75094405D01*
X47258000Y-74870939D01*
X47258000Y-73306000D01*
X47106000Y-73154000D01*
X45054000Y-73154000D01*
X44746000Y-73154000D01*
X42694000Y-73154000D01*
X42542000Y-73306000D01*
X8504098Y-73306000D01*
X9080000Y-71915650D01*
X9080000Y-71129061D01*
X42542000Y-71129061D01*
X42542000Y-72694000D01*
X42694000Y-72846000D01*
X44746000Y-72846000D01*
X44746000Y-70794000D01*
X45054000Y-70794000D01*
X45054000Y-72846000D01*
X47106000Y-72846000D01*
X47258000Y-72694000D01*
X47258000Y-71129061D01*
X47165437Y-70905595D01*
X46994404Y-70734562D01*
X46770938Y-70642000D01*
X45206000Y-70642000D01*
X45054000Y-70794000D01*
X44746000Y-70794000D01*
X44594000Y-70642000D01*
X43029062Y-70642000D01*
X42805596Y-70734562D01*
X42634563Y-70905595D01*
X42542000Y-71129061D01*
X9080000Y-71129061D01*
X9080000Y-70324350D01*
X8471037Y-68854182D01*
X7345818Y-67728963D01*
X5875650Y-67120000D01*
X4284350Y-67120000D01*
X2814182Y-67728963D01*
X1688963Y-68854182D01*
X1080000Y-70324350D01*
X438570Y-70324350D01*
X400000Y-69834283D01*
X400000Y-32204350D01*
X7143600Y-32204350D01*
X7143600Y-33795650D01*
X7752563Y-35265818D01*
X8877782Y-36391037D01*
X10347950Y-37000000D01*
X11939250Y-37000000D01*
X13409418Y-36391037D01*
X14534637Y-35265818D01*
X15143600Y-33795650D01*
X15143600Y-32204350D01*
X14534637Y-30734182D01*
X13409418Y-29608963D01*
X11939250Y-29000000D01*
X10347950Y-29000000D01*
X8877782Y-29608963D01*
X7752563Y-30734182D01*
X7143600Y-32204350D01*
X400000Y-32204350D01*
X400000Y-28431090D01*
X16152097Y-28431090D01*
X16263111Y-28656000D01*
X17406000Y-28656000D01*
X17406000Y-28636000D01*
X17714000Y-28636000D01*
X17714000Y-28656000D01*
X17734000Y-28656000D01*
X17734000Y-28964000D01*
X17714000Y-28964000D01*
X17714000Y-28984000D01*
X17406000Y-28984000D01*
X17406000Y-28964000D01*
X16263111Y-28964000D01*
X16152097Y-29188910D01*
X16296523Y-29537616D01*
X16671146Y-29965741D01*
X17181089Y-30217915D01*
X17405998Y-30107857D01*
X17405998Y-30208104D01*
X17111293Y-30266724D01*
X16730897Y-30520897D01*
X16476724Y-30901293D01*
X16387471Y-31350000D01*
X16476724Y-31798707D01*
X16730897Y-32179103D01*
X17111293Y-32433276D01*
X17446739Y-32500000D01*
X17673261Y-32500000D01*
X18008707Y-32433276D01*
X18389103Y-32179103D01*
X18643276Y-31798707D01*
X18732529Y-31350000D01*
X18643276Y-30901293D01*
X18389103Y-30520897D01*
X18008707Y-30266724D01*
X17714002Y-30208104D01*
X17714002Y-30107857D01*
X17938911Y-30217915D01*
X18448854Y-29965741D01*
X18823477Y-29537616D01*
X18967903Y-29188910D01*
X18856890Y-28964002D01*
X18958104Y-28964002D01*
X19016724Y-29258707D01*
X19270897Y-29639103D01*
X19651293Y-29893276D01*
X19986739Y-29960000D01*
X20213261Y-29960000D01*
X20548707Y-29893276D01*
X20929103Y-29639103D01*
X21183276Y-29258707D01*
X21272529Y-28810000D01*
X21183276Y-28361293D01*
X20929103Y-27980897D01*
X20548707Y-27726724D01*
X20213261Y-27660000D01*
X19986739Y-27660000D01*
X19651293Y-27726724D01*
X19270897Y-27980897D01*
X19016724Y-28361293D01*
X18958104Y-28655998D01*
X18856890Y-28655998D01*
X18967903Y-28431090D01*
X18823477Y-28082384D01*
X18448854Y-27654259D01*
X17938911Y-27402085D01*
X17714002Y-27512143D01*
X17714002Y-27411896D01*
X18008707Y-27353276D01*
X18389103Y-27099103D01*
X18643276Y-26718707D01*
X18732529Y-26270000D01*
X18927471Y-26270000D01*
X19016724Y-26718707D01*
X19270897Y-27099103D01*
X19651293Y-27353276D01*
X19986739Y-27420000D01*
X20213261Y-27420000D01*
X20548707Y-27353276D01*
X20929103Y-27099103D01*
X21183276Y-26718707D01*
X21272529Y-26270000D01*
X21183276Y-25821293D01*
X20929103Y-25440897D01*
X20548707Y-25186724D01*
X20213261Y-25120000D01*
X19986739Y-25120000D01*
X19651293Y-25186724D01*
X19270897Y-25440897D01*
X19016724Y-25821293D01*
X18927471Y-26270000D01*
X18732529Y-26270000D01*
X18643276Y-25821293D01*
X18389103Y-25440897D01*
X18008707Y-25186724D01*
X17673261Y-25120000D01*
X17446739Y-25120000D01*
X17111293Y-25186724D01*
X16730897Y-25440897D01*
X16476724Y-25821293D01*
X16387471Y-26270000D01*
X16476724Y-26718707D01*
X16730897Y-27099103D01*
X17111293Y-27353276D01*
X17405998Y-27411896D01*
X17405998Y-27512143D01*
X17181089Y-27402085D01*
X16671146Y-27654259D01*
X16296523Y-28082384D01*
X16152097Y-28431090D01*
X400000Y-28431090D01*
X400000Y-23730000D01*
X16387471Y-23730000D01*
X16476724Y-24178707D01*
X16730897Y-24559103D01*
X17111293Y-24813276D01*
X17446739Y-24880000D01*
X17673261Y-24880000D01*
X18008707Y-24813276D01*
X18389103Y-24559103D01*
X18643276Y-24178707D01*
X18732529Y-23730000D01*
X18643276Y-23281293D01*
X18389103Y-22900897D01*
X18008707Y-22646724D01*
X17673261Y-22580000D01*
X17446739Y-22580000D01*
X17111293Y-22646724D01*
X16730897Y-22900897D01*
X16476724Y-23281293D01*
X16387471Y-23730000D01*
X400000Y-23730000D01*
X400000Y-21190000D01*
X16387471Y-21190000D01*
X16476724Y-21638707D01*
X16730897Y-22019103D01*
X17111293Y-22273276D01*
X17446739Y-22340000D01*
X17673261Y-22340000D01*
X18008707Y-22273276D01*
X18389103Y-22019103D01*
X18643276Y-21638707D01*
X18732529Y-21190000D01*
X18643276Y-20741293D01*
X18389103Y-20360897D01*
X18008707Y-20106724D01*
X17673261Y-20040000D01*
X17446739Y-20040000D01*
X17111293Y-20106724D01*
X16730897Y-20360897D01*
X16476724Y-20741293D01*
X16387471Y-21190000D01*
X400000Y-21190000D01*
X400000Y-17800000D01*
X16404123Y-17800000D01*
X16404123Y-19500000D01*
X16427407Y-19617054D01*
X16493712Y-19716288D01*
X16592946Y-19782593D01*
X16710000Y-19805877D01*
X18410000Y-19805877D01*
X18527054Y-19782593D01*
X18626288Y-19716288D01*
X18692593Y-19617054D01*
X18715877Y-19500000D01*
X18715877Y-18650000D01*
X18774532Y-18650000D01*
X18875427Y-19157235D01*
X19162753Y-19587247D01*
X19592765Y-19874573D01*
X19971963Y-19950000D01*
X20763605Y-19950000D01*
X24700000Y-23886396D01*
X24700000Y-24658629D01*
X21265700Y-21224330D01*
X21272529Y-21190000D01*
X21183276Y-20741293D01*
X20929103Y-20360897D01*
X20548707Y-20106724D01*
X20213261Y-20040000D01*
X19986739Y-20040000D01*
X19651293Y-20106724D01*
X19270897Y-20360897D01*
X19016724Y-20741293D01*
X18927471Y-21190000D01*
X19016724Y-21638707D01*
X19270897Y-22019103D01*
X19651293Y-22273276D01*
X19986739Y-22340000D01*
X20118630Y-22340000D01*
X20394725Y-22616095D01*
X20213261Y-22580000D01*
X19986739Y-22580000D01*
X19651293Y-22646724D01*
X19270897Y-22900897D01*
X19016724Y-23281293D01*
X18927471Y-23730000D01*
X19016724Y-24178707D01*
X19270897Y-24559103D01*
X19651293Y-24813276D01*
X19986739Y-24880000D01*
X20213261Y-24880000D01*
X20548707Y-24813276D01*
X20929103Y-24559103D01*
X21183276Y-24178707D01*
X21272529Y-23730000D01*
X21213905Y-23435275D01*
X23450000Y-25671371D01*
X23450001Y-33171207D01*
X23450000Y-33171212D01*
X23450000Y-33568629D01*
X21265700Y-31384330D01*
X21272529Y-31350000D01*
X21183276Y-30901293D01*
X20929103Y-30520897D01*
X20548707Y-30266724D01*
X20213261Y-30200000D01*
X19986739Y-30200000D01*
X19651293Y-30266724D01*
X19270897Y-30520897D01*
X19016724Y-30901293D01*
X18927471Y-31350000D01*
X19016724Y-31798707D01*
X19270897Y-32179103D01*
X19651293Y-32433276D01*
X19986739Y-32500000D01*
X20118630Y-32500000D01*
X22200000Y-34581371D01*
X22200001Y-60171211D01*
X22184329Y-60250000D01*
X22246418Y-60562144D01*
X22378603Y-60759973D01*
X22378605Y-60759975D01*
X22423234Y-60826767D01*
X22490026Y-60871396D01*
X24628604Y-63009974D01*
X24673233Y-63076767D01*
X24740025Y-63121396D01*
X24740027Y-63121398D01*
X24937855Y-63253583D01*
X25250000Y-63315672D01*
X25328789Y-63300000D01*
X26828789Y-63300000D01*
X27062144Y-63253583D01*
X27070000Y-63248334D01*
X27070000Y-63379239D01*
X27176568Y-63636518D01*
X27373482Y-63833432D01*
X27630761Y-63940000D01*
X27909239Y-63940000D01*
X28166518Y-63833432D01*
X28363432Y-63636518D01*
X28470000Y-63379239D01*
X28470000Y-63100761D01*
X28387883Y-62902512D01*
X31071501Y-65586131D01*
X31125427Y-65857235D01*
X31300000Y-66118500D01*
X31300000Y-66289239D01*
X31406568Y-66546518D01*
X31603482Y-66743432D01*
X31860761Y-66850000D01*
X32011523Y-66850000D01*
X32990227Y-67828705D01*
X33062753Y-67937247D01*
X33171294Y-68009772D01*
X33171296Y-68009774D01*
X33290760Y-68089597D01*
X33492765Y-68224573D01*
X33871963Y-68300000D01*
X33871968Y-68300000D01*
X33999999Y-68325467D01*
X34128031Y-68300000D01*
X42844123Y-68300000D01*
X42844123Y-68750000D01*
X42867407Y-68867054D01*
X42933712Y-68966288D01*
X43032946Y-69032593D01*
X43150000Y-69055877D01*
X46650000Y-69055877D01*
X46767054Y-69032593D01*
X46866288Y-68966288D01*
X46932593Y-68867054D01*
X46955877Y-68750000D01*
X46955877Y-65250000D01*
X46932593Y-65132946D01*
X46866288Y-65033712D01*
X46767054Y-64967407D01*
X46650000Y-64944123D01*
X43150000Y-64944123D01*
X43032946Y-64967407D01*
X42933712Y-65033712D01*
X42867407Y-65132946D01*
X42844123Y-65250000D01*
X42844123Y-65700000D01*
X34538477Y-65700000D01*
X33628499Y-64790023D01*
X33574573Y-64518917D01*
X33367953Y-64209689D01*
X33359774Y-64197448D01*
X33359772Y-64197446D01*
X33287247Y-64088905D01*
X33178706Y-64016380D01*
X27300000Y-58137676D01*
X27300000Y-32204350D01*
X34856400Y-32204350D01*
X34856400Y-33795650D01*
X35465363Y-35265818D01*
X36590582Y-36391037D01*
X38060750Y-37000000D01*
X39652050Y-37000000D01*
X41122218Y-36391037D01*
X42247437Y-35265818D01*
X42856400Y-33795650D01*
X42856400Y-32725444D01*
X51682344Y-32725444D01*
X51757699Y-32958635D01*
X52281336Y-33133869D01*
X52832173Y-33095378D01*
X53162301Y-32958635D01*
X53237656Y-32725444D01*
X52460000Y-31947789D01*
X51682344Y-32725444D01*
X42856400Y-32725444D01*
X42856400Y-32204350D01*
X42585913Y-31551336D01*
X51056131Y-31551336D01*
X51094622Y-32102173D01*
X51231365Y-32432301D01*
X51464556Y-32507656D01*
X52242211Y-31730000D01*
X51464556Y-30952344D01*
X51231365Y-31027699D01*
X51056131Y-31551336D01*
X42585913Y-31551336D01*
X42247437Y-30734182D01*
X41122218Y-29608963D01*
X39652050Y-29000000D01*
X38060750Y-29000000D01*
X36590582Y-29608963D01*
X35465363Y-30734182D01*
X34856400Y-32204350D01*
X27300000Y-32204350D01*
X27300000Y-24770761D01*
X47900000Y-24770761D01*
X47900000Y-25049239D01*
X48006568Y-25306518D01*
X48203482Y-25503432D01*
X48460761Y-25610000D01*
X48739239Y-25610000D01*
X48996518Y-25503432D01*
X49186193Y-25313757D01*
X49205079Y-25310000D01*
X49321757Y-25286791D01*
X49454069Y-25198384D01*
X49476388Y-25164981D01*
X51401371Y-23240000D01*
X51802650Y-23240000D01*
X51544421Y-23498229D01*
X51380000Y-23895175D01*
X51380000Y-24324825D01*
X51414998Y-24409317D01*
X50174316Y-25650000D01*
X49900761Y-25650000D01*
X49643482Y-25756568D01*
X49446568Y-25953482D01*
X49340000Y-26210761D01*
X49340000Y-26489239D01*
X49446568Y-26746518D01*
X49643482Y-26943432D01*
X49900761Y-27050000D01*
X50179239Y-27050000D01*
X50436518Y-26943432D01*
X50633432Y-26746518D01*
X50740000Y-26489239D01*
X50740000Y-26215684D01*
X51906125Y-25049560D01*
X52245175Y-25190000D01*
X52674825Y-25190000D01*
X53071771Y-25025579D01*
X53375579Y-24721771D01*
X53540000Y-24324825D01*
X53540000Y-24157282D01*
X61367701Y-31984984D01*
X61390018Y-32018384D01*
X61515419Y-32102173D01*
X61522330Y-32106791D01*
X61678402Y-32137836D01*
X61717796Y-32130000D01*
X76856702Y-32130000D01*
X76944421Y-32341771D01*
X77248229Y-32645579D01*
X77645175Y-32810000D01*
X78074825Y-32810000D01*
X78471771Y-32645579D01*
X78775579Y-32341771D01*
X78940000Y-31944825D01*
X78940000Y-31515175D01*
X78775579Y-31118229D01*
X78471771Y-30814421D01*
X78074825Y-30650000D01*
X77645175Y-30650000D01*
X77248229Y-30814421D01*
X76944421Y-31118229D01*
X76856702Y-31330000D01*
X61844087Y-31330000D01*
X59489262Y-28975175D01*
X76780000Y-28975175D01*
X76780000Y-29404825D01*
X76944421Y-29801771D01*
X77248229Y-30105579D01*
X77645175Y-30270000D01*
X78074825Y-30270000D01*
X78471771Y-30105579D01*
X78775579Y-29801771D01*
X78940000Y-29404825D01*
X78940000Y-28975175D01*
X78775579Y-28578229D01*
X78471771Y-28274421D01*
X78074825Y-28110000D01*
X77645175Y-28110000D01*
X77248229Y-28274421D01*
X76944421Y-28578229D01*
X76780000Y-28975175D01*
X59489262Y-28975175D01*
X56949262Y-26435175D01*
X76780000Y-26435175D01*
X76780000Y-26864825D01*
X76944421Y-27261771D01*
X77248229Y-27565579D01*
X77645175Y-27730000D01*
X78074825Y-27730000D01*
X78471771Y-27565579D01*
X78775579Y-27261771D01*
X78940000Y-26864825D01*
X78940000Y-26435175D01*
X78775579Y-26038229D01*
X78471771Y-25734421D01*
X78074825Y-25570000D01*
X77645175Y-25570000D01*
X77248229Y-25734421D01*
X76944421Y-26038229D01*
X76780000Y-26435175D01*
X56949262Y-26435175D01*
X54409262Y-23895175D01*
X76780000Y-23895175D01*
X76780000Y-24324825D01*
X76944421Y-24721771D01*
X77248229Y-25025579D01*
X77645175Y-25190000D01*
X78074825Y-25190000D01*
X78471771Y-25025579D01*
X78775579Y-24721771D01*
X78940000Y-24324825D01*
X78940000Y-23895175D01*
X78775579Y-23498229D01*
X78471771Y-23194421D01*
X78074825Y-23030000D01*
X77645175Y-23030000D01*
X77248229Y-23194421D01*
X76944421Y-23498229D01*
X76780000Y-23895175D01*
X54409262Y-23895175D01*
X53099105Y-22585019D01*
X53076786Y-22551616D01*
X53013856Y-22509568D01*
X53071771Y-22485579D01*
X53375579Y-22181771D01*
X53540000Y-21784825D01*
X53540000Y-21355175D01*
X53375579Y-20958229D01*
X53071771Y-20654421D01*
X52723112Y-20510001D01*
X58180328Y-20510001D01*
X58113928Y-20523209D01*
X57981616Y-20611616D01*
X57959301Y-20645013D01*
X56774315Y-21830000D01*
X56500761Y-21830000D01*
X56243482Y-21936568D01*
X56046568Y-22133482D01*
X55940000Y-22390761D01*
X55940000Y-22669239D01*
X56046568Y-22926518D01*
X56243482Y-23123432D01*
X56500761Y-23230000D01*
X56779239Y-23230000D01*
X57036518Y-23123432D01*
X57233432Y-22926518D01*
X57340000Y-22669239D01*
X57340000Y-22395685D01*
X58435686Y-21300000D01*
X59940050Y-21300000D01*
X60133482Y-21493432D01*
X60390761Y-21600000D01*
X60669239Y-21600000D01*
X60926518Y-21493432D01*
X61064775Y-21355175D01*
X76780000Y-21355175D01*
X76780000Y-21784825D01*
X76944421Y-22181771D01*
X77248229Y-22485579D01*
X77645175Y-22650000D01*
X78074825Y-22650000D01*
X78471771Y-22485579D01*
X78775579Y-22181771D01*
X78940000Y-21784825D01*
X78940000Y-21355175D01*
X78775579Y-20958229D01*
X78471771Y-20654421D01*
X78074825Y-20490000D01*
X77645175Y-20490000D01*
X77248229Y-20654421D01*
X76944421Y-20958229D01*
X76780000Y-21355175D01*
X61064775Y-21355175D01*
X61123432Y-21296518D01*
X61230000Y-21039239D01*
X61230000Y-20760761D01*
X61123432Y-20503482D01*
X61022360Y-20402410D01*
X61028383Y-20398385D01*
X61050702Y-20364982D01*
X61085684Y-20330000D01*
X61359239Y-20330000D01*
X61616518Y-20223432D01*
X61813432Y-20026518D01*
X61920000Y-19769239D01*
X61920000Y-19490761D01*
X61813432Y-19233482D01*
X61616518Y-19036568D01*
X61359239Y-18930000D01*
X61080761Y-18930000D01*
X60823482Y-19036568D01*
X60626568Y-19233482D01*
X60520000Y-19490761D01*
X60520000Y-19710001D01*
X53307349Y-19710001D01*
X53375579Y-19641771D01*
X53540000Y-19244825D01*
X53540000Y-18815175D01*
X76780000Y-18815175D01*
X76780000Y-19244825D01*
X76944421Y-19641771D01*
X77248229Y-19945579D01*
X77645175Y-20110000D01*
X78074825Y-20110000D01*
X78471771Y-19945579D01*
X78775579Y-19641771D01*
X78940000Y-19244825D01*
X78940000Y-18815175D01*
X78775579Y-18418229D01*
X78471771Y-18114421D01*
X78074825Y-17950000D01*
X77645175Y-17950000D01*
X77248229Y-18114421D01*
X76944421Y-18418229D01*
X76780000Y-18815175D01*
X53540000Y-18815175D01*
X53375579Y-18418229D01*
X53071771Y-18114421D01*
X52674825Y-17950000D01*
X52245175Y-17950000D01*
X51848229Y-18114421D01*
X51544421Y-18418229D01*
X51380000Y-18815175D01*
X51380000Y-19244825D01*
X51544421Y-19641771D01*
X51621550Y-19718900D01*
X51549612Y-19733210D01*
X51417300Y-19821617D01*
X51394983Y-19855017D01*
X51244975Y-20005025D01*
X51146518Y-19906568D01*
X50889239Y-19800000D01*
X50610761Y-19800000D01*
X50353482Y-19906568D01*
X50156568Y-20103482D01*
X50050000Y-20360761D01*
X50050000Y-20440050D01*
X50020000Y-20410050D01*
X50020000Y-16275175D01*
X51380000Y-16275175D01*
X51380000Y-16704825D01*
X51544421Y-17101771D01*
X51848229Y-17405579D01*
X52245175Y-17570000D01*
X52674825Y-17570000D01*
X53071771Y-17405579D01*
X53375579Y-17101771D01*
X53540000Y-16704825D01*
X53540000Y-16275175D01*
X76780000Y-16275175D01*
X76780000Y-16704825D01*
X76944421Y-17101771D01*
X77248229Y-17405579D01*
X77645175Y-17570000D01*
X78074825Y-17570000D01*
X78471771Y-17405579D01*
X78775579Y-17101771D01*
X78940000Y-16704825D01*
X78940000Y-16275175D01*
X78775579Y-15878229D01*
X78471771Y-15574421D01*
X78074825Y-15410000D01*
X77645175Y-15410000D01*
X77248229Y-15574421D01*
X76944421Y-15878229D01*
X76780000Y-16275175D01*
X53540000Y-16275175D01*
X53375579Y-15878229D01*
X53071771Y-15574421D01*
X52674825Y-15410000D01*
X52245175Y-15410000D01*
X51848229Y-15574421D01*
X51544421Y-15878229D01*
X51380000Y-16275175D01*
X50020000Y-16275175D01*
X50020000Y-13735175D01*
X51380000Y-13735175D01*
X51380000Y-14164825D01*
X51544421Y-14561771D01*
X51848229Y-14865579D01*
X52245175Y-15030000D01*
X52674825Y-15030000D01*
X52878960Y-14945444D01*
X77082344Y-14945444D01*
X77157699Y-15178635D01*
X77681336Y-15353869D01*
X78232173Y-15315378D01*
X78562301Y-15178635D01*
X78637656Y-14945444D01*
X77860000Y-14167789D01*
X77082344Y-14945444D01*
X52878960Y-14945444D01*
X53071771Y-14865579D01*
X53375579Y-14561771D01*
X53540000Y-14164825D01*
X53540000Y-13771336D01*
X76456131Y-13771336D01*
X76494622Y-14322173D01*
X76631365Y-14652301D01*
X76864556Y-14727656D01*
X77642211Y-13950000D01*
X78077789Y-13950000D01*
X78855444Y-14727656D01*
X79088635Y-14652301D01*
X79263869Y-14128664D01*
X79225378Y-13577827D01*
X79088635Y-13247699D01*
X78855444Y-13172344D01*
X78077789Y-13950000D01*
X77642211Y-13950000D01*
X76864556Y-13172344D01*
X76631365Y-13247699D01*
X76456131Y-13771336D01*
X53540000Y-13771336D01*
X53540000Y-13735175D01*
X53375579Y-13338229D01*
X53071771Y-13034421D01*
X52878961Y-12954556D01*
X77082344Y-12954556D01*
X77860000Y-13732211D01*
X78637656Y-12954556D01*
X78562301Y-12721365D01*
X78038664Y-12546131D01*
X77487827Y-12584622D01*
X77157699Y-12721365D01*
X77082344Y-12954556D01*
X52878961Y-12954556D01*
X52674825Y-12870000D01*
X52245175Y-12870000D01*
X51848229Y-13034421D01*
X51544421Y-13338229D01*
X51380000Y-13735175D01*
X50020000Y-13735175D01*
X50020000Y-11875684D01*
X50700509Y-11195175D01*
X51380000Y-11195175D01*
X51380000Y-11624825D01*
X51544421Y-12021771D01*
X51848229Y-12325579D01*
X52245175Y-12490000D01*
X52674825Y-12490000D01*
X53071771Y-12325579D01*
X53375579Y-12021771D01*
X53540000Y-11624825D01*
X53540000Y-11195175D01*
X76780000Y-11195175D01*
X76780000Y-11624825D01*
X76944421Y-12021771D01*
X77248229Y-12325579D01*
X77645175Y-12490000D01*
X78074825Y-12490000D01*
X78471771Y-12325579D01*
X78775579Y-12021771D01*
X78940000Y-11624825D01*
X78940000Y-11195175D01*
X78775579Y-10798229D01*
X78471771Y-10494421D01*
X78074825Y-10330000D01*
X77645175Y-10330000D01*
X77248229Y-10494421D01*
X76944421Y-10798229D01*
X76780000Y-11195175D01*
X53540000Y-11195175D01*
X53375579Y-10798229D01*
X53071771Y-10494421D01*
X52674825Y-10330000D01*
X52245175Y-10330000D01*
X51848229Y-10494421D01*
X51544421Y-10798229D01*
X51380000Y-11195175D01*
X50700509Y-11195175D01*
X52033404Y-9862281D01*
X52245175Y-9950000D01*
X52674825Y-9950000D01*
X53071771Y-9785579D01*
X53375579Y-9481771D01*
X53540000Y-9084825D01*
X53540000Y-8655175D01*
X53375579Y-8258229D01*
X53071771Y-7954421D01*
X52674825Y-7790000D01*
X52245175Y-7790000D01*
X51848229Y-7954421D01*
X51544421Y-8258229D01*
X51380000Y-8655175D01*
X51380000Y-9084825D01*
X51467719Y-9296596D01*
X49365017Y-11399299D01*
X49331617Y-11421616D01*
X49267674Y-11517315D01*
X49243209Y-11553929D01*
X49212164Y-11710000D01*
X49220001Y-11749399D01*
X49220000Y-20410050D01*
X49026568Y-20603482D01*
X48920000Y-20860761D01*
X48920000Y-21139239D01*
X49026568Y-21396518D01*
X49223482Y-21593432D01*
X49480761Y-21700000D01*
X49759239Y-21700000D01*
X50016518Y-21593432D01*
X50213432Y-21396518D01*
X50320000Y-21139239D01*
X50320000Y-21059950D01*
X50353482Y-21093432D01*
X50610761Y-21200000D01*
X50889239Y-21200000D01*
X51146518Y-21093432D01*
X51336193Y-20903757D01*
X51355079Y-20900000D01*
X51471757Y-20876791D01*
X51604069Y-20788384D01*
X51626387Y-20754982D01*
X51871369Y-20510001D01*
X52196888Y-20510001D01*
X51848229Y-20654421D01*
X51544421Y-20958229D01*
X51380000Y-21355175D01*
X51380000Y-21784825D01*
X51544421Y-22181771D01*
X51802650Y-22440000D01*
X51275077Y-22440000D01*
X51235684Y-22432164D01*
X51196292Y-22440000D01*
X51196291Y-22440000D01*
X51079613Y-22463209D01*
X50947301Y-22551616D01*
X50924986Y-22585013D01*
X49094975Y-24415025D01*
X48996518Y-24316568D01*
X48739239Y-24210000D01*
X48460761Y-24210000D01*
X48203482Y-24316568D01*
X48006568Y-24513482D01*
X47900000Y-24770761D01*
X27300000Y-24770761D01*
X27300000Y-23475952D01*
X27325467Y-23347919D01*
X27300000Y-23219886D01*
X27300000Y-23219882D01*
X27224573Y-22840684D01*
X26937247Y-22410672D01*
X26828703Y-22338145D01*
X22311857Y-17821300D01*
X22239328Y-17712753D01*
X21809316Y-17425427D01*
X21430118Y-17350000D01*
X21430114Y-17350000D01*
X21302081Y-17324533D01*
X21174048Y-17350000D01*
X19971963Y-17350000D01*
X19592765Y-17425427D01*
X19162753Y-17712753D01*
X18875427Y-18142765D01*
X18774532Y-18650000D01*
X18715877Y-18650000D01*
X18715877Y-17800000D01*
X18692593Y-17682946D01*
X18626288Y-17583712D01*
X18527054Y-17517407D01*
X18410000Y-17494123D01*
X16710000Y-17494123D01*
X16592946Y-17517407D01*
X16493712Y-17583712D01*
X16427407Y-17682946D01*
X16404123Y-17800000D01*
X400000Y-17800000D01*
X400000Y-6365717D01*
X474476Y-5419408D01*
X692390Y-4511732D01*
X786574Y-4284350D01*
X1080000Y-4284350D01*
X1080000Y-5875650D01*
X1688963Y-7345818D01*
X2814182Y-8471037D01*
X4284350Y-9080000D01*
X5875650Y-9080000D01*
X7345818Y-8471037D01*
X7612505Y-8204350D01*
X21000000Y-8204350D01*
X21000000Y-9795650D01*
X21608963Y-11265818D01*
X22734182Y-12391037D01*
X24204350Y-13000000D01*
X25795650Y-13000000D01*
X27265818Y-12391037D01*
X28391037Y-11265818D01*
X29000000Y-9795650D01*
X29000000Y-8204350D01*
X28391037Y-6734182D01*
X27772030Y-6115175D01*
X51380000Y-6115175D01*
X51380000Y-6544825D01*
X51544421Y-6941771D01*
X51848229Y-7245579D01*
X52245175Y-7410000D01*
X52674825Y-7410000D01*
X53071771Y-7245579D01*
X53375579Y-6941771D01*
X53540000Y-6544825D01*
X53540000Y-6115175D01*
X53375579Y-5718229D01*
X53071771Y-5414421D01*
X52674825Y-5250000D01*
X52245175Y-5250000D01*
X51848229Y-5414421D01*
X51544421Y-5718229D01*
X51380000Y-6115175D01*
X27772030Y-6115175D01*
X27265818Y-5608963D01*
X25795650Y-5000000D01*
X24204350Y-5000000D01*
X22734182Y-5608963D01*
X21608963Y-6734182D01*
X21000000Y-8204350D01*
X7612505Y-8204350D01*
X8471037Y-7345818D01*
X9080000Y-5875650D01*
X9080000Y-4284350D01*
X8786251Y-3575175D01*
X51380000Y-3575175D01*
X51380000Y-4004825D01*
X51544421Y-4401771D01*
X51848229Y-4705579D01*
X52245175Y-4870000D01*
X52674825Y-4870000D01*
X53071771Y-4705579D01*
X53375579Y-4401771D01*
X53540000Y-4004825D01*
X53540000Y-3575175D01*
X53375579Y-3178229D01*
X53071771Y-2874421D01*
X52674825Y-2710000D01*
X52245175Y-2710000D01*
X51848229Y-2874421D01*
X51544421Y-3178229D01*
X51380000Y-3575175D01*
X8786251Y-3575175D01*
X8471037Y-2814182D01*
X7345818Y-1688963D01*
X5875650Y-1080000D01*
X4284350Y-1080000D01*
X2814182Y-1688963D01*
X1688963Y-2814182D01*
X1080000Y-4284350D01*
X786574Y-4284350D01*
X1049614Y-3649316D01*
X1537350Y-2853404D01*
X2143593Y-2143586D01*
X2853404Y-1537350D01*
X3649317Y-1049614D01*
X4511734Y-692389D01*
X5419408Y-474476D01*
X6365717Y-400000D01*
X51782650Y-400000D01*
X51544421Y-638229D01*
X51544421Y-638229D01*
G37*
X51544421Y-638229D02*
X51380000Y-1035175D01*
X51380000Y-1464825D01*
X51544421Y-1861771D01*
X51848229Y-2165579D01*
X52245175Y-2330000D01*
X52674825Y-2330000D01*
X53071771Y-2165579D01*
X53375579Y-1861771D01*
X53540000Y-1464825D01*
X53540000Y-1035175D01*
X53375579Y-638229D01*
X53137350Y-400000D01*
X77182650Y-400000D01*
X76944421Y-638229D01*
X76780000Y-1035175D01*
X76780000Y-1464825D01*
X76944421Y-1861771D01*
X77248229Y-2165579D01*
X77645175Y-2330000D01*
X77808630Y-2330000D01*
X78269102Y-2790472D01*
X78074825Y-2710000D01*
X77645175Y-2710000D01*
X77248229Y-2874421D01*
X76944421Y-3178229D01*
X76780000Y-3575175D01*
X76780000Y-4004825D01*
X76944421Y-4401771D01*
X77248229Y-4705579D01*
X77645175Y-4870000D01*
X78074825Y-4870000D01*
X78471771Y-4705579D01*
X78619999Y-4557351D01*
X78620000Y-5562650D01*
X78471771Y-5414421D01*
X78074825Y-5250000D01*
X77645175Y-5250000D01*
X77248229Y-5414421D01*
X76944421Y-5718229D01*
X76780000Y-6115175D01*
X76780000Y-6544825D01*
X76944421Y-6941771D01*
X77248229Y-7245579D01*
X77645175Y-7410000D01*
X78074825Y-7410000D01*
X78471771Y-7245579D01*
X78620000Y-7097350D01*
X78620000Y-8041210D01*
X78609807Y-8092457D01*
X78471771Y-7954421D01*
X78074825Y-7790000D01*
X77645175Y-7790000D01*
X77248229Y-7954421D01*
X76944421Y-8258229D01*
X76780000Y-8655175D01*
X76780000Y-9084825D01*
X76944421Y-9481771D01*
X77248229Y-9785579D01*
X77645175Y-9950000D01*
X78074825Y-9950000D01*
X78471771Y-9785579D01*
X78775579Y-9481771D01*
X78940000Y-9084825D01*
X78940000Y-8771370D01*
X86900000Y-16731370D01*
X86900001Y-18501211D01*
X86900000Y-51754038D01*
X86870939Y-51742000D01*
X86206000Y-51742000D01*
X86054000Y-51894000D01*
X86054000Y-53046000D01*
X86074000Y-53046000D01*
X86074000Y-53354000D01*
X86054000Y-53354000D01*
X86054000Y-53374000D01*
X85746000Y-53374000D01*
X85746000Y-53354000D01*
X84594000Y-53354000D01*
X84442000Y-53506000D01*
X84442000Y-54090001D01*
X84331371Y-54090001D01*
X82470432Y-52229062D01*
X84442000Y-52229062D01*
X84442000Y-52894000D01*
X84594000Y-53046000D01*
X85746000Y-53046000D01*
X85746000Y-51894000D01*
X85594000Y-51742000D01*
X84929061Y-51742000D01*
X84705595Y-51834563D01*
X84534562Y-52005596D01*
X84442000Y-52229062D01*
X82470432Y-52229062D01*
X79608019Y-49366649D01*
X79603218Y-45652225D01*
X79595646Y-45614182D01*
X79574003Y-45581717D01*
X79541583Y-45560006D01*
X79503322Y-45552354D01*
X62475020Y-45534561D01*
X62475020Y-44215175D01*
X76780000Y-44215175D01*
X76780000Y-44644825D01*
X76944421Y-45041771D01*
X77248229Y-45345579D01*
X77645175Y-45510000D01*
X78074825Y-45510000D01*
X78471771Y-45345579D01*
X78775579Y-45041771D01*
X78940000Y-44644825D01*
X78940000Y-44215175D01*
X78775579Y-43818229D01*
X78471771Y-43514421D01*
X78074825Y-43350000D01*
X77645175Y-43350000D01*
X77248229Y-43514421D01*
X76944421Y-43818229D01*
X76780000Y-44215175D01*
X62475020Y-44215175D01*
X62475020Y-41675175D01*
X76780000Y-41675175D01*
X76780000Y-42104825D01*
X76944421Y-42501771D01*
X77248229Y-42805579D01*
X77645175Y-42970000D01*
X78074825Y-42970000D01*
X78471771Y-42805579D01*
X78775579Y-42501771D01*
X78940000Y-42104825D01*
X78940000Y-41675175D01*
X78775579Y-41278229D01*
X78471771Y-40974421D01*
X78074825Y-40810000D01*
X77645175Y-40810000D01*
X77248229Y-40974421D01*
X76944421Y-41278229D01*
X76780000Y-41675175D01*
X62475020Y-41675175D01*
X62475020Y-39135175D01*
X76780000Y-39135175D01*
X76780000Y-39564825D01*
X76944421Y-39961771D01*
X77248229Y-40265579D01*
X77645175Y-40430000D01*
X78074825Y-40430000D01*
X78471771Y-40265579D01*
X78775579Y-39961771D01*
X78940000Y-39564825D01*
X78940000Y-39135175D01*
X78775579Y-38738229D01*
X78471771Y-38434421D01*
X78074825Y-38270000D01*
X77645175Y-38270000D01*
X77248229Y-38434421D01*
X76944421Y-38738229D01*
X76780000Y-39135175D01*
X62475020Y-39135175D01*
X62475020Y-36595175D01*
X76780000Y-36595175D01*
X76780000Y-37024825D01*
X76944421Y-37421771D01*
X77248229Y-37725579D01*
X77645175Y-37890000D01*
X78074825Y-37890000D01*
X78471771Y-37725579D01*
X78775579Y-37421771D01*
X78940000Y-37024825D01*
X78940000Y-36595175D01*
X78775579Y-36198229D01*
X78471771Y-35894421D01*
X78074825Y-35730000D01*
X77645175Y-35730000D01*
X77248229Y-35894421D01*
X76944421Y-36198229D01*
X76780000Y-36595175D01*
X62475020Y-36595175D01*
X62475020Y-34055175D01*
X76780000Y-34055175D01*
X76780000Y-34484825D01*
X76944421Y-34881771D01*
X77248229Y-35185579D01*
X77645175Y-35350000D01*
X78074825Y-35350000D01*
X78471771Y-35185579D01*
X78775579Y-34881771D01*
X78940000Y-34484825D01*
X78940000Y-34055175D01*
X78775579Y-33658229D01*
X78471771Y-33354421D01*
X78074825Y-33190000D01*
X77645175Y-33190000D01*
X77248229Y-33354421D01*
X76944421Y-33658229D01*
X76780000Y-34055175D01*
X62475020Y-34055175D01*
X62475020Y-33991877D01*
X62483346Y-33950019D01*
X62450361Y-33784193D01*
X62380138Y-33679097D01*
X62356428Y-33643612D01*
X62320942Y-33619901D01*
X54940000Y-26238960D01*
X54940000Y-26000761D01*
X54833432Y-25743482D01*
X54636518Y-25546568D01*
X54379239Y-25440000D01*
X54100761Y-25440000D01*
X53843482Y-25546568D01*
X53646568Y-25743482D01*
X53540000Y-26000761D01*
X53540000Y-26279239D01*
X53646568Y-26536518D01*
X53843482Y-26733432D01*
X54100761Y-26840000D01*
X54338960Y-26840000D01*
X61625021Y-34126062D01*
X61625020Y-41055070D01*
X61436518Y-40866568D01*
X61179239Y-40760000D01*
X60914043Y-40760000D01*
X61185935Y-40488107D01*
X61221421Y-40464397D01*
X61315354Y-40323816D01*
X61340013Y-40199847D01*
X61340013Y-40199846D01*
X61348339Y-40157989D01*
X61340013Y-40116132D01*
X61340013Y-38457455D01*
X61348339Y-38415597D01*
X61315354Y-38249771D01*
X61283205Y-38201657D01*
X61221421Y-38109190D01*
X61185935Y-38085479D01*
X60749998Y-37649543D01*
X60749998Y-34556855D01*
X60758324Y-34514998D01*
X60725339Y-34349171D01*
X60672439Y-34270000D01*
X60631406Y-34208590D01*
X60595920Y-34184879D01*
X53570119Y-27159079D01*
X53570117Y-27159076D01*
X53462637Y-27051596D01*
X53540000Y-26864825D01*
X53540000Y-26435175D01*
X53375579Y-26038229D01*
X53071771Y-25734421D01*
X52674825Y-25570000D01*
X52245175Y-25570000D01*
X51848229Y-25734421D01*
X51544421Y-26038229D01*
X51380000Y-26435175D01*
X51380000Y-26864825D01*
X51544421Y-27261771D01*
X51848229Y-27565579D01*
X52245175Y-27730000D01*
X52674825Y-27730000D01*
X52861596Y-27652637D01*
X52969076Y-27760117D01*
X52969079Y-27760119D01*
X59899999Y-34691040D01*
X59899999Y-36028958D01*
X53570119Y-29699079D01*
X53570117Y-29699076D01*
X53462637Y-29591596D01*
X53540000Y-29404825D01*
X53540000Y-28975175D01*
X53375579Y-28578229D01*
X53071771Y-28274421D01*
X52674825Y-28110000D01*
X52245175Y-28110000D01*
X51848229Y-28274421D01*
X51544421Y-28578229D01*
X51380000Y-28975175D01*
X51380000Y-29404825D01*
X51544421Y-29801771D01*
X51848229Y-30105579D01*
X52245175Y-30270000D01*
X52674825Y-30270000D01*
X52861596Y-30192637D01*
X52969076Y-30300117D01*
X52969079Y-30300119D01*
X53320584Y-30651625D01*
X53237655Y-30734554D01*
X53162301Y-30501365D01*
X52638664Y-30326131D01*
X52087827Y-30364622D01*
X51757699Y-30501365D01*
X51682344Y-30734556D01*
X52460000Y-31512211D01*
X52474142Y-31498069D01*
X52691931Y-31715858D01*
X52677789Y-31730000D01*
X53455444Y-32507656D01*
X53688635Y-32432301D01*
X53863869Y-31908664D01*
X53825378Y-31357827D01*
X53688635Y-31027699D01*
X53455446Y-30952345D01*
X53538375Y-30869416D01*
X59335001Y-36666042D01*
X59335000Y-37855138D01*
X59326674Y-37896996D01*
X59335000Y-37938853D01*
X59359659Y-38062822D01*
X59453592Y-38203404D01*
X59489081Y-38227117D01*
X59537972Y-38276008D01*
X59343482Y-38356568D01*
X59146568Y-38553482D01*
X59040000Y-38810761D01*
X59040000Y-39048959D01*
X54083960Y-44005000D01*
X53452942Y-44005000D01*
X53375579Y-43818229D01*
X53071771Y-43514421D01*
X52843822Y-43420001D01*
X52948544Y-43420001D01*
X52990401Y-43428327D01*
X53032258Y-43420001D01*
X53032259Y-43420001D01*
X53156228Y-43395342D01*
X53296809Y-43301409D01*
X53320522Y-43265920D01*
X53910922Y-42675520D01*
X53946408Y-42651810D01*
X54040341Y-42511229D01*
X54065000Y-42387260D01*
X54065000Y-42387259D01*
X54073326Y-42345402D01*
X54065000Y-42303545D01*
X54065000Y-35491857D01*
X54073326Y-35449999D01*
X54040341Y-35284173D01*
X53970118Y-35179077D01*
X53946408Y-35143592D01*
X53910922Y-35119881D01*
X53462637Y-34671596D01*
X53540000Y-34484825D01*
X53540000Y-34055175D01*
X53375579Y-33658229D01*
X53071771Y-33354421D01*
X52674825Y-33190000D01*
X52245175Y-33190000D01*
X51848229Y-33354421D01*
X51544421Y-33658229D01*
X51380000Y-34055175D01*
X51380000Y-34484825D01*
X51544421Y-34881771D01*
X51848229Y-35185579D01*
X52245175Y-35350000D01*
X52674825Y-35350000D01*
X52861596Y-35272637D01*
X53215001Y-35626042D01*
X53215001Y-36037651D01*
X53071771Y-35894421D01*
X52674825Y-35730000D01*
X52245175Y-35730000D01*
X51848229Y-35894421D01*
X51544421Y-36198229D01*
X51380000Y-36595175D01*
X51380000Y-37024825D01*
X51544421Y-37421771D01*
X51848229Y-37725579D01*
X52245175Y-37890000D01*
X52674825Y-37890000D01*
X53071771Y-37725579D01*
X53215001Y-37582349D01*
X53215001Y-38577651D01*
X53071771Y-38434421D01*
X52674825Y-38270000D01*
X52245175Y-38270000D01*
X51848229Y-38434421D01*
X51544421Y-38738229D01*
X51380000Y-39135175D01*
X51380000Y-39564825D01*
X51544421Y-39961771D01*
X51848229Y-40265579D01*
X52245175Y-40430000D01*
X52674825Y-40430000D01*
X53071771Y-40265579D01*
X53215000Y-40122350D01*
X53215000Y-41117650D01*
X53071771Y-40974421D01*
X52674825Y-40810000D01*
X52245175Y-40810000D01*
X51848229Y-40974421D01*
X51544421Y-41278229D01*
X51380000Y-41675175D01*
X51380000Y-42104825D01*
X51457364Y-42291596D01*
X51409081Y-42339879D01*
X51409078Y-42339881D01*
X48959080Y-44789880D01*
X48923594Y-44813591D01*
X48899883Y-44849077D01*
X48829660Y-44954173D01*
X48796675Y-45119999D01*
X48805002Y-45161861D01*
X48805001Y-56318144D01*
X48796675Y-56360001D01*
X48818186Y-56468142D01*
X48829660Y-56525827D01*
X48923593Y-56666409D01*
X48930000Y-56670690D01*
X48930000Y-56899239D01*
X49036568Y-57156518D01*
X49233482Y-57353432D01*
X49490761Y-57460000D01*
X49710000Y-57460000D01*
X49710000Y-57599239D01*
X49816568Y-57856518D01*
X50013482Y-58053432D01*
X50270761Y-58160000D01*
X50549239Y-58160000D01*
X50673800Y-58108405D01*
X50671353Y-59682198D01*
X50678965Y-59720622D01*
X50700642Y-59753065D01*
X50733085Y-59774742D01*
X50771353Y-59782354D01*
X51575001Y-59782354D01*
X51575001Y-68046752D01*
X51566288Y-68033712D01*
X51467054Y-67967407D01*
X51350000Y-67944123D01*
X47850000Y-67944123D01*
X47732946Y-67967407D01*
X47633712Y-68033712D01*
X47567407Y-68132946D01*
X47544123Y-68250000D01*
X47544123Y-71750000D01*
X47567407Y-71867054D01*
X47633712Y-71966288D01*
X47732946Y-72032593D01*
X47850000Y-72055877D01*
X51350000Y-72055877D01*
X51467054Y-72032593D01*
X51566288Y-71966288D01*
X51632593Y-71867054D01*
X51655877Y-71750000D01*
X51655877Y-69229962D01*
X51693593Y-69286409D01*
X51729082Y-69310122D01*
X56150154Y-73731194D01*
X56136724Y-73751293D01*
X56047471Y-74200000D01*
X56136724Y-74648707D01*
X56390897Y-75029103D01*
X56771293Y-75283276D01*
X57106739Y-75350000D01*
X57333261Y-75350000D01*
X57668707Y-75283276D01*
X58049103Y-75029103D01*
X58303276Y-74648707D01*
X58392529Y-74200000D01*
X58303276Y-73751293D01*
X58049103Y-73370897D01*
X57668707Y-73116724D01*
X57333261Y-73050000D01*
X57106739Y-73050000D01*
X56771293Y-73116724D01*
X56751194Y-73130154D01*
X52425001Y-68803961D01*
X52425001Y-64855877D01*
X53850000Y-64855877D01*
X53967054Y-64832593D01*
X54023002Y-64795211D01*
X54023002Y-68846139D01*
X54014675Y-68888001D01*
X54047660Y-69053827D01*
X54109133Y-69145827D01*
X54141594Y-69194409D01*
X54177080Y-69218120D01*
X58690154Y-73731194D01*
X58676724Y-73751293D01*
X58587471Y-74200000D01*
X58676724Y-74648707D01*
X58930897Y-75029103D01*
X59311293Y-75283276D01*
X59646739Y-75350000D01*
X59873261Y-75350000D01*
X60208707Y-75283276D01*
X60589103Y-75029103D01*
X60843276Y-74648707D01*
X60932529Y-74200000D01*
X60843276Y-73751293D01*
X60589103Y-73370897D01*
X60208707Y-73116724D01*
X59873261Y-73050000D01*
X59646739Y-73050000D01*
X59311293Y-73116724D01*
X59291194Y-73130154D01*
X54873001Y-68711961D01*
X54873001Y-64910512D01*
X55276828Y-65108538D01*
X55486000Y-64996127D01*
X55486000Y-63454000D01*
X55466000Y-63454000D01*
X55466000Y-63146000D01*
X55486000Y-63146000D01*
X55486000Y-61603873D01*
X55276828Y-61491462D01*
X54873001Y-61689488D01*
X54873001Y-60507631D01*
X55907986Y-61542616D01*
X55794000Y-61603873D01*
X55794000Y-63146000D01*
X55814000Y-63146000D01*
X55814000Y-63454000D01*
X55794000Y-63454000D01*
X55794000Y-64996127D01*
X56003172Y-65108538D01*
X56475001Y-64877166D01*
X56475000Y-68758143D01*
X56466674Y-68800000D01*
X56475000Y-68841857D01*
X56499659Y-68965826D01*
X56593592Y-69106408D01*
X56629081Y-69130121D01*
X61230154Y-73731194D01*
X61216724Y-73751293D01*
X61127471Y-74200000D01*
X61216724Y-74648707D01*
X61470897Y-75029103D01*
X61851293Y-75283276D01*
X62186739Y-75350000D01*
X62413261Y-75350000D01*
X62748707Y-75283276D01*
X63129103Y-75029103D01*
X63383276Y-74648707D01*
X63472529Y-74200000D01*
X63383276Y-73751293D01*
X63171943Y-73435011D01*
X63473971Y-73435011D01*
X63719078Y-73680119D01*
X63719081Y-73680121D01*
X63770154Y-73731194D01*
X63756724Y-73751293D01*
X63667471Y-74200000D01*
X63756724Y-74648707D01*
X64010897Y-75029103D01*
X64391293Y-75283276D01*
X64726739Y-75350000D01*
X64953261Y-75350000D01*
X65288707Y-75283276D01*
X65669103Y-75029103D01*
X65923276Y-74648707D01*
X66012529Y-74200000D01*
X65923276Y-73751293D01*
X65669103Y-73370897D01*
X65288707Y-73116724D01*
X64953261Y-73050000D01*
X64726739Y-73050000D01*
X64391293Y-73116724D01*
X64371194Y-73130154D01*
X64320121Y-73079081D01*
X64320119Y-73079078D01*
X64226041Y-72985000D01*
X65563960Y-72985000D01*
X66259078Y-73680119D01*
X66259081Y-73680121D01*
X66310154Y-73731194D01*
X66296724Y-73751293D01*
X66207471Y-74200000D01*
X66296724Y-74648707D01*
X66550897Y-75029103D01*
X66931293Y-75283276D01*
X67266739Y-75350000D01*
X67493261Y-75350000D01*
X67828707Y-75283276D01*
X68209103Y-75029103D01*
X68463276Y-74648707D01*
X68552529Y-74200000D01*
X68463276Y-73751293D01*
X68209103Y-73370897D01*
X67828707Y-73116724D01*
X67493261Y-73050000D01*
X67266739Y-73050000D01*
X66931293Y-73116724D01*
X66911194Y-73130154D01*
X66860121Y-73079081D01*
X66860119Y-73079078D01*
X66070121Y-72289081D01*
X66046408Y-72253592D01*
X65905827Y-72159659D01*
X65781858Y-72135000D01*
X65781857Y-72135000D01*
X65740000Y-72126674D01*
X65698143Y-72135000D01*
X62266041Y-72135000D01*
X60375010Y-70243970D01*
X60375010Y-67766050D01*
X60690000Y-68081041D01*
X60690000Y-68319239D01*
X60796568Y-68576518D01*
X60993482Y-68773432D01*
X61250761Y-68880000D01*
X61529239Y-68880000D01*
X61786518Y-68773432D01*
X61983432Y-68576518D01*
X62063490Y-68383240D01*
X62116346Y-68510847D01*
X62313260Y-68707761D01*
X62559057Y-68809573D01*
X62318630Y-69050000D01*
X62186739Y-69050000D01*
X61851293Y-69116724D01*
X61470897Y-69370897D01*
X61216724Y-69751293D01*
X61127471Y-70200000D01*
X61216724Y-70648707D01*
X61470897Y-71029103D01*
X61851293Y-71283276D01*
X62186739Y-71350000D01*
X62413261Y-71350000D01*
X62748707Y-71283276D01*
X63129103Y-71029103D01*
X63383276Y-70648707D01*
X63472529Y-70200000D01*
X63465700Y-70165670D01*
X63726095Y-69905275D01*
X63667471Y-70200000D01*
X63756724Y-70648707D01*
X64010897Y-71029103D01*
X64391293Y-71283276D01*
X64726739Y-71350000D01*
X64953261Y-71350000D01*
X65288707Y-71283276D01*
X65669103Y-71029103D01*
X65923276Y-70648707D01*
X66012529Y-70200000D01*
X66207471Y-70200000D01*
X66296724Y-70648707D01*
X66550897Y-71029103D01*
X66931293Y-71283276D01*
X67266739Y-71350000D01*
X67493261Y-71350000D01*
X67828707Y-71283276D01*
X68209103Y-71029103D01*
X68463276Y-70648707D01*
X68552529Y-70200000D01*
X68747471Y-70200000D01*
X68836724Y-70648707D01*
X69090897Y-71029103D01*
X69471293Y-71283276D01*
X69806739Y-71350000D01*
X70033261Y-71350000D01*
X70368707Y-71283276D01*
X70749103Y-71029103D01*
X71003276Y-70648707D01*
X71092529Y-70200000D01*
X71287471Y-70200000D01*
X71376724Y-70648707D01*
X71630897Y-71029103D01*
X72011293Y-71283276D01*
X72346739Y-71350000D01*
X72573261Y-71350000D01*
X72908707Y-71283276D01*
X73289103Y-71029103D01*
X73542000Y-70650617D01*
X73542000Y-71170939D01*
X73634563Y-71394405D01*
X73805596Y-71565438D01*
X74029062Y-71658000D01*
X74694000Y-71658000D01*
X74846000Y-71506000D01*
X74846000Y-70354000D01*
X75154000Y-70354000D01*
X75154000Y-71506000D01*
X75306000Y-71658000D01*
X75970938Y-71658000D01*
X76194404Y-71565438D01*
X76365437Y-71394405D01*
X76458000Y-71170939D01*
X76458000Y-70506000D01*
X76306000Y-70354000D01*
X75154000Y-70354000D01*
X74846000Y-70354000D01*
X74826000Y-70354000D01*
X74826000Y-70046000D01*
X74846000Y-70046000D01*
X74846000Y-68894000D01*
X75154000Y-68894000D01*
X75154000Y-70046000D01*
X76306000Y-70046000D01*
X76458000Y-69894000D01*
X76458000Y-69229061D01*
X76365437Y-69005595D01*
X76194404Y-68834562D01*
X75970938Y-68742000D01*
X75306000Y-68742000D01*
X75154000Y-68894000D01*
X74846000Y-68894000D01*
X74694000Y-68742000D01*
X74029062Y-68742000D01*
X73805596Y-68834562D01*
X73634563Y-69005595D01*
X73542000Y-69229061D01*
X73542000Y-69749383D01*
X73289103Y-69370897D01*
X72908707Y-69116724D01*
X72573261Y-69050000D01*
X72346739Y-69050000D01*
X72011293Y-69116724D01*
X71630897Y-69370897D01*
X71376724Y-69751293D01*
X71287471Y-70200000D01*
X71092529Y-70200000D01*
X71003276Y-69751293D01*
X70749103Y-69370897D01*
X70368707Y-69116724D01*
X70033261Y-69050000D01*
X69806739Y-69050000D01*
X69471293Y-69116724D01*
X69090897Y-69370897D01*
X68836724Y-69751293D01*
X68747471Y-70200000D01*
X68552529Y-70200000D01*
X68463276Y-69751293D01*
X68209103Y-69370897D01*
X67828707Y-69116724D01*
X67493261Y-69050000D01*
X67266739Y-69050000D01*
X66931293Y-69116724D01*
X66550897Y-69370897D01*
X66296724Y-69751293D01*
X66207471Y-70200000D01*
X66012529Y-70200000D01*
X65923276Y-69751293D01*
X65669103Y-69370897D01*
X65288707Y-69116724D01*
X64953261Y-69050000D01*
X64726739Y-69050000D01*
X64545275Y-69086095D01*
X66581692Y-67049679D01*
X66931293Y-67283276D01*
X67266739Y-67350000D01*
X67493261Y-67350000D01*
X67828707Y-67283276D01*
X68209103Y-67029103D01*
X68463276Y-66648707D01*
X68552529Y-66200000D01*
X68545700Y-66165670D01*
X68806095Y-65905275D01*
X68747471Y-66200000D01*
X68836724Y-66648707D01*
X69090897Y-67029103D01*
X69471293Y-67283276D01*
X69806739Y-67350000D01*
X70033261Y-67350000D01*
X70368707Y-67283276D01*
X70749103Y-67029103D01*
X71003276Y-66648707D01*
X71092529Y-66200000D01*
X71003276Y-65751293D01*
X70989846Y-65731194D01*
X72885000Y-63836041D01*
X72884999Y-65112008D01*
X72573261Y-65050000D01*
X72346739Y-65050000D01*
X72011293Y-65116724D01*
X71630897Y-65370897D01*
X71376724Y-65751293D01*
X71287471Y-66200000D01*
X71376724Y-66648707D01*
X71630897Y-67029103D01*
X72011293Y-67283276D01*
X72346739Y-67350000D01*
X72573261Y-67350000D01*
X72908707Y-67283276D01*
X73289103Y-67029103D01*
X73542000Y-66650617D01*
X73542000Y-67170939D01*
X73634563Y-67394405D01*
X73805596Y-67565438D01*
X74029062Y-67658000D01*
X74694000Y-67658000D01*
X74846000Y-67506000D01*
X74846000Y-66354000D01*
X75154000Y-66354000D01*
X75154000Y-67506000D01*
X75306000Y-67658000D01*
X75970938Y-67658000D01*
X76194404Y-67565438D01*
X76365437Y-67394405D01*
X76458000Y-67170939D01*
X76458000Y-66506000D01*
X76306000Y-66354000D01*
X75154000Y-66354000D01*
X74846000Y-66354000D01*
X74826000Y-66354000D01*
X74826000Y-66046000D01*
X74846000Y-66046000D01*
X74846000Y-64894000D01*
X75154000Y-64894000D01*
X75154000Y-66046000D01*
X76306000Y-66046000D01*
X76458000Y-65894000D01*
X76458000Y-65229061D01*
X76365437Y-65005595D01*
X76194404Y-64834562D01*
X75970938Y-64742000D01*
X75306000Y-64742000D01*
X75154000Y-64894000D01*
X74846000Y-64894000D01*
X74694000Y-64742000D01*
X74029062Y-64742000D01*
X73805596Y-64834562D01*
X73734999Y-64905159D01*
X73734999Y-63646041D01*
X75140923Y-62240118D01*
X75176408Y-62216408D01*
X75270341Y-62075827D01*
X75286783Y-61993167D01*
X75463432Y-61816518D01*
X75570000Y-61559239D01*
X75570000Y-61280761D01*
X75463432Y-61023482D01*
X75266518Y-60826568D01*
X75009239Y-60720000D01*
X74730761Y-60720000D01*
X74473482Y-60826568D01*
X74335000Y-60965050D01*
X74216518Y-60846568D01*
X73967817Y-60743553D01*
X74929017Y-59782354D01*
X79521353Y-59782354D01*
X79559741Y-59774692D01*
X79592155Y-59752973D01*
X79613790Y-59720503D01*
X79621353Y-59682225D01*
X79618946Y-57819986D01*
X80175001Y-58376042D01*
X80175000Y-66587549D01*
X78229079Y-68533471D01*
X78193593Y-68557182D01*
X78169882Y-68592668D01*
X78099659Y-68697764D01*
X78066674Y-68863590D01*
X78075001Y-68905452D01*
X78075000Y-70131029D01*
X76616806Y-71675000D01*
X73965447Y-71675000D01*
X73923589Y-71666674D01*
X73881732Y-71675000D01*
X73757763Y-71699659D01*
X73617182Y-71793592D01*
X73593471Y-71829078D01*
X72822551Y-72599999D01*
X71136856Y-72599999D01*
X71095000Y-72591673D01*
X71053144Y-72599999D01*
X71053143Y-72599999D01*
X70929174Y-72624658D01*
X70788593Y-72718591D01*
X70764882Y-72754077D01*
X70388806Y-73130154D01*
X70368707Y-73116724D01*
X70033261Y-73050000D01*
X69806739Y-73050000D01*
X69471293Y-73116724D01*
X69090897Y-73370897D01*
X68836724Y-73751293D01*
X68747471Y-74200000D01*
X68836724Y-74648707D01*
X69090897Y-75029103D01*
X69471293Y-75283276D01*
X69806739Y-75350000D01*
X70033261Y-75350000D01*
X70368707Y-75283276D01*
X70749103Y-75029103D01*
X71003276Y-74648707D01*
X71092529Y-74200000D01*
X71003276Y-73751293D01*
X70989846Y-73731194D01*
X71271042Y-73449999D01*
X71578043Y-73449999D01*
X71376724Y-73751293D01*
X71287471Y-74200000D01*
X71376724Y-74648707D01*
X71630897Y-75029103D01*
X72011293Y-75283276D01*
X72346739Y-75350000D01*
X72573261Y-75350000D01*
X72908707Y-75283276D01*
X73289103Y-75029103D01*
X73543276Y-74648707D01*
X73632529Y-74200000D01*
X73543276Y-73751293D01*
X73529846Y-73731194D01*
X73844123Y-73416918D01*
X73844123Y-75050000D01*
X73867407Y-75167054D01*
X73933712Y-75266288D01*
X74032946Y-75332593D01*
X74150000Y-75355877D01*
X75850000Y-75355877D01*
X75967054Y-75332593D01*
X76066288Y-75266288D01*
X76132593Y-75167054D01*
X76155877Y-75050000D01*
X76155877Y-74622211D01*
X76265827Y-74600341D01*
X76406408Y-74506408D01*
X76430121Y-74470919D01*
X79770923Y-71130118D01*
X79806408Y-71106408D01*
X79820000Y-71086066D01*
X79820000Y-71915650D01*
X80428963Y-73385818D01*
X81554182Y-74511037D01*
X83024350Y-75120000D01*
X84615650Y-75120000D01*
X86085818Y-74511037D01*
X87211037Y-73385818D01*
X87820000Y-71915650D01*
X87820000Y-70324350D01*
X87211037Y-68854182D01*
X86085818Y-67728963D01*
X84615650Y-67120000D01*
X83024350Y-67120000D01*
X81584732Y-67716309D01*
X81870923Y-67430118D01*
X81906408Y-67406408D01*
X82000341Y-67265827D01*
X82025000Y-67141858D01*
X82025000Y-67141857D01*
X82033326Y-67100001D01*
X82025000Y-67058145D01*
X82025000Y-60820000D01*
X84727471Y-60820000D01*
X84816724Y-61268707D01*
X85070897Y-61649103D01*
X85451293Y-61903276D01*
X85786739Y-61970000D01*
X86013261Y-61970000D01*
X86348707Y-61903276D01*
X86729103Y-61649103D01*
X86983276Y-61268707D01*
X87072529Y-60820000D01*
X86983276Y-60371293D01*
X86729103Y-59990897D01*
X86348707Y-59736724D01*
X86013261Y-59670000D01*
X85786739Y-59670000D01*
X85451293Y-59736724D01*
X85070897Y-59990897D01*
X84816724Y-60371293D01*
X84727471Y-60820000D01*
X82025000Y-60820000D01*
X82025000Y-57564950D01*
X82193432Y-57396518D01*
X82300000Y-57139239D01*
X82300000Y-56860761D01*
X82193432Y-56603482D01*
X82129950Y-56540000D01*
X85051451Y-56540000D01*
X85070897Y-56569103D01*
X85451293Y-56823276D01*
X85786739Y-56890000D01*
X86013261Y-56890000D01*
X86348707Y-56823276D01*
X86729103Y-56569103D01*
X86900000Y-56313338D01*
X86900000Y-57028629D01*
X86578418Y-57350212D01*
X86348707Y-57196724D01*
X86013261Y-57130000D01*
X85786739Y-57130000D01*
X85451293Y-57196724D01*
X85070897Y-57450897D01*
X84816724Y-57831293D01*
X84727471Y-58280000D01*
X84816724Y-58728707D01*
X85070897Y-59109103D01*
X85451293Y-59363276D01*
X85786739Y-59430000D01*
X86013261Y-59430000D01*
X86348707Y-59363276D01*
X86729103Y-59109103D01*
X86742996Y-59088311D01*
X86780000Y-59095671D01*
X86858784Y-59080000D01*
X86858789Y-59080000D01*
X87092144Y-59033583D01*
X87356767Y-58856767D01*
X87401398Y-58789972D01*
X88209975Y-57981396D01*
X88276767Y-57936767D01*
X88327834Y-57860341D01*
X88388179Y-57770027D01*
X88453583Y-57672144D01*
X88500000Y-57438789D01*
X88500000Y-57438785D01*
X88500001Y-57438781D01*
X88500001Y-69834270D01*
X88425524Y-70780592D01*
X88207611Y-71688266D01*
X87850386Y-72550683D01*
X87362650Y-73346596D01*
X86756414Y-74056407D01*
X86046596Y-74662650D01*
X85250684Y-75150386D01*
X84388268Y-75507610D01*
X83480592Y-75725524D01*
X82534283Y-75800000D01*
X6365717Y-75800000D01*
X5419408Y-75725524D01*
X4511734Y-75507611D01*
X3649317Y-75150386D01*
X2853404Y-74662650D01*
X2143593Y-74056414D01*
X1537350Y-73346596D01*
X1049614Y-72550684D01*
X692390Y-71688268D01*
X474476Y-70780592D01*
X438570Y-70324350D01*
X1080000Y-70324350D01*
X1080000Y-71915650D01*
X1688963Y-73385818D01*
X2814182Y-74511037D01*
X4284350Y-75120000D01*
X5875650Y-75120000D01*
X7345818Y-74511037D01*
X8471037Y-73385818D01*
X8504098Y-73306000D01*
X42542000Y-73306000D01*
X42542000Y-74870939D01*
X42634563Y-75094405D01*
X42805596Y-75265438D01*
X43029062Y-75358000D01*
X44594000Y-75358000D01*
X44746000Y-75206000D01*
X44746000Y-73154000D01*
X45054000Y-73154000D01*
X45054000Y-75206000D01*
X45206000Y-75358000D01*
X46770938Y-75358000D01*
X46994404Y-75265438D01*
X47165437Y-75094405D01*
X47258000Y-74870939D01*
X47258000Y-73306000D01*
X47106000Y-73154000D01*
X45054000Y-73154000D01*
X44746000Y-73154000D01*
X42694000Y-73154000D01*
X42542000Y-73306000D01*
X8504098Y-73306000D01*
X9080000Y-71915650D01*
X9080000Y-71129061D01*
X42542000Y-71129061D01*
X42542000Y-72694000D01*
X42694000Y-72846000D01*
X44746000Y-72846000D01*
X44746000Y-70794000D01*
X45054000Y-70794000D01*
X45054000Y-72846000D01*
X47106000Y-72846000D01*
X47258000Y-72694000D01*
X47258000Y-71129061D01*
X47165437Y-70905595D01*
X46994404Y-70734562D01*
X46770938Y-70642000D01*
X45206000Y-70642000D01*
X45054000Y-70794000D01*
X44746000Y-70794000D01*
X44594000Y-70642000D01*
X43029062Y-70642000D01*
X42805596Y-70734562D01*
X42634563Y-70905595D01*
X42542000Y-71129061D01*
X9080000Y-71129061D01*
X9080000Y-70324350D01*
X8471037Y-68854182D01*
X7345818Y-67728963D01*
X5875650Y-67120000D01*
X4284350Y-67120000D01*
X2814182Y-67728963D01*
X1688963Y-68854182D01*
X1080000Y-70324350D01*
X438570Y-70324350D01*
X400000Y-69834283D01*
X400000Y-32204350D01*
X7143600Y-32204350D01*
X7143600Y-33795650D01*
X7752563Y-35265818D01*
X8877782Y-36391037D01*
X10347950Y-37000000D01*
X11939250Y-37000000D01*
X13409418Y-36391037D01*
X14534637Y-35265818D01*
X15143600Y-33795650D01*
X15143600Y-32204350D01*
X14534637Y-30734182D01*
X13409418Y-29608963D01*
X11939250Y-29000000D01*
X10347950Y-29000000D01*
X8877782Y-29608963D01*
X7752563Y-30734182D01*
X7143600Y-32204350D01*
X400000Y-32204350D01*
X400000Y-28431090D01*
X16152097Y-28431090D01*
X16263111Y-28656000D01*
X17406000Y-28656000D01*
X17406000Y-28636000D01*
X17714000Y-28636000D01*
X17714000Y-28656000D01*
X17734000Y-28656000D01*
X17734000Y-28964000D01*
X17714000Y-28964000D01*
X17714000Y-28984000D01*
X17406000Y-28984000D01*
X17406000Y-28964000D01*
X16263111Y-28964000D01*
X16152097Y-29188910D01*
X16296523Y-29537616D01*
X16671146Y-29965741D01*
X17181089Y-30217915D01*
X17405998Y-30107857D01*
X17405998Y-30208104D01*
X17111293Y-30266724D01*
X16730897Y-30520897D01*
X16476724Y-30901293D01*
X16387471Y-31350000D01*
X16476724Y-31798707D01*
X16730897Y-32179103D01*
X17111293Y-32433276D01*
X17446739Y-32500000D01*
X17673261Y-32500000D01*
X18008707Y-32433276D01*
X18389103Y-32179103D01*
X18643276Y-31798707D01*
X18732529Y-31350000D01*
X18643276Y-30901293D01*
X18389103Y-30520897D01*
X18008707Y-30266724D01*
X17714002Y-30208104D01*
X17714002Y-30107857D01*
X17938911Y-30217915D01*
X18448854Y-29965741D01*
X18823477Y-29537616D01*
X18967903Y-29188910D01*
X18856890Y-28964002D01*
X18958104Y-28964002D01*
X19016724Y-29258707D01*
X19270897Y-29639103D01*
X19651293Y-29893276D01*
X19986739Y-29960000D01*
X20213261Y-29960000D01*
X20548707Y-29893276D01*
X20929103Y-29639103D01*
X21183276Y-29258707D01*
X21272529Y-28810000D01*
X21183276Y-28361293D01*
X20929103Y-27980897D01*
X20548707Y-27726724D01*
X20213261Y-27660000D01*
X19986739Y-27660000D01*
X19651293Y-27726724D01*
X19270897Y-27980897D01*
X19016724Y-28361293D01*
X18958104Y-28655998D01*
X18856890Y-28655998D01*
X18967903Y-28431090D01*
X18823477Y-28082384D01*
X18448854Y-27654259D01*
X17938911Y-27402085D01*
X17714002Y-27512143D01*
X17714002Y-27411896D01*
X18008707Y-27353276D01*
X18389103Y-27099103D01*
X18643276Y-26718707D01*
X18732529Y-26270000D01*
X18927471Y-26270000D01*
X19016724Y-26718707D01*
X19270897Y-27099103D01*
X19651293Y-27353276D01*
X19986739Y-27420000D01*
X20213261Y-27420000D01*
X20548707Y-27353276D01*
X20929103Y-27099103D01*
X21183276Y-26718707D01*
X21272529Y-26270000D01*
X21183276Y-25821293D01*
X20929103Y-25440897D01*
X20548707Y-25186724D01*
X20213261Y-25120000D01*
X19986739Y-25120000D01*
X19651293Y-25186724D01*
X19270897Y-25440897D01*
X19016724Y-25821293D01*
X18927471Y-26270000D01*
X18732529Y-26270000D01*
X18643276Y-25821293D01*
X18389103Y-25440897D01*
X18008707Y-25186724D01*
X17673261Y-25120000D01*
X17446739Y-25120000D01*
X17111293Y-25186724D01*
X16730897Y-25440897D01*
X16476724Y-25821293D01*
X16387471Y-26270000D01*
X16476724Y-26718707D01*
X16730897Y-27099103D01*
X17111293Y-27353276D01*
X17405998Y-27411896D01*
X17405998Y-27512143D01*
X17181089Y-27402085D01*
X16671146Y-27654259D01*
X16296523Y-28082384D01*
X16152097Y-28431090D01*
X400000Y-28431090D01*
X400000Y-23730000D01*
X16387471Y-23730000D01*
X16476724Y-24178707D01*
X16730897Y-24559103D01*
X17111293Y-24813276D01*
X17446739Y-24880000D01*
X17673261Y-24880000D01*
X18008707Y-24813276D01*
X18389103Y-24559103D01*
X18643276Y-24178707D01*
X18732529Y-23730000D01*
X18643276Y-23281293D01*
X18389103Y-22900897D01*
X18008707Y-22646724D01*
X17673261Y-22580000D01*
X17446739Y-22580000D01*
X17111293Y-22646724D01*
X16730897Y-22900897D01*
X16476724Y-23281293D01*
X16387471Y-23730000D01*
X400000Y-23730000D01*
X400000Y-21190000D01*
X16387471Y-21190000D01*
X16476724Y-21638707D01*
X16730897Y-22019103D01*
X17111293Y-22273276D01*
X17446739Y-22340000D01*
X17673261Y-22340000D01*
X18008707Y-22273276D01*
X18389103Y-22019103D01*
X18643276Y-21638707D01*
X18732529Y-21190000D01*
X18643276Y-20741293D01*
X18389103Y-20360897D01*
X18008707Y-20106724D01*
X17673261Y-20040000D01*
X17446739Y-20040000D01*
X17111293Y-20106724D01*
X16730897Y-20360897D01*
X16476724Y-20741293D01*
X16387471Y-21190000D01*
X400000Y-21190000D01*
X400000Y-17800000D01*
X16404123Y-17800000D01*
X16404123Y-19500000D01*
X16427407Y-19617054D01*
X16493712Y-19716288D01*
X16592946Y-19782593D01*
X16710000Y-19805877D01*
X18410000Y-19805877D01*
X18527054Y-19782593D01*
X18626288Y-19716288D01*
X18692593Y-19617054D01*
X18715877Y-19500000D01*
X18715877Y-18650000D01*
X18774532Y-18650000D01*
X18875427Y-19157235D01*
X19162753Y-19587247D01*
X19592765Y-19874573D01*
X19971963Y-19950000D01*
X20763605Y-19950000D01*
X24700000Y-23886396D01*
X24700000Y-24658629D01*
X21265700Y-21224330D01*
X21272529Y-21190000D01*
X21183276Y-20741293D01*
X20929103Y-20360897D01*
X20548707Y-20106724D01*
X20213261Y-20040000D01*
X19986739Y-20040000D01*
X19651293Y-20106724D01*
X19270897Y-20360897D01*
X19016724Y-20741293D01*
X18927471Y-21190000D01*
X19016724Y-21638707D01*
X19270897Y-22019103D01*
X19651293Y-22273276D01*
X19986739Y-22340000D01*
X20118630Y-22340000D01*
X20394725Y-22616095D01*
X20213261Y-22580000D01*
X19986739Y-22580000D01*
X19651293Y-22646724D01*
X19270897Y-22900897D01*
X19016724Y-23281293D01*
X18927471Y-23730000D01*
X19016724Y-24178707D01*
X19270897Y-24559103D01*
X19651293Y-24813276D01*
X19986739Y-24880000D01*
X20213261Y-24880000D01*
X20548707Y-24813276D01*
X20929103Y-24559103D01*
X21183276Y-24178707D01*
X21272529Y-23730000D01*
X21213905Y-23435275D01*
X23450000Y-25671371D01*
X23450001Y-33171207D01*
X23450000Y-33171212D01*
X23450000Y-33568629D01*
X21265700Y-31384330D01*
X21272529Y-31350000D01*
X21183276Y-30901293D01*
X20929103Y-30520897D01*
X20548707Y-30266724D01*
X20213261Y-30200000D01*
X19986739Y-30200000D01*
X19651293Y-30266724D01*
X19270897Y-30520897D01*
X19016724Y-30901293D01*
X18927471Y-31350000D01*
X19016724Y-31798707D01*
X19270897Y-32179103D01*
X19651293Y-32433276D01*
X19986739Y-32500000D01*
X20118630Y-32500000D01*
X22200000Y-34581371D01*
X22200001Y-60171211D01*
X22184329Y-60250000D01*
X22246418Y-60562144D01*
X22378603Y-60759973D01*
X22378605Y-60759975D01*
X22423234Y-60826767D01*
X22490026Y-60871396D01*
X24628604Y-63009974D01*
X24673233Y-63076767D01*
X24740025Y-63121396D01*
X24740027Y-63121398D01*
X24937855Y-63253583D01*
X25250000Y-63315672D01*
X25328789Y-63300000D01*
X26828789Y-63300000D01*
X27062144Y-63253583D01*
X27070000Y-63248334D01*
X27070000Y-63379239D01*
X27176568Y-63636518D01*
X27373482Y-63833432D01*
X27630761Y-63940000D01*
X27909239Y-63940000D01*
X28166518Y-63833432D01*
X28363432Y-63636518D01*
X28470000Y-63379239D01*
X28470000Y-63100761D01*
X28387883Y-62902512D01*
X31071501Y-65586131D01*
X31125427Y-65857235D01*
X31300000Y-66118500D01*
X31300000Y-66289239D01*
X31406568Y-66546518D01*
X31603482Y-66743432D01*
X31860761Y-66850000D01*
X32011523Y-66850000D01*
X32990227Y-67828705D01*
X33062753Y-67937247D01*
X33171294Y-68009772D01*
X33171296Y-68009774D01*
X33290760Y-68089597D01*
X33492765Y-68224573D01*
X33871963Y-68300000D01*
X33871968Y-68300000D01*
X33999999Y-68325467D01*
X34128031Y-68300000D01*
X42844123Y-68300000D01*
X42844123Y-68750000D01*
X42867407Y-68867054D01*
X42933712Y-68966288D01*
X43032946Y-69032593D01*
X43150000Y-69055877D01*
X46650000Y-69055877D01*
X46767054Y-69032593D01*
X46866288Y-68966288D01*
X46932593Y-68867054D01*
X46955877Y-68750000D01*
X46955877Y-65250000D01*
X46932593Y-65132946D01*
X46866288Y-65033712D01*
X46767054Y-64967407D01*
X46650000Y-64944123D01*
X43150000Y-64944123D01*
X43032946Y-64967407D01*
X42933712Y-65033712D01*
X42867407Y-65132946D01*
X42844123Y-65250000D01*
X42844123Y-65700000D01*
X34538477Y-65700000D01*
X33628499Y-64790023D01*
X33574573Y-64518917D01*
X33367953Y-64209689D01*
X33359774Y-64197448D01*
X33359772Y-64197446D01*
X33287247Y-64088905D01*
X33178706Y-64016380D01*
X27300000Y-58137676D01*
X27300000Y-32204350D01*
X34856400Y-32204350D01*
X34856400Y-33795650D01*
X35465363Y-35265818D01*
X36590582Y-36391037D01*
X38060750Y-37000000D01*
X39652050Y-37000000D01*
X41122218Y-36391037D01*
X42247437Y-35265818D01*
X42856400Y-33795650D01*
X42856400Y-32725444D01*
X51682344Y-32725444D01*
X51757699Y-32958635D01*
X52281336Y-33133869D01*
X52832173Y-33095378D01*
X53162301Y-32958635D01*
X53237656Y-32725444D01*
X52460000Y-31947789D01*
X51682344Y-32725444D01*
X42856400Y-32725444D01*
X42856400Y-32204350D01*
X42585913Y-31551336D01*
X51056131Y-31551336D01*
X51094622Y-32102173D01*
X51231365Y-32432301D01*
X51464556Y-32507656D01*
X52242211Y-31730000D01*
X51464556Y-30952344D01*
X51231365Y-31027699D01*
X51056131Y-31551336D01*
X42585913Y-31551336D01*
X42247437Y-30734182D01*
X41122218Y-29608963D01*
X39652050Y-29000000D01*
X38060750Y-29000000D01*
X36590582Y-29608963D01*
X35465363Y-30734182D01*
X34856400Y-32204350D01*
X27300000Y-32204350D01*
X27300000Y-24770761D01*
X47900000Y-24770761D01*
X47900000Y-25049239D01*
X48006568Y-25306518D01*
X48203482Y-25503432D01*
X48460761Y-25610000D01*
X48739239Y-25610000D01*
X48996518Y-25503432D01*
X49186193Y-25313757D01*
X49205079Y-25310000D01*
X49321757Y-25286791D01*
X49454069Y-25198384D01*
X49476388Y-25164981D01*
X51401371Y-23240000D01*
X51802650Y-23240000D01*
X51544421Y-23498229D01*
X51380000Y-23895175D01*
X51380000Y-24324825D01*
X51414998Y-24409317D01*
X50174316Y-25650000D01*
X49900761Y-25650000D01*
X49643482Y-25756568D01*
X49446568Y-25953482D01*
X49340000Y-26210761D01*
X49340000Y-26489239D01*
X49446568Y-26746518D01*
X49643482Y-26943432D01*
X49900761Y-27050000D01*
X50179239Y-27050000D01*
X50436518Y-26943432D01*
X50633432Y-26746518D01*
X50740000Y-26489239D01*
X50740000Y-26215684D01*
X51906125Y-25049560D01*
X52245175Y-25190000D01*
X52674825Y-25190000D01*
X53071771Y-25025579D01*
X53375579Y-24721771D01*
X53540000Y-24324825D01*
X53540000Y-24157282D01*
X61367701Y-31984984D01*
X61390018Y-32018384D01*
X61515419Y-32102173D01*
X61522330Y-32106791D01*
X61678402Y-32137836D01*
X61717796Y-32130000D01*
X76856702Y-32130000D01*
X76944421Y-32341771D01*
X77248229Y-32645579D01*
X77645175Y-32810000D01*
X78074825Y-32810000D01*
X78471771Y-32645579D01*
X78775579Y-32341771D01*
X78940000Y-31944825D01*
X78940000Y-31515175D01*
X78775579Y-31118229D01*
X78471771Y-30814421D01*
X78074825Y-30650000D01*
X77645175Y-30650000D01*
X77248229Y-30814421D01*
X76944421Y-31118229D01*
X76856702Y-31330000D01*
X61844087Y-31330000D01*
X59489262Y-28975175D01*
X76780000Y-28975175D01*
X76780000Y-29404825D01*
X76944421Y-29801771D01*
X77248229Y-30105579D01*
X77645175Y-30270000D01*
X78074825Y-30270000D01*
X78471771Y-30105579D01*
X78775579Y-29801771D01*
X78940000Y-29404825D01*
X78940000Y-28975175D01*
X78775579Y-28578229D01*
X78471771Y-28274421D01*
X78074825Y-28110000D01*
X77645175Y-28110000D01*
X77248229Y-28274421D01*
X76944421Y-28578229D01*
X76780000Y-28975175D01*
X59489262Y-28975175D01*
X56949262Y-26435175D01*
X76780000Y-26435175D01*
X76780000Y-26864825D01*
X76944421Y-27261771D01*
X77248229Y-27565579D01*
X77645175Y-27730000D01*
X78074825Y-27730000D01*
X78471771Y-27565579D01*
X78775579Y-27261771D01*
X78940000Y-26864825D01*
X78940000Y-26435175D01*
X78775579Y-26038229D01*
X78471771Y-25734421D01*
X78074825Y-25570000D01*
X77645175Y-25570000D01*
X77248229Y-25734421D01*
X76944421Y-26038229D01*
X76780000Y-26435175D01*
X56949262Y-26435175D01*
X54409262Y-23895175D01*
X76780000Y-23895175D01*
X76780000Y-24324825D01*
X76944421Y-24721771D01*
X77248229Y-25025579D01*
X77645175Y-25190000D01*
X78074825Y-25190000D01*
X78471771Y-25025579D01*
X78775579Y-24721771D01*
X78940000Y-24324825D01*
X78940000Y-23895175D01*
X78775579Y-23498229D01*
X78471771Y-23194421D01*
X78074825Y-23030000D01*
X77645175Y-23030000D01*
X77248229Y-23194421D01*
X76944421Y-23498229D01*
X76780000Y-23895175D01*
X54409262Y-23895175D01*
X53099105Y-22585019D01*
X53076786Y-22551616D01*
X53013856Y-22509568D01*
X53071771Y-22485579D01*
X53375579Y-22181771D01*
X53540000Y-21784825D01*
X53540000Y-21355175D01*
X53375579Y-20958229D01*
X53071771Y-20654421D01*
X52723112Y-20510001D01*
X58180328Y-20510001D01*
X58113928Y-20523209D01*
X57981616Y-20611616D01*
X57959301Y-20645013D01*
X56774315Y-21830000D01*
X56500761Y-21830000D01*
X56243482Y-21936568D01*
X56046568Y-22133482D01*
X55940000Y-22390761D01*
X55940000Y-22669239D01*
X56046568Y-22926518D01*
X56243482Y-23123432D01*
X56500761Y-23230000D01*
X56779239Y-23230000D01*
X57036518Y-23123432D01*
X57233432Y-22926518D01*
X57340000Y-22669239D01*
X57340000Y-22395685D01*
X58435686Y-21300000D01*
X59940050Y-21300000D01*
X60133482Y-21493432D01*
X60390761Y-21600000D01*
X60669239Y-21600000D01*
X60926518Y-21493432D01*
X61064775Y-21355175D01*
X76780000Y-21355175D01*
X76780000Y-21784825D01*
X76944421Y-22181771D01*
X77248229Y-22485579D01*
X77645175Y-22650000D01*
X78074825Y-22650000D01*
X78471771Y-22485579D01*
X78775579Y-22181771D01*
X78940000Y-21784825D01*
X78940000Y-21355175D01*
X78775579Y-20958229D01*
X78471771Y-20654421D01*
X78074825Y-20490000D01*
X77645175Y-20490000D01*
X77248229Y-20654421D01*
X76944421Y-20958229D01*
X76780000Y-21355175D01*
X61064775Y-21355175D01*
X61123432Y-21296518D01*
X61230000Y-21039239D01*
X61230000Y-20760761D01*
X61123432Y-20503482D01*
X61022360Y-20402410D01*
X61028383Y-20398385D01*
X61050702Y-20364982D01*
X61085684Y-20330000D01*
X61359239Y-20330000D01*
X61616518Y-20223432D01*
X61813432Y-20026518D01*
X61920000Y-19769239D01*
X61920000Y-19490761D01*
X61813432Y-19233482D01*
X61616518Y-19036568D01*
X61359239Y-18930000D01*
X61080761Y-18930000D01*
X60823482Y-19036568D01*
X60626568Y-19233482D01*
X60520000Y-19490761D01*
X60520000Y-19710001D01*
X53307349Y-19710001D01*
X53375579Y-19641771D01*
X53540000Y-19244825D01*
X53540000Y-18815175D01*
X76780000Y-18815175D01*
X76780000Y-19244825D01*
X76944421Y-19641771D01*
X77248229Y-19945579D01*
X77645175Y-20110000D01*
X78074825Y-20110000D01*
X78471771Y-19945579D01*
X78775579Y-19641771D01*
X78940000Y-19244825D01*
X78940000Y-18815175D01*
X78775579Y-18418229D01*
X78471771Y-18114421D01*
X78074825Y-17950000D01*
X77645175Y-17950000D01*
X77248229Y-18114421D01*
X76944421Y-18418229D01*
X76780000Y-18815175D01*
X53540000Y-18815175D01*
X53375579Y-18418229D01*
X53071771Y-18114421D01*
X52674825Y-17950000D01*
X52245175Y-17950000D01*
X51848229Y-18114421D01*
X51544421Y-18418229D01*
X51380000Y-18815175D01*
X51380000Y-19244825D01*
X51544421Y-19641771D01*
X51621550Y-19718900D01*
X51549612Y-19733210D01*
X51417300Y-19821617D01*
X51394983Y-19855017D01*
X51244975Y-20005025D01*
X51146518Y-19906568D01*
X50889239Y-19800000D01*
X50610761Y-19800000D01*
X50353482Y-19906568D01*
X50156568Y-20103482D01*
X50050000Y-20360761D01*
X50050000Y-20440050D01*
X50020000Y-20410050D01*
X50020000Y-16275175D01*
X51380000Y-16275175D01*
X51380000Y-16704825D01*
X51544421Y-17101771D01*
X51848229Y-17405579D01*
X52245175Y-17570000D01*
X52674825Y-17570000D01*
X53071771Y-17405579D01*
X53375579Y-17101771D01*
X53540000Y-16704825D01*
X53540000Y-16275175D01*
X76780000Y-16275175D01*
X76780000Y-16704825D01*
X76944421Y-17101771D01*
X77248229Y-17405579D01*
X77645175Y-17570000D01*
X78074825Y-17570000D01*
X78471771Y-17405579D01*
X78775579Y-17101771D01*
X78940000Y-16704825D01*
X78940000Y-16275175D01*
X78775579Y-15878229D01*
X78471771Y-15574421D01*
X78074825Y-15410000D01*
X77645175Y-15410000D01*
X77248229Y-15574421D01*
X76944421Y-15878229D01*
X76780000Y-16275175D01*
X53540000Y-16275175D01*
X53375579Y-15878229D01*
X53071771Y-15574421D01*
X52674825Y-15410000D01*
X52245175Y-15410000D01*
X51848229Y-15574421D01*
X51544421Y-15878229D01*
X51380000Y-16275175D01*
X50020000Y-16275175D01*
X50020000Y-13735175D01*
X51380000Y-13735175D01*
X51380000Y-14164825D01*
X51544421Y-14561771D01*
X51848229Y-14865579D01*
X52245175Y-15030000D01*
X52674825Y-15030000D01*
X52878960Y-14945444D01*
X77082344Y-14945444D01*
X77157699Y-15178635D01*
X77681336Y-15353869D01*
X78232173Y-15315378D01*
X78562301Y-15178635D01*
X78637656Y-14945444D01*
X77860000Y-14167789D01*
X77082344Y-14945444D01*
X52878960Y-14945444D01*
X53071771Y-14865579D01*
X53375579Y-14561771D01*
X53540000Y-14164825D01*
X53540000Y-13771336D01*
X76456131Y-13771336D01*
X76494622Y-14322173D01*
X76631365Y-14652301D01*
X76864556Y-14727656D01*
X77642211Y-13950000D01*
X78077789Y-13950000D01*
X78855444Y-14727656D01*
X79088635Y-14652301D01*
X79263869Y-14128664D01*
X79225378Y-13577827D01*
X79088635Y-13247699D01*
X78855444Y-13172344D01*
X78077789Y-13950000D01*
X77642211Y-13950000D01*
X76864556Y-13172344D01*
X76631365Y-13247699D01*
X76456131Y-13771336D01*
X53540000Y-13771336D01*
X53540000Y-13735175D01*
X53375579Y-13338229D01*
X53071771Y-13034421D01*
X52878961Y-12954556D01*
X77082344Y-12954556D01*
X77860000Y-13732211D01*
X78637656Y-12954556D01*
X78562301Y-12721365D01*
X78038664Y-12546131D01*
X77487827Y-12584622D01*
X77157699Y-12721365D01*
X77082344Y-12954556D01*
X52878961Y-12954556D01*
X52674825Y-12870000D01*
X52245175Y-12870000D01*
X51848229Y-13034421D01*
X51544421Y-13338229D01*
X51380000Y-13735175D01*
X50020000Y-13735175D01*
X50020000Y-11875684D01*
X50700509Y-11195175D01*
X51380000Y-11195175D01*
X51380000Y-11624825D01*
X51544421Y-12021771D01*
X51848229Y-12325579D01*
X52245175Y-12490000D01*
X52674825Y-12490000D01*
X53071771Y-12325579D01*
X53375579Y-12021771D01*
X53540000Y-11624825D01*
X53540000Y-11195175D01*
X76780000Y-11195175D01*
X76780000Y-11624825D01*
X76944421Y-12021771D01*
X77248229Y-12325579D01*
X77645175Y-12490000D01*
X78074825Y-12490000D01*
X78471771Y-12325579D01*
X78775579Y-12021771D01*
X78940000Y-11624825D01*
X78940000Y-11195175D01*
X78775579Y-10798229D01*
X78471771Y-10494421D01*
X78074825Y-10330000D01*
X77645175Y-10330000D01*
X77248229Y-10494421D01*
X76944421Y-10798229D01*
X76780000Y-11195175D01*
X53540000Y-11195175D01*
X53375579Y-10798229D01*
X53071771Y-10494421D01*
X52674825Y-10330000D01*
X52245175Y-10330000D01*
X51848229Y-10494421D01*
X51544421Y-10798229D01*
X51380000Y-11195175D01*
X50700509Y-11195175D01*
X52033404Y-9862281D01*
X52245175Y-9950000D01*
X52674825Y-9950000D01*
X53071771Y-9785579D01*
X53375579Y-9481771D01*
X53540000Y-9084825D01*
X53540000Y-8655175D01*
X53375579Y-8258229D01*
X53071771Y-7954421D01*
X52674825Y-7790000D01*
X52245175Y-7790000D01*
X51848229Y-7954421D01*
X51544421Y-8258229D01*
X51380000Y-8655175D01*
X51380000Y-9084825D01*
X51467719Y-9296596D01*
X49365017Y-11399299D01*
X49331617Y-11421616D01*
X49267674Y-11517315D01*
X49243209Y-11553929D01*
X49212164Y-11710000D01*
X49220001Y-11749399D01*
X49220000Y-20410050D01*
X49026568Y-20603482D01*
X48920000Y-20860761D01*
X48920000Y-21139239D01*
X49026568Y-21396518D01*
X49223482Y-21593432D01*
X49480761Y-21700000D01*
X49759239Y-21700000D01*
X50016518Y-21593432D01*
X50213432Y-21396518D01*
X50320000Y-21139239D01*
X50320000Y-21059950D01*
X50353482Y-21093432D01*
X50610761Y-21200000D01*
X50889239Y-21200000D01*
X51146518Y-21093432D01*
X51336193Y-20903757D01*
X51355079Y-20900000D01*
X51471757Y-20876791D01*
X51604069Y-20788384D01*
X51626387Y-20754982D01*
X51871369Y-20510001D01*
X52196888Y-20510001D01*
X51848229Y-20654421D01*
X51544421Y-20958229D01*
X51380000Y-21355175D01*
X51380000Y-21784825D01*
X51544421Y-22181771D01*
X51802650Y-22440000D01*
X51275077Y-22440000D01*
X51235684Y-22432164D01*
X51196292Y-22440000D01*
X51196291Y-22440000D01*
X51079613Y-22463209D01*
X50947301Y-22551616D01*
X50924986Y-22585013D01*
X49094975Y-24415025D01*
X48996518Y-24316568D01*
X48739239Y-24210000D01*
X48460761Y-24210000D01*
X48203482Y-24316568D01*
X48006568Y-24513482D01*
X47900000Y-24770761D01*
X27300000Y-24770761D01*
X27300000Y-23475952D01*
X27325467Y-23347919D01*
X27300000Y-23219886D01*
X27300000Y-23219882D01*
X27224573Y-22840684D01*
X26937247Y-22410672D01*
X26828703Y-22338145D01*
X22311857Y-17821300D01*
X22239328Y-17712753D01*
X21809316Y-17425427D01*
X21430118Y-17350000D01*
X21430114Y-17350000D01*
X21302081Y-17324533D01*
X21174048Y-17350000D01*
X19971963Y-17350000D01*
X19592765Y-17425427D01*
X19162753Y-17712753D01*
X18875427Y-18142765D01*
X18774532Y-18650000D01*
X18715877Y-18650000D01*
X18715877Y-17800000D01*
X18692593Y-17682946D01*
X18626288Y-17583712D01*
X18527054Y-17517407D01*
X18410000Y-17494123D01*
X16710000Y-17494123D01*
X16592946Y-17517407D01*
X16493712Y-17583712D01*
X16427407Y-17682946D01*
X16404123Y-17800000D01*
X400000Y-17800000D01*
X400000Y-6365717D01*
X474476Y-5419408D01*
X692390Y-4511732D01*
X786574Y-4284350D01*
X1080000Y-4284350D01*
X1080000Y-5875650D01*
X1688963Y-7345818D01*
X2814182Y-8471037D01*
X4284350Y-9080000D01*
X5875650Y-9080000D01*
X7345818Y-8471037D01*
X7612505Y-8204350D01*
X21000000Y-8204350D01*
X21000000Y-9795650D01*
X21608963Y-11265818D01*
X22734182Y-12391037D01*
X24204350Y-13000000D01*
X25795650Y-13000000D01*
X27265818Y-12391037D01*
X28391037Y-11265818D01*
X29000000Y-9795650D01*
X29000000Y-8204350D01*
X28391037Y-6734182D01*
X27772030Y-6115175D01*
X51380000Y-6115175D01*
X51380000Y-6544825D01*
X51544421Y-6941771D01*
X51848229Y-7245579D01*
X52245175Y-7410000D01*
X52674825Y-7410000D01*
X53071771Y-7245579D01*
X53375579Y-6941771D01*
X53540000Y-6544825D01*
X53540000Y-6115175D01*
X53375579Y-5718229D01*
X53071771Y-5414421D01*
X52674825Y-5250000D01*
X52245175Y-5250000D01*
X51848229Y-5414421D01*
X51544421Y-5718229D01*
X51380000Y-6115175D01*
X27772030Y-6115175D01*
X27265818Y-5608963D01*
X25795650Y-5000000D01*
X24204350Y-5000000D01*
X22734182Y-5608963D01*
X21608963Y-6734182D01*
X21000000Y-8204350D01*
X7612505Y-8204350D01*
X8471037Y-7345818D01*
X9080000Y-5875650D01*
X9080000Y-4284350D01*
X8786251Y-3575175D01*
X51380000Y-3575175D01*
X51380000Y-4004825D01*
X51544421Y-4401771D01*
X51848229Y-4705579D01*
X52245175Y-4870000D01*
X52674825Y-4870000D01*
X53071771Y-4705579D01*
X53375579Y-4401771D01*
X53540000Y-4004825D01*
X53540000Y-3575175D01*
X53375579Y-3178229D01*
X53071771Y-2874421D01*
X52674825Y-2710000D01*
X52245175Y-2710000D01*
X51848229Y-2874421D01*
X51544421Y-3178229D01*
X51380000Y-3575175D01*
X8786251Y-3575175D01*
X8471037Y-2814182D01*
X7345818Y-1688963D01*
X5875650Y-1080000D01*
X4284350Y-1080000D01*
X2814182Y-1688963D01*
X1688963Y-2814182D01*
X1080000Y-4284350D01*
X786574Y-4284350D01*
X1049614Y-3649316D01*
X1537350Y-2853404D01*
X2143593Y-2143586D01*
X2853404Y-1537350D01*
X3649317Y-1049614D01*
X4511734Y-692389D01*
X5419408Y-474476D01*
X6365717Y-400000D01*
X51782650Y-400000D01*
X51544421Y-638229D01*
G36*
X83480592Y-474476D02*
X84388268Y-692390D01*
X85250684Y-1049614D01*
X86046596Y-1537350D01*
X86756414Y-2143593D01*
X87362650Y-2853404D01*
X87850386Y-3649317D01*
X88207611Y-4511734D01*
X88425524Y-5419408D01*
X88500000Y-6365717D01*
X88500000Y-16321211D01*
X88453583Y-16087856D01*
X88276767Y-15823233D01*
X88209972Y-15778602D01*
X80219999Y-7788629D01*
X80219999Y-6841334D01*
X80428963Y-7345818D01*
X81554182Y-8471037D01*
X83024350Y-9080000D01*
X84615650Y-9080000D01*
X86085818Y-8471037D01*
X87211037Y-7345818D01*
X87820000Y-5875650D01*
X87820000Y-4284350D01*
X87211037Y-2814182D01*
X86085818Y-1688963D01*
X84615650Y-1080000D01*
X83024350Y-1080000D01*
X81554182Y-1688963D01*
X80428963Y-2814182D01*
X80219999Y-3318666D01*
X80219999Y-2888783D01*
X80235670Y-2809999D01*
X80219999Y-2731215D01*
X80219999Y-2731210D01*
X80173582Y-2497855D01*
X80050334Y-2313402D01*
X80041396Y-2300025D01*
X80041395Y-2300024D01*
X79996766Y-2233232D01*
X79929974Y-2188603D01*
X78940000Y-1198630D01*
X78940000Y-1035175D01*
X78775579Y-638229D01*
X78537350Y-400000D01*
X82534283Y-400000D01*
X83480592Y-474476D01*
X83480592Y-474476D01*
G37*
X83480592Y-474476D02*
X84388268Y-692390D01*
X85250684Y-1049614D01*
X86046596Y-1537350D01*
X86756414Y-2143593D01*
X87362650Y-2853404D01*
X87850386Y-3649317D01*
X88207611Y-4511734D01*
X88425524Y-5419408D01*
X88500000Y-6365717D01*
X88500000Y-16321211D01*
X88453583Y-16087856D01*
X88276767Y-15823233D01*
X88209972Y-15778602D01*
X80219999Y-7788629D01*
X80219999Y-6841334D01*
X80428963Y-7345818D01*
X81554182Y-8471037D01*
X83024350Y-9080000D01*
X84615650Y-9080000D01*
X86085818Y-8471037D01*
X87211037Y-7345818D01*
X87820000Y-5875650D01*
X87820000Y-4284350D01*
X87211037Y-2814182D01*
X86085818Y-1688963D01*
X84615650Y-1080000D01*
X83024350Y-1080000D01*
X81554182Y-1688963D01*
X80428963Y-2814182D01*
X80219999Y-3318666D01*
X80219999Y-2888783D01*
X80235670Y-2809999D01*
X80219999Y-2731215D01*
X80219999Y-2731210D01*
X80173582Y-2497855D01*
X80050334Y-2313402D01*
X80041396Y-2300025D01*
X80041395Y-2300024D01*
X79996766Y-2233232D01*
X79929974Y-2188603D01*
X78940000Y-1198630D01*
X78940000Y-1035175D01*
X78775579Y-638229D01*
X78537350Y-400000D01*
X82534283Y-400000D01*
X83480592Y-474476D01*
G04 #@! TD*
M02*
