G04 #@! TF.GenerationSoftware,KiCad,Pcbnew,(5.0.0)*
G04 #@! TF.CreationDate,2018-12-05T14:54:44-08:00*
G04 #@! TF.ProjectId,TestPlatformBoard,54657374506C6174666F726D426F6172,rev?*
G04 #@! TF.SameCoordinates,Original*
G04 #@! TF.FileFunction,Soldermask,Bot*
G04 #@! TF.FilePolarity,Negative*
%FSLAX46Y46*%
G04 Gerber Fmt 4.6, Leading zero omitted, Abs format (unit mm)*
G04 Created by KiCad (PCBNEW (5.0.0)) date 12/05/18 14:54:44*
%MOMM*%
%LPD*%
G01*
G04 APERTURE LIST*
%ADD10C,1.960000*%
%ADD11R,1.960000X1.960000*%
%ADD12O,2.100000X2.100000*%
%ADD13R,2.100000X2.100000*%
%ADD14R,2.200000X2.200000*%
%ADD15C,2.200000*%
%ADD16R,1.900000X1.700000*%
%ADD17C,1.840000*%
%ADD18R,3.900000X3.900000*%
%ADD19C,4.100000*%
%ADD20C,3.600000*%
%ADD21O,1.900000X2.900000*%
%ADD22R,1.900000X2.900000*%
G04 APERTURE END LIST*
D10*
G04 #@! TO.C,U1*
X53400000Y-1440000D03*
X53400000Y-3980000D03*
X53400000Y-6520000D03*
X53400000Y-9060000D03*
X53400000Y-11600000D03*
X53400000Y-14140000D03*
X53400000Y-16680000D03*
X53400000Y-19220000D03*
X53400000Y-21760000D03*
X53400000Y-24300000D03*
X53400000Y-26840000D03*
X53400000Y-29380000D03*
X53400000Y-31920000D03*
X53400000Y-34460000D03*
X53400000Y-37000000D03*
X53400000Y-39540000D03*
X53400000Y-42080000D03*
X53400000Y-44620000D03*
X53400000Y-47160000D03*
X78800000Y-3980000D03*
X78800000Y-6520000D03*
X78800000Y-9060000D03*
X78800000Y-11600000D03*
X78800000Y-14140000D03*
X78800000Y-16680000D03*
X78800000Y-19220000D03*
X78800000Y-21760000D03*
X78800000Y-24300000D03*
X78800000Y-26840000D03*
X78800000Y-29380000D03*
X78800000Y-31920000D03*
X78800000Y-34460000D03*
X78800000Y-37000000D03*
X78800000Y-39540000D03*
X78800000Y-42080000D03*
X78800000Y-1440000D03*
X78800000Y-44620000D03*
D11*
X78800000Y-47160000D03*
G04 #@! TD*
D12*
G04 #@! TO.C,J1*
X85900000Y-60820000D03*
X85900000Y-58280000D03*
X85900000Y-55740000D03*
D13*
X85900000Y-53200000D03*
G04 #@! TD*
D12*
G04 #@! TO.C,J2*
X30800000Y-13640000D03*
D13*
X30800000Y-11100000D03*
G04 #@! TD*
D14*
G04 #@! TO.C,D4*
X16100000Y-18850000D03*
D15*
X18640000Y-18850000D03*
G04 #@! TD*
G04 #@! TO.C,D5*
X16100000Y-3175000D03*
D14*
X18640000Y-3175000D03*
G04 #@! TD*
D15*
G04 #@! TO.C,D7*
X22940000Y-72900000D03*
D14*
X20400000Y-72900000D03*
G04 #@! TD*
D12*
G04 #@! TO.C,J3*
X30800000Y-27880000D03*
X30800000Y-25340000D03*
D13*
X30800000Y-22800000D03*
G04 #@! TD*
D12*
G04 #@! TO.C,J5*
X57220000Y-74200000D03*
X59760000Y-74200000D03*
X62300000Y-74200000D03*
X64840000Y-74200000D03*
X67380000Y-74200000D03*
X69920000Y-74200000D03*
X72460000Y-74200000D03*
D13*
X75000000Y-74200000D03*
G04 #@! TD*
D16*
G04 #@! TO.C,R12*
X56300000Y-42200000D03*
X59000000Y-42200000D03*
G04 #@! TD*
D17*
G04 #@! TO.C,RV1*
X39580000Y-49400000D03*
X37040000Y-49400000D03*
X34500000Y-49400000D03*
G04 #@! TD*
D16*
G04 #@! TO.C,R13*
X58800000Y-34400000D03*
X56100000Y-34400000D03*
G04 #@! TD*
D17*
G04 #@! TO.C,RV2*
X28300000Y-49400000D03*
X25760000Y-49400000D03*
X23220000Y-49400000D03*
G04 #@! TD*
D18*
G04 #@! TO.C,J4*
X49600000Y-70000000D03*
X44900000Y-73000000D03*
X44900000Y-67000000D03*
G04 #@! TD*
D14*
G04 #@! TO.C,D1*
X16160000Y-34600000D03*
D15*
X18700000Y-34600000D03*
G04 #@! TD*
G04 #@! TO.C,D2*
X3175000Y-20140000D03*
D14*
X3175000Y-17600000D03*
G04 #@! TD*
D15*
G04 #@! TO.C,D3*
X30640000Y-72900000D03*
D14*
X28100000Y-72900000D03*
G04 #@! TD*
G04 #@! TO.C,D6*
X12700000Y-72900000D03*
D15*
X15240000Y-72900000D03*
G04 #@! TD*
D19*
G04 #@! TO.C,REF\002A\002A*
X83820000Y-5080000D03*
G04 #@! TD*
G04 #@! TO.C,REF\002A\002A*
X5080000Y-5080000D03*
G04 #@! TD*
G04 #@! TO.C,REF\002A\002A*
X5080000Y-71120000D03*
G04 #@! TD*
G04 #@! TO.C,REF\002A\002A*
X83820000Y-71120000D03*
G04 #@! TD*
D20*
G04 #@! TO.C,REF\002A\002A*
X10350000Y-10350000D03*
G04 #@! TD*
G04 #@! TO.C,REF\002A\002A*
X37350000Y-10350000D03*
G04 #@! TD*
G04 #@! TO.C,REF\002A\002A*
X10350000Y-27350000D03*
G04 #@! TD*
G04 #@! TO.C,REF\002A\002A*
X37350000Y-27350000D03*
G04 #@! TD*
D12*
G04 #@! TO.C,J6*
X64840000Y-70200000D03*
X67380000Y-70200000D03*
X69920000Y-70200000D03*
X72460000Y-70200000D03*
D13*
X75000000Y-70200000D03*
G04 #@! TD*
D12*
G04 #@! TO.C,J7*
X67380000Y-66200000D03*
X69920000Y-66200000D03*
X72460000Y-66200000D03*
D13*
X75000000Y-66200000D03*
G04 #@! TD*
D21*
G04 #@! TO.C,U2*
X58180000Y-63300000D03*
X55640000Y-63300000D03*
D22*
X53100000Y-63300000D03*
G04 #@! TD*
M02*
