G04 #@! TF.GenerationSoftware,KiCad,Pcbnew,(5.0.0)*
G04 #@! TF.CreationDate,2019-01-08T13:52:07-08:00*
G04 #@! TF.ProjectId,TestPlatformBoard,54657374506C6174666F726D426F6172,rev?*
G04 #@! TF.SameCoordinates,Original*
G04 #@! TF.FileFunction,Soldermask,Top*
G04 #@! TF.FilePolarity,Negative*
%FSLAX46Y46*%
G04 Gerber Fmt 4.6, Leading zero omitted, Abs format (unit mm)*
G04 Created by KiCad (PCBNEW (5.0.0)) date 01/08/19 13:52:07*
%MOMM*%
%LPD*%
G01*
G04 APERTURE LIST*
%ADD10C,1.960000*%
%ADD11R,1.960000X1.960000*%
%ADD12O,1.900000X2.900000*%
%ADD13R,1.900000X2.900000*%
%ADD14R,1.900000X1.700000*%
%ADD15R,1.200000X2.300000*%
%ADD16R,1.650000X1.900000*%
%ADD17R,1.700000X1.900000*%
%ADD18R,1.800000X0.850000*%
%ADD19R,1.925000X1.050000*%
%ADD20O,2.100000X2.100000*%
%ADD21R,2.100000X2.100000*%
%ADD22R,1.200000X1.400000*%
%ADD23R,1.000000X1.400000*%
%ADD24R,1.600000X2.600000*%
%ADD25R,6.200000X6.800000*%
%ADD26R,2.200000X2.200000*%
%ADD27C,2.200000*%
%ADD28R,1.900000X1.650000*%
%ADD29C,1.840000*%
%ADD30R,2.100000X2.400000*%
%ADD31R,1.543000X0.908000*%
%ADD32R,3.900000X3.900000*%
%ADD33R,2.400000X2.400000*%
%ADD34R,6.800000X6.200000*%
%ADD35R,2.600000X1.600000*%
%ADD36C,3.600000*%
%ADD37C,4.100000*%
G04 APERTURE END LIST*
D10*
G04 #@! TO.C,U1*
X53400000Y-1440000D03*
X53400000Y-3980000D03*
X53400000Y-6520000D03*
X53400000Y-9060000D03*
X53400000Y-11600000D03*
X53400000Y-14140000D03*
X53400000Y-16680000D03*
X53400000Y-19220000D03*
X53400000Y-21760000D03*
X53400000Y-24300000D03*
X53400000Y-26840000D03*
X53400000Y-29380000D03*
X53400000Y-31920000D03*
X53400000Y-34460000D03*
X53400000Y-37000000D03*
X53400000Y-39540000D03*
X53400000Y-42080000D03*
X53400000Y-44620000D03*
X53400000Y-47160000D03*
X78800000Y-3980000D03*
X78800000Y-6520000D03*
X78800000Y-9060000D03*
X78800000Y-11600000D03*
X78800000Y-14140000D03*
X78800000Y-16680000D03*
X78800000Y-19220000D03*
X78800000Y-21760000D03*
X78800000Y-24300000D03*
X78800000Y-26840000D03*
X78800000Y-29380000D03*
X78800000Y-31920000D03*
X78800000Y-34460000D03*
X78800000Y-37000000D03*
X78800000Y-39540000D03*
X78800000Y-42080000D03*
X78800000Y-1440000D03*
X78800000Y-44620000D03*
D11*
X78800000Y-47160000D03*
G04 #@! TD*
D12*
G04 #@! TO.C,U2*
X58180000Y-63300000D03*
X55640000Y-63300000D03*
D13*
X53100000Y-63300000D03*
G04 #@! TD*
D14*
G04 #@! TO.C,R4*
X76350000Y-27000000D03*
X73650000Y-27000000D03*
G04 #@! TD*
D15*
G04 #@! TO.C,Q1*
X12350000Y-56300000D03*
X14250000Y-56300000D03*
X13300000Y-53300000D03*
G04 #@! TD*
D16*
G04 #@! TO.C,C9*
X36800000Y-44350000D03*
X36800000Y-41850000D03*
G04 #@! TD*
G04 #@! TO.C,C10*
X26200000Y-42000000D03*
X26200000Y-44500000D03*
G04 #@! TD*
D14*
G04 #@! TO.C,R1*
X76350000Y-16700000D03*
X73650000Y-16700000D03*
G04 #@! TD*
D17*
G04 #@! TO.C,R5*
X27400000Y-68150000D03*
X27400000Y-65450000D03*
G04 #@! TD*
D14*
G04 #@! TO.C,R6*
X73650000Y-21800000D03*
X76350000Y-21800000D03*
G04 #@! TD*
G04 #@! TO.C,R2*
X76350000Y-11600000D03*
X73650000Y-11600000D03*
G04 #@! TD*
G04 #@! TO.C,R8*
X73650000Y-24300000D03*
X76350000Y-24300000D03*
G04 #@! TD*
D17*
G04 #@! TO.C,R7*
X12100000Y-68150000D03*
X12100000Y-65450000D03*
G04 #@! TD*
D14*
G04 #@! TO.C,R3*
X73780000Y-32170000D03*
X76480000Y-32170000D03*
G04 #@! TD*
D18*
G04 #@! TO.C,IC4*
X44300000Y-30200000D03*
X44300000Y-30850000D03*
X44300000Y-31500000D03*
X44300000Y-32150000D03*
X48700000Y-32150000D03*
X48700000Y-31500000D03*
X48700000Y-30850000D03*
X48700000Y-30200000D03*
G04 #@! TD*
D19*
G04 #@! TO.C,IC5*
X43988000Y-22295000D03*
X43988000Y-23565000D03*
X43988000Y-24835000D03*
X43988000Y-26105000D03*
X49412000Y-26105000D03*
X49412000Y-24835000D03*
X49412000Y-23565000D03*
X49412000Y-22295000D03*
G04 #@! TD*
D20*
G04 #@! TO.C,J1*
X85900000Y-60820000D03*
X85900000Y-58280000D03*
X85900000Y-55740000D03*
D21*
X85900000Y-53200000D03*
G04 #@! TD*
D20*
G04 #@! TO.C,J2*
X30800000Y-13640000D03*
D21*
X30800000Y-11100000D03*
G04 #@! TD*
D22*
G04 #@! TO.C,IC3*
X47350000Y-42900000D03*
D23*
X48300000Y-42900000D03*
D22*
X49250000Y-42900000D03*
X49250000Y-40500000D03*
X47350000Y-40500000D03*
G04 #@! TD*
D24*
G04 #@! TO.C,IC1*
X15680000Y-41300000D03*
X11120000Y-41300000D03*
D25*
X13400000Y-47600000D03*
G04 #@! TD*
G04 #@! TO.C,IC2*
X5400000Y-47600000D03*
D24*
X3120000Y-41300000D03*
X7680000Y-41300000D03*
G04 #@! TD*
D26*
G04 #@! TO.C,D4*
X16100000Y-18850000D03*
D27*
X18640000Y-18850000D03*
G04 #@! TD*
G04 #@! TO.C,D5*
X16100000Y-3175000D03*
D26*
X18640000Y-3175000D03*
G04 #@! TD*
D27*
G04 #@! TO.C,D7*
X20400000Y-72900000D03*
D26*
X22940000Y-72900000D03*
G04 #@! TD*
D16*
G04 #@! TO.C,C8*
X45300000Y-42950000D03*
X45300000Y-40450000D03*
G04 #@! TD*
D28*
G04 #@! TO.C,C6*
X45250000Y-34100000D03*
X47750000Y-34100000D03*
G04 #@! TD*
G04 #@! TO.C,C7*
X47700000Y-36100000D03*
X45200000Y-36100000D03*
G04 #@! TD*
G04 #@! TO.C,C5*
X49050000Y-45700000D03*
X46550000Y-45700000D03*
G04 #@! TD*
D14*
G04 #@! TO.C,JP1*
X46400000Y-47800000D03*
X49100000Y-47800000D03*
G04 #@! TD*
D20*
G04 #@! TO.C,J3*
X30800000Y-27880000D03*
X30800000Y-25340000D03*
D21*
X30800000Y-22800000D03*
G04 #@! TD*
D15*
G04 #@! TO.C,Q6*
X23100000Y-68300000D03*
X22150000Y-65300000D03*
X24050000Y-65300000D03*
G04 #@! TD*
G04 #@! TO.C,Q2*
X30800000Y-68300000D03*
X29850000Y-65300000D03*
X31750000Y-65300000D03*
G04 #@! TD*
D20*
G04 #@! TO.C,J5*
X57220000Y-74200000D03*
X59760000Y-74200000D03*
X62300000Y-74200000D03*
X64840000Y-74200000D03*
X67380000Y-74200000D03*
X69920000Y-74200000D03*
X72460000Y-74200000D03*
D21*
X75000000Y-74200000D03*
G04 #@! TD*
D15*
G04 #@! TO.C,Q5*
X4450000Y-56100000D03*
X6350000Y-56100000D03*
X5400000Y-53100000D03*
G04 #@! TD*
G04 #@! TO.C,Q4*
X15400000Y-68300000D03*
X14450000Y-65300000D03*
X16350000Y-65300000D03*
G04 #@! TD*
D28*
G04 #@! TO.C,C1*
X27350000Y-53100000D03*
X29850000Y-53100000D03*
G04 #@! TD*
D16*
G04 #@! TO.C,C4*
X45600000Y-57600000D03*
X45600000Y-60100000D03*
G04 #@! TD*
D28*
G04 #@! TO.C,C2*
X32950000Y-53100000D03*
X35450000Y-53100000D03*
G04 #@! TD*
D16*
G04 #@! TO.C,C3*
X48200000Y-60200000D03*
X48200000Y-57700000D03*
G04 #@! TD*
D29*
G04 #@! TO.C,RV1*
X39580000Y-49400000D03*
X37040000Y-49400000D03*
X34500000Y-49400000D03*
G04 #@! TD*
D30*
G04 #@! TO.C,R11*
X23800000Y-40300000D03*
X23800000Y-44300000D03*
G04 #@! TD*
D17*
G04 #@! TO.C,R9*
X19800000Y-68150000D03*
X19800000Y-65450000D03*
G04 #@! TD*
D30*
G04 #@! TO.C,R10*
X39200000Y-44100000D03*
X39200000Y-40100000D03*
G04 #@! TD*
D31*
G04 #@! TO.C,U3*
X34675000Y-45305000D03*
X34675000Y-44035000D03*
X34675000Y-42765000D03*
X34675000Y-41495000D03*
X28325000Y-41495000D03*
X28325000Y-42765000D03*
X28325000Y-44035000D03*
X28325000Y-45305000D03*
G04 #@! TD*
D29*
G04 #@! TO.C,RV2*
X28300000Y-49400000D03*
X25760000Y-49400000D03*
X23220000Y-49400000D03*
G04 #@! TD*
D32*
G04 #@! TO.C,J4*
X49600000Y-70000000D03*
X44900000Y-73000000D03*
X44900000Y-67000000D03*
G04 #@! TD*
D26*
G04 #@! TO.C,D1*
X16160000Y-34600000D03*
D27*
X18700000Y-34600000D03*
G04 #@! TD*
G04 #@! TO.C,D2*
X3175000Y-20140000D03*
D26*
X3175000Y-17600000D03*
G04 #@! TD*
D27*
G04 #@! TO.C,D3*
X28120000Y-72900000D03*
D26*
X30660000Y-72900000D03*
G04 #@! TD*
G04 #@! TO.C,D6*
X15280000Y-72900000D03*
D27*
X12740000Y-72900000D03*
G04 #@! TD*
D20*
G04 #@! TO.C,J6*
X64840000Y-70200000D03*
X67380000Y-70200000D03*
X69920000Y-70200000D03*
X72460000Y-70200000D03*
D21*
X75000000Y-70200000D03*
G04 #@! TD*
D20*
G04 #@! TO.C,J7*
X67380000Y-66200000D03*
X69920000Y-66200000D03*
X72460000Y-66200000D03*
D21*
X75000000Y-66200000D03*
G04 #@! TD*
D33*
G04 #@! TO.C,J8*
X45700000Y-53000000D03*
G04 #@! TD*
D15*
G04 #@! TO.C,Q3*
X37970000Y-1990000D03*
X38920000Y-4990000D03*
X37020000Y-4990000D03*
G04 #@! TD*
D34*
G04 #@! TO.C,Q7*
X47515001Y-4305001D03*
D35*
X41215001Y-6585001D03*
X41215001Y-2025001D03*
G04 #@! TD*
D17*
G04 #@! TO.C,R14*
X31950000Y-2810000D03*
X31950000Y-5510000D03*
G04 #@! TD*
G04 #@! TO.C,R15*
X34930000Y-2440000D03*
X34930000Y-5140000D03*
G04 #@! TD*
D36*
G04 #@! TO.C,MH1*
X10350000Y-10350000D03*
G04 #@! TD*
G04 #@! TO.C,MH2*
X37350000Y-10350000D03*
G04 #@! TD*
G04 #@! TO.C,MH3*
X37350000Y-27350000D03*
G04 #@! TD*
G04 #@! TO.C,MH4*
X10350000Y-27350000D03*
G04 #@! TD*
D37*
G04 #@! TO.C,MH5*
X5080000Y-5080000D03*
G04 #@! TD*
G04 #@! TO.C,MH6*
X83820000Y-5080000D03*
G04 #@! TD*
G04 #@! TO.C,MH7*
X83820000Y-71120000D03*
G04 #@! TD*
G04 #@! TO.C,MH8*
X5080000Y-71120000D03*
G04 #@! TD*
M02*
