G04 #@! TF.GenerationSoftware,KiCad,Pcbnew,(5.0.0)*
G04 #@! TF.CreationDate,2019-02-03T17:05:02-08:00*
G04 #@! TF.ProjectId,mlab100_Base_Panel_1.5,6D6C61623130305F426173655F50616E,rev?*
G04 #@! TF.SameCoordinates,Original*
G04 #@! TF.FileFunction,Copper,L2,Bot,Signal*
G04 #@! TF.FilePolarity,Positive*
%FSLAX46Y46*%
G04 Gerber Fmt 4.6, Leading zero omitted, Abs format (unit mm)*
G04 Created by KiCad (PCBNEW (5.0.0)) date 02/03/19 17:05:02*
%MOMM*%
%LPD*%
G01*
G04 APERTURE LIST*
G04 #@! TA.AperFunction,ComponentPad*
%ADD10R,1.560000X1.560000*%
G04 #@! TD*
G04 #@! TA.AperFunction,ComponentPad*
%ADD11C,1.560000*%
G04 #@! TD*
G04 #@! TA.AperFunction,ComponentPad*
%ADD12R,1.500000X2.500000*%
G04 #@! TD*
G04 #@! TA.AperFunction,ComponentPad*
%ADD13O,1.500000X2.500000*%
G04 #@! TD*
G04 #@! TA.AperFunction,ComponentPad*
%ADD14R,1.700000X1.700000*%
G04 #@! TD*
G04 #@! TA.AperFunction,ComponentPad*
%ADD15O,1.700000X1.700000*%
G04 #@! TD*
G04 #@! TA.AperFunction,ComponentPad*
%ADD16C,7.400000*%
G04 #@! TD*
G04 #@! TA.AperFunction,ComponentPad*
%ADD17R,3.500000X3.500000*%
G04 #@! TD*
G04 #@! TA.AperFunction,ViaPad*
%ADD18C,0.800000*%
G04 #@! TD*
G04 #@! TA.AperFunction,Conductor*
%ADD19C,1.000000*%
G04 #@! TD*
G04 #@! TA.AperFunction,Conductor*
%ADD20C,0.250000*%
G04 #@! TD*
G04 #@! TA.AperFunction,Conductor*
%ADD21C,0.200000*%
G04 #@! TD*
G04 #@! TA.AperFunction,Conductor*
%ADD22C,2.000000*%
G04 #@! TD*
G04 #@! TA.AperFunction,Conductor*
%ADD23C,0.254000*%
G04 #@! TD*
G04 APERTURE END LIST*
D10*
G04 #@! TO.P,U1,1*
G04 #@! TO.N,+3V3*
X77860000Y-46970000D03*
D11*
G04 #@! TO.P,U1,2*
G04 #@! TO.N,N/C*
X77860000Y-44430000D03*
G04 #@! TO.P,U1,19*
G04 #@! TO.N,+5V*
X77860000Y-1250000D03*
G04 #@! TO.P,U1,3*
G04 #@! TO.N,N/C*
X77860000Y-41890000D03*
G04 #@! TO.P,U1,4*
X77860000Y-39350000D03*
G04 #@! TO.P,U1,5*
G04 #@! TO.N,I34*
X77860000Y-36810000D03*
G04 #@! TO.P,U1,6*
G04 #@! TO.N,I35*
X77860000Y-34270000D03*
G04 #@! TO.P,U1,7*
G04 #@! TO.N,CTRL_Heater*
X77860000Y-31730000D03*
G04 #@! TO.P,U1,8*
G04 #@! TO.N,IO33*
X77860000Y-29190000D03*
G04 #@! TO.P,U1,9*
G04 #@! TO.N,LED_G*
X77860000Y-26650000D03*
G04 #@! TO.P,U1,10*
G04 #@! TO.N,LED_Y*
X77860000Y-24110000D03*
G04 #@! TO.P,U1,11*
G04 #@! TO.N,LED_R*
X77860000Y-21570000D03*
G04 #@! TO.P,U1,12*
G04 #@! TO.N,CTRL_3V3A*
X77860000Y-19030000D03*
G04 #@! TO.P,U1,13*
G04 #@! TO.N,CTRL_470nm*
X77860000Y-16490000D03*
G04 #@! TO.P,U1,14*
G04 #@! TO.N,GND*
X77860000Y-13950000D03*
G04 #@! TO.P,U1,15*
G04 #@! TO.N,N/C*
X77860000Y-11410000D03*
G04 #@! TO.P,U1,16*
X77860000Y-8870000D03*
G04 #@! TO.P,U1,17*
X77860000Y-6330000D03*
G04 #@! TO.P,U1,18*
X77860000Y-3790000D03*
G04 #@! TO.P,U1,20*
G04 #@! TO.N,GND*
X52460000Y-46970000D03*
G04 #@! TO.P,U1,21*
G04 #@! TO.N,SPI_MISO*
X52460000Y-44430000D03*
G04 #@! TO.P,U1,22*
G04 #@! TO.N,I2C_SCL*
X52460000Y-41890000D03*
G04 #@! TO.P,U1,23*
G04 #@! TO.N,N/C*
X52460000Y-39350000D03*
G04 #@! TO.P,U1,24*
X52460000Y-36810000D03*
G04 #@! TO.P,U1,25*
G04 #@! TO.N,I2C_SDA*
X52460000Y-34270000D03*
G04 #@! TO.P,U1,26*
G04 #@! TO.N,GND*
X52460000Y-31730000D03*
G04 #@! TO.P,U1,27*
G04 #@! TO.N,SPI_MOSI*
X52460000Y-29190000D03*
G04 #@! TO.P,U1,28*
G04 #@! TO.N,SPI_SCL*
X52460000Y-26650000D03*
G04 #@! TO.P,U1,29*
G04 #@! TO.N,SPI_CS_ADC*
X52460000Y-24110000D03*
G04 #@! TO.P,U1,30*
G04 #@! TO.N,IO17*
X52460000Y-21570000D03*
G04 #@! TO.P,U1,31*
G04 #@! TO.N,IO16*
X52460000Y-19030000D03*
G04 #@! TO.P,U1,32*
G04 #@! TO.N,IO4*
X52460000Y-16490000D03*
G04 #@! TO.P,U1,33*
G04 #@! TO.N,IO0*
X52460000Y-13950000D03*
G04 #@! TO.P,U1,34*
G04 #@! TO.N,IO2*
X52460000Y-11410000D03*
G04 #@! TO.P,U1,35*
G04 #@! TO.N,TEMP1W*
X52460000Y-8870000D03*
G04 #@! TO.P,U1,36*
G04 #@! TO.N,N/C*
X52460000Y-6330000D03*
G04 #@! TO.P,U1,37*
X52460000Y-3790000D03*
G04 #@! TO.P,U1,38*
X52460000Y-1250000D03*
G04 #@! TD*
D12*
G04 #@! TO.P,U2,1*
G04 #@! TO.N,+12V*
X53100000Y-63300000D03*
D13*
G04 #@! TO.P,U2,2*
G04 #@! TO.N,GND*
X55640000Y-63300000D03*
G04 #@! TO.P,U2,3*
G04 #@! TO.N,+5V*
X58180000Y-63300000D03*
G04 #@! TD*
D14*
G04 #@! TO.P,J1,1*
G04 #@! TO.N,GND*
X85900000Y-53200000D03*
D15*
G04 #@! TO.P,J1,2*
G04 #@! TO.N,+3V3*
X85900000Y-55740000D03*
G04 #@! TO.P,J1,3*
G04 #@! TO.N,+5V*
X85900000Y-58280000D03*
G04 #@! TO.P,J1,4*
G04 #@! TO.N,+12V*
X85900000Y-60820000D03*
G04 #@! TD*
D14*
G04 #@! TO.P,J5,1*
G04 #@! TO.N,I34*
X75000000Y-74200000D03*
D15*
G04 #@! TO.P,J5,2*
G04 #@! TO.N,I35*
X72460000Y-74200000D03*
G04 #@! TO.P,J5,3*
G04 #@! TO.N,IO33*
X69920000Y-74200000D03*
G04 #@! TO.P,J5,4*
G04 #@! TO.N,IO2*
X67380000Y-74200000D03*
G04 #@! TO.P,J5,5*
G04 #@! TO.N,IO0*
X64840000Y-74200000D03*
G04 #@! TO.P,J5,6*
G04 #@! TO.N,IO4*
X62300000Y-74200000D03*
G04 #@! TO.P,J5,7*
G04 #@! TO.N,IO16*
X59760000Y-74200000D03*
G04 #@! TO.P,J5,8*
G04 #@! TO.N,IO17*
X57220000Y-74200000D03*
G04 #@! TD*
D14*
G04 #@! TO.P,J7,1*
G04 #@! TO.N,GND*
X75000000Y-66200000D03*
D15*
G04 #@! TO.P,J7,2*
G04 #@! TO.N,I2C_SDA*
X72460000Y-66200000D03*
G04 #@! TO.P,J7,3*
G04 #@! TO.N,I2C_SCL*
X69920000Y-66200000D03*
G04 #@! TO.P,J7,4*
G04 #@! TO.N,+3V3*
X67380000Y-66200000D03*
G04 #@! TD*
G04 #@! TO.P,J2,12*
G04 #@! TO.N,+5V*
X20100000Y-31350000D03*
G04 #@! TO.P,J2,11*
G04 #@! TO.N,CTRL_Heater*
X17560000Y-31350000D03*
G04 #@! TO.P,J2,10*
G04 #@! TO.N,SPI_CS_ADC*
X20100000Y-28810000D03*
G04 #@! TO.P,J2,9*
G04 #@! TO.N,GND*
X17560000Y-28810000D03*
G04 #@! TO.P,J2,8*
G04 #@! TO.N,SPI_MOSI*
X20100000Y-26270000D03*
G04 #@! TO.P,J2,7*
G04 #@! TO.N,SPI_MISO*
X17560000Y-26270000D03*
G04 #@! TO.P,J2,6*
G04 #@! TO.N,CTRL_3V3A*
X20100000Y-23730000D03*
G04 #@! TO.P,J2,5*
G04 #@! TO.N,SPI_SCL*
X17560000Y-23730000D03*
G04 #@! TO.P,J2,4*
G04 #@! TO.N,+3V3*
X20100000Y-21190000D03*
G04 #@! TO.P,J2,3*
G04 #@! TO.N,TEMP1W*
X17560000Y-21190000D03*
G04 #@! TO.P,J2,2*
G04 #@! TO.N,+12V*
X20100000Y-18650000D03*
D14*
G04 #@! TO.P,J2,1*
G04 #@! TO.N,CTRL_470nm*
X17560000Y-18650000D03*
G04 #@! TD*
G04 #@! TO.P,J6,1*
G04 #@! TO.N,GND*
X75000000Y-70200000D03*
D15*
G04 #@! TO.P,J6,2*
G04 #@! TO.N,SPI_CS_ADC*
X72460000Y-70200000D03*
G04 #@! TO.P,J6,3*
G04 #@! TO.N,SPI_MISO*
X69920000Y-70200000D03*
G04 #@! TO.P,J6,4*
G04 #@! TO.N,SPI_MOSI*
X67380000Y-70200000D03*
G04 #@! TO.P,J6,5*
G04 #@! TO.N,SPI_SCL*
X64840000Y-70200000D03*
G04 #@! TO.P,J6,6*
G04 #@! TO.N,+3V3*
X62300000Y-70200000D03*
G04 #@! TD*
D16*
G04 #@! TO.P,MH1,1*
G04 #@! TO.N,N/C*
X5080000Y-5080000D03*
G04 #@! TD*
G04 #@! TO.P,MH2,1*
G04 #@! TO.N,N/C*
X5080000Y-71120000D03*
G04 #@! TD*
G04 #@! TO.P,MH3,1*
G04 #@! TO.N,N/C*
X83820000Y-71120000D03*
G04 #@! TD*
G04 #@! TO.P,MH4,1*
G04 #@! TO.N,N/C*
X83820000Y-5080000D03*
G04 #@! TD*
G04 #@! TO.P,MH5,1*
G04 #@! TO.N,N/C*
X38856400Y-33000000D03*
G04 #@! TD*
G04 #@! TO.P,MH6,1*
G04 #@! TO.N,N/C*
X11143600Y-33000000D03*
G04 #@! TD*
G04 #@! TO.P,MH7,1*
G04 #@! TO.N,N/C*
X25000000Y-9000000D03*
G04 #@! TD*
D17*
G04 #@! TO.P,J4,3*
G04 #@! TO.N,N/C*
X49600000Y-70000000D03*
G04 #@! TO.P,J4,2*
G04 #@! TO.N,GND*
X44900000Y-73000000D03*
G04 #@! TO.P,J4,1*
G04 #@! TO.N,+12V*
X44900000Y-67000000D03*
G04 #@! TD*
D18*
G04 #@! TO.N,+5V*
X26750000Y-62500000D03*
G04 #@! TO.N,GND*
X47600000Y-6600000D03*
X70300000Y-34300000D03*
X83800000Y-47100000D03*
X83900000Y-38600000D03*
X83500000Y-28700000D03*
X83400000Y-21200000D03*
X62800000Y-14100000D03*
X58300000Y-8100000D03*
X68200000Y-4300000D03*
X73500000Y-6700000D03*
X16490000Y-5000000D03*
X26850000Y-16700000D03*
X4400000Y-11400000D03*
X2400000Y-36100000D03*
X3200000Y-66200000D03*
X26980000Y-67730000D03*
X33790000Y-62680000D03*
X37100000Y-72100000D03*
X86090000Y-66130000D03*
X79300000Y-73700000D03*
X65200000Y-25800000D03*
X62800000Y-23100000D03*
X15400000Y-25300000D03*
X11000000Y-38200000D03*
X8750000Y-61000000D03*
X14200000Y-58700000D03*
X55700000Y-67000000D03*
X52870000Y-72210000D03*
X87500000Y-62500000D03*
X59200000Y-26150000D03*
X47840000Y-17660000D03*
X38030000Y-17600000D03*
X73060000Y-42130000D03*
X36230000Y-24360000D03*
X12970000Y-15650000D03*
X34980000Y-4430000D03*
X3750000Y-45000000D03*
X15750000Y-47250000D03*
X48219130Y-54519990D03*
X71010000Y-16510000D03*
X60002639Y-18737726D03*
X60350000Y-27270000D03*
X83110000Y-51340000D03*
X78200000Y-66110000D03*
X56882340Y-32097660D03*
X5700000Y-24700000D03*
X21750000Y-63000000D03*
X21000000Y-56250000D03*
X17250000Y-63500000D03*
X17500000Y-58750000D03*
X28500000Y-73250000D03*
X46500000Y-31250000D03*
X46000000Y-42750000D03*
X33500000Y-43750000D03*
X29000000Y-33000000D03*
X43250000Y-57750000D03*
X40250000Y-57750000D03*
X63710000Y-41540000D03*
X75290000Y-33260000D03*
X80400000Y-12600000D03*
X86580000Y-10850000D03*
X83440000Y-57650000D03*
X78520000Y-60710000D03*
X76540000Y-60630000D03*
X10050000Y-73470000D03*
X55670000Y-68310000D03*
X49530000Y-66294000D03*
G04 #@! TO.N,CTRL_3V3A*
X56640000Y-22530000D03*
X60530000Y-20900000D03*
G04 #@! TO.N,SPI_CS_ADC*
X64130000Y-66710000D03*
X54240000Y-26140000D03*
X50040000Y-26350000D03*
G04 #@! TO.N,SPI_SCL*
X61390000Y-68180000D03*
G04 #@! TO.N,+3V3*
X50930000Y-55620000D03*
X25750000Y-61250000D03*
X63000000Y-60250000D03*
G04 #@! TO.N,TEMP1W*
X49620000Y-21000000D03*
G04 #@! TO.N,I2C_SCL*
X73820000Y-61440000D03*
X49630000Y-56760000D03*
G04 #@! TO.N,I2C_SDA*
X74870000Y-61420000D03*
X50410000Y-57460000D03*
G04 #@! TO.N,IO0*
X59262721Y-46162730D03*
G04 #@! TO.N,IO2*
X59912653Y-44587347D03*
G04 #@! TO.N,IO4*
X58605551Y-45408972D03*
G04 #@! TO.N,IO16*
X57913046Y-44687543D03*
G04 #@! TO.N,IO17*
X57200000Y-43900000D03*
G04 #@! TO.N,IO33*
X79400000Y-57000000D03*
G04 #@! TO.N,I34*
X81600000Y-57000000D03*
G04 #@! TO.N,I35*
X80500000Y-57000000D03*
G04 #@! TO.N,CTRL_Heater*
X48600000Y-24910000D03*
G04 #@! TO.N,CTRL_470nm*
X61220000Y-19630000D03*
X50750000Y-20500000D03*
G04 #@! TO.N,SPI_MOSI*
X62709778Y-68114329D03*
X59990000Y-41770000D03*
X59760000Y-40130000D03*
G04 #@! TO.N,SPI_MISO*
X63383147Y-67375007D03*
X61040000Y-41460000D03*
X59740000Y-38950000D03*
G04 #@! TD*
D19*
G04 #@! TO.N,+5V*
X85900000Y-58280000D02*
X86780000Y-58280000D01*
X86780000Y-58280000D02*
X87700000Y-57360000D01*
X79419999Y-2809999D02*
X79419999Y-8119999D01*
X77860000Y-1250000D02*
X79419999Y-2809999D01*
X87700000Y-16400000D02*
X87700000Y-18580000D01*
X79419999Y-8119999D02*
X87700000Y-16400000D01*
X87700000Y-57360000D02*
X87700000Y-18580000D01*
X20100000Y-31350000D02*
X23000000Y-34250000D01*
X23000000Y-34250000D02*
X23000000Y-60250000D01*
X25250000Y-62500000D02*
X26750000Y-62500000D01*
X23000000Y-60250000D02*
X25250000Y-62500000D01*
D20*
G04 #@! TO.N,GND*
X47078085Y-64309159D02*
X46603084Y-63834158D01*
X46603084Y-63834158D02*
X46203085Y-63434159D01*
X47078085Y-68821915D02*
X47078085Y-64309159D01*
X44900000Y-71000000D02*
X47078085Y-68821915D01*
X44900000Y-73000000D02*
X44900000Y-71000000D01*
D21*
G04 #@! TO.N,CTRL_3V3A*
X56640000Y-22530000D02*
X58270000Y-20900000D01*
X58270000Y-20900000D02*
X60530000Y-20900000D01*
D20*
G04 #@! TO.N,SPI_CS_ADC*
X64130000Y-66710000D02*
X61760000Y-64340000D01*
X61750047Y-61780047D02*
X61750046Y-61663636D01*
X61760000Y-64340000D02*
X61760000Y-61790000D01*
X61760000Y-61790000D02*
X61750047Y-61780047D01*
X61750046Y-61663636D02*
X55600081Y-55513671D01*
X62050020Y-46946390D02*
X62050020Y-45129980D01*
X55600081Y-55513671D02*
X55600081Y-53396328D01*
X55600081Y-53396328D02*
X62050020Y-46946390D01*
X62050020Y-45129980D02*
X62050020Y-33950020D01*
X62050020Y-33950020D02*
X54240000Y-26140000D01*
D21*
X52280000Y-24110000D02*
X52460000Y-24110000D01*
X50040000Y-26350000D02*
X52280000Y-24110000D01*
D20*
G04 #@! TO.N,SPI_SCL*
X54250051Y-56076937D02*
X54250051Y-52837128D01*
X60400016Y-67218776D02*
X60400016Y-62226903D01*
X54250051Y-52837128D02*
X60690000Y-46397180D01*
X60690000Y-43543004D02*
X59264998Y-42118002D01*
X60915013Y-40157989D02*
X60915013Y-38415598D01*
X60690000Y-46397180D02*
X60690000Y-43543004D01*
X59264998Y-41421998D02*
X59831995Y-40855001D01*
X60324998Y-37825583D02*
X60324998Y-34514998D01*
X60915013Y-38415598D02*
X60324998Y-37825583D01*
X53239999Y-27429999D02*
X52460000Y-26650000D01*
X60218001Y-40855001D02*
X60915013Y-40157989D01*
X60400016Y-62226903D02*
X54250051Y-56076937D01*
X60324998Y-34514998D02*
X53239999Y-27429999D01*
X59831995Y-40855001D02*
X60218001Y-40855001D01*
X59264998Y-42118002D02*
X59264998Y-41421998D01*
X60400016Y-67218776D02*
X60428776Y-67218776D01*
X60428776Y-67218776D02*
X61390000Y-68180000D01*
D19*
G04 #@! TO.N,+3V3*
X77840000Y-55740000D02*
X67380000Y-66200000D01*
X85900000Y-55740000D02*
X77840000Y-55740000D01*
X77860000Y-48750000D02*
X77860000Y-46970000D01*
X84000001Y-54890001D02*
X77860000Y-48750000D01*
X85050001Y-54890001D02*
X84000001Y-54890001D01*
X85900000Y-55740000D02*
X85050001Y-54890001D01*
X66300000Y-66200000D02*
X67380000Y-66200000D01*
X62300000Y-70200000D02*
X66300000Y-66200000D01*
X66530001Y-65350001D02*
X67380000Y-66200000D01*
X20100000Y-21190000D02*
X24250000Y-25340000D01*
X24250000Y-25340000D02*
X24250000Y-33250000D01*
X24250000Y-33250000D02*
X24250000Y-58000000D01*
X24250000Y-58000000D02*
X24250000Y-59750000D01*
X24250000Y-59750000D02*
X25750000Y-61250000D01*
X63000000Y-61820000D02*
X67380000Y-66200000D01*
X63000000Y-60250000D02*
X63000000Y-61820000D01*
D21*
G04 #@! TO.N,TEMP1W*
X49620000Y-11710000D02*
X52460000Y-8870000D01*
X49620000Y-21000000D02*
X49620000Y-11710000D01*
D20*
G04 #@! TO.N,I2C_SCL*
X69920000Y-66200000D02*
X73820000Y-62300000D01*
X73820000Y-62300000D02*
X73820000Y-61440000D01*
X51680001Y-42669999D02*
X52460000Y-41890000D01*
X49230001Y-45119999D02*
X51680001Y-42669999D01*
X49230001Y-56360001D02*
X49230001Y-45119999D01*
X49630000Y-56760000D02*
X49230001Y-56360001D01*
G04 #@! TO.N,I2C_SDA*
X73309999Y-65350001D02*
X73309999Y-63470001D01*
X72460000Y-66200000D02*
X73309999Y-65350001D01*
X73309999Y-63470001D02*
X74870000Y-61910000D01*
X74870000Y-61910000D02*
X74870000Y-61420000D01*
X53640000Y-35450000D02*
X52460000Y-34270000D01*
X53640000Y-42345402D02*
X53640000Y-35450000D01*
X50410000Y-56510000D02*
X49690000Y-55790000D01*
X50410000Y-57460000D02*
X50410000Y-56510000D01*
X49690000Y-55790000D02*
X49690000Y-45310000D01*
X49690000Y-45310000D02*
X52004999Y-42995001D01*
X52004999Y-42995001D02*
X52990401Y-42995001D01*
X52990401Y-42995001D02*
X53640000Y-42345402D01*
D22*
G04 #@! TO.N,+12V*
X41150000Y-67000000D02*
X44900000Y-67000000D01*
X34000000Y-67000000D02*
X41150000Y-67000000D01*
X26000000Y-59000000D02*
X34000000Y-67000000D01*
X26000000Y-23347919D02*
X26000000Y-59000000D01*
X20100000Y-18650000D02*
X21302081Y-18650000D01*
X21302081Y-18650000D02*
X26000000Y-23347919D01*
D20*
G04 #@! TO.N,IO0*
X55400009Y-50309221D02*
X55529230Y-50180000D01*
X63990001Y-73350001D02*
X64840000Y-74200000D01*
X55529230Y-50180000D02*
X53350031Y-52359199D01*
X53350031Y-52359199D02*
X53350031Y-57747211D01*
X53350031Y-57747211D02*
X56746410Y-61143590D01*
X61903600Y-73010011D02*
X63650011Y-73010011D01*
X63650011Y-73010011D02*
X63990001Y-73350001D01*
X59500001Y-70606411D02*
X61903600Y-73010011D01*
X59500000Y-62599707D02*
X59500001Y-70606411D01*
X58043883Y-61143590D02*
X59500000Y-62599707D01*
X56746410Y-61143590D02*
X58043883Y-61143590D01*
X58862722Y-46562729D02*
X59262721Y-46162730D01*
X55529230Y-49896221D02*
X58862722Y-46562729D01*
X55529230Y-50180000D02*
X55529230Y-49896221D01*
G04 #@! TO.N,IO2*
X59912653Y-44587347D02*
X59912653Y-45153032D01*
X62090000Y-72560000D02*
X65740000Y-72560000D01*
X59950010Y-70420010D02*
X62090000Y-72560000D01*
X59950010Y-62413307D02*
X59950010Y-70420010D01*
X60025001Y-45265380D02*
X60025001Y-46425769D01*
X65740000Y-72560000D02*
X66530001Y-73350001D01*
X66530001Y-73350001D02*
X67380000Y-74200000D01*
X53800040Y-56263337D02*
X59950010Y-62413307D01*
X53800040Y-52650728D02*
X53800040Y-56263337D01*
X60025001Y-46425769D02*
X53800040Y-52650728D01*
X59912653Y-45153032D02*
X60025001Y-45265380D01*
G04 #@! TO.N,IO4*
X52900021Y-52172799D02*
X53866401Y-51206419D01*
X62300000Y-74200000D02*
X56900000Y-68800000D01*
X53866401Y-51206419D02*
X54660000Y-50412820D01*
X56900000Y-68800000D02*
X56900000Y-61933590D01*
X56900000Y-61933590D02*
X52900021Y-57933611D01*
X54400006Y-50672814D02*
X54660000Y-50412820D01*
X52900021Y-57933611D02*
X52900021Y-52172799D01*
X54660000Y-50412820D02*
X54660000Y-49354523D01*
X58205552Y-45808971D02*
X58605551Y-45408972D01*
X54660000Y-49354523D02*
X58205552Y-45808971D01*
G04 #@! TO.N,IO16*
X54448001Y-68888001D02*
X59760000Y-74200000D01*
X54448001Y-60118001D02*
X52450011Y-58120011D01*
X54448001Y-60200000D02*
X54448001Y-60118001D01*
X54448001Y-60200000D02*
X54448001Y-68888001D01*
X52450011Y-51986399D02*
X53680000Y-50756410D01*
X52450011Y-58120011D02*
X52450011Y-51986399D01*
X53400003Y-51036407D02*
X53680000Y-50756410D01*
X53680000Y-50756410D02*
X53680000Y-48920589D01*
X53680000Y-48920589D02*
X57513047Y-45087542D01*
X57513047Y-45087542D02*
X57913046Y-44687543D01*
G04 #@! TO.N,IO17*
X52000001Y-49099999D02*
X56800001Y-44299999D01*
X56800001Y-44299999D02*
X57200000Y-43900000D01*
X52000001Y-68980001D02*
X52000001Y-49099999D01*
X57220000Y-74200000D02*
X52000001Y-68980001D01*
G04 #@! TO.N,IO33*
X71095001Y-73024999D02*
X72998591Y-73024999D01*
X78500000Y-68863590D02*
X80600000Y-66763590D01*
X72998591Y-73024999D02*
X73923590Y-72100000D01*
X73923590Y-72100000D02*
X76800000Y-72100000D01*
X69920000Y-74200000D02*
X71095001Y-73024999D01*
X76800000Y-72100000D02*
X78500000Y-70300000D01*
X80600000Y-66763590D02*
X80600000Y-58200000D01*
X78500000Y-70300000D02*
X78500000Y-68863590D01*
X80600000Y-58200000D02*
X79400000Y-57000000D01*
G04 #@! TO.N,I34*
X79500000Y-69200000D02*
X81600000Y-67100000D01*
X81600000Y-67100000D02*
X81600000Y-57000000D01*
X79500000Y-70800000D02*
X79500000Y-69200000D01*
X75000000Y-74200000D02*
X76100000Y-74200000D01*
X76100000Y-74200000D02*
X79500000Y-70800000D01*
G04 #@! TO.N,I35*
X77000000Y-72600000D02*
X79049990Y-70550010D01*
X72460000Y-74200000D02*
X74060000Y-72600000D01*
X74060000Y-72600000D02*
X77000000Y-72600000D01*
X79049990Y-70550010D02*
X79049990Y-68950010D01*
X79049990Y-68950010D02*
X81100000Y-66900000D01*
X81100000Y-66900000D02*
X81100000Y-57600000D01*
X81100000Y-57600000D02*
X80500000Y-57000000D01*
D21*
G04 #@! TO.N,CTRL_Heater*
X49165685Y-24910000D02*
X51235685Y-22840000D01*
X48600000Y-24910000D02*
X49165685Y-24910000D01*
X76756914Y-31730000D02*
X77860000Y-31730000D01*
X61678402Y-31730000D02*
X76756914Y-31730000D01*
X52788402Y-22840000D02*
X61678402Y-31730000D01*
X51235685Y-22840000D02*
X52788402Y-22840000D01*
G04 #@! TO.N,CTRL_470nm*
X60820001Y-20029999D02*
X61220000Y-19630000D01*
X60739999Y-20110001D02*
X60820001Y-20029999D01*
X51705684Y-20110001D02*
X60739999Y-20110001D01*
X51315685Y-20500000D02*
X51705684Y-20110001D01*
X50750000Y-20500000D02*
X51315685Y-20500000D01*
D20*
G04 #@! TO.N,SPI_MOSI*
X54700061Y-55890538D02*
X54700060Y-53023529D01*
X60850027Y-62040504D02*
X54700061Y-55890538D01*
X60850027Y-66254578D02*
X60850027Y-62040504D01*
X61150000Y-46573590D02*
X61150000Y-43860000D01*
X54700060Y-53023529D02*
X61150000Y-46573590D01*
X62709778Y-68114329D02*
X60850027Y-66254578D01*
X61150000Y-42930000D02*
X59990000Y-41770000D01*
X61150000Y-43860000D02*
X61150000Y-42930000D01*
X53239999Y-29969999D02*
X52460000Y-29190000D01*
X59760000Y-37896996D02*
X59760000Y-36490000D01*
X59760000Y-40130000D02*
X60465002Y-39424998D01*
X60465002Y-39424998D02*
X60465002Y-38601998D01*
X60465002Y-38601998D02*
X59760000Y-37896996D01*
X59760000Y-36490000D02*
X53239999Y-29969999D01*
G04 #@! TO.N,SPI_MISO*
X62817462Y-67375007D02*
X61300037Y-65857582D01*
X63383147Y-67375007D02*
X62817462Y-67375007D01*
X61300037Y-65857582D02*
X61300037Y-61850037D01*
X61300037Y-61850037D02*
X55150071Y-55700071D01*
X55150071Y-53209928D02*
X61600010Y-46759990D01*
X55150071Y-55700071D02*
X55150071Y-53209928D01*
X61600010Y-46759990D02*
X61600010Y-44100000D01*
X61600010Y-44100000D02*
X61600010Y-42020010D01*
X61600010Y-42020010D02*
X61040000Y-41460000D01*
X54260000Y-44430000D02*
X59740000Y-38950000D01*
X52460000Y-44430000D02*
X54260000Y-44430000D01*
G04 #@! TD*
D23*
G04 #@! TO.N,GND*
G36*
X79485000Y-71982285D02*
X80144964Y-73575580D01*
X81364420Y-74795036D01*
X82908294Y-75434529D01*
X82521125Y-75465000D01*
X76336413Y-75465000D01*
X76448157Y-75297765D01*
X76497440Y-75050000D01*
X76497440Y-74848483D01*
X76647929Y-74747929D01*
X76690331Y-74684470D01*
X79485000Y-71889802D01*
X79485000Y-71982285D01*
X79485000Y-71982285D01*
G37*
X79485000Y-71982285D02*
X80144964Y-73575580D01*
X81364420Y-74795036D01*
X82908294Y-75434529D01*
X82521125Y-75465000D01*
X76336413Y-75465000D01*
X76448157Y-75297765D01*
X76497440Y-75050000D01*
X76497440Y-74848483D01*
X76647929Y-74747929D01*
X76690331Y-74684470D01*
X79485000Y-71889802D01*
X79485000Y-71982285D01*
G36*
X51045000Y-968539D02*
X51045000Y-1531461D01*
X51260421Y-2051533D01*
X51658467Y-2449579D01*
X51828478Y-2520000D01*
X51658467Y-2590421D01*
X51260421Y-2988467D01*
X51045000Y-3508539D01*
X51045000Y-4071461D01*
X51260421Y-4591533D01*
X51658467Y-4989579D01*
X51828478Y-5060000D01*
X51658467Y-5130421D01*
X51260421Y-5528467D01*
X51045000Y-6048539D01*
X51045000Y-6611461D01*
X51260421Y-7131533D01*
X51658467Y-7529579D01*
X51828478Y-7600000D01*
X51658467Y-7670421D01*
X51260421Y-8068467D01*
X51045000Y-8588539D01*
X51045000Y-9151461D01*
X51072559Y-9217994D01*
X49151463Y-11139091D01*
X49090096Y-11180095D01*
X49049092Y-11241462D01*
X49049091Y-11241463D01*
X48927646Y-11423218D01*
X48870602Y-11710000D01*
X48885001Y-11782389D01*
X48885000Y-20271289D01*
X48742569Y-20413720D01*
X48585000Y-20794126D01*
X48585000Y-21205874D01*
X48742569Y-21586280D01*
X49033720Y-21877431D01*
X49414126Y-22035000D01*
X49825874Y-22035000D01*
X50206280Y-21877431D01*
X50497431Y-21586280D01*
X50522399Y-21526001D01*
X50544126Y-21535000D01*
X50955874Y-21535000D01*
X51045000Y-21498083D01*
X51045000Y-21851461D01*
X51151030Y-22107440D01*
X50948902Y-22147646D01*
X50705780Y-22310095D01*
X50664775Y-22371463D01*
X49057155Y-23979084D01*
X48805874Y-23875000D01*
X48394126Y-23875000D01*
X48013720Y-24032569D01*
X47722569Y-24323720D01*
X47565000Y-24704126D01*
X47565000Y-25115874D01*
X47722569Y-25496280D01*
X48013720Y-25787431D01*
X48394126Y-25945000D01*
X48805874Y-25945000D01*
X49145803Y-25804197D01*
X49005000Y-26144126D01*
X49005000Y-26555874D01*
X49162569Y-26936280D01*
X49453720Y-27227431D01*
X49834126Y-27385000D01*
X50245874Y-27385000D01*
X50626280Y-27227431D01*
X50917431Y-26936280D01*
X51045000Y-26628301D01*
X51045000Y-26931461D01*
X51260421Y-27451533D01*
X51658467Y-27849579D01*
X51828478Y-27920000D01*
X51658467Y-27990421D01*
X51260421Y-28388467D01*
X51045000Y-28908539D01*
X51045000Y-29471461D01*
X51260421Y-29991533D01*
X51658467Y-30389579D01*
X51812722Y-30453473D01*
X51718028Y-30492697D01*
X51646350Y-30736745D01*
X52460000Y-31550395D01*
X52474143Y-31536253D01*
X52653748Y-31715858D01*
X52639605Y-31730000D01*
X53453255Y-32543650D01*
X53697303Y-32471972D01*
X53887060Y-31941997D01*
X53874196Y-31678997D01*
X59000001Y-36804803D01*
X59000000Y-37822149D01*
X58985112Y-37896996D01*
X59000000Y-37971843D01*
X59000000Y-37971847D01*
X59042215Y-38184074D01*
X58862569Y-38363720D01*
X58705000Y-38744126D01*
X58705000Y-38910197D01*
X53945199Y-43670000D01*
X53676783Y-43670000D01*
X53659579Y-43628467D01*
X53552634Y-43521522D01*
X53580732Y-43479471D01*
X54124473Y-42935731D01*
X54187929Y-42893331D01*
X54293112Y-42735914D01*
X54355904Y-42641940D01*
X54365480Y-42593797D01*
X54400000Y-42420254D01*
X54400000Y-42420250D01*
X54414888Y-42345402D01*
X54400000Y-42270554D01*
X54400000Y-35524846D01*
X54414888Y-35449999D01*
X54400000Y-35375152D01*
X54400000Y-35375148D01*
X54355904Y-35153463D01*
X54187929Y-34902071D01*
X54124473Y-34859671D01*
X53857796Y-34592995D01*
X53875000Y-34551461D01*
X53875000Y-33988539D01*
X53659579Y-33468467D01*
X53261533Y-33070421D01*
X53107278Y-33006527D01*
X53201972Y-32967303D01*
X53273650Y-32723255D01*
X52460000Y-31909605D01*
X51646350Y-32723255D01*
X51718028Y-32967303D01*
X51819609Y-33003674D01*
X51658467Y-33070421D01*
X51260421Y-33468467D01*
X51045000Y-33988539D01*
X51045000Y-34551461D01*
X51260421Y-35071533D01*
X51658467Y-35469579D01*
X51828478Y-35540000D01*
X51658467Y-35610421D01*
X51260421Y-36008467D01*
X51045000Y-36528539D01*
X51045000Y-37091461D01*
X51260421Y-37611533D01*
X51658467Y-38009579D01*
X51828478Y-38080000D01*
X51658467Y-38150421D01*
X51260421Y-38548467D01*
X51045000Y-39068539D01*
X51045000Y-39631461D01*
X51260421Y-40151533D01*
X51658467Y-40549579D01*
X51828478Y-40620000D01*
X51658467Y-40690421D01*
X51260421Y-41088467D01*
X51045000Y-41608539D01*
X51045000Y-42171461D01*
X51062204Y-42212994D01*
X48745529Y-44529670D01*
X48682073Y-44572070D01*
X48639673Y-44635526D01*
X48639672Y-44635527D01*
X48514098Y-44823462D01*
X48455113Y-45119999D01*
X48470002Y-45194851D01*
X48470001Y-56285154D01*
X48455113Y-56360001D01*
X48470001Y-56434848D01*
X48470001Y-56434852D01*
X48514097Y-56656537D01*
X48595000Y-56777617D01*
X48595000Y-56965874D01*
X48752569Y-57346280D01*
X49043720Y-57637431D01*
X49424126Y-57795000D01*
X49428486Y-57795000D01*
X49532569Y-58046280D01*
X49823720Y-58337431D01*
X50204126Y-58495000D01*
X50615874Y-58495000D01*
X50646219Y-58482431D01*
X50644353Y-59682156D01*
X50654020Y-59730955D01*
X50681550Y-59772157D01*
X50722752Y-59799687D01*
X50771353Y-59809354D01*
X51240001Y-59809354D01*
X51240001Y-67602560D01*
X47850000Y-67602560D01*
X47602235Y-67651843D01*
X47392191Y-67792191D01*
X47297440Y-67933995D01*
X47297440Y-65250000D01*
X47248157Y-65002235D01*
X47107809Y-64792191D01*
X46897765Y-64651843D01*
X46650000Y-64602560D01*
X43150000Y-64602560D01*
X42902235Y-64651843D01*
X42692191Y-64792191D01*
X42551843Y-65002235D01*
X42502560Y-65250000D01*
X42502560Y-65365000D01*
X34677239Y-65365000D01*
X27635000Y-58322762D01*
X27635000Y-32137715D01*
X34521400Y-32137715D01*
X34521400Y-33862285D01*
X35181364Y-35455580D01*
X36400820Y-36675036D01*
X37994115Y-37335000D01*
X39718685Y-37335000D01*
X41311980Y-36675036D01*
X42531436Y-35455580D01*
X43191400Y-33862285D01*
X43191400Y-32137715D01*
X42934708Y-31518003D01*
X51032940Y-31518003D01*
X51060441Y-32080252D01*
X51222697Y-32471972D01*
X51466745Y-32543650D01*
X52280395Y-31730000D01*
X51466745Y-30916350D01*
X51222697Y-30988028D01*
X51032940Y-31518003D01*
X42934708Y-31518003D01*
X42531436Y-30544420D01*
X41311980Y-29324964D01*
X39718685Y-28665000D01*
X37994115Y-28665000D01*
X36400820Y-29324964D01*
X35181364Y-30544420D01*
X34521400Y-32137715D01*
X27635000Y-32137715D01*
X27635000Y-23508950D01*
X27667031Y-23347919D01*
X27540136Y-22709973D01*
X27287021Y-22331161D01*
X27178769Y-22169150D01*
X27042253Y-22077933D01*
X22572069Y-17607750D01*
X22480850Y-17471231D01*
X21940026Y-17109864D01*
X21463112Y-17015000D01*
X21463111Y-17015000D01*
X21302081Y-16982969D01*
X21141051Y-17015000D01*
X19938969Y-17015000D01*
X19462055Y-17109864D01*
X18943907Y-17456079D01*
X18867809Y-17342191D01*
X18657765Y-17201843D01*
X18410000Y-17152560D01*
X16710000Y-17152560D01*
X16462235Y-17201843D01*
X16252191Y-17342191D01*
X16111843Y-17552235D01*
X16062560Y-17800000D01*
X16062560Y-19500000D01*
X16111843Y-19747765D01*
X16252191Y-19957809D01*
X16462235Y-20098157D01*
X16507619Y-20107184D01*
X16489375Y-20119375D01*
X16161161Y-20610582D01*
X16045908Y-21190000D01*
X16161161Y-21769418D01*
X16489375Y-22260625D01*
X16787761Y-22460000D01*
X16489375Y-22659375D01*
X16161161Y-23150582D01*
X16045908Y-23730000D01*
X16161161Y-24309418D01*
X16489375Y-24800625D01*
X16787761Y-25000000D01*
X16489375Y-25199375D01*
X16161161Y-25690582D01*
X16045908Y-26270000D01*
X16161161Y-26849418D01*
X16489375Y-27340625D01*
X16808478Y-27553843D01*
X16678642Y-27614817D01*
X16288355Y-28043076D01*
X16118524Y-28453110D01*
X16239845Y-28683000D01*
X17433000Y-28683000D01*
X17433000Y-28663000D01*
X17687000Y-28663000D01*
X17687000Y-28683000D01*
X17707000Y-28683000D01*
X17707000Y-28937000D01*
X17687000Y-28937000D01*
X17687000Y-28957000D01*
X17433000Y-28957000D01*
X17433000Y-28937000D01*
X16239845Y-28937000D01*
X16118524Y-29166890D01*
X16288355Y-29576924D01*
X16678642Y-30005183D01*
X16808478Y-30066157D01*
X16489375Y-30279375D01*
X16161161Y-30770582D01*
X16045908Y-31350000D01*
X16161161Y-31929418D01*
X16489375Y-32420625D01*
X16980582Y-32748839D01*
X17413744Y-32835000D01*
X17706256Y-32835000D01*
X18139418Y-32748839D01*
X18630625Y-32420625D01*
X18830000Y-32122239D01*
X19029375Y-32420625D01*
X19520582Y-32748839D01*
X19953744Y-32835000D01*
X19979869Y-32835000D01*
X21865000Y-34720132D01*
X21865001Y-60138212D01*
X21842765Y-60250000D01*
X21930854Y-60692854D01*
X21967654Y-60747929D01*
X22181712Y-61068289D01*
X22276479Y-61131611D01*
X24368391Y-63223524D01*
X24431711Y-63318289D01*
X24526476Y-63381609D01*
X24807145Y-63569146D01*
X25250000Y-63657235D01*
X25361783Y-63635000D01*
X26861783Y-63635000D01*
X27192855Y-63569146D01*
X27568289Y-63318289D01*
X27743632Y-63055870D01*
X32730014Y-68042253D01*
X32821231Y-68178769D01*
X33362055Y-68540136D01*
X33838969Y-68635000D01*
X33838973Y-68635000D01*
X33999999Y-68667030D01*
X34161025Y-68635000D01*
X42502560Y-68635000D01*
X42502560Y-68750000D01*
X42551843Y-68997765D01*
X42692191Y-69207809D01*
X42902235Y-69348157D01*
X43150000Y-69397440D01*
X46650000Y-69397440D01*
X46897765Y-69348157D01*
X47107809Y-69207809D01*
X47202560Y-69066005D01*
X47202560Y-70924663D01*
X47188327Y-70890302D01*
X47009699Y-70711673D01*
X46776310Y-70615000D01*
X45185750Y-70615000D01*
X45027000Y-70773750D01*
X45027000Y-72873000D01*
X47126250Y-72873000D01*
X47285000Y-72714250D01*
X47285000Y-72047388D01*
X47392191Y-72207809D01*
X47602235Y-72348157D01*
X47850000Y-72397440D01*
X51350000Y-72397440D01*
X51597765Y-72348157D01*
X51807809Y-72207809D01*
X51948157Y-71997765D01*
X51997440Y-71750000D01*
X51997440Y-70052241D01*
X55778791Y-73833593D01*
X55705908Y-74200000D01*
X55821161Y-74779418D01*
X56149375Y-75270625D01*
X56440278Y-75465000D01*
X6378876Y-75465000D01*
X5991706Y-75434529D01*
X7535580Y-74795036D01*
X8755036Y-73575580D01*
X8875087Y-73285750D01*
X42515000Y-73285750D01*
X42515000Y-74876309D01*
X42611673Y-75109698D01*
X42790301Y-75288327D01*
X43023690Y-75385000D01*
X44614250Y-75385000D01*
X44773000Y-75226250D01*
X44773000Y-73127000D01*
X45027000Y-73127000D01*
X45027000Y-75226250D01*
X45185750Y-75385000D01*
X46776310Y-75385000D01*
X47009699Y-75288327D01*
X47188327Y-75109698D01*
X47285000Y-74876309D01*
X47285000Y-73285750D01*
X47126250Y-73127000D01*
X45027000Y-73127000D01*
X44773000Y-73127000D01*
X42673750Y-73127000D01*
X42515000Y-73285750D01*
X8875087Y-73285750D01*
X9415000Y-71982285D01*
X9415000Y-71123691D01*
X42515000Y-71123691D01*
X42515000Y-72714250D01*
X42673750Y-72873000D01*
X44773000Y-72873000D01*
X44773000Y-70773750D01*
X44614250Y-70615000D01*
X43023690Y-70615000D01*
X42790301Y-70711673D01*
X42611673Y-70890302D01*
X42515000Y-71123691D01*
X9415000Y-71123691D01*
X9415000Y-70257715D01*
X8755036Y-68664420D01*
X7535580Y-67444964D01*
X5942285Y-66785000D01*
X4217715Y-66785000D01*
X2624420Y-67444964D01*
X1404964Y-68664420D01*
X765471Y-70208294D01*
X735000Y-69821125D01*
X735000Y-32137715D01*
X6808600Y-32137715D01*
X6808600Y-33862285D01*
X7468564Y-35455580D01*
X8688020Y-36675036D01*
X10281315Y-37335000D01*
X12005885Y-37335000D01*
X13599180Y-36675036D01*
X14818636Y-35455580D01*
X15478600Y-33862285D01*
X15478600Y-32137715D01*
X14818636Y-30544420D01*
X13599180Y-29324964D01*
X12005885Y-28665000D01*
X10281315Y-28665000D01*
X8688020Y-29324964D01*
X7468564Y-30544420D01*
X6808600Y-32137715D01*
X735000Y-32137715D01*
X735000Y-6378875D01*
X765471Y-5991706D01*
X1404964Y-7535580D01*
X2624420Y-8755036D01*
X4217715Y-9415000D01*
X5942285Y-9415000D01*
X7535580Y-8755036D01*
X8152901Y-8137715D01*
X20665000Y-8137715D01*
X20665000Y-9862285D01*
X21324964Y-11455580D01*
X22544420Y-12675036D01*
X24137715Y-13335000D01*
X25862285Y-13335000D01*
X27455580Y-12675036D01*
X28675036Y-11455580D01*
X29335000Y-9862285D01*
X29335000Y-8137715D01*
X28675036Y-6544420D01*
X27455580Y-5324964D01*
X25862285Y-4665000D01*
X24137715Y-4665000D01*
X22544420Y-5324964D01*
X21324964Y-6544420D01*
X20665000Y-8137715D01*
X8152901Y-8137715D01*
X8755036Y-7535580D01*
X9415000Y-5942285D01*
X9415000Y-4217715D01*
X8755036Y-2624420D01*
X7535580Y-1404964D01*
X5991706Y-765471D01*
X6378876Y-735000D01*
X51141735Y-735000D01*
X51045000Y-968539D01*
X51045000Y-968539D01*
G37*
X51045000Y-968539D02*
X51045000Y-1531461D01*
X51260421Y-2051533D01*
X51658467Y-2449579D01*
X51828478Y-2520000D01*
X51658467Y-2590421D01*
X51260421Y-2988467D01*
X51045000Y-3508539D01*
X51045000Y-4071461D01*
X51260421Y-4591533D01*
X51658467Y-4989579D01*
X51828478Y-5060000D01*
X51658467Y-5130421D01*
X51260421Y-5528467D01*
X51045000Y-6048539D01*
X51045000Y-6611461D01*
X51260421Y-7131533D01*
X51658467Y-7529579D01*
X51828478Y-7600000D01*
X51658467Y-7670421D01*
X51260421Y-8068467D01*
X51045000Y-8588539D01*
X51045000Y-9151461D01*
X51072559Y-9217994D01*
X49151463Y-11139091D01*
X49090096Y-11180095D01*
X49049092Y-11241462D01*
X49049091Y-11241463D01*
X48927646Y-11423218D01*
X48870602Y-11710000D01*
X48885001Y-11782389D01*
X48885000Y-20271289D01*
X48742569Y-20413720D01*
X48585000Y-20794126D01*
X48585000Y-21205874D01*
X48742569Y-21586280D01*
X49033720Y-21877431D01*
X49414126Y-22035000D01*
X49825874Y-22035000D01*
X50206280Y-21877431D01*
X50497431Y-21586280D01*
X50522399Y-21526001D01*
X50544126Y-21535000D01*
X50955874Y-21535000D01*
X51045000Y-21498083D01*
X51045000Y-21851461D01*
X51151030Y-22107440D01*
X50948902Y-22147646D01*
X50705780Y-22310095D01*
X50664775Y-22371463D01*
X49057155Y-23979084D01*
X48805874Y-23875000D01*
X48394126Y-23875000D01*
X48013720Y-24032569D01*
X47722569Y-24323720D01*
X47565000Y-24704126D01*
X47565000Y-25115874D01*
X47722569Y-25496280D01*
X48013720Y-25787431D01*
X48394126Y-25945000D01*
X48805874Y-25945000D01*
X49145803Y-25804197D01*
X49005000Y-26144126D01*
X49005000Y-26555874D01*
X49162569Y-26936280D01*
X49453720Y-27227431D01*
X49834126Y-27385000D01*
X50245874Y-27385000D01*
X50626280Y-27227431D01*
X50917431Y-26936280D01*
X51045000Y-26628301D01*
X51045000Y-26931461D01*
X51260421Y-27451533D01*
X51658467Y-27849579D01*
X51828478Y-27920000D01*
X51658467Y-27990421D01*
X51260421Y-28388467D01*
X51045000Y-28908539D01*
X51045000Y-29471461D01*
X51260421Y-29991533D01*
X51658467Y-30389579D01*
X51812722Y-30453473D01*
X51718028Y-30492697D01*
X51646350Y-30736745D01*
X52460000Y-31550395D01*
X52474143Y-31536253D01*
X52653748Y-31715858D01*
X52639605Y-31730000D01*
X53453255Y-32543650D01*
X53697303Y-32471972D01*
X53887060Y-31941997D01*
X53874196Y-31678997D01*
X59000001Y-36804803D01*
X59000000Y-37822149D01*
X58985112Y-37896996D01*
X59000000Y-37971843D01*
X59000000Y-37971847D01*
X59042215Y-38184074D01*
X58862569Y-38363720D01*
X58705000Y-38744126D01*
X58705000Y-38910197D01*
X53945199Y-43670000D01*
X53676783Y-43670000D01*
X53659579Y-43628467D01*
X53552634Y-43521522D01*
X53580732Y-43479471D01*
X54124473Y-42935731D01*
X54187929Y-42893331D01*
X54293112Y-42735914D01*
X54355904Y-42641940D01*
X54365480Y-42593797D01*
X54400000Y-42420254D01*
X54400000Y-42420250D01*
X54414888Y-42345402D01*
X54400000Y-42270554D01*
X54400000Y-35524846D01*
X54414888Y-35449999D01*
X54400000Y-35375152D01*
X54400000Y-35375148D01*
X54355904Y-35153463D01*
X54187929Y-34902071D01*
X54124473Y-34859671D01*
X53857796Y-34592995D01*
X53875000Y-34551461D01*
X53875000Y-33988539D01*
X53659579Y-33468467D01*
X53261533Y-33070421D01*
X53107278Y-33006527D01*
X53201972Y-32967303D01*
X53273650Y-32723255D01*
X52460000Y-31909605D01*
X51646350Y-32723255D01*
X51718028Y-32967303D01*
X51819609Y-33003674D01*
X51658467Y-33070421D01*
X51260421Y-33468467D01*
X51045000Y-33988539D01*
X51045000Y-34551461D01*
X51260421Y-35071533D01*
X51658467Y-35469579D01*
X51828478Y-35540000D01*
X51658467Y-35610421D01*
X51260421Y-36008467D01*
X51045000Y-36528539D01*
X51045000Y-37091461D01*
X51260421Y-37611533D01*
X51658467Y-38009579D01*
X51828478Y-38080000D01*
X51658467Y-38150421D01*
X51260421Y-38548467D01*
X51045000Y-39068539D01*
X51045000Y-39631461D01*
X51260421Y-40151533D01*
X51658467Y-40549579D01*
X51828478Y-40620000D01*
X51658467Y-40690421D01*
X51260421Y-41088467D01*
X51045000Y-41608539D01*
X51045000Y-42171461D01*
X51062204Y-42212994D01*
X48745529Y-44529670D01*
X48682073Y-44572070D01*
X48639673Y-44635526D01*
X48639672Y-44635527D01*
X48514098Y-44823462D01*
X48455113Y-45119999D01*
X48470002Y-45194851D01*
X48470001Y-56285154D01*
X48455113Y-56360001D01*
X48470001Y-56434848D01*
X48470001Y-56434852D01*
X48514097Y-56656537D01*
X48595000Y-56777617D01*
X48595000Y-56965874D01*
X48752569Y-57346280D01*
X49043720Y-57637431D01*
X49424126Y-57795000D01*
X49428486Y-57795000D01*
X49532569Y-58046280D01*
X49823720Y-58337431D01*
X50204126Y-58495000D01*
X50615874Y-58495000D01*
X50646219Y-58482431D01*
X50644353Y-59682156D01*
X50654020Y-59730955D01*
X50681550Y-59772157D01*
X50722752Y-59799687D01*
X50771353Y-59809354D01*
X51240001Y-59809354D01*
X51240001Y-67602560D01*
X47850000Y-67602560D01*
X47602235Y-67651843D01*
X47392191Y-67792191D01*
X47297440Y-67933995D01*
X47297440Y-65250000D01*
X47248157Y-65002235D01*
X47107809Y-64792191D01*
X46897765Y-64651843D01*
X46650000Y-64602560D01*
X43150000Y-64602560D01*
X42902235Y-64651843D01*
X42692191Y-64792191D01*
X42551843Y-65002235D01*
X42502560Y-65250000D01*
X42502560Y-65365000D01*
X34677239Y-65365000D01*
X27635000Y-58322762D01*
X27635000Y-32137715D01*
X34521400Y-32137715D01*
X34521400Y-33862285D01*
X35181364Y-35455580D01*
X36400820Y-36675036D01*
X37994115Y-37335000D01*
X39718685Y-37335000D01*
X41311980Y-36675036D01*
X42531436Y-35455580D01*
X43191400Y-33862285D01*
X43191400Y-32137715D01*
X42934708Y-31518003D01*
X51032940Y-31518003D01*
X51060441Y-32080252D01*
X51222697Y-32471972D01*
X51466745Y-32543650D01*
X52280395Y-31730000D01*
X51466745Y-30916350D01*
X51222697Y-30988028D01*
X51032940Y-31518003D01*
X42934708Y-31518003D01*
X42531436Y-30544420D01*
X41311980Y-29324964D01*
X39718685Y-28665000D01*
X37994115Y-28665000D01*
X36400820Y-29324964D01*
X35181364Y-30544420D01*
X34521400Y-32137715D01*
X27635000Y-32137715D01*
X27635000Y-23508950D01*
X27667031Y-23347919D01*
X27540136Y-22709973D01*
X27287021Y-22331161D01*
X27178769Y-22169150D01*
X27042253Y-22077933D01*
X22572069Y-17607750D01*
X22480850Y-17471231D01*
X21940026Y-17109864D01*
X21463112Y-17015000D01*
X21463111Y-17015000D01*
X21302081Y-16982969D01*
X21141051Y-17015000D01*
X19938969Y-17015000D01*
X19462055Y-17109864D01*
X18943907Y-17456079D01*
X18867809Y-17342191D01*
X18657765Y-17201843D01*
X18410000Y-17152560D01*
X16710000Y-17152560D01*
X16462235Y-17201843D01*
X16252191Y-17342191D01*
X16111843Y-17552235D01*
X16062560Y-17800000D01*
X16062560Y-19500000D01*
X16111843Y-19747765D01*
X16252191Y-19957809D01*
X16462235Y-20098157D01*
X16507619Y-20107184D01*
X16489375Y-20119375D01*
X16161161Y-20610582D01*
X16045908Y-21190000D01*
X16161161Y-21769418D01*
X16489375Y-22260625D01*
X16787761Y-22460000D01*
X16489375Y-22659375D01*
X16161161Y-23150582D01*
X16045908Y-23730000D01*
X16161161Y-24309418D01*
X16489375Y-24800625D01*
X16787761Y-25000000D01*
X16489375Y-25199375D01*
X16161161Y-25690582D01*
X16045908Y-26270000D01*
X16161161Y-26849418D01*
X16489375Y-27340625D01*
X16808478Y-27553843D01*
X16678642Y-27614817D01*
X16288355Y-28043076D01*
X16118524Y-28453110D01*
X16239845Y-28683000D01*
X17433000Y-28683000D01*
X17433000Y-28663000D01*
X17687000Y-28663000D01*
X17687000Y-28683000D01*
X17707000Y-28683000D01*
X17707000Y-28937000D01*
X17687000Y-28937000D01*
X17687000Y-28957000D01*
X17433000Y-28957000D01*
X17433000Y-28937000D01*
X16239845Y-28937000D01*
X16118524Y-29166890D01*
X16288355Y-29576924D01*
X16678642Y-30005183D01*
X16808478Y-30066157D01*
X16489375Y-30279375D01*
X16161161Y-30770582D01*
X16045908Y-31350000D01*
X16161161Y-31929418D01*
X16489375Y-32420625D01*
X16980582Y-32748839D01*
X17413744Y-32835000D01*
X17706256Y-32835000D01*
X18139418Y-32748839D01*
X18630625Y-32420625D01*
X18830000Y-32122239D01*
X19029375Y-32420625D01*
X19520582Y-32748839D01*
X19953744Y-32835000D01*
X19979869Y-32835000D01*
X21865000Y-34720132D01*
X21865001Y-60138212D01*
X21842765Y-60250000D01*
X21930854Y-60692854D01*
X21967654Y-60747929D01*
X22181712Y-61068289D01*
X22276479Y-61131611D01*
X24368391Y-63223524D01*
X24431711Y-63318289D01*
X24526476Y-63381609D01*
X24807145Y-63569146D01*
X25250000Y-63657235D01*
X25361783Y-63635000D01*
X26861783Y-63635000D01*
X27192855Y-63569146D01*
X27568289Y-63318289D01*
X27743632Y-63055870D01*
X32730014Y-68042253D01*
X32821231Y-68178769D01*
X33362055Y-68540136D01*
X33838969Y-68635000D01*
X33838973Y-68635000D01*
X33999999Y-68667030D01*
X34161025Y-68635000D01*
X42502560Y-68635000D01*
X42502560Y-68750000D01*
X42551843Y-68997765D01*
X42692191Y-69207809D01*
X42902235Y-69348157D01*
X43150000Y-69397440D01*
X46650000Y-69397440D01*
X46897765Y-69348157D01*
X47107809Y-69207809D01*
X47202560Y-69066005D01*
X47202560Y-70924663D01*
X47188327Y-70890302D01*
X47009699Y-70711673D01*
X46776310Y-70615000D01*
X45185750Y-70615000D01*
X45027000Y-70773750D01*
X45027000Y-72873000D01*
X47126250Y-72873000D01*
X47285000Y-72714250D01*
X47285000Y-72047388D01*
X47392191Y-72207809D01*
X47602235Y-72348157D01*
X47850000Y-72397440D01*
X51350000Y-72397440D01*
X51597765Y-72348157D01*
X51807809Y-72207809D01*
X51948157Y-71997765D01*
X51997440Y-71750000D01*
X51997440Y-70052241D01*
X55778791Y-73833593D01*
X55705908Y-74200000D01*
X55821161Y-74779418D01*
X56149375Y-75270625D01*
X56440278Y-75465000D01*
X6378876Y-75465000D01*
X5991706Y-75434529D01*
X7535580Y-74795036D01*
X8755036Y-73575580D01*
X8875087Y-73285750D01*
X42515000Y-73285750D01*
X42515000Y-74876309D01*
X42611673Y-75109698D01*
X42790301Y-75288327D01*
X43023690Y-75385000D01*
X44614250Y-75385000D01*
X44773000Y-75226250D01*
X44773000Y-73127000D01*
X45027000Y-73127000D01*
X45027000Y-75226250D01*
X45185750Y-75385000D01*
X46776310Y-75385000D01*
X47009699Y-75288327D01*
X47188327Y-75109698D01*
X47285000Y-74876309D01*
X47285000Y-73285750D01*
X47126250Y-73127000D01*
X45027000Y-73127000D01*
X44773000Y-73127000D01*
X42673750Y-73127000D01*
X42515000Y-73285750D01*
X8875087Y-73285750D01*
X9415000Y-71982285D01*
X9415000Y-71123691D01*
X42515000Y-71123691D01*
X42515000Y-72714250D01*
X42673750Y-72873000D01*
X44773000Y-72873000D01*
X44773000Y-70773750D01*
X44614250Y-70615000D01*
X43023690Y-70615000D01*
X42790301Y-70711673D01*
X42611673Y-70890302D01*
X42515000Y-71123691D01*
X9415000Y-71123691D01*
X9415000Y-70257715D01*
X8755036Y-68664420D01*
X7535580Y-67444964D01*
X5942285Y-66785000D01*
X4217715Y-66785000D01*
X2624420Y-67444964D01*
X1404964Y-68664420D01*
X765471Y-70208294D01*
X735000Y-69821125D01*
X735000Y-32137715D01*
X6808600Y-32137715D01*
X6808600Y-33862285D01*
X7468564Y-35455580D01*
X8688020Y-36675036D01*
X10281315Y-37335000D01*
X12005885Y-37335000D01*
X13599180Y-36675036D01*
X14818636Y-35455580D01*
X15478600Y-33862285D01*
X15478600Y-32137715D01*
X14818636Y-30544420D01*
X13599180Y-29324964D01*
X12005885Y-28665000D01*
X10281315Y-28665000D01*
X8688020Y-29324964D01*
X7468564Y-30544420D01*
X6808600Y-32137715D01*
X735000Y-32137715D01*
X735000Y-6378875D01*
X765471Y-5991706D01*
X1404964Y-7535580D01*
X2624420Y-8755036D01*
X4217715Y-9415000D01*
X5942285Y-9415000D01*
X7535580Y-8755036D01*
X8152901Y-8137715D01*
X20665000Y-8137715D01*
X20665000Y-9862285D01*
X21324964Y-11455580D01*
X22544420Y-12675036D01*
X24137715Y-13335000D01*
X25862285Y-13335000D01*
X27455580Y-12675036D01*
X28675036Y-11455580D01*
X29335000Y-9862285D01*
X29335000Y-8137715D01*
X28675036Y-6544420D01*
X27455580Y-5324964D01*
X25862285Y-4665000D01*
X24137715Y-4665000D01*
X22544420Y-5324964D01*
X21324964Y-6544420D01*
X20665000Y-8137715D01*
X8152901Y-8137715D01*
X8755036Y-7535580D01*
X9415000Y-5942285D01*
X9415000Y-4217715D01*
X8755036Y-2624420D01*
X7535580Y-1404964D01*
X5991706Y-765471D01*
X6378876Y-735000D01*
X51141735Y-735000D01*
X51045000Y-968539D01*
G36*
X55767000Y-63173000D02*
X55787000Y-63173000D01*
X55787000Y-63427000D01*
X55767000Y-63427000D01*
X55767000Y-65019656D01*
X55981185Y-65142318D01*
X56052684Y-65128173D01*
X56140001Y-65080743D01*
X56140000Y-68725153D01*
X56125112Y-68800000D01*
X56140000Y-68874847D01*
X56140000Y-68874851D01*
X56184096Y-69096536D01*
X56352071Y-69347929D01*
X56415530Y-69390331D01*
X59740198Y-72715000D01*
X59613744Y-72715000D01*
X59393593Y-72758791D01*
X55208001Y-68573200D01*
X55208001Y-65117681D01*
X55227316Y-65128173D01*
X55298815Y-65142318D01*
X55513000Y-65019656D01*
X55513000Y-63427000D01*
X55493000Y-63427000D01*
X55493000Y-63173000D01*
X55513000Y-63173000D01*
X55513000Y-63153000D01*
X55767000Y-63153000D01*
X55767000Y-63173000D01*
X55767000Y-63173000D01*
G37*
X55767000Y-63173000D02*
X55787000Y-63173000D01*
X55787000Y-63427000D01*
X55767000Y-63427000D01*
X55767000Y-65019656D01*
X55981185Y-65142318D01*
X56052684Y-65128173D01*
X56140001Y-65080743D01*
X56140000Y-68725153D01*
X56125112Y-68800000D01*
X56140000Y-68874847D01*
X56140000Y-68874851D01*
X56184096Y-69096536D01*
X56352071Y-69347929D01*
X56415530Y-69390331D01*
X59740198Y-72715000D01*
X59613744Y-72715000D01*
X59393593Y-72758791D01*
X55208001Y-68573200D01*
X55208001Y-65117681D01*
X55227316Y-65128173D01*
X55298815Y-65142318D01*
X55513000Y-65019656D01*
X55513000Y-63427000D01*
X55493000Y-63427000D01*
X55493000Y-63173000D01*
X55513000Y-63173000D01*
X55513000Y-63153000D01*
X55767000Y-63153000D01*
X55767000Y-63173000D01*
G36*
X79840001Y-58514803D02*
X79840000Y-66448787D01*
X78015528Y-68273261D01*
X77952072Y-68315661D01*
X77909672Y-68379117D01*
X77909671Y-68379118D01*
X77802083Y-68540135D01*
X77784097Y-68567053D01*
X77747707Y-68750000D01*
X77725112Y-68863590D01*
X77740001Y-68938441D01*
X77740000Y-69997840D01*
X76472405Y-71340000D01*
X76417197Y-71340000D01*
X76485000Y-71176309D01*
X76485000Y-70485750D01*
X76326250Y-70327000D01*
X75127000Y-70327000D01*
X75127000Y-70347000D01*
X74873000Y-70347000D01*
X74873000Y-70327000D01*
X74853000Y-70327000D01*
X74853000Y-70073000D01*
X74873000Y-70073000D01*
X74873000Y-68873750D01*
X75127000Y-68873750D01*
X75127000Y-70073000D01*
X76326250Y-70073000D01*
X76485000Y-69914250D01*
X76485000Y-69223691D01*
X76388327Y-68990302D01*
X76209699Y-68811673D01*
X75976310Y-68715000D01*
X75285750Y-68715000D01*
X75127000Y-68873750D01*
X74873000Y-68873750D01*
X74714250Y-68715000D01*
X74023690Y-68715000D01*
X73790301Y-68811673D01*
X73611673Y-68990302D01*
X73545096Y-69151033D01*
X73530625Y-69129375D01*
X73039418Y-68801161D01*
X72606256Y-68715000D01*
X72313744Y-68715000D01*
X71880582Y-68801161D01*
X71389375Y-69129375D01*
X71190000Y-69427761D01*
X70990625Y-69129375D01*
X70499418Y-68801161D01*
X70066256Y-68715000D01*
X69773744Y-68715000D01*
X69340582Y-68801161D01*
X68849375Y-69129375D01*
X68650000Y-69427761D01*
X68450625Y-69129375D01*
X67959418Y-68801161D01*
X67526256Y-68715000D01*
X67233744Y-68715000D01*
X66800582Y-68801161D01*
X66309375Y-69129375D01*
X66110000Y-69427761D01*
X65910625Y-69129375D01*
X65419418Y-68801161D01*
X65323124Y-68782007D01*
X66624169Y-67480963D01*
X66800582Y-67598839D01*
X67233744Y-67685000D01*
X67526256Y-67685000D01*
X67959418Y-67598839D01*
X68450625Y-67270625D01*
X68650000Y-66972239D01*
X68849375Y-67270625D01*
X69340582Y-67598839D01*
X69773744Y-67685000D01*
X70066256Y-67685000D01*
X70499418Y-67598839D01*
X70990625Y-67270625D01*
X71190000Y-66972239D01*
X71389375Y-67270625D01*
X71880582Y-67598839D01*
X72313744Y-67685000D01*
X72606256Y-67685000D01*
X73039418Y-67598839D01*
X73530625Y-67270625D01*
X73545096Y-67248967D01*
X73611673Y-67409698D01*
X73790301Y-67588327D01*
X74023690Y-67685000D01*
X74714250Y-67685000D01*
X74873000Y-67526250D01*
X74873000Y-66327000D01*
X75127000Y-66327000D01*
X75127000Y-67526250D01*
X75285750Y-67685000D01*
X75976310Y-67685000D01*
X76209699Y-67588327D01*
X76388327Y-67409698D01*
X76485000Y-67176309D01*
X76485000Y-66485750D01*
X76326250Y-66327000D01*
X75127000Y-66327000D01*
X74873000Y-66327000D01*
X74853000Y-66327000D01*
X74853000Y-66073000D01*
X74873000Y-66073000D01*
X74873000Y-64873750D01*
X75127000Y-64873750D01*
X75127000Y-66073000D01*
X76326250Y-66073000D01*
X76485000Y-65914250D01*
X76485000Y-65223691D01*
X76388327Y-64990302D01*
X76209699Y-64811673D01*
X75976310Y-64715000D01*
X75285750Y-64715000D01*
X75127000Y-64873750D01*
X74873000Y-64873750D01*
X74714250Y-64715000D01*
X74069999Y-64715000D01*
X74069999Y-63784802D01*
X75354473Y-62500329D01*
X75417929Y-62457929D01*
X75585904Y-62206537D01*
X75595521Y-62158190D01*
X75747431Y-62006280D01*
X75905000Y-61625874D01*
X75905000Y-61214126D01*
X75747431Y-60833720D01*
X75456280Y-60542569D01*
X75075874Y-60385000D01*
X74800132Y-60385000D01*
X75375778Y-59809354D01*
X79521353Y-59809354D01*
X79570105Y-59799624D01*
X79611272Y-59772040D01*
X79638748Y-59730803D01*
X79648353Y-59682190D01*
X79646594Y-58321396D01*
X79840001Y-58514803D01*
X79840001Y-58514803D01*
G37*
X79840001Y-58514803D02*
X79840000Y-66448787D01*
X78015528Y-68273261D01*
X77952072Y-68315661D01*
X77909672Y-68379117D01*
X77909671Y-68379118D01*
X77802083Y-68540135D01*
X77784097Y-68567053D01*
X77747707Y-68750000D01*
X77725112Y-68863590D01*
X77740001Y-68938441D01*
X77740000Y-69997840D01*
X76472405Y-71340000D01*
X76417197Y-71340000D01*
X76485000Y-71176309D01*
X76485000Y-70485750D01*
X76326250Y-70327000D01*
X75127000Y-70327000D01*
X75127000Y-70347000D01*
X74873000Y-70347000D01*
X74873000Y-70327000D01*
X74853000Y-70327000D01*
X74853000Y-70073000D01*
X74873000Y-70073000D01*
X74873000Y-68873750D01*
X75127000Y-68873750D01*
X75127000Y-70073000D01*
X76326250Y-70073000D01*
X76485000Y-69914250D01*
X76485000Y-69223691D01*
X76388327Y-68990302D01*
X76209699Y-68811673D01*
X75976310Y-68715000D01*
X75285750Y-68715000D01*
X75127000Y-68873750D01*
X74873000Y-68873750D01*
X74714250Y-68715000D01*
X74023690Y-68715000D01*
X73790301Y-68811673D01*
X73611673Y-68990302D01*
X73545096Y-69151033D01*
X73530625Y-69129375D01*
X73039418Y-68801161D01*
X72606256Y-68715000D01*
X72313744Y-68715000D01*
X71880582Y-68801161D01*
X71389375Y-69129375D01*
X71190000Y-69427761D01*
X70990625Y-69129375D01*
X70499418Y-68801161D01*
X70066256Y-68715000D01*
X69773744Y-68715000D01*
X69340582Y-68801161D01*
X68849375Y-69129375D01*
X68650000Y-69427761D01*
X68450625Y-69129375D01*
X67959418Y-68801161D01*
X67526256Y-68715000D01*
X67233744Y-68715000D01*
X66800582Y-68801161D01*
X66309375Y-69129375D01*
X66110000Y-69427761D01*
X65910625Y-69129375D01*
X65419418Y-68801161D01*
X65323124Y-68782007D01*
X66624169Y-67480963D01*
X66800582Y-67598839D01*
X67233744Y-67685000D01*
X67526256Y-67685000D01*
X67959418Y-67598839D01*
X68450625Y-67270625D01*
X68650000Y-66972239D01*
X68849375Y-67270625D01*
X69340582Y-67598839D01*
X69773744Y-67685000D01*
X70066256Y-67685000D01*
X70499418Y-67598839D01*
X70990625Y-67270625D01*
X71190000Y-66972239D01*
X71389375Y-67270625D01*
X71880582Y-67598839D01*
X72313744Y-67685000D01*
X72606256Y-67685000D01*
X73039418Y-67598839D01*
X73530625Y-67270625D01*
X73545096Y-67248967D01*
X73611673Y-67409698D01*
X73790301Y-67588327D01*
X74023690Y-67685000D01*
X74714250Y-67685000D01*
X74873000Y-67526250D01*
X74873000Y-66327000D01*
X75127000Y-66327000D01*
X75127000Y-67526250D01*
X75285750Y-67685000D01*
X75976310Y-67685000D01*
X76209699Y-67588327D01*
X76388327Y-67409698D01*
X76485000Y-67176309D01*
X76485000Y-66485750D01*
X76326250Y-66327000D01*
X75127000Y-66327000D01*
X74873000Y-66327000D01*
X74853000Y-66327000D01*
X74853000Y-66073000D01*
X74873000Y-66073000D01*
X74873000Y-64873750D01*
X75127000Y-64873750D01*
X75127000Y-66073000D01*
X76326250Y-66073000D01*
X76485000Y-65914250D01*
X76485000Y-65223691D01*
X76388327Y-64990302D01*
X76209699Y-64811673D01*
X75976310Y-64715000D01*
X75285750Y-64715000D01*
X75127000Y-64873750D01*
X74873000Y-64873750D01*
X74714250Y-64715000D01*
X74069999Y-64715000D01*
X74069999Y-63784802D01*
X75354473Y-62500329D01*
X75417929Y-62457929D01*
X75585904Y-62206537D01*
X75595521Y-62158190D01*
X75747431Y-62006280D01*
X75905000Y-61625874D01*
X75905000Y-61214126D01*
X75747431Y-60833720D01*
X75456280Y-60542569D01*
X75075874Y-60385000D01*
X74800132Y-60385000D01*
X75375778Y-59809354D01*
X79521353Y-59809354D01*
X79570105Y-59799624D01*
X79611272Y-59772040D01*
X79638748Y-59730803D01*
X79648353Y-59682190D01*
X79646594Y-58321396D01*
X79840001Y-58514803D01*
G36*
X85127761Y-57010000D02*
X84829375Y-57209375D01*
X84501161Y-57700582D01*
X84385908Y-58280000D01*
X84501161Y-58859418D01*
X84829375Y-59350625D01*
X85127761Y-59550000D01*
X84829375Y-59749375D01*
X84501161Y-60240582D01*
X84385908Y-60820000D01*
X84501161Y-61399418D01*
X84829375Y-61890625D01*
X85320582Y-62218839D01*
X85753744Y-62305000D01*
X86046256Y-62305000D01*
X86479418Y-62218839D01*
X86970625Y-61890625D01*
X87298839Y-61399418D01*
X87414092Y-60820000D01*
X87298839Y-60240582D01*
X86970625Y-59749375D01*
X86672239Y-59550000D01*
X86866862Y-59419957D01*
X86891783Y-59415000D01*
X87222855Y-59349146D01*
X87598289Y-59098289D01*
X87661612Y-59003519D01*
X88165001Y-58500131D01*
X88165001Y-69821112D01*
X88134529Y-70208294D01*
X87495036Y-68664420D01*
X86275580Y-67444964D01*
X84682285Y-66785000D01*
X82957715Y-66785000D01*
X82361365Y-67032016D01*
X82360000Y-67025154D01*
X82360000Y-57703711D01*
X82477431Y-57586280D01*
X82635000Y-57205874D01*
X82635000Y-56875000D01*
X84925719Y-56875000D01*
X85127761Y-57010000D01*
X85127761Y-57010000D01*
G37*
X85127761Y-57010000D02*
X84829375Y-57209375D01*
X84501161Y-57700582D01*
X84385908Y-58280000D01*
X84501161Y-58859418D01*
X84829375Y-59350625D01*
X85127761Y-59550000D01*
X84829375Y-59749375D01*
X84501161Y-60240582D01*
X84385908Y-60820000D01*
X84501161Y-61399418D01*
X84829375Y-61890625D01*
X85320582Y-62218839D01*
X85753744Y-62305000D01*
X86046256Y-62305000D01*
X86479418Y-62218839D01*
X86970625Y-61890625D01*
X87298839Y-61399418D01*
X87414092Y-60820000D01*
X87298839Y-60240582D01*
X86970625Y-59749375D01*
X86672239Y-59550000D01*
X86866862Y-59419957D01*
X86891783Y-59415000D01*
X87222855Y-59349146D01*
X87598289Y-59098289D01*
X87661612Y-59003519D01*
X88165001Y-58500131D01*
X88165001Y-69821112D01*
X88134529Y-70208294D01*
X87495036Y-68664420D01*
X86275580Y-67444964D01*
X84682285Y-66785000D01*
X82957715Y-66785000D01*
X82361365Y-67032016D01*
X82360000Y-67025154D01*
X82360000Y-57703711D01*
X82477431Y-57586280D01*
X82635000Y-57205874D01*
X82635000Y-56875000D01*
X84925719Y-56875000D01*
X85127761Y-57010000D01*
G36*
X76445000Y-968539D02*
X76445000Y-1531461D01*
X76660421Y-2051533D01*
X77058467Y-2449579D01*
X77228478Y-2520000D01*
X77058467Y-2590421D01*
X76660421Y-2988467D01*
X76445000Y-3508539D01*
X76445000Y-4071461D01*
X76660421Y-4591533D01*
X77058467Y-4989579D01*
X77228478Y-5060000D01*
X77058467Y-5130421D01*
X76660421Y-5528467D01*
X76445000Y-6048539D01*
X76445000Y-6611461D01*
X76660421Y-7131533D01*
X77058467Y-7529579D01*
X77228478Y-7600000D01*
X77058467Y-7670421D01*
X76660421Y-8068467D01*
X76445000Y-8588539D01*
X76445000Y-9151461D01*
X76660421Y-9671533D01*
X77058467Y-10069579D01*
X77228478Y-10140000D01*
X77058467Y-10210421D01*
X76660421Y-10608467D01*
X76445000Y-11128539D01*
X76445000Y-11691461D01*
X76660421Y-12211533D01*
X77058467Y-12609579D01*
X77212722Y-12673473D01*
X77118028Y-12712697D01*
X77046350Y-12956745D01*
X77860000Y-13770395D01*
X78673650Y-12956745D01*
X78601972Y-12712697D01*
X78500391Y-12676326D01*
X78661533Y-12609579D01*
X79059579Y-12211533D01*
X79275000Y-11691461D01*
X79275000Y-11128539D01*
X79059579Y-10608467D01*
X78661533Y-10210421D01*
X78491522Y-10140000D01*
X78661533Y-10069579D01*
X79059579Y-9671533D01*
X79149445Y-9454576D01*
X86565000Y-16870132D01*
X86565001Y-18468217D01*
X86565000Y-51715000D01*
X86185750Y-51715000D01*
X86027000Y-51873750D01*
X86027000Y-53073000D01*
X86047000Y-53073000D01*
X86047000Y-53327000D01*
X86027000Y-53327000D01*
X86027000Y-53347000D01*
X85773000Y-53347000D01*
X85773000Y-53327000D01*
X84573750Y-53327000D01*
X84415000Y-53485750D01*
X84415000Y-53699868D01*
X82938822Y-52223690D01*
X84415000Y-52223690D01*
X84415000Y-52914250D01*
X84573750Y-53073000D01*
X85773000Y-53073000D01*
X85773000Y-51873750D01*
X85614250Y-51715000D01*
X84923691Y-51715000D01*
X84690302Y-51811673D01*
X84511673Y-51990301D01*
X84415000Y-52223690D01*
X82938822Y-52223690D01*
X79634441Y-48919310D01*
X79630218Y-45652190D01*
X79620601Y-45603876D01*
X79593114Y-45562645D01*
X79551941Y-45535072D01*
X79503351Y-45525354D01*
X78766528Y-45524584D01*
X79059579Y-45231533D01*
X79275000Y-44711461D01*
X79275000Y-44148539D01*
X79059579Y-43628467D01*
X78661533Y-43230421D01*
X78491522Y-43160000D01*
X78661533Y-43089579D01*
X79059579Y-42691533D01*
X79275000Y-42171461D01*
X79275000Y-41608539D01*
X79059579Y-41088467D01*
X78661533Y-40690421D01*
X78491522Y-40620000D01*
X78661533Y-40549579D01*
X79059579Y-40151533D01*
X79275000Y-39631461D01*
X79275000Y-39068539D01*
X79059579Y-38548467D01*
X78661533Y-38150421D01*
X78491522Y-38080000D01*
X78661533Y-38009579D01*
X79059579Y-37611533D01*
X79275000Y-37091461D01*
X79275000Y-36528539D01*
X79059579Y-36008467D01*
X78661533Y-35610421D01*
X78491522Y-35540000D01*
X78661533Y-35469579D01*
X79059579Y-35071533D01*
X79275000Y-34551461D01*
X79275000Y-33988539D01*
X79059579Y-33468467D01*
X78661533Y-33070421D01*
X78491522Y-33000000D01*
X78661533Y-32929579D01*
X79059579Y-32531533D01*
X79275000Y-32011461D01*
X79275000Y-31448539D01*
X79059579Y-30928467D01*
X78661533Y-30530421D01*
X78491522Y-30460000D01*
X78661533Y-30389579D01*
X79059579Y-29991533D01*
X79275000Y-29471461D01*
X79275000Y-28908539D01*
X79059579Y-28388467D01*
X78661533Y-27990421D01*
X78491522Y-27920000D01*
X78661533Y-27849579D01*
X79059579Y-27451533D01*
X79275000Y-26931461D01*
X79275000Y-26368539D01*
X79059579Y-25848467D01*
X78661533Y-25450421D01*
X78491522Y-25380000D01*
X78661533Y-25309579D01*
X79059579Y-24911533D01*
X79275000Y-24391461D01*
X79275000Y-23828539D01*
X79059579Y-23308467D01*
X78661533Y-22910421D01*
X78491522Y-22840000D01*
X78661533Y-22769579D01*
X79059579Y-22371533D01*
X79275000Y-21851461D01*
X79275000Y-21288539D01*
X79059579Y-20768467D01*
X78661533Y-20370421D01*
X78491522Y-20300000D01*
X78661533Y-20229579D01*
X79059579Y-19831533D01*
X79275000Y-19311461D01*
X79275000Y-18748539D01*
X79059579Y-18228467D01*
X78661533Y-17830421D01*
X78491522Y-17760000D01*
X78661533Y-17689579D01*
X79059579Y-17291533D01*
X79275000Y-16771461D01*
X79275000Y-16208539D01*
X79059579Y-15688467D01*
X78661533Y-15290421D01*
X78507278Y-15226527D01*
X78601972Y-15187303D01*
X78673650Y-14943255D01*
X77860000Y-14129605D01*
X77046350Y-14943255D01*
X77118028Y-15187303D01*
X77219609Y-15223674D01*
X77058467Y-15290421D01*
X76660421Y-15688467D01*
X76445000Y-16208539D01*
X76445000Y-16771461D01*
X76660421Y-17291533D01*
X77058467Y-17689579D01*
X77228478Y-17760000D01*
X77058467Y-17830421D01*
X76660421Y-18228467D01*
X76445000Y-18748539D01*
X76445000Y-19311461D01*
X76660421Y-19831533D01*
X77058467Y-20229579D01*
X77228478Y-20300000D01*
X77058467Y-20370421D01*
X76660421Y-20768467D01*
X76445000Y-21288539D01*
X76445000Y-21851461D01*
X76660421Y-22371533D01*
X77058467Y-22769579D01*
X77228478Y-22840000D01*
X77058467Y-22910421D01*
X76660421Y-23308467D01*
X76445000Y-23828539D01*
X76445000Y-24391461D01*
X76660421Y-24911533D01*
X77058467Y-25309579D01*
X77228478Y-25380000D01*
X77058467Y-25450421D01*
X76660421Y-25848467D01*
X76445000Y-26368539D01*
X76445000Y-26931461D01*
X76660421Y-27451533D01*
X77058467Y-27849579D01*
X77228478Y-27920000D01*
X77058467Y-27990421D01*
X76660421Y-28388467D01*
X76445000Y-28908539D01*
X76445000Y-29471461D01*
X76660421Y-29991533D01*
X77058467Y-30389579D01*
X77228478Y-30460000D01*
X77058467Y-30530421D01*
X76660421Y-30928467D01*
X76632862Y-30995000D01*
X61982849Y-30995000D01*
X53509480Y-22521632D01*
X53659579Y-22371533D01*
X53875000Y-21851461D01*
X53875000Y-21288539D01*
X53691280Y-20845001D01*
X57285552Y-20845001D01*
X56635554Y-21495000D01*
X56434126Y-21495000D01*
X56053720Y-21652569D01*
X55762569Y-21943720D01*
X55605000Y-22324126D01*
X55605000Y-22735874D01*
X55762569Y-23116280D01*
X56053720Y-23407431D01*
X56434126Y-23565000D01*
X56845874Y-23565000D01*
X57226280Y-23407431D01*
X57517431Y-23116280D01*
X57675000Y-22735874D01*
X57675000Y-22534446D01*
X58574447Y-21635000D01*
X59801289Y-21635000D01*
X59943720Y-21777431D01*
X60324126Y-21935000D01*
X60735874Y-21935000D01*
X61116280Y-21777431D01*
X61407431Y-21486280D01*
X61565000Y-21105874D01*
X61565000Y-20694126D01*
X61534328Y-20620077D01*
X61806280Y-20507431D01*
X62097431Y-20216280D01*
X62255000Y-19835874D01*
X62255000Y-19424126D01*
X62097431Y-19043720D01*
X61806280Y-18752569D01*
X61425874Y-18595000D01*
X61014126Y-18595000D01*
X60633720Y-18752569D01*
X60342569Y-19043720D01*
X60205348Y-19375001D01*
X53848681Y-19375001D01*
X53875000Y-19311461D01*
X53875000Y-18748539D01*
X53659579Y-18228467D01*
X53261533Y-17830421D01*
X53091522Y-17760000D01*
X53261533Y-17689579D01*
X53659579Y-17291533D01*
X53875000Y-16771461D01*
X53875000Y-16208539D01*
X53659579Y-15688467D01*
X53261533Y-15290421D01*
X53091522Y-15220000D01*
X53261533Y-15149579D01*
X53659579Y-14751533D01*
X53875000Y-14231461D01*
X53875000Y-13738003D01*
X76432940Y-13738003D01*
X76460441Y-14300252D01*
X76622697Y-14691972D01*
X76866745Y-14763650D01*
X77680395Y-13950000D01*
X78039605Y-13950000D01*
X78853255Y-14763650D01*
X79097303Y-14691972D01*
X79287060Y-14161997D01*
X79259559Y-13599748D01*
X79097303Y-13208028D01*
X78853255Y-13136350D01*
X78039605Y-13950000D01*
X77680395Y-13950000D01*
X76866745Y-13136350D01*
X76622697Y-13208028D01*
X76432940Y-13738003D01*
X53875000Y-13738003D01*
X53875000Y-13668539D01*
X53659579Y-13148467D01*
X53261533Y-12750421D01*
X53091522Y-12680000D01*
X53261533Y-12609579D01*
X53659579Y-12211533D01*
X53875000Y-11691461D01*
X53875000Y-11128539D01*
X53659579Y-10608467D01*
X53261533Y-10210421D01*
X53091522Y-10140000D01*
X53261533Y-10069579D01*
X53659579Y-9671533D01*
X53875000Y-9151461D01*
X53875000Y-8588539D01*
X53659579Y-8068467D01*
X53261533Y-7670421D01*
X53091522Y-7600000D01*
X53261533Y-7529579D01*
X53659579Y-7131533D01*
X53875000Y-6611461D01*
X53875000Y-6048539D01*
X53659579Y-5528467D01*
X53261533Y-5130421D01*
X53091522Y-5060000D01*
X53261533Y-4989579D01*
X53659579Y-4591533D01*
X53875000Y-4071461D01*
X53875000Y-3508539D01*
X53659579Y-2988467D01*
X53261533Y-2590421D01*
X53091522Y-2520000D01*
X53261533Y-2449579D01*
X53659579Y-2051533D01*
X53875000Y-1531461D01*
X53875000Y-968539D01*
X53778265Y-735000D01*
X76541735Y-735000D01*
X76445000Y-968539D01*
X76445000Y-968539D01*
G37*
X76445000Y-968539D02*
X76445000Y-1531461D01*
X76660421Y-2051533D01*
X77058467Y-2449579D01*
X77228478Y-2520000D01*
X77058467Y-2590421D01*
X76660421Y-2988467D01*
X76445000Y-3508539D01*
X76445000Y-4071461D01*
X76660421Y-4591533D01*
X77058467Y-4989579D01*
X77228478Y-5060000D01*
X77058467Y-5130421D01*
X76660421Y-5528467D01*
X76445000Y-6048539D01*
X76445000Y-6611461D01*
X76660421Y-7131533D01*
X77058467Y-7529579D01*
X77228478Y-7600000D01*
X77058467Y-7670421D01*
X76660421Y-8068467D01*
X76445000Y-8588539D01*
X76445000Y-9151461D01*
X76660421Y-9671533D01*
X77058467Y-10069579D01*
X77228478Y-10140000D01*
X77058467Y-10210421D01*
X76660421Y-10608467D01*
X76445000Y-11128539D01*
X76445000Y-11691461D01*
X76660421Y-12211533D01*
X77058467Y-12609579D01*
X77212722Y-12673473D01*
X77118028Y-12712697D01*
X77046350Y-12956745D01*
X77860000Y-13770395D01*
X78673650Y-12956745D01*
X78601972Y-12712697D01*
X78500391Y-12676326D01*
X78661533Y-12609579D01*
X79059579Y-12211533D01*
X79275000Y-11691461D01*
X79275000Y-11128539D01*
X79059579Y-10608467D01*
X78661533Y-10210421D01*
X78491522Y-10140000D01*
X78661533Y-10069579D01*
X79059579Y-9671533D01*
X79149445Y-9454576D01*
X86565000Y-16870132D01*
X86565001Y-18468217D01*
X86565000Y-51715000D01*
X86185750Y-51715000D01*
X86027000Y-51873750D01*
X86027000Y-53073000D01*
X86047000Y-53073000D01*
X86047000Y-53327000D01*
X86027000Y-53327000D01*
X86027000Y-53347000D01*
X85773000Y-53347000D01*
X85773000Y-53327000D01*
X84573750Y-53327000D01*
X84415000Y-53485750D01*
X84415000Y-53699868D01*
X82938822Y-52223690D01*
X84415000Y-52223690D01*
X84415000Y-52914250D01*
X84573750Y-53073000D01*
X85773000Y-53073000D01*
X85773000Y-51873750D01*
X85614250Y-51715000D01*
X84923691Y-51715000D01*
X84690302Y-51811673D01*
X84511673Y-51990301D01*
X84415000Y-52223690D01*
X82938822Y-52223690D01*
X79634441Y-48919310D01*
X79630218Y-45652190D01*
X79620601Y-45603876D01*
X79593114Y-45562645D01*
X79551941Y-45535072D01*
X79503351Y-45525354D01*
X78766528Y-45524584D01*
X79059579Y-45231533D01*
X79275000Y-44711461D01*
X79275000Y-44148539D01*
X79059579Y-43628467D01*
X78661533Y-43230421D01*
X78491522Y-43160000D01*
X78661533Y-43089579D01*
X79059579Y-42691533D01*
X79275000Y-42171461D01*
X79275000Y-41608539D01*
X79059579Y-41088467D01*
X78661533Y-40690421D01*
X78491522Y-40620000D01*
X78661533Y-40549579D01*
X79059579Y-40151533D01*
X79275000Y-39631461D01*
X79275000Y-39068539D01*
X79059579Y-38548467D01*
X78661533Y-38150421D01*
X78491522Y-38080000D01*
X78661533Y-38009579D01*
X79059579Y-37611533D01*
X79275000Y-37091461D01*
X79275000Y-36528539D01*
X79059579Y-36008467D01*
X78661533Y-35610421D01*
X78491522Y-35540000D01*
X78661533Y-35469579D01*
X79059579Y-35071533D01*
X79275000Y-34551461D01*
X79275000Y-33988539D01*
X79059579Y-33468467D01*
X78661533Y-33070421D01*
X78491522Y-33000000D01*
X78661533Y-32929579D01*
X79059579Y-32531533D01*
X79275000Y-32011461D01*
X79275000Y-31448539D01*
X79059579Y-30928467D01*
X78661533Y-30530421D01*
X78491522Y-30460000D01*
X78661533Y-30389579D01*
X79059579Y-29991533D01*
X79275000Y-29471461D01*
X79275000Y-28908539D01*
X79059579Y-28388467D01*
X78661533Y-27990421D01*
X78491522Y-27920000D01*
X78661533Y-27849579D01*
X79059579Y-27451533D01*
X79275000Y-26931461D01*
X79275000Y-26368539D01*
X79059579Y-25848467D01*
X78661533Y-25450421D01*
X78491522Y-25380000D01*
X78661533Y-25309579D01*
X79059579Y-24911533D01*
X79275000Y-24391461D01*
X79275000Y-23828539D01*
X79059579Y-23308467D01*
X78661533Y-22910421D01*
X78491522Y-22840000D01*
X78661533Y-22769579D01*
X79059579Y-22371533D01*
X79275000Y-21851461D01*
X79275000Y-21288539D01*
X79059579Y-20768467D01*
X78661533Y-20370421D01*
X78491522Y-20300000D01*
X78661533Y-20229579D01*
X79059579Y-19831533D01*
X79275000Y-19311461D01*
X79275000Y-18748539D01*
X79059579Y-18228467D01*
X78661533Y-17830421D01*
X78491522Y-17760000D01*
X78661533Y-17689579D01*
X79059579Y-17291533D01*
X79275000Y-16771461D01*
X79275000Y-16208539D01*
X79059579Y-15688467D01*
X78661533Y-15290421D01*
X78507278Y-15226527D01*
X78601972Y-15187303D01*
X78673650Y-14943255D01*
X77860000Y-14129605D01*
X77046350Y-14943255D01*
X77118028Y-15187303D01*
X77219609Y-15223674D01*
X77058467Y-15290421D01*
X76660421Y-15688467D01*
X76445000Y-16208539D01*
X76445000Y-16771461D01*
X76660421Y-17291533D01*
X77058467Y-17689579D01*
X77228478Y-17760000D01*
X77058467Y-17830421D01*
X76660421Y-18228467D01*
X76445000Y-18748539D01*
X76445000Y-19311461D01*
X76660421Y-19831533D01*
X77058467Y-20229579D01*
X77228478Y-20300000D01*
X77058467Y-20370421D01*
X76660421Y-20768467D01*
X76445000Y-21288539D01*
X76445000Y-21851461D01*
X76660421Y-22371533D01*
X77058467Y-22769579D01*
X77228478Y-22840000D01*
X77058467Y-22910421D01*
X76660421Y-23308467D01*
X76445000Y-23828539D01*
X76445000Y-24391461D01*
X76660421Y-24911533D01*
X77058467Y-25309579D01*
X77228478Y-25380000D01*
X77058467Y-25450421D01*
X76660421Y-25848467D01*
X76445000Y-26368539D01*
X76445000Y-26931461D01*
X76660421Y-27451533D01*
X77058467Y-27849579D01*
X77228478Y-27920000D01*
X77058467Y-27990421D01*
X76660421Y-28388467D01*
X76445000Y-28908539D01*
X76445000Y-29471461D01*
X76660421Y-29991533D01*
X77058467Y-30389579D01*
X77228478Y-30460000D01*
X77058467Y-30530421D01*
X76660421Y-30928467D01*
X76632862Y-30995000D01*
X61982849Y-30995000D01*
X53509480Y-22521632D01*
X53659579Y-22371533D01*
X53875000Y-21851461D01*
X53875000Y-21288539D01*
X53691280Y-20845001D01*
X57285552Y-20845001D01*
X56635554Y-21495000D01*
X56434126Y-21495000D01*
X56053720Y-21652569D01*
X55762569Y-21943720D01*
X55605000Y-22324126D01*
X55605000Y-22735874D01*
X55762569Y-23116280D01*
X56053720Y-23407431D01*
X56434126Y-23565000D01*
X56845874Y-23565000D01*
X57226280Y-23407431D01*
X57517431Y-23116280D01*
X57675000Y-22735874D01*
X57675000Y-22534446D01*
X58574447Y-21635000D01*
X59801289Y-21635000D01*
X59943720Y-21777431D01*
X60324126Y-21935000D01*
X60735874Y-21935000D01*
X61116280Y-21777431D01*
X61407431Y-21486280D01*
X61565000Y-21105874D01*
X61565000Y-20694126D01*
X61534328Y-20620077D01*
X61806280Y-20507431D01*
X62097431Y-20216280D01*
X62255000Y-19835874D01*
X62255000Y-19424126D01*
X62097431Y-19043720D01*
X61806280Y-18752569D01*
X61425874Y-18595000D01*
X61014126Y-18595000D01*
X60633720Y-18752569D01*
X60342569Y-19043720D01*
X60205348Y-19375001D01*
X53848681Y-19375001D01*
X53875000Y-19311461D01*
X53875000Y-18748539D01*
X53659579Y-18228467D01*
X53261533Y-17830421D01*
X53091522Y-17760000D01*
X53261533Y-17689579D01*
X53659579Y-17291533D01*
X53875000Y-16771461D01*
X53875000Y-16208539D01*
X53659579Y-15688467D01*
X53261533Y-15290421D01*
X53091522Y-15220000D01*
X53261533Y-15149579D01*
X53659579Y-14751533D01*
X53875000Y-14231461D01*
X53875000Y-13738003D01*
X76432940Y-13738003D01*
X76460441Y-14300252D01*
X76622697Y-14691972D01*
X76866745Y-14763650D01*
X77680395Y-13950000D01*
X78039605Y-13950000D01*
X78853255Y-14763650D01*
X79097303Y-14691972D01*
X79287060Y-14161997D01*
X79259559Y-13599748D01*
X79097303Y-13208028D01*
X78853255Y-13136350D01*
X78039605Y-13950000D01*
X77680395Y-13950000D01*
X76866745Y-13136350D01*
X76622697Y-13208028D01*
X76432940Y-13738003D01*
X53875000Y-13738003D01*
X53875000Y-13668539D01*
X53659579Y-13148467D01*
X53261533Y-12750421D01*
X53091522Y-12680000D01*
X53261533Y-12609579D01*
X53659579Y-12211533D01*
X53875000Y-11691461D01*
X53875000Y-11128539D01*
X53659579Y-10608467D01*
X53261533Y-10210421D01*
X53091522Y-10140000D01*
X53261533Y-10069579D01*
X53659579Y-9671533D01*
X53875000Y-9151461D01*
X53875000Y-8588539D01*
X53659579Y-8068467D01*
X53261533Y-7670421D01*
X53091522Y-7600000D01*
X53261533Y-7529579D01*
X53659579Y-7131533D01*
X53875000Y-6611461D01*
X53875000Y-6048539D01*
X53659579Y-5528467D01*
X53261533Y-5130421D01*
X53091522Y-5060000D01*
X53261533Y-4989579D01*
X53659579Y-4591533D01*
X53875000Y-4071461D01*
X53875000Y-3508539D01*
X53659579Y-2988467D01*
X53261533Y-2590421D01*
X53091522Y-2520000D01*
X53261533Y-2449579D01*
X53659579Y-2051533D01*
X53875000Y-1531461D01*
X53875000Y-968539D01*
X53778265Y-735000D01*
X76541735Y-735000D01*
X76445000Y-968539D01*
G36*
X76660421Y-32531533D02*
X77058467Y-32929579D01*
X77228478Y-33000000D01*
X77058467Y-33070421D01*
X76660421Y-33468467D01*
X76445000Y-33988539D01*
X76445000Y-34551461D01*
X76660421Y-35071533D01*
X77058467Y-35469579D01*
X77228478Y-35540000D01*
X77058467Y-35610421D01*
X76660421Y-36008467D01*
X76445000Y-36528539D01*
X76445000Y-37091461D01*
X76660421Y-37611533D01*
X77058467Y-38009579D01*
X77228478Y-38080000D01*
X77058467Y-38150421D01*
X76660421Y-38548467D01*
X76445000Y-39068539D01*
X76445000Y-39631461D01*
X76660421Y-40151533D01*
X77058467Y-40549579D01*
X77228478Y-40620000D01*
X77058467Y-40690421D01*
X76660421Y-41088467D01*
X76445000Y-41608539D01*
X76445000Y-42171461D01*
X76660421Y-42691533D01*
X77058467Y-43089579D01*
X77228478Y-43160000D01*
X77058467Y-43230421D01*
X76660421Y-43628467D01*
X76445000Y-44148539D01*
X76445000Y-44711461D01*
X76660421Y-45231533D01*
X76951576Y-45522688D01*
X62810020Y-45507911D01*
X62810020Y-34024866D01*
X62824908Y-33950019D01*
X62810020Y-33875172D01*
X62810020Y-33875168D01*
X62765924Y-33653483D01*
X62597949Y-33402091D01*
X62534493Y-33359691D01*
X61648192Y-32473390D01*
X61678402Y-32479399D01*
X61750790Y-32465000D01*
X76632862Y-32465000D01*
X76660421Y-32531533D01*
X76660421Y-32531533D01*
G37*
X76660421Y-32531533D02*
X77058467Y-32929579D01*
X77228478Y-33000000D01*
X77058467Y-33070421D01*
X76660421Y-33468467D01*
X76445000Y-33988539D01*
X76445000Y-34551461D01*
X76660421Y-35071533D01*
X77058467Y-35469579D01*
X77228478Y-35540000D01*
X77058467Y-35610421D01*
X76660421Y-36008467D01*
X76445000Y-36528539D01*
X76445000Y-37091461D01*
X76660421Y-37611533D01*
X77058467Y-38009579D01*
X77228478Y-38080000D01*
X77058467Y-38150421D01*
X76660421Y-38548467D01*
X76445000Y-39068539D01*
X76445000Y-39631461D01*
X76660421Y-40151533D01*
X77058467Y-40549579D01*
X77228478Y-40620000D01*
X77058467Y-40690421D01*
X76660421Y-41088467D01*
X76445000Y-41608539D01*
X76445000Y-42171461D01*
X76660421Y-42691533D01*
X77058467Y-43089579D01*
X77228478Y-43160000D01*
X77058467Y-43230421D01*
X76660421Y-43628467D01*
X76445000Y-44148539D01*
X76445000Y-44711461D01*
X76660421Y-45231533D01*
X76951576Y-45522688D01*
X62810020Y-45507911D01*
X62810020Y-34024866D01*
X62824908Y-33950019D01*
X62810020Y-33875172D01*
X62810020Y-33875168D01*
X62765924Y-33653483D01*
X62597949Y-33402091D01*
X62534493Y-33359691D01*
X61648192Y-32473390D01*
X61678402Y-32479399D01*
X61750790Y-32465000D01*
X76632862Y-32465000D01*
X76660421Y-32531533D01*
G36*
X59564999Y-34829801D02*
X59564999Y-35220197D01*
X53857796Y-29512995D01*
X53875000Y-29471461D01*
X53875000Y-29139801D01*
X59564999Y-34829801D01*
X59564999Y-34829801D01*
G37*
X59564999Y-34829801D02*
X59564999Y-35220197D01*
X53857796Y-29512995D01*
X53875000Y-29471461D01*
X53875000Y-29139801D01*
X59564999Y-34829801D01*
G36*
X88165000Y-6378876D02*
X88165000Y-15259868D01*
X81869292Y-8964161D01*
X82957715Y-9415000D01*
X84682285Y-9415000D01*
X86275580Y-8755036D01*
X87495036Y-7535580D01*
X88134529Y-5991706D01*
X88165000Y-6378876D01*
X88165000Y-6378876D01*
G37*
X88165000Y-6378876D02*
X88165000Y-15259868D01*
X81869292Y-8964161D01*
X82957715Y-9415000D01*
X84682285Y-9415000D01*
X86275580Y-8755036D01*
X87495036Y-7535580D01*
X88134529Y-5991706D01*
X88165000Y-6378876D01*
G04 #@! TD*
M02*
