M48
;DRILL file {KiCad (5.0.0)} date 02/03/19 16:57:59
;FORMAT={-:-/ absolute / inch / decimal}
FMAT,2
INCH,TZ
T1C0.0157
T2C0.0394
T3C0.0409
T4C0.1457
%
G90
G05
M72
T1
X0.0945Y-1.4213
X0.126Y-2.6063
X0.1476Y-1.7717
X0.1732Y-0.4488
X0.2244Y-0.9724
X0.3445Y-2.4016
X0.3957Y-2.8925
X0.4331Y-1.5039
X0.5106Y-0.6161
X0.5591Y-2.311
X0.6063Y-0.9961
X0.6201Y-1.8602
X0.6492Y-0.1969
X0.6791Y-2.5
X0.689Y-2.313
X0.8268Y-2.2146
X0.8563Y-2.4803
X1.0138Y-2.4114
X1.0531Y-2.4606
X1.0571Y-0.6575
X1.0622Y-2.6665
X1.122Y-2.8839
X1.1417Y-1.2992
X1.3189Y-1.7224
X1.3303Y-2.4677
X1.3772Y-0.1744
X1.4264Y-0.9591
X1.4606Y-2.8386
X1.4972Y-0.6929
X1.5846Y-2.2736
X1.7028Y-2.2736
X1.811Y-1.6831
X1.8307Y-1.2303
X1.874Y-0.2598
X1.8835Y-0.6953
X1.8984Y-2.1465
X1.9134Y-0.9807
X1.95Y-2.61
X1.9535Y-0.8268
X1.9539Y-2.2346
X1.9701Y-1.0374
X1.9846Y-2.2622
X1.998Y-0.8071
X2.0051Y-2.1898
X2.0815Y-2.8429
X2.1354Y-1.0291
X2.1917Y-2.6894
X2.1929Y-2.6378
X2.2299Y-0.887
X2.2395Y-1.2637
X2.252Y-1.7283
X2.28Y-1.7594
X2.2953Y-0.3189
X2.3073Y-1.7878
X2.3307Y-1.0295
X2.3332Y-1.8174
X2.352Y-1.5335
X2.3528Y-1.5799
X2.3588Y-1.7554
X2.3618Y-1.6445
X2.3623Y-0.7377
X2.376Y-1.0736
X2.3831Y-0.8228
X2.4031Y-1.6323
X2.4102Y-0.7728
X2.4169Y-2.6843
X2.4689Y-2.6817
X2.4724Y-0.5551
X2.4724Y-0.9094
X2.4803Y-2.372
X2.4954Y-2.6526
X2.5083Y-1.6354
X2.5248Y-2.6264
X2.5669Y-1.0157
X2.685Y-0.1693
X2.7677Y-1.3504
X2.7957Y-0.65
X2.8764Y-1.6587
X2.8937Y-0.2638
X2.9063Y-2.4189
X2.9476Y-2.4181
X2.9642Y-1.3094
X3.0134Y-2.387
X3.0787Y-2.6028
X3.0913Y-2.3902
X3.122Y-2.9016
X3.126Y-2.2441
X3.1654Y-0.4961
X3.1693Y-2.2441
X3.2126Y-2.2441
X3.272Y-2.0213
X3.2835Y-0.8346
X3.285Y-2.2697
X3.2874Y-1.1299
X3.2992Y-1.8543
X3.3031Y-1.5197
X3.3894Y-2.6035
X3.4087Y-0.4272
X3.4449Y-2.4606
T2
X2.4528Y-2.7638
X2.5528Y-2.7638
X2.6528Y-2.7638
X2.7528Y-2.7638
X2.8528Y-2.7638
X2.9528Y-2.7638
X0.6913Y-0.7343
X0.6913Y-0.8343
X0.6913Y-0.9343
X0.6913Y-1.0343
X0.6913Y-1.1343
X0.6913Y-1.2343
X0.7913Y-0.7343
X0.7913Y-0.8343
X0.7913Y-0.9343
X0.7913Y-1.0343
X0.7913Y-1.1343
X0.7913Y-1.2343
X2.2528Y-2.9213
X2.3528Y-2.9213
X2.4528Y-2.9213
X2.5528Y-2.9213
X2.6528Y-2.9213
X2.7528Y-2.9213
X2.8528Y-2.9213
X2.9528Y-2.9213
X3.3819Y-2.0945
X3.3819Y-2.1945
X3.3819Y-2.2945
X3.3819Y-2.3945
X2.0906Y-2.4921
X2.1906Y-2.4921
X2.2906Y-2.4921
X2.6528Y-2.6063
X2.7528Y-2.6063
X2.8528Y-2.6063
X2.9528Y-2.6063
T3
X2.0654Y-0.0492
X2.0654Y-0.1492
X2.0654Y-0.2492
X2.0654Y-0.3492
X2.0654Y-0.4492
X2.0654Y-0.5492
X2.0654Y-0.6492
X2.0654Y-0.7492
X2.0654Y-0.8492
X2.0654Y-0.9492
X2.0654Y-1.0492
X2.0654Y-1.1492
X2.0654Y-1.2492
X2.0654Y-1.3492
X2.0654Y-1.4492
X2.0654Y-1.5492
X2.0654Y-1.6492
X2.0654Y-1.7492
X2.0654Y-1.8492
X3.0654Y-0.0492
X3.0654Y-0.1492
X3.0654Y-0.2492
X3.0654Y-0.3492
X3.0654Y-0.4492
X3.0654Y-0.5492
X3.0654Y-0.6492
X3.0654Y-0.7492
X3.0654Y-0.8492
X3.0654Y-0.9492
X3.0654Y-1.0492
X3.0654Y-1.1492
X3.0654Y-1.2492
X3.0654Y-1.3492
X3.0654Y-1.4492
X3.0654Y-1.5492
X3.0654Y-1.6492
X3.0654Y-1.7492
X3.0654Y-1.8492
T4
X3.3Y-2.8
X0.2Y-2.8
X0.2Y-0.2
X1.5298Y-1.2992
X3.3Y-0.2
X0.4387Y-1.2992
X0.9843Y-0.3543
T2
X1.7283Y-2.6378G85X1.8071Y-2.6378
G05
X1.7283Y-2.874G85X1.8071Y-2.874
G05
X1.9528Y-2.7953G85X1.9528Y-2.7165
G05
T0
M30
