G04 #@! TF.GenerationSoftware,KiCad,Pcbnew,(5.0.0)*
G04 #@! TF.CreationDate,2019-02-03T17:05:02-08:00*
G04 #@! TF.ProjectId,mlab100_Base_Panel_1.5,6D6C61623130305F426173655F50616E,rev?*
G04 #@! TF.SameCoordinates,Original*
G04 #@! TF.FileFunction,Legend,Top*
G04 #@! TF.FilePolarity,Positive*
%FSLAX46Y46*%
G04 Gerber Fmt 4.6, Leading zero omitted, Abs format (unit mm)*
G04 Created by KiCad (PCBNEW (5.0.0)) date 02/03/19 17:05:02*
%MOMM*%
%LPD*%
G01*
G04 APERTURE LIST*
%ADD10C,0.300000*%
%ADD11C,0.100000*%
%ADD12C,0.500000*%
%ADD13C,0.127000*%
%ADD14C,0.120000*%
%ADD15C,0.050000*%
%ADD16C,0.150000*%
G04 APERTURE END LIST*
D10*
X69725714Y-64028571D02*
X69725714Y-62528571D01*
X70368571Y-62671428D02*
X70440000Y-62600000D01*
X70582857Y-62528571D01*
X70940000Y-62528571D01*
X71082857Y-62600000D01*
X71154285Y-62671428D01*
X71225714Y-62814285D01*
X71225714Y-62957142D01*
X71154285Y-63171428D01*
X70297142Y-64028571D01*
X71225714Y-64028571D01*
X72725714Y-63885714D02*
X72654285Y-63957142D01*
X72440000Y-64028571D01*
X72297142Y-64028571D01*
X72082857Y-63957142D01*
X71940000Y-63814285D01*
X71868571Y-63671428D01*
X71797142Y-63385714D01*
X71797142Y-63171428D01*
X71868571Y-62885714D01*
X71940000Y-62742857D01*
X72082857Y-62600000D01*
X72297142Y-62528571D01*
X72440000Y-62528571D01*
X72654285Y-62600000D01*
X72725714Y-62671428D01*
X57124285Y-70817142D02*
X57338571Y-70888571D01*
X57695714Y-70888571D01*
X57838571Y-70817142D01*
X57910000Y-70745714D01*
X57981428Y-70602857D01*
X57981428Y-70460000D01*
X57910000Y-70317142D01*
X57838571Y-70245714D01*
X57695714Y-70174285D01*
X57410000Y-70102857D01*
X57267142Y-70031428D01*
X57195714Y-69960000D01*
X57124285Y-69817142D01*
X57124285Y-69674285D01*
X57195714Y-69531428D01*
X57267142Y-69460000D01*
X57410000Y-69388571D01*
X57767142Y-69388571D01*
X57981428Y-69460000D01*
X58624285Y-70888571D02*
X58624285Y-69388571D01*
X59195714Y-69388571D01*
X59338571Y-69460000D01*
X59410000Y-69531428D01*
X59481428Y-69674285D01*
X59481428Y-69888571D01*
X59410000Y-70031428D01*
X59338571Y-70102857D01*
X59195714Y-70174285D01*
X58624285Y-70174285D01*
X60124285Y-70888571D02*
X60124285Y-69388571D01*
X51280000Y-73540000D02*
X51137142Y-73468571D01*
X50922857Y-73468571D01*
X50708571Y-73540000D01*
X50565714Y-73682857D01*
X50494285Y-73825714D01*
X50422857Y-74111428D01*
X50422857Y-74325714D01*
X50494285Y-74611428D01*
X50565714Y-74754285D01*
X50708571Y-74897142D01*
X50922857Y-74968571D01*
X51065714Y-74968571D01*
X51280000Y-74897142D01*
X51351428Y-74825714D01*
X51351428Y-74325714D01*
X51065714Y-74325714D01*
X51994285Y-74968571D02*
X51994285Y-73468571D01*
X52565714Y-73468571D01*
X52708571Y-73540000D01*
X52780000Y-73611428D01*
X52851428Y-73754285D01*
X52851428Y-73968571D01*
X52780000Y-74111428D01*
X52708571Y-74182857D01*
X52565714Y-74254285D01*
X51994285Y-74254285D01*
X53494285Y-74968571D02*
X53494285Y-73468571D01*
X54494285Y-73468571D02*
X54780000Y-73468571D01*
X54922857Y-73540000D01*
X55065714Y-73682857D01*
X55137142Y-73968571D01*
X55137142Y-74468571D01*
X55065714Y-74754285D01*
X54922857Y-74897142D01*
X54780000Y-74968571D01*
X54494285Y-74968571D01*
X54351428Y-74897142D01*
X54208571Y-74754285D01*
X54137142Y-74468571D01*
X54137142Y-73968571D01*
X54208571Y-73682857D01*
X54351428Y-73540000D01*
X54494285Y-73468571D01*
D11*
X83729285Y-52504285D02*
X83729285Y-52075714D01*
X83729285Y-52290000D02*
X82979285Y-52290000D01*
X83086428Y-52218571D01*
X83157857Y-52147142D01*
X83193571Y-52075714D01*
X83050714Y-52790000D02*
X83015000Y-52825714D01*
X82979285Y-52897142D01*
X82979285Y-53075714D01*
X83015000Y-53147142D01*
X83050714Y-53182857D01*
X83122142Y-53218571D01*
X83193571Y-53218571D01*
X83300714Y-53182857D01*
X83729285Y-52754285D01*
X83729285Y-53218571D01*
X82979285Y-53432857D02*
X83729285Y-53682857D01*
X82979285Y-53932857D01*
X82979285Y-55111428D02*
X82979285Y-54754285D01*
X83336428Y-54718571D01*
X83300714Y-54754285D01*
X83265000Y-54825714D01*
X83265000Y-55004285D01*
X83300714Y-55075714D01*
X83336428Y-55111428D01*
X83407857Y-55147142D01*
X83586428Y-55147142D01*
X83657857Y-55111428D01*
X83693571Y-55075714D01*
X83729285Y-55004285D01*
X83729285Y-54825714D01*
X83693571Y-54754285D01*
X83657857Y-54718571D01*
X82979285Y-55361428D02*
X83729285Y-55611428D01*
X82979285Y-55861428D01*
X82979285Y-56254285D02*
X82979285Y-56325714D01*
X83015000Y-56397142D01*
X83050714Y-56432857D01*
X83122142Y-56468571D01*
X83265000Y-56504285D01*
X83443571Y-56504285D01*
X83586428Y-56468571D01*
X83657857Y-56432857D01*
X83693571Y-56397142D01*
X83729285Y-56325714D01*
X83729285Y-56254285D01*
X83693571Y-56182857D01*
X83657857Y-56147142D01*
X83586428Y-56111428D01*
X83443571Y-56075714D01*
X83265000Y-56075714D01*
X83122142Y-56111428D01*
X83050714Y-56147142D01*
X83015000Y-56182857D01*
X82979285Y-56254285D01*
X82979285Y-57325714D02*
X82979285Y-57790000D01*
X83265000Y-57540000D01*
X83265000Y-57647142D01*
X83300714Y-57718571D01*
X83336428Y-57754285D01*
X83407857Y-57790000D01*
X83586428Y-57790000D01*
X83657857Y-57754285D01*
X83693571Y-57718571D01*
X83729285Y-57647142D01*
X83729285Y-57432857D01*
X83693571Y-57361428D01*
X83657857Y-57325714D01*
X82979285Y-58004285D02*
X83729285Y-58254285D01*
X82979285Y-58504285D01*
X82979285Y-58682857D02*
X82979285Y-59147142D01*
X83265000Y-58897142D01*
X83265000Y-59004285D01*
X83300714Y-59075714D01*
X83336428Y-59111428D01*
X83407857Y-59147142D01*
X83586428Y-59147142D01*
X83657857Y-59111428D01*
X83693571Y-59075714D01*
X83729285Y-59004285D01*
X83729285Y-58790000D01*
X83693571Y-58718571D01*
X83657857Y-58682857D01*
X83015000Y-60432857D02*
X82979285Y-60361428D01*
X82979285Y-60254285D01*
X83015000Y-60147142D01*
X83086428Y-60075714D01*
X83157857Y-60040000D01*
X83300714Y-60004285D01*
X83407857Y-60004285D01*
X83550714Y-60040000D01*
X83622142Y-60075714D01*
X83693571Y-60147142D01*
X83729285Y-60254285D01*
X83729285Y-60325714D01*
X83693571Y-60432857D01*
X83657857Y-60468571D01*
X83407857Y-60468571D01*
X83407857Y-60325714D01*
X83729285Y-60790000D02*
X82979285Y-60790000D01*
X83729285Y-61218571D01*
X82979285Y-61218571D01*
X83729285Y-61575714D02*
X82979285Y-61575714D01*
X82979285Y-61754285D01*
X83015000Y-61861428D01*
X83086428Y-61932857D01*
X83157857Y-61968571D01*
X83300714Y-62004285D01*
X83407857Y-62004285D01*
X83550714Y-61968571D01*
X83622142Y-61932857D01*
X83693571Y-61861428D01*
X83729285Y-61754285D01*
X83729285Y-61575714D01*
D10*
X15752857Y-50274761D02*
X15752857Y-48274761D01*
X16419523Y-49703333D01*
X17086190Y-48274761D01*
X17086190Y-50274761D01*
X18705238Y-49227142D02*
X18990952Y-49322380D01*
X19086190Y-49417619D01*
X19181428Y-49608095D01*
X19181428Y-49893809D01*
X19086190Y-50084285D01*
X18990952Y-50179523D01*
X18800476Y-50274761D01*
X18038571Y-50274761D01*
X18038571Y-48274761D01*
X18705238Y-48274761D01*
X18895714Y-48370000D01*
X18990952Y-48465238D01*
X19086190Y-48655714D01*
X19086190Y-48846190D01*
X18990952Y-49036666D01*
X18895714Y-49131904D01*
X18705238Y-49227142D01*
X18038571Y-49227142D01*
X20324285Y-50274761D02*
X20133809Y-50179523D01*
X20038571Y-49989047D01*
X20038571Y-48274761D01*
X21943333Y-50274761D02*
X21943333Y-49227142D01*
X21848095Y-49036666D01*
X21657619Y-48941428D01*
X21276666Y-48941428D01*
X21086190Y-49036666D01*
X21943333Y-50179523D02*
X21752857Y-50274761D01*
X21276666Y-50274761D01*
X21086190Y-50179523D01*
X20990952Y-49989047D01*
X20990952Y-49798571D01*
X21086190Y-49608095D01*
X21276666Y-49512857D01*
X21752857Y-49512857D01*
X21943333Y-49417619D01*
X22895714Y-50274761D02*
X22895714Y-48274761D01*
X22895714Y-49036666D02*
X23086190Y-48941428D01*
X23467142Y-48941428D01*
X23657619Y-49036666D01*
X23752857Y-49131904D01*
X23848095Y-49322380D01*
X23848095Y-49893809D01*
X23752857Y-50084285D01*
X23657619Y-50179523D01*
X23467142Y-50274761D01*
X23086190Y-50274761D01*
X22895714Y-50179523D01*
X25752857Y-50274761D02*
X24610000Y-50274761D01*
X25181428Y-50274761D02*
X25181428Y-48274761D01*
X24990952Y-48560476D01*
X24800476Y-48750952D01*
X24610000Y-48846190D01*
X26990952Y-48274761D02*
X27181428Y-48274761D01*
X27371904Y-48370000D01*
X27467142Y-48465238D01*
X27562380Y-48655714D01*
X27657619Y-49036666D01*
X27657619Y-49512857D01*
X27562380Y-49893809D01*
X27467142Y-50084285D01*
X27371904Y-50179523D01*
X27181428Y-50274761D01*
X26990952Y-50274761D01*
X26800476Y-50179523D01*
X26705238Y-50084285D01*
X26610000Y-49893809D01*
X26514761Y-49512857D01*
X26514761Y-49036666D01*
X26610000Y-48655714D01*
X26705238Y-48465238D01*
X26800476Y-48370000D01*
X26990952Y-48274761D01*
X28895714Y-48274761D02*
X29086190Y-48274761D01*
X29276666Y-48370000D01*
X29371904Y-48465238D01*
X29467142Y-48655714D01*
X29562380Y-49036666D01*
X29562380Y-49512857D01*
X29467142Y-49893809D01*
X29371904Y-50084285D01*
X29276666Y-50179523D01*
X29086190Y-50274761D01*
X28895714Y-50274761D01*
X28705238Y-50179523D01*
X28610000Y-50084285D01*
X28514761Y-49893809D01*
X28419523Y-49512857D01*
X28419523Y-49036666D01*
X28514761Y-48655714D01*
X28610000Y-48465238D01*
X28705238Y-48370000D01*
X28895714Y-48274761D01*
X31657619Y-48274761D02*
X32324285Y-50274761D01*
X32990952Y-48274761D01*
X34705238Y-50274761D02*
X33562380Y-50274761D01*
X34133809Y-50274761D02*
X34133809Y-48274761D01*
X33943333Y-48560476D01*
X33752857Y-48750952D01*
X33562380Y-48846190D01*
X35562380Y-50084285D02*
X35657619Y-50179523D01*
X35562380Y-50274761D01*
X35467142Y-50179523D01*
X35562380Y-50084285D01*
X35562380Y-50274761D01*
X37467142Y-48274761D02*
X36514761Y-48274761D01*
X36419523Y-49227142D01*
X36514761Y-49131904D01*
X36705238Y-49036666D01*
X37181428Y-49036666D01*
X37371904Y-49131904D01*
X37467142Y-49227142D01*
X37562380Y-49417619D01*
X37562380Y-49893809D01*
X37467142Y-50084285D01*
X37371904Y-50179523D01*
X37181428Y-50274761D01*
X36705238Y-50274761D01*
X36514761Y-50179523D01*
X36419523Y-50084285D01*
D12*
X5904285Y-47164047D02*
X5904285Y-44414047D01*
X6820952Y-46378333D01*
X7737619Y-44414047D01*
X7737619Y-47164047D01*
X9047142Y-47164047D02*
X9047142Y-45330714D01*
X9047142Y-44414047D02*
X8916190Y-44545000D01*
X9047142Y-44675952D01*
X9178095Y-44545000D01*
X9047142Y-44414047D01*
X9047142Y-44675952D01*
X11535238Y-47033095D02*
X11273333Y-47164047D01*
X10749523Y-47164047D01*
X10487619Y-47033095D01*
X10356666Y-46902142D01*
X10225714Y-46640238D01*
X10225714Y-45854523D01*
X10356666Y-45592619D01*
X10487619Y-45461666D01*
X10749523Y-45330714D01*
X11273333Y-45330714D01*
X11535238Y-45461666D01*
X12713809Y-47164047D02*
X12713809Y-45330714D01*
X12713809Y-45854523D02*
X12844761Y-45592619D01*
X12975714Y-45461666D01*
X13237619Y-45330714D01*
X13499523Y-45330714D01*
X14809047Y-47164047D02*
X14547142Y-47033095D01*
X14416190Y-46902142D01*
X14285238Y-46640238D01*
X14285238Y-45854523D01*
X14416190Y-45592619D01*
X14547142Y-45461666D01*
X14809047Y-45330714D01*
X15201904Y-45330714D01*
X15463809Y-45461666D01*
X15594761Y-45592619D01*
X15725714Y-45854523D01*
X15725714Y-46640238D01*
X15594761Y-46902142D01*
X15463809Y-47033095D01*
X15201904Y-47164047D01*
X14809047Y-47164047D01*
X17820952Y-45723571D02*
X18213809Y-45854523D01*
X18344761Y-45985476D01*
X18475714Y-46247380D01*
X18475714Y-46640238D01*
X18344761Y-46902142D01*
X18213809Y-47033095D01*
X17951904Y-47164047D01*
X16904285Y-47164047D01*
X16904285Y-44414047D01*
X17820952Y-44414047D01*
X18082857Y-44545000D01*
X18213809Y-44675952D01*
X18344761Y-44937857D01*
X18344761Y-45199761D01*
X18213809Y-45461666D01*
X18082857Y-45592619D01*
X17820952Y-45723571D01*
X16904285Y-45723571D01*
X19654285Y-47164047D02*
X19654285Y-45330714D01*
X19654285Y-44414047D02*
X19523333Y-44545000D01*
X19654285Y-44675952D01*
X19785238Y-44545000D01*
X19654285Y-44414047D01*
X19654285Y-44675952D01*
X21356666Y-47164047D02*
X21094761Y-47033095D01*
X20963809Y-46902142D01*
X20832857Y-46640238D01*
X20832857Y-45854523D01*
X20963809Y-45592619D01*
X21094761Y-45461666D01*
X21356666Y-45330714D01*
X21749523Y-45330714D01*
X22011428Y-45461666D01*
X22142380Y-45592619D01*
X22273333Y-45854523D01*
X22273333Y-46640238D01*
X22142380Y-46902142D01*
X22011428Y-47033095D01*
X21749523Y-47164047D01*
X21356666Y-47164047D01*
X23059047Y-45330714D02*
X24106666Y-45330714D01*
X23451904Y-44414047D02*
X23451904Y-46771190D01*
X23582857Y-47033095D01*
X23844761Y-47164047D01*
X24106666Y-47164047D01*
X26201904Y-47164047D02*
X26201904Y-45723571D01*
X26070952Y-45461666D01*
X25809047Y-45330714D01*
X25285238Y-45330714D01*
X25023333Y-45461666D01*
X26201904Y-47033095D02*
X25939999Y-47164047D01*
X25285238Y-47164047D01*
X25023333Y-47033095D01*
X24892380Y-46771190D01*
X24892380Y-46509285D01*
X25023333Y-46247380D01*
X25285238Y-46116428D01*
X25939999Y-46116428D01*
X26201904Y-45985476D01*
X30916190Y-47164047D02*
X29606666Y-47164047D01*
X29606666Y-44414047D01*
X33011428Y-47164047D02*
X33011428Y-45723571D01*
X32880476Y-45461666D01*
X32618571Y-45330714D01*
X32094761Y-45330714D01*
X31832857Y-45461666D01*
X33011428Y-47033095D02*
X32749523Y-47164047D01*
X32094761Y-47164047D01*
X31832857Y-47033095D01*
X31701904Y-46771190D01*
X31701904Y-46509285D01*
X31832857Y-46247380D01*
X32094761Y-46116428D01*
X32749523Y-46116428D01*
X33011428Y-45985476D01*
X34320952Y-47164047D02*
X34320952Y-44414047D01*
X34320952Y-45461666D02*
X34582857Y-45330714D01*
X35106666Y-45330714D01*
X35368571Y-45461666D01*
X35499523Y-45592619D01*
X35630476Y-45854523D01*
X35630476Y-46640238D01*
X35499523Y-46902142D01*
X35368571Y-47033095D01*
X35106666Y-47164047D01*
X34582857Y-47164047D01*
X34320952Y-47033095D01*
X36678095Y-47033095D02*
X36940000Y-47164047D01*
X37463809Y-47164047D01*
X37725714Y-47033095D01*
X37856666Y-46771190D01*
X37856666Y-46640238D01*
X37725714Y-46378333D01*
X37463809Y-46247380D01*
X37070952Y-46247380D01*
X36809047Y-46116428D01*
X36678095Y-45854523D01*
X36678095Y-45723571D01*
X36809047Y-45461666D01*
X37070952Y-45330714D01*
X37463809Y-45330714D01*
X37725714Y-45461666D01*
X41130476Y-47164047D02*
X41130476Y-44414047D01*
X42440000Y-45330714D02*
X42440000Y-47164047D01*
X42440000Y-45592619D02*
X42570952Y-45461666D01*
X42832857Y-45330714D01*
X43225714Y-45330714D01*
X43487619Y-45461666D01*
X43618571Y-45723571D01*
X43618571Y-47164047D01*
X46106666Y-47033095D02*
X45844761Y-47164047D01*
X45320952Y-47164047D01*
X45059047Y-47033095D01*
X44928095Y-46902142D01*
X44797142Y-46640238D01*
X44797142Y-45854523D01*
X44928095Y-45592619D01*
X45059047Y-45461666D01*
X45320952Y-45330714D01*
X45844761Y-45330714D01*
X46106666Y-45461666D01*
D13*
G04 #@! TO.C,U1*
X79110000Y40000D02*
X79110000Y-54360000D01*
X79110000Y-54360000D02*
X51210000Y-54360000D01*
X51210000Y-54360000D02*
X51210000Y40000D01*
X51210000Y40000D02*
X79110000Y40000D01*
D14*
G04 #@! TO.C,U2*
X49640000Y-63400000D02*
X49640000Y-65550000D01*
X49640000Y-65550000D02*
X51790000Y-65550000D01*
X49790000Y-56700000D02*
X49790000Y-65400000D01*
X49790000Y-65400000D02*
X61590000Y-65400000D01*
X61590000Y-65400000D02*
X61590000Y-56700000D01*
X61590000Y-56700000D02*
X49790000Y-56700000D01*
G04 #@! TO.C,R5*
X22870000Y-72850000D02*
X22870000Y-71650000D01*
X24630000Y-71650000D02*
X24630000Y-72850000D01*
G04 #@! TO.C,R7*
X14370000Y-72850000D02*
X14370000Y-71650000D01*
X16130000Y-71650000D02*
X16130000Y-72850000D01*
G04 #@! TO.C,J1*
X84570000Y-62150000D02*
X87230000Y-62150000D01*
X84570000Y-54470000D02*
X84570000Y-62150000D01*
X87230000Y-54470000D02*
X87230000Y-62150000D01*
X84570000Y-54470000D02*
X87230000Y-54470000D01*
X84570000Y-53200000D02*
X84570000Y-51870000D01*
X84570000Y-51870000D02*
X85900000Y-51870000D01*
G04 #@! TO.C,Q6*
X16920000Y-67760000D02*
X17850000Y-67760000D01*
X20080000Y-67760000D02*
X19150000Y-67760000D01*
X20080000Y-67760000D02*
X20080000Y-64600000D01*
X16920000Y-67760000D02*
X16920000Y-66300000D01*
G04 #@! TO.C,Q2*
X21170000Y-67760000D02*
X22100000Y-67760000D01*
X24330000Y-67760000D02*
X23400000Y-67760000D01*
X24330000Y-67760000D02*
X24330000Y-64600000D01*
X21170000Y-67760000D02*
X21170000Y-66300000D01*
G04 #@! TO.C,J5*
X55890000Y-72870000D02*
X55890000Y-75530000D01*
X73730000Y-72870000D02*
X55890000Y-72870000D01*
X73730000Y-75530000D02*
X55890000Y-75530000D01*
X73730000Y-72870000D02*
X73730000Y-75530000D01*
X75000000Y-72870000D02*
X76330000Y-72870000D01*
X76330000Y-72870000D02*
X76330000Y-74200000D01*
G04 #@! TO.C,Q4*
X12670000Y-67760000D02*
X13600000Y-67760000D01*
X15830000Y-67760000D02*
X14900000Y-67760000D01*
X15830000Y-67760000D02*
X15830000Y-64600000D01*
X12670000Y-67760000D02*
X12670000Y-66300000D01*
G04 #@! TO.C,C4*
X44750000Y-58350000D02*
X44750000Y-59350000D01*
X46450000Y-59350000D02*
X46450000Y-58350000D01*
G04 #@! TO.C,C3*
X49050000Y-59450000D02*
X49050000Y-58450000D01*
X47350000Y-58450000D02*
X47350000Y-59450000D01*
G04 #@! TO.C,R9*
X18620000Y-72850000D02*
X18620000Y-71650000D01*
X20380000Y-71650000D02*
X20380000Y-72850000D01*
G04 #@! TO.C,J7*
X66050000Y-64870000D02*
X66050000Y-67530000D01*
X73730000Y-64870000D02*
X66050000Y-64870000D01*
X73730000Y-67530000D02*
X66050000Y-67530000D01*
X73730000Y-64870000D02*
X73730000Y-67530000D01*
X75000000Y-64870000D02*
X76330000Y-64870000D01*
X76330000Y-64870000D02*
X76330000Y-66200000D01*
G04 #@! TO.C,J2*
X16230000Y-17320000D02*
X17560000Y-17320000D01*
X16230000Y-18650000D02*
X16230000Y-17320000D01*
X18830000Y-17320000D02*
X21430000Y-17320000D01*
X18830000Y-19920000D02*
X18830000Y-17320000D01*
X16230000Y-19920000D02*
X18830000Y-19920000D01*
X21430000Y-17320000D02*
X21430000Y-32680000D01*
X16230000Y-19920000D02*
X16230000Y-32680000D01*
X16230000Y-32680000D02*
X21430000Y-32680000D01*
G04 #@! TO.C,J6*
X60970000Y-68870000D02*
X60970000Y-71530000D01*
X73730000Y-68870000D02*
X60970000Y-68870000D01*
X73730000Y-71530000D02*
X60970000Y-71530000D01*
X73730000Y-68870000D02*
X73730000Y-71530000D01*
X75000000Y-68870000D02*
X76330000Y-68870000D01*
X76330000Y-68870000D02*
X76330000Y-70200000D01*
G04 #@! TO.C,D3*
X21000000Y-73250000D02*
X21000000Y-70050000D01*
X22500000Y-70050000D02*
X22500000Y-73250000D01*
X22500000Y-70050000D02*
X21000000Y-70050000D01*
G04 #@! TO.C,D6*
X14000000Y-70050000D02*
X12500000Y-70050000D01*
X14000000Y-70050000D02*
X14000000Y-73250000D01*
X12500000Y-73250000D02*
X12500000Y-70050000D01*
G04 #@! TO.C,D7*
X16750000Y-73250000D02*
X16750000Y-70050000D01*
X18250000Y-70050000D02*
X18250000Y-73250000D01*
X18250000Y-70050000D02*
X16750000Y-70050000D01*
G04 #@! TO.C,R4*
X22870000Y-62350000D02*
X22870000Y-61150000D01*
X24630000Y-61150000D02*
X24630000Y-62350000D01*
G04 #@! TO.C,R6*
X16130000Y-61150000D02*
X16130000Y-62350000D01*
X14370000Y-62350000D02*
X14370000Y-61150000D01*
G04 #@! TO.C,R8*
X18620000Y-62350000D02*
X18620000Y-61150000D01*
X20380000Y-61150000D02*
X20380000Y-62350000D01*
G04 #@! TO.C,J4*
X40300000Y-66100000D02*
X42900000Y-66100000D01*
X40300000Y-80800000D02*
X40300000Y-66100000D01*
X49500000Y-66100000D02*
X49500000Y-68000000D01*
X46800000Y-66100000D02*
X49500000Y-66100000D01*
X49500000Y-80800000D02*
X40300000Y-80800000D01*
X49500000Y-72000000D02*
X49500000Y-80800000D01*
G04 #@! TO.C,U1*
D15*
X75862198Y-55108167D02*
X75862198Y-55918006D01*
X75909835Y-56013282D01*
X75957473Y-56060919D01*
X76052748Y-56108557D01*
X76243299Y-56108557D01*
X76338574Y-56060919D01*
X76386211Y-56013282D01*
X76433849Y-55918006D01*
X76433849Y-55108167D01*
X77434239Y-56108557D02*
X76862588Y-56108557D01*
X77148413Y-56108557D02*
X77148413Y-55108167D01*
X77053138Y-55251080D01*
X76957863Y-55346355D01*
X76862588Y-55393993D01*
G04 #@! TO.C,U2*
D16*
X54878095Y-55202380D02*
X54878095Y-56011904D01*
X54925714Y-56107142D01*
X54973333Y-56154761D01*
X55068571Y-56202380D01*
X55259047Y-56202380D01*
X55354285Y-56154761D01*
X55401904Y-56107142D01*
X55449523Y-56011904D01*
X55449523Y-55202380D01*
X55878095Y-55297619D02*
X55925714Y-55250000D01*
X56020952Y-55202380D01*
X56259047Y-55202380D01*
X56354285Y-55250000D01*
X56401904Y-55297619D01*
X56449523Y-55392857D01*
X56449523Y-55488095D01*
X56401904Y-55630952D01*
X55830476Y-56202380D01*
X56449523Y-56202380D01*
G04 #@! TO.C,R5*
X24443333Y-69572380D02*
X24110000Y-69096190D01*
X23871904Y-69572380D02*
X23871904Y-68572380D01*
X24252857Y-68572380D01*
X24348095Y-68620000D01*
X24395714Y-68667619D01*
X24443333Y-68762857D01*
X24443333Y-68905714D01*
X24395714Y-69000952D01*
X24348095Y-69048571D01*
X24252857Y-69096190D01*
X23871904Y-69096190D01*
X25348095Y-68572380D02*
X24871904Y-68572380D01*
X24824285Y-69048571D01*
X24871904Y-69000952D01*
X24967142Y-68953333D01*
X25205238Y-68953333D01*
X25300476Y-69000952D01*
X25348095Y-69048571D01*
X25395714Y-69143809D01*
X25395714Y-69381904D01*
X25348095Y-69477142D01*
X25300476Y-69524761D01*
X25205238Y-69572380D01*
X24967142Y-69572380D01*
X24871904Y-69524761D01*
X24824285Y-69477142D01*
G04 #@! TO.C,R7*
X15903333Y-69632380D02*
X15570000Y-69156190D01*
X15331904Y-69632380D02*
X15331904Y-68632380D01*
X15712857Y-68632380D01*
X15808095Y-68680000D01*
X15855714Y-68727619D01*
X15903333Y-68822857D01*
X15903333Y-68965714D01*
X15855714Y-69060952D01*
X15808095Y-69108571D01*
X15712857Y-69156190D01*
X15331904Y-69156190D01*
X16236666Y-68632380D02*
X16903333Y-68632380D01*
X16474761Y-69632380D01*
G04 #@! TO.C,Q6*
X17244761Y-63937619D02*
X17149523Y-63890000D01*
X17054285Y-63794761D01*
X16911428Y-63651904D01*
X16816190Y-63604285D01*
X16720952Y-63604285D01*
X16768571Y-63842380D02*
X16673333Y-63794761D01*
X16578095Y-63699523D01*
X16530476Y-63509047D01*
X16530476Y-63175714D01*
X16578095Y-62985238D01*
X16673333Y-62890000D01*
X16768571Y-62842380D01*
X16959047Y-62842380D01*
X17054285Y-62890000D01*
X17149523Y-62985238D01*
X17197142Y-63175714D01*
X17197142Y-63509047D01*
X17149523Y-63699523D01*
X17054285Y-63794761D01*
X16959047Y-63842380D01*
X16768571Y-63842380D01*
X18054285Y-62842380D02*
X17863809Y-62842380D01*
X17768571Y-62890000D01*
X17720952Y-62937619D01*
X17625714Y-63080476D01*
X17578095Y-63270952D01*
X17578095Y-63651904D01*
X17625714Y-63747142D01*
X17673333Y-63794761D01*
X17768571Y-63842380D01*
X17959047Y-63842380D01*
X18054285Y-63794761D01*
X18101904Y-63747142D01*
X18149523Y-63651904D01*
X18149523Y-63413809D01*
X18101904Y-63318571D01*
X18054285Y-63270952D01*
X17959047Y-63223333D01*
X17768571Y-63223333D01*
X17673333Y-63270952D01*
X17625714Y-63318571D01*
X17578095Y-63413809D01*
G04 #@! TO.C,Q2*
X21564761Y-64047619D02*
X21469523Y-64000000D01*
X21374285Y-63904761D01*
X21231428Y-63761904D01*
X21136190Y-63714285D01*
X21040952Y-63714285D01*
X21088571Y-63952380D02*
X20993333Y-63904761D01*
X20898095Y-63809523D01*
X20850476Y-63619047D01*
X20850476Y-63285714D01*
X20898095Y-63095238D01*
X20993333Y-63000000D01*
X21088571Y-62952380D01*
X21279047Y-62952380D01*
X21374285Y-63000000D01*
X21469523Y-63095238D01*
X21517142Y-63285714D01*
X21517142Y-63619047D01*
X21469523Y-63809523D01*
X21374285Y-63904761D01*
X21279047Y-63952380D01*
X21088571Y-63952380D01*
X21898095Y-63047619D02*
X21945714Y-63000000D01*
X22040952Y-62952380D01*
X22279047Y-62952380D01*
X22374285Y-63000000D01*
X22421904Y-63047619D01*
X22469523Y-63142857D01*
X22469523Y-63238095D01*
X22421904Y-63380952D01*
X21850476Y-63952380D01*
X22469523Y-63952380D01*
G04 #@! TO.C,Q4*
X13204761Y-63837619D02*
X13109523Y-63790000D01*
X13014285Y-63694761D01*
X12871428Y-63551904D01*
X12776190Y-63504285D01*
X12680952Y-63504285D01*
X12728571Y-63742380D02*
X12633333Y-63694761D01*
X12538095Y-63599523D01*
X12490476Y-63409047D01*
X12490476Y-63075714D01*
X12538095Y-62885238D01*
X12633333Y-62790000D01*
X12728571Y-62742380D01*
X12919047Y-62742380D01*
X13014285Y-62790000D01*
X13109523Y-62885238D01*
X13157142Y-63075714D01*
X13157142Y-63409047D01*
X13109523Y-63599523D01*
X13014285Y-63694761D01*
X12919047Y-63742380D01*
X12728571Y-63742380D01*
X14014285Y-63075714D02*
X14014285Y-63742380D01*
X13776190Y-62694761D02*
X13538095Y-63409047D01*
X14157142Y-63409047D01*
G04 #@! TO.C,C4*
X45283333Y-62307142D02*
X45235714Y-62354761D01*
X45092857Y-62402380D01*
X44997619Y-62402380D01*
X44854761Y-62354761D01*
X44759523Y-62259523D01*
X44711904Y-62164285D01*
X44664285Y-61973809D01*
X44664285Y-61830952D01*
X44711904Y-61640476D01*
X44759523Y-61545238D01*
X44854761Y-61450000D01*
X44997619Y-61402380D01*
X45092857Y-61402380D01*
X45235714Y-61450000D01*
X45283333Y-61497619D01*
X46140476Y-61735714D02*
X46140476Y-62402380D01*
X45902380Y-61354761D02*
X45664285Y-62069047D01*
X46283333Y-62069047D01*
G04 #@! TO.C,C3*
X47983333Y-62357142D02*
X47935714Y-62404761D01*
X47792857Y-62452380D01*
X47697619Y-62452380D01*
X47554761Y-62404761D01*
X47459523Y-62309523D01*
X47411904Y-62214285D01*
X47364285Y-62023809D01*
X47364285Y-61880952D01*
X47411904Y-61690476D01*
X47459523Y-61595238D01*
X47554761Y-61500000D01*
X47697619Y-61452380D01*
X47792857Y-61452380D01*
X47935714Y-61500000D01*
X47983333Y-61547619D01*
X48316666Y-61452380D02*
X48935714Y-61452380D01*
X48602380Y-61833333D01*
X48745238Y-61833333D01*
X48840476Y-61880952D01*
X48888095Y-61928571D01*
X48935714Y-62023809D01*
X48935714Y-62261904D01*
X48888095Y-62357142D01*
X48840476Y-62404761D01*
X48745238Y-62452380D01*
X48459523Y-62452380D01*
X48364285Y-62404761D01*
X48316666Y-62357142D01*
G04 #@! TO.C,R9*
X20243333Y-69622380D02*
X19910000Y-69146190D01*
X19671904Y-69622380D02*
X19671904Y-68622380D01*
X20052857Y-68622380D01*
X20148095Y-68670000D01*
X20195714Y-68717619D01*
X20243333Y-68812857D01*
X20243333Y-68955714D01*
X20195714Y-69050952D01*
X20148095Y-69098571D01*
X20052857Y-69146190D01*
X19671904Y-69146190D01*
X20719523Y-69622380D02*
X20910000Y-69622380D01*
X21005238Y-69574761D01*
X21052857Y-69527142D01*
X21148095Y-69384285D01*
X21195714Y-69193809D01*
X21195714Y-68812857D01*
X21148095Y-68717619D01*
X21100476Y-68670000D01*
X21005238Y-68622380D01*
X20814761Y-68622380D01*
X20719523Y-68670000D01*
X20671904Y-68717619D01*
X20624285Y-68812857D01*
X20624285Y-69050952D01*
X20671904Y-69146190D01*
X20719523Y-69193809D01*
X20814761Y-69241428D01*
X21005238Y-69241428D01*
X21100476Y-69193809D01*
X21148095Y-69146190D01*
X21195714Y-69050952D01*
G04 #@! TO.C,D3*
X21031904Y-75772380D02*
X21031904Y-74772380D01*
X21270000Y-74772380D01*
X21412857Y-74820000D01*
X21508095Y-74915238D01*
X21555714Y-75010476D01*
X21603333Y-75200952D01*
X21603333Y-75343809D01*
X21555714Y-75534285D01*
X21508095Y-75629523D01*
X21412857Y-75724761D01*
X21270000Y-75772380D01*
X21031904Y-75772380D01*
X21936666Y-74772380D02*
X22555714Y-74772380D01*
X22222380Y-75153333D01*
X22365238Y-75153333D01*
X22460476Y-75200952D01*
X22508095Y-75248571D01*
X22555714Y-75343809D01*
X22555714Y-75581904D01*
X22508095Y-75677142D01*
X22460476Y-75724761D01*
X22365238Y-75772380D01*
X22079523Y-75772380D01*
X21984285Y-75724761D01*
X21936666Y-75677142D01*
G04 #@! TO.C,D6*
X12501904Y-75772380D02*
X12501904Y-74772380D01*
X12740000Y-74772380D01*
X12882857Y-74820000D01*
X12978095Y-74915238D01*
X13025714Y-75010476D01*
X13073333Y-75200952D01*
X13073333Y-75343809D01*
X13025714Y-75534285D01*
X12978095Y-75629523D01*
X12882857Y-75724761D01*
X12740000Y-75772380D01*
X12501904Y-75772380D01*
X13930476Y-74772380D02*
X13740000Y-74772380D01*
X13644761Y-74820000D01*
X13597142Y-74867619D01*
X13501904Y-75010476D01*
X13454285Y-75200952D01*
X13454285Y-75581904D01*
X13501904Y-75677142D01*
X13549523Y-75724761D01*
X13644761Y-75772380D01*
X13835238Y-75772380D01*
X13930476Y-75724761D01*
X13978095Y-75677142D01*
X14025714Y-75581904D01*
X14025714Y-75343809D01*
X13978095Y-75248571D01*
X13930476Y-75200952D01*
X13835238Y-75153333D01*
X13644761Y-75153333D01*
X13549523Y-75200952D01*
X13501904Y-75248571D01*
X13454285Y-75343809D01*
G04 #@! TO.C,D7*
X16721904Y-75792380D02*
X16721904Y-74792380D01*
X16960000Y-74792380D01*
X17102857Y-74840000D01*
X17198095Y-74935238D01*
X17245714Y-75030476D01*
X17293333Y-75220952D01*
X17293333Y-75363809D01*
X17245714Y-75554285D01*
X17198095Y-75649523D01*
X17102857Y-75744761D01*
X16960000Y-75792380D01*
X16721904Y-75792380D01*
X17626666Y-74792380D02*
X18293333Y-74792380D01*
X17864761Y-75792380D01*
G04 #@! TO.C,R4*
X25922380Y-60456666D02*
X25446190Y-60790000D01*
X25922380Y-61028095D02*
X24922380Y-61028095D01*
X24922380Y-60647142D01*
X24970000Y-60551904D01*
X25017619Y-60504285D01*
X25112857Y-60456666D01*
X25255714Y-60456666D01*
X25350952Y-60504285D01*
X25398571Y-60551904D01*
X25446190Y-60647142D01*
X25446190Y-61028095D01*
X25255714Y-59599523D02*
X25922380Y-59599523D01*
X24874761Y-59837619D02*
X25589047Y-60075714D01*
X25589047Y-59456666D01*
G04 #@! TO.C,R6*
X17452380Y-60586666D02*
X16976190Y-60920000D01*
X17452380Y-61158095D02*
X16452380Y-61158095D01*
X16452380Y-60777142D01*
X16500000Y-60681904D01*
X16547619Y-60634285D01*
X16642857Y-60586666D01*
X16785714Y-60586666D01*
X16880952Y-60634285D01*
X16928571Y-60681904D01*
X16976190Y-60777142D01*
X16976190Y-61158095D01*
X16452380Y-59729523D02*
X16452380Y-59920000D01*
X16500000Y-60015238D01*
X16547619Y-60062857D01*
X16690476Y-60158095D01*
X16880952Y-60205714D01*
X17261904Y-60205714D01*
X17357142Y-60158095D01*
X17404761Y-60110476D01*
X17452380Y-60015238D01*
X17452380Y-59824761D01*
X17404761Y-59729523D01*
X17357142Y-59681904D01*
X17261904Y-59634285D01*
X17023809Y-59634285D01*
X16928571Y-59681904D01*
X16880952Y-59729523D01*
X16833333Y-59824761D01*
X16833333Y-60015238D01*
X16880952Y-60110476D01*
X16928571Y-60158095D01*
X17023809Y-60205714D01*
G04 #@! TO.C,R8*
X21682380Y-60536666D02*
X21206190Y-60870000D01*
X21682380Y-61108095D02*
X20682380Y-61108095D01*
X20682380Y-60727142D01*
X20730000Y-60631904D01*
X20777619Y-60584285D01*
X20872857Y-60536666D01*
X21015714Y-60536666D01*
X21110952Y-60584285D01*
X21158571Y-60631904D01*
X21206190Y-60727142D01*
X21206190Y-61108095D01*
X21110952Y-59965238D02*
X21063333Y-60060476D01*
X21015714Y-60108095D01*
X20920476Y-60155714D01*
X20872857Y-60155714D01*
X20777619Y-60108095D01*
X20730000Y-60060476D01*
X20682380Y-59965238D01*
X20682380Y-59774761D01*
X20730000Y-59679523D01*
X20777619Y-59631904D01*
X20872857Y-59584285D01*
X20920476Y-59584285D01*
X21015714Y-59631904D01*
X21063333Y-59679523D01*
X21110952Y-59774761D01*
X21110952Y-59965238D01*
X21158571Y-60060476D01*
X21206190Y-60108095D01*
X21301428Y-60155714D01*
X21491904Y-60155714D01*
X21587142Y-60108095D01*
X21634761Y-60060476D01*
X21682380Y-59965238D01*
X21682380Y-59774761D01*
X21634761Y-59679523D01*
X21587142Y-59631904D01*
X21491904Y-59584285D01*
X21301428Y-59584285D01*
X21206190Y-59631904D01*
X21158571Y-59679523D01*
X21110952Y-59774761D01*
G04 #@! TD*
M02*
